<svg class="main-svg" xmlns="http://www.w3.org/2000/svg" xmlns:xlink="http://www.w3.org/1999/xlink" width="700" height="800" style="" viewBox="0 0 700 800"><rect x="0" y="0" width="700" height="800" style="fill: rgb(255, 255, 255); fill-opacity: 1;"/><defs id="defs-08e6a1"><g class="clips"><clipPath id="clip08e6a1xyplot" class="plotclip"><rect width="243" height="232.5"/></clipPath><clipPath id="clip08e6a1x2y2plot" class="plotclip"><rect width="242.99999999999997" height="232.5"/></clipPath><clipPath id="clip08e6a1x3y3plot" class="plotclip"><rect width="243" height="232.5"/></clipPath><clipPath id="clip08e6a1x4y4plot" class="plotclip"><rect width="242.99999999999997" height="232.5"/></clipPath><clipPath class="axesclip" id="clip08e6a1x"><rect x="80" y="0" width="243" height="800"/></clipPath><clipPath class="axesclip" id="clip08e6a1y"><rect x="0" y="100" width="700" height="232.5"/></clipPath><clipPath class="axesclip" id="clip08e6a1xy"><rect x="80" y="100" width="243" height="232.5"/></clipPath><clipPath class="axesclip" id="clip08e6a1y2"><rect x="0" y="100" width="700" height="232.5"/></clipPath><clipPath class="axesclip" id="clip08e6a1xy2"><rect x="80" y="100" width="243" height="232.5"/></clipPath><clipPath class="axesclip" id="clip08e6a1y3"><rect x="0" y="487.5" width="700" height="232.5"/></clipPath><clipPath class="axesclip" id="clip08e6a1xy3"><rect x="80" y="487.5" width="243" height="232.5"/></clipPath><clipPath class="axesclip" id="clip08e6a1y4"><rect x="0" y="487.5" width="700" height="232.5"/></clipPath><clipPath class="axesclip" id="clip08e6a1xy4"><rect x="80" y="487.5" width="243" height="232.5"/></clipPath><clipPath class="axesclip" id="clip08e6a1x2"><rect x="377" y="0" width="242.99999999999997" height="800"/></clipPath><clipPath class="axesclip" id="clip08e6a1x2y"><rect x="377" y="100" width="242.99999999999997" height="232.5"/></clipPath><clipPath class="axesclip" id="clip08e6a1x2y2"><rect x="377" y="100" width="242.99999999999997" height="232.5"/></clipPath><clipPath class="axesclip" id="clip08e6a1x2y3"><rect x="377" y="487.5" width="242.99999999999997" height="232.5"/></clipPath><clipPath class="axesclip" id="clip08e6a1x2y4"><rect x="377" y="487.5" width="242.99999999999997" height="232.5"/></clipPath><clipPath class="axesclip" id="clip08e6a1x3"><rect x="80" y="0" width="243" height="800"/></clipPath><clipPath class="axesclip" id="clip08e6a1x3y"><rect x="80" y="100" width="243" height="232.5"/></clipPath><clipPath class="axesclip" id="clip08e6a1x3y2"><rect x="80" y="100" width="243" height="232.5"/></clipPath><clipPath class="axesclip" id="clip08e6a1x3y3"><rect x="80" y="487.5" width="243" height="232.5"/></clipPath><clipPath class="axesclip" id="clip08e6a1x3y4"><rect x="80" y="487.5" width="243" height="232.5"/></clipPath><clipPath class="axesclip" id="clip08e6a1x4"><rect x="377" y="0" width="242.99999999999997" height="800"/></clipPath><clipPath class="axesclip" id="clip08e6a1x4y"><rect x="377" y="100" width="242.99999999999997" height="232.5"/></clipPath><clipPath class="axesclip" id="clip08e6a1x4y2"><rect x="377" y="100" width="242.99999999999997" height="232.5"/></clipPath><clipPath class="axesclip" id="clip08e6a1x4y3"><rect x="377" y="487.5" width="242.99999999999997" height="232.5"/></clipPath><clipPath class="axesclip" id="clip08e6a1x4y4"><rect x="377" y="487.5" width="242.99999999999997" height="232.5"/></clipPath></g><g class="gradients"/></defs><g class="bglayer"><rect class="bg" x="80" y="100" width="243" height="232.5" style="fill: rgb(229, 236, 246); fill-opacity: 1; stroke-width: 0;"/><rect class="bg" x="377" y="100" width="242.99999999999997" height="232.5" style="fill: rgb(229, 236, 246); fill-opacity: 1; stroke-width: 0;"/><rect class="bg" x="80" y="487.5" width="243" height="232.5" style="fill: rgb(229, 236, 246); fill-opacity: 1; stroke-width: 0;"/><rect class="bg" x="377" y="487.5" width="242.99999999999997" height="232.5" style="fill: rgb(229, 236, 246); fill-opacity: 1; stroke-width: 0;"/></g><g class="layer-below"><g class="imagelayer"/><g class="shapelayer"/></g><g class="cartesianlayer"><g class="subplot xy"><g class="layer-subplot"><g class="shapelayer"/><g class="imagelayer"/></g><g class="gridlayer"><g class="x"><path class="xgrid crisp" transform="translate(124.49000000000001,0)" d="M0,100v232.5" style="stroke: rgb(255, 255, 255); stroke-opacity: 1; stroke-width: 1px;"/><path class="xgrid crisp" transform="translate(194.07999999999998,0)" d="M0,100v232.5" style="stroke: rgb(255, 255, 255); stroke-opacity: 1; stroke-width: 1px;"/><path class="xgrid crisp" transform="translate(263.68,0)" d="M0,100v232.5" style="stroke: rgb(255, 255, 255); stroke-opacity: 1; stroke-width: 1px;"/></g><g class="y"><path class="ygrid crisp" transform="translate(0,259.74)" d="M80,0h243" style="stroke: rgb(255, 255, 255); stroke-opacity: 1; stroke-width: 1px;"/><path class="ygrid crisp" transform="translate(0,192.78)" d="M80,0h243" style="stroke: rgb(255, 255, 255); stroke-opacity: 1; stroke-width: 1px;"/><path class="ygrid crisp" transform="translate(0,125.82)" d="M80,0h243" style="stroke: rgb(255, 255, 255); stroke-opacity: 1; stroke-width: 1px;"/></g></g><g class="zerolinelayer"><path class="yzl zl crisp" transform="translate(0,326.7)" d="M80,0h243" style="stroke: rgb(255, 255, 255); stroke-opacity: 1; stroke-width: 2px;"/></g><path class="xlines-below"/><path class="ylines-below"/><g class="overlines-below"/><g class="xaxislayer-below"/><g class="yaxislayer-below"/><g class="overaxes-below"/><g class="plot" transform="translate(80, 100)" clip-path="url('#clip08e6a1xyplot')"><g class="scatterlayer mlayer"><g class="trace scatter trace3a9b8e" style="stroke-miterlimit: 2; opacity: 1;"><g class="fills"/><g class="errorbars"/><g class="lines"><path class="js-line" d="M0,209.79L2.28,213.88L3.42,217.59L6.85,220.27L7.99,219.87L9.13,220.87L10.27,219.2L11.41,218.8L12.55,217.29L15.97,213.07L17.11,210.53L23.96,188.6L25.1,191.81L30.8,162.79L31.94,155.39L33.08,146.82L34.23,144.24L35.37,128.74L36.51,126.86L39.93,99.81L41.07,89.2L44.49,57.89L45.63,49.36L49.06,30.98L50.2,31.08L52.48,29.14L53.62,30.41L55.9,38.71L57.04,43.77L59.32,65.46L60.46,69.48L67.31,126.16L68.45,131.32L69.59,141.59L70.73,142.73L74.15,155.52L75.3,158.6L76.44,159.94L77.58,158.94L79.86,159.84L81,159.67L82.14,160.11L83.28,158.94L85.56,158.7L86.7,156.86L88.99,152.98L90.13,152.51L91.27,150.73L92.41,151.24L96.97,143.77L98.11,143.13L101.54,140.36L102.68,138.35L104.96,136.47L106.1,133.29L108.38,131.92L109.52,131.01L111.8,127.67L112.94,123.52L120.93,115.85L122.07,115.31L124.35,112.6L125.49,110.93L126.63,110.29L127.77,108.25L130.06,106.81L131.2,105.2L134.62,101.79L135.76,100.38L136.9,99.64L138.04,95.32L140.32,93.35L141.46,91.58L149.45,83.51L150.59,80.76L152.87,78.65L154.01,78.12L156.3,77.31L157.44,72.32L162,68.61L163.14,67.67L165.42,66.4L166.56,65.16L167.7,63.15L168.85,62.65L169.99,62.41L171.13,60.94L173.41,59.87L174.55,59.1L176.83,57.93L177.97,57.59L183.68,55.28L184.82,49.76L185.96,49.69L187.1,46.91L190.52,44.47L191.66,43.26L197.37,41.49L198.51,41.02L203.07,38.38L204.21,39.15L207.63,36.8L208.77,36.6L212.2,33.22L213.34,32.45L217.9,29.57L219.04,28.87L220.18,28.83L221.32,26.96L224.75,24.41L225.89,24.01L229.31,22.14L230.45,19.69L231.59,18.56L232.73,18.76L233.87,17.25L235.01,17.02L238.44,13.27L239.58,12.63L243,11.63" style="vector-effect: non-scaling-stroke; fill: none; stroke: rgb(40, 167, 69); stroke-opacity: 1; stroke-width: 2px; opacity: 1;"/></g><g class="points"/><g class="text"/></g></g></g><g class="overplot"/><path class="xlines-above crisp" d="M79,333H323" style="fill: none; stroke-width: 1px; stroke: rgb(255, 255, 255); stroke-opacity: 1;"/><path class="ylines-above crisp" d="M79.5,100V332.5" style="fill: none; stroke-width: 1px; stroke: rgb(255, 255, 255); stroke-opacity: 1;"/><g class="overlines-above"/><g class="xaxislayer-above"><g class="xtick"><text text-anchor="middle" x="0" y="347.9" transform="translate(124.49000000000001,0)" style="font-family: 'Open Sans', verdana, arial, sans-serif; font-size: 12px; fill: rgb(42, 63, 95); fill-opacity: 1; white-space: pre;">Mar 2020</text></g><g class="xtick"><text text-anchor="middle" x="0" y="347.9" transform="translate(194.07999999999998,0)" style="font-family: 'Open Sans', verdana, arial, sans-serif; font-size: 12px; fill: rgb(42, 63, 95); fill-opacity: 1; white-space: pre;">May 2020</text></g><g class="xtick"><text text-anchor="middle" x="0" y="347.9" transform="translate(263.68,0)" style="font-family: 'Open Sans', verdana, arial, sans-serif; font-size: 12px; fill: rgb(42, 63, 95); fill-opacity: 1; white-space: pre;">Jul 2020</text></g></g><g class="yaxislayer-above"><g class="ytick"><text text-anchor="end" x="76.6" y="4.199999999999999" transform="translate(0,326.7)" style="font-family: 'Open Sans', verdana, arial, sans-serif; font-size: 12px; fill: rgb(42, 63, 95); fill-opacity: 1; white-space: pre;">0</text></g><g class="ytick"><text text-anchor="end" x="76.6" y="4.199999999999999" transform="translate(0,259.74)" style="font-family: 'Open Sans', verdana, arial, sans-serif; font-size: 12px; fill: rgb(42, 63, 95); fill-opacity: 1; white-space: pre;">20</text></g><g class="ytick"><text text-anchor="end" x="76.6" y="4.199999999999999" transform="translate(0,192.78)" style="font-family: 'Open Sans', verdana, arial, sans-serif; font-size: 12px; fill: rgb(42, 63, 95); fill-opacity: 1; white-space: pre;">40</text></g><g class="ytick"><text text-anchor="end" x="76.6" y="4.199999999999999" transform="translate(0,125.82)" style="font-family: 'Open Sans', verdana, arial, sans-serif; font-size: 12px; fill: rgb(42, 63, 95); fill-opacity: 1; white-space: pre;">60</text></g></g><g class="overaxes-above"/></g><g class="subplot x2y2"><g class="layer-subplot"><g class="shapelayer"/><g class="imagelayer"/></g><g class="gridlayer"><g class="x2"><path class="x2grid crisp" transform="translate(421.49,0)" d="M0,100v232.5" style="stroke: rgb(255, 255, 255); stroke-opacity: 1; stroke-width: 1px;"/><path class="x2grid crisp" transform="translate(491.08,0)" d="M0,100v232.5" style="stroke: rgb(255, 255, 255); stroke-opacity: 1; stroke-width: 1px;"/><path class="x2grid crisp" transform="translate(560.6800000000001,0)" d="M0,100v232.5" style="stroke: rgb(255, 255, 255); stroke-opacity: 1; stroke-width: 1px;"/></g><g class="y2"><path class="y2grid crisp" transform="translate(0,322.48)" d="M377,0h242.99999999999997" style="stroke: rgb(255, 255, 255); stroke-opacity: 1; stroke-width: 1px;"/><path class="y2grid crisp" transform="translate(0,282.24)" d="M377,0h242.99999999999997" style="stroke: rgb(255, 255, 255); stroke-opacity: 1; stroke-width: 1px;"/><path class="y2grid crisp" transform="translate(0,242)" d="M377,0h242.99999999999997" style="stroke: rgb(255, 255, 255); stroke-opacity: 1; stroke-width: 1px;"/><path class="y2grid crisp" transform="translate(0,201.76)" d="M377,0h242.99999999999997" style="stroke: rgb(255, 255, 255); stroke-opacity: 1; stroke-width: 1px;"/><path class="y2grid crisp" transform="translate(0,161.52)" d="M377,0h242.99999999999997" style="stroke: rgb(255, 255, 255); stroke-opacity: 1; stroke-width: 1px;"/><path class="y2grid crisp" transform="translate(0,121.28)" d="M377,0h242.99999999999997" style="stroke: rgb(255, 255, 255); stroke-opacity: 1; stroke-width: 1px;"/></g></g><g class="zerolinelayer"/><path class="xlines-below"/><path class="ylines-below"/><g class="overlines-below"/><g class="xaxislayer-below"/><g class="yaxislayer-below"/><g class="overaxes-below"/><g class="plot" transform="translate(377, 100)" clip-path="url('#clip08e6a1x2y2plot')"><g class="scatterlayer mlayer"><g class="trace scatter trace42c074" style="stroke-miterlimit: 2; opacity: 1;"><g class="fills"/><g class="errorbars"/><g class="lines"><path class="js-line" d="M0,179.43L1.14,191.9L2.28,191.5L3.42,185.06L4.56,196.33L5.7,189.89L6.85,208.4L9.13,219.27L10.27,216.45L12.55,216.05L13.69,216.85L14.83,220.07L15.97,220.88L18.25,218.86L19.39,215.64L22.82,202.77L23.96,203.57L25.1,211.62L26.24,211.22L28.52,202.77L29.66,200.35L33.08,184.26L34.23,184.66L35.37,176.61L36.51,176.61L38.79,166.15L39.93,164.54L42.21,162.12L43.35,160.92L44.49,161.32L45.63,160.11L49.06,158.1L50.2,158.9L51.34,160.11L52.48,155.69L53.62,154.08L54.76,150.86L57.04,146.03L58.18,148.04L59.32,148.04L60.46,142.81L61.61,140.8L62.75,137.17L63.89,135.57L65.03,136.37L68.45,125.1L69.59,124.3L71.87,115.85L73.01,115.45L77.58,100.56L78.72,95.32L83.28,70.78L84.42,67.96L85.56,62.73L86.7,53.07L91.27,36.57L92.41,37.78L93.55,35.37L94.69,30.54L95.83,24.9L96.97,23.7L99.25,16.05L100.39,18.06L101.54,17.66L102.68,14.84L104.96,12.03L106.1,11.63L107.24,12.03L108.38,14.04L109.52,14.44L110.66,12.83L111.8,11.63L112.94,11.63L115.23,13.64L116.37,16.05L117.51,17.66L118.65,17.26L119.79,16.86L120.93,18.06L122.07,18.87L123.21,20.88L125.49,24.5L126.63,24.5L130.06,27.72L131.2,30.14L139.18,42.21L140.32,44.62L142.61,49.05L143.75,49.85L147.17,56.69L148.31,59.51L155.15,69.57L156.3,71.58L160.86,77.22L162,78.83L166.56,84.46L167.7,85.67L169.99,88.48L171.13,90.5L174.55,94.92L175.69,96.53L181.39,105.79L182.54,106.99L185.96,113.03L187.1,114.64L198.51,129.53L199.65,130.74L207.63,139.19L208.77,139.59L219.04,149.65L220.18,150.45L232.73,158.5L233.87,158.9L240.72,162.12L241.86,162.93L243,163.33" style="vector-effect: non-scaling-stroke; fill: none; stroke: rgb(255, 7, 58); stroke-opacity: 1; stroke-width: 2px; opacity: 1;"/></g><g class="points"/><g class="text"/></g></g></g><g class="overplot"/><path class="xlines-above crisp" d="M376,333H620" style="fill: none; stroke-width: 1px; stroke: rgb(255, 255, 255); stroke-opacity: 1;"/><path class="ylines-above crisp" d="M376.5,100V332.5" style="fill: none; stroke-width: 1px; stroke: rgb(255, 255, 255); stroke-opacity: 1;"/><g class="overlines-above"/><g class="xaxislayer-above"><g class="x2tick"><text text-anchor="middle" x="0" y="347.9" transform="translate(421.49,0)" style="font-family: 'Open Sans', verdana, arial, sans-serif; font-size: 12px; fill: rgb(42, 63, 95); fill-opacity: 1; white-space: pre;">Mar 2020</text></g><g class="x2tick"><text text-anchor="middle" x="0" y="347.9" transform="translate(491.08,0)" style="font-family: 'Open Sans', verdana, arial, sans-serif; font-size: 12px; fill: rgb(42, 63, 95); fill-opacity: 1; white-space: pre;">May 2020</text></g><g class="x2tick"><text text-anchor="middle" x="0" y="347.9" transform="translate(560.6800000000001,0)" style="font-family: 'Open Sans', verdana, arial, sans-serif; font-size: 12px; fill: rgb(42, 63, 95); fill-opacity: 1; white-space: pre;">Jul 2020</text></g></g><g class="yaxislayer-above"><g class="y2tick"><text text-anchor="end" x="373.6" y="4.199999999999999" transform="translate(0,322.48)" style="font-family: 'Open Sans', verdana, arial, sans-serif; font-size: 12px; fill: rgb(42, 63, 95); fill-opacity: 1; white-space: pre;">2</text></g><g class="y2tick"><text text-anchor="end" x="373.6" y="4.199999999999999" transform="translate(0,282.24)" style="font-family: 'Open Sans', verdana, arial, sans-serif; font-size: 12px; fill: rgb(42, 63, 95); fill-opacity: 1; white-space: pre;">3</text></g><g class="y2tick"><text text-anchor="end" x="373.6" y="4.199999999999999" transform="translate(0,242)" style="font-family: 'Open Sans', verdana, arial, sans-serif; font-size: 12px; fill: rgb(42, 63, 95); fill-opacity: 1; white-space: pre;">4</text></g><g class="y2tick"><text text-anchor="end" x="373.6" y="4.199999999999999" transform="translate(0,201.76)" style="font-family: 'Open Sans', verdana, arial, sans-serif; font-size: 12px; fill: rgb(42, 63, 95); fill-opacity: 1; white-space: pre;">5</text></g><g class="y2tick"><text text-anchor="end" x="373.6" y="4.199999999999999" transform="translate(0,161.52)" style="font-family: 'Open Sans', verdana, arial, sans-serif; font-size: 12px; fill: rgb(42, 63, 95); fill-opacity: 1; white-space: pre;">6</text></g><g class="y2tick"><text text-anchor="end" x="373.6" y="4.199999999999999" transform="translate(0,121.28)" style="font-family: 'Open Sans', verdana, arial, sans-serif; font-size: 12px; fill: rgb(42, 63, 95); fill-opacity: 1; white-space: pre;">7</text></g></g><g class="overaxes-above"/></g><g class="subplot x3y3"><g class="layer-subplot"><g class="shapelayer"/><g class="imagelayer"/></g><g class="gridlayer"><g class="x3"><path class="x3grid crisp" transform="translate(124.49000000000001,0)" d="M0,487.5v232.5" style="stroke: rgb(255, 255, 255); stroke-opacity: 1; stroke-width: 1px;"/><path class="x3grid crisp" transform="translate(194.07999999999998,0)" d="M0,487.5v232.5" style="stroke: rgb(255, 255, 255); stroke-opacity: 1; stroke-width: 1px;"/><path class="x3grid crisp" transform="translate(263.68,0)" d="M0,487.5v232.5" style="stroke: rgb(255, 255, 255); stroke-opacity: 1; stroke-width: 1px;"/></g><g class="y3"><path class="y3grid crisp" transform="translate(0,636.05)" d="M80,0h243" style="stroke: rgb(255, 255, 255); stroke-opacity: 1; stroke-width: 1px;"/><path class="y3grid crisp" transform="translate(0,554.96)" d="M80,0h243" style="stroke: rgb(255, 255, 255); stroke-opacity: 1; stroke-width: 1px;"/></g></g><g class="zerolinelayer"><path class="y3zl zl crisp" transform="translate(0,717.13)" d="M80,0h243" style="stroke: rgb(255, 255, 255); stroke-opacity: 1; stroke-width: 2px;"/></g><path class="xlines-below"/><path class="ylines-below"/><g class="overlines-below"/><g class="xaxislayer-below"/><g class="yaxislayer-below"/><g class="overaxes-below"/><g class="plot" transform="translate(80, 487.5)" clip-path="url('#clip08e6a1x3y3plot')"><g class="scatterlayer mlayer"><g class="trace scatter trace28f990" style="stroke-miterlimit: 2; opacity: 1;"><g class="fills"/><g class="errorbars"/><g class="lines"><path class="js-line" d="M0,131.18L1.14,132.33L2.28,112.51L3.42,54.99L4.56,54.99L5.7,11.62L6.85,31.09L7.99,58.44L9.13,35.71L10.27,74.03L11.41,81.73L13.69,118.74L14.83,135.98L19.39,179.65L20.54,184.31L23.96,194.38L25.1,194.28L27.38,200.85L28.52,203.2L30.8,206.93L31.94,208.26L36.51,212.54L37.65,212.77L43.35,217.7L44.49,218.31L49.06,219.64L50.2,219.69L53.62,219.4L54.76,218.98L59.32,216.67L60.46,215.9L65.03,210.43L66.17,208.19L76.44,189.72L77.58,189.3L82.14,183.51L83.28,183.4L86.7,181.34L87.85,182.21L90.13,181.63L91.27,182.29L92.41,182.23L93.55,183.01L95.83,183.75L96.97,184.16L99.25,183.75L100.39,184.91L104.96,186.14L106.1,187.52L110.66,189.28L111.8,189.92L114.08,192.12L115.23,192.72L120.93,194.94L122.07,195.24L125.49,197.17L126.63,197.38L133.48,200.33L134.62,200.73L150.59,207.41L151.73,207.72L166.56,211.39L167.7,211.71L183.68,214.39L184.82,215L233.87,220.34L235.01,220.39L243,220.87" style="vector-effect: non-scaling-stroke; fill: none; stroke: rgb(22, 22, 23); stroke-opacity: 1; stroke-width: 2px; opacity: 1;"/></g><g class="points"/><g class="text"/></g></g></g><g class="overplot"/><path class="xlines-above crisp" d="M79,720.5H323" style="fill: none; stroke-width: 1px; stroke: rgb(255, 255, 255); stroke-opacity: 1;"/><path class="ylines-above crisp" d="M79.5,487.5V720" style="fill: none; stroke-width: 1px; stroke: rgb(255, 255, 255); stroke-opacity: 1;"/><g class="overlines-above"/><g class="xaxislayer-above"><g class="x3tick"><text text-anchor="middle" x="0" y="735.4" transform="translate(124.49000000000001,0)" style="font-family: 'Open Sans', verdana, arial, sans-serif; font-size: 12px; fill: rgb(42, 63, 95); fill-opacity: 1; white-space: pre;">Mar 2020</text></g><g class="x3tick"><text text-anchor="middle" x="0" y="735.4" transform="translate(194.07999999999998,0)" style="font-family: 'Open Sans', verdana, arial, sans-serif; font-size: 12px; fill: rgb(42, 63, 95); fill-opacity: 1; white-space: pre;">May 2020</text></g><g class="x3tick"><text text-anchor="middle" x="0" y="735.4" transform="translate(263.68,0)" style="font-family: 'Open Sans', verdana, arial, sans-serif; font-size: 12px; fill: rgb(42, 63, 95); fill-opacity: 1; white-space: pre;">Jul 2020</text></g></g><g class="yaxislayer-above"><g class="y3tick"><text text-anchor="end" x="76.6" y="4.199999999999999" transform="translate(0,717.13)" style="font-family: 'Open Sans', verdana, arial, sans-serif; font-size: 12px; fill: rgb(42, 63, 95); fill-opacity: 1; white-space: pre;">0</text></g><g class="y3tick"><text text-anchor="end" x="76.6" y="4.199999999999999" transform="translate(0,636.05)" style="font-family: 'Open Sans', verdana, arial, sans-serif; font-size: 12px; fill: rgb(42, 63, 95); fill-opacity: 1; white-space: pre;">50</text></g><g class="y3tick"><text text-anchor="end" x="76.6" y="4.199999999999999" transform="translate(0,554.96)" style="font-family: 'Open Sans', verdana, arial, sans-serif; font-size: 12px; fill: rgb(42, 63, 95); fill-opacity: 1; white-space: pre;">100</text></g></g><g class="overaxes-above"/></g><g class="subplot x4y4"><g class="layer-subplot"><g class="shapelayer"/><g class="imagelayer"/></g><g class="gridlayer"><g class="x4"><path class="x4grid crisp" transform="translate(421.49,0)" d="M0,487.5v232.5" style="stroke: rgb(255, 255, 255); stroke-opacity: 1; stroke-width: 1px;"/><path class="x4grid crisp" transform="translate(491.08,0)" d="M0,487.5v232.5" style="stroke: rgb(255, 255, 255); stroke-opacity: 1; stroke-width: 1px;"/><path class="x4grid crisp" transform="translate(560.6800000000001,0)" d="M0,487.5v232.5" style="stroke: rgb(255, 255, 255); stroke-opacity: 1; stroke-width: 1px;"/></g><g class="y4"><path class="y4grid crisp" transform="translate(0,664.38)" d="M377,0h242.99999999999997" style="stroke: rgb(255, 255, 255); stroke-opacity: 1; stroke-width: 1px;"/><path class="y4grid crisp" transform="translate(0,620.38)" d="M377,0h242.99999999999997" style="stroke: rgb(255, 255, 255); stroke-opacity: 1; stroke-width: 1px;"/><path class="y4grid crisp" transform="translate(0,576.38)" d="M377,0h242.99999999999997" style="stroke: rgb(255, 255, 255); stroke-opacity: 1; stroke-width: 1px;"/><path class="y4grid crisp" transform="translate(0,532.39)" d="M377,0h242.99999999999997" style="stroke: rgb(255, 255, 255); stroke-opacity: 1; stroke-width: 1px;"/></g></g><g class="zerolinelayer"><path class="y4zl zl crisp" transform="translate(0,708.38)" d="M377,0h242.99999999999997" style="stroke: rgb(255, 255, 255); stroke-opacity: 1; stroke-width: 2px;"/></g><path class="xlines-below"/><path class="ylines-below"/><g class="overlines-below"/><g class="xaxislayer-below"/><g class="yaxislayer-below"/><g class="overaxes-below"/><g class="plot" transform="translate(377, 487.5)" clip-path="url('#clip08e6a1x4y4plot')"><g class="scatterlayer mlayer"><g class="trace scatter tracee716b5" style="stroke-miterlimit: 2; opacity: 1;"><g class="fills"/><g class="errorbars"/><g class="lines"><path class="js-line" d="M0,220.88L2.28,86.86L3.42,69.39L4.56,78.81L5.7,99.27L6.85,11.63L7.99,178.9L9.13,110.31L10.27,146.08L11.41,143.66L12.55,96.36L13.69,152.24L14.83,147L17.11,175.78L18.25,174.9L19.39,188.45L20.54,187.66L22.82,200.81L23.96,216.83L25.1,110.4L26.24,177.93L27.38,207.24L28.52,207.37L30.8,209.88L31.94,217.97L34.23,217.84L35.37,212.25L36.51,219.69L37.65,219.03L38.79,216.96L39.93,217.05L41.07,216.21L42.21,216.52L43.35,215.11L44.49,211.55L45.63,213.84L46.77,212.21L47.92,211.72L49.06,209.74L50.2,205.04L51.34,204.9L53.62,205.43L54.76,201.16L55.9,193.38L57.04,200.94L58.18,175.56L59.32,188.54L60.46,190.56L61.61,184.27L62.75,184.62L63.89,180.13L65.03,169.62L66.17,172.39L67.31,173.71L68.45,176.97L69.59,171.47L70.73,177.45L73.01,168.78L74.15,173.27L75.3,176L76.44,184.62L77.58,184.75L78.72,181.94L79.86,185.19L81,185.77L83.28,191L84.42,195.75L85.56,196.81L86.7,196.81L87.85,196.1L88.99,196.68L90.13,197.69L91.27,201.43L92.41,197.69L93.55,204.77L94.69,205.34L95.83,203.58L96.97,201.12L98.11,203.67L99.25,206.84L100.39,206.09L101.54,207.81L102.68,207.85L103.82,207.63L104.96,206.44L106.1,205.61L107.24,207.9L109.52,210.89L110.66,210.18L114.08,209.44L115.23,210.36L117.51,211.55L118.65,211.28L119.79,210.32L120.93,210.49L122.07,210.49L123.21,211.5L125.49,212.82L126.63,212.25L127.77,212.25L128.92,211.24L131.2,211.81L132.34,213.57L135.76,211.81L136.9,211.72L139.18,212.16L140.32,213.13L141.46,213.88L142.61,213.57L147.17,210.89L148.31,213.22L149.45,214.19L150.59,212.52L152.87,212.47L154.01,212.38L155.15,212.21L156.3,213.84L157.44,214.58L158.58,213.31L160.86,212.78L162,213.44L164.28,213.44L165.42,214.32L166.56,213.26L167.7,213.35L168.85,213.57L169.99,211.64L172.27,214.54L173.41,214.23L175.69,212.87L176.83,212.69L177.97,212.25L179.11,213L181.39,214.1L182.54,213.53L183.68,211.9L184.82,212.47L188.24,213.84L189.38,214.54L190.52,213.04L191.66,213.13L193.94,212.69L195.08,213.4L197.37,214.41L198.51,213.57L201.93,213.31L203.07,213.57L205.35,214.67L206.49,213.97L207.63,212.78L208.77,212.82L211.06,213.88L212.2,215.11L214.48,214.23L215.62,213.4L219.04,214.67L220.18,215.29L221.32,215.99L222.46,214.72L225.89,214.5L227.03,215.07L229.31,215.86L230.45,215.38L233.87,214.54L235.01,215.77L237.3,216.65L238.44,215.82L240.72,215.68L241.86,215.68L243,216.04" style="vector-effect: non-scaling-stroke; fill: none; stroke: rgb(254, 152, 1); stroke-opacity: 1; stroke-width: 2px; opacity: 1;"/></g><g class="points"/><g class="text"/></g></g></g><g class="overplot"/><path class="xlines-above crisp" d="M376,720.5H620" style="fill: none; stroke-width: 1px; stroke: rgb(255, 255, 255); stroke-opacity: 1;"/><path class="ylines-above crisp" d="M376.5,487.5V720" style="fill: none; stroke-width: 1px; stroke: rgb(255, 255, 255); stroke-opacity: 1;"/><g class="overlines-above"/><g class="xaxislayer-above"><g class="x4tick"><text text-anchor="middle" x="0" y="735.4" transform="translate(421.49,0)" style="font-family: 'Open Sans', verdana, arial, sans-serif; font-size: 12px; fill: rgb(42, 63, 95); fill-opacity: 1; white-space: pre;">Mar 2020</text></g><g class="x4tick"><text text-anchor="middle" x="0" y="735.4" transform="translate(491.08,0)" style="font-family: 'Open Sans', verdana, arial, sans-serif; font-size: 12px; fill: rgb(42, 63, 95); fill-opacity: 1; white-space: pre;">May 2020</text></g><g class="x4tick"><text text-anchor="middle" x="0" y="735.4" transform="translate(560.6800000000001,0)" style="font-family: 'Open Sans', verdana, arial, sans-serif; font-size: 12px; fill: rgb(42, 63, 95); fill-opacity: 1; white-space: pre;">Jul 2020</text></g></g><g class="yaxislayer-above"><g class="y4tick"><text text-anchor="end" x="373.6" y="4.199999999999999" transform="translate(0,708.38)" style="font-family: 'Open Sans', verdana, arial, sans-serif; font-size: 12px; fill: rgb(42, 63, 95); fill-opacity: 1; white-space: pre;">0</text></g><g class="y4tick"><text text-anchor="end" x="373.6" y="4.199999999999999" transform="translate(0,664.38)" style="font-family: 'Open Sans', verdana, arial, sans-serif; font-size: 12px; fill: rgb(42, 63, 95); fill-opacity: 1; white-space: pre;">10</text></g><g class="y4tick"><text text-anchor="end" x="373.6" y="4.199999999999999" transform="translate(0,620.38)" style="font-family: 'Open Sans', verdana, arial, sans-serif; font-size: 12px; fill: rgb(42, 63, 95); fill-opacity: 1; white-space: pre;">20</text></g><g class="y4tick"><text text-anchor="end" x="373.6" y="4.199999999999999" transform="translate(0,576.38)" style="font-family: 'Open Sans', verdana, arial, sans-serif; font-size: 12px; fill: rgb(42, 63, 95); fill-opacity: 1; white-space: pre;">30</text></g><g class="y4tick"><text text-anchor="end" x="373.6" y="4.199999999999999" transform="translate(0,532.39)" style="font-family: 'Open Sans', verdana, arial, sans-serif; font-size: 12px; fill: rgb(42, 63, 95); fill-opacity: 1; white-space: pre;">40</text></g><g class="y4tick"><text text-anchor="end" x="373.6" y="4.199999999999999" transform="translate(0,488.39)" style="font-family: 'Open Sans', verdana, arial, sans-serif; font-size: 12px; fill: rgb(42, 63, 95); fill-opacity: 1; white-space: pre;">50</text></g></g><g class="overaxes-above"/></g></g><g class="polarlayer"/><g class="ternarylayer"/><g class="geolayer"/><g class="funnelarealayer"/><g class="pielayer"/><g class="treemaplayer"/><g class="sunburstlayer"/><g class="glimages"/><defs id="topdefs-08e6a1"><g class="clips"/></defs><g class="layer-above"><g class="imagelayer"/><g class="shapelayer"/></g><g class="infolayer"><g class="g-gtitle"><text class="gtitle" x="35" y="50" text-anchor="start" dy="0em" style="font-family: 'Open Sans', verdana, arial, sans-serif; font-size: 17px; fill: rgb(42, 63, 95); opacity: 1; font-weight: normal; white-space: pre;">% Day Wise</text></g><g class="g-xtitle"/><g class="g-x2title"/><g class="g-x3title"/><g class="g-x4title"/><g class="g-ytitle"/><g class="g-y2title"/><g class="g-y3title"/><g class="g-y4title"/><g class="annotation" data-index="0" style="opacity: 1;"><g class="annotation-text-g" transform="rotate(0,201.5,88.5)"><g class="cursor-pointer" transform="translate(122, 77)"><rect class="bg" x="0.5" y="0.5" width="159" height="22" style="stroke-width: 1px; stroke: rgb(0, 0, 0); stroke-opacity: 0; fill: rgb(0, 0, 0); fill-opacity: 0;"/><text class="annotation-text" text-anchor="middle" x="80" y="18" style="font-family: 'Open Sans', verdana, arial, sans-serif; font-size: 16px; fill: rgb(42, 63, 95); fill-opacity: 1; white-space: pre;">% Recovered cases</text></g></g></g><g class="annotation" data-index="1" style="opacity: 1;"><g class="annotation-text-g" transform="rotate(0,498.5,88.5)"><g class="cursor-pointer" transform="translate(457, 77)"><rect class="bg" x="0.5" y="0.5" width="82" height="22" style="stroke-width: 1px; stroke: rgb(0, 0, 0); stroke-opacity: 0; fill: rgb(0, 0, 0); fill-opacity: 0;"/><text class="annotation-text" text-anchor="middle" x="41.546875" y="18" style="font-family: 'Open Sans', verdana, arial, sans-serif; font-size: 16px; fill: rgb(42, 63, 95); fill-opacity: 1; white-space: pre;">% Deaths</text></g></g></g><g class="annotation" data-index="2" style="opacity: 1;"><g class="annotation-text-g" transform="rotate(0,201.5,476)"><g class="cursor-pointer" transform="translate(100, 465)"><rect class="bg" x="0.5" y="0.5" width="202" height="22" style="stroke-width: 1px; stroke: rgb(0, 0, 0); stroke-opacity: 0; fill: rgb(0, 0, 0); fill-opacity: 0;"/><text class="annotation-text" text-anchor="middle" x="101.671875" y="18" style="font-family: 'Open Sans', verdana, arial, sans-serif; font-size: 16px; fill: rgb(42, 63, 95); fill-opacity: 1; white-space: pre;">% Deaths Per Recovered</text></g></g></g><g class="annotation" data-index="3" style="opacity: 1;"><g class="annotation-text-g" transform="rotate(0,498.5,476)"><g class="cursor-pointer" transform="translate(442, 465)"><rect class="bg" x="0.5" y="0.5" width="113" height="22" style="stroke-width: 1px; stroke: rgb(0, 0, 0); stroke-opacity: 0; fill: rgb(0, 0, 0); fill-opacity: 0;"/><text class="annotation-text" text-anchor="middle" x="57.03125" y="18" style="font-family: 'Open Sans', verdana, arial, sans-serif; font-size: 16px; fill: rgb(42, 63, 95); fill-opacity: 1; white-space: pre;">% New Cases</text></g></g></g></g></svg>