<svg class="main-svg" xmlns="http://www.w3.org/2000/svg" xmlns:xlink="http://www.w3.org/1999/xlink" width="700" height="800" style="" viewBox="0 0 700 800"><rect x="0" y="0" width="700" height="800" style="fill: rgb(255, 255, 255); fill-opacity: 1;"/><defs id="defs-2b7c3d"><g class="clips"><clipPath id="clip2b7c3dxyplot" class="plotclip"><rect width="243" height="232.5"/></clipPath><clipPath id="clip2b7c3dx2y2plot" class="plotclip"><rect width="242.99999999999997" height="232.5"/></clipPath><clipPath id="clip2b7c3dx3y3plot" class="plotclip"><rect width="243" height="232.5"/></clipPath><clipPath id="clip2b7c3dx4y4plot" class="plotclip"><rect width="242.99999999999997" height="232.5"/></clipPath><clipPath class="axesclip" id="clip2b7c3dx"><rect x="80" y="0" width="243" height="800"/></clipPath><clipPath class="axesclip" id="clip2b7c3dy"><rect x="0" y="100" width="700" height="232.5"/></clipPath><clipPath class="axesclip" id="clip2b7c3dxy"><rect x="80" y="100" width="243" height="232.5"/></clipPath><clipPath class="axesclip" id="clip2b7c3dy2"><rect x="0" y="100" width="700" height="232.5"/></clipPath><clipPath class="axesclip" id="clip2b7c3dxy2"><rect x="80" y="100" width="243" height="232.5"/></clipPath><clipPath class="axesclip" id="clip2b7c3dy3"><rect x="0" y="487.5" width="700" height="232.5"/></clipPath><clipPath class="axesclip" id="clip2b7c3dxy3"><rect x="80" y="487.5" width="243" height="232.5"/></clipPath><clipPath class="axesclip" id="clip2b7c3dy4"><rect x="0" y="487.5" width="700" height="232.5"/></clipPath><clipPath class="axesclip" id="clip2b7c3dxy4"><rect x="80" y="487.5" width="243" height="232.5"/></clipPath><clipPath class="axesclip" id="clip2b7c3dx2"><rect x="377" y="0" width="242.99999999999997" height="800"/></clipPath><clipPath class="axesclip" id="clip2b7c3dx2y"><rect x="377" y="100" width="242.99999999999997" height="232.5"/></clipPath><clipPath class="axesclip" id="clip2b7c3dx2y2"><rect x="377" y="100" width="242.99999999999997" height="232.5"/></clipPath><clipPath class="axesclip" id="clip2b7c3dx2y3"><rect x="377" y="487.5" width="242.99999999999997" height="232.5"/></clipPath><clipPath class="axesclip" id="clip2b7c3dx2y4"><rect x="377" y="487.5" width="242.99999999999997" height="232.5"/></clipPath><clipPath class="axesclip" id="clip2b7c3dx3"><rect x="80" y="0" width="243" height="800"/></clipPath><clipPath class="axesclip" id="clip2b7c3dx3y"><rect x="80" y="100" width="243" height="232.5"/></clipPath><clipPath class="axesclip" id="clip2b7c3dx3y2"><rect x="80" y="100" width="243" height="232.5"/></clipPath><clipPath class="axesclip" id="clip2b7c3dx3y3"><rect x="80" y="487.5" width="243" height="232.5"/></clipPath><clipPath class="axesclip" id="clip2b7c3dx3y4"><rect x="80" y="487.5" width="243" height="232.5"/></clipPath><clipPath class="axesclip" id="clip2b7c3dx4"><rect x="377" y="0" width="242.99999999999997" height="800"/></clipPath><clipPath class="axesclip" id="clip2b7c3dx4y"><rect x="377" y="100" width="242.99999999999997" height="232.5"/></clipPath><clipPath class="axesclip" id="clip2b7c3dx4y2"><rect x="377" y="100" width="242.99999999999997" height="232.5"/></clipPath><clipPath class="axesclip" id="clip2b7c3dx4y3"><rect x="377" y="487.5" width="242.99999999999997" height="232.5"/></clipPath><clipPath class="axesclip" id="clip2b7c3dx4y4"><rect x="377" y="487.5" width="242.99999999999997" height="232.5"/></clipPath></g><g class="gradients"/></defs><g class="bglayer"><rect class="bg" x="80" y="100" width="243" height="232.5" style="fill: rgb(229, 236, 246); fill-opacity: 1; stroke-width: 0;"/><rect class="bg" x="377" y="100" width="242.99999999999997" height="232.5" style="fill: rgb(229, 236, 246); fill-opacity: 1; stroke-width: 0;"/><rect class="bg" x="80" y="487.5" width="243" height="232.5" style="fill: rgb(229, 236, 246); fill-opacity: 1; stroke-width: 0;"/><rect class="bg" x="377" y="487.5" width="242.99999999999997" height="232.5" style="fill: rgb(229, 236, 246); fill-opacity: 1; stroke-width: 0;"/></g><g class="layer-below"><g class="imagelayer"/><g class="shapelayer"/></g><g class="cartesianlayer"><g class="subplot xy"><g class="layer-subplot"><g class="shapelayer"/><g class="imagelayer"/></g><g class="gridlayer"><g class="x"><path class="xgrid crisp" transform="translate(118.68,0)" d="M0,100v232.5" style="stroke: rgb(255, 255, 255); stroke-opacity: 1; stroke-width: 1px;"/><path class="xgrid crisp" transform="translate(179.18,0)" d="M0,100v232.5" style="stroke: rgb(255, 255, 255); stroke-opacity: 1; stroke-width: 1px;"/><path class="xgrid crisp" transform="translate(239.69,0)" d="M0,100v232.5" style="stroke: rgb(255, 255, 255); stroke-opacity: 1; stroke-width: 1px;"/><path class="xgrid crisp" transform="translate(301.18,0)" d="M0,100v232.5" style="stroke: rgb(255, 255, 255); stroke-opacity: 1; stroke-width: 1px;"/></g><g class="y"><path class="ygrid crisp" transform="translate(0,312.95)" d="M80,0h243" style="stroke: rgb(255, 255, 255); stroke-opacity: 1; stroke-width: 1px;"/><path class="ygrid crisp" transform="translate(0,289.89)" d="M80,0h243" style="stroke: rgb(255, 255, 255); stroke-opacity: 1; stroke-width: 1px;"/><path class="ygrid crisp" transform="translate(0,273.52)" d="M80,0h243" style="stroke: rgb(255, 255, 255); stroke-opacity: 1; stroke-width: 1px;"/><path class="ygrid crisp" transform="translate(0,260.83000000000004)" d="M80,0h243" style="stroke: rgb(255, 255, 255); stroke-opacity: 1; stroke-width: 1px;"/><path class="ygrid crisp" transform="translate(0,250.45)" d="M80,0h243" style="stroke: rgb(255, 255, 255); stroke-opacity: 1; stroke-width: 1px;"/><path class="ygrid crisp" transform="translate(0,241.68)" d="M80,0h243" style="stroke: rgb(255, 255, 255); stroke-opacity: 1; stroke-width: 1px;"/><path class="ygrid crisp" transform="translate(0,234.09)" d="M80,0h243" style="stroke: rgb(255, 255, 255); stroke-opacity: 1; stroke-width: 1px;"/><path class="ygrid crisp" transform="translate(0,227.39)" d="M80,0h243" style="stroke: rgb(255, 255, 255); stroke-opacity: 1; stroke-width: 1px;"/><path class="ygrid crisp" transform="translate(0,221.39)" d="M80,0h243" style="stroke: rgb(255, 255, 255); stroke-opacity: 1; stroke-width: 1px;"/><path class="ygrid crisp" transform="translate(0,181.95999999999998)" d="M80,0h243" style="stroke: rgb(255, 255, 255); stroke-opacity: 1; stroke-width: 1px;"/><path class="ygrid crisp" transform="translate(0,158.89)" d="M80,0h243" style="stroke: rgb(255, 255, 255); stroke-opacity: 1; stroke-width: 1px;"/><path class="ygrid crisp" transform="translate(0,142.53)" d="M80,0h243" style="stroke: rgb(255, 255, 255); stroke-opacity: 1; stroke-width: 1px;"/><path class="ygrid crisp" transform="translate(0,129.82999999999998)" d="M80,0h243" style="stroke: rgb(255, 255, 255); stroke-opacity: 1; stroke-width: 1px;"/><path class="ygrid crisp" transform="translate(0,119.46000000000001)" d="M80,0h243" style="stroke: rgb(255, 255, 255); stroke-opacity: 1; stroke-width: 1px;"/><path class="ygrid crisp" transform="translate(0,110.69)" d="M80,0h243" style="stroke: rgb(255, 255, 255); stroke-opacity: 1; stroke-width: 1px;"/><path class="ygrid crisp" transform="translate(0,103.09)" d="M80,0h243" style="stroke: rgb(255, 255, 255); stroke-opacity: 1; stroke-width: 1px;"/></g></g><g class="zerolinelayer"/><path class="xlines-below"/><path class="ylines-below"/><g class="overlines-below"/><g class="xaxislayer-below"/><g class="yaxislayer-below"/><g class="overaxes-below"/><g class="plot" transform="translate(80, 100)" clip-path="url('#clip2b7c3dxyplot')"><g class="scatterlayer mlayer"><g class="trace scatter tracedcaeb2" style="stroke-miterlimit: 2; opacity: 1;"><g class="fills"/><g class="errorbars"/><g class="lines"><path class="js-line" d="M0,160.26L0.99,165.69L1.98,175.99L3.97,201.18L4.96,210.45L5.95,215.27L6.94,211.83L7.93,220.88L8.93,206.51L9.92,203.54L10.91,193.61L13.89,172.53L14.88,162.79L18.84,125.95L19.84,118.89L20.83,114.04L21.82,119.05L25.79,90.64L26.78,84.61L30.75,60.31L31.74,59.24L39.67,26.55L40.67,24.5L42.65,20.94L43.64,21.01L45.62,20.46L46.62,20.86L49.59,24.88L50.58,29.59L53.56,37.39L54.55,40.49L56.53,50.04L57.53,55.27L59.51,62.01L60.5,68.68L61.49,69.42L62.49,73L65.46,81.25L66.45,82.33L67.44,81.51L68.44,82.22L71.41,82.47L72.4,81.45L74.39,81.28L75.38,79.78L77.36,76.69L78.36,76.31L79.35,74.96L80.34,75.26L84.31,69.98L85.3,69.52L88.27,67.65L89.27,66.36L91.25,65.16L92.24,63.12L95.22,61.71L96.21,60.98L100.18,55.97L101.17,55.56L108.11,51.66L109.1,50.83L113.07,48.85L114.06,48.06L119.02,45.54L120.01,43.62L125.96,40.61L126.96,39.98L129.93,38.7L130.92,37.62L133.9,36.59L134.89,36.37L135.88,36.27L136.87,34.4L146.79,30.96L147.78,30.87L150.76,30L151.75,29.74L155.72,29.04L156.71,28.96L159.69,28.45L160.68,26.65L161.67,26.63L162.66,25.74L176.55,23.1L177.54,23.33L189.44,20.5L190.43,20.3L192.42,19.76L193.41,19.41L198.37,18.52L199.36,18.4L201.34,17.41L202.33,17.47L208.29,15.82L209.28,15.67L213.24,15.02L214.24,14.74L241.02,11.83L242.01,11.85L243,11.63" style="vector-effect: non-scaling-stroke; fill: none; stroke: rgb(40, 167, 69); stroke-opacity: 1; stroke-width: 2px; opacity: 1;"/></g><g class="points"/><g class="text"/></g></g></g><g class="overplot"/><path class="xlines-above crisp" d="M79,333H323" style="fill: none; stroke-width: 1px; stroke: rgb(255, 255, 255); stroke-opacity: 1;"/><path class="ylines-above crisp" d="M79.5,100V332.5" style="fill: none; stroke-width: 1px; stroke: rgb(255, 255, 255); stroke-opacity: 1;"/><g class="overlines-above"/><g class="xaxislayer-above"><g class="xtick"><text text-anchor="middle" x="0" y="347.9" transform="translate(118.68,0)" style="font-family: 'Open Sans', verdana, arial, sans-serif; font-size: 12px; fill: rgb(42, 63, 95); fill-opacity: 1; white-space: pre;">Mar 2020</text></g><g class="xtick"><text text-anchor="middle" x="0" y="347.9" transform="translate(179.18,0)" style="font-family: 'Open Sans', verdana, arial, sans-serif; font-size: 12px; fill: rgb(42, 63, 95); fill-opacity: 1; white-space: pre;">May 2020</text></g><g class="xtick"><text text-anchor="middle" x="0" y="347.9" transform="translate(239.69,0)" style="font-family: 'Open Sans', verdana, arial, sans-serif; font-size: 12px; fill: rgb(42, 63, 95); fill-opacity: 1; white-space: pre;">Jul 2020</text></g><g class="xtick"><text text-anchor="middle" x="0" y="347.9" transform="translate(301.18,0)" style="font-family: 'Open Sans', verdana, arial, sans-serif; font-size: 12px; fill: rgb(42, 63, 95); fill-opacity: 1; white-space: pre;">Sep 2020</text></g></g><g class="yaxislayer-above"><g class="ytick"><text text-anchor="end" x="76.6" y="3.15" transform="translate(0,312.95)" style="font-family: 'Open Sans', verdana, arial, sans-serif; font-size: 9px; fill: rgb(42, 63, 95); fill-opacity: 1; white-space: pre;">2</text></g><g class="ytick"><text text-anchor="end" x="76.6" y="3.15" transform="translate(0,289.89)" style="font-family: 'Open Sans', verdana, arial, sans-serif; font-size: 9px; fill: rgb(42, 63, 95); fill-opacity: 1; white-space: pre;">3</text></g><g class="ytick"><text text-anchor="end" x="76.6" y="3.15" transform="translate(0,273.52)" style="font-family: 'Open Sans', verdana, arial, sans-serif; font-size: 9px; fill: rgb(42, 63, 95); fill-opacity: 1; white-space: pre;">4</text></g><g class="ytick"><text text-anchor="end" x="76.6" y="3.15" transform="translate(0,260.83000000000004)" style="font-family: 'Open Sans', verdana, arial, sans-serif; font-size: 9px; fill: rgb(42, 63, 95); fill-opacity: 1; white-space: pre;">5</text></g><g class="ytick"><text text-anchor="end" x="76.6" y="3.15" transform="translate(0,250.45)" style="font-family: 'Open Sans', verdana, arial, sans-serif; font-size: 9px; fill: rgb(42, 63, 95); fill-opacity: 1; white-space: pre;">6</text></g><g class="ytick"><text text-anchor="end" x="76.6" y="3.15" transform="translate(0,241.68)" style="font-family: 'Open Sans', verdana, arial, sans-serif; font-size: 9px; fill: rgb(42, 63, 95); fill-opacity: 1; white-space: pre;">7</text></g><g class="ytick"><text text-anchor="end" x="76.6" y="3.15" transform="translate(0,234.09)" style="font-family: 'Open Sans', verdana, arial, sans-serif; font-size: 9px; fill: rgb(42, 63, 95); fill-opacity: 1; white-space: pre;">8</text></g><g class="ytick"><text text-anchor="end" x="76.6" y="3.15" transform="translate(0,227.39)" style="font-family: 'Open Sans', verdana, arial, sans-serif; font-size: 9px; fill: rgb(42, 63, 95); fill-opacity: 1; white-space: pre;">9</text></g><g class="ytick"><text text-anchor="end" x="73.6" y="2.1999999999999993" transform="translate(0,221.39)" style="font-family: 'Open Sans', verdana, arial, sans-serif; font-size: 12px; fill: rgb(42, 63, 95); fill-opacity: 1; white-space: pre;">10</text></g><g class="ytick"><text text-anchor="end" x="76.6" y="3.15" transform="translate(0,181.95999999999998)" style="font-family: 'Open Sans', verdana, arial, sans-serif; font-size: 9px; fill: rgb(42, 63, 95); fill-opacity: 1; white-space: pre;">2</text></g><g class="ytick"><text text-anchor="end" x="76.6" y="3.15" transform="translate(0,158.89)" style="font-family: 'Open Sans', verdana, arial, sans-serif; font-size: 9px; fill: rgb(42, 63, 95); fill-opacity: 1; white-space: pre;">3</text></g><g class="ytick"><text text-anchor="end" x="76.6" y="3.15" transform="translate(0,142.53)" style="font-family: 'Open Sans', verdana, arial, sans-serif; font-size: 9px; fill: rgb(42, 63, 95); fill-opacity: 1; white-space: pre;">4</text></g><g class="ytick"><text text-anchor="end" x="76.6" y="3.15" transform="translate(0,129.82999999999998)" style="font-family: 'Open Sans', verdana, arial, sans-serif; font-size: 9px; fill: rgb(42, 63, 95); fill-opacity: 1; white-space: pre;">5</text></g><g class="ytick"><text text-anchor="end" x="76.6" y="3.15" transform="translate(0,119.46000000000001)" style="font-family: 'Open Sans', verdana, arial, sans-serif; font-size: 9px; fill: rgb(42, 63, 95); fill-opacity: 1; white-space: pre;">6</text></g><g class="ytick"><text text-anchor="end" x="76.6" y="3.15" transform="translate(0,110.69)" style="font-family: 'Open Sans', verdana, arial, sans-serif; font-size: 9px; fill: rgb(42, 63, 95); fill-opacity: 1; white-space: pre;">7</text></g><g class="ytick"><text text-anchor="end" x="76.6" y="3.15" transform="translate(0,103.09)" style="font-family: 'Open Sans', verdana, arial, sans-serif; font-size: 9px; fill: rgb(42, 63, 95); fill-opacity: 1; white-space: pre;">8</text></g></g><g class="overaxes-above"/></g><g class="subplot x2y2"><g class="layer-subplot"><g class="shapelayer"/><g class="imagelayer"/></g><g class="gridlayer"><g class="x2"><path class="x2grid crisp" transform="translate(415.68,0)" d="M0,100v232.5" style="stroke: rgb(255, 255, 255); stroke-opacity: 1; stroke-width: 1px;"/><path class="x2grid crisp" transform="translate(476.18,0)" d="M0,100v232.5" style="stroke: rgb(255, 255, 255); stroke-opacity: 1; stroke-width: 1px;"/><path class="x2grid crisp" transform="translate(536.69,0)" d="M0,100v232.5" style="stroke: rgb(255, 255, 255); stroke-opacity: 1; stroke-width: 1px;"/><path class="x2grid crisp" transform="translate(598.1800000000001,0)" d="M0,100v232.5" style="stroke: rgb(255, 255, 255); stroke-opacity: 1; stroke-width: 1px;"/></g><g class="y2"><path class="y2grid crisp" transform="translate(0,323.66999999999996)" d="M377,0h242.99999999999997" style="stroke: rgb(255, 255, 255); stroke-opacity: 1; stroke-width: 1px;"/><path class="y2grid crisp" transform="translate(0,281.85)" d="M377,0h242.99999999999997" style="stroke: rgb(255, 255, 255); stroke-opacity: 1; stroke-width: 1px;"/><path class="y2grid crisp" transform="translate(0,247.68)" d="M377,0h242.99999999999997" style="stroke: rgb(255, 255, 255); stroke-opacity: 1; stroke-width: 1px;"/><path class="y2grid crisp" transform="translate(0,218.79000000000002)" d="M377,0h242.99999999999997" style="stroke: rgb(255, 255, 255); stroke-opacity: 1; stroke-width: 1px;"/><path class="y2grid crisp" transform="translate(0,193.76)" d="M377,0h242.99999999999997" style="stroke: rgb(255, 255, 255); stroke-opacity: 1; stroke-width: 1px;"/><path class="y2grid crisp" transform="translate(0,171.69)" d="M377,0h242.99999999999997" style="stroke: rgb(255, 255, 255); stroke-opacity: 1; stroke-width: 1px;"/><path class="y2grid crisp" transform="translate(0,151.94)" d="M377,0h242.99999999999997" style="stroke: rgb(255, 255, 255); stroke-opacity: 1; stroke-width: 1px;"/><path class="y2grid crisp" transform="translate(0,134.07999999999998)" d="M377,0h242.99999999999997" style="stroke: rgb(255, 255, 255); stroke-opacity: 1; stroke-width: 1px;"/><path class="y2grid crisp" transform="translate(0,117.77)" d="M377,0h242.99999999999997" style="stroke: rgb(255, 255, 255); stroke-opacity: 1; stroke-width: 1px;"/><path class="y2grid crisp" transform="translate(0,102.77)" d="M377,0h242.99999999999997" style="stroke: rgb(255, 255, 255); stroke-opacity: 1; stroke-width: 1px;"/></g></g><g class="zerolinelayer"/><path class="xlines-below"/><path class="ylines-below"/><g class="overlines-below"/><g class="xaxislayer-below"/><g class="yaxislayer-below"/><g class="overaxes-below"/><g class="plot" transform="translate(377, 100)" clip-path="url('#clip2b7c3dx2y2plot')"><g class="scatterlayer mlayer"><g class="trace scatter trace7683af" style="stroke-miterlimit: 2; opacity: 1;"><g class="fills"/><g class="errorbars"/><g class="lines"><path class="js-line" d="M0,143.35L1.98,170.22L2.98,156.63L3.97,178.13L4.96,164.67L6.94,211.86L7.93,219.95L8.93,212.74L9.92,211.86L10.91,211.86L11.9,212.74L12.89,219.95L13.89,220.88L14.88,219.95L15.87,216.31L18.84,193.44L19.84,184.87L20.83,185.63L21.82,201.59L22.81,200.76L23.8,190.28L26.78,170.22L27.77,161.28L28.76,152.1L29.76,153.38L30.75,140.33L31.74,140.33L33.72,125.32L34.71,123.12L36.7,120.4L37.69,118.25L38.68,118.79L39.67,117.19L42.65,114.55L43.64,115.6L44.63,117.72L45.62,112.47L46.62,110.92L47.61,106.86L48.6,105.36L49.59,101.9L51.58,108.88L52.57,104.86L53.56,103.37L54.55,103.37L55.54,101.9L56.53,104.86L58.52,100.92L59.51,101.9L60.5,105.86L61.49,103.87L62.49,104.36L63.48,105.86L66.45,100.92L67.44,98.02L69.43,86.86L70.42,79.77L74.39,60.77L75.38,50.82L79.35,35.1L80.34,35.79L81.33,33.4L82.32,29.03L84.31,24.12L85.3,20.92L86.29,19.02L87.28,19.02L88.27,18.4L89.27,15.91L91.25,13.75L92.24,12.84L95.22,14.06L96.21,12.84L97.2,11.63L98.19,11.63L100.18,12.23L101.17,13.75L102.16,14.37L103.15,14.06L105.13,14.06L106.13,14.67L110.09,17.77L111.09,18.08L114.06,20.6L115.05,21.56L119.02,25.75L120.01,26.73L123.98,32.04L124.97,32.38L127.95,37.17L128.94,39.26L134.89,46.04L135.88,47.86L138.86,50.82L139.85,51.94L142.82,56.11L143.82,57.65L144.81,57.65L145.8,58.81L146.79,59.59L147.78,61.55L151.75,66.75L152.74,67.97L169.6,94.7L170.6,96.12L179.52,107.87L180.51,108.88L181.51,109.39L182.5,110.92L188.45,117.72L189.44,119.32L195.39,124.77L196.38,125.32L201.34,129.81L202.33,130.38L203.33,130.38L204.32,131.52L211.26,136.17L212.25,137.35L219.2,142.14L220.19,143.35L221.18,143.35L222.17,144.58L226.14,147.68L227.13,147.05L236.06,153.38L237.05,154.68L243,158.61" style="vector-effect: non-scaling-stroke; fill: none; stroke: rgb(255, 7, 58); stroke-opacity: 1; stroke-width: 2px; opacity: 1;"/></g><g class="points"/><g class="text"/></g></g></g><g class="overplot"/><path class="xlines-above crisp" d="M376,333H620" style="fill: none; stroke-width: 1px; stroke: rgb(255, 255, 255); stroke-opacity: 1;"/><path class="ylines-above crisp" d="M376.5,100V332.5" style="fill: none; stroke-width: 1px; stroke: rgb(255, 255, 255); stroke-opacity: 1;"/><g class="overlines-above"/><g class="xaxislayer-above"><g class="x2tick"><text text-anchor="middle" x="0" y="347.9" transform="translate(415.68,0)" style="font-family: 'Open Sans', verdana, arial, sans-serif; font-size: 12px; fill: rgb(42, 63, 95); fill-opacity: 1; white-space: pre;">Mar 2020</text></g><g class="x2tick"><text text-anchor="middle" x="0" y="347.9" transform="translate(476.18,0)" style="font-family: 'Open Sans', verdana, arial, sans-serif; font-size: 12px; fill: rgb(42, 63, 95); fill-opacity: 1; white-space: pre;">May 2020</text></g><g class="x2tick"><text text-anchor="middle" x="0" y="347.9" transform="translate(536.69,0)" style="font-family: 'Open Sans', verdana, arial, sans-serif; font-size: 12px; fill: rgb(42, 63, 95); fill-opacity: 1; white-space: pre;">Jul 2020</text></g><g class="x2tick"><text text-anchor="middle" x="0" y="347.9" transform="translate(598.1800000000001,0)" style="font-family: 'Open Sans', verdana, arial, sans-serif; font-size: 12px; fill: rgb(42, 63, 95); fill-opacity: 1; white-space: pre;">Sep 2020</text></g></g><g class="yaxislayer-above"><g class="y2tick"><text text-anchor="end" x="373.6" y="4.199999999999999" transform="translate(0,323.66999999999996)" style="font-family: 'Open Sans', verdana, arial, sans-serif; font-size: 12px; fill: rgb(42, 63, 95); fill-opacity: 1; white-space: pre;">2</text></g><g class="y2tick"><text text-anchor="end" x="373.6" y="4.199999999999999" transform="translate(0,281.85)" style="font-family: 'Open Sans', verdana, arial, sans-serif; font-size: 12px; fill: rgb(42, 63, 95); fill-opacity: 1; white-space: pre;">2.5</text></g><g class="y2tick"><text text-anchor="end" x="373.6" y="4.199999999999999" transform="translate(0,247.68)" style="font-family: 'Open Sans', verdana, arial, sans-serif; font-size: 12px; fill: rgb(42, 63, 95); fill-opacity: 1; white-space: pre;">3</text></g><g class="y2tick"><text text-anchor="end" x="373.6" y="4.199999999999999" transform="translate(0,218.79000000000002)" style="font-family: 'Open Sans', verdana, arial, sans-serif; font-size: 12px; fill: rgb(42, 63, 95); fill-opacity: 1; white-space: pre;">3.5</text></g><g class="y2tick"><text text-anchor="end" x="373.6" y="4.199999999999999" transform="translate(0,193.76)" style="font-family: 'Open Sans', verdana, arial, sans-serif; font-size: 12px; fill: rgb(42, 63, 95); fill-opacity: 1; white-space: pre;">4</text></g><g class="y2tick"><text text-anchor="end" x="373.6" y="4.199999999999999" transform="translate(0,171.69)" style="font-family: 'Open Sans', verdana, arial, sans-serif; font-size: 12px; fill: rgb(42, 63, 95); fill-opacity: 1; white-space: pre;">4.5</text></g><g class="y2tick"><text text-anchor="end" x="373.6" y="4.199999999999999" transform="translate(0,151.94)" style="font-family: 'Open Sans', verdana, arial, sans-serif; font-size: 12px; fill: rgb(42, 63, 95); fill-opacity: 1; white-space: pre;">5</text></g><g class="y2tick"><text text-anchor="end" x="373.6" y="4.199999999999999" transform="translate(0,134.07999999999998)" style="font-family: 'Open Sans', verdana, arial, sans-serif; font-size: 12px; fill: rgb(42, 63, 95); fill-opacity: 1; white-space: pre;">5.5</text></g><g class="y2tick"><text text-anchor="end" x="373.6" y="4.199999999999999" transform="translate(0,117.77)" style="font-family: 'Open Sans', verdana, arial, sans-serif; font-size: 12px; fill: rgb(42, 63, 95); fill-opacity: 1; white-space: pre;">6</text></g><g class="y2tick"><text text-anchor="end" x="373.6" y="4.199999999999999" transform="translate(0,102.77)" style="font-family: 'Open Sans', verdana, arial, sans-serif; font-size: 12px; fill: rgb(42, 63, 95); fill-opacity: 1; white-space: pre;">6.5</text></g></g><g class="overaxes-above"/></g><g class="subplot x3y3"><g class="layer-subplot"><g class="shapelayer"/><g class="imagelayer"/></g><g class="gridlayer"><g class="x3"><path class="x3grid crisp" transform="translate(118.68,0)" d="M0,487.5v232.5" style="stroke: rgb(255, 255, 255); stroke-opacity: 1; stroke-width: 1px;"/><path class="x3grid crisp" transform="translate(179.18,0)" d="M0,487.5v232.5" style="stroke: rgb(255, 255, 255); stroke-opacity: 1; stroke-width: 1px;"/><path class="x3grid crisp" transform="translate(239.69,0)" d="M0,487.5v232.5" style="stroke: rgb(255, 255, 255); stroke-opacity: 1; stroke-width: 1px;"/><path class="x3grid crisp" transform="translate(301.18,0)" d="M0,487.5v232.5" style="stroke: rgb(255, 255, 255); stroke-opacity: 1; stroke-width: 1px;"/></g><g class="y3"><path class="y3grid crisp" transform="translate(0,710.01)" d="M80,0h243" style="stroke: rgb(255, 255, 255); stroke-opacity: 1; stroke-width: 1px;"/><path class="y3grid crisp" transform="translate(0,696.53)" d="M80,0h243" style="stroke: rgb(255, 255, 255); stroke-opacity: 1; stroke-width: 1px;"/><path class="y3grid crisp" transform="translate(0,685.51)" d="M80,0h243" style="stroke: rgb(255, 255, 255); stroke-opacity: 1; stroke-width: 1px;"/><path class="y3grid crisp" transform="translate(0,676.2)" d="M80,0h243" style="stroke: rgb(255, 255, 255); stroke-opacity: 1; stroke-width: 1px;"/><path class="y3grid crisp" transform="translate(0,668.13)" d="M80,0h243" style="stroke: rgb(255, 255, 255); stroke-opacity: 1; stroke-width: 1px;"/><path class="y3grid crisp" transform="translate(0,661.01)" d="M80,0h243" style="stroke: rgb(255, 255, 255); stroke-opacity: 1; stroke-width: 1px;"/><path class="y3grid crisp" transform="translate(0,654.65)" d="M80,0h243" style="stroke: rgb(255, 255, 255); stroke-opacity: 1; stroke-width: 1px;"/><path class="y3grid crisp" transform="translate(0,612.76)" d="M80,0h243" style="stroke: rgb(255, 255, 255); stroke-opacity: 1; stroke-width: 1px;"/><path class="y3grid crisp" transform="translate(0,588.26)" d="M80,0h243" style="stroke: rgb(255, 255, 255); stroke-opacity: 1; stroke-width: 1px;"/><path class="y3grid crisp" transform="translate(0,570.88)" d="M80,0h243" style="stroke: rgb(255, 255, 255); stroke-opacity: 1; stroke-width: 1px;"/><path class="y3grid crisp" transform="translate(0,557.39)" d="M80,0h243" style="stroke: rgb(255, 255, 255); stroke-opacity: 1; stroke-width: 1px;"/><path class="y3grid crisp" transform="translate(0,546.38)" d="M80,0h243" style="stroke: rgb(255, 255, 255); stroke-opacity: 1; stroke-width: 1px;"/><path class="y3grid crisp" transform="translate(0,537.06)" d="M80,0h243" style="stroke: rgb(255, 255, 255); stroke-opacity: 1; stroke-width: 1px;"/><path class="y3grid crisp" transform="translate(0,528.99)" d="M80,0h243" style="stroke: rgb(255, 255, 255); stroke-opacity: 1; stroke-width: 1px;"/><path class="y3grid crisp" transform="translate(0,521.88)" d="M80,0h243" style="stroke: rgb(255, 255, 255); stroke-opacity: 1; stroke-width: 1px;"/><path class="y3grid crisp" transform="translate(0,515.51)" d="M80,0h243" style="stroke: rgb(255, 255, 255); stroke-opacity: 1; stroke-width: 1px;"/></g></g><g class="zerolinelayer"/><path class="xlines-below"/><path class="ylines-below"/><g class="overlines-below"/><g class="xaxislayer-below"/><g class="yaxislayer-below"/><g class="overaxes-below"/><g class="plot" transform="translate(80, 487.5)" clip-path="url('#clip2b7c3dx3y3plot')"><g class="scatterlayer mlayer"><g class="trace scatter trace21efc1" style="stroke-miterlimit: 2; opacity: 1;"><g class="fills"/><g class="errorbars"/><g class="lines"><path class="js-line" d="M0,58.17L0.99,58.88L1.98,50.05L2.98,24.99L3.97,25.73L4.96,11.63L5.95,16.71L6.94,25.66L7.93,18.28L8.93,31.37L9.92,34.28L16.86,99.66L17.85,105.56L20.83,120.78L21.82,120.53L23.8,132.95L24.8,138.07L27.77,150.92L28.76,154.74L29.76,156.99L30.75,163.28L32.73,165.18L33.72,169.49L39.67,191.62L40.67,193.55L42.65,196.82L43.64,197.11L44.63,198.11L45.62,196.72L46.62,195.74L47.61,193.36L49.59,188.53L50.58,185.1L52.57,180.33L53.56,175.63L55.54,167.81L56.53,162.72L60.5,143.29L61.49,141.81L65.46,128.87L66.45,127.2L67.44,127.1L68.44,124.93L72.4,117.66L73.4,116.4L75.38,113.77L76.37,114.8L78.36,113.32L79.35,113.77L80.34,113.67L81.33,114.5L82.32,114.22L83.31,115.06L84.31,115.49L85.3,114.95L86.29,114.9L87.28,116.11L89.27,116.74L90.26,117.13L91.25,117.32L92.24,119.17L96.21,121.49L97.2,122.4L99.18,125.63L100.18,126.58L104.14,129.36L105.13,130.01L106.13,130.47L107.12,131.93L113.07,136.45L114.06,137.66L119.02,142L120.01,144.4L129.93,154L130.92,155.48L135.88,159.02L136.87,161.28L159.69,177.47L160.68,179.95L161.67,180.48L162.66,181.93L171.59,188.01L172.58,188.61L179.52,192.71L180.51,193.18L182.5,194.3L183.49,195.16L203.33,206.08L204.32,206.43L208.29,208.55L209.28,208.91L213.24,210.62L214.24,211L232.09,217.17L233.08,217.45L243,220.88" style="vector-effect: non-scaling-stroke; fill: none; stroke: rgb(22, 22, 23); stroke-opacity: 1; stroke-width: 2px; opacity: 1;"/></g><g class="points"/><g class="text"/></g></g></g><g class="overplot"/><path class="xlines-above crisp" d="M79,720.5H323" style="fill: none; stroke-width: 1px; stroke: rgb(255, 255, 255); stroke-opacity: 1;"/><path class="ylines-above crisp" d="M79.5,487.5V720" style="fill: none; stroke-width: 1px; stroke: rgb(255, 255, 255); stroke-opacity: 1;"/><g class="overlines-above"/><g class="xaxislayer-above"><g class="x3tick"><text text-anchor="middle" x="0" y="735.4" transform="translate(118.68,0)" style="font-family: 'Open Sans', verdana, arial, sans-serif; font-size: 12px; fill: rgb(42, 63, 95); fill-opacity: 1; white-space: pre;">Mar 2020</text></g><g class="x3tick"><text text-anchor="middle" x="0" y="735.4" transform="translate(179.18,0)" style="font-family: 'Open Sans', verdana, arial, sans-serif; font-size: 12px; fill: rgb(42, 63, 95); fill-opacity: 1; white-space: pre;">May 2020</text></g><g class="x3tick"><text text-anchor="middle" x="0" y="735.4" transform="translate(239.69,0)" style="font-family: 'Open Sans', verdana, arial, sans-serif; font-size: 12px; fill: rgb(42, 63, 95); fill-opacity: 1; white-space: pre;">Jul 2020</text></g><g class="x3tick"><text text-anchor="middle" x="0" y="735.4" transform="translate(301.18,0)" style="font-family: 'Open Sans', verdana, arial, sans-serif; font-size: 12px; fill: rgb(42, 63, 95); fill-opacity: 1; white-space: pre;">Sep 2020</text></g></g><g class="yaxislayer-above"><g class="y3tick"><text text-anchor="end" x="76.6" y="3.15" transform="translate(0,710.01)" style="font-family: 'Open Sans', verdana, arial, sans-serif; font-size: 9px; fill: rgb(42, 63, 95); fill-opacity: 1; white-space: pre;">4</text></g><g class="y3tick"><text text-anchor="end" x="76.6" y="3.15" transform="translate(0,696.53)" style="font-family: 'Open Sans', verdana, arial, sans-serif; font-size: 9px; fill: rgb(42, 63, 95); fill-opacity: 1; white-space: pre;">5</text></g><g class="y3tick"><text text-anchor="end" x="76.6" y="3.15" transform="translate(0,685.51)" style="font-family: 'Open Sans', verdana, arial, sans-serif; font-size: 9px; fill: rgb(42, 63, 95); fill-opacity: 1; white-space: pre;">6</text></g><g class="y3tick"><text text-anchor="end" x="76.6" y="3.15" transform="translate(0,676.2)" style="font-family: 'Open Sans', verdana, arial, sans-serif; font-size: 9px; fill: rgb(42, 63, 95); fill-opacity: 1; white-space: pre;">7</text></g><g class="y3tick"><text text-anchor="end" x="76.6" y="3.15" transform="translate(0,668.13)" style="font-family: 'Open Sans', verdana, arial, sans-serif; font-size: 9px; fill: rgb(42, 63, 95); fill-opacity: 1; white-space: pre;">8</text></g><g class="y3tick"><text text-anchor="end" x="76.6" y="3.15" transform="translate(0,661.01)" style="font-family: 'Open Sans', verdana, arial, sans-serif; font-size: 9px; fill: rgb(42, 63, 95); fill-opacity: 1; white-space: pre;">9</text></g><g class="y3tick"><text text-anchor="end" x="73.6" y="2.1999999999999993" transform="translate(0,654.65)" style="font-family: 'Open Sans', verdana, arial, sans-serif; font-size: 12px; fill: rgb(42, 63, 95); fill-opacity: 1; white-space: pre;">10</text></g><g class="y3tick"><text text-anchor="end" x="76.6" y="3.15" transform="translate(0,612.76)" style="font-family: 'Open Sans', verdana, arial, sans-serif; font-size: 9px; fill: rgb(42, 63, 95); fill-opacity: 1; white-space: pre;">2</text></g><g class="y3tick"><text text-anchor="end" x="76.6" y="3.15" transform="translate(0,588.26)" style="font-family: 'Open Sans', verdana, arial, sans-serif; font-size: 9px; fill: rgb(42, 63, 95); fill-opacity: 1; white-space: pre;">3</text></g><g class="y3tick"><text text-anchor="end" x="76.6" y="3.15" transform="translate(0,570.88)" style="font-family: 'Open Sans', verdana, arial, sans-serif; font-size: 9px; fill: rgb(42, 63, 95); fill-opacity: 1; white-space: pre;">4</text></g><g class="y3tick"><text text-anchor="end" x="76.6" y="3.15" transform="translate(0,557.39)" style="font-family: 'Open Sans', verdana, arial, sans-serif; font-size: 9px; fill: rgb(42, 63, 95); fill-opacity: 1; white-space: pre;">5</text></g><g class="y3tick"><text text-anchor="end" x="76.6" y="3.15" transform="translate(0,546.38)" style="font-family: 'Open Sans', verdana, arial, sans-serif; font-size: 9px; fill: rgb(42, 63, 95); fill-opacity: 1; white-space: pre;">6</text></g><g class="y3tick"><text text-anchor="end" x="76.6" y="3.15" transform="translate(0,537.06)" style="font-family: 'Open Sans', verdana, arial, sans-serif; font-size: 9px; fill: rgb(42, 63, 95); fill-opacity: 1; white-space: pre;">7</text></g><g class="y3tick"><text text-anchor="end" x="76.6" y="3.15" transform="translate(0,528.99)" style="font-family: 'Open Sans', verdana, arial, sans-serif; font-size: 9px; fill: rgb(42, 63, 95); fill-opacity: 1; white-space: pre;">8</text></g><g class="y3tick"><text text-anchor="end" x="76.6" y="3.15" transform="translate(0,521.88)" style="font-family: 'Open Sans', verdana, arial, sans-serif; font-size: 9px; fill: rgb(42, 63, 95); fill-opacity: 1; white-space: pre;">9</text></g><g class="y3tick"><text text-anchor="end" x="73.6" y="2.1999999999999993" transform="translate(0,515.51)" style="font-family: 'Open Sans', verdana, arial, sans-serif; font-size: 12px; fill: rgb(42, 63, 95); fill-opacity: 1; white-space: pre;">100</text></g></g><g class="overaxes-above"/></g><g class="subplot x4y4"><g class="layer-subplot"><g class="shapelayer"/><g class="imagelayer"/></g><g class="gridlayer"><g class="x4"><path class="x4grid crisp" transform="translate(415.68,0)" d="M0,487.5v232.5" style="stroke: rgb(255, 255, 255); stroke-opacity: 1; stroke-width: 1px;"/><path class="x4grid crisp" transform="translate(476.18,0)" d="M0,487.5v232.5" style="stroke: rgb(255, 255, 255); stroke-opacity: 1; stroke-width: 1px;"/><path class="x4grid crisp" transform="translate(536.69,0)" d="M0,487.5v232.5" style="stroke: rgb(255, 255, 255); stroke-opacity: 1; stroke-width: 1px;"/><path class="x4grid crisp" transform="translate(598.1800000000001,0)" d="M0,487.5v232.5" style="stroke: rgb(255, 255, 255); stroke-opacity: 1; stroke-width: 1px;"/></g><g class="y4"><path class="y4grid crisp" transform="translate(0,683.44)" d="M377,0h242.99999999999997" style="stroke: rgb(255, 255, 255); stroke-opacity: 1; stroke-width: 1px;"/><path class="y4grid crisp" transform="translate(0,655.39)" d="M377,0h242.99999999999997" style="stroke: rgb(255, 255, 255); stroke-opacity: 1; stroke-width: 1px;"/><path class="y4grid crisp" transform="translate(0,627.35)" d="M377,0h242.99999999999997" style="stroke: rgb(255, 255, 255); stroke-opacity: 1; stroke-width: 1px;"/><path class="y4grid crisp" transform="translate(0,590.27)" d="M377,0h242.99999999999997" style="stroke: rgb(255, 255, 255); stroke-opacity: 1; stroke-width: 1px;"/><path class="y4grid crisp" transform="translate(0,562.22)" d="M377,0h242.99999999999997" style="stroke: rgb(255, 255, 255); stroke-opacity: 1; stroke-width: 1px;"/><path class="y4grid crisp" transform="translate(0,534.18)" d="M377,0h242.99999999999997" style="stroke: rgb(255, 255, 255); stroke-opacity: 1; stroke-width: 1px;"/><path class="y4grid crisp" transform="translate(0,497.1)" d="M377,0h242.99999999999997" style="stroke: rgb(255, 255, 255); stroke-opacity: 1; stroke-width: 1px;"/></g></g><g class="zerolinelayer"/><path class="xlines-below"/><path class="ylines-below"/><g class="overlines-below"/><g class="xaxislayer-below"/><g class="yaxislayer-below"/><g class="overaxes-below"/><g class="plot" transform="translate(377, 487.5)" clip-path="url('#clip2b7c3dx4y4plot')"><g class="scatterlayer mlayer"><g class="trace scatter traced716eb" style="stroke-miterlimit: 2; opacity: 1;"><g class="fills"/><g class="errorbars"/><g class="lines"><path class="js-line" d="M0,4882.5L0.9880434297323697,4882.5L0.99,57.89L1.98,29.65L2.98,24.7L3.97,27.29L4.96,33.59L5.95,11.63L6.94,76.54L7.93,37.45L8.93,53.28L9.92,51.96L10.91,32.63L11.9,56.73L12.89,53.76L13.89,62.43L14.88,73.72L15.87,72.94L16.86,87.07L17.85,86.1L19.84,106.5L20.83,171.27L21.82,37.47L22.81,75.71L23.8,122.11L24.8,122.51L26.78,130.82L27.77,184.71L28.76,185.95L29.76,182.91L30.75,140.67L31.74,220.88L33.72,172.61L34.71,173.53L35.71,165.54L36.7,167.89L37.69,157.28L38.68,137.49L39.67,148.88L40.67,140.25L41.66,137.87L42.65,130.82L43.64,115.39L44.63,115.51L46.62,116.52L47.61,107.31L48.6,93.74L49.59,106.59L50.58,73.65L51.58,87.35L52.57,89.33L53.56,82.02L54.55,82.41L55.54,78.1L56.53,69.64L57.53,69.53L59.51,73.96L60.5,69.17L61.49,75.21L62.49,71.54L63.48,68.16L64.47,71.39L65.46,74.28L66.45,82.8L67.44,82.51L68.44,79.62L70.42,84.06L71.41,86.31L74.39,98.91L75.38,98.84L76.37,98.04L77.36,99.14L78.36,100.8L79.35,108.22L80.34,101.34L81.33,115.17L82.32,116.06L83.31,112.11L84.31,107.21L85.3,112.72L86.29,121.34L87.28,119.22L88.27,123.31L89.27,123.85L90.26,122.77L91.25,120.33L92.24,118.86L93.23,124.67L95.22,134.19L96.21,131.8L99.18,129.23L100.18,133.32L101.17,136.36L102.16,136.92L103.15,135.99L104.14,132.64L106.13,133.15L107.12,137.68L108.11,143.22L109.1,143.22L110.09,140.25L111.09,140.67L112.08,136.55L113.07,137.49L114.06,139.25L115.05,147.88L117.04,140.25L118.03,138.65L119.02,138.26L120.01,138.85L121,140.46L122,145.25L122.99,149.39L123.98,147.14L125.96,138.85L126.96,139.05L127.95,134.9L128.94,145.72L129.93,150.69L130.92,141.92L131.91,143.66L132.91,141.71L134.89,140.67L135.88,149.13L136.87,153.14L137.87,145.95L138.86,143.66L139.85,143.44L140.84,146.66L141.83,145.48L142.82,146.9L143.82,151.76L144.81,145.48L145.8,146.19L146.79,147.39L147.78,138.07L149.77,153.14L150.76,150.95L151.75,144.34L152.74,143.44L153.73,142.78L154.73,140.67L157.7,150.69L158.69,147.14L159.69,139.05L160.68,141.71L162.66,145.95L163.65,148.88L164.64,153.42L165.64,144.34L166.63,145.02L167.62,142.78L168.61,142.78L169.6,146.42L170.6,151.76L171.59,152.31L172.58,147.14L173.57,146.19L174.56,143.44L175.56,145.95L176.55,147.14L177.54,152.03L178.53,154.28L179.52,149.64L180.51,143.22L181.51,143.44L182.5,144.56L183.49,149.13L184.48,156.97L185.47,155.16L187.46,146.42L188.45,148.37L189.44,147.63L190.43,153.99L192.42,163.67L193.41,154.28L195.39,151.49L196.38,152.86L198.37,162.95L199.36,162.95L201.34,155.75L202.33,155.16L203.33,153.14L204.32,161.89L205.31,168.71L206.3,169.55L208.29,159.85L209.28,161.2L210.27,161.2L211.26,162.59L212.25,173.07L213.24,169.55L214.24,167.49L215.23,160.86L216.22,162.59L217.21,162.59L218.2,165.92L219.2,172.16L220.19,166.7L221.18,166.7L222.17,164.78L223.16,165.16L224.16,161.2L225.15,168.71L226.14,175.92L227.13,172.61L228.12,174.47L229.11,165.92L230.11,165.54L231.1,163.31L233.08,175.92L234.07,169.97L235.07,169.55L236.06,167.09L238.04,165.54L239.03,171.71L240.02,177.95L241.02,169.55L242.01,187.24L243,175.43" style="vector-effect: non-scaling-stroke; fill: none; stroke: rgb(254, 152, 1); stroke-opacity: 1; stroke-width: 2px; opacity: 1;"/></g><g class="points"/><g class="text"/></g></g></g><g class="overplot"/><path class="xlines-above crisp" d="M376,720.5H620" style="fill: none; stroke-width: 1px; stroke: rgb(255, 255, 255); stroke-opacity: 1;"/><path class="ylines-above crisp" d="M376.5,487.5V720" style="fill: none; stroke-width: 1px; stroke: rgb(255, 255, 255); stroke-opacity: 1;"/><g class="overlines-above"/><g class="xaxislayer-above"><g class="x4tick"><text text-anchor="middle" x="0" y="735.4" transform="translate(415.68,0)" style="font-family: 'Open Sans', verdana, arial, sans-serif; font-size: 12px; fill: rgb(42, 63, 95); fill-opacity: 1; white-space: pre;">Mar 2020</text></g><g class="x4tick"><text text-anchor="middle" x="0" y="735.4" transform="translate(476.18,0)" style="font-family: 'Open Sans', verdana, arial, sans-serif; font-size: 12px; fill: rgb(42, 63, 95); fill-opacity: 1; white-space: pre;">May 2020</text></g><g class="x4tick"><text text-anchor="middle" x="0" y="735.4" transform="translate(536.69,0)" style="font-family: 'Open Sans', verdana, arial, sans-serif; font-size: 12px; fill: rgb(42, 63, 95); fill-opacity: 1; white-space: pre;">Jul 2020</text></g><g class="x4tick"><text text-anchor="middle" x="0" y="735.4" transform="translate(598.1800000000001,0)" style="font-family: 'Open Sans', verdana, arial, sans-serif; font-size: 12px; fill: rgb(42, 63, 95); fill-opacity: 1; white-space: pre;">Sep 2020</text></g></g><g class="yaxislayer-above"><g class="y4tick"><text text-anchor="end" x="373.6" y="3.15" transform="translate(0,683.44)" style="font-family: 'Open Sans', verdana, arial, sans-serif; font-size: 9px; fill: rgb(42, 63, 95); fill-opacity: 1; white-space: pre;">5</text></g><g class="y4tick"><text text-anchor="end" x="373.6" y="4.199999999999999" transform="translate(0,655.39)" style="font-family: 'Open Sans', verdana, arial, sans-serif; font-size: 12px; fill: rgb(42, 63, 95); fill-opacity: 1; white-space: pre;">1</text></g><g class="y4tick"><text text-anchor="end" x="373.6" y="3.15" transform="translate(0,627.35)" style="font-family: 'Open Sans', verdana, arial, sans-serif; font-size: 9px; fill: rgb(42, 63, 95); fill-opacity: 1; white-space: pre;">2</text></g><g class="y4tick"><text text-anchor="end" x="373.6" y="3.15" transform="translate(0,590.27)" style="font-family: 'Open Sans', verdana, arial, sans-serif; font-size: 9px; fill: rgb(42, 63, 95); fill-opacity: 1; white-space: pre;">5</text></g><g class="y4tick"><text text-anchor="end" x="373.6" y="4.199999999999999" transform="translate(0,562.22)" style="font-family: 'Open Sans', verdana, arial, sans-serif; font-size: 12px; fill: rgb(42, 63, 95); fill-opacity: 1; white-space: pre;">10</text></g><g class="y4tick"><text text-anchor="end" x="373.6" y="3.15" transform="translate(0,534.18)" style="font-family: 'Open Sans', verdana, arial, sans-serif; font-size: 9px; fill: rgb(42, 63, 95); fill-opacity: 1; white-space: pre;">2</text></g><g class="y4tick"><text text-anchor="end" x="373.6" y="3.15" transform="translate(0,497.1)" style="font-family: 'Open Sans', verdana, arial, sans-serif; font-size: 9px; fill: rgb(42, 63, 95); fill-opacity: 1; white-space: pre;">5</text></g></g><g class="overaxes-above"/></g></g><g class="polarlayer"/><g class="ternarylayer"/><g class="geolayer"/><g class="funnelarealayer"/><g class="pielayer"/><g class="treemaplayer"/><g class="sunburstlayer"/><g class="glimages"/><defs id="topdefs-2b7c3d"><g class="clips"/></defs><g class="layer-above"><g class="imagelayer"/><g class="shapelayer"/></g><g class="infolayer"><g class="g-gtitle"><text class="gtitle" x="35" y="50" text-anchor="start" dy="0em" style="font-family: 'Open Sans', verdana, arial, sans-serif; font-size: 17px; fill: rgb(42, 63, 95); opacity: 1; font-weight: normal; white-space: pre;">% Day Wise Logarithmic</text></g><g class="g-xtitle"/><g class="g-x2title"/><g class="g-x3title"/><g class="g-x4title"/><g class="g-ytitle"/><g class="g-y2title"/><g class="g-y3title"/><g class="g-y4title"/><g class="annotation" data-index="0" style="opacity: 1;"><g class="annotation-text-g" transform="rotate(0,201.5,88.5)"><g class="cursor-pointer" transform="translate(122, 77)"><rect class="bg" x="0.5" y="0.5" width="159" height="22" style="stroke-width: 1px; stroke: rgb(0, 0, 0); stroke-opacity: 0; fill: rgb(0, 0, 0); fill-opacity: 0;"/><text class="annotation-text" text-anchor="middle" x="80" y="18" style="font-family: 'Open Sans', verdana, arial, sans-serif; font-size: 16px; fill: rgb(42, 63, 95); fill-opacity: 1; white-space: pre;">% Recovered cases</text></g></g></g><g class="annotation" data-index="1" style="opacity: 1;"><g class="annotation-text-g" transform="rotate(0,498.5,88.5)"><g class="cursor-pointer" transform="translate(457, 77)"><rect class="bg" x="0.5" y="0.5" width="82" height="22" style="stroke-width: 1px; stroke: rgb(0, 0, 0); stroke-opacity: 0; fill: rgb(0, 0, 0); fill-opacity: 0;"/><text class="annotation-text" text-anchor="middle" x="41.546875" y="18" style="font-family: 'Open Sans', verdana, arial, sans-serif; font-size: 16px; fill: rgb(42, 63, 95); fill-opacity: 1; white-space: pre;">% Deaths</text></g></g></g><g class="annotation" data-index="2" style="opacity: 1;"><g class="annotation-text-g" transform="rotate(0,201.5,476)"><g class="cursor-pointer" transform="translate(100, 465)"><rect class="bg" x="0.5" y="0.5" width="202" height="22" style="stroke-width: 1px; stroke: rgb(0, 0, 0); stroke-opacity: 0; fill: rgb(0, 0, 0); fill-opacity: 0;"/><text class="annotation-text" text-anchor="middle" x="101.671875" y="18" style="font-family: 'Open Sans', verdana, arial, sans-serif; font-size: 16px; fill: rgb(42, 63, 95); fill-opacity: 1; white-space: pre;">% Deaths Per Recovered</text></g></g></g><g class="annotation" data-index="3" style="opacity: 1;"><g class="annotation-text-g" transform="rotate(0,498.5,476)"><g class="cursor-pointer" transform="translate(442, 465)"><rect class="bg" x="0.5" y="0.5" width="113" height="22" style="stroke-width: 1px; stroke: rgb(0, 0, 0); stroke-opacity: 0; fill: rgb(0, 0, 0); fill-opacity: 0;"/><text class="annotation-text" text-anchor="middle" x="57.03125" y="18" style="font-family: 'Open Sans', verdana, arial, sans-serif; font-size: 16px; fill: rgb(42, 63, 95); fill-opacity: 1; white-space: pre;">% New Cases</text></g></g></g></g></svg>