<svg class="main-svg" xmlns="http://www.w3.org/2000/svg" xmlns:xlink="http://www.w3.org/1999/xlink" width="700" height="800" style="" viewBox="0 0 700 800"><rect x="0" y="0" width="700" height="800" style="fill: rgb(255, 255, 255); fill-opacity: 1;"/><defs id="defs-ed0731"><g class="clips"><clipPath id="cliped0731xyplot" class="plotclip"><rect width="243" height="232.5"/></clipPath><clipPath id="cliped0731x2y2plot" class="plotclip"><rect width="242.99999999999997" height="232.5"/></clipPath><clipPath id="cliped0731x3y3plot" class="plotclip"><rect width="243" height="232.5"/></clipPath><clipPath id="cliped0731x4y4plot" class="plotclip"><rect width="242.99999999999997" height="232.5"/></clipPath><clipPath class="axesclip" id="cliped0731x"><rect x="80" y="0" width="243" height="800"/></clipPath><clipPath class="axesclip" id="cliped0731y"><rect x="0" y="100" width="700" height="232.5"/></clipPath><clipPath class="axesclip" id="cliped0731xy"><rect x="80" y="100" width="243" height="232.5"/></clipPath><clipPath class="axesclip" id="cliped0731y2"><rect x="0" y="100" width="700" height="232.5"/></clipPath><clipPath class="axesclip" id="cliped0731xy2"><rect x="80" y="100" width="243" height="232.5"/></clipPath><clipPath class="axesclip" id="cliped0731y3"><rect x="0" y="487.5" width="700" height="232.5"/></clipPath><clipPath class="axesclip" id="cliped0731xy3"><rect x="80" y="487.5" width="243" height="232.5"/></clipPath><clipPath class="axesclip" id="cliped0731y4"><rect x="0" y="487.5" width="700" height="232.5"/></clipPath><clipPath class="axesclip" id="cliped0731xy4"><rect x="80" y="487.5" width="243" height="232.5"/></clipPath><clipPath class="axesclip" id="cliped0731x2"><rect x="377" y="0" width="242.99999999999997" height="800"/></clipPath><clipPath class="axesclip" id="cliped0731x2y"><rect x="377" y="100" width="242.99999999999997" height="232.5"/></clipPath><clipPath class="axesclip" id="cliped0731x2y2"><rect x="377" y="100" width="242.99999999999997" height="232.5"/></clipPath><clipPath class="axesclip" id="cliped0731x2y3"><rect x="377" y="487.5" width="242.99999999999997" height="232.5"/></clipPath><clipPath class="axesclip" id="cliped0731x2y4"><rect x="377" y="487.5" width="242.99999999999997" height="232.5"/></clipPath><clipPath class="axesclip" id="cliped0731x3"><rect x="80" y="0" width="243" height="800"/></clipPath><clipPath class="axesclip" id="cliped0731x3y"><rect x="80" y="100" width="243" height="232.5"/></clipPath><clipPath class="axesclip" id="cliped0731x3y2"><rect x="80" y="100" width="243" height="232.5"/></clipPath><clipPath class="axesclip" id="cliped0731x3y3"><rect x="80" y="487.5" width="243" height="232.5"/></clipPath><clipPath class="axesclip" id="cliped0731x3y4"><rect x="80" y="487.5" width="243" height="232.5"/></clipPath><clipPath class="axesclip" id="cliped0731x4"><rect x="377" y="0" width="242.99999999999997" height="800"/></clipPath><clipPath class="axesclip" id="cliped0731x4y"><rect x="377" y="100" width="242.99999999999997" height="232.5"/></clipPath><clipPath class="axesclip" id="cliped0731x4y2"><rect x="377" y="100" width="242.99999999999997" height="232.5"/></clipPath><clipPath class="axesclip" id="cliped0731x4y3"><rect x="377" y="487.5" width="242.99999999999997" height="232.5"/></clipPath><clipPath class="axesclip" id="cliped0731x4y4"><rect x="377" y="487.5" width="242.99999999999997" height="232.5"/></clipPath></g><g class="gradients"/></defs><g class="bglayer"><rect class="bg" x="80" y="100" width="243" height="232.5" style="fill: rgb(229, 236, 246); fill-opacity: 1; stroke-width: 0;"/><rect class="bg" x="377" y="100" width="242.99999999999997" height="232.5" style="fill: rgb(229, 236, 246); fill-opacity: 1; stroke-width: 0;"/><rect class="bg" x="80" y="487.5" width="243" height="232.5" style="fill: rgb(229, 236, 246); fill-opacity: 1; stroke-width: 0;"/><rect class="bg" x="377" y="487.5" width="242.99999999999997" height="232.5" style="fill: rgb(229, 236, 246); fill-opacity: 1; stroke-width: 0;"/></g><g class="layer-below"><g class="imagelayer"/><g class="shapelayer"/></g><g class="cartesianlayer"><g class="subplot xy"><g class="layer-subplot"><g class="shapelayer"/><g class="imagelayer"/></g><g class="gridlayer"><g class="x"><path class="xgrid crisp" transform="translate(97.61,0)" d="M0,100v232.5" style="stroke: rgb(255, 255, 255); stroke-opacity: 1; stroke-width: 1px;"/><path class="xgrid crisp" transform="translate(148.67000000000002,0)" d="M0,100v232.5" style="stroke: rgb(255, 255, 255); stroke-opacity: 1; stroke-width: 1px;"/><path class="xgrid crisp" transform="translate(203.26,0)" d="M0,100v232.5" style="stroke: rgb(255, 255, 255); stroke-opacity: 1; stroke-width: 1px;"/><path class="xgrid crisp" transform="translate(256.09000000000003,0)" d="M0,100v232.5" style="stroke: rgb(255, 255, 255); stroke-opacity: 1; stroke-width: 1px;"/><path class="xgrid crisp" transform="translate(310.66999999999996,0)" d="M0,100v232.5" style="stroke: rgb(255, 255, 255); stroke-opacity: 1; stroke-width: 1px;"/></g><g class="y"><path class="ygrid crisp" transform="translate(0,312.61)" d="M80,0h243" style="stroke: rgb(255, 255, 255); stroke-opacity: 1; stroke-width: 1px;"/><path class="ygrid crisp" transform="translate(0,288.53999999999996)" d="M80,0h243" style="stroke: rgb(255, 255, 255); stroke-opacity: 1; stroke-width: 1px;"/><path class="ygrid crisp" transform="translate(0,271.46000000000004)" d="M80,0h243" style="stroke: rgb(255, 255, 255); stroke-opacity: 1; stroke-width: 1px;"/><path class="ygrid crisp" transform="translate(0,258.22)" d="M80,0h243" style="stroke: rgb(255, 255, 255); stroke-opacity: 1; stroke-width: 1px;"/><path class="ygrid crisp" transform="translate(0,247.4)" d="M80,0h243" style="stroke: rgb(255, 255, 255); stroke-opacity: 1; stroke-width: 1px;"/><path class="ygrid crisp" transform="translate(0,238.25)" d="M80,0h243" style="stroke: rgb(255, 255, 255); stroke-opacity: 1; stroke-width: 1px;"/><path class="ygrid crisp" transform="translate(0,230.32)" d="M80,0h243" style="stroke: rgb(255, 255, 255); stroke-opacity: 1; stroke-width: 1px;"/><path class="ygrid crisp" transform="translate(0,223.32999999999998)" d="M80,0h243" style="stroke: rgb(255, 255, 255); stroke-opacity: 1; stroke-width: 1px;"/><path class="ygrid crisp" transform="translate(0,217.07)" d="M80,0h243" style="stroke: rgb(255, 255, 255); stroke-opacity: 1; stroke-width: 1px;"/><path class="ygrid crisp" transform="translate(0,175.93)" d="M80,0h243" style="stroke: rgb(255, 255, 255); stroke-opacity: 1; stroke-width: 1px;"/><path class="ygrid crisp" transform="translate(0,151.86)" d="M80,0h243" style="stroke: rgb(255, 255, 255); stroke-opacity: 1; stroke-width: 1px;"/><path class="ygrid crisp" transform="translate(0,134.79)" d="M80,0h243" style="stroke: rgb(255, 255, 255); stroke-opacity: 1; stroke-width: 1px;"/><path class="ygrid crisp" transform="translate(0,121.53999999999999)" d="M80,0h243" style="stroke: rgb(255, 255, 255); stroke-opacity: 1; stroke-width: 1px;"/><path class="ygrid crisp" transform="translate(0,110.72)" d="M80,0h243" style="stroke: rgb(255, 255, 255); stroke-opacity: 1; stroke-width: 1px;"/><path class="ygrid crisp" transform="translate(0,101.57)" d="M80,0h243" style="stroke: rgb(255, 255, 255); stroke-opacity: 1; stroke-width: 1px;"/></g></g><g class="zerolinelayer"/><path class="xlines-below"/><path class="ylines-below"/><g class="overlines-below"/><g class="xaxislayer-below"/><g class="yaxislayer-below"/><g class="overaxes-below"/><g class="plot" transform="translate(80, 100)" clip-path="url('#cliped0731xyplot')"><g class="scatterlayer mlayer"><g class="trace scatter tracecd6a3d" style="stroke-miterlimit: 2; opacity: 1;"><g class="fills"/><g class="errorbars"/><g class="lines"><path class="js-line" d="M0,157.63L1.76,163.3L3.52,174.04L5.28,194.36L7.04,200.32L8.8,210L10.57,215.03L12.33,211.43L14.09,220.88L15.85,205.88L17.61,202.78L21.13,185.83L22.89,178.22L26.41,160.27L28.17,148.9L31.7,129.73L33.46,121.83L36.98,109.4L38.74,114.63L44.02,92.03L45.78,84.99L51.07,65.43L52.83,63.57L54.59,53.32L56.35,52.2L61.63,38L63.39,33.22L66.91,23.99L68.67,21.02L72.2,15.89L73.96,13.63L75.72,12.16L77.48,12.19L81,11.63L82.76,11.94L88.04,15.66L89.8,20.59L93.33,24.71L95.09,28.63L98.61,35.37L100.37,41.64L103.89,50.94L105.65,53.98L107.41,60.72L109.17,61.44L114.46,71.31L116.22,74.03L117.98,75.25L119.74,74.26L123.26,75.08L125.02,74.96L126.78,75.37L128.54,74.41L132.07,74.32L133.83,72.67L137.35,69.52L139.11,69.34L140.87,68.05L142.63,68.49L149.67,62.95L151.43,62.49L156.72,60.7L158.48,59.36L162,57.98L163.76,55.94L169.04,54.55L170.8,53.75L172.57,52.5L174.33,50.07L186.65,45.97L188.41,45.67L191.93,44.28L193.7,43.39L200.74,41.35L202.5,40.51L211.3,37.85L213.07,35.88L230.67,30.69L232.43,29.51L239.48,28.19L241.24,28.16L243,26.24" style="vector-effect: non-scaling-stroke; fill: none; stroke: rgb(40, 167, 69); stroke-opacity: 1; stroke-width: 2px; opacity: 1;"/></g><g class="points"/><g class="text"/></g></g></g><g class="overplot"/><path class="xlines-above crisp" d="M0,0" style="fill: none;"/><path class="ylines-above crisp" d="M0,0" style="fill: none;"/><g class="overlines-above"/><g class="xaxislayer-above"><g class="xtick"><text text-anchor="start" x="0" y="345.5" transform="translate(97.61,0) rotate(30,0,339.5)" style="font-family: 'Open Sans', verdana, arial, sans-serif; font-size: 12px; fill: rgb(42, 63, 95); fill-opacity: 1; white-space: pre;">Feb 2020</text></g><g class="xtick"><text text-anchor="start" x="0" y="345.5" transform="translate(148.67000000000002,0) rotate(30,0,339.5)" style="font-family: 'Open Sans', verdana, arial, sans-serif; font-size: 12px; fill: rgb(42, 63, 95); fill-opacity: 1; white-space: pre;">Mar 2020</text></g><g class="xtick"><text text-anchor="start" x="0" y="345.5" transform="translate(203.26,0) rotate(30,0,339.5)" style="font-family: 'Open Sans', verdana, arial, sans-serif; font-size: 12px; fill: rgb(42, 63, 95); fill-opacity: 1; white-space: pre;">Apr 2020</text></g><g class="xtick"><text text-anchor="start" x="0" y="345.5" transform="translate(256.09000000000003,0) rotate(30,0,339.5)" style="font-family: 'Open Sans', verdana, arial, sans-serif; font-size: 12px; fill: rgb(42, 63, 95); fill-opacity: 1; white-space: pre;">May 2020</text></g><g class="xtick"><text text-anchor="start" x="0" y="345.5" transform="translate(310.66999999999996,0) rotate(30,0,339.5)" style="font-family: 'Open Sans', verdana, arial, sans-serif; font-size: 12px; fill: rgb(42, 63, 95); fill-opacity: 1; white-space: pre;">Jun 2020</text></g></g><g class="yaxislayer-above"><g class="ytick"><text text-anchor="end" x="79" y="3.15" transform="translate(0,312.61)" style="font-family: 'Open Sans', verdana, arial, sans-serif; font-size: 9px; fill: rgb(42, 63, 95); fill-opacity: 1; white-space: pre;">2</text></g><g class="ytick"><text text-anchor="end" x="79" y="3.15" transform="translate(0,288.53999999999996)" style="font-family: 'Open Sans', verdana, arial, sans-serif; font-size: 9px; fill: rgb(42, 63, 95); fill-opacity: 1; white-space: pre;">3</text></g><g class="ytick"><text text-anchor="end" x="79" y="3.15" transform="translate(0,271.46000000000004)" style="font-family: 'Open Sans', verdana, arial, sans-serif; font-size: 9px; fill: rgb(42, 63, 95); fill-opacity: 1; white-space: pre;">4</text></g><g class="ytick"><text text-anchor="end" x="79" y="3.15" transform="translate(0,258.22)" style="font-family: 'Open Sans', verdana, arial, sans-serif; font-size: 9px; fill: rgb(42, 63, 95); fill-opacity: 1; white-space: pre;">5</text></g><g class="ytick"><text text-anchor="end" x="79" y="3.15" transform="translate(0,247.4)" style="font-family: 'Open Sans', verdana, arial, sans-serif; font-size: 9px; fill: rgb(42, 63, 95); fill-opacity: 1; white-space: pre;">6</text></g><g class="ytick"><text text-anchor="end" x="79" y="3.15" transform="translate(0,238.25)" style="font-family: 'Open Sans', verdana, arial, sans-serif; font-size: 9px; fill: rgb(42, 63, 95); fill-opacity: 1; white-space: pre;">7</text></g><g class="ytick"><text text-anchor="end" x="79" y="3.15" transform="translate(0,230.32)" style="font-family: 'Open Sans', verdana, arial, sans-serif; font-size: 9px; fill: rgb(42, 63, 95); fill-opacity: 1; white-space: pre;">8</text></g><g class="ytick"><text text-anchor="end" x="79" y="3.15" transform="translate(0,223.32999999999998)" style="font-family: 'Open Sans', verdana, arial, sans-serif; font-size: 9px; fill: rgb(42, 63, 95); fill-opacity: 1; white-space: pre;">9</text></g><g class="ytick"><text text-anchor="end" x="76" y="2.1999999999999993" transform="translate(0,217.07)" style="font-family: 'Open Sans', verdana, arial, sans-serif; font-size: 12px; fill: rgb(42, 63, 95); fill-opacity: 1; white-space: pre;">10</text></g><g class="ytick"><text text-anchor="end" x="79" y="3.15" transform="translate(0,175.93)" style="font-family: 'Open Sans', verdana, arial, sans-serif; font-size: 9px; fill: rgb(42, 63, 95); fill-opacity: 1; white-space: pre;">2</text></g><g class="ytick"><text text-anchor="end" x="79" y="3.15" transform="translate(0,151.86)" style="font-family: 'Open Sans', verdana, arial, sans-serif; font-size: 9px; fill: rgb(42, 63, 95); fill-opacity: 1; white-space: pre;">3</text></g><g class="ytick"><text text-anchor="end" x="79" y="3.15" transform="translate(0,134.79)" style="font-family: 'Open Sans', verdana, arial, sans-serif; font-size: 9px; fill: rgb(42, 63, 95); fill-opacity: 1; white-space: pre;">4</text></g><g class="ytick"><text text-anchor="end" x="79" y="3.15" transform="translate(0,121.53999999999999)" style="font-family: 'Open Sans', verdana, arial, sans-serif; font-size: 9px; fill: rgb(42, 63, 95); fill-opacity: 1; white-space: pre;">5</text></g><g class="ytick"><text text-anchor="end" x="79" y="3.15" transform="translate(0,110.72)" style="font-family: 'Open Sans', verdana, arial, sans-serif; font-size: 9px; fill: rgb(42, 63, 95); fill-opacity: 1; white-space: pre;">6</text></g><g class="ytick"><text text-anchor="end" x="79" y="3.15" transform="translate(0,101.57)" style="font-family: 'Open Sans', verdana, arial, sans-serif; font-size: 9px; fill: rgb(42, 63, 95); fill-opacity: 1; white-space: pre;">7</text></g></g><g class="overaxes-above"/></g><g class="subplot x2y2"><g class="layer-subplot"><g class="shapelayer"/><g class="imagelayer"/></g><g class="gridlayer"><g class="x2"><path class="x2grid crisp" transform="translate(394.61,0)" d="M0,100v232.5" style="stroke: rgb(255, 255, 255); stroke-opacity: 1; stroke-width: 1px;"/><path class="x2grid crisp" transform="translate(445.67,0)" d="M0,100v232.5" style="stroke: rgb(255, 255, 255); stroke-opacity: 1; stroke-width: 1px;"/><path class="x2grid crisp" transform="translate(500.26,0)" d="M0,100v232.5" style="stroke: rgb(255, 255, 255); stroke-opacity: 1; stroke-width: 1px;"/><path class="x2grid crisp" transform="translate(553.09,0)" d="M0,100v232.5" style="stroke: rgb(255, 255, 255); stroke-opacity: 1; stroke-width: 1px;"/><path class="x2grid crisp" transform="translate(607.67,0)" d="M0,100v232.5" style="stroke: rgb(255, 255, 255); stroke-opacity: 1; stroke-width: 1px;"/></g><g class="y2"><path class="y2grid crisp" transform="translate(0,322.52)" d="M377,0h242.99999999999997" style="stroke: rgb(255, 255, 255); stroke-opacity: 1; stroke-width: 1px;"/><path class="y2grid crisp" transform="translate(0,255.62)" d="M377,0h242.99999999999997" style="stroke: rgb(255, 255, 255); stroke-opacity: 1; stroke-width: 1px;"/><path class="y2grid crisp" transform="translate(0,208.15)" d="M377,0h242.99999999999997" style="stroke: rgb(255, 255, 255); stroke-opacity: 1; stroke-width: 1px;"/><path class="y2grid crisp" transform="translate(0,171.32999999999998)" d="M377,0h242.99999999999997" style="stroke: rgb(255, 255, 255); stroke-opacity: 1; stroke-width: 1px;"/><path class="y2grid crisp" transform="translate(0,141.25)" d="M377,0h242.99999999999997" style="stroke: rgb(255, 255, 255); stroke-opacity: 1; stroke-width: 1px;"/><path class="y2grid crisp" transform="translate(0,115.81)" d="M377,0h242.99999999999997" style="stroke: rgb(255, 255, 255); stroke-opacity: 1; stroke-width: 1px;"/></g></g><g class="zerolinelayer"/><path class="xlines-below"/><path class="ylines-below"/><g class="overlines-below"/><g class="xaxislayer-below"/><g class="yaxislayer-below"/><g class="overaxes-below"/><g class="plot" transform="translate(377, 100)" clip-path="url('#cliped0731x2y2plot')"><g class="scatterlayer mlayer"><g class="trace scatter tracecbd34d" style="stroke-miterlimit: 2; opacity: 1;"><g class="fills"/><g class="errorbars"/><g class="lines"><path class="js-line" d="M0,151.81L1.76,169.37L3.52,175.46L5.28,163.5L7.04,185.04L8.8,173L10.57,199.46L12.33,215.25L14.09,220.88L15.85,214.47L17.61,213.68L19.37,212.13L21.13,212.9L22.89,219.25L24.65,220.88L28.17,216.84L29.93,210.58L33.46,196.61L35.22,189.03L36.98,189.71L38.74,203.82L40.5,203.82L42.26,193.81L45.78,185.04L47.54,177.33L51.07,160.64L52.83,161.78L54.59,150.21L56.35,150.21L58.11,140.89L59.87,137.41L61.63,134.96L63.39,134.48L66.91,131.13L68.67,131.6L72.2,128.77L73.96,127.84L75.72,127.38L77.48,127.84L79.24,129.24L81,124.62L82.76,122.36L84.52,118.8L88.04,112.33L89.8,114.03L91.57,114.03L93.33,108.56L98.61,99.71L100.37,100.49L105.65,89.82L107.41,88.72L110.93,81.19L112.7,80.49L114.46,77.72L116.22,76.36L119.74,69.04L121.5,65.18L128.54,46.56L130.3,44.86L132.07,41.8L133.83,35.04L139.11,27.03L140.87,25.77L142.63,26.78L144.39,25.27L147.91,19.15L149.67,18.43L151.43,15.58L153.2,14.64L154.96,15.81L156.72,15.58L160.24,12.78L162,12.09L165.52,12.09L167.28,13.24L169.04,13.47L170.8,12.78L172.57,11.63L174.33,11.85L179.61,14.41L181.37,15.34L184.89,15.11L186.65,15.58L191.93,18.43L193.7,19.39L197.22,19.63L198.98,20.35L214.83,29.57L216.59,31.12L218.35,33.2L220.11,33.99L221.87,34.51L223.63,35.84L232.43,42.35L234.2,43.18L237.72,45.43L239.48,46.84L243,49.42" style="vector-effect: non-scaling-stroke; fill: none; stroke: rgb(255, 7, 58); stroke-opacity: 1; stroke-width: 2px; opacity: 1;"/></g><g class="points"/><g class="text"/></g></g></g><g class="overplot"/><path class="xlines-above crisp" d="M0,0" style="fill: none;"/><path class="ylines-above crisp" d="M0,0" style="fill: none;"/><g class="overlines-above"/><g class="xaxislayer-above"><g class="x2tick"><text text-anchor="start" x="0" y="345.5" transform="translate(394.61,0) rotate(30,0,339.5)" style="font-family: 'Open Sans', verdana, arial, sans-serif; font-size: 12px; fill: rgb(42, 63, 95); fill-opacity: 1; white-space: pre;">Feb 2020</text></g><g class="x2tick"><text text-anchor="start" x="0" y="345.5" transform="translate(445.67,0) rotate(30,0,339.5)" style="font-family: 'Open Sans', verdana, arial, sans-serif; font-size: 12px; fill: rgb(42, 63, 95); fill-opacity: 1; white-space: pre;">Mar 2020</text></g><g class="x2tick"><text text-anchor="start" x="0" y="345.5" transform="translate(500.26,0) rotate(30,0,339.5)" style="font-family: 'Open Sans', verdana, arial, sans-serif; font-size: 12px; fill: rgb(42, 63, 95); fill-opacity: 1; white-space: pre;">Apr 2020</text></g><g class="x2tick"><text text-anchor="start" x="0" y="345.5" transform="translate(553.09,0) rotate(30,0,339.5)" style="font-family: 'Open Sans', verdana, arial, sans-serif; font-size: 12px; fill: rgb(42, 63, 95); fill-opacity: 1; white-space: pre;">May 2020</text></g><g class="x2tick"><text text-anchor="start" x="0" y="345.5" transform="translate(607.67,0) rotate(30,0,339.5)" style="font-family: 'Open Sans', verdana, arial, sans-serif; font-size: 12px; fill: rgb(42, 63, 95); fill-opacity: 1; white-space: pre;">Jun 2020</text></g></g><g class="yaxislayer-above"><g class="y2tick"><text text-anchor="end" x="376" y="4.199999999999999" transform="translate(0,322.52)" style="font-family: 'Open Sans', verdana, arial, sans-serif; font-size: 12px; fill: rgb(42, 63, 95); fill-opacity: 1; white-space: pre;">2</text></g><g class="y2tick"><text text-anchor="end" x="376" y="4.199999999999999" transform="translate(0,255.62)" style="font-family: 'Open Sans', verdana, arial, sans-serif; font-size: 12px; fill: rgb(42, 63, 95); fill-opacity: 1; white-space: pre;">3</text></g><g class="y2tick"><text text-anchor="end" x="376" y="4.199999999999999" transform="translate(0,208.15)" style="font-family: 'Open Sans', verdana, arial, sans-serif; font-size: 12px; fill: rgb(42, 63, 95); fill-opacity: 1; white-space: pre;">4</text></g><g class="y2tick"><text text-anchor="end" x="376" y="4.199999999999999" transform="translate(0,171.32999999999998)" style="font-family: 'Open Sans', verdana, arial, sans-serif; font-size: 12px; fill: rgb(42, 63, 95); fill-opacity: 1; white-space: pre;">5</text></g><g class="y2tick"><text text-anchor="end" x="376" y="4.199999999999999" transform="translate(0,141.25)" style="font-family: 'Open Sans', verdana, arial, sans-serif; font-size: 12px; fill: rgb(42, 63, 95); fill-opacity: 1; white-space: pre;">6</text></g><g class="y2tick"><text text-anchor="end" x="376" y="4.199999999999999" transform="translate(0,115.81)" style="font-family: 'Open Sans', verdana, arial, sans-serif; font-size: 12px; fill: rgb(42, 63, 95); fill-opacity: 1; white-space: pre;">7</text></g></g><g class="overaxes-above"/></g><g class="subplot x3y3"><g class="layer-subplot"><g class="shapelayer"/><g class="imagelayer"/></g><g class="gridlayer"><g class="x3"><path class="x3grid crisp" transform="translate(97.61,0)" d="M0,487.5v232.5" style="stroke: rgb(255, 255, 255); stroke-opacity: 1; stroke-width: 1px;"/><path class="x3grid crisp" transform="translate(148.67000000000002,0)" d="M0,487.5v232.5" style="stroke: rgb(255, 255, 255); stroke-opacity: 1; stroke-width: 1px;"/><path class="x3grid crisp" transform="translate(203.26,0)" d="M0,487.5v232.5" style="stroke: rgb(255, 255, 255); stroke-opacity: 1; stroke-width: 1px;"/><path class="x3grid crisp" transform="translate(256.09000000000003,0)" d="M0,487.5v232.5" style="stroke: rgb(255, 255, 255); stroke-opacity: 1; stroke-width: 1px;"/><path class="x3grid crisp" transform="translate(310.66999999999996,0)" d="M0,487.5v232.5" style="stroke: rgb(255, 255, 255); stroke-opacity: 1; stroke-width: 1px;"/></g><g class="y3"><path class="y3grid crisp" transform="translate(0,708.03)" d="M80,0h243" style="stroke: rgb(255, 255, 255); stroke-opacity: 1; stroke-width: 1px;"/><path class="y3grid crisp" transform="translate(0,697.55)" d="M80,0h243" style="stroke: rgb(255, 255, 255); stroke-opacity: 1; stroke-width: 1px;"/><path class="y3grid crisp" transform="translate(0,688.47)" d="M80,0h243" style="stroke: rgb(255, 255, 255); stroke-opacity: 1; stroke-width: 1px;"/><path class="y3grid crisp" transform="translate(0,680.46)" d="M80,0h243" style="stroke: rgb(255, 255, 255); stroke-opacity: 1; stroke-width: 1px;"/><path class="y3grid crisp" transform="translate(0,673.3)" d="M80,0h243" style="stroke: rgb(255, 255, 255); stroke-opacity: 1; stroke-width: 1px;"/><path class="y3grid crisp" transform="translate(0,626.16)" d="M80,0h243" style="stroke: rgb(255, 255, 255); stroke-opacity: 1; stroke-width: 1px;"/><path class="y3grid crisp" transform="translate(0,598.59)" d="M80,0h243" style="stroke: rgb(255, 255, 255); stroke-opacity: 1; stroke-width: 1px;"/><path class="y3grid crisp" transform="translate(0,579.02)" d="M80,0h243" style="stroke: rgb(255, 255, 255); stroke-opacity: 1; stroke-width: 1px;"/><path class="y3grid crisp" transform="translate(0,563.85)" d="M80,0h243" style="stroke: rgb(255, 255, 255); stroke-opacity: 1; stroke-width: 1px;"/><path class="y3grid crisp" transform="translate(0,551.45)" d="M80,0h243" style="stroke: rgb(255, 255, 255); stroke-opacity: 1; stroke-width: 1px;"/><path class="y3grid crisp" transform="translate(0,540.97)" d="M80,0h243" style="stroke: rgb(255, 255, 255); stroke-opacity: 1; stroke-width: 1px;"/><path class="y3grid crisp" transform="translate(0,531.88)" d="M80,0h243" style="stroke: rgb(255, 255, 255); stroke-opacity: 1; stroke-width: 1px;"/><path class="y3grid crisp" transform="translate(0,523.88)" d="M80,0h243" style="stroke: rgb(255, 255, 255); stroke-opacity: 1; stroke-width: 1px;"/><path class="y3grid crisp" transform="translate(0,516.71)" d="M80,0h243" style="stroke: rgb(255, 255, 255); stroke-opacity: 1; stroke-width: 1px;"/></g></g><g class="zerolinelayer"/><path class="xlines-below"/><path class="ylines-below"/><g class="overlines-below"/><g class="xaxislayer-below"/><g class="yaxislayer-below"/><g class="overaxes-below"/><g class="plot" transform="translate(80, 487.5)" clip-path="url('#cliped0731x3y3plot')"><g class="scatterlayer mlayer"><g class="trace scatter trace114635" style="stroke-miterlimit: 2; opacity: 1;"><g class="fills"/><g class="errorbars"/><g class="lines"><path class="js-line" d="M0,63.15L1.76,63.95L3.52,54.01L5.28,25.81L7.04,27.92L8.8,11.63L10.57,17.02L12.33,27.61L14.09,19.07L15.85,33.64L17.61,36.8L22.89,67.25L24.65,76.72L29.93,110.1L31.7,116.88L36.98,134.03L38.74,133.77L40.5,143.48L42.26,147.82L47.54,163.99L49.3,168.16L52.83,174.94L54.59,181.96L58.11,184.12L59.87,188.93L68.67,211.13L70.43,213.85L75.72,219.52L77.48,219.86L79.24,220.88L81,219.08L82.76,217.87L84.52,215.09L88.04,209.37L89.8,204.46L93.33,197.49L95.09,191.91L100.37,174.71L102.13,167.17L107.41,148.13L109.17,145.67L112.7,135.83L114.46,131.44L117.98,125.08L119.74,124.44L126.78,115.63L128.54,115.08L133.83,112.3L135.59,113.56L139.11,112.81L140.87,113.72L142.63,113.7L144.39,114.81L146.15,114.96L147.91,115.97L149.67,116.58L151.43,115.87L153.2,115.97L154.96,117.7L158.48,118.81L160.24,119.32L162,119.62L163.76,121.95L165.52,122.24L167.28,123.4L172.57,125.7L174.33,128.59L183.13,133.3L184.89,134.18L188.41,135.44L190.17,137.08L200.74,142.47L202.5,143.85L211.3,149.03L213.07,151.62L216.59,153.88L218.35,155.6L227.15,160.76L228.91,162.24L230.67,163.01L232.43,164.74L241.24,168.8L243,171.39" style="vector-effect: non-scaling-stroke; fill: none; stroke: rgb(22, 22, 23); stroke-opacity: 1; stroke-width: 2px; opacity: 1;"/></g><g class="points"/><g class="text"/></g></g></g><g class="overplot"/><path class="xlines-above crisp" d="M0,0" style="fill: none;"/><path class="ylines-above crisp" d="M0,0" style="fill: none;"/><g class="overlines-above"/><g class="xaxislayer-above"><g class="x3tick"><text text-anchor="start" x="0" y="733" transform="translate(97.61,0) rotate(30,0,727)" style="font-family: 'Open Sans', verdana, arial, sans-serif; font-size: 12px; fill: rgb(42, 63, 95); fill-opacity: 1; white-space: pre;">Feb 2020</text></g><g class="x3tick"><text text-anchor="start" x="0" y="733" transform="translate(148.67000000000002,0) rotate(30,0,727)" style="font-family: 'Open Sans', verdana, arial, sans-serif; font-size: 12px; fill: rgb(42, 63, 95); fill-opacity: 1; white-space: pre;">Mar 2020</text></g><g class="x3tick"><text text-anchor="start" x="0" y="733" transform="translate(203.26,0) rotate(30,0,727)" style="font-family: 'Open Sans', verdana, arial, sans-serif; font-size: 12px; fill: rgb(42, 63, 95); fill-opacity: 1; white-space: pre;">Apr 2020</text></g><g class="x3tick"><text text-anchor="start" x="0" y="733" transform="translate(256.09000000000003,0) rotate(30,0,727)" style="font-family: 'Open Sans', verdana, arial, sans-serif; font-size: 12px; fill: rgb(42, 63, 95); fill-opacity: 1; white-space: pre;">May 2020</text></g><g class="x3tick"><text text-anchor="start" x="0" y="733" transform="translate(310.66999999999996,0) rotate(30,0,727)" style="font-family: 'Open Sans', verdana, arial, sans-serif; font-size: 12px; fill: rgb(42, 63, 95); fill-opacity: 1; white-space: pre;">Jun 2020</text></g></g><g class="yaxislayer-above"><g class="y3tick"><text text-anchor="end" x="79" y="3.15" transform="translate(0,708.03)" style="font-family: 'Open Sans', verdana, arial, sans-serif; font-size: 9px; fill: rgb(42, 63, 95); fill-opacity: 1; white-space: pre;">6</text></g><g class="y3tick"><text text-anchor="end" x="79" y="3.15" transform="translate(0,697.55)" style="font-family: 'Open Sans', verdana, arial, sans-serif; font-size: 9px; fill: rgb(42, 63, 95); fill-opacity: 1; white-space: pre;">7</text></g><g class="y3tick"><text text-anchor="end" x="79" y="3.15" transform="translate(0,688.47)" style="font-family: 'Open Sans', verdana, arial, sans-serif; font-size: 9px; fill: rgb(42, 63, 95); fill-opacity: 1; white-space: pre;">8</text></g><g class="y3tick"><text text-anchor="end" x="79" y="3.15" transform="translate(0,680.46)" style="font-family: 'Open Sans', verdana, arial, sans-serif; font-size: 9px; fill: rgb(42, 63, 95); fill-opacity: 1; white-space: pre;">9</text></g><g class="y3tick"><text text-anchor="end" x="76" y="2.1999999999999993" transform="translate(0,673.3)" style="font-family: 'Open Sans', verdana, arial, sans-serif; font-size: 12px; fill: rgb(42, 63, 95); fill-opacity: 1; white-space: pre;">10</text></g><g class="y3tick"><text text-anchor="end" x="79" y="3.15" transform="translate(0,626.16)" style="font-family: 'Open Sans', verdana, arial, sans-serif; font-size: 9px; fill: rgb(42, 63, 95); fill-opacity: 1; white-space: pre;">2</text></g><g class="y3tick"><text text-anchor="end" x="79" y="3.15" transform="translate(0,598.59)" style="font-family: 'Open Sans', verdana, arial, sans-serif; font-size: 9px; fill: rgb(42, 63, 95); fill-opacity: 1; white-space: pre;">3</text></g><g class="y3tick"><text text-anchor="end" x="79" y="3.15" transform="translate(0,579.02)" style="font-family: 'Open Sans', verdana, arial, sans-serif; font-size: 9px; fill: rgb(42, 63, 95); fill-opacity: 1; white-space: pre;">4</text></g><g class="y3tick"><text text-anchor="end" x="79" y="3.15" transform="translate(0,563.85)" style="font-family: 'Open Sans', verdana, arial, sans-serif; font-size: 9px; fill: rgb(42, 63, 95); fill-opacity: 1; white-space: pre;">5</text></g><g class="y3tick"><text text-anchor="end" x="79" y="3.15" transform="translate(0,551.45)" style="font-family: 'Open Sans', verdana, arial, sans-serif; font-size: 9px; fill: rgb(42, 63, 95); fill-opacity: 1; white-space: pre;">6</text></g><g class="y3tick"><text text-anchor="end" x="79" y="3.15" transform="translate(0,540.97)" style="font-family: 'Open Sans', verdana, arial, sans-serif; font-size: 9px; fill: rgb(42, 63, 95); fill-opacity: 1; white-space: pre;">7</text></g><g class="y3tick"><text text-anchor="end" x="79" y="3.15" transform="translate(0,531.88)" style="font-family: 'Open Sans', verdana, arial, sans-serif; font-size: 9px; fill: rgb(42, 63, 95); fill-opacity: 1; white-space: pre;">8</text></g><g class="y3tick"><text text-anchor="end" x="79" y="3.15" transform="translate(0,523.88)" style="font-family: 'Open Sans', verdana, arial, sans-serif; font-size: 9px; fill: rgb(42, 63, 95); fill-opacity: 1; white-space: pre;">9</text></g><g class="y3tick"><text text-anchor="end" x="76" y="2.1999999999999993" transform="translate(0,516.71)" style="font-family: 'Open Sans', verdana, arial, sans-serif; font-size: 12px; fill: rgb(42, 63, 95); fill-opacity: 1; white-space: pre;">100</text></g></g><g class="overaxes-above"/></g><g class="subplot x4y4"><g class="layer-subplot"><g class="shapelayer"/><g class="imagelayer"/></g><g class="gridlayer"><g class="x4"><path class="x4grid crisp" transform="translate(394.61,0)" d="M0,487.5v232.5" style="stroke: rgb(255, 255, 255); stroke-opacity: 1; stroke-width: 1px;"/><path class="x4grid crisp" transform="translate(445.67,0)" d="M0,487.5v232.5" style="stroke: rgb(255, 255, 255); stroke-opacity: 1; stroke-width: 1px;"/><path class="x4grid crisp" transform="translate(500.26,0)" d="M0,487.5v232.5" style="stroke: rgb(255, 255, 255); stroke-opacity: 1; stroke-width: 1px;"/><path class="x4grid crisp" transform="translate(553.09,0)" d="M0,487.5v232.5" style="stroke: rgb(255, 255, 255); stroke-opacity: 1; stroke-width: 1px;"/><path class="x4grid crisp" transform="translate(607.67,0)" d="M0,487.5v232.5" style="stroke: rgb(255, 255, 255); stroke-opacity: 1; stroke-width: 1px;"/></g><g class="y4"><path class="y4grid crisp" transform="translate(0,684.75)" d="M377,0h242.99999999999997" style="stroke: rgb(255, 255, 255); stroke-opacity: 1; stroke-width: 1px;"/><path class="y4grid crisp" transform="translate(0,656.5)" d="M377,0h242.99999999999997" style="stroke: rgb(255, 255, 255); stroke-opacity: 1; stroke-width: 1px;"/><path class="y4grid crisp" transform="translate(0,628.26)" d="M377,0h242.99999999999997" style="stroke: rgb(255, 255, 255); stroke-opacity: 1; stroke-width: 1px;"/><path class="y4grid crisp" transform="translate(0,590.92)" d="M377,0h242.99999999999997" style="stroke: rgb(255, 255, 255); stroke-opacity: 1; stroke-width: 1px;"/><path class="y4grid crisp" transform="translate(0,562.67)" d="M377,0h242.99999999999997" style="stroke: rgb(255, 255, 255); stroke-opacity: 1; stroke-width: 1px;"/><path class="y4grid crisp" transform="translate(0,534.43)" d="M377,0h242.99999999999997" style="stroke: rgb(255, 255, 255); stroke-opacity: 1; stroke-width: 1px;"/><path class="y4grid crisp" transform="translate(0,497.09)" d="M377,0h242.99999999999997" style="stroke: rgb(255, 255, 255); stroke-opacity: 1; stroke-width: 1px;"/></g></g><g class="zerolinelayer"/><path class="xlines-below"/><path class="ylines-below"/><g class="overlines-below"/><g class="xaxislayer-below"/><g class="yaxislayer-below"/><g class="overaxes-below"/><g class="plot" transform="translate(377, 487.5)" clip-path="url('#cliped0731x4y4plot')"><g class="scatterlayer mlayer"><g class="trace scatter trace2a8703" style="stroke-miterlimit: 2; opacity: 1;"><g class="fills"/><g class="errorbars"/><g class="lines"><path class="js-line" d="M0,4882.5L1.756521890303924,4882.5L1.76,58.22L3.52,29.78L5.28,24.79L7.04,27.4L8.8,33.74L10.57,11.63L12.33,77.09L14.09,37.62L15.85,53.55L17.61,52.25L19.37,32.78L21.13,57.13L22.89,54.03L24.65,62.82L26.41,74.16L28.17,73.34L29.93,87.66L31.7,86.62L35.22,107.26L36.98,171.96L38.74,37.67L40.5,76.2L42.26,122.77L44.02,123.16L47.54,131.66L49.3,185.32L51.07,187.19L52.83,184.72L54.59,141.79L56.35,220.88L59.87,174.21L61.63,174.68L63.39,167.01L65.15,170.24L66.91,158L68.67,138.96L70.43,150.88L72.2,142.42L73.96,139.55L75.72,131.5L77.48,117.03L79.24,116.35L81,116.69L82.76,119.13L86.28,96.4L88.04,111.8L89.8,74.05L91.57,88.05L93.33,89.13L95.09,83.71L96.85,83.46L98.61,81.6L100.37,68.46L102.13,70.52L103.89,71.73L105.65,75.83L107.41,70.63L109.17,76.16L112.7,68.19L114.46,71.51L116.22,73.89L117.98,82.76L119.74,83.86L121.5,80.33L123.26,83.46L125.02,84.01L126.78,86.46L128.54,90.53L130.3,96.6L132.07,99.83L133.83,100.21L135.59,98.08L137.35,99.38L139.11,98.87L140.87,107.44L142.63,100.21L144.39,115.8L146.15,117.03L147.91,113.33L149.67,107.71L153.2,119.61L154.96,118.18L156.72,125.61L158.48,123.83L160.24,124.64L162,122.77L163.76,117.95L165.52,124.51L169.04,135.42L170.8,133.33L172.57,132.49L174.33,129.91L176.09,129.13L177.85,133.33L181.37,138.19L183.13,137.24L184.89,131.83L186.65,133.67L188.41,133.5L190.17,138L191.93,142.85L193.7,144.6L195.46,141.17L197.22,141.37L198.98,138L200.74,136.69L204.26,147.62L206.02,144.15L207.78,141.79L209.54,140.96L211.3,139.16L213.07,138.96L214.83,143.28L216.59,145.28L218.35,149.85L220.11,147.38L221.87,145.05L223.63,140.35L227.15,138.38L228.91,146.2L230.67,150.36L232.43,145.5L234.2,140.55L235.96,142.42L237.72,141.79L239.48,144.38L241.24,147.38L243,151.94" style="vector-effect: non-scaling-stroke; fill: none; stroke: rgb(254, 152, 1); stroke-opacity: 1; stroke-width: 2px; opacity: 1;"/></g><g class="points"/><g class="text"/></g></g></g><g class="overplot"/><path class="xlines-above crisp" d="M0,0" style="fill: none;"/><path class="ylines-above crisp" d="M0,0" style="fill: none;"/><g class="overlines-above"/><g class="xaxislayer-above"><g class="x4tick"><text text-anchor="start" x="0" y="733" transform="translate(394.61,0) rotate(30,0,727)" style="font-family: 'Open Sans', verdana, arial, sans-serif; font-size: 12px; fill: rgb(42, 63, 95); fill-opacity: 1; white-space: pre;">Feb 2020</text></g><g class="x4tick"><text text-anchor="start" x="0" y="733" transform="translate(445.67,0) rotate(30,0,727)" style="font-family: 'Open Sans', verdana, arial, sans-serif; font-size: 12px; fill: rgb(42, 63, 95); fill-opacity: 1; white-space: pre;">Mar 2020</text></g><g class="x4tick"><text text-anchor="start" x="0" y="733" transform="translate(500.26,0) rotate(30,0,727)" style="font-family: 'Open Sans', verdana, arial, sans-serif; font-size: 12px; fill: rgb(42, 63, 95); fill-opacity: 1; white-space: pre;">Apr 2020</text></g><g class="x4tick"><text text-anchor="start" x="0" y="733" transform="translate(553.09,0) rotate(30,0,727)" style="font-family: 'Open Sans', verdana, arial, sans-serif; font-size: 12px; fill: rgb(42, 63, 95); fill-opacity: 1; white-space: pre;">May 2020</text></g><g class="x4tick"><text text-anchor="start" x="0" y="733" transform="translate(607.67,0) rotate(30,0,727)" style="font-family: 'Open Sans', verdana, arial, sans-serif; font-size: 12px; fill: rgb(42, 63, 95); fill-opacity: 1; white-space: pre;">Jun 2020</text></g></g><g class="yaxislayer-above"><g class="y4tick"><text text-anchor="end" x="376" y="3.15" transform="translate(0,684.75)" style="font-family: 'Open Sans', verdana, arial, sans-serif; font-size: 9px; fill: rgb(42, 63, 95); fill-opacity: 1; white-space: pre;">5</text></g><g class="y4tick"><text text-anchor="end" x="376" y="4.199999999999999" transform="translate(0,656.5)" style="font-family: 'Open Sans', verdana, arial, sans-serif; font-size: 12px; fill: rgb(42, 63, 95); fill-opacity: 1; white-space: pre;">1</text></g><g class="y4tick"><text text-anchor="end" x="376" y="3.15" transform="translate(0,628.26)" style="font-family: 'Open Sans', verdana, arial, sans-serif; font-size: 9px; fill: rgb(42, 63, 95); fill-opacity: 1; white-space: pre;">2</text></g><g class="y4tick"><text text-anchor="end" x="376" y="3.15" transform="translate(0,590.92)" style="font-family: 'Open Sans', verdana, arial, sans-serif; font-size: 9px; fill: rgb(42, 63, 95); fill-opacity: 1; white-space: pre;">5</text></g><g class="y4tick"><text text-anchor="end" x="376" y="4.199999999999999" transform="translate(0,562.67)" style="font-family: 'Open Sans', verdana, arial, sans-serif; font-size: 12px; fill: rgb(42, 63, 95); fill-opacity: 1; white-space: pre;">10</text></g><g class="y4tick"><text text-anchor="end" x="376" y="3.15" transform="translate(0,534.43)" style="font-family: 'Open Sans', verdana, arial, sans-serif; font-size: 9px; fill: rgb(42, 63, 95); fill-opacity: 1; white-space: pre;">2</text></g><g class="y4tick"><text text-anchor="end" x="376" y="3.15" transform="translate(0,497.09)" style="font-family: 'Open Sans', verdana, arial, sans-serif; font-size: 9px; fill: rgb(42, 63, 95); fill-opacity: 1; white-space: pre;">5</text></g></g><g class="overaxes-above"/></g></g><g class="polarlayer"/><g class="ternarylayer"/><g class="geolayer"/><g class="funnelarealayer"/><g class="pielayer"/><g class="treemaplayer"/><g class="sunburstlayer"/><g class="glimages"/><defs id="topdefs-ed0731"><g class="clips"/></defs><g class="layer-above"><g class="imagelayer"/><g class="shapelayer"/></g><g class="infolayer"><g class="g-gtitle"><text class="gtitle" x="35" y="50" text-anchor="start" dy="0em" style="font-family: 'Open Sans', verdana, arial, sans-serif; font-size: 17px; fill: rgb(42, 63, 95); opacity: 1; font-weight: normal; white-space: pre;">% Day Wise Logarithmic</text></g><g class="g-xtitle"/><g class="g-x2title"/><g class="g-x3title"/><g class="g-x4title"/><g class="g-ytitle"/><g class="g-y2title"/><g class="g-y3title"/><g class="g-y4title"/><g class="annotation" data-index="0" style="opacity: 1;"><g class="annotation-text-g" transform="rotate(0,201.5,89.5)"><g class="cursor-pointer" transform="translate(129, 79)"><rect class="bg" x="0.5" y="0.5" width="145" height="20" style="stroke-width: 1px; stroke: rgb(0, 0, 0); stroke-opacity: 0; fill: rgb(0, 0, 0); fill-opacity: 0;"/><text class="annotation-text" text-anchor="middle" x="73.15625" y="16" style="font-family: 'Open Sans', verdana, arial, sans-serif; font-size: 16px; fill: rgb(42, 63, 95); fill-opacity: 1; white-space: pre;">% Recovered cases</text></g></g></g><g class="annotation" data-index="1" style="opacity: 1;"><g class="annotation-text-g" transform="rotate(0,498.5,89.5)"><g class="cursor-pointer" transform="translate(462, 79)"><rect class="bg" x="0.5" y="0.5" width="72" height="20" style="stroke-width: 1px; stroke: rgb(0, 0, 0); stroke-opacity: 0; fill: rgb(0, 0, 0); fill-opacity: 0;"/><text class="annotation-text" text-anchor="middle" x="36.6875" y="16" style="font-family: 'Open Sans', verdana, arial, sans-serif; font-size: 16px; fill: rgb(42, 63, 95); fill-opacity: 1; white-space: pre;">% Deaths</text></g></g></g><g class="annotation" data-index="2" style="opacity: 1;"><g class="annotation-text-g" transform="rotate(0,201.5,477)"><g class="cursor-pointer" transform="translate(109, 467)"><rect class="bg" x="0.5" y="0.5" width="184" height="20" style="stroke-width: 1px; stroke: rgb(0, 0, 0); stroke-opacity: 0; fill: rgb(0, 0, 0); fill-opacity: 0;"/><text class="annotation-text" text-anchor="middle" x="92.265625" y="16" style="font-family: 'Open Sans', verdana, arial, sans-serif; font-size: 16px; fill: rgb(42, 63, 95); fill-opacity: 1; white-space: pre;">% Deaths Per Recovered</text></g></g></g><g class="annotation" data-index="3" style="opacity: 1;"><g class="annotation-text-g" transform="rotate(0,498.5,477)"><g class="cursor-pointer" transform="translate(446, 467)"><rect class="bg" x="0.5" y="0.5" width="104" height="20" style="stroke-width: 1px; stroke: rgb(0, 0, 0); stroke-opacity: 0; fill: rgb(0, 0, 0); fill-opacity: 0;"/><text class="annotation-text" text-anchor="middle" x="52.25" y="16" style="font-family: 'Open Sans', verdana, arial, sans-serif; font-size: 16px; fill: rgb(42, 63, 95); fill-opacity: 1; white-space: pre;">% New Cases</text></g></g></g></g></svg>