<svg class="main-svg" xmlns="http://www.w3.org/2000/svg" xmlns:xlink="http://www.w3.org/1999/xlink" width="700" height="800" style="" viewBox="0 0 700 800"><rect x="0" y="0" width="700" height="800" style="fill: rgb(255, 255, 255); fill-opacity: 1;"/><defs id="defs-39fe91"><g class="clips"><clipPath id="clip39fe91xyplot" class="plotclip"><rect width="243" height="232.5"/></clipPath><clipPath id="clip39fe91x2y2plot" class="plotclip"><rect width="242.99999999999997" height="232.5"/></clipPath><clipPath id="clip39fe91x3y3plot" class="plotclip"><rect width="243" height="232.5"/></clipPath><clipPath id="clip39fe91x4y4plot" class="plotclip"><rect width="242.99999999999997" height="232.5"/></clipPath><clipPath class="axesclip" id="clip39fe91x"><rect x="80" y="0" width="243" height="800"/></clipPath><clipPath class="axesclip" id="clip39fe91y"><rect x="0" y="100" width="700" height="232.5"/></clipPath><clipPath class="axesclip" id="clip39fe91xy"><rect x="80" y="100" width="243" height="232.5"/></clipPath><clipPath class="axesclip" id="clip39fe91y2"><rect x="0" y="100" width="700" height="232.5"/></clipPath><clipPath class="axesclip" id="clip39fe91xy2"><rect x="80" y="100" width="243" height="232.5"/></clipPath><clipPath class="axesclip" id="clip39fe91y3"><rect x="0" y="487.5" width="700" height="232.5"/></clipPath><clipPath class="axesclip" id="clip39fe91xy3"><rect x="80" y="487.5" width="243" height="232.5"/></clipPath><clipPath class="axesclip" id="clip39fe91y4"><rect x="0" y="487.5" width="700" height="232.5"/></clipPath><clipPath class="axesclip" id="clip39fe91xy4"><rect x="80" y="487.5" width="243" height="232.5"/></clipPath><clipPath class="axesclip" id="clip39fe91x2"><rect x="377" y="0" width="242.99999999999997" height="800"/></clipPath><clipPath class="axesclip" id="clip39fe91x2y"><rect x="377" y="100" width="242.99999999999997" height="232.5"/></clipPath><clipPath class="axesclip" id="clip39fe91x2y2"><rect x="377" y="100" width="242.99999999999997" height="232.5"/></clipPath><clipPath class="axesclip" id="clip39fe91x2y3"><rect x="377" y="487.5" width="242.99999999999997" height="232.5"/></clipPath><clipPath class="axesclip" id="clip39fe91x2y4"><rect x="377" y="487.5" width="242.99999999999997" height="232.5"/></clipPath><clipPath class="axesclip" id="clip39fe91x3"><rect x="80" y="0" width="243" height="800"/></clipPath><clipPath class="axesclip" id="clip39fe91x3y"><rect x="80" y="100" width="243" height="232.5"/></clipPath><clipPath class="axesclip" id="clip39fe91x3y2"><rect x="80" y="100" width="243" height="232.5"/></clipPath><clipPath class="axesclip" id="clip39fe91x3y3"><rect x="80" y="487.5" width="243" height="232.5"/></clipPath><clipPath class="axesclip" id="clip39fe91x3y4"><rect x="80" y="487.5" width="243" height="232.5"/></clipPath><clipPath class="axesclip" id="clip39fe91x4"><rect x="377" y="0" width="242.99999999999997" height="800"/></clipPath><clipPath class="axesclip" id="clip39fe91x4y"><rect x="377" y="100" width="242.99999999999997" height="232.5"/></clipPath><clipPath class="axesclip" id="clip39fe91x4y2"><rect x="377" y="100" width="242.99999999999997" height="232.5"/></clipPath><clipPath class="axesclip" id="clip39fe91x4y3"><rect x="377" y="487.5" width="242.99999999999997" height="232.5"/></clipPath><clipPath class="axesclip" id="clip39fe91x4y4"><rect x="377" y="487.5" width="242.99999999999997" height="232.5"/></clipPath></g><g class="gradients"/></defs><g class="bglayer"><rect class="bg" x="80" y="100" width="243" height="232.5" style="fill: rgb(229, 236, 246); fill-opacity: 1; stroke-width: 0;"/><rect class="bg" x="377" y="100" width="242.99999999999997" height="232.5" style="fill: rgb(229, 236, 246); fill-opacity: 1; stroke-width: 0;"/><rect class="bg" x="80" y="487.5" width="243" height="232.5" style="fill: rgb(229, 236, 246); fill-opacity: 1; stroke-width: 0;"/><rect class="bg" x="377" y="487.5" width="242.99999999999997" height="232.5" style="fill: rgb(229, 236, 246); fill-opacity: 1; stroke-width: 0;"/></g><g class="layer-below"><g class="imagelayer"/><g class="shapelayer"/></g><g class="cartesianlayer"><g class="subplot xy"><g class="layer-subplot"><g class="shapelayer"/><g class="imagelayer"/></g><g class="gridlayer"><g class="x"><path class="xgrid crisp" transform="translate(121.38,0)" d="M0,100v232.5" style="stroke: rgb(255, 255, 255); stroke-opacity: 1; stroke-width: 1px;"/><path class="xgrid crisp" transform="translate(186.11,0)" d="M0,100v232.5" style="stroke: rgb(255, 255, 255); stroke-opacity: 1; stroke-width: 1px;"/><path class="xgrid crisp" transform="translate(250.84,0)" d="M0,100v232.5" style="stroke: rgb(255, 255, 255); stroke-opacity: 1; stroke-width: 1px;"/><path class="xgrid crisp" transform="translate(316.63,0)" d="M0,100v232.5" style="stroke: rgb(255, 255, 255); stroke-opacity: 1; stroke-width: 1px;"/></g><g class="y"><path class="ygrid crisp" transform="translate(0,312.89)" d="M80,0h243" style="stroke: rgb(255, 255, 255); stroke-opacity: 1; stroke-width: 1px;"/><path class="ygrid crisp" transform="translate(0,289.65999999999997)" d="M80,0h243" style="stroke: rgb(255, 255, 255); stroke-opacity: 1; stroke-width: 1px;"/><path class="ygrid crisp" transform="translate(0,273.16999999999996)" d="M80,0h243" style="stroke: rgb(255, 255, 255); stroke-opacity: 1; stroke-width: 1px;"/><path class="ygrid crisp" transform="translate(0,260.38)" d="M80,0h243" style="stroke: rgb(255, 255, 255); stroke-opacity: 1; stroke-width: 1px;"/><path class="ygrid crisp" transform="translate(0,249.93)" d="M80,0h243" style="stroke: rgb(255, 255, 255); stroke-opacity: 1; stroke-width: 1px;"/><path class="ygrid crisp" transform="translate(0,241.1)" d="M80,0h243" style="stroke: rgb(255, 255, 255); stroke-opacity: 1; stroke-width: 1px;"/><path class="ygrid crisp" transform="translate(0,233.45)" d="M80,0h243" style="stroke: rgb(255, 255, 255); stroke-opacity: 1; stroke-width: 1px;"/><path class="ygrid crisp" transform="translate(0,226.7)" d="M80,0h243" style="stroke: rgb(255, 255, 255); stroke-opacity: 1; stroke-width: 1px;"/><path class="ygrid crisp" transform="translate(0,220.66)" d="M80,0h243" style="stroke: rgb(255, 255, 255); stroke-opacity: 1; stroke-width: 1px;"/><path class="ygrid crisp" transform="translate(0,180.94)" d="M80,0h243" style="stroke: rgb(255, 255, 255); stroke-opacity: 1; stroke-width: 1px;"/><path class="ygrid crisp" transform="translate(0,157.7)" d="M80,0h243" style="stroke: rgb(255, 255, 255); stroke-opacity: 1; stroke-width: 1px;"/><path class="ygrid crisp" transform="translate(0,141.21)" d="M80,0h243" style="stroke: rgb(255, 255, 255); stroke-opacity: 1; stroke-width: 1px;"/><path class="ygrid crisp" transform="translate(0,128.42000000000002)" d="M80,0h243" style="stroke: rgb(255, 255, 255); stroke-opacity: 1; stroke-width: 1px;"/><path class="ygrid crisp" transform="translate(0,117.97)" d="M80,0h243" style="stroke: rgb(255, 255, 255); stroke-opacity: 1; stroke-width: 1px;"/><path class="ygrid crisp" transform="translate(0,109.14)" d="M80,0h243" style="stroke: rgb(255, 255, 255); stroke-opacity: 1; stroke-width: 1px;"/><path class="ygrid crisp" transform="translate(0,101.49)" d="M80,0h243" style="stroke: rgb(255, 255, 255); stroke-opacity: 1; stroke-width: 1px;"/></g></g><g class="zerolinelayer"/><path class="xlines-below"/><path class="ylines-below"/><g class="overlines-below"/><g class="xaxislayer-below"/><g class="yaxislayer-below"/><g class="overaxes-below"/><g class="plot" transform="translate(80, 100)" clip-path="url('#clip39fe91xyplot')"><g class="scatterlayer mlayer"><g class="trace scatter trace0d7daf" style="stroke-miterlimit: 2; opacity: 1;"><g class="fills"/><g class="errorbars"/><g class="lines"><path class="js-line" d="M0,159.81L1.06,165.29L2.12,175.66L4.24,201.03L5.31,210.37L6.37,215.23L7.43,211.76L8.49,220.88L9.55,206.4L10.61,203.41L11.67,193.41L14.86,172.18L15.92,162.36L20.16,125.25L21.22,118.14L22.28,113.25L23.34,118.3L27.59,89.68L28.65,83.6L32.9,59.13L33.96,58.04L42.45,25.12L43.51,23.05L45.63,19.45L46.69,19.52L48.81,18.94L49.87,19.34L53.06,23.4L54.12,28.15L57.3,35.93L58.36,39.01L60.48,48.55L61.55,53.79L63.67,60.56L64.73,67.21L65.79,67.99L66.85,71.6L70.03,80L71.1,81.14L72.16,80.28L73.22,80.96L76.4,81.25L77.46,80.25L79.59,80.05L80.65,78.55L82.77,75.45L83.83,75.06L84.89,73.73L85.95,74.08L90.2,68.7L91.26,68.26L94.44,66.39L95.5,65.05L97.62,63.86L98.69,61.88L101.87,60.48L102.93,59.74L107.17,54.72L108.24,54.32L117.79,49.24L118.85,48.26L120.97,47.57L122.03,46.79L127.34,44.24L128.4,42.31L133.7,39.73L134.76,39.3L142.19,35.48L143.25,35.26L145.38,34.93L146.44,33.06L152.8,31.25L153.86,30.91L159.17,28.99L160.23,28.92L167.66,27.58L168.72,27.41L170.84,27.05L171.9,25.25L172.97,25.21L174.03,24.33L188.88,21.66L189.94,21.9L201.62,19.2L202.68,19.04L213.29,16.92L214.35,16.24L223.9,14.18L224.96,14.19L243,11.62" style="vector-effect: non-scaling-stroke; fill: none; stroke: rgb(40, 167, 69); stroke-opacity: 1; stroke-width: 2px; opacity: 1;"/></g><g class="points"/><g class="text"/></g></g></g><g class="overplot"/><path class="xlines-above crisp" d="M79,333H323" style="fill: none; stroke-width: 1px; stroke: rgb(255, 255, 255); stroke-opacity: 1;"/><path class="ylines-above crisp" d="M79.5,100V332.5" style="fill: none; stroke-width: 1px; stroke: rgb(255, 255, 255); stroke-opacity: 1;"/><g class="overlines-above"/><g class="xaxislayer-above"><g class="xtick"><text text-anchor="middle" x="0" y="347.9" transform="translate(121.38,0)" style="font-family: 'Open Sans', verdana, arial, sans-serif; font-size: 12px; fill: rgb(42, 63, 95); fill-opacity: 1; white-space: pre;">Mar 2020</text></g><g class="xtick"><text text-anchor="middle" x="0" y="347.9" transform="translate(186.11,0)" style="font-family: 'Open Sans', verdana, arial, sans-serif; font-size: 12px; fill: rgb(42, 63, 95); fill-opacity: 1; white-space: pre;">May 2020</text></g><g class="xtick"><text text-anchor="middle" x="0" y="347.9" transform="translate(250.84,0)" style="font-family: 'Open Sans', verdana, arial, sans-serif; font-size: 12px; fill: rgb(42, 63, 95); fill-opacity: 1; white-space: pre;">Jul 2020</text></g><g class="xtick"><text text-anchor="middle" x="0" y="347.9" transform="translate(316.63,0)" style="font-family: 'Open Sans', verdana, arial, sans-serif; font-size: 12px; fill: rgb(42, 63, 95); fill-opacity: 1; white-space: pre;">Sep 2020</text></g></g><g class="yaxislayer-above"><g class="ytick"><text text-anchor="end" x="76.6" y="3.15" transform="translate(0,312.89)" style="font-family: 'Open Sans', verdana, arial, sans-serif; font-size: 9px; fill: rgb(42, 63, 95); fill-opacity: 1; white-space: pre;">2</text></g><g class="ytick"><text text-anchor="end" x="76.6" y="3.15" transform="translate(0,289.65999999999997)" style="font-family: 'Open Sans', verdana, arial, sans-serif; font-size: 9px; fill: rgb(42, 63, 95); fill-opacity: 1; white-space: pre;">3</text></g><g class="ytick"><text text-anchor="end" x="76.6" y="3.15" transform="translate(0,273.16999999999996)" style="font-family: 'Open Sans', verdana, arial, sans-serif; font-size: 9px; fill: rgb(42, 63, 95); fill-opacity: 1; white-space: pre;">4</text></g><g class="ytick"><text text-anchor="end" x="76.6" y="3.15" transform="translate(0,260.38)" style="font-family: 'Open Sans', verdana, arial, sans-serif; font-size: 9px; fill: rgb(42, 63, 95); fill-opacity: 1; white-space: pre;">5</text></g><g class="ytick"><text text-anchor="end" x="76.6" y="3.15" transform="translate(0,249.93)" style="font-family: 'Open Sans', verdana, arial, sans-serif; font-size: 9px; fill: rgb(42, 63, 95); fill-opacity: 1; white-space: pre;">6</text></g><g class="ytick"><text text-anchor="end" x="76.6" y="3.15" transform="translate(0,241.1)" style="font-family: 'Open Sans', verdana, arial, sans-serif; font-size: 9px; fill: rgb(42, 63, 95); fill-opacity: 1; white-space: pre;">7</text></g><g class="ytick"><text text-anchor="end" x="76.6" y="3.15" transform="translate(0,233.45)" style="font-family: 'Open Sans', verdana, arial, sans-serif; font-size: 9px; fill: rgb(42, 63, 95); fill-opacity: 1; white-space: pre;">8</text></g><g class="ytick"><text text-anchor="end" x="76.6" y="3.15" transform="translate(0,226.7)" style="font-family: 'Open Sans', verdana, arial, sans-serif; font-size: 9px; fill: rgb(42, 63, 95); fill-opacity: 1; white-space: pre;">9</text></g><g class="ytick"><text text-anchor="end" x="73.6" y="2.1999999999999993" transform="translate(0,220.66)" style="font-family: 'Open Sans', verdana, arial, sans-serif; font-size: 12px; fill: rgb(42, 63, 95); fill-opacity: 1; white-space: pre;">10</text></g><g class="ytick"><text text-anchor="end" x="76.6" y="3.15" transform="translate(0,180.94)" style="font-family: 'Open Sans', verdana, arial, sans-serif; font-size: 9px; fill: rgb(42, 63, 95); fill-opacity: 1; white-space: pre;">2</text></g><g class="ytick"><text text-anchor="end" x="76.6" y="3.15" transform="translate(0,157.7)" style="font-family: 'Open Sans', verdana, arial, sans-serif; font-size: 9px; fill: rgb(42, 63, 95); fill-opacity: 1; white-space: pre;">3</text></g><g class="ytick"><text text-anchor="end" x="76.6" y="3.15" transform="translate(0,141.21)" style="font-family: 'Open Sans', verdana, arial, sans-serif; font-size: 9px; fill: rgb(42, 63, 95); fill-opacity: 1; white-space: pre;">4</text></g><g class="ytick"><text text-anchor="end" x="76.6" y="3.15" transform="translate(0,128.42000000000002)" style="font-family: 'Open Sans', verdana, arial, sans-serif; font-size: 9px; fill: rgb(42, 63, 95); fill-opacity: 1; white-space: pre;">5</text></g><g class="ytick"><text text-anchor="end" x="76.6" y="3.15" transform="translate(0,117.97)" style="font-family: 'Open Sans', verdana, arial, sans-serif; font-size: 9px; fill: rgb(42, 63, 95); fill-opacity: 1; white-space: pre;">6</text></g><g class="ytick"><text text-anchor="end" x="76.6" y="3.15" transform="translate(0,109.14)" style="font-family: 'Open Sans', verdana, arial, sans-serif; font-size: 9px; fill: rgb(42, 63, 95); fill-opacity: 1; white-space: pre;">7</text></g><g class="ytick"><text text-anchor="end" x="76.6" y="3.15" transform="translate(0,101.49)" style="font-family: 'Open Sans', verdana, arial, sans-serif; font-size: 9px; fill: rgb(42, 63, 95); fill-opacity: 1; white-space: pre;">8</text></g></g><g class="overaxes-above"/></g><g class="subplot x2y2"><g class="layer-subplot"><g class="shapelayer"/><g class="imagelayer"/></g><g class="gridlayer"><g class="x2"><path class="x2grid crisp" transform="translate(418.38,0)" d="M0,100v232.5" style="stroke: rgb(255, 255, 255); stroke-opacity: 1; stroke-width: 1px;"/><path class="x2grid crisp" transform="translate(483.11,0)" d="M0,100v232.5" style="stroke: rgb(255, 255, 255); stroke-opacity: 1; stroke-width: 1px;"/><path class="x2grid crisp" transform="translate(547.84,0)" d="M0,100v232.5" style="stroke: rgb(255, 255, 255); stroke-opacity: 1; stroke-width: 1px;"/><path class="x2grid crisp" transform="translate(613.63,0)" d="M0,100v232.5" style="stroke: rgb(255, 255, 255); stroke-opacity: 1; stroke-width: 1px;"/></g><g class="y2"><path class="y2grid crisp" transform="translate(0,324.14)" d="M377,0h242.99999999999997" style="stroke: rgb(255, 255, 255); stroke-opacity: 1; stroke-width: 1px;"/><path class="y2grid crisp" transform="translate(0,257.3)" d="M377,0h242.99999999999997" style="stroke: rgb(255, 255, 255); stroke-opacity: 1; stroke-width: 1px;"/><path class="y2grid crisp" transform="translate(0,209.88)" d="M377,0h242.99999999999997" style="stroke: rgb(255, 255, 255); stroke-opacity: 1; stroke-width: 1px;"/><path class="y2grid crisp" transform="translate(0,173.1)" d="M377,0h242.99999999999997" style="stroke: rgb(255, 255, 255); stroke-opacity: 1; stroke-width: 1px;"/><path class="y2grid crisp" transform="translate(0,143.05)" d="M377,0h242.99999999999997" style="stroke: rgb(255, 255, 255); stroke-opacity: 1; stroke-width: 1px;"/><path class="y2grid crisp" transform="translate(0,117.64)" d="M377,0h242.99999999999997" style="stroke: rgb(255, 255, 255); stroke-opacity: 1; stroke-width: 1px;"/></g></g><g class="zerolinelayer"/><path class="xlines-below"/><path class="ylines-below"/><g class="overlines-below"/><g class="xaxislayer-below"/><g class="yaxislayer-below"/><g class="overaxes-below"/><g class="plot" transform="translate(377, 100)" clip-path="url('#clip39fe91x2y2plot')"><g class="scatterlayer mlayer"><g class="trace scatter trace2e9fd3" style="stroke-miterlimit: 2; opacity: 1;"><g class="fills"/><g class="errorbars"/><g class="lines"><path class="js-line" d="M0,153.5L1.06,171.05L2.12,170.45L3.18,161.2L4.24,177.75L5.31,168.09L6.37,197.56L8.49,217.67L9.55,212.22L10.61,212.22L11.67,211.45L12.73,212.99L13.79,219.27L14.86,220.88L15.92,219.27L16.98,216.88L18.04,210.69L21.22,188.02L22.28,189.35L23.34,203.27L24.41,202.54L26.53,188.02L27.59,184.09L30.77,160.07L31.83,160.63L32.9,149.78L33.96,149.78L36.08,136.67L37.14,134.74L39.26,131.89L40.32,130.49L41.38,130.95L42.45,129.56L45.63,127.25L46.69,128.17L47.75,129.56L48.81,124.53L49.87,122.73L50.93,119.21L53.06,114.48L54.12,116.18L55.18,116.18L56.24,110.71L57.3,108.65L58.36,104.61L59.42,102.63L60.48,103.02L63.67,93.05L64.73,92.68L66.85,85.06L67.91,84.35L73.22,69.19L74.28,63.81L77.46,49.78L78.52,47.5L79.59,43.87L80.65,36.85L84.89,26.09L85.95,27.09L88.07,22.41L89.14,19.06L90.2,18.34L91.26,16L92.32,15.3L93.38,15.76L94.44,15.07L95.5,13.45L97.62,12.08L98.69,11.85L99.75,12.08L100.81,13.22L101.87,13.45L102.93,12.54L103.99,11.63L105.05,11.85L110.36,15.07L111.42,14.83L115.66,18.11L116.72,19.29L118.85,19.77L119.91,20.73L123.09,23.63L124.15,24.86L130.52,31.64L131.58,33.7L134.76,36.58L135.83,37.91L139.01,42.5L140.07,43.6L143.25,46.66L144.31,48.35L147.5,51.79L148.56,52.66L154.93,59.5L155.99,60.41L160.23,65.06L161.29,66.32L167.66,75.09L168.72,76.43L170.84,79.14L171.9,80.86L188.88,102.23L189.94,103.42L199.49,113.21L200.55,114.06L205.86,119.64L206.92,120.08L216.47,127.71L217.53,127.71L221.78,130.49L222.84,130.95L228.14,134.74L229.21,135.22L231.33,136.67L232.39,137.64L237.69,140.6L238.76,141.59L241.94,143.6L243,143.1" style="vector-effect: non-scaling-stroke; fill: none; stroke: rgb(255, 7, 58); stroke-opacity: 1; stroke-width: 2px; opacity: 1;"/></g><g class="points"/><g class="text"/></g></g></g><g class="overplot"/><path class="xlines-above crisp" d="M376,333H620" style="fill: none; stroke-width: 1px; stroke: rgb(255, 255, 255); stroke-opacity: 1;"/><path class="ylines-above crisp" d="M376.5,100V332.5" style="fill: none; stroke-width: 1px; stroke: rgb(255, 255, 255); stroke-opacity: 1;"/><g class="overlines-above"/><g class="xaxislayer-above"><g class="x2tick"><text text-anchor="middle" x="0" y="347.9" transform="translate(418.38,0)" style="font-family: 'Open Sans', verdana, arial, sans-serif; font-size: 12px; fill: rgb(42, 63, 95); fill-opacity: 1; white-space: pre;">Mar 2020</text></g><g class="x2tick"><text text-anchor="middle" x="0" y="347.9" transform="translate(483.11,0)" style="font-family: 'Open Sans', verdana, arial, sans-serif; font-size: 12px; fill: rgb(42, 63, 95); fill-opacity: 1; white-space: pre;">May 2020</text></g><g class="x2tick"><text text-anchor="middle" x="0" y="347.9" transform="translate(547.84,0)" style="font-family: 'Open Sans', verdana, arial, sans-serif; font-size: 12px; fill: rgb(42, 63, 95); fill-opacity: 1; white-space: pre;">Jul 2020</text></g><g class="x2tick"><text text-anchor="middle" x="0" y="347.9" transform="translate(613.63,0)" style="font-family: 'Open Sans', verdana, arial, sans-serif; font-size: 12px; fill: rgb(42, 63, 95); fill-opacity: 1; white-space: pre;">Sep 2020</text></g></g><g class="yaxislayer-above"><g class="y2tick"><text text-anchor="end" x="373.6" y="4.199999999999999" transform="translate(0,324.14)" style="font-family: 'Open Sans', verdana, arial, sans-serif; font-size: 12px; fill: rgb(42, 63, 95); fill-opacity: 1; white-space: pre;">2</text></g><g class="y2tick"><text text-anchor="end" x="373.6" y="4.199999999999999" transform="translate(0,257.3)" style="font-family: 'Open Sans', verdana, arial, sans-serif; font-size: 12px; fill: rgb(42, 63, 95); fill-opacity: 1; white-space: pre;">3</text></g><g class="y2tick"><text text-anchor="end" x="373.6" y="4.199999999999999" transform="translate(0,209.88)" style="font-family: 'Open Sans', verdana, arial, sans-serif; font-size: 12px; fill: rgb(42, 63, 95); fill-opacity: 1; white-space: pre;">4</text></g><g class="y2tick"><text text-anchor="end" x="373.6" y="4.199999999999999" transform="translate(0,173.1)" style="font-family: 'Open Sans', verdana, arial, sans-serif; font-size: 12px; fill: rgb(42, 63, 95); fill-opacity: 1; white-space: pre;">5</text></g><g class="y2tick"><text text-anchor="end" x="373.6" y="4.199999999999999" transform="translate(0,143.05)" style="font-family: 'Open Sans', verdana, arial, sans-serif; font-size: 12px; fill: rgb(42, 63, 95); fill-opacity: 1; white-space: pre;">6</text></g><g class="y2tick"><text text-anchor="end" x="373.6" y="4.199999999999999" transform="translate(0,117.64)" style="font-family: 'Open Sans', verdana, arial, sans-serif; font-size: 12px; fill: rgb(42, 63, 95); fill-opacity: 1; white-space: pre;">7</text></g></g><g class="overaxes-above"/></g><g class="subplot x3y3"><g class="layer-subplot"><g class="shapelayer"/><g class="imagelayer"/></g><g class="gridlayer"><g class="x3"><path class="x3grid crisp" transform="translate(121.38,0)" d="M0,487.5v232.5" style="stroke: rgb(255, 255, 255); stroke-opacity: 1; stroke-width: 1px;"/><path class="x3grid crisp" transform="translate(186.11,0)" d="M0,487.5v232.5" style="stroke: rgb(255, 255, 255); stroke-opacity: 1; stroke-width: 1px;"/><path class="x3grid crisp" transform="translate(250.84,0)" d="M0,487.5v232.5" style="stroke: rgb(255, 255, 255); stroke-opacity: 1; stroke-width: 1px;"/><path class="x3grid crisp" transform="translate(316.63,0)" d="M0,487.5v232.5" style="stroke: rgb(255, 255, 255); stroke-opacity: 1; stroke-width: 1px;"/></g><g class="y3"><path class="y3grid crisp" transform="translate(0,706.71)" d="M80,0h243" style="stroke: rgb(255, 255, 255); stroke-opacity: 1; stroke-width: 1px;"/><path class="y3grid crisp" transform="translate(0,695.22)" d="M80,0h243" style="stroke: rgb(255, 255, 255); stroke-opacity: 1; stroke-width: 1px;"/><path class="y3grid crisp" transform="translate(0,685.49)" d="M80,0h243" style="stroke: rgb(255, 255, 255); stroke-opacity: 1; stroke-width: 1px;"/><path class="y3grid crisp" transform="translate(0,677.0699999999999)" d="M80,0h243" style="stroke: rgb(255, 255, 255); stroke-opacity: 1; stroke-width: 1px;"/><path class="y3grid crisp" transform="translate(0,669.64)" d="M80,0h243" style="stroke: rgb(255, 255, 255); stroke-opacity: 1; stroke-width: 1px;"/><path class="y3grid crisp" transform="translate(0,663)" d="M80,0h243" style="stroke: rgb(255, 255, 255); stroke-opacity: 1; stroke-width: 1px;"/><path class="y3grid crisp" transform="translate(0,619.29)" d="M80,0h243" style="stroke: rgb(255, 255, 255); stroke-opacity: 1; stroke-width: 1px;"/><path class="y3grid crisp" transform="translate(0,593.71)" d="M80,0h243" style="stroke: rgb(255, 255, 255); stroke-opacity: 1; stroke-width: 1px;"/><path class="y3grid crisp" transform="translate(0,575.5699999999999)" d="M80,0h243" style="stroke: rgb(255, 255, 255); stroke-opacity: 1; stroke-width: 1px;"/><path class="y3grid crisp" transform="translate(0,561.5)" d="M80,0h243" style="stroke: rgb(255, 255, 255); stroke-opacity: 1; stroke-width: 1px;"/><path class="y3grid crisp" transform="translate(0,550)" d="M80,0h243" style="stroke: rgb(255, 255, 255); stroke-opacity: 1; stroke-width: 1px;"/><path class="y3grid crisp" transform="translate(0,540.28)" d="M80,0h243" style="stroke: rgb(255, 255, 255); stroke-opacity: 1; stroke-width: 1px;"/><path class="y3grid crisp" transform="translate(0,531.86)" d="M80,0h243" style="stroke: rgb(255, 255, 255); stroke-opacity: 1; stroke-width: 1px;"/><path class="y3grid crisp" transform="translate(0,524.43)" d="M80,0h243" style="stroke: rgb(255, 255, 255); stroke-opacity: 1; stroke-width: 1px;"/><path class="y3grid crisp" transform="translate(0,517.78)" d="M80,0h243" style="stroke: rgb(255, 255, 255); stroke-opacity: 1; stroke-width: 1px;"/></g></g><g class="zerolinelayer"/><path class="xlines-below"/><path class="ylines-below"/><g class="overlines-below"/><g class="xaxislayer-below"/><g class="yaxislayer-below"/><g class="overaxes-below"/><g class="plot" transform="translate(80, 487.5)" clip-path="url('#clip39fe91x3y3plot')"><g class="scatterlayer mlayer"><g class="trace scatter tracea5a246" style="stroke-miterlimit: 2; opacity: 1;"><g class="fills"/><g class="errorbars"/><g class="lines"><path class="js-line" d="M0,61.76L1.06,62.5L2.12,50.81L3.18,25.61L4.24,25.61L5.31,11.63L6.37,17.52L7.43,26.87L8.49,19.01L9.55,32.89L10.61,36.09L16.98,95.12L18.04,104.51L22.28,126.52L23.34,126.35L25.47,139.31L26.53,144.69L29.71,158.09L30.77,162.09L31.83,164.42L32.9,171L35.02,173.03L36.08,177.55L42.45,200.66L43.51,202.67L45.63,206.06L46.69,206.36L47.75,207.3L48.81,205.65L49.87,204.54L50.93,201.99L53.06,196.83L54.12,192.23L56.24,185.97L57.3,180.76L60.48,164.74L61.55,157.8L66.85,132.55L67.91,128.77L71.1,118.68L72.16,118.22L76.4,109.96L77.46,109.54L80.65,106.47L81.71,107.68L83.83,106.85L84.89,107.68L85.95,107.6L87.01,108.59L88.07,108.7L89.14,109.67L90.2,110.27L91.26,109.85L92.32,110.14L93.38,111.47L95.5,112.35L96.56,112.86L97.62,113.14L98.69,115.21L102.93,117.89L103.99,118.91L106.11,122.53L107.17,123.52L112.48,127.46L113.54,127.99L116.72,131.63L117.79,132.04L122.03,135.99L123.09,136.84L127.34,140.79L128.4,143.27L136.89,151.76L137.95,153.16L140.07,155.55L141.13,156.43L145.38,159.44L146.44,161.83L165.54,175.69L166.6,176.45L170.84,179.4L171.9,182L172.97,182.57L174.03,184.14L184.64,191.33L185.7,192.06L211.17,207.19L212.23,207.72L214.35,209.2L215.41,209.85L218.59,210.95L219.66,211.73L229.21,216.02L230.27,216.38L243,220.88" style="vector-effect: non-scaling-stroke; fill: none; stroke: rgb(22, 22, 23); stroke-opacity: 1; stroke-width: 2px; opacity: 1;"/></g><g class="points"/><g class="text"/></g></g></g><g class="overplot"/><path class="xlines-above crisp" d="M79,720.5H323" style="fill: none; stroke-width: 1px; stroke: rgb(255, 255, 255); stroke-opacity: 1;"/><path class="ylines-above crisp" d="M79.5,487.5V720" style="fill: none; stroke-width: 1px; stroke: rgb(255, 255, 255); stroke-opacity: 1;"/><g class="overlines-above"/><g class="xaxislayer-above"><g class="x3tick"><text text-anchor="middle" x="0" y="735.4" transform="translate(121.38,0)" style="font-family: 'Open Sans', verdana, arial, sans-serif; font-size: 12px; fill: rgb(42, 63, 95); fill-opacity: 1; white-space: pre;">Mar 2020</text></g><g class="x3tick"><text text-anchor="middle" x="0" y="735.4" transform="translate(186.11,0)" style="font-family: 'Open Sans', verdana, arial, sans-serif; font-size: 12px; fill: rgb(42, 63, 95); fill-opacity: 1; white-space: pre;">May 2020</text></g><g class="x3tick"><text text-anchor="middle" x="0" y="735.4" transform="translate(250.84,0)" style="font-family: 'Open Sans', verdana, arial, sans-serif; font-size: 12px; fill: rgb(42, 63, 95); fill-opacity: 1; white-space: pre;">Jul 2020</text></g><g class="x3tick"><text text-anchor="middle" x="0" y="735.4" transform="translate(316.63,0)" style="font-family: 'Open Sans', verdana, arial, sans-serif; font-size: 12px; fill: rgb(42, 63, 95); fill-opacity: 1; white-space: pre;">Sep 2020</text></g></g><g class="yaxislayer-above"><g class="y3tick"><text text-anchor="end" x="76.6" y="3.15" transform="translate(0,706.71)" style="font-family: 'Open Sans', verdana, arial, sans-serif; font-size: 9px; fill: rgb(42, 63, 95); fill-opacity: 1; white-space: pre;">5</text></g><g class="y3tick"><text text-anchor="end" x="76.6" y="3.15" transform="translate(0,695.22)" style="font-family: 'Open Sans', verdana, arial, sans-serif; font-size: 9px; fill: rgb(42, 63, 95); fill-opacity: 1; white-space: pre;">6</text></g><g class="y3tick"><text text-anchor="end" x="76.6" y="3.15" transform="translate(0,685.49)" style="font-family: 'Open Sans', verdana, arial, sans-serif; font-size: 9px; fill: rgb(42, 63, 95); fill-opacity: 1; white-space: pre;">7</text></g><g class="y3tick"><text text-anchor="end" x="76.6" y="3.15" transform="translate(0,677.0699999999999)" style="font-family: 'Open Sans', verdana, arial, sans-serif; font-size: 9px; fill: rgb(42, 63, 95); fill-opacity: 1; white-space: pre;">8</text></g><g class="y3tick"><text text-anchor="end" x="76.6" y="3.15" transform="translate(0,669.64)" style="font-family: 'Open Sans', verdana, arial, sans-serif; font-size: 9px; fill: rgb(42, 63, 95); fill-opacity: 1; white-space: pre;">9</text></g><g class="y3tick"><text text-anchor="end" x="73.6" y="2.1999999999999993" transform="translate(0,663)" style="font-family: 'Open Sans', verdana, arial, sans-serif; font-size: 12px; fill: rgb(42, 63, 95); fill-opacity: 1; white-space: pre;">10</text></g><g class="y3tick"><text text-anchor="end" x="76.6" y="3.15" transform="translate(0,619.29)" style="font-family: 'Open Sans', verdana, arial, sans-serif; font-size: 9px; fill: rgb(42, 63, 95); fill-opacity: 1; white-space: pre;">2</text></g><g class="y3tick"><text text-anchor="end" x="76.6" y="3.15" transform="translate(0,593.71)" style="font-family: 'Open Sans', verdana, arial, sans-serif; font-size: 9px; fill: rgb(42, 63, 95); fill-opacity: 1; white-space: pre;">3</text></g><g class="y3tick"><text text-anchor="end" x="76.6" y="3.15" transform="translate(0,575.5699999999999)" style="font-family: 'Open Sans', verdana, arial, sans-serif; font-size: 9px; fill: rgb(42, 63, 95); fill-opacity: 1; white-space: pre;">4</text></g><g class="y3tick"><text text-anchor="end" x="76.6" y="3.15" transform="translate(0,561.5)" style="font-family: 'Open Sans', verdana, arial, sans-serif; font-size: 9px; fill: rgb(42, 63, 95); fill-opacity: 1; white-space: pre;">5</text></g><g class="y3tick"><text text-anchor="end" x="76.6" y="3.15" transform="translate(0,550)" style="font-family: 'Open Sans', verdana, arial, sans-serif; font-size: 9px; fill: rgb(42, 63, 95); fill-opacity: 1; white-space: pre;">6</text></g><g class="y3tick"><text text-anchor="end" x="76.6" y="3.15" transform="translate(0,540.28)" style="font-family: 'Open Sans', verdana, arial, sans-serif; font-size: 9px; fill: rgb(42, 63, 95); fill-opacity: 1; white-space: pre;">7</text></g><g class="y3tick"><text text-anchor="end" x="76.6" y="3.15" transform="translate(0,531.86)" style="font-family: 'Open Sans', verdana, arial, sans-serif; font-size: 9px; fill: rgb(42, 63, 95); fill-opacity: 1; white-space: pre;">8</text></g><g class="y3tick"><text text-anchor="end" x="76.6" y="3.15" transform="translate(0,524.43)" style="font-family: 'Open Sans', verdana, arial, sans-serif; font-size: 9px; fill: rgb(42, 63, 95); fill-opacity: 1; white-space: pre;">9</text></g><g class="y3tick"><text text-anchor="end" x="73.6" y="2.1999999999999993" transform="translate(0,517.78)" style="font-family: 'Open Sans', verdana, arial, sans-serif; font-size: 12px; fill: rgb(42, 63, 95); fill-opacity: 1; white-space: pre;">100</text></g></g><g class="overaxes-above"/></g><g class="subplot x4y4"><g class="layer-subplot"><g class="shapelayer"/><g class="imagelayer"/></g><g class="gridlayer"><g class="x4"><path class="x4grid crisp" transform="translate(418.38,0)" d="M0,487.5v232.5" style="stroke: rgb(255, 255, 255); stroke-opacity: 1; stroke-width: 1px;"/><path class="x4grid crisp" transform="translate(483.11,0)" d="M0,487.5v232.5" style="stroke: rgb(255, 255, 255); stroke-opacity: 1; stroke-width: 1px;"/><path class="x4grid crisp" transform="translate(547.84,0)" d="M0,487.5v232.5" style="stroke: rgb(255, 255, 255); stroke-opacity: 1; stroke-width: 1px;"/><path class="x4grid crisp" transform="translate(613.63,0)" d="M0,487.5v232.5" style="stroke: rgb(255, 255, 255); stroke-opacity: 1; stroke-width: 1px;"/></g><g class="y4"><path class="y4grid crisp" transform="translate(0,683.44)" d="M377,0h242.99999999999997" style="stroke: rgb(255, 255, 255); stroke-opacity: 1; stroke-width: 1px;"/><path class="y4grid crisp" transform="translate(0,655.39)" d="M377,0h242.99999999999997" style="stroke: rgb(255, 255, 255); stroke-opacity: 1; stroke-width: 1px;"/><path class="y4grid crisp" transform="translate(0,627.35)" d="M377,0h242.99999999999997" style="stroke: rgb(255, 255, 255); stroke-opacity: 1; stroke-width: 1px;"/><path class="y4grid crisp" transform="translate(0,590.27)" d="M377,0h242.99999999999997" style="stroke: rgb(255, 255, 255); stroke-opacity: 1; stroke-width: 1px;"/><path class="y4grid crisp" transform="translate(0,562.22)" d="M377,0h242.99999999999997" style="stroke: rgb(255, 255, 255); stroke-opacity: 1; stroke-width: 1px;"/><path class="y4grid crisp" transform="translate(0,534.18)" d="M377,0h242.99999999999997" style="stroke: rgb(255, 255, 255); stroke-opacity: 1; stroke-width: 1px;"/><path class="y4grid crisp" transform="translate(0,497.1)" d="M377,0h242.99999999999997" style="stroke: rgb(255, 255, 255); stroke-opacity: 1; stroke-width: 1px;"/></g></g><g class="zerolinelayer"/><path class="xlines-below"/><path class="ylines-below"/><g class="overlines-below"/><g class="xaxislayer-below"/><g class="yaxislayer-below"/><g class="overaxes-below"/><g class="plot" transform="translate(377, 487.5)" clip-path="url('#clip39fe91x4y4plot')"><g class="scatterlayer mlayer"><g class="trace scatter trace50e8f3" style="stroke-miterlimit: 2; opacity: 1;"><g class="fills"/><g class="errorbars"/><g class="lines"><path class="js-line" d="M0,4882.5L1.057905086380113,4882.5L1.06,57.89L2.12,29.65L3.18,24.7L4.24,27.29L5.31,33.59L6.37,11.63L7.43,76.63L8.49,37.44L9.55,53.28L10.61,51.96L11.67,32.63L12.73,56.73L13.79,53.76L14.86,62.43L15.92,73.72L16.98,72.94L18.04,87.07L19.1,86.1L21.22,106.5L22.28,171.27L23.34,37.47L24.41,75.71L25.47,122.11L26.53,122.51L28.65,130.82L29.71,184.71L30.77,185.95L31.83,182.91L32.9,140.67L33.96,220.88L36.08,172.61L37.14,173.53L38.2,165.54L39.26,167.89L40.32,157.28L41.38,137.49L42.45,148.88L43.51,140.25L44.57,137.87L45.63,130.98L46.69,115.51L47.75,115.95L49.87,116.52L50.93,107.31L52,93.55L53.06,106.68L54.12,73.72L55.18,87.51L56.24,89.56L57.3,82.21L58.36,82.85L59.42,78.41L60.48,69.78L61.55,69.74L63.67,73.96L64.73,69.39L65.79,75.29L66.85,71.39L67.91,68.16L68.97,71.27L70.03,73.88L71.1,82.51L72.16,82.66L73.22,79.67L74.28,83.25L75.34,83.91L76.4,86.2L77.46,90.39L78.52,97.47L79.59,99.14L80.65,98.99L81.71,98.04L83.83,100.72L84.89,107.76L85.95,100.57L87.01,115.51L88.07,116.86L89.14,112.41L90.2,107.12L91.26,112.72L92.32,120.96L93.38,118.86L94.44,123.71L95.5,123.98L96.56,123.17L97.62,119.83L98.69,117.55L99.75,124.26L101.87,134.55L102.93,131.97L106.11,129.23L107.17,132.81L109.3,137.49L110.36,136.18L111.42,132.47L112.48,133.15L113.54,133.15L114.6,137.3L115.66,142.78L116.72,143.44L117.79,140.46L118.85,140.67L119.91,136.18L120.97,137.49L122.03,138.65L123.09,147.39L125.21,140.25L126.28,138.65L127.34,138.26L128.4,138.85L129.46,140.25L130.52,145.02L131.58,149.13L132.64,147.39L134.76,138.85L135.83,139.05L136.89,134.72L137.95,145.48L139.01,150.95L140.07,141.92L141.13,143.89L142.19,141.71L144.31,140.46L145.38,149.13L146.44,153.14L147.5,145.95L148.56,143.66L149.62,143.44L150.68,146.66L151.74,145.48L152.8,146.9L153.86,151.76L154.93,145.72L155.99,146.19L157.05,147.39L158.11,138.07L160.23,153.14L161.29,150.95L162.35,144.34L163.41,143.66L164.48,142.78L165.54,140.67L168.72,150.95L169.78,147.14L170.84,139.05L171.9,141.71L174.03,145.95L175.09,148.88L176.15,153.42L177.21,144.56L178.27,145.02L179.33,142.78L180.39,142.78L181.45,146.42L182.52,151.76L183.58,152.31L184.64,147.14L185.7,146.19L186.76,143.44L187.82,145.95L188.88,147.14L189.94,152.03L191,154.28L192.07,149.64L193.13,143.22L194.19,143.44L195.25,144.56L196.31,149.13L197.37,156.97L198.43,155.16L200.55,146.42L201.62,148.37L202.68,147.63L203.74,153.99L205.86,163.67L206.92,154.28L209.04,151.76L210.1,152.86L212.23,162.95L213.29,162.95L215.41,156.05L216.47,155.16L217.53,153.14L218.59,161.89L219.66,168.71L220.72,169.55L221.78,161.89L222.84,159.85L223.9,161.2L224.96,161.2L226.02,164.04L227.08,170.83L229.21,167.49L230.27,160.86L231.33,162.59L232.39,162.59L233.45,165.92L234.51,172.16L235.57,166.7L236.63,166.7L237.69,164.78L238.76,166.31L239.82,162.24L240.88,168.71L241.94,174.47L243,173.53" style="vector-effect: non-scaling-stroke; fill: none; stroke: rgb(254, 152, 1); stroke-opacity: 1; stroke-width: 2px; opacity: 1;"/></g><g class="points"/><g class="text"/></g></g></g><g class="overplot"/><path class="xlines-above crisp" d="M376,720.5H620" style="fill: none; stroke-width: 1px; stroke: rgb(255, 255, 255); stroke-opacity: 1;"/><path class="ylines-above crisp" d="M376.5,487.5V720" style="fill: none; stroke-width: 1px; stroke: rgb(255, 255, 255); stroke-opacity: 1;"/><g class="overlines-above"/><g class="xaxislayer-above"><g class="x4tick"><text text-anchor="middle" x="0" y="735.4" transform="translate(418.38,0)" style="font-family: 'Open Sans', verdana, arial, sans-serif; font-size: 12px; fill: rgb(42, 63, 95); fill-opacity: 1; white-space: pre;">Mar 2020</text></g><g class="x4tick"><text text-anchor="middle" x="0" y="735.4" transform="translate(483.11,0)" style="font-family: 'Open Sans', verdana, arial, sans-serif; font-size: 12px; fill: rgb(42, 63, 95); fill-opacity: 1; white-space: pre;">May 2020</text></g><g class="x4tick"><text text-anchor="middle" x="0" y="735.4" transform="translate(547.84,0)" style="font-family: 'Open Sans', verdana, arial, sans-serif; font-size: 12px; fill: rgb(42, 63, 95); fill-opacity: 1; white-space: pre;">Jul 2020</text></g><g class="x4tick"><text text-anchor="middle" x="0" y="735.4" transform="translate(613.63,0)" style="font-family: 'Open Sans', verdana, arial, sans-serif; font-size: 12px; fill: rgb(42, 63, 95); fill-opacity: 1; white-space: pre;">Sep 2020</text></g></g><g class="yaxislayer-above"><g class="y4tick"><text text-anchor="end" x="373.6" y="3.15" transform="translate(0,683.44)" style="font-family: 'Open Sans', verdana, arial, sans-serif; font-size: 9px; fill: rgb(42, 63, 95); fill-opacity: 1; white-space: pre;">5</text></g><g class="y4tick"><text text-anchor="end" x="373.6" y="4.199999999999999" transform="translate(0,655.39)" style="font-family: 'Open Sans', verdana, arial, sans-serif; font-size: 12px; fill: rgb(42, 63, 95); fill-opacity: 1; white-space: pre;">1</text></g><g class="y4tick"><text text-anchor="end" x="373.6" y="3.15" transform="translate(0,627.35)" style="font-family: 'Open Sans', verdana, arial, sans-serif; font-size: 9px; fill: rgb(42, 63, 95); fill-opacity: 1; white-space: pre;">2</text></g><g class="y4tick"><text text-anchor="end" x="373.6" y="3.15" transform="translate(0,590.27)" style="font-family: 'Open Sans', verdana, arial, sans-serif; font-size: 9px; fill: rgb(42, 63, 95); fill-opacity: 1; white-space: pre;">5</text></g><g class="y4tick"><text text-anchor="end" x="373.6" y="4.199999999999999" transform="translate(0,562.22)" style="font-family: 'Open Sans', verdana, arial, sans-serif; font-size: 12px; fill: rgb(42, 63, 95); fill-opacity: 1; white-space: pre;">10</text></g><g class="y4tick"><text text-anchor="end" x="373.6" y="3.15" transform="translate(0,534.18)" style="font-family: 'Open Sans', verdana, arial, sans-serif; font-size: 9px; fill: rgb(42, 63, 95); fill-opacity: 1; white-space: pre;">2</text></g><g class="y4tick"><text text-anchor="end" x="373.6" y="3.15" transform="translate(0,497.1)" style="font-family: 'Open Sans', verdana, arial, sans-serif; font-size: 9px; fill: rgb(42, 63, 95); fill-opacity: 1; white-space: pre;">5</text></g></g><g class="overaxes-above"/></g></g><g class="polarlayer"/><g class="ternarylayer"/><g class="geolayer"/><g class="funnelarealayer"/><g class="pielayer"/><g class="treemaplayer"/><g class="sunburstlayer"/><g class="glimages"/><defs id="topdefs-39fe91"><g class="clips"/></defs><g class="layer-above"><g class="imagelayer"/><g class="shapelayer"/></g><g class="infolayer"><g class="g-gtitle"><text class="gtitle" x="35" y="50" text-anchor="start" dy="0em" style="font-family: 'Open Sans', verdana, arial, sans-serif; font-size: 17px; fill: rgb(42, 63, 95); opacity: 1; font-weight: normal; white-space: pre;">% Day Wise Logarithmic</text></g><g class="g-xtitle"/><g class="g-x2title"/><g class="g-x3title"/><g class="g-x4title"/><g class="g-ytitle"/><g class="g-y2title"/><g class="g-y3title"/><g class="g-y4title"/><g class="annotation" data-index="0" style="opacity: 1;"><g class="annotation-text-g" transform="rotate(0,201.5,88.5)"><g class="cursor-pointer" transform="translate(122, 77)"><rect class="bg" x="0.5" y="0.5" width="159" height="22" style="stroke-width: 1px; stroke: rgb(0, 0, 0); stroke-opacity: 0; fill: rgb(0, 0, 0); fill-opacity: 0;"/><text class="annotation-text" text-anchor="middle" x="80" y="18" style="font-family: 'Open Sans', verdana, arial, sans-serif; font-size: 16px; fill: rgb(42, 63, 95); fill-opacity: 1; white-space: pre;">% Recovered cases</text></g></g></g><g class="annotation" data-index="1" style="opacity: 1;"><g class="annotation-text-g" transform="rotate(0,498.5,88.5)"><g class="cursor-pointer" transform="translate(457, 77)"><rect class="bg" x="0.5" y="0.5" width="82" height="22" style="stroke-width: 1px; stroke: rgb(0, 0, 0); stroke-opacity: 0; fill: rgb(0, 0, 0); fill-opacity: 0;"/><text class="annotation-text" text-anchor="middle" x="41.546875" y="18" style="font-family: 'Open Sans', verdana, arial, sans-serif; font-size: 16px; fill: rgb(42, 63, 95); fill-opacity: 1; white-space: pre;">% Deaths</text></g></g></g><g class="annotation" data-index="2" style="opacity: 1;"><g class="annotation-text-g" transform="rotate(0,201.5,476)"><g class="cursor-pointer" transform="translate(100, 465)"><rect class="bg" x="0.5" y="0.5" width="202" height="22" style="stroke-width: 1px; stroke: rgb(0, 0, 0); stroke-opacity: 0; fill: rgb(0, 0, 0); fill-opacity: 0;"/><text class="annotation-text" text-anchor="middle" x="101.671875" y="18" style="font-family: 'Open Sans', verdana, arial, sans-serif; font-size: 16px; fill: rgb(42, 63, 95); fill-opacity: 1; white-space: pre;">% Deaths Per Recovered</text></g></g></g><g class="annotation" data-index="3" style="opacity: 1;"><g class="annotation-text-g" transform="rotate(0,498.5,476)"><g class="cursor-pointer" transform="translate(442, 465)"><rect class="bg" x="0.5" y="0.5" width="113" height="22" style="stroke-width: 1px; stroke: rgb(0, 0, 0); stroke-opacity: 0; fill: rgb(0, 0, 0); fill-opacity: 0;"/><text class="annotation-text" text-anchor="middle" x="57.03125" y="18" style="font-family: 'Open Sans', verdana, arial, sans-serif; font-size: 16px; fill: rgb(42, 63, 95); fill-opacity: 1; white-space: pre;">% New Cases</text></g></g></g></g></svg>