<svg class="main-svg" xmlns="http://www.w3.org/2000/svg" xmlns:xlink="http://www.w3.org/1999/xlink" width="700" height="800" style="" viewBox="0 0 700 800"><rect x="0" y="0" width="700" height="800" style="fill: rgb(255, 255, 255); fill-opacity: 1;"/><defs id="defs-293a94"><g class="clips"><clipPath id="clip293a94xyplot" class="plotclip"><rect width="243" height="232.5"/></clipPath><clipPath id="clip293a94x2y2plot" class="plotclip"><rect width="242.99999999999997" height="232.5"/></clipPath><clipPath id="clip293a94x3y3plot" class="plotclip"><rect width="243" height="232.5"/></clipPath><clipPath id="clip293a94x4y4plot" class="plotclip"><rect width="242.99999999999997" height="232.5"/></clipPath><clipPath class="axesclip" id="clip293a94x"><rect x="80" y="0" width="243" height="800"/></clipPath><clipPath class="axesclip" id="clip293a94y"><rect x="0" y="100" width="700" height="232.5"/></clipPath><clipPath class="axesclip" id="clip293a94xy"><rect x="80" y="100" width="243" height="232.5"/></clipPath><clipPath class="axesclip" id="clip293a94y2"><rect x="0" y="100" width="700" height="232.5"/></clipPath><clipPath class="axesclip" id="clip293a94xy2"><rect x="80" y="100" width="243" height="232.5"/></clipPath><clipPath class="axesclip" id="clip293a94y3"><rect x="0" y="487.5" width="700" height="232.5"/></clipPath><clipPath class="axesclip" id="clip293a94xy3"><rect x="80" y="487.5" width="243" height="232.5"/></clipPath><clipPath class="axesclip" id="clip293a94y4"><rect x="0" y="487.5" width="700" height="232.5"/></clipPath><clipPath class="axesclip" id="clip293a94xy4"><rect x="80" y="487.5" width="243" height="232.5"/></clipPath><clipPath class="axesclip" id="clip293a94x2"><rect x="377" y="0" width="242.99999999999997" height="800"/></clipPath><clipPath class="axesclip" id="clip293a94x2y"><rect x="377" y="100" width="242.99999999999997" height="232.5"/></clipPath><clipPath class="axesclip" id="clip293a94x2y2"><rect x="377" y="100" width="242.99999999999997" height="232.5"/></clipPath><clipPath class="axesclip" id="clip293a94x2y3"><rect x="377" y="487.5" width="242.99999999999997" height="232.5"/></clipPath><clipPath class="axesclip" id="clip293a94x2y4"><rect x="377" y="487.5" width="242.99999999999997" height="232.5"/></clipPath><clipPath class="axesclip" id="clip293a94x3"><rect x="80" y="0" width="243" height="800"/></clipPath><clipPath class="axesclip" id="clip293a94x3y"><rect x="80" y="100" width="243" height="232.5"/></clipPath><clipPath class="axesclip" id="clip293a94x3y2"><rect x="80" y="100" width="243" height="232.5"/></clipPath><clipPath class="axesclip" id="clip293a94x3y3"><rect x="80" y="487.5" width="243" height="232.5"/></clipPath><clipPath class="axesclip" id="clip293a94x3y4"><rect x="80" y="487.5" width="243" height="232.5"/></clipPath><clipPath class="axesclip" id="clip293a94x4"><rect x="377" y="0" width="242.99999999999997" height="800"/></clipPath><clipPath class="axesclip" id="clip293a94x4y"><rect x="377" y="100" width="242.99999999999997" height="232.5"/></clipPath><clipPath class="axesclip" id="clip293a94x4y2"><rect x="377" y="100" width="242.99999999999997" height="232.5"/></clipPath><clipPath class="axesclip" id="clip293a94x4y3"><rect x="377" y="487.5" width="242.99999999999997" height="232.5"/></clipPath><clipPath class="axesclip" id="clip293a94x4y4"><rect x="377" y="487.5" width="242.99999999999997" height="232.5"/></clipPath></g><g class="gradients"/></defs><g class="bglayer"><rect class="bg" x="80" y="100" width="243" height="232.5" style="fill: rgb(229, 236, 246); fill-opacity: 1; stroke-width: 0;"/><rect class="bg" x="377" y="100" width="242.99999999999997" height="232.5" style="fill: rgb(229, 236, 246); fill-opacity: 1; stroke-width: 0;"/><rect class="bg" x="80" y="487.5" width="243" height="232.5" style="fill: rgb(229, 236, 246); fill-opacity: 1; stroke-width: 0;"/><rect class="bg" x="377" y="487.5" width="242.99999999999997" height="232.5" style="fill: rgb(229, 236, 246); fill-opacity: 1; stroke-width: 0;"/></g><g class="layer-below"><g class="imagelayer"/><g class="shapelayer"/></g><g class="cartesianlayer"><g class="subplot xy"><g class="layer-subplot"><g class="shapelayer"/><g class="imagelayer"/></g><g class="gridlayer"><g class="x"><path class="xgrid crisp" transform="translate(133.24,0)" d="M0,100v232.5" style="stroke: rgb(255, 255, 255); stroke-opacity: 1; stroke-width: 1px;"/><path class="xgrid crisp" transform="translate(216.52,0)" d="M0,100v232.5" style="stroke: rgb(255, 255, 255); stroke-opacity: 1; stroke-width: 1px;"/><path class="xgrid crisp" transform="translate(299.78999999999996,0)" d="M0,100v232.5" style="stroke: rgb(255, 255, 255); stroke-opacity: 1; stroke-width: 1px;"/></g><g class="y"><path class="ygrid crisp" transform="translate(0,312.61)" d="M80,0h243" style="stroke: rgb(255, 255, 255); stroke-opacity: 1; stroke-width: 1px;"/><path class="ygrid crisp" transform="translate(0,288.53)" d="M80,0h243" style="stroke: rgb(255, 255, 255); stroke-opacity: 1; stroke-width: 1px;"/><path class="ygrid crisp" transform="translate(0,271.45)" d="M80,0h243" style="stroke: rgb(255, 255, 255); stroke-opacity: 1; stroke-width: 1px;"/><path class="ygrid crisp" transform="translate(0,258.19)" d="M80,0h243" style="stroke: rgb(255, 255, 255); stroke-opacity: 1; stroke-width: 1px;"/><path class="ygrid crisp" transform="translate(0,247.37)" d="M80,0h243" style="stroke: rgb(255, 255, 255); stroke-opacity: 1; stroke-width: 1px;"/><path class="ygrid crisp" transform="translate(0,238.21)" d="M80,0h243" style="stroke: rgb(255, 255, 255); stroke-opacity: 1; stroke-width: 1px;"/><path class="ygrid crisp" transform="translate(0,230.29)" d="M80,0h243" style="stroke: rgb(255, 255, 255); stroke-opacity: 1; stroke-width: 1px;"/><path class="ygrid crisp" transform="translate(0,223.29000000000002)" d="M80,0h243" style="stroke: rgb(255, 255, 255); stroke-opacity: 1; stroke-width: 1px;"/><path class="ygrid crisp" transform="translate(0,217.03)" d="M80,0h243" style="stroke: rgb(255, 255, 255); stroke-opacity: 1; stroke-width: 1px;"/><path class="ygrid crisp" transform="translate(0,175.87)" d="M80,0h243" style="stroke: rgb(255, 255, 255); stroke-opacity: 1; stroke-width: 1px;"/><path class="ygrid crisp" transform="translate(0,151.8)" d="M80,0h243" style="stroke: rgb(255, 255, 255); stroke-opacity: 1; stroke-width: 1px;"/><path class="ygrid crisp" transform="translate(0,134.71)" d="M80,0h243" style="stroke: rgb(255, 255, 255); stroke-opacity: 1; stroke-width: 1px;"/><path class="ygrid crisp" transform="translate(0,121.46000000000001)" d="M80,0h243" style="stroke: rgb(255, 255, 255); stroke-opacity: 1; stroke-width: 1px;"/><path class="ygrid crisp" transform="translate(0,110.64)" d="M80,0h243" style="stroke: rgb(255, 255, 255); stroke-opacity: 1; stroke-width: 1px;"/><path class="ygrid crisp" transform="translate(0,101.48)" d="M80,0h243" style="stroke: rgb(255, 255, 255); stroke-opacity: 1; stroke-width: 1px;"/></g></g><g class="zerolinelayer"/><path class="xlines-below"/><path class="ylines-below"/><g class="overlines-below"/><g class="xaxislayer-below"/><g class="yaxislayer-below"/><g class="overaxes-below"/><g class="plot" transform="translate(80, 100)" clip-path="url('#clip293a94xyplot')"><g class="scatterlayer mlayer"><g class="trace scatter trace793976" style="stroke-miterlimit: 2; opacity: 1;"><g class="fills"/><g class="errorbars"/><g class="lines"><path class="js-line" d="M0,157.6L1.37,163.28L2.73,174.02L4.1,194.35L5.46,200.31L8.19,215.03L9.56,211.43L10.92,220.87L12.29,205.88L13.65,202.78L15.02,192.41L19.11,170.42L20.48,160.25L24.57,129.69L25.94,121.79L28.67,109.36L30.03,114.59L35.49,84.93L36.86,78.64L39.59,65.4L40.96,63.51L42.32,53.28L43.69,52.13L49.15,33.15L50.51,27.91L54.61,18.03L55.97,15.88L58.7,12.17L60.07,12.21L62.8,11.63L64.16,12.01L66.89,14.56L68.26,16.19L70.99,23.68L72.35,25.18L77.81,42.66L79.18,47.87L81.91,54.84L83.28,61.63L84.64,62.43L86.01,66.17L90.1,74.9L91.47,76.05L92.83,75.17L94.2,75.9L98.29,76.2L99.66,75.17L102.39,74.93L103.75,73.37L106.48,70.16L107.85,69.76L109.21,68.38L110.58,68.77L116.04,63.17L117.4,62.72L121.5,60.75L122.87,59.39L125.6,58.14L126.96,56.11L131.06,54.64L132.42,53.85L133.79,52.59L135.15,50.18L144.71,45.9L146.07,45.62L148.8,44.16L150.17,43.29L154.26,41.73L155.63,41.22L159.72,39.25L161.09,38.74L163.82,37.74L165.19,35.75L176.11,31.53L177.47,30.84L178.84,30.52L180.2,29.39L184.3,28.33L185.66,28.04L187.03,27.94L188.39,25.99L196.58,24.14L197.95,23.79L204.78,22.05L206.14,21.98L214.33,20.66L215.7,20.58L219.79,20.06L221.16,18.17L222.52,18.15L223.89,17.22L243,14.59" style="vector-effect: non-scaling-stroke; fill: none; stroke: rgb(40, 167, 69); stroke-opacity: 1; stroke-width: 2px; opacity: 1;"/></g><g class="points"/><g class="text"/></g></g></g><g class="overplot"/><path class="xlines-above crisp" d="M79,333H323" style="fill: none; stroke-width: 1px; stroke: rgb(255, 255, 255); stroke-opacity: 1;"/><path class="ylines-above crisp" d="M79.5,100V332.5" style="fill: none; stroke-width: 1px; stroke: rgb(255, 255, 255); stroke-opacity: 1;"/><g class="overlines-above"/><g class="xaxislayer-above"><g class="xtick"><text text-anchor="middle" x="0" y="347.9" transform="translate(133.24,0)" style="font-family: 'Open Sans', verdana, arial, sans-serif; font-size: 12px; fill: rgb(42, 63, 95); fill-opacity: 1; white-space: pre;">Mar 2020</text></g><g class="xtick"><text text-anchor="middle" x="0" y="347.9" transform="translate(216.52,0)" style="font-family: 'Open Sans', verdana, arial, sans-serif; font-size: 12px; fill: rgb(42, 63, 95); fill-opacity: 1; white-space: pre;">May 2020</text></g><g class="xtick"><text text-anchor="middle" x="0" y="347.9" transform="translate(299.78999999999996,0)" style="font-family: 'Open Sans', verdana, arial, sans-serif; font-size: 12px; fill: rgb(42, 63, 95); fill-opacity: 1; white-space: pre;">Jul 2020</text></g></g><g class="yaxislayer-above"><g class="ytick"><text text-anchor="end" x="76.6" y="3.15" transform="translate(0,312.61)" style="font-family: 'Open Sans', verdana, arial, sans-serif; font-size: 9px; fill: rgb(42, 63, 95); fill-opacity: 1; white-space: pre;">2</text></g><g class="ytick"><text text-anchor="end" x="76.6" y="3.15" transform="translate(0,288.53)" style="font-family: 'Open Sans', verdana, arial, sans-serif; font-size: 9px; fill: rgb(42, 63, 95); fill-opacity: 1; white-space: pre;">3</text></g><g class="ytick"><text text-anchor="end" x="76.6" y="3.15" transform="translate(0,271.45)" style="font-family: 'Open Sans', verdana, arial, sans-serif; font-size: 9px; fill: rgb(42, 63, 95); fill-opacity: 1; white-space: pre;">4</text></g><g class="ytick"><text text-anchor="end" x="76.6" y="3.15" transform="translate(0,258.19)" style="font-family: 'Open Sans', verdana, arial, sans-serif; font-size: 9px; fill: rgb(42, 63, 95); fill-opacity: 1; white-space: pre;">5</text></g><g class="ytick"><text text-anchor="end" x="76.6" y="3.15" transform="translate(0,247.37)" style="font-family: 'Open Sans', verdana, arial, sans-serif; font-size: 9px; fill: rgb(42, 63, 95); fill-opacity: 1; white-space: pre;">6</text></g><g class="ytick"><text text-anchor="end" x="76.6" y="3.15" transform="translate(0,238.21)" style="font-family: 'Open Sans', verdana, arial, sans-serif; font-size: 9px; fill: rgb(42, 63, 95); fill-opacity: 1; white-space: pre;">7</text></g><g class="ytick"><text text-anchor="end" x="76.6" y="3.15" transform="translate(0,230.29)" style="font-family: 'Open Sans', verdana, arial, sans-serif; font-size: 9px; fill: rgb(42, 63, 95); fill-opacity: 1; white-space: pre;">8</text></g><g class="ytick"><text text-anchor="end" x="76.6" y="3.15" transform="translate(0,223.29000000000002)" style="font-family: 'Open Sans', verdana, arial, sans-serif; font-size: 9px; fill: rgb(42, 63, 95); fill-opacity: 1; white-space: pre;">9</text></g><g class="ytick"><text text-anchor="end" x="73.6" y="2.1999999999999993" transform="translate(0,217.03)" style="font-family: 'Open Sans', verdana, arial, sans-serif; font-size: 12px; fill: rgb(42, 63, 95); fill-opacity: 1; white-space: pre;">10</text></g><g class="ytick"><text text-anchor="end" x="76.6" y="3.15" transform="translate(0,175.87)" style="font-family: 'Open Sans', verdana, arial, sans-serif; font-size: 9px; fill: rgb(42, 63, 95); fill-opacity: 1; white-space: pre;">2</text></g><g class="ytick"><text text-anchor="end" x="76.6" y="3.15" transform="translate(0,151.8)" style="font-family: 'Open Sans', verdana, arial, sans-serif; font-size: 9px; fill: rgb(42, 63, 95); fill-opacity: 1; white-space: pre;">3</text></g><g class="ytick"><text text-anchor="end" x="76.6" y="3.15" transform="translate(0,134.71)" style="font-family: 'Open Sans', verdana, arial, sans-serif; font-size: 9px; fill: rgb(42, 63, 95); fill-opacity: 1; white-space: pre;">4</text></g><g class="ytick"><text text-anchor="end" x="76.6" y="3.15" transform="translate(0,121.46000000000001)" style="font-family: 'Open Sans', verdana, arial, sans-serif; font-size: 9px; fill: rgb(42, 63, 95); fill-opacity: 1; white-space: pre;">5</text></g><g class="ytick"><text text-anchor="end" x="76.6" y="3.15" transform="translate(0,110.64)" style="font-family: 'Open Sans', verdana, arial, sans-serif; font-size: 9px; fill: rgb(42, 63, 95); fill-opacity: 1; white-space: pre;">6</text></g><g class="ytick"><text text-anchor="end" x="76.6" y="3.15" transform="translate(0,101.48)" style="font-family: 'Open Sans', verdana, arial, sans-serif; font-size: 9px; fill: rgb(42, 63, 95); fill-opacity: 1; white-space: pre;">7</text></g></g><g class="overaxes-above"/></g><g class="subplot x2y2"><g class="layer-subplot"><g class="shapelayer"/><g class="imagelayer"/></g><g class="gridlayer"><g class="x2"><path class="x2grid crisp" transform="translate(430.24,0)" d="M0,100v232.5" style="stroke: rgb(255, 255, 255); stroke-opacity: 1; stroke-width: 1px;"/><path class="x2grid crisp" transform="translate(513.52,0)" d="M0,100v232.5" style="stroke: rgb(255, 255, 255); stroke-opacity: 1; stroke-width: 1px;"/><path class="x2grid crisp" transform="translate(596.79,0)" d="M0,100v232.5" style="stroke: rgb(255, 255, 255); stroke-opacity: 1; stroke-width: 1px;"/></g><g class="y2"><path class="y2grid crisp" transform="translate(0,324.15999999999997)" d="M377,0h242.99999999999997" style="stroke: rgb(255, 255, 255); stroke-opacity: 1; stroke-width: 1px;"/><path class="y2grid crisp" transform="translate(0,256.88)" d="M377,0h242.99999999999997" style="stroke: rgb(255, 255, 255); stroke-opacity: 1; stroke-width: 1px;"/><path class="y2grid crisp" transform="translate(0,209.15)" d="M377,0h242.99999999999997" style="stroke: rgb(255, 255, 255); stroke-opacity: 1; stroke-width: 1px;"/><path class="y2grid crisp" transform="translate(0,172.13)" d="M377,0h242.99999999999997" style="stroke: rgb(255, 255, 255); stroke-opacity: 1; stroke-width: 1px;"/><path class="y2grid crisp" transform="translate(0,141.88)" d="M377,0h242.99999999999997" style="stroke: rgb(255, 255, 255); stroke-opacity: 1; stroke-width: 1px;"/><path class="y2grid crisp" transform="translate(0,116.3)" d="M377,0h242.99999999999997" style="stroke: rgb(255, 255, 255); stroke-opacity: 1; stroke-width: 1px;"/></g></g><g class="zerolinelayer"/><path class="xlines-below"/><path class="ylines-below"/><g class="overlines-below"/><g class="xaxislayer-below"/><g class="yaxislayer-below"/><g class="overaxes-below"/><g class="plot" transform="translate(377, 100)" clip-path="url('#clip293a94x2y2plot')"><g class="scatterlayer mlayer"><g class="trace scatter trace6f2d5b" style="stroke-miterlimit: 2; opacity: 1;"><g class="fills"/><g class="errorbars"/><g class="lines"><path class="js-line" d="M0,153.06L1.37,170.72L2.73,170.12L4.1,160.8L5.46,177.47L6.83,167.74L8.19,197.4L10.92,217.65L12.29,212.16L13.65,212.16L15.02,211.39L16.38,212.93L17.75,219.26L19.11,220.87L20.48,219.26L21.84,216.86L23.21,210.62L27.3,187.8L28.67,189.14L30.03,203.15L31.4,202.42L34.13,187.8L35.49,183.85L39.59,159.67L40.96,160.24L42.32,149.32L43.69,149.32L45.05,139.57L46.42,136.12L50.51,131.31L51.88,129.89L53.24,130.36L54.61,128.95L58.7,126.63L60.07,127.56L61.43,128.95L62.8,123.89L64.16,122.09L65.53,118.54L68.26,113.35L69.62,115.49L70.99,115.49L72.35,109.98L76.45,102.64L77.81,103.44L81.91,92.59L83.28,92.21L86.01,84.53L87.37,83.81L92.83,71.47L94.2,67.55L98.29,52.14L99.66,48.94L101.02,46.93L102.39,43.54L103.75,36.97L105.12,34.31L107.85,28.09L109.21,26.57L110.58,27.32L111.94,25.81L114.67,19.65L116.04,18.93L118.77,14.41L120.13,15.59L121.5,15.35L122.87,13.71L125.6,12.09L126.96,11.63L131.06,13.25L132.42,12.55L133.79,11.63L135.15,11.63L141.98,14.88L143.34,14.65L147.44,16.54L148.8,17.73L151.53,18.93L152.9,19.17L158.36,22.83L159.72,24.06L167.92,30.65L169.28,32.73L174.74,36.44L176.11,38.32L180.2,42.15L181.57,42.71L195.22,54.51L196.58,56.01L214.33,71.47L215.7,73.13L221.16,78.9L222.52,80.64L240.27,98.31L241.63,99.09L243,100.27" style="vector-effect: non-scaling-stroke; fill: none; stroke: rgb(255, 7, 58); stroke-opacity: 1; stroke-width: 2px; opacity: 1;"/></g><g class="points"/><g class="text"/></g></g></g><g class="overplot"/><path class="xlines-above crisp" d="M376,333H620" style="fill: none; stroke-width: 1px; stroke: rgb(255, 255, 255); stroke-opacity: 1;"/><path class="ylines-above crisp" d="M376.5,100V332.5" style="fill: none; stroke-width: 1px; stroke: rgb(255, 255, 255); stroke-opacity: 1;"/><g class="overlines-above"/><g class="xaxislayer-above"><g class="x2tick"><text text-anchor="middle" x="0" y="347.9" transform="translate(430.24,0)" style="font-family: 'Open Sans', verdana, arial, sans-serif; font-size: 12px; fill: rgb(42, 63, 95); fill-opacity: 1; white-space: pre;">Mar 2020</text></g><g class="x2tick"><text text-anchor="middle" x="0" y="347.9" transform="translate(513.52,0)" style="font-family: 'Open Sans', verdana, arial, sans-serif; font-size: 12px; fill: rgb(42, 63, 95); fill-opacity: 1; white-space: pre;">May 2020</text></g><g class="x2tick"><text text-anchor="middle" x="0" y="347.9" transform="translate(596.79,0)" style="font-family: 'Open Sans', verdana, arial, sans-serif; font-size: 12px; fill: rgb(42, 63, 95); fill-opacity: 1; white-space: pre;">Jul 2020</text></g></g><g class="yaxislayer-above"><g class="y2tick"><text text-anchor="end" x="373.6" y="4.199999999999999" transform="translate(0,324.15999999999997)" style="font-family: 'Open Sans', verdana, arial, sans-serif; font-size: 12px; fill: rgb(42, 63, 95); fill-opacity: 1; white-space: pre;">2</text></g><g class="y2tick"><text text-anchor="end" x="373.6" y="4.199999999999999" transform="translate(0,256.88)" style="font-family: 'Open Sans', verdana, arial, sans-serif; font-size: 12px; fill: rgb(42, 63, 95); fill-opacity: 1; white-space: pre;">3</text></g><g class="y2tick"><text text-anchor="end" x="373.6" y="4.199999999999999" transform="translate(0,209.15)" style="font-family: 'Open Sans', verdana, arial, sans-serif; font-size: 12px; fill: rgb(42, 63, 95); fill-opacity: 1; white-space: pre;">4</text></g><g class="y2tick"><text text-anchor="end" x="373.6" y="4.199999999999999" transform="translate(0,172.13)" style="font-family: 'Open Sans', verdana, arial, sans-serif; font-size: 12px; fill: rgb(42, 63, 95); fill-opacity: 1; white-space: pre;">5</text></g><g class="y2tick"><text text-anchor="end" x="373.6" y="4.199999999999999" transform="translate(0,141.88)" style="font-family: 'Open Sans', verdana, arial, sans-serif; font-size: 12px; fill: rgb(42, 63, 95); fill-opacity: 1; white-space: pre;">6</text></g><g class="y2tick"><text text-anchor="end" x="373.6" y="4.199999999999999" transform="translate(0,116.3)" style="font-family: 'Open Sans', verdana, arial, sans-serif; font-size: 12px; fill: rgb(42, 63, 95); fill-opacity: 1; white-space: pre;">7</text></g></g><g class="overaxes-above"/></g><g class="subplot x3y3"><g class="layer-subplot"><g class="shapelayer"/><g class="imagelayer"/></g><g class="gridlayer"><g class="x3"><path class="x3grid crisp" transform="translate(133.24,0)" d="M0,487.5v232.5" style="stroke: rgb(255, 255, 255); stroke-opacity: 1; stroke-width: 1px;"/><path class="x3grid crisp" transform="translate(216.52,0)" d="M0,487.5v232.5" style="stroke: rgb(255, 255, 255); stroke-opacity: 1; stroke-width: 1px;"/><path class="x3grid crisp" transform="translate(299.78999999999996,0)" d="M0,487.5v232.5" style="stroke: rgb(255, 255, 255); stroke-opacity: 1; stroke-width: 1px;"/></g><g class="y3"><path class="y3grid crisp" transform="translate(0,708.8199999999999)" d="M80,0h243" style="stroke: rgb(255, 255, 255); stroke-opacity: 1; stroke-width: 1px;"/><path class="y3grid crisp" transform="translate(0,698.4300000000001)" d="M80,0h243" style="stroke: rgb(255, 255, 255); stroke-opacity: 1; stroke-width: 1px;"/><path class="y3grid crisp" transform="translate(0,689.42)" d="M80,0h243" style="stroke: rgb(255, 255, 255); stroke-opacity: 1; stroke-width: 1px;"/><path class="y3grid crisp" transform="translate(0,681.48)" d="M80,0h243" style="stroke: rgb(255, 255, 255); stroke-opacity: 1; stroke-width: 1px;"/><path class="y3grid crisp" transform="translate(0,674.37)" d="M80,0h243" style="stroke: rgb(255, 255, 255); stroke-opacity: 1; stroke-width: 1px;"/><path class="y3grid crisp" transform="translate(0,627.62)" d="M80,0h243" style="stroke: rgb(255, 255, 255); stroke-opacity: 1; stroke-width: 1px;"/><path class="y3grid crisp" transform="translate(0,600.28)" d="M80,0h243" style="stroke: rgb(255, 255, 255); stroke-opacity: 1; stroke-width: 1px;"/><path class="y3grid crisp" transform="translate(0,580.88)" d="M80,0h243" style="stroke: rgb(255, 255, 255); stroke-opacity: 1; stroke-width: 1px;"/><path class="y3grid crisp" transform="translate(0,565.83)" d="M80,0h243" style="stroke: rgb(255, 255, 255); stroke-opacity: 1; stroke-width: 1px;"/><path class="y3grid crisp" transform="translate(0,553.53)" d="M80,0h243" style="stroke: rgb(255, 255, 255); stroke-opacity: 1; stroke-width: 1px;"/><path class="y3grid crisp" transform="translate(0,543.13)" d="M80,0h243" style="stroke: rgb(255, 255, 255); stroke-opacity: 1; stroke-width: 1px;"/><path class="y3grid crisp" transform="translate(0,534.13)" d="M80,0h243" style="stroke: rgb(255, 255, 255); stroke-opacity: 1; stroke-width: 1px;"/><path class="y3grid crisp" transform="translate(0,526.19)" d="M80,0h243" style="stroke: rgb(255, 255, 255); stroke-opacity: 1; stroke-width: 1px;"/><path class="y3grid crisp" transform="translate(0,519.08)" d="M80,0h243" style="stroke: rgb(255, 255, 255); stroke-opacity: 1; stroke-width: 1px;"/></g></g><g class="zerolinelayer"/><path class="xlines-below"/><path class="ylines-below"/><g class="overlines-below"/><g class="xaxislayer-below"/><g class="yaxislayer-below"/><g class="overaxes-below"/><g class="plot" transform="translate(80, 487.5)" clip-path="url('#clip293a94x3y3plot')"><g class="scatterlayer mlayer"><g class="trace scatter trace7d44de" style="stroke-miterlimit: 2; opacity: 1;"><g class="fills"/><g class="errorbars"/><g class="lines"><path class="js-line" d="M0,65.24L1.37,66.03L2.73,53.53L4.1,26.58L5.46,26.58L6.83,11.63L8.19,17.93L9.56,27.93L10.92,19.52L12.29,34.37L13.65,37.79L19.11,78.08L20.48,89.07L23.21,110.96L24.57,117.55L28.67,134.5L30.03,134.31L32.76,148.17L34.13,153.92L36.86,164.18L38.22,168.25L40.96,175.03L42.32,182.06L45.05,184.23L46.42,189.07L53.24,211.12L54.61,213.78L58.7,219.55L60.07,219.88L61.43,220.88L62.8,219.11L64.16,217.93L65.53,215.2L68.26,209.69L69.62,204.76L72.35,198.07L73.72,192.5L77.81,175.54L79.18,168.1L83.28,149.36L84.64,146.86L88.74,132.75L90.1,128.73L91.47,126.27L92.83,125.56L98.29,116.62L99.66,116.47L103.75,113.66L105.12,114.93L107.85,114.12L109.21,115.06L110.58,114.97L111.94,116.1L113.31,116.24L114.67,117.24L116.04,117.84L117.4,117.14L118.77,117.24L120.13,118.92L122.87,120.01L124.23,120.51L125.6,120.79L126.96,122.98L129.69,124.56L131.06,125.29L133.79,126.91L135.15,129.68L143.34,135.18L144.71,135.97L146.07,136.48L147.44,138.16L155.63,143.51L156.99,144.91L163.82,150.06L165.19,152.69L173.38,159.3L174.74,160.52L182.93,167.33L184.3,168.1L187.03,169.75L188.39,172.31L210.24,185.54L211.6,185.87L219.79,190.62L221.16,193.38L222.52,194.05L223.89,195.72L236.17,202.77L237.54,203.37L243,206.18" style="vector-effect: non-scaling-stroke; fill: none; stroke: rgb(22, 22, 23); stroke-opacity: 1; stroke-width: 2px; opacity: 1;"/></g><g class="points"/><g class="text"/></g></g></g><g class="overplot"/><path class="xlines-above crisp" d="M79,720.5H323" style="fill: none; stroke-width: 1px; stroke: rgb(255, 255, 255); stroke-opacity: 1;"/><path class="ylines-above crisp" d="M79.5,487.5V720" style="fill: none; stroke-width: 1px; stroke: rgb(255, 255, 255); stroke-opacity: 1;"/><g class="overlines-above"/><g class="xaxislayer-above"><g class="x3tick"><text text-anchor="middle" x="0" y="735.4" transform="translate(133.24,0)" style="font-family: 'Open Sans', verdana, arial, sans-serif; font-size: 12px; fill: rgb(42, 63, 95); fill-opacity: 1; white-space: pre;">Mar 2020</text></g><g class="x3tick"><text text-anchor="middle" x="0" y="735.4" transform="translate(216.52,0)" style="font-family: 'Open Sans', verdana, arial, sans-serif; font-size: 12px; fill: rgb(42, 63, 95); fill-opacity: 1; white-space: pre;">May 2020</text></g><g class="x3tick"><text text-anchor="middle" x="0" y="735.4" transform="translate(299.78999999999996,0)" style="font-family: 'Open Sans', verdana, arial, sans-serif; font-size: 12px; fill: rgb(42, 63, 95); fill-opacity: 1; white-space: pre;">Jul 2020</text></g></g><g class="yaxislayer-above"><g class="y3tick"><text text-anchor="end" x="76.6" y="3.15" transform="translate(0,708.8199999999999)" style="font-family: 'Open Sans', verdana, arial, sans-serif; font-size: 9px; fill: rgb(42, 63, 95); fill-opacity: 1; white-space: pre;">6</text></g><g class="y3tick"><text text-anchor="end" x="76.6" y="3.15" transform="translate(0,698.4300000000001)" style="font-family: 'Open Sans', verdana, arial, sans-serif; font-size: 9px; fill: rgb(42, 63, 95); fill-opacity: 1; white-space: pre;">7</text></g><g class="y3tick"><text text-anchor="end" x="76.6" y="3.15" transform="translate(0,689.42)" style="font-family: 'Open Sans', verdana, arial, sans-serif; font-size: 9px; fill: rgb(42, 63, 95); fill-opacity: 1; white-space: pre;">8</text></g><g class="y3tick"><text text-anchor="end" x="76.6" y="3.15" transform="translate(0,681.48)" style="font-family: 'Open Sans', verdana, arial, sans-serif; font-size: 9px; fill: rgb(42, 63, 95); fill-opacity: 1; white-space: pre;">9</text></g><g class="y3tick"><text text-anchor="end" x="73.6" y="2.1999999999999993" transform="translate(0,674.37)" style="font-family: 'Open Sans', verdana, arial, sans-serif; font-size: 12px; fill: rgb(42, 63, 95); fill-opacity: 1; white-space: pre;">10</text></g><g class="y3tick"><text text-anchor="end" x="76.6" y="3.15" transform="translate(0,627.62)" style="font-family: 'Open Sans', verdana, arial, sans-serif; font-size: 9px; fill: rgb(42, 63, 95); fill-opacity: 1; white-space: pre;">2</text></g><g class="y3tick"><text text-anchor="end" x="76.6" y="3.15" transform="translate(0,600.28)" style="font-family: 'Open Sans', verdana, arial, sans-serif; font-size: 9px; fill: rgb(42, 63, 95); fill-opacity: 1; white-space: pre;">3</text></g><g class="y3tick"><text text-anchor="end" x="76.6" y="3.15" transform="translate(0,580.88)" style="font-family: 'Open Sans', verdana, arial, sans-serif; font-size: 9px; fill: rgb(42, 63, 95); fill-opacity: 1; white-space: pre;">4</text></g><g class="y3tick"><text text-anchor="end" x="76.6" y="3.15" transform="translate(0,565.83)" style="font-family: 'Open Sans', verdana, arial, sans-serif; font-size: 9px; fill: rgb(42, 63, 95); fill-opacity: 1; white-space: pre;">5</text></g><g class="y3tick"><text text-anchor="end" x="76.6" y="3.15" transform="translate(0,553.53)" style="font-family: 'Open Sans', verdana, arial, sans-serif; font-size: 9px; fill: rgb(42, 63, 95); fill-opacity: 1; white-space: pre;">6</text></g><g class="y3tick"><text text-anchor="end" x="76.6" y="3.15" transform="translate(0,543.13)" style="font-family: 'Open Sans', verdana, arial, sans-serif; font-size: 9px; fill: rgb(42, 63, 95); fill-opacity: 1; white-space: pre;">7</text></g><g class="y3tick"><text text-anchor="end" x="76.6" y="3.15" transform="translate(0,534.13)" style="font-family: 'Open Sans', verdana, arial, sans-serif; font-size: 9px; fill: rgb(42, 63, 95); fill-opacity: 1; white-space: pre;">8</text></g><g class="y3tick"><text text-anchor="end" x="76.6" y="3.15" transform="translate(0,526.19)" style="font-family: 'Open Sans', verdana, arial, sans-serif; font-size: 9px; fill: rgb(42, 63, 95); fill-opacity: 1; white-space: pre;">9</text></g><g class="y3tick"><text text-anchor="end" x="73.6" y="2.1999999999999993" transform="translate(0,519.08)" style="font-family: 'Open Sans', verdana, arial, sans-serif; font-size: 12px; fill: rgb(42, 63, 95); fill-opacity: 1; white-space: pre;">100</text></g></g><g class="overaxes-above"/></g><g class="subplot x4y4"><g class="layer-subplot"><g class="shapelayer"/><g class="imagelayer"/></g><g class="gridlayer"><g class="x4"><path class="x4grid crisp" transform="translate(430.24,0)" d="M0,487.5v232.5" style="stroke: rgb(255, 255, 255); stroke-opacity: 1; stroke-width: 1px;"/><path class="x4grid crisp" transform="translate(513.52,0)" d="M0,487.5v232.5" style="stroke: rgb(255, 255, 255); stroke-opacity: 1; stroke-width: 1px;"/><path class="x4grid crisp" transform="translate(596.79,0)" d="M0,487.5v232.5" style="stroke: rgb(255, 255, 255); stroke-opacity: 1; stroke-width: 1px;"/></g><g class="y4"><path class="y4grid crisp" transform="translate(0,683.44)" d="M377,0h242.99999999999997" style="stroke: rgb(255, 255, 255); stroke-opacity: 1; stroke-width: 1px;"/><path class="y4grid crisp" transform="translate(0,655.39)" d="M377,0h242.99999999999997" style="stroke: rgb(255, 255, 255); stroke-opacity: 1; stroke-width: 1px;"/><path class="y4grid crisp" transform="translate(0,627.35)" d="M377,0h242.99999999999997" style="stroke: rgb(255, 255, 255); stroke-opacity: 1; stroke-width: 1px;"/><path class="y4grid crisp" transform="translate(0,590.27)" d="M377,0h242.99999999999997" style="stroke: rgb(255, 255, 255); stroke-opacity: 1; stroke-width: 1px;"/><path class="y4grid crisp" transform="translate(0,562.22)" d="M377,0h242.99999999999997" style="stroke: rgb(255, 255, 255); stroke-opacity: 1; stroke-width: 1px;"/><path class="y4grid crisp" transform="translate(0,534.18)" d="M377,0h242.99999999999997" style="stroke: rgb(255, 255, 255); stroke-opacity: 1; stroke-width: 1px;"/><path class="y4grid crisp" transform="translate(0,497.1)" d="M377,0h242.99999999999997" style="stroke: rgb(255, 255, 255); stroke-opacity: 1; stroke-width: 1px;"/></g></g><g class="zerolinelayer"/><path class="xlines-below"/><path class="ylines-below"/><g class="overlines-below"/><g class="xaxislayer-below"/><g class="yaxislayer-below"/><g class="overaxes-below"/><g class="plot" transform="translate(377, 487.5)" clip-path="url('#clip293a94x4y4plot')"><g class="scatterlayer mlayer"><g class="trace scatter trace985d3d" style="stroke-miterlimit: 2; opacity: 1;"><g class="fills"/><g class="errorbars"/><g class="lines"><path class="js-line" d="M0,4882.5L1.3672924229629764,4882.5L1.37,57.89L2.73,29.65L4.1,24.7L5.46,27.29L6.83,33.59L8.19,11.63L9.56,76.63L10.92,37.44L12.29,53.25L13.65,51.96L15.02,32.63L16.38,56.73L17.75,53.76L19.11,62.43L20.48,73.72L21.84,72.94L23.21,87.07L24.57,86.1L27.3,106.5L28.67,171.27L30.03,37.47L31.4,75.71L32.76,122.11L34.13,122.51L36.86,130.82L38.22,184.71L39.59,185.95L40.96,182.91L42.32,140.67L43.69,220.88L45.05,203L46.42,172.61L47.78,173.53L49.15,165.54L50.51,168.3L51.88,156.97L53.24,137.49L54.61,148.88L55.97,140.46L57.34,138.26L58.7,130.34L60.07,116.06L61.43,115.73L62.8,116.29L64.16,117.09L65.53,107.21L66.89,93.74L68.26,106.77L69.62,73.53L70.99,87.24L72.35,89.8L73.72,82.17L75.08,82.56L76.45,77.83L77.81,68.54L79.18,70.79L80.54,71.95L81.91,74.81L83.28,70.03L84.64,75.29L87.37,67.82L88.74,71.54L90.1,73.96L91.47,82.56L92.83,82.66L94.2,79.67L95.56,83.2L96.93,83.91L98.29,86.2L99.66,90.39L101.02,97.4L102.39,99.14L103.75,99.14L105.12,97.97L107.85,100.64L109.21,107.85L110.58,100.64L111.94,115.51L113.31,116.74L114.67,112.51L116.04,107.12L117.4,112.62L118.77,121.08L120.13,118.86L121.5,123.85L122.87,123.98L124.23,123.17L125.6,119.71L126.96,117.55L128.33,124.53L131.06,134.72L132.42,131.97L135.15,129.7L136.52,129.23L139.25,135.62L140.61,137.49L141.98,136.36L143.34,132.47L144.71,133.15L146.07,132.98L148.8,142.78L150.17,143.44L151.53,140.46L152.9,140.67L154.26,136.18L155.63,137.49L156.99,140.25L158.36,147.14L161.09,140.46L162.46,138.65L163.82,138.07L165.19,138.85L169.28,149.13L170.65,147.39L173.38,138.65L174.74,138.85L176.11,137.3L177.47,145.25L178.84,150.95L180.2,141.71L181.57,143.22L182.93,141.5L184.3,141.08L185.66,143L188.39,153.14L189.76,145.95L191.12,143.66L192.49,143L193.85,146.42L195.22,145.72L196.58,146.66L197.95,151.76L200.68,137.49L202.04,147.63L203.41,137.87L204.78,144.34L206.14,153.14L207.51,150.95L208.87,144.34L210.24,143.66L211.6,142.78L212.97,140.67L217.06,150.16L218.43,147.14L219.79,139.05L221.16,141.71L222.52,143.22L223.89,145.95L226.62,153.14L227.98,144.56L229.35,145.02L230.71,142.78L232.08,142.78L233.44,146.42L234.81,151.76L236.17,152.31L237.54,147.39L238.9,146.19L240.27,143.44L241.63,145.95L243,147.88" style="vector-effect: non-scaling-stroke; fill: none; stroke: rgb(254, 152, 1); stroke-opacity: 1; stroke-width: 2px; opacity: 1;"/></g><g class="points"/><g class="text"/></g></g></g><g class="overplot"/><path class="xlines-above crisp" d="M376,720.5H620" style="fill: none; stroke-width: 1px; stroke: rgb(255, 255, 255); stroke-opacity: 1;"/><path class="ylines-above crisp" d="M376.5,487.5V720" style="fill: none; stroke-width: 1px; stroke: rgb(255, 255, 255); stroke-opacity: 1;"/><g class="overlines-above"/><g class="xaxislayer-above"><g class="x4tick"><text text-anchor="middle" x="0" y="735.4" transform="translate(430.24,0)" style="font-family: 'Open Sans', verdana, arial, sans-serif; font-size: 12px; fill: rgb(42, 63, 95); fill-opacity: 1; white-space: pre;">Mar 2020</text></g><g class="x4tick"><text text-anchor="middle" x="0" y="735.4" transform="translate(513.52,0)" style="font-family: 'Open Sans', verdana, arial, sans-serif; font-size: 12px; fill: rgb(42, 63, 95); fill-opacity: 1; white-space: pre;">May 2020</text></g><g class="x4tick"><text text-anchor="middle" x="0" y="735.4" transform="translate(596.79,0)" style="font-family: 'Open Sans', verdana, arial, sans-serif; font-size: 12px; fill: rgb(42, 63, 95); fill-opacity: 1; white-space: pre;">Jul 2020</text></g></g><g class="yaxislayer-above"><g class="y4tick"><text text-anchor="end" x="373.6" y="3.15" transform="translate(0,683.44)" style="font-family: 'Open Sans', verdana, arial, sans-serif; font-size: 9px; fill: rgb(42, 63, 95); fill-opacity: 1; white-space: pre;">5</text></g><g class="y4tick"><text text-anchor="end" x="373.6" y="4.199999999999999" transform="translate(0,655.39)" style="font-family: 'Open Sans', verdana, arial, sans-serif; font-size: 12px; fill: rgb(42, 63, 95); fill-opacity: 1; white-space: pre;">1</text></g><g class="y4tick"><text text-anchor="end" x="373.6" y="3.15" transform="translate(0,627.35)" style="font-family: 'Open Sans', verdana, arial, sans-serif; font-size: 9px; fill: rgb(42, 63, 95); fill-opacity: 1; white-space: pre;">2</text></g><g class="y4tick"><text text-anchor="end" x="373.6" y="3.15" transform="translate(0,590.27)" style="font-family: 'Open Sans', verdana, arial, sans-serif; font-size: 9px; fill: rgb(42, 63, 95); fill-opacity: 1; white-space: pre;">5</text></g><g class="y4tick"><text text-anchor="end" x="373.6" y="4.199999999999999" transform="translate(0,562.22)" style="font-family: 'Open Sans', verdana, arial, sans-serif; font-size: 12px; fill: rgb(42, 63, 95); fill-opacity: 1; white-space: pre;">10</text></g><g class="y4tick"><text text-anchor="end" x="373.6" y="3.15" transform="translate(0,534.18)" style="font-family: 'Open Sans', verdana, arial, sans-serif; font-size: 9px; fill: rgb(42, 63, 95); fill-opacity: 1; white-space: pre;">2</text></g><g class="y4tick"><text text-anchor="end" x="373.6" y="3.15" transform="translate(0,497.1)" style="font-family: 'Open Sans', verdana, arial, sans-serif; font-size: 9px; fill: rgb(42, 63, 95); fill-opacity: 1; white-space: pre;">5</text></g></g><g class="overaxes-above"/></g></g><g class="polarlayer"/><g class="ternarylayer"/><g class="geolayer"/><g class="funnelarealayer"/><g class="pielayer"/><g class="treemaplayer"/><g class="sunburstlayer"/><g class="glimages"/><defs id="topdefs-293a94"><g class="clips"/></defs><g class="layer-above"><g class="imagelayer"/><g class="shapelayer"/></g><g class="infolayer"><g class="g-gtitle"><text class="gtitle" x="35" y="50" text-anchor="start" dy="0em" style="font-family: 'Open Sans', verdana, arial, sans-serif; font-size: 17px; fill: rgb(42, 63, 95); opacity: 1; font-weight: normal; white-space: pre;">% Day Wise Logarithmic</text></g><g class="g-xtitle"/><g class="g-x2title"/><g class="g-x3title"/><g class="g-x4title"/><g class="g-ytitle"/><g class="g-y2title"/><g class="g-y3title"/><g class="g-y4title"/><g class="annotation" data-index="0" style="opacity: 1;"><g class="annotation-text-g" transform="rotate(0,201.5,88.5)"><g class="cursor-pointer" transform="translate(122, 77)"><rect class="bg" x="0.5" y="0.5" width="159" height="22" style="stroke-width: 1px; stroke: rgb(0, 0, 0); stroke-opacity: 0; fill: rgb(0, 0, 0); fill-opacity: 0;"/><text class="annotation-text" text-anchor="middle" x="80" y="18" style="font-family: 'Open Sans', verdana, arial, sans-serif; font-size: 16px; fill: rgb(42, 63, 95); fill-opacity: 1; white-space: pre;">% Recovered cases</text></g></g></g><g class="annotation" data-index="1" style="opacity: 1;"><g class="annotation-text-g" transform="rotate(0,498.5,88.5)"><g class="cursor-pointer" transform="translate(457, 77)"><rect class="bg" x="0.5" y="0.5" width="82" height="22" style="stroke-width: 1px; stroke: rgb(0, 0, 0); stroke-opacity: 0; fill: rgb(0, 0, 0); fill-opacity: 0;"/><text class="annotation-text" text-anchor="middle" x="41.546875" y="18" style="font-family: 'Open Sans', verdana, arial, sans-serif; font-size: 16px; fill: rgb(42, 63, 95); fill-opacity: 1; white-space: pre;">% Deaths</text></g></g></g><g class="annotation" data-index="2" style="opacity: 1;"><g class="annotation-text-g" transform="rotate(0,201.5,476)"><g class="cursor-pointer" transform="translate(100, 465)"><rect class="bg" x="0.5" y="0.5" width="202" height="22" style="stroke-width: 1px; stroke: rgb(0, 0, 0); stroke-opacity: 0; fill: rgb(0, 0, 0); fill-opacity: 0;"/><text class="annotation-text" text-anchor="middle" x="101.671875" y="18" style="font-family: 'Open Sans', verdana, arial, sans-serif; font-size: 16px; fill: rgb(42, 63, 95); fill-opacity: 1; white-space: pre;">% Deaths Per Recovered</text></g></g></g><g class="annotation" data-index="3" style="opacity: 1;"><g class="annotation-text-g" transform="rotate(0,498.5,476)"><g class="cursor-pointer" transform="translate(442, 465)"><rect class="bg" x="0.5" y="0.5" width="113" height="22" style="stroke-width: 1px; stroke: rgb(0, 0, 0); stroke-opacity: 0; fill: rgb(0, 0, 0); fill-opacity: 0;"/><text class="annotation-text" text-anchor="middle" x="57.03125" y="18" style="font-family: 'Open Sans', verdana, arial, sans-serif; font-size: 16px; fill: rgb(42, 63, 95); fill-opacity: 1; white-space: pre;">% New Cases</text></g></g></g></g></svg>