<svg class="main-svg" xmlns="http://www.w3.org/2000/svg" xmlns:xlink="http://www.w3.org/1999/xlink" width="700" height="800" style="" viewBox="0 0 700 800"><rect x="0" y="0" width="700" height="800" style="fill: rgb(255, 255, 255); fill-opacity: 1;"/><defs id="defs-0d10b3"><g class="clips"><clipPath id="clip0d10b3xyplot" class="plotclip"><rect width="243" height="232.5"/></clipPath><clipPath id="clip0d10b3x2y2plot" class="plotclip"><rect width="242.99999999999997" height="232.5"/></clipPath><clipPath id="clip0d10b3x3y3plot" class="plotclip"><rect width="243" height="232.5"/></clipPath><clipPath id="clip0d10b3x4y4plot" class="plotclip"><rect width="242.99999999999997" height="232.5"/></clipPath><clipPath class="axesclip" id="clip0d10b3x"><rect x="80" y="0" width="243" height="800"/></clipPath><clipPath class="axesclip" id="clip0d10b3y"><rect x="0" y="100" width="700" height="232.5"/></clipPath><clipPath class="axesclip" id="clip0d10b3xy"><rect x="80" y="100" width="243" height="232.5"/></clipPath><clipPath class="axesclip" id="clip0d10b3y2"><rect x="0" y="100" width="700" height="232.5"/></clipPath><clipPath class="axesclip" id="clip0d10b3xy2"><rect x="80" y="100" width="243" height="232.5"/></clipPath><clipPath class="axesclip" id="clip0d10b3y3"><rect x="0" y="487.5" width="700" height="232.5"/></clipPath><clipPath class="axesclip" id="clip0d10b3xy3"><rect x="80" y="487.5" width="243" height="232.5"/></clipPath><clipPath class="axesclip" id="clip0d10b3y4"><rect x="0" y="487.5" width="700" height="232.5"/></clipPath><clipPath class="axesclip" id="clip0d10b3xy4"><rect x="80" y="487.5" width="243" height="232.5"/></clipPath><clipPath class="axesclip" id="clip0d10b3x2"><rect x="377" y="0" width="242.99999999999997" height="800"/></clipPath><clipPath class="axesclip" id="clip0d10b3x2y"><rect x="377" y="100" width="242.99999999999997" height="232.5"/></clipPath><clipPath class="axesclip" id="clip0d10b3x2y2"><rect x="377" y="100" width="242.99999999999997" height="232.5"/></clipPath><clipPath class="axesclip" id="clip0d10b3x2y3"><rect x="377" y="487.5" width="242.99999999999997" height="232.5"/></clipPath><clipPath class="axesclip" id="clip0d10b3x2y4"><rect x="377" y="487.5" width="242.99999999999997" height="232.5"/></clipPath><clipPath class="axesclip" id="clip0d10b3x3"><rect x="80" y="0" width="243" height="800"/></clipPath><clipPath class="axesclip" id="clip0d10b3x3y"><rect x="80" y="100" width="243" height="232.5"/></clipPath><clipPath class="axesclip" id="clip0d10b3x3y2"><rect x="80" y="100" width="243" height="232.5"/></clipPath><clipPath class="axesclip" id="clip0d10b3x3y3"><rect x="80" y="487.5" width="243" height="232.5"/></clipPath><clipPath class="axesclip" id="clip0d10b3x3y4"><rect x="80" y="487.5" width="243" height="232.5"/></clipPath><clipPath class="axesclip" id="clip0d10b3x4"><rect x="377" y="0" width="242.99999999999997" height="800"/></clipPath><clipPath class="axesclip" id="clip0d10b3x4y"><rect x="377" y="100" width="242.99999999999997" height="232.5"/></clipPath><clipPath class="axesclip" id="clip0d10b3x4y2"><rect x="377" y="100" width="242.99999999999997" height="232.5"/></clipPath><clipPath class="axesclip" id="clip0d10b3x4y3"><rect x="377" y="487.5" width="242.99999999999997" height="232.5"/></clipPath><clipPath class="axesclip" id="clip0d10b3x4y4"><rect x="377" y="487.5" width="242.99999999999997" height="232.5"/></clipPath></g><g class="gradients"/></defs><g class="bglayer"><rect class="bg" x="80" y="100" width="243" height="232.5" style="fill: rgb(229, 236, 246); fill-opacity: 1; stroke-width: 0;"/><rect class="bg" x="377" y="100" width="242.99999999999997" height="232.5" style="fill: rgb(229, 236, 246); fill-opacity: 1; stroke-width: 0;"/><rect class="bg" x="80" y="487.5" width="243" height="232.5" style="fill: rgb(229, 236, 246); fill-opacity: 1; stroke-width: 0;"/><rect class="bg" x="377" y="487.5" width="242.99999999999997" height="232.5" style="fill: rgb(229, 236, 246); fill-opacity: 1; stroke-width: 0;"/></g><g class="layer-below"><g class="imagelayer"/><g class="shapelayer"/></g><g class="cartesianlayer"><g class="subplot xy"><g class="layer-subplot"><g class="shapelayer"/><g class="imagelayer"/></g><g class="gridlayer"><g class="x"><path class="xgrid crisp" transform="translate(129.1,0)" d="M0,100v232.5" style="stroke: rgb(255, 255, 255); stroke-opacity: 1; stroke-width: 1px;"/><path class="xgrid crisp" transform="translate(205.91,0)" d="M0,100v232.5" style="stroke: rgb(255, 255, 255); stroke-opacity: 1; stroke-width: 1px;"/><path class="xgrid crisp" transform="translate(282.71000000000004,0)" d="M0,100v232.5" style="stroke: rgb(255, 255, 255); stroke-opacity: 1; stroke-width: 1px;"/></g><g class="y"><path class="ygrid crisp" transform="translate(0,290.74)" d="M80,0h243" style="stroke: rgb(255, 255, 255); stroke-opacity: 1; stroke-width: 1px;"/><path class="ygrid crisp" transform="translate(0,254.26)" d="M80,0h243" style="stroke: rgb(255, 255, 255); stroke-opacity: 1; stroke-width: 1px;"/><path class="ygrid crisp" transform="translate(0,217.78)" d="M80,0h243" style="stroke: rgb(255, 255, 255); stroke-opacity: 1; stroke-width: 1px;"/><path class="ygrid crisp" transform="translate(0,181.3)" d="M80,0h243" style="stroke: rgb(255, 255, 255); stroke-opacity: 1; stroke-width: 1px;"/><path class="ygrid crisp" transform="translate(0,144.82)" d="M80,0h243" style="stroke: rgb(255, 255, 255); stroke-opacity: 1; stroke-width: 1px;"/><path class="ygrid crisp" transform="translate(0,108.34)" d="M80,0h243" style="stroke: rgb(255, 255, 255); stroke-opacity: 1; stroke-width: 1px;"/></g></g><g class="zerolinelayer"><path class="yzl zl crisp" transform="translate(0,327.22)" d="M80,0h243" style="stroke: rgb(255, 255, 255); stroke-opacity: 1; stroke-width: 2px;"/></g><path class="xlines-below"/><path class="ylines-below"/><g class="overlines-below"/><g class="xaxislayer-below"/><g class="yaxislayer-below"/><g class="overaxes-below"/><g class="plot" transform="translate(80, 100)" clip-path="url('#clip0d10b3xyplot')"><g class="scatterlayer mlayer"><g class="trace scatter tracebe94bd" style="stroke-miterlimit: 2; opacity: 1;"><g class="fills"/><g class="errorbars"/><g class="lines"><path class="js-line" d="M0,208.8L2.52,213.25L3.78,217.3L7.55,220.22L8.81,219.78L10.07,220.88L11.33,219.05L12.59,218.61L13.85,216.97L17.63,212.38L18.89,209.6L26.44,185.71L27.7,189.21L33.99,157.58L35.25,149.52L36.51,140.18L37.77,137.37L39.03,120.48L40.29,118.44L42.81,99.14L44.07,88.96L50.36,33.99L51.62,26.87L54.14,13.96L55.4,14.07L57.92,11.95L59.18,13.34L61.69,22.39L62.95,27.9L65.47,51.53L66.73,55.91L74.28,117.67L75.54,123.29L76.8,134.49L78.06,135.73L81.84,149.67L83.1,153.02L84.36,154.48L85.62,153.39L88.13,154.37L89.39,154.19L90.65,154.66L91.91,153.39L94.43,153.13L95.69,151.13L98.21,146.89L99.47,146.38L100.73,144.45L101.98,145L107.02,136.86L108.28,136.17L112.06,133.14L113.32,130.95L115.83,128.91L117.09,125.44L119.61,123.95L120.87,122.96L123.39,119.31L124.65,114.79L133.46,106.44L134.72,105.85L135.98,103.59L137.24,102.9L141.02,98.16L142.27,97.72L148.57,91.12L149.83,89.58L151.09,88.78L152.35,84.07L154.87,81.92L156.12,79.99L164.94,71.2L166.2,68.21L168.72,65.91L169.97,65.32L172.49,64.45L173.75,59.01L178.79,54.96L180.05,53.94L182.56,52.56L183.82,51.21L185.08,49.02L186.34,48.47L187.6,48.21L188.86,46.61L191.38,45.44L192.64,44.6L193.9,43.44L195.16,43.33L200.19,41.58L201.45,40.59L202.71,40.44L203.97,34.43L205.23,34.35L206.49,31.32L210.26,28.66L211.52,27.35L217.82,25.41L219.08,24.9L224.11,22.02L225.37,22.86L229.15,20.31L230.41,20.09L232.93,16.81L234.19,16.44L241.74,11.66L243,11.63" style="vector-effect: non-scaling-stroke; fill: none; stroke: rgb(40, 167, 69); stroke-opacity: 1; stroke-width: 2px; opacity: 1;"/></g><g class="points"/><g class="text"/></g></g></g><g class="overplot"/><path class="xlines-above crisp" d="M79,333H323" style="fill: none; stroke-width: 1px; stroke: rgb(255, 255, 255); stroke-opacity: 1;"/><path class="ylines-above crisp" d="M79.5,100V332.5" style="fill: none; stroke-width: 1px; stroke: rgb(255, 255, 255); stroke-opacity: 1;"/><g class="overlines-above"/><g class="xaxislayer-above"><g class="xtick"><text text-anchor="middle" x="0" y="347.9" transform="translate(129.1,0)" style="font-family: 'Open Sans', verdana, arial, sans-serif; font-size: 12px; fill: rgb(42, 63, 95); fill-opacity: 1; white-space: pre;">Mar 2020</text></g><g class="xtick"><text text-anchor="middle" x="0" y="347.9" transform="translate(205.91,0)" style="font-family: 'Open Sans', verdana, arial, sans-serif; font-size: 12px; fill: rgb(42, 63, 95); fill-opacity: 1; white-space: pre;">May 2020</text></g><g class="xtick"><text text-anchor="middle" x="0" y="347.9" transform="translate(282.71000000000004,0)" style="font-family: 'Open Sans', verdana, arial, sans-serif; font-size: 12px; fill: rgb(42, 63, 95); fill-opacity: 1; white-space: pre;">Jul 2020</text></g></g><g class="yaxislayer-above"><g class="ytick"><text text-anchor="end" x="76.6" y="4.199999999999999" transform="translate(0,327.22)" style="font-family: 'Open Sans', verdana, arial, sans-serif; font-size: 12px; fill: rgb(42, 63, 95); fill-opacity: 1; white-space: pre;">0</text></g><g class="ytick"><text text-anchor="end" x="76.6" y="4.199999999999999" transform="translate(0,290.74)" style="font-family: 'Open Sans', verdana, arial, sans-serif; font-size: 12px; fill: rgb(42, 63, 95); fill-opacity: 1; white-space: pre;">10</text></g><g class="ytick"><text text-anchor="end" x="76.6" y="4.199999999999999" transform="translate(0,254.26)" style="font-family: 'Open Sans', verdana, arial, sans-serif; font-size: 12px; fill: rgb(42, 63, 95); fill-opacity: 1; white-space: pre;">20</text></g><g class="ytick"><text text-anchor="end" x="76.6" y="4.199999999999999" transform="translate(0,217.78)" style="font-family: 'Open Sans', verdana, arial, sans-serif; font-size: 12px; fill: rgb(42, 63, 95); fill-opacity: 1; white-space: pre;">30</text></g><g class="ytick"><text text-anchor="end" x="76.6" y="4.199999999999999" transform="translate(0,181.3)" style="font-family: 'Open Sans', verdana, arial, sans-serif; font-size: 12px; fill: rgb(42, 63, 95); fill-opacity: 1; white-space: pre;">40</text></g><g class="ytick"><text text-anchor="end" x="76.6" y="4.199999999999999" transform="translate(0,144.82)" style="font-family: 'Open Sans', verdana, arial, sans-serif; font-size: 12px; fill: rgb(42, 63, 95); fill-opacity: 1; white-space: pre;">50</text></g><g class="ytick"><text text-anchor="end" x="76.6" y="4.199999999999999" transform="translate(0,108.34)" style="font-family: 'Open Sans', verdana, arial, sans-serif; font-size: 12px; fill: rgb(42, 63, 95); fill-opacity: 1; white-space: pre;">60</text></g></g><g class="overaxes-above"/></g><g class="subplot x2y2"><g class="layer-subplot"><g class="shapelayer"/><g class="imagelayer"/></g><g class="gridlayer"><g class="x2"><path class="x2grid crisp" transform="translate(426.1,0)" d="M0,100v232.5" style="stroke: rgb(255, 255, 255); stroke-opacity: 1; stroke-width: 1px;"/><path class="x2grid crisp" transform="translate(502.90999999999997,0)" d="M0,100v232.5" style="stroke: rgb(255, 255, 255); stroke-opacity: 1; stroke-width: 1px;"/><path class="x2grid crisp" transform="translate(579.71,0)" d="M0,100v232.5" style="stroke: rgb(255, 255, 255); stroke-opacity: 1; stroke-width: 1px;"/></g><g class="y2"><path class="y2grid crisp" transform="translate(0,322.5)" d="M377,0h242.99999999999997" style="stroke: rgb(255, 255, 255); stroke-opacity: 1; stroke-width: 1px;"/><path class="y2grid crisp" transform="translate(0,281.94)" d="M377,0h242.99999999999997" style="stroke: rgb(255, 255, 255); stroke-opacity: 1; stroke-width: 1px;"/><path class="y2grid crisp" transform="translate(0,241.39)" d="M377,0h242.99999999999997" style="stroke: rgb(255, 255, 255); stroke-opacity: 1; stroke-width: 1px;"/><path class="y2grid crisp" transform="translate(0,200.84)" d="M377,0h242.99999999999997" style="stroke: rgb(255, 255, 255); stroke-opacity: 1; stroke-width: 1px;"/><path class="y2grid crisp" transform="translate(0,160.29)" d="M377,0h242.99999999999997" style="stroke: rgb(255, 255, 255); stroke-opacity: 1; stroke-width: 1px;"/><path class="y2grid crisp" transform="translate(0,119.74)" d="M377,0h242.99999999999997" style="stroke: rgb(255, 255, 255); stroke-opacity: 1; stroke-width: 1px;"/></g></g><g class="zerolinelayer"/><path class="xlines-below"/><path class="ylines-below"/><g class="overlines-below"/><g class="xaxislayer-below"/><g class="yaxislayer-below"/><g class="overaxes-below"/><g class="plot" transform="translate(377, 100)" clip-path="url('#clip0d10b3x2y2plot')"><g class="scatterlayer mlayer"><g class="trace scatter trace7ad697" style="stroke-miterlimit: 2; opacity: 1;"><g class="fills"/><g class="errorbars"/><g class="lines"><path class="js-line" d="M0,179.11L1.26,191.68L2.52,191.27L3.78,184.78L5.04,196.14L6.3,189.65L7.55,208.3L10.07,219.25L11.33,216.41L13.85,216.01L15.11,216.82L16.37,220.06L17.63,220.88L20.15,218.85L21.4,215.6L25.18,202.63L26.44,203.44L27.7,211.55L28.96,211.14L31.48,202.63L32.74,200.19L36.51,183.97L37.77,184.38L39.03,176.27L40.29,176.27L41.55,168.56L42.81,165.72L47.84,160.45L49.1,160.86L52.88,158.02L54.14,157.61L56.66,159.64L57.92,155.18L59.18,153.56L60.44,150.31L62.95,145.45L64.21,147.48L65.47,147.48L66.73,142.2L67.99,140.18L69.25,136.53L70.51,134.9L71.77,135.72L75.54,124.36L76.8,123.95L79.32,115.44L80.58,114.63L85.62,100.03L86.88,95.16L90.65,74.89L91.91,70.43L93.17,67.59L94.43,62.72L96.95,48.93L98.21,43.26L100.73,36.77L101.98,38.39L104.5,31.09L105.76,25.41L107.02,24.2L108.28,18.92L109.54,16.9L110.8,18.52L112.06,18.11L113.32,15.27L115.83,12.44L117.09,12.03L118.35,12.44L119.61,14.46L120.87,14.87L122.13,13.25L123.39,11.63L124.65,12.03L127.17,13.65L128.42,16.09L129.68,17.71L130.94,17.3L132.2,16.9L133.46,18.11L135.98,20.55L137.24,22.17L138.5,24.2L139.76,24.2L143.53,27.44L144.79,29.47L153.61,41.63L154.87,43.66L157.38,48.12L158.64,48.93L166.2,61.5L167.46,62.72L169.97,65.97L171.23,68.4L173.75,71.64L175.01,72.86L178.79,77.32L180.05,78.94L182.56,83L183.82,83.4L190.12,90.3L191.38,91.92L201.45,104.9L202.71,107.33L219.08,127.6L220.34,128.82L225.37,134.09L226.63,135.31L231.67,139.36L232.93,140.58L240.48,147.07L241.74,147.88L243,149.1" style="vector-effect: non-scaling-stroke; fill: none; stroke: rgb(255, 7, 58); stroke-opacity: 1; stroke-width: 2px; opacity: 1;"/></g><g class="points"/><g class="text"/></g></g></g><g class="overplot"/><path class="xlines-above crisp" d="M376,333H620" style="fill: none; stroke-width: 1px; stroke: rgb(255, 255, 255); stroke-opacity: 1;"/><path class="ylines-above crisp" d="M376.5,100V332.5" style="fill: none; stroke-width: 1px; stroke: rgb(255, 255, 255); stroke-opacity: 1;"/><g class="overlines-above"/><g class="xaxislayer-above"><g class="x2tick"><text text-anchor="middle" x="0" y="347.9" transform="translate(426.1,0)" style="font-family: 'Open Sans', verdana, arial, sans-serif; font-size: 12px; fill: rgb(42, 63, 95); fill-opacity: 1; white-space: pre;">Mar 2020</text></g><g class="x2tick"><text text-anchor="middle" x="0" y="347.9" transform="translate(502.90999999999997,0)" style="font-family: 'Open Sans', verdana, arial, sans-serif; font-size: 12px; fill: rgb(42, 63, 95); fill-opacity: 1; white-space: pre;">May 2020</text></g><g class="x2tick"><text text-anchor="middle" x="0" y="347.9" transform="translate(579.71,0)" style="font-family: 'Open Sans', verdana, arial, sans-serif; font-size: 12px; fill: rgb(42, 63, 95); fill-opacity: 1; white-space: pre;">Jul 2020</text></g></g><g class="yaxislayer-above"><g class="y2tick"><text text-anchor="end" x="373.6" y="4.199999999999999" transform="translate(0,322.5)" style="font-family: 'Open Sans', verdana, arial, sans-serif; font-size: 12px; fill: rgb(42, 63, 95); fill-opacity: 1; white-space: pre;">2</text></g><g class="y2tick"><text text-anchor="end" x="373.6" y="4.199999999999999" transform="translate(0,281.94)" style="font-family: 'Open Sans', verdana, arial, sans-serif; font-size: 12px; fill: rgb(42, 63, 95); fill-opacity: 1; white-space: pre;">3</text></g><g class="y2tick"><text text-anchor="end" x="373.6" y="4.199999999999999" transform="translate(0,241.39)" style="font-family: 'Open Sans', verdana, arial, sans-serif; font-size: 12px; fill: rgb(42, 63, 95); fill-opacity: 1; white-space: pre;">4</text></g><g class="y2tick"><text text-anchor="end" x="373.6" y="4.199999999999999" transform="translate(0,200.84)" style="font-family: 'Open Sans', verdana, arial, sans-serif; font-size: 12px; fill: rgb(42, 63, 95); fill-opacity: 1; white-space: pre;">5</text></g><g class="y2tick"><text text-anchor="end" x="373.6" y="4.199999999999999" transform="translate(0,160.29)" style="font-family: 'Open Sans', verdana, arial, sans-serif; font-size: 12px; fill: rgb(42, 63, 95); fill-opacity: 1; white-space: pre;">6</text></g><g class="y2tick"><text text-anchor="end" x="373.6" y="4.199999999999999" transform="translate(0,119.74)" style="font-family: 'Open Sans', verdana, arial, sans-serif; font-size: 12px; fill: rgb(42, 63, 95); fill-opacity: 1; white-space: pre;">7</text></g></g><g class="overaxes-above"/></g><g class="subplot x3y3"><g class="layer-subplot"><g class="shapelayer"/><g class="imagelayer"/></g><g class="gridlayer"><g class="x3"><path class="x3grid crisp" transform="translate(129.1,0)" d="M0,487.5v232.5" style="stroke: rgb(255, 255, 255); stroke-opacity: 1; stroke-width: 1px;"/><path class="x3grid crisp" transform="translate(205.91,0)" d="M0,487.5v232.5" style="stroke: rgb(255, 255, 255); stroke-opacity: 1; stroke-width: 1px;"/><path class="x3grid crisp" transform="translate(282.71000000000004,0)" d="M0,487.5v232.5" style="stroke: rgb(255, 255, 255); stroke-opacity: 1; stroke-width: 1px;"/></g><g class="y3"><path class="y3grid crisp" transform="translate(0,636.73)" d="M80,0h243" style="stroke: rgb(255, 255, 255); stroke-opacity: 1; stroke-width: 1px;"/><path class="y3grid crisp" transform="translate(0,555.24)" d="M80,0h243" style="stroke: rgb(255, 255, 255); stroke-opacity: 1; stroke-width: 1px;"/></g></g><g class="zerolinelayer"><path class="y3zl zl crisp" transform="translate(0,718.22)" d="M80,0h243" style="stroke: rgb(255, 255, 255); stroke-opacity: 1; stroke-width: 2px;"/></g><path class="xlines-below"/><path class="ylines-below"/><g class="overlines-below"/><g class="xaxislayer-below"/><g class="yaxislayer-below"/><g class="overaxes-below"/><g class="plot" transform="translate(80, 487.5)" clip-path="url('#clip0d10b3x3y3plot')"><g class="scatterlayer mlayer"><g class="trace scatter tracefb6d79" style="stroke-miterlimit: 2; opacity: 1;"><g class="fills"/><g class="errorbars"/><g class="lines"><path class="js-line" d="M0,131.77L1.26,132.93L2.52,113.01L3.78,55.21L5.04,55.21L6.3,11.63L7.55,31.18L8.81,58.68L10.07,35.83L11.33,74.34L12.59,82.08L15.11,119.27L16.37,136.6L21.4,180.49L22.66,185.17L26.44,195.29L27.7,195.19L30.22,201.79L31.48,204.15L33.99,207.9L35.25,209.24L40.29,213.54L41.55,213.77L47.84,218.72L49.1,219.34L54.14,220.68L55.4,220.73L59.18,220.43L60.44,220.01L65.47,217.71L66.73,216.91L71.77,211.44L73.03,209.19L84.36,190.69L85.62,190.27L90.65,184.55L91.91,184.45L95.69,182.46L96.95,183.36L99.47,182.79L100.73,183.45L101.98,183.41L103.24,184.19L105.76,184.95L107.02,185.36L109.54,184.95L110.8,186.1L115.83,187.3L117.09,188.69L122.13,190.45L123.39,191.07L125.91,193.25L127.17,193.87L133.46,196.05L134.72,196.31L138.5,198.24L139.76,198.45L147.31,201.35L148.57,201.76L166.2,208.41L167.46,208.7L212.78,217.29L214.04,217.44L243,220.21" style="vector-effect: non-scaling-stroke; fill: none; stroke: rgb(22, 22, 23); stroke-opacity: 1; stroke-width: 2px; opacity: 1;"/></g><g class="points"/><g class="text"/></g></g></g><g class="overplot"/><path class="xlines-above crisp" d="M79,720.5H323" style="fill: none; stroke-width: 1px; stroke: rgb(255, 255, 255); stroke-opacity: 1;"/><path class="ylines-above crisp" d="M79.5,487.5V720" style="fill: none; stroke-width: 1px; stroke: rgb(255, 255, 255); stroke-opacity: 1;"/><g class="overlines-above"/><g class="xaxislayer-above"><g class="x3tick"><text text-anchor="middle" x="0" y="735.4" transform="translate(129.1,0)" style="font-family: 'Open Sans', verdana, arial, sans-serif; font-size: 12px; fill: rgb(42, 63, 95); fill-opacity: 1; white-space: pre;">Mar 2020</text></g><g class="x3tick"><text text-anchor="middle" x="0" y="735.4" transform="translate(205.91,0)" style="font-family: 'Open Sans', verdana, arial, sans-serif; font-size: 12px; fill: rgb(42, 63, 95); fill-opacity: 1; white-space: pre;">May 2020</text></g><g class="x3tick"><text text-anchor="middle" x="0" y="735.4" transform="translate(282.71000000000004,0)" style="font-family: 'Open Sans', verdana, arial, sans-serif; font-size: 12px; fill: rgb(42, 63, 95); fill-opacity: 1; white-space: pre;">Jul 2020</text></g></g><g class="yaxislayer-above"><g class="y3tick"><text text-anchor="end" x="76.6" y="4.199999999999999" transform="translate(0,718.22)" style="font-family: 'Open Sans', verdana, arial, sans-serif; font-size: 12px; fill: rgb(42, 63, 95); fill-opacity: 1; white-space: pre;">0</text></g><g class="y3tick"><text text-anchor="end" x="76.6" y="4.199999999999999" transform="translate(0,636.73)" style="font-family: 'Open Sans', verdana, arial, sans-serif; font-size: 12px; fill: rgb(42, 63, 95); fill-opacity: 1; white-space: pre;">50</text></g><g class="y3tick"><text text-anchor="end" x="76.6" y="4.199999999999999" transform="translate(0,555.24)" style="font-family: 'Open Sans', verdana, arial, sans-serif; font-size: 12px; fill: rgb(42, 63, 95); fill-opacity: 1; white-space: pre;">100</text></g></g><g class="overaxes-above"/></g><g class="subplot x4y4"><g class="layer-subplot"><g class="shapelayer"/><g class="imagelayer"/></g><g class="gridlayer"><g class="x4"><path class="x4grid crisp" transform="translate(426.1,0)" d="M0,487.5v232.5" style="stroke: rgb(255, 255, 255); stroke-opacity: 1; stroke-width: 1px;"/><path class="x4grid crisp" transform="translate(502.90999999999997,0)" d="M0,487.5v232.5" style="stroke: rgb(255, 255, 255); stroke-opacity: 1; stroke-width: 1px;"/><path class="x4grid crisp" transform="translate(579.71,0)" d="M0,487.5v232.5" style="stroke: rgb(255, 255, 255); stroke-opacity: 1; stroke-width: 1px;"/></g><g class="y4"><path class="y4grid crisp" transform="translate(0,664.38)" d="M377,0h242.99999999999997" style="stroke: rgb(255, 255, 255); stroke-opacity: 1; stroke-width: 1px;"/><path class="y4grid crisp" transform="translate(0,620.38)" d="M377,0h242.99999999999997" style="stroke: rgb(255, 255, 255); stroke-opacity: 1; stroke-width: 1px;"/><path class="y4grid crisp" transform="translate(0,576.38)" d="M377,0h242.99999999999997" style="stroke: rgb(255, 255, 255); stroke-opacity: 1; stroke-width: 1px;"/><path class="y4grid crisp" transform="translate(0,532.39)" d="M377,0h242.99999999999997" style="stroke: rgb(255, 255, 255); stroke-opacity: 1; stroke-width: 1px;"/></g></g><g class="zerolinelayer"><path class="y4zl zl crisp" transform="translate(0,708.38)" d="M377,0h242.99999999999997" style="stroke: rgb(255, 255, 255); stroke-opacity: 1; stroke-width: 2px;"/></g><path class="xlines-below"/><path class="ylines-below"/><g class="overlines-below"/><g class="xaxislayer-below"/><g class="yaxislayer-below"/><g class="overaxes-below"/><g class="plot" transform="translate(377, 487.5)" clip-path="url('#clip0d10b3x4y4plot')"><g class="scatterlayer mlayer"><g class="trace scatter trace43c431" style="stroke-miterlimit: 2; opacity: 1;"><g class="fills"/><g class="errorbars"/><g class="lines"><path class="js-line" d="M0,220.88L2.52,86.86L3.78,69.39L5.04,78.81L6.3,99.27L7.55,11.63L8.81,178.9L10.07,110.31L11.33,146.08L12.59,143.66L13.85,96.36L15.11,152.24L16.37,147L18.89,175.78L20.15,174.9L21.4,188.45L22.66,187.66L25.18,200.81L26.44,216.83L27.7,110.4L28.96,177.93L30.22,207.24L31.48,207.37L33.99,209.88L35.25,217.97L37.77,217.84L39.03,212.25L40.29,219.69L41.55,219.03L42.81,216.96L44.07,217.05L45.33,216.21L46.59,216.52L47.84,215.11L49.1,211.55L50.36,213.84L51.62,212.21L52.88,211.72L54.14,209.74L55.4,205.04L56.66,204.9L59.18,205.43L60.44,201.16L61.69,193.38L62.95,200.94L64.21,175.56L65.47,188.54L66.73,190.56L67.99,184.27L69.25,184.62L70.51,180.13L71.77,169.62L73.03,172.39L74.28,173.71L75.54,176.97L76.8,171.47L78.06,177.45L80.58,168.78L81.84,173.27L83.1,176L84.36,184.62L85.62,184.75L86.88,181.94L88.13,185.19L89.39,185.77L91.91,191L93.17,195.75L94.43,196.81L95.69,196.81L96.95,196.1L98.21,196.68L99.47,197.69L100.73,201.43L101.98,197.69L103.24,204.77L104.5,205.34L105.76,203.58L107.02,201.12L108.28,203.67L109.54,206.84L110.8,206.09L112.06,207.81L113.32,207.85L114.58,207.63L115.83,206.44L117.09,205.61L118.35,207.9L120.87,210.89L122.13,210.18L125.91,209.44L127.17,210.36L129.68,211.55L130.94,211.28L132.2,210.32L133.46,210.49L134.72,210.49L135.98,211.5L137.24,212.69L138.5,212.82L142.27,211.24L143.53,211.55L144.79,211.81L146.05,213.57L149.83,211.81L151.09,211.72L153.61,212.16L154.87,213.13L156.12,213.88L157.38,213.57L162.42,210.89L163.68,213.22L164.94,214.19L166.2,212.52L168.72,212.47L169.97,212.38L171.23,212.21L172.49,213.84L173.75,214.58L175.01,213.31L177.53,212.78L178.79,213.44L181.31,213.44L182.56,214.32L183.82,213.26L185.08,213.35L186.34,213.57L187.6,211.64L190.12,214.54L191.38,214.23L192.64,213L193.9,212.87L196.41,212.25L197.67,213L200.19,214.1L201.45,213.53L202.71,211.9L203.97,212.47L207.75,213.84L209.01,214.54L210.26,213.04L211.52,213.13L214.04,212.69L215.3,213.4L217.82,214.41L219.08,213.57L222.85,213.31L224.11,213.57L226.63,214.67L227.89,213.97L229.15,212.78L230.41,212.82L232.93,213.88L234.19,215.33L237.96,213.4L239.22,213.75L240.48,213.62L241.74,214.67L243,215.29" style="vector-effect: non-scaling-stroke; fill: none; stroke: rgb(254, 152, 1); stroke-opacity: 1; stroke-width: 2px; opacity: 1;"/></g><g class="points"/><g class="text"/></g></g></g><g class="overplot"/><path class="xlines-above crisp" d="M376,720.5H620" style="fill: none; stroke-width: 1px; stroke: rgb(255, 255, 255); stroke-opacity: 1;"/><path class="ylines-above crisp" d="M376.5,487.5V720" style="fill: none; stroke-width: 1px; stroke: rgb(255, 255, 255); stroke-opacity: 1;"/><g class="overlines-above"/><g class="xaxislayer-above"><g class="x4tick"><text text-anchor="middle" x="0" y="735.4" transform="translate(426.1,0)" style="font-family: 'Open Sans', verdana, arial, sans-serif; font-size: 12px; fill: rgb(42, 63, 95); fill-opacity: 1; white-space: pre;">Mar 2020</text></g><g class="x4tick"><text text-anchor="middle" x="0" y="735.4" transform="translate(502.90999999999997,0)" style="font-family: 'Open Sans', verdana, arial, sans-serif; font-size: 12px; fill: rgb(42, 63, 95); fill-opacity: 1; white-space: pre;">May 2020</text></g><g class="x4tick"><text text-anchor="middle" x="0" y="735.4" transform="translate(579.71,0)" style="font-family: 'Open Sans', verdana, arial, sans-serif; font-size: 12px; fill: rgb(42, 63, 95); fill-opacity: 1; white-space: pre;">Jul 2020</text></g></g><g class="yaxislayer-above"><g class="y4tick"><text text-anchor="end" x="373.6" y="4.199999999999999" transform="translate(0,708.38)" style="font-family: 'Open Sans', verdana, arial, sans-serif; font-size: 12px; fill: rgb(42, 63, 95); fill-opacity: 1; white-space: pre;">0</text></g><g class="y4tick"><text text-anchor="end" x="373.6" y="4.199999999999999" transform="translate(0,664.38)" style="font-family: 'Open Sans', verdana, arial, sans-serif; font-size: 12px; fill: rgb(42, 63, 95); fill-opacity: 1; white-space: pre;">10</text></g><g class="y4tick"><text text-anchor="end" x="373.6" y="4.199999999999999" transform="translate(0,620.38)" style="font-family: 'Open Sans', verdana, arial, sans-serif; font-size: 12px; fill: rgb(42, 63, 95); fill-opacity: 1; white-space: pre;">20</text></g><g class="y4tick"><text text-anchor="end" x="373.6" y="4.199999999999999" transform="translate(0,576.38)" style="font-family: 'Open Sans', verdana, arial, sans-serif; font-size: 12px; fill: rgb(42, 63, 95); fill-opacity: 1; white-space: pre;">30</text></g><g class="y4tick"><text text-anchor="end" x="373.6" y="4.199999999999999" transform="translate(0,532.39)" style="font-family: 'Open Sans', verdana, arial, sans-serif; font-size: 12px; fill: rgb(42, 63, 95); fill-opacity: 1; white-space: pre;">40</text></g><g class="y4tick"><text text-anchor="end" x="373.6" y="4.199999999999999" transform="translate(0,488.39)" style="font-family: 'Open Sans', verdana, arial, sans-serif; font-size: 12px; fill: rgb(42, 63, 95); fill-opacity: 1; white-space: pre;">50</text></g></g><g class="overaxes-above"/></g></g><g class="polarlayer"/><g class="ternarylayer"/><g class="geolayer"/><g class="funnelarealayer"/><g class="pielayer"/><g class="treemaplayer"/><g class="sunburstlayer"/><g class="glimages"/><defs id="topdefs-0d10b3"><g class="clips"/></defs><g class="layer-above"><g class="imagelayer"/><g class="shapelayer"/></g><g class="infolayer"><g class="g-gtitle"><text class="gtitle" x="35" y="50" text-anchor="start" dy="0em" style="font-family: 'Open Sans', verdana, arial, sans-serif; font-size: 17px; fill: rgb(42, 63, 95); opacity: 1; font-weight: normal; white-space: pre;">% Day Wise</text></g><g class="g-xtitle"/><g class="g-x2title"/><g class="g-x3title"/><g class="g-x4title"/><g class="g-ytitle"/><g class="g-y2title"/><g class="g-y3title"/><g class="g-y4title"/><g class="annotation" data-index="0" style="opacity: 1;"><g class="annotation-text-g" transform="rotate(0,201.5,88.5)"><g class="cursor-pointer" transform="translate(122, 77)"><rect class="bg" x="0.5" y="0.5" width="159" height="22" style="stroke-width: 1px; stroke: rgb(0, 0, 0); stroke-opacity: 0; fill: rgb(0, 0, 0); fill-opacity: 0;"/><text class="annotation-text" text-anchor="middle" x="80" y="18" style="font-family: 'Open Sans', verdana, arial, sans-serif; font-size: 16px; fill: rgb(42, 63, 95); fill-opacity: 1; white-space: pre;">% Recovered cases</text></g></g></g><g class="annotation" data-index="1" style="opacity: 1;"><g class="annotation-text-g" transform="rotate(0,498.5,88.5)"><g class="cursor-pointer" transform="translate(457, 77)"><rect class="bg" x="0.5" y="0.5" width="82" height="22" style="stroke-width: 1px; stroke: rgb(0, 0, 0); stroke-opacity: 0; fill: rgb(0, 0, 0); fill-opacity: 0;"/><text class="annotation-text" text-anchor="middle" x="41.546875" y="18" style="font-family: 'Open Sans', verdana, arial, sans-serif; font-size: 16px; fill: rgb(42, 63, 95); fill-opacity: 1; white-space: pre;">% Deaths</text></g></g></g><g class="annotation" data-index="2" style="opacity: 1;"><g class="annotation-text-g" transform="rotate(0,201.5,476)"><g class="cursor-pointer" transform="translate(100, 465)"><rect class="bg" x="0.5" y="0.5" width="202" height="22" style="stroke-width: 1px; stroke: rgb(0, 0, 0); stroke-opacity: 0; fill: rgb(0, 0, 0); fill-opacity: 0;"/><text class="annotation-text" text-anchor="middle" x="101.671875" y="18" style="font-family: 'Open Sans', verdana, arial, sans-serif; font-size: 16px; fill: rgb(42, 63, 95); fill-opacity: 1; white-space: pre;">% Deaths Per Recovered</text></g></g></g><g class="annotation" data-index="3" style="opacity: 1;"><g class="annotation-text-g" transform="rotate(0,498.5,476)"><g class="cursor-pointer" transform="translate(442, 465)"><rect class="bg" x="0.5" y="0.5" width="113" height="22" style="stroke-width: 1px; stroke: rgb(0, 0, 0); stroke-opacity: 0; fill: rgb(0, 0, 0); fill-opacity: 0;"/><text class="annotation-text" text-anchor="middle" x="57.03125" y="18" style="font-family: 'Open Sans', verdana, arial, sans-serif; font-size: 16px; fill: rgb(42, 63, 95); fill-opacity: 1; white-space: pre;">% New Cases</text></g></g></g></g></svg>