<svg class="main-svg" xmlns="http://www.w3.org/2000/svg" xmlns:xlink="http://www.w3.org/1999/xlink" width="700" height="800" style="" viewBox="0 0 700 800"><rect x="0" y="0" width="700" height="800" style="fill: rgb(255, 255, 255); fill-opacity: 1;"/><defs id="defs-27374e"><g class="clips"><clipPath id="clip27374exyplot" class="plotclip"><rect width="243" height="232.5"/></clipPath><clipPath id="clip27374ex2y2plot" class="plotclip"><rect width="242.99999999999997" height="232.5"/></clipPath><clipPath id="clip27374ex3y3plot" class="plotclip"><rect width="243" height="232.5"/></clipPath><clipPath id="clip27374ex4y4plot" class="plotclip"><rect width="242.99999999999997" height="232.5"/></clipPath><clipPath class="axesclip" id="clip27374ex"><rect x="80" y="0" width="243" height="800"/></clipPath><clipPath class="axesclip" id="clip27374ey"><rect x="0" y="100" width="700" height="232.5"/></clipPath><clipPath class="axesclip" id="clip27374exy"><rect x="80" y="100" width="243" height="232.5"/></clipPath><clipPath class="axesclip" id="clip27374ey2"><rect x="0" y="100" width="700" height="232.5"/></clipPath><clipPath class="axesclip" id="clip27374exy2"><rect x="80" y="100" width="243" height="232.5"/></clipPath><clipPath class="axesclip" id="clip27374ey3"><rect x="0" y="487.5" width="700" height="232.5"/></clipPath><clipPath class="axesclip" id="clip27374exy3"><rect x="80" y="487.5" width="243" height="232.5"/></clipPath><clipPath class="axesclip" id="clip27374ey4"><rect x="0" y="487.5" width="700" height="232.5"/></clipPath><clipPath class="axesclip" id="clip27374exy4"><rect x="80" y="487.5" width="243" height="232.5"/></clipPath><clipPath class="axesclip" id="clip27374ex2"><rect x="377" y="0" width="242.99999999999997" height="800"/></clipPath><clipPath class="axesclip" id="clip27374ex2y"><rect x="377" y="100" width="242.99999999999997" height="232.5"/></clipPath><clipPath class="axesclip" id="clip27374ex2y2"><rect x="377" y="100" width="242.99999999999997" height="232.5"/></clipPath><clipPath class="axesclip" id="clip27374ex2y3"><rect x="377" y="487.5" width="242.99999999999997" height="232.5"/></clipPath><clipPath class="axesclip" id="clip27374ex2y4"><rect x="377" y="487.5" width="242.99999999999997" height="232.5"/></clipPath><clipPath class="axesclip" id="clip27374ex3"><rect x="80" y="0" width="243" height="800"/></clipPath><clipPath class="axesclip" id="clip27374ex3y"><rect x="80" y="100" width="243" height="232.5"/></clipPath><clipPath class="axesclip" id="clip27374ex3y2"><rect x="80" y="100" width="243" height="232.5"/></clipPath><clipPath class="axesclip" id="clip27374ex3y3"><rect x="80" y="487.5" width="243" height="232.5"/></clipPath><clipPath class="axesclip" id="clip27374ex3y4"><rect x="80" y="487.5" width="243" height="232.5"/></clipPath><clipPath class="axesclip" id="clip27374ex4"><rect x="377" y="0" width="242.99999999999997" height="800"/></clipPath><clipPath class="axesclip" id="clip27374ex4y"><rect x="377" y="100" width="242.99999999999997" height="232.5"/></clipPath><clipPath class="axesclip" id="clip27374ex4y2"><rect x="377" y="100" width="242.99999999999997" height="232.5"/></clipPath><clipPath class="axesclip" id="clip27374ex4y3"><rect x="377" y="487.5" width="242.99999999999997" height="232.5"/></clipPath><clipPath class="axesclip" id="clip27374ex4y4"><rect x="377" y="487.5" width="242.99999999999997" height="232.5"/></clipPath></g><g class="gradients"/></defs><g class="bglayer"><rect class="bg" x="80" y="100" width="243" height="232.5" style="fill: rgb(229, 236, 246); fill-opacity: 1; stroke-width: 0;"/><rect class="bg" x="377" y="100" width="242.99999999999997" height="232.5" style="fill: rgb(229, 236, 246); fill-opacity: 1; stroke-width: 0;"/><rect class="bg" x="80" y="487.5" width="243" height="232.5" style="fill: rgb(229, 236, 246); fill-opacity: 1; stroke-width: 0;"/><rect class="bg" x="377" y="487.5" width="242.99999999999997" height="232.5" style="fill: rgb(229, 236, 246); fill-opacity: 1; stroke-width: 0;"/></g><g class="layer-below"><g class="imagelayer"/><g class="shapelayer"/></g><g class="cartesianlayer"><g class="subplot xy"><g class="layer-subplot"><g class="shapelayer"/><g class="imagelayer"/></g><g class="gridlayer"><g class="x"><path class="xgrid crisp" transform="translate(96.99,0)" d="M0,100v232.5" style="stroke: rgb(255, 255, 255); stroke-opacity: 1; stroke-width: 1px;"/><path class="xgrid crisp" transform="translate(146.26999999999998,0)" d="M0,100v232.5" style="stroke: rgb(255, 255, 255); stroke-opacity: 1; stroke-width: 1px;"/><path class="xgrid crisp" transform="translate(198.95,0)" d="M0,100v232.5" style="stroke: rgb(255, 255, 255); stroke-opacity: 1; stroke-width: 1px;"/><path class="xgrid crisp" transform="translate(249.93,0)" d="M0,100v232.5" style="stroke: rgb(255, 255, 255); stroke-opacity: 1; stroke-width: 1px;"/><path class="xgrid crisp" transform="translate(302.61,0)" d="M0,100v232.5" style="stroke: rgb(255, 255, 255); stroke-opacity: 1; stroke-width: 1px;"/></g><g class="y"><path class="ygrid crisp" transform="translate(0,290.76)" d="M80,0h243" style="stroke: rgb(255, 255, 255); stroke-opacity: 1; stroke-width: 1px;"/><path class="ygrid crisp" transform="translate(0,254.3)" d="M80,0h243" style="stroke: rgb(255, 255, 255); stroke-opacity: 1; stroke-width: 1px;"/><path class="ygrid crisp" transform="translate(0,217.84)" d="M80,0h243" style="stroke: rgb(255, 255, 255); stroke-opacity: 1; stroke-width: 1px;"/><path class="ygrid crisp" transform="translate(0,181.38)" d="M80,0h243" style="stroke: rgb(255, 255, 255); stroke-opacity: 1; stroke-width: 1px;"/><path class="ygrid crisp" transform="translate(0,144.91)" d="M80,0h243" style="stroke: rgb(255, 255, 255); stroke-opacity: 1; stroke-width: 1px;"/><path class="ygrid crisp" transform="translate(0,108.45)" d="M80,0h243" style="stroke: rgb(255, 255, 255); stroke-opacity: 1; stroke-width: 1px;"/></g></g><g class="zerolinelayer"><path class="yzl zl crisp" transform="translate(0,327.22)" d="M80,0h243" style="stroke: rgb(255, 255, 255); stroke-opacity: 1; stroke-width: 2px;"/></g><path class="xlines-below"/><path class="ylines-below"/><g class="overlines-below"/><g class="xaxislayer-below"/><g class="yaxislayer-below"/><g class="overaxes-below"/><g class="plot" transform="translate(80, 100)" clip-path="url('#clip27374exyplot')"><g class="scatterlayer mlayer"><g class="trace scatter trace2701d6" style="stroke-miterlimit: 2; opacity: 1;"><g class="fills"/><g class="errorbars"/><g class="lines"><path class="js-line" d="M0,208.81L1.7,210.48L3.4,213.25L5.1,217.3L6.8,218.25L10.2,220.22L11.9,219.78L13.59,220.88L15.29,219.05L16.99,218.61L18.69,216.97L22.09,214.2L23.79,212.38L27.19,205.89L28.89,201.51L35.69,185.73L37.38,189.23L45.88,157.62L47.58,149.52L49.28,140.19L50.98,137.42L52.68,120.5L54.38,118.46L57.78,99.17L59.48,89L66.27,43.24L67.97,33.83L73.07,13.63L74.77,13.7L78.17,11.63L79.87,12.79L83.27,21L84.97,25.74L86.66,41.92L88.36,49.8L90.06,53.88L91.76,65.26L95.16,83.67L96.86,97.53L100.26,116.23L101.96,121.85L103.66,133L105.36,134.21L110.45,148.43L112.15,151.96L113.85,153.46L115.55,152.29L118.95,153.31L120.65,153.17L122.35,153.64L124.05,152.44L125.75,152.84L127.45,152.29L132.55,146.02L134.24,145.77L135.94,143.94L137.64,144.6L144.44,136.5L146.14,135.85L151.24,132.93L152.94,130.71L156.34,128.66L158.03,125.2L161.43,123.78L163.13,122.79L166.53,119.04L168.23,114.59L180.13,106.53L181.83,105.99L183.52,103.73L185.22,103.07L186.92,101.25L188.62,100.55L190.32,98.33L192.02,97.93L197.12,94.06L198.82,92.5L203.92,88.89L205.62,84.22L209.01,81.96L210.71,80.06L219.21,73.75L220.91,71.93L222.61,71.13L224.31,67.92L227.71,65.88L229.41,65.33L232.8,64.24L234.5,58.84L239.6,55.71L241.3,54.87L243,53.88" style="vector-effect: non-scaling-stroke; fill: none; stroke: rgb(40, 167, 69); stroke-opacity: 1; stroke-width: 2px; opacity: 1;"/></g><g class="points"/><g class="text"/></g></g></g><g class="overplot"/><path class="xlines-above crisp" d="M0,0" style="fill: none;"/><path class="ylines-above crisp" d="M0,0" style="fill: none;"/><g class="overlines-above"/><g class="xaxislayer-above"><g class="xtick"><text text-anchor="start" x="0" y="345.5" transform="translate(96.99,0) rotate(30,0,339.5)" style="font-family: 'Open Sans', verdana, arial, sans-serif; font-size: 12px; fill: rgb(42, 63, 95); fill-opacity: 1; white-space: pre;">Feb 2020</text></g><g class="xtick"><text text-anchor="start" x="0" y="345.5" transform="translate(146.26999999999998,0) rotate(30,0,339.5)" style="font-family: 'Open Sans', verdana, arial, sans-serif; font-size: 12px; fill: rgb(42, 63, 95); fill-opacity: 1; white-space: pre;">Mar 2020</text></g><g class="xtick"><text text-anchor="start" x="0" y="345.5" transform="translate(198.95,0) rotate(30,0,339.5)" style="font-family: 'Open Sans', verdana, arial, sans-serif; font-size: 12px; fill: rgb(42, 63, 95); fill-opacity: 1; white-space: pre;">Apr 2020</text></g><g class="xtick"><text text-anchor="start" x="0" y="345.5" transform="translate(249.93,0) rotate(30,0,339.5)" style="font-family: 'Open Sans', verdana, arial, sans-serif; font-size: 12px; fill: rgb(42, 63, 95); fill-opacity: 1; white-space: pre;">May 2020</text></g><g class="xtick"><text text-anchor="start" x="0" y="345.5" transform="translate(302.61,0) rotate(30,0,339.5)" style="font-family: 'Open Sans', verdana, arial, sans-serif; font-size: 12px; fill: rgb(42, 63, 95); fill-opacity: 1; white-space: pre;">Jun 2020</text></g></g><g class="yaxislayer-above"><g class="ytick"><text text-anchor="end" x="79" y="4.199999999999999" transform="translate(0,327.22)" style="font-family: 'Open Sans', verdana, arial, sans-serif; font-size: 12px; fill: rgb(42, 63, 95); fill-opacity: 1; white-space: pre;">0</text></g><g class="ytick"><text text-anchor="end" x="79" y="4.199999999999999" transform="translate(0,290.76)" style="font-family: 'Open Sans', verdana, arial, sans-serif; font-size: 12px; fill: rgb(42, 63, 95); fill-opacity: 1; white-space: pre;">10</text></g><g class="ytick"><text text-anchor="end" x="79" y="4.199999999999999" transform="translate(0,254.3)" style="font-family: 'Open Sans', verdana, arial, sans-serif; font-size: 12px; fill: rgb(42, 63, 95); fill-opacity: 1; white-space: pre;">20</text></g><g class="ytick"><text text-anchor="end" x="79" y="4.199999999999999" transform="translate(0,217.84)" style="font-family: 'Open Sans', verdana, arial, sans-serif; font-size: 12px; fill: rgb(42, 63, 95); fill-opacity: 1; white-space: pre;">30</text></g><g class="ytick"><text text-anchor="end" x="79" y="4.199999999999999" transform="translate(0,181.38)" style="font-family: 'Open Sans', verdana, arial, sans-serif; font-size: 12px; fill: rgb(42, 63, 95); fill-opacity: 1; white-space: pre;">40</text></g><g class="ytick"><text text-anchor="end" x="79" y="4.199999999999999" transform="translate(0,144.91)" style="font-family: 'Open Sans', verdana, arial, sans-serif; font-size: 12px; fill: rgb(42, 63, 95); fill-opacity: 1; white-space: pre;">50</text></g><g class="ytick"><text text-anchor="end" x="79" y="4.199999999999999" transform="translate(0,108.45)" style="font-family: 'Open Sans', verdana, arial, sans-serif; font-size: 12px; fill: rgb(42, 63, 95); fill-opacity: 1; white-space: pre;">60</text></g></g><g class="overaxes-above"/></g><g class="subplot x2y2"><g class="layer-subplot"><g class="shapelayer"/><g class="imagelayer"/></g><g class="gridlayer"><g class="x2"><path class="x2grid crisp" transform="translate(393.99,0)" d="M0,100v232.5" style="stroke: rgb(255, 255, 255); stroke-opacity: 1; stroke-width: 1px;"/><path class="x2grid crisp" transform="translate(443.27,0)" d="M0,100v232.5" style="stroke: rgb(255, 255, 255); stroke-opacity: 1; stroke-width: 1px;"/><path class="x2grid crisp" transform="translate(495.95,0)" d="M0,100v232.5" style="stroke: rgb(255, 255, 255); stroke-opacity: 1; stroke-width: 1px;"/><path class="x2grid crisp" transform="translate(546.9300000000001,0)" d="M0,100v232.5" style="stroke: rgb(255, 255, 255); stroke-opacity: 1; stroke-width: 1px;"/><path class="x2grid crisp" transform="translate(599.61,0)" d="M0,100v232.5" style="stroke: rgb(255, 255, 255); stroke-opacity: 1; stroke-width: 1px;"/></g><g class="y2"><path class="y2grid crisp" transform="translate(0,322.5)" d="M377,0h242.99999999999997" style="stroke: rgb(255, 255, 255); stroke-opacity: 1; stroke-width: 1px;"/><path class="y2grid crisp" transform="translate(0,281.87)" d="M377,0h242.99999999999997" style="stroke: rgb(255, 255, 255); stroke-opacity: 1; stroke-width: 1px;"/><path class="y2grid crisp" transform="translate(0,241.24)" d="M377,0h242.99999999999997" style="stroke: rgb(255, 255, 255); stroke-opacity: 1; stroke-width: 1px;"/><path class="y2grid crisp" transform="translate(0,200.61)" d="M377,0h242.99999999999997" style="stroke: rgb(255, 255, 255); stroke-opacity: 1; stroke-width: 1px;"/><path class="y2grid crisp" transform="translate(0,159.98)" d="M377,0h242.99999999999997" style="stroke: rgb(255, 255, 255); stroke-opacity: 1; stroke-width: 1px;"/><path class="y2grid crisp" transform="translate(0,119.34)" d="M377,0h242.99999999999997" style="stroke: rgb(255, 255, 255); stroke-opacity: 1; stroke-width: 1px;"/></g></g><g class="zerolinelayer"/><path class="xlines-below"/><path class="ylines-below"/><g class="overlines-below"/><g class="xaxislayer-below"/><g class="yaxislayer-below"/><g class="overaxes-below"/><g class="plot" transform="translate(377, 100)" clip-path="url('#clip27374ex2y2plot')"><g class="scatterlayer mlayer"><g class="trace scatter trace752bce" style="stroke-miterlimit: 2; opacity: 1;"><g class="fills"/><g class="errorbars"/><g class="lines"><path class="js-line" d="M0,179.03L1.7,191.62L3.4,191.21L5.1,184.71L6.8,196.09L8.5,189.59L10.2,208.28L11.9,216L13.59,219.25L15.29,216.41L16.99,216.41L18.69,216L20.39,216.81L22.09,220.06L23.79,220.88L27.19,218.84L28.89,215.59L32.29,207.47L33.99,202.59L35.69,203.4L37.38,211.53L39.08,211.12L40.78,205.84L44.18,200.15L45.88,195.28L49.28,183.9L50.98,184.31L52.68,176.18L54.38,176.18L56.08,168.46L57.78,165.62L62.87,161.55L64.57,160.33L66.27,160.74L67.97,159.12L69.67,158.71L71.37,157.49L73.07,157.08L74.77,157.9L76.47,159.12L78.17,155.05L79.87,153.02L81.57,149.36L84.97,143.68L86.66,145.3L88.36,145.71L90.06,140.02L95.16,132.3L96.86,132.71L101.96,121.74L103.66,120.52L107.06,111.98L108.76,111.17L113.85,102.23L115.55,96.54L118.95,84.76L120.65,77.04L124.05,67.7L125.75,65.26L127.45,59.98L129.15,50.22L134.24,37.63L135.94,35.19L137.64,37.22L139.34,34.78L142.74,24.63L144.44,23.41L146.14,18.13L147.84,16.09L149.54,18.13L151.24,18.13L154.64,12.84L156.34,12.44L159.73,12.03L161.43,14.47L163.13,14.88L164.83,13.25L166.53,11.63L168.23,12.03L171.63,14.06L173.33,16.5L175.03,17.72L176.73,17.72L178.43,17.72L180.13,18.53L183.52,21.38L185.22,23.41L186.92,25.03L188.62,25.03L190.32,25.44L192.02,27.06L195.42,29.91L197.12,31.94L200.52,35.19L202.22,36.82L207.31,41.69L209.01,44.13L210.71,47.38L212.41,48.6L215.81,51.44L217.51,53.48L222.61,59.98L224.31,61.19L231.1,68.1L232.8,70.13L241.3,77.04L243,78.67" style="vector-effect: non-scaling-stroke; fill: none; stroke: rgb(255, 7, 58); stroke-opacity: 1; stroke-width: 2px; opacity: 1;"/></g><g class="points"/><g class="text"/></g></g></g><g class="overplot"/><path class="xlines-above crisp" d="M0,0" style="fill: none;"/><path class="ylines-above crisp" d="M0,0" style="fill: none;"/><g class="overlines-above"/><g class="xaxislayer-above"><g class="x2tick"><text text-anchor="start" x="0" y="345.5" transform="translate(393.99,0) rotate(30,0,339.5)" style="font-family: 'Open Sans', verdana, arial, sans-serif; font-size: 12px; fill: rgb(42, 63, 95); fill-opacity: 1; white-space: pre;">Feb 2020</text></g><g class="x2tick"><text text-anchor="start" x="0" y="345.5" transform="translate(443.27,0) rotate(30,0,339.5)" style="font-family: 'Open Sans', verdana, arial, sans-serif; font-size: 12px; fill: rgb(42, 63, 95); fill-opacity: 1; white-space: pre;">Mar 2020</text></g><g class="x2tick"><text text-anchor="start" x="0" y="345.5" transform="translate(495.95,0) rotate(30,0,339.5)" style="font-family: 'Open Sans', verdana, arial, sans-serif; font-size: 12px; fill: rgb(42, 63, 95); fill-opacity: 1; white-space: pre;">Apr 2020</text></g><g class="x2tick"><text text-anchor="start" x="0" y="345.5" transform="translate(546.9300000000001,0) rotate(30,0,339.5)" style="font-family: 'Open Sans', verdana, arial, sans-serif; font-size: 12px; fill: rgb(42, 63, 95); fill-opacity: 1; white-space: pre;">May 2020</text></g><g class="x2tick"><text text-anchor="start" x="0" y="345.5" transform="translate(599.61,0) rotate(30,0,339.5)" style="font-family: 'Open Sans', verdana, arial, sans-serif; font-size: 12px; fill: rgb(42, 63, 95); fill-opacity: 1; white-space: pre;">Jun 2020</text></g></g><g class="yaxislayer-above"><g class="y2tick"><text text-anchor="end" x="376" y="4.199999999999999" transform="translate(0,322.5)" style="font-family: 'Open Sans', verdana, arial, sans-serif; font-size: 12px; fill: rgb(42, 63, 95); fill-opacity: 1; white-space: pre;">2</text></g><g class="y2tick"><text text-anchor="end" x="376" y="4.199999999999999" transform="translate(0,281.87)" style="font-family: 'Open Sans', verdana, arial, sans-serif; font-size: 12px; fill: rgb(42, 63, 95); fill-opacity: 1; white-space: pre;">3</text></g><g class="y2tick"><text text-anchor="end" x="376" y="4.199999999999999" transform="translate(0,241.24)" style="font-family: 'Open Sans', verdana, arial, sans-serif; font-size: 12px; fill: rgb(42, 63, 95); fill-opacity: 1; white-space: pre;">4</text></g><g class="y2tick"><text text-anchor="end" x="376" y="4.199999999999999" transform="translate(0,200.61)" style="font-family: 'Open Sans', verdana, arial, sans-serif; font-size: 12px; fill: rgb(42, 63, 95); fill-opacity: 1; white-space: pre;">5</text></g><g class="y2tick"><text text-anchor="end" x="376" y="4.199999999999999" transform="translate(0,159.98)" style="font-family: 'Open Sans', verdana, arial, sans-serif; font-size: 12px; fill: rgb(42, 63, 95); fill-opacity: 1; white-space: pre;">6</text></g><g class="y2tick"><text text-anchor="end" x="376" y="4.199999999999999" transform="translate(0,119.34)" style="font-family: 'Open Sans', verdana, arial, sans-serif; font-size: 12px; fill: rgb(42, 63, 95); fill-opacity: 1; white-space: pre;">7</text></g></g><g class="overaxes-above"/></g><g class="subplot x3y3"><g class="layer-subplot"><g class="shapelayer"/><g class="imagelayer"/></g><g class="gridlayer"><g class="x3"><path class="x3grid crisp" transform="translate(96.99,0)" d="M0,487.5v232.5" style="stroke: rgb(255, 255, 255); stroke-opacity: 1; stroke-width: 1px;"/><path class="x3grid crisp" transform="translate(146.26999999999998,0)" d="M0,487.5v232.5" style="stroke: rgb(255, 255, 255); stroke-opacity: 1; stroke-width: 1px;"/><path class="x3grid crisp" transform="translate(198.95,0)" d="M0,487.5v232.5" style="stroke: rgb(255, 255, 255); stroke-opacity: 1; stroke-width: 1px;"/><path class="x3grid crisp" transform="translate(249.93,0)" d="M0,487.5v232.5" style="stroke: rgb(255, 255, 255); stroke-opacity: 1; stroke-width: 1px;"/><path class="x3grid crisp" transform="translate(302.61,0)" d="M0,487.5v232.5" style="stroke: rgb(255, 255, 255); stroke-opacity: 1; stroke-width: 1px;"/></g><g class="y3"><path class="y3grid crisp" transform="translate(0,636.73)" d="M80,0h243" style="stroke: rgb(255, 255, 255); stroke-opacity: 1; stroke-width: 1px;"/><path class="y3grid crisp" transform="translate(0,555.24)" d="M80,0h243" style="stroke: rgb(255, 255, 255); stroke-opacity: 1; stroke-width: 1px;"/></g></g><g class="zerolinelayer"><path class="y3zl zl crisp" transform="translate(0,718.22)" d="M80,0h243" style="stroke: rgb(255, 255, 255); stroke-opacity: 1; stroke-width: 2px;"/></g><path class="xlines-below"/><path class="ylines-below"/><g class="overlines-below"/><g class="xaxislayer-below"/><g class="yaxislayer-below"/><g class="overaxes-below"/><g class="plot" transform="translate(80, 487.5)" clip-path="url('#clip27374ex3y3plot')"><g class="scatterlayer mlayer"><g class="trace scatter trace4bf626" style="stroke-miterlimit: 2; opacity: 1;"><g class="fills"/><g class="errorbars"/><g class="lines"><path class="js-line" d="M0,131.77L1.7,132.93L3.4,113.01L5.1,55.21L6.8,55.21L8.5,11.63L10.2,31.18L11.9,58.68L13.59,35.83L15.29,74.34L16.99,82.08L20.39,119.27L22.09,136.6L28.89,180.49L30.59,185.17L35.69,195.29L37.38,195.19L39.08,199.88L40.78,201.79L45.88,207.9L47.58,209.25L52.68,213.21L54.38,213.54L56.08,213.77L57.78,214.94L66.27,219.34L67.97,219.78L76.47,220.88L78.17,220.63L84.97,219.1L86.66,218.23L90.06,216.91L91.76,215.72L96.86,211.44L98.56,209.19L113.85,190.72L115.55,190.3L122.35,184.63L124.05,184.53L129.15,182.56L130.85,183.45L134.24,182.9L135.94,183.59L137.64,183.54L139.34,184.32L142.74,185.1L144.44,185.49L147.84,185.08L149.54,186.23L156.34,187.48L158.03,188.93L161.43,189.81L163.13,190.25L166.53,191.2L168.23,192.83L180.13,196.15L181.83,196.44L186.92,198.35L188.62,198.53L197.12,200.84L198.82,201.43L207.31,204.12L209.01,204.59L214.11,205.9L215.81,206.26L229.41,209.22L231.1,209.53L243,211.73" style="vector-effect: non-scaling-stroke; fill: none; stroke: rgb(22, 22, 23); stroke-opacity: 1; stroke-width: 2px; opacity: 1;"/></g><g class="points"/><g class="text"/></g></g></g><g class="overplot"/><path class="xlines-above crisp" d="M0,0" style="fill: none;"/><path class="ylines-above crisp" d="M0,0" style="fill: none;"/><g class="overlines-above"/><g class="xaxislayer-above"><g class="x3tick"><text text-anchor="start" x="0" y="733" transform="translate(96.99,0) rotate(30,0,727)" style="font-family: 'Open Sans', verdana, arial, sans-serif; font-size: 12px; fill: rgb(42, 63, 95); fill-opacity: 1; white-space: pre;">Feb 2020</text></g><g class="x3tick"><text text-anchor="start" x="0" y="733" transform="translate(146.26999999999998,0) rotate(30,0,727)" style="font-family: 'Open Sans', verdana, arial, sans-serif; font-size: 12px; fill: rgb(42, 63, 95); fill-opacity: 1; white-space: pre;">Mar 2020</text></g><g class="x3tick"><text text-anchor="start" x="0" y="733" transform="translate(198.95,0) rotate(30,0,727)" style="font-family: 'Open Sans', verdana, arial, sans-serif; font-size: 12px; fill: rgb(42, 63, 95); fill-opacity: 1; white-space: pre;">Apr 2020</text></g><g class="x3tick"><text text-anchor="start" x="0" y="733" transform="translate(249.93,0) rotate(30,0,727)" style="font-family: 'Open Sans', verdana, arial, sans-serif; font-size: 12px; fill: rgb(42, 63, 95); fill-opacity: 1; white-space: pre;">May 2020</text></g><g class="x3tick"><text text-anchor="start" x="0" y="733" transform="translate(302.61,0) rotate(30,0,727)" style="font-family: 'Open Sans', verdana, arial, sans-serif; font-size: 12px; fill: rgb(42, 63, 95); fill-opacity: 1; white-space: pre;">Jun 2020</text></g></g><g class="yaxislayer-above"><g class="y3tick"><text text-anchor="end" x="79" y="4.199999999999999" transform="translate(0,718.22)" style="font-family: 'Open Sans', verdana, arial, sans-serif; font-size: 12px; fill: rgb(42, 63, 95); fill-opacity: 1; white-space: pre;">0</text></g><g class="y3tick"><text text-anchor="end" x="79" y="4.199999999999999" transform="translate(0,636.73)" style="font-family: 'Open Sans', verdana, arial, sans-serif; font-size: 12px; fill: rgb(42, 63, 95); fill-opacity: 1; white-space: pre;">50</text></g><g class="y3tick"><text text-anchor="end" x="79" y="4.199999999999999" transform="translate(0,555.24)" style="font-family: 'Open Sans', verdana, arial, sans-serif; font-size: 12px; fill: rgb(42, 63, 95); fill-opacity: 1; white-space: pre;">100</text></g></g><g class="overaxes-above"/></g><g class="subplot x4y4"><g class="layer-subplot"><g class="shapelayer"/><g class="imagelayer"/></g><g class="gridlayer"><g class="x4"><path class="x4grid crisp" transform="translate(393.99,0)" d="M0,487.5v232.5" style="stroke: rgb(255, 255, 255); stroke-opacity: 1; stroke-width: 1px;"/><path class="x4grid crisp" transform="translate(443.27,0)" d="M0,487.5v232.5" style="stroke: rgb(255, 255, 255); stroke-opacity: 1; stroke-width: 1px;"/><path class="x4grid crisp" transform="translate(495.95,0)" d="M0,487.5v232.5" style="stroke: rgb(255, 255, 255); stroke-opacity: 1; stroke-width: 1px;"/><path class="x4grid crisp" transform="translate(546.9300000000001,0)" d="M0,487.5v232.5" style="stroke: rgb(255, 255, 255); stroke-opacity: 1; stroke-width: 1px;"/><path class="x4grid crisp" transform="translate(599.61,0)" d="M0,487.5v232.5" style="stroke: rgb(255, 255, 255); stroke-opacity: 1; stroke-width: 1px;"/></g><g class="y4"><path class="y4grid crisp" transform="translate(0,664.38)" d="M377,0h242.99999999999997" style="stroke: rgb(255, 255, 255); stroke-opacity: 1; stroke-width: 1px;"/><path class="y4grid crisp" transform="translate(0,620.38)" d="M377,0h242.99999999999997" style="stroke: rgb(255, 255, 255); stroke-opacity: 1; stroke-width: 1px;"/><path class="y4grid crisp" transform="translate(0,576.38)" d="M377,0h242.99999999999997" style="stroke: rgb(255, 255, 255); stroke-opacity: 1; stroke-width: 1px;"/><path class="y4grid crisp" transform="translate(0,532.39)" d="M377,0h242.99999999999997" style="stroke: rgb(255, 255, 255); stroke-opacity: 1; stroke-width: 1px;"/></g></g><g class="zerolinelayer"><path class="y4zl zl crisp" transform="translate(0,708.38)" d="M377,0h242.99999999999997" style="stroke: rgb(255, 255, 255); stroke-opacity: 1; stroke-width: 2px;"/></g><path class="xlines-below"/><path class="ylines-below"/><g class="overlines-below"/><g class="xaxislayer-below"/><g class="yaxislayer-below"/><g class="overaxes-below"/><g class="plot" transform="translate(377, 487.5)" clip-path="url('#clip27374ex4y4plot')"><g class="scatterlayer mlayer"><g class="trace scatter trace340be6" style="stroke-miterlimit: 2; opacity: 1;"><g class="fills"/><g class="errorbars"/><g class="lines"><path class="js-line" d="M0,220.88L3.4,86.86L5.1,69.39L6.8,78.81L8.5,99.27L10.2,11.63L11.9,178.9L13.59,110.31L15.29,146.08L16.99,143.66L18.69,96.36L20.39,152.37L22.09,146.96L25.49,175.78L27.19,174.85L28.89,188.49L30.59,187.66L33.99,200.86L35.69,216.78L37.38,110.44L39.08,177.98L40.78,207.19L42.48,207.32L45.88,209.88L47.58,217.93L50.98,217.88L52.68,212.3L54.38,219.64L56.08,218.98L57.78,216.96L59.48,217.09L61.17,216.26L62.87,216.61L64.57,215.11L66.27,211.68L67.97,214.01L69.67,212.43L71.37,211.81L73.07,209.83L74.77,205.08L76.47,204.95L78.17,204.99L79.87,205.87L81.57,201.82L83.27,194.43L84.97,202.66L86.66,175.38L88.36,188.32L90.06,191.35L91.76,184.4L93.46,185.02L95.16,180.31L96.86,170.63L100.26,173.31L101.96,177.23L103.66,172.3L105.36,177.76L108.76,168.61L110.45,172.79L112.15,175.51L113.85,184.36L115.55,185.15L117.25,182.2L118.95,184.93L120.65,185.55L124.05,190.65L125.75,194.78L127.45,196.94L129.15,197.12L130.85,195.8L132.55,196.59L134.24,196.28L135.94,200.99L137.64,197.07L139.34,204.64L141.04,205.08L142.74,203.63L144.44,201.16L146.14,203.36L147.84,206.84L149.54,205.7L151.24,207.68L152.94,207.94L154.64,207.72L156.34,206.4L158.03,205.48L159.73,207.81L163.13,210.84L164.83,210.27L169.93,209.22L171.63,210.32L175.03,211.46L176.73,211.15L178.43,210.05L180.13,210.27L181.83,210.32L183.52,211.55L186.92,212.82L188.62,212.25L190.32,212.25L192.02,211.2L195.42,212.03L197.12,213.4L203.92,211.68L205.62,211.77L210.71,213.88L212.41,213.4L219.21,211.5L220.91,213.18L222.61,214.1L224.31,213.04L226.01,211.99L227.71,212.47L229.41,212.21L231.1,212.78L234.5,214.45L236.2,213.4L239.6,212.78L241.3,214.06L243,213.26" style="vector-effect: non-scaling-stroke; fill: none; stroke: rgb(254, 152, 1); stroke-opacity: 1; stroke-width: 2px; opacity: 1;"/></g><g class="points"/><g class="text"/></g></g></g><g class="overplot"/><path class="xlines-above crisp" d="M0,0" style="fill: none;"/><path class="ylines-above crisp" d="M0,0" style="fill: none;"/><g class="overlines-above"/><g class="xaxislayer-above"><g class="x4tick"><text text-anchor="start" x="0" y="733" transform="translate(393.99,0) rotate(30,0,727)" style="font-family: 'Open Sans', verdana, arial, sans-serif; font-size: 12px; fill: rgb(42, 63, 95); fill-opacity: 1; white-space: pre;">Feb 2020</text></g><g class="x4tick"><text text-anchor="start" x="0" y="733" transform="translate(443.27,0) rotate(30,0,727)" style="font-family: 'Open Sans', verdana, arial, sans-serif; font-size: 12px; fill: rgb(42, 63, 95); fill-opacity: 1; white-space: pre;">Mar 2020</text></g><g class="x4tick"><text text-anchor="start" x="0" y="733" transform="translate(495.95,0) rotate(30,0,727)" style="font-family: 'Open Sans', verdana, arial, sans-serif; font-size: 12px; fill: rgb(42, 63, 95); fill-opacity: 1; white-space: pre;">Apr 2020</text></g><g class="x4tick"><text text-anchor="start" x="0" y="733" transform="translate(546.9300000000001,0) rotate(30,0,727)" style="font-family: 'Open Sans', verdana, arial, sans-serif; font-size: 12px; fill: rgb(42, 63, 95); fill-opacity: 1; white-space: pre;">May 2020</text></g><g class="x4tick"><text text-anchor="start" x="0" y="733" transform="translate(599.61,0) rotate(30,0,727)" style="font-family: 'Open Sans', verdana, arial, sans-serif; font-size: 12px; fill: rgb(42, 63, 95); fill-opacity: 1; white-space: pre;">Jun 2020</text></g></g><g class="yaxislayer-above"><g class="y4tick"><text text-anchor="end" x="376" y="4.199999999999999" transform="translate(0,708.38)" style="font-family: 'Open Sans', verdana, arial, sans-serif; font-size: 12px; fill: rgb(42, 63, 95); fill-opacity: 1; white-space: pre;">0</text></g><g class="y4tick"><text text-anchor="end" x="376" y="4.199999999999999" transform="translate(0,664.38)" style="font-family: 'Open Sans', verdana, arial, sans-serif; font-size: 12px; fill: rgb(42, 63, 95); fill-opacity: 1; white-space: pre;">10</text></g><g class="y4tick"><text text-anchor="end" x="376" y="4.199999999999999" transform="translate(0,620.38)" style="font-family: 'Open Sans', verdana, arial, sans-serif; font-size: 12px; fill: rgb(42, 63, 95); fill-opacity: 1; white-space: pre;">20</text></g><g class="y4tick"><text text-anchor="end" x="376" y="4.199999999999999" transform="translate(0,576.38)" style="font-family: 'Open Sans', verdana, arial, sans-serif; font-size: 12px; fill: rgb(42, 63, 95); fill-opacity: 1; white-space: pre;">30</text></g><g class="y4tick"><text text-anchor="end" x="376" y="4.199999999999999" transform="translate(0,532.39)" style="font-family: 'Open Sans', verdana, arial, sans-serif; font-size: 12px; fill: rgb(42, 63, 95); fill-opacity: 1; white-space: pre;">40</text></g><g class="y4tick"><text text-anchor="end" x="376" y="4.199999999999999" transform="translate(0,488.39)" style="font-family: 'Open Sans', verdana, arial, sans-serif; font-size: 12px; fill: rgb(42, 63, 95); fill-opacity: 1; white-space: pre;">50</text></g></g><g class="overaxes-above"/></g></g><g class="polarlayer"/><g class="ternarylayer"/><g class="geolayer"/><g class="funnelarealayer"/><g class="pielayer"/><g class="treemaplayer"/><g class="sunburstlayer"/><g class="glimages"/><defs id="topdefs-27374e"><g class="clips"/></defs><g class="layer-above"><g class="imagelayer"/><g class="shapelayer"/></g><g class="infolayer"><g class="g-gtitle"><text class="gtitle" x="35" y="50" text-anchor="start" dy="0em" style="font-family: 'Open Sans', verdana, arial, sans-serif; font-size: 17px; fill: rgb(42, 63, 95); opacity: 1; font-weight: normal; white-space: pre;">% Day Wise</text></g><g class="g-xtitle"/><g class="g-x2title"/><g class="g-x3title"/><g class="g-x4title"/><g class="g-ytitle"/><g class="g-y2title"/><g class="g-y3title"/><g class="g-y4title"/><g class="annotation" data-index="0" style="opacity: 1;"><g class="annotation-text-g" transform="rotate(0,201.5,89.5)"><g class="cursor-pointer" transform="translate(129, 79)"><rect class="bg" x="0.5" y="0.5" width="145" height="20" style="stroke-width: 1px; stroke: rgb(0, 0, 0); stroke-opacity: 0; fill: rgb(0, 0, 0); fill-opacity: 0;"/><text class="annotation-text" text-anchor="middle" x="73.15625" y="16" style="font-family: 'Open Sans', verdana, arial, sans-serif; font-size: 16px; fill: rgb(42, 63, 95); fill-opacity: 1; white-space: pre;">% Recovered cases</text></g></g></g><g class="annotation" data-index="1" style="opacity: 1;"><g class="annotation-text-g" transform="rotate(0,498.5,89.5)"><g class="cursor-pointer" transform="translate(462, 79)"><rect class="bg" x="0.5" y="0.5" width="72" height="20" style="stroke-width: 1px; stroke: rgb(0, 0, 0); stroke-opacity: 0; fill: rgb(0, 0, 0); fill-opacity: 0;"/><text class="annotation-text" text-anchor="middle" x="36.6875" y="16" style="font-family: 'Open Sans', verdana, arial, sans-serif; font-size: 16px; fill: rgb(42, 63, 95); fill-opacity: 1; white-space: pre;">% Deaths</text></g></g></g><g class="annotation" data-index="2" style="opacity: 1;"><g class="annotation-text-g" transform="rotate(0,201.5,477)"><g class="cursor-pointer" transform="translate(109, 467)"><rect class="bg" x="0.5" y="0.5" width="184" height="20" style="stroke-width: 1px; stroke: rgb(0, 0, 0); stroke-opacity: 0; fill: rgb(0, 0, 0); fill-opacity: 0;"/><text class="annotation-text" text-anchor="middle" x="92.265625" y="16" style="font-family: 'Open Sans', verdana, arial, sans-serif; font-size: 16px; fill: rgb(42, 63, 95); fill-opacity: 1; white-space: pre;">% Deaths Per Recovered</text></g></g></g><g class="annotation" data-index="3" style="opacity: 1;"><g class="annotation-text-g" transform="rotate(0,498.5,477)"><g class="cursor-pointer" transform="translate(446, 467)"><rect class="bg" x="0.5" y="0.5" width="104" height="20" style="stroke-width: 1px; stroke: rgb(0, 0, 0); stroke-opacity: 0; fill: rgb(0, 0, 0); fill-opacity: 0;"/><text class="annotation-text" text-anchor="middle" x="52.25" y="16" style="font-family: 'Open Sans', verdana, arial, sans-serif; font-size: 16px; fill: rgb(42, 63, 95); fill-opacity: 1; white-space: pre;">% New Cases</text></g></g></g></g></svg>