<svg class="main-svg" xmlns="http://www.w3.org/2000/svg" xmlns:xlink="http://www.w3.org/1999/xlink" width="700" height="600" style="" viewBox="0 0 700 600"><rect x="0" y="0" width="700" height="600" style="fill: rgb(255, 255, 255); fill-opacity: 1;"/><defs id="defs-f4d76e"><g class="clips"><clipPath id="clipf4d76exyplot" class="plotclip"><rect width="494" height="326"/></clipPath><clipPath class="axesclip" id="clipf4d76ex"><rect x="80" y="0" width="494" height="600"/></clipPath><clipPath class="axesclip" id="clipf4d76ey"><rect x="0" y="100" width="700" height="326"/></clipPath><clipPath class="axesclip" id="clipf4d76exy"><rect x="80" y="100" width="494" height="326"/></clipPath></g><g class="gradients"/></defs><g class="bglayer"><rect class="bg" x="80" y="100" width="494" height="326" style="fill: rgb(229, 236, 246); fill-opacity: 1; stroke-width: 0;"/></g><g class="layer-below"><g class="imagelayer"/><g class="shapelayer"/></g><g class="cartesianlayer"><g class="subplot xy"><g class="layer-subplot"><g class="shapelayer"/><g class="imagelayer"/></g><g class="gridlayer"><g class="x"><path class="xgrid crisp" transform="translate(115.03999999999999,0)" d="M0,100v326" style="stroke: rgb(255, 255, 255); stroke-opacity: 1; stroke-width: 1px;"/><path class="xgrid crisp" transform="translate(216.64,0)" d="M0,100v326" style="stroke: rgb(255, 255, 255); stroke-opacity: 1; stroke-width: 1px;"/><path class="xgrid crisp" transform="translate(325.25,0)" d="M0,100v326" style="stroke: rgb(255, 255, 255); stroke-opacity: 1; stroke-width: 1px;"/><path class="xgrid crisp" transform="translate(430.35,0)" d="M0,100v326" style="stroke: rgb(255, 255, 255); stroke-opacity: 1; stroke-width: 1px;"/><path class="xgrid crisp" transform="translate(538.96,0)" d="M0,100v326" style="stroke: rgb(255, 255, 255); stroke-opacity: 1; stroke-width: 1px;"/></g><g class="y"><path class="ygrid crisp" transform="translate(0,384.69)" d="M80,0h494" style="stroke: rgb(255, 255, 255); stroke-opacity: 1; stroke-width: 1px;"/><path class="ygrid crisp" transform="translate(0,343.38)" d="M80,0h494" style="stroke: rgb(255, 255, 255); stroke-opacity: 1; stroke-width: 1px;"/><path class="ygrid crisp" transform="translate(0,302.07)" d="M80,0h494" style="stroke: rgb(255, 255, 255); stroke-opacity: 1; stroke-width: 1px;"/><path class="ygrid crisp" transform="translate(0,260.76)" d="M80,0h494" style="stroke: rgb(255, 255, 255); stroke-opacity: 1; stroke-width: 1px;"/><path class="ygrid crisp" transform="translate(0,219.45)" d="M80,0h494" style="stroke: rgb(255, 255, 255); stroke-opacity: 1; stroke-width: 1px;"/><path class="ygrid crisp" transform="translate(0,178.14)" d="M80,0h494" style="stroke: rgb(255, 255, 255); stroke-opacity: 1; stroke-width: 1px;"/><path class="ygrid crisp" transform="translate(0,136.82999999999998)" d="M80,0h494" style="stroke: rgb(255, 255, 255); stroke-opacity: 1; stroke-width: 1px;"/></g></g><g class="zerolinelayer"><path class="yzl zl crisp" transform="translate(0,426)" d="M80,0h494" style="stroke: rgb(255, 255, 255); stroke-opacity: 1; stroke-width: 2px;"/></g><path class="xlines-below"/><path class="ylines-below"/><g class="overlines-below"/><g class="xaxislayer-below"/><g class="yaxislayer-below"/><g class="overaxes-below"/><g class="plot" transform="translate(80, 100)" clip-path="url('#clipf4d76exyplot')"><g class="scatterlayer mlayer"><g class="trace scatter tracee95a2a" style="stroke-miterlimit: 2;"><g class="fills"><g><path class="js-fill" d="M494,326L0,326L0,326L101.6,325.25L105.11,325.22L154.16,323.7L157.66,323.59L220.72,321.45L224.23,321.13L241.74,318.88L245.25,318.26L266.27,313.9L269.77,312.72L297.8,303.98L301.3,302.9L315.32,298.27L318.82,297.02L322.33,295.84L325.83,293.78L339.84,288.94L343.35,287.2L346.85,284.52L350.35,282.94L371.38,273.48L374.88,271.97L381.89,268.38L385.39,266.44L392.4,262.6L395.9,260.97L416.92,248.22L420.43,246.1L423.93,241.64L427.43,239.37L441.45,229.57L444.95,226.81L455.46,217.57L458.96,215.31L465.97,207.75L469.48,204.86L479.99,196.76L483.49,190.5L494,180.3" style="fill: rgb(40, 167, 69); fill-opacity: 0.5; stroke-width: 0;"/></g><g><path class="js-fill" d="M0,326L98.1,325.25L101.6,325.16L136.64,324.12L140.14,323.99L213.72,321.37L217.22,320.91L234.74,318.61L238.24,317.81L259.26,312.54L262.77,311.62L294.3,299.45L297.8,297.88L322.33,287.86L325.83,285.54L339.84,279.84L343.35,277.82L346.85,274.9L350.35,273.11L360.87,268.15L364.37,266.4L378.38,258.26L381.89,256.73L409.91,239.65L413.42,237.33L420.43,232.38L423.93,227.7L441.45,214.92L444.95,211.97L455.46,202.24L458.96,199.83L465.97,191.85L469.48,188.75L479.99,180.17L483.49,173.75L494,162.94L494,180.3L483.49,190.5L479.99,196.76L469.48,204.86L465.97,207.75L458.96,215.31L455.46,217.57L444.95,226.81L441.45,229.57L427.43,239.37L423.93,241.64L420.43,246.1L416.92,248.22L395.9,260.97L392.4,262.6L385.39,266.44L381.89,268.38L374.88,271.97L371.38,273.48L350.35,282.94L346.85,284.52L343.35,287.2L339.84,288.94L325.83,293.78L322.33,295.84L318.82,297.02L315.32,298.27L301.3,302.9L297.8,303.98L269.77,312.72L266.27,313.9L245.25,318.26L241.74,318.88L224.23,321.13L220.72,321.45L157.66,323.59L154.16,323.7L105.11,325.22L101.6,325.25L0,326Z" style="fill: rgb(108, 117, 125); fill-opacity: 0.5; stroke-width: 0;"/></g></g><g class="errorbars"/><g class="lines"><path class="js-line" d="M0,326L101.6,325.25L105.11,325.22L154.16,323.7L157.66,323.59L220.72,321.45L224.23,321.13L241.74,318.88L245.25,318.26L266.27,313.9L269.77,312.72L297.8,303.98L301.3,302.9L315.32,298.27L318.82,297.02L322.33,295.84L325.83,293.78L339.84,288.94L343.35,287.2L346.85,284.52L350.35,282.94L371.38,273.48L374.88,271.97L381.89,268.38L385.39,266.44L392.4,262.6L395.9,260.97L416.92,248.22L420.43,246.1L423.93,241.64L427.43,239.37L441.45,229.57L444.95,226.81L455.46,217.57L458.96,215.31L465.97,207.75L469.48,204.86L479.99,196.76L483.49,190.5L494,180.3" style="vector-effect: non-scaling-stroke; fill: none; stroke: rgb(40, 167, 69); stroke-opacity: 1; stroke-width: 2px; opacity: 1;"/></g><g class="points"/><g class="text"/></g><g class="trace scatter trace14aad9" style="stroke-miterlimit: 2;"><g class="fills"><g><path class="js-fill" d="M0,325.98L42.04,325.18L45.55,325.01L108.61,322.77L112.11,322.76L157.66,321.92L161.16,321.77L178.68,320.33L182.18,319.88L196.2,317.46L199.7,316.33L213.72,310.74L217.22,309.09L224.23,304.49L227.73,301.85L245.25,287.85L248.75,284.52L262.77,271.83L266.27,268.73L287.29,247.72L290.79,244.8L325.83,210.92L329.33,207.4L346.85,191.85L350.35,188.2L371.38,167.53L374.88,163.69L399.4,138.86L402.91,135.03L413.42,124.15L416.92,120.06L430.94,103.13L434.44,99.55L441.45,91.41L444.95,86.55L455.46,71.77L458.96,67.65L469.48,52.51L472.98,46.82L479.99,36.9L483.49,32.62L494,16.3L494,162.94L483.49,173.75L479.99,180.17L469.48,188.75L465.97,191.85L458.96,199.83L455.46,202.24L444.95,211.97L441.45,214.92L423.93,227.7L420.43,232.38L413.42,237.33L409.91,239.65L381.89,256.73L378.38,258.26L364.37,266.4L360.87,268.15L350.35,273.11L346.85,274.9L343.35,277.82L339.84,279.84L325.83,285.54L322.33,287.86L297.8,297.88L294.3,299.45L262.77,311.62L259.26,312.54L238.24,317.81L234.74,318.61L217.22,320.91L213.72,321.37L140.14,323.99L136.64,324.12L101.6,325.16L98.1,325.25L0,326Z" style="fill: rgb(255, 7, 58); fill-opacity: 0.5; stroke-width: 0;"/></g></g><g class="errorbars"/><g class="lines"><path class="js-line" d="M0,326L98.1,325.25L101.6,325.16L136.64,324.12L140.14,323.99L213.72,321.37L217.22,320.91L234.74,318.61L238.24,317.81L259.26,312.54L262.77,311.62L294.3,299.45L297.8,297.88L322.33,287.86L325.83,285.54L339.84,279.84L343.35,277.82L346.85,274.9L350.35,273.11L360.87,268.15L364.37,266.4L378.38,258.26L381.89,256.73L409.91,239.65L413.42,237.33L420.43,232.38L423.93,227.7L441.45,214.92L444.95,211.97L455.46,202.24L458.96,199.83L465.97,191.85L469.48,188.75L479.99,180.17L483.49,173.75L494,162.94" style="vector-effect: non-scaling-stroke; fill: none; stroke: rgb(108, 117, 125); stroke-opacity: 1; stroke-width: 2px; opacity: 1;"/></g><g class="points"/><g class="text"/></g><g class="trace scatter tracefc0305" style="stroke-miterlimit: 2;"><g class="fills"/><g class="errorbars"/><g class="lines"><path class="js-line" d="M0,325.98L42.04,325.18L45.55,325.01L108.61,322.77L112.11,322.76L157.66,321.92L161.16,321.77L178.68,320.33L182.18,319.88L196.2,317.46L199.7,316.33L213.72,310.74L217.22,309.09L224.23,304.49L227.73,301.85L245.25,287.85L248.75,284.52L262.77,271.83L266.27,268.73L287.29,247.72L290.79,244.8L325.83,210.92L329.33,207.4L346.85,191.85L350.35,188.2L371.38,167.53L374.88,163.69L399.4,138.86L402.91,135.03L413.42,124.15L416.92,120.06L430.94,103.13L434.44,99.55L441.45,91.41L444.95,86.55L455.46,71.77L458.96,67.65L469.48,52.51L472.98,46.82L479.99,36.9L483.49,32.62L494,16.3" style="vector-effect: non-scaling-stroke; fill: none; stroke: rgb(255, 7, 58); stroke-opacity: 1; stroke-width: 2px; opacity: 1;"/></g><g class="points"/><g class="text"/></g></g></g><g class="overplot"/><path class="xlines-above crisp" style="fill: none;" d="M0,0"/><path class="ylines-above crisp" style="fill: none;" d="M0,0"/><g class="overlines-above"/><g class="xaxislayer-above"><g class="xtick"><text text-anchor="middle" x="0" y="439" transform="translate(115.03999999999999,0)" style="font-family: 'Open Sans', verdana, arial, sans-serif; font-size: 12px; fill: rgb(42, 63, 95); fill-opacity: 1; white-space: pre;">Feb 2020</text></g><g class="xtick"><text text-anchor="middle" x="0" y="439" transform="translate(216.64,0)" style="font-family: 'Open Sans', verdana, arial, sans-serif; font-size: 12px; fill: rgb(42, 63, 95); fill-opacity: 1; white-space: pre;">Mar 2020</text></g><g class="xtick"><text text-anchor="middle" x="0" y="439" transform="translate(325.25,0)" style="font-family: 'Open Sans', verdana, arial, sans-serif; font-size: 12px; fill: rgb(42, 63, 95); fill-opacity: 1; white-space: pre;">Apr 2020</text></g><g class="xtick"><text text-anchor="middle" x="0" y="439" transform="translate(430.35,0)" style="font-family: 'Open Sans', verdana, arial, sans-serif; font-size: 12px; fill: rgb(42, 63, 95); fill-opacity: 1; white-space: pre;">May 2020</text></g><g class="xtick"><text text-anchor="middle" x="0" y="439" transform="translate(538.96,0)" style="font-family: 'Open Sans', verdana, arial, sans-serif; font-size: 12px; fill: rgb(42, 63, 95); fill-opacity: 1; white-space: pre;">Jun 2020</text></g></g><g class="yaxislayer-above"><g class="ytick"><text text-anchor="end" x="79" y="4.199999999999999" transform="translate(0,426)" style="font-family: 'Open Sans', verdana, arial, sans-serif; font-size: 12px; fill: rgb(42, 63, 95); fill-opacity: 1; white-space: pre;">0</text></g><g class="ytick"><text text-anchor="end" x="79" y="4.199999999999999" transform="translate(0,384.69)" style="font-family: 'Open Sans', verdana, arial, sans-serif; font-size: 12px; fill: rgb(42, 63, 95); fill-opacity: 1; white-space: pre;">1M</text></g><g class="ytick"><text text-anchor="end" x="79" y="4.199999999999999" transform="translate(0,343.38)" style="font-family: 'Open Sans', verdana, arial, sans-serif; font-size: 12px; fill: rgb(42, 63, 95); fill-opacity: 1; white-space: pre;">2M</text></g><g class="ytick"><text text-anchor="end" x="79" y="4.199999999999999" transform="translate(0,302.07)" style="font-family: 'Open Sans', verdana, arial, sans-serif; font-size: 12px; fill: rgb(42, 63, 95); fill-opacity: 1; white-space: pre;">3M</text></g><g class="ytick"><text text-anchor="end" x="79" y="4.199999999999999" transform="translate(0,260.76)" style="font-family: 'Open Sans', verdana, arial, sans-serif; font-size: 12px; fill: rgb(42, 63, 95); fill-opacity: 1; white-space: pre;">4M</text></g><g class="ytick"><text text-anchor="end" x="79" y="4.199999999999999" transform="translate(0,219.45)" style="font-family: 'Open Sans', verdana, arial, sans-serif; font-size: 12px; fill: rgb(42, 63, 95); fill-opacity: 1; white-space: pre;">5M</text></g><g class="ytick"><text text-anchor="end" x="79" y="4.199999999999999" transform="translate(0,178.14)" style="font-family: 'Open Sans', verdana, arial, sans-serif; font-size: 12px; fill: rgb(42, 63, 95); fill-opacity: 1; white-space: pre;">6M</text></g><g class="ytick"><text text-anchor="end" x="79" y="4.199999999999999" transform="translate(0,136.82999999999998)" style="font-family: 'Open Sans', verdana, arial, sans-serif; font-size: 12px; fill: rgb(42, 63, 95); fill-opacity: 1; white-space: pre;">7M</text></g></g><g class="overaxes-above"/></g></g><g class="polarlayer"/><g class="ternarylayer"/><g class="geolayer"/><g class="funnelarealayer"/><g class="pielayer"/><g class="treemaplayer"/><g class="sunburstlayer"/><g class="glimages"/><defs id="topdefs-f4d76e"><g class="clips"/><clipPath id="legendf4d76e"><rect width="104" height="83" x="0" y="0"/></clipPath><clipPath id="rangesliderx-f4d76e"><rect x="0" y="0" width="494" height="63"/></clipPath></defs><g class="layer-above"><g class="imagelayer"/><g class="shapelayer"/></g><g class="infolayer"><g class="legend" pointer-events="all" transform="translate(583.88, 100)"><rect class="bg" shape-rendering="crispEdges" style="stroke: rgb(68, 68, 68); stroke-opacity: 1; fill: rgb(255, 255, 255); fill-opacity: 1; stroke-width: 0px;" width="104" height="83" x="0" y="0"/><g class="scrollbox" transform="translate(0, 0)" clip-path="url('#legendf4d76e')"><text class="legendtitletext user-select-none" text-anchor="start" x="2" y="15.600000000000001" style="font-family: 'Open Sans', verdana, arial, sans-serif; font-size: 12px; fill: rgb(42, 63, 95); fill-opacity: 1; white-space: pre;">Case</text><g class="groups" transform="translate(0, 0)"><g class="traces" transform="translate(0, 30.1)" style="opacity: 1;"><text class="legendtext user-select-none" text-anchor="start" x="40" y="4.680000000000001" style="font-family: 'Open Sans', verdana, arial, sans-serif; font-size: 12px; fill: rgb(42, 63, 95); fill-opacity: 1; white-space: pre;">Recovered</text><g class="layers"><g class="legendfill"><path class="js-fill" d="M5,-2h30v6h-30z" style="stroke-width: 0; fill: rgb(40, 167, 69); fill-opacity: 0.5;"/></g><g class="legendlines"><path class="js-line" d="M5,-2h30" style="fill: none; stroke: rgb(40, 167, 69); stroke-opacity: 1; stroke-width: 2px;"/></g><g class="legendsymbols"><g class="legendpoints"/></g></g><rect class="legendtoggle" pointer-events="all" x="0" y="-9.5" width="98.03125" height="19" style="cursor: pointer; fill: rgb(0, 0, 0); fill-opacity: 0;"/></g></g><g class="groups" transform="translate(0, 0)"><g class="traces" transform="translate(0, 49.1)" style="opacity: 1;"><text class="legendtext user-select-none" text-anchor="start" x="40" y="4.680000000000001" style="font-family: 'Open Sans', verdana, arial, sans-serif; font-size: 12px; fill: rgb(42, 63, 95); fill-opacity: 1; white-space: pre;">Deaths</text><g class="layers"><g class="legendfill"><path class="js-fill" d="M5,-2h30v6h-30z" style="stroke-width: 0; fill: rgb(108, 117, 125); fill-opacity: 0.5;"/></g><g class="legendlines"><path class="js-line" d="M5,-2h30" style="fill: none; stroke: rgb(108, 117, 125); stroke-opacity: 1; stroke-width: 2px;"/></g><g class="legendsymbols"><g class="legendpoints"/></g></g><rect class="legendtoggle" pointer-events="all" x="0" y="-9.5" width="98.03125" height="19" style="cursor: pointer; fill: rgb(0, 0, 0); fill-opacity: 0;"/></g></g><g class="groups" transform="translate(0, 0)"><g class="traces" transform="translate(0, 68.1)" style="opacity: 1;"><text class="legendtext user-select-none" text-anchor="start" x="40" y="4.680000000000001" style="font-family: 'Open Sans', verdana, arial, sans-serif; font-size: 12px; fill: rgb(42, 63, 95); fill-opacity: 1; white-space: pre;">Active</text><g class="layers"><g class="legendfill"><path class="js-fill" d="M5,-2h30v6h-30z" style="stroke-width: 0; fill: rgb(255, 7, 58); fill-opacity: 0.5;"/></g><g class="legendlines"><path class="js-line" d="M5,-2h30" style="fill: none; stroke: rgb(255, 7, 58); stroke-opacity: 1; stroke-width: 2px;"/></g><g class="legendsymbols"><g class="legendpoints"/></g></g><rect class="legendtoggle" pointer-events="all" x="0" y="-9.5" width="98.03125" height="19" style="cursor: pointer; fill: rgb(0, 0, 0); fill-opacity: 0;"/></g></g></g><rect class="scrollbar" rx="20" ry="3" width="0" height="0" x="0" y="0" style="fill: rgb(128, 139, 164); fill-opacity: 1;"/></g><g class="g-gtitle"><text class="gtitle" x="35" y="50" text-anchor="start" dy="0em" style="font-family: 'Open Sans', verdana, arial, sans-serif; font-size: 17px; fill: rgb(42, 63, 95); opacity: 1; font-weight: normal; white-space: pre;">Cases over time</text></g><g class="rangeslider-container" pointer-events="all" transform="translate(80,457)"><rect class="rangeslider-bg" x="0" y="0" shape-rendering="crispEdges" width="494" height="63" transform="translate(0,0)" fill="#E5ECF6" stroke="#444" stroke-width="0"/><g class="rangeslider-rangeplot xy" clip-path="url('#rangesliderx-f4d76e')"><g class="layer-subplot"><g class="shapelayer"/><g class="imagelayer"/></g><g class="gridlayer"><g class="x"/><g class="y"/></g><g class="zerolinelayer"/><path class="xlines-below"/><path class="ylines-below"/><g class="overlines-below"/><g class="xaxislayer-below"/><g class="yaxislayer-below"/><g class="overaxes-below"/><g class="plot"><g class="scatterlayer mlayer rangeplot"><g class="trace scatter tracee95a2a" style="stroke-miterlimit: 2;"><g class="fills"><g><path class="js-fill" d="M494,63L0,63L0,63L206.71,62.28L210.21,62.24L245.25,61.5L248.75,61.37L290.79,59.28L294.3,58.99L367.87,53.17L371.38,52.85L406.41,49.27L409.91,48.85L437.94,44.87L441.45,44.36L479.99,38.02L483.49,36.81L494,34.84" style="fill: rgb(40, 167, 69); fill-opacity: 0.5; stroke-width: 0;"/></g><g><path class="js-fill" d="M0,63L199.7,62.26L203.21,62.22L245.25,61.11L248.75,60.93L290.79,58.23L294.3,57.87L371.38,50.7L374.88,50.37L444.95,40.96L448.45,40.31L479.99,34.82L483.49,33.58L494,31.49L494,34.84L483.49,36.81L479.99,38.02L441.45,44.36L437.94,44.87L409.91,48.85L406.41,49.27L371.38,52.85L367.87,53.17L294.3,58.99L290.79,59.28L248.75,61.37L245.25,61.5L210.21,62.24L206.71,62.28L0,63Z" style="fill: rgb(108, 117, 125); fill-opacity: 0.5; stroke-width: 0;"/></g></g><g class="errorbars"/><g class="lines"><path class="js-line" d="M0,63L206.71,62.28L210.21,62.24L245.25,61.5L248.75,61.37L290.79,59.28L294.3,58.99L367.87,53.17L371.38,52.85L406.41,49.27L409.91,48.85L437.94,44.87L441.45,44.36L479.99,38.02L483.49,36.81L494,34.84" style="vector-effect: non-scaling-stroke; fill: none; stroke: rgb(40, 167, 69); stroke-opacity: 1; stroke-width: 2px; opacity: 1;"/></g><g class="points"/><g class="text"/></g><g class="trace scatter trace14aad9" style="stroke-miterlimit: 2;"><g class="fills"><g><path class="js-fill" d="M0,63L182.18,61.82L185.69,61.73L213.72,60.05L217.22,59.73L238.24,56.83L241.74,56.23L297.8,45.9L301.3,45.2L392.4,28.39L395.9,27.61L448.45,15.76L451.96,14.73L476.48,8.03L479.99,7.13L494,3.15L494,31.49L483.49,33.58L479.99,34.82L448.45,40.31L444.95,40.96L374.88,50.37L371.38,50.7L294.3,57.87L290.79,58.23L248.75,60.93L245.25,61.11L203.21,62.22L199.7,62.26L0,63Z" style="fill: rgb(255, 7, 58); fill-opacity: 0.5; stroke-width: 0;"/></g></g><g class="errorbars"/><g class="lines"><path class="js-line" d="M0,63L199.7,62.26L203.21,62.22L245.25,61.11L248.75,60.93L290.79,58.23L294.3,57.87L371.38,50.7L374.88,50.37L444.95,40.96L448.45,40.31L479.99,34.82L483.49,33.58L494,31.49" style="vector-effect: non-scaling-stroke; fill: none; stroke: rgb(108, 117, 125); stroke-opacity: 1; stroke-width: 2px; opacity: 1;"/></g><g class="points"/><g class="text"/></g><g class="trace scatter tracefc0305" style="stroke-miterlimit: 2;"><g class="fills"/><g class="errorbars"/><g class="lines"><path class="js-line" d="M0,63L182.18,61.82L185.69,61.73L213.72,60.05L217.22,59.73L238.24,56.83L241.74,56.23L297.8,45.9L301.3,45.2L392.4,28.39L395.9,27.61L448.45,15.76L451.96,14.73L476.48,8.03L479.99,7.13L494,3.15" style="vector-effect: non-scaling-stroke; fill: none; stroke: rgb(255, 7, 58); stroke-opacity: 1; stroke-width: 2px; opacity: 1;"/></g><g class="points"/><g class="text"/></g></g></g><g class="overplot"/><path class="xlines-above crisp" style="fill: none;"/><path class="ylines-above crisp" style="fill: none;"/><g class="overlines-above"/><g class="xaxislayer-above"/><g class="yaxislayer-above"/><g class="overaxes-above"/></g><rect class="rangeslider-mask-min" x="0" y="0" shape-rendering="crispEdges" height="63" width="0" style="fill: rgb(0, 0, 0); fill-opacity: 0.4;"/><rect class="rangeslider-mask-max" y="0" shape-rendering="crispEdges" height="63" x="494" width="0" style="fill: rgb(0, 0, 0); fill-opacity: 0.4;"/><g class="rangeslider-grabber-min" transform="translate(-2.5,0.5)"><rect class="rangeslider-handle-min" x="0" width="4" rx="1" fill="#fff" stroke="#444" stroke-width="1" shape-rendering="crispEdges" y="16" height="32"/></g><g class="rangeslider-grabber-max" transform="translate(492.5,0.5)"><rect class="rangeslider-handle-max" x="0" width="4" rx="1" fill="#fff" stroke="#444" stroke-width="1" shape-rendering="crispEdges" y="16" height="32"/></g></g><g class="g-ytitle"><text class="ytitle" transform="rotate(-90,37.528125,263)" x="37.528125" y="263" text-anchor="middle" style="font-family: 'Open Sans', verdana, arial, sans-serif; font-size: 14px; fill: rgb(42, 63, 95); opacity: 1; font-weight: normal; white-space: pre;">Count</text></g><g class="g-xtitle"><text class="xtitle" x="327" y="551" text-anchor="middle" style="font-family: 'Open Sans', verdana, arial, sans-serif; font-size: 14px; fill: rgb(42, 63, 95); opacity: 1; font-weight: normal; white-space: pre;">Date</text></g></g></svg>