<svg class="main-svg" xmlns="http://www.w3.org/2000/svg" xmlns:xlink="http://www.w3.org/1999/xlink" width="700" height="600" style="" viewBox="0 0 700 600"><rect x="0" y="0" width="700" height="600" style="fill: rgb(255, 255, 255); fill-opacity: 1;"/><defs id="defs-926b1f"><g class="clips"><clipPath id="clip926b1fxyplot" class="plotclip"><rect width="490" height="324"/></clipPath><clipPath class="axesclip" id="clip926b1fx"><rect x="80" y="0" width="490" height="600"/></clipPath><clipPath class="axesclip" id="clip926b1fy"><rect x="0" y="100" width="700" height="324"/></clipPath><clipPath class="axesclip" id="clip926b1fxy"><rect x="80" y="100" width="490" height="324"/></clipPath></g><g class="gradients"/></defs><g class="bglayer"><rect class="bg" x="80" y="100" width="490" height="324" style="fill: rgb(229, 236, 246); fill-opacity: 1; stroke-width: 0;"/></g><g class="layer-below"><g class="imagelayer"/><g class="shapelayer"/></g><g class="cartesianlayer"><g class="subplot xy"><g class="layer-subplot"><g class="shapelayer"/><g class="imagelayer"/></g><g class="gridlayer"><g class="x"><path class="xgrid crisp" transform="translate(161.32,0)" d="M0,100v324" style="stroke: rgb(255, 255, 255); stroke-opacity: 1; stroke-width: 1px;"/><path class="xgrid crisp" transform="translate(288.51,0)" d="M0,100v324" style="stroke: rgb(255, 255, 255); stroke-opacity: 1; stroke-width: 1px;"/><path class="xgrid crisp" transform="translate(415.7,0)" d="M0,100v324" style="stroke: rgb(255, 255, 255); stroke-opacity: 1; stroke-width: 1px;"/><path class="xgrid crisp" transform="translate(544.98,0)" d="M0,100v324" style="stroke: rgb(255, 255, 255); stroke-opacity: 1; stroke-width: 1px;"/></g><g class="y"><path class="ygrid crisp" transform="translate(0,370.86)" d="M80,0h490" style="stroke: rgb(255, 255, 255); stroke-opacity: 1; stroke-width: 1px;"/><path class="ygrid crisp" transform="translate(0,317.71000000000004)" d="M80,0h490" style="stroke: rgb(255, 255, 255); stroke-opacity: 1; stroke-width: 1px;"/><path class="ygrid crisp" transform="translate(0,264.57)" d="M80,0h490" style="stroke: rgb(255, 255, 255); stroke-opacity: 1; stroke-width: 1px;"/><path class="ygrid crisp" transform="translate(0,211.43)" d="M80,0h490" style="stroke: rgb(255, 255, 255); stroke-opacity: 1; stroke-width: 1px;"/><path class="ygrid crisp" transform="translate(0,158.29)" d="M80,0h490" style="stroke: rgb(255, 255, 255); stroke-opacity: 1; stroke-width: 1px;"/><path class="ygrid crisp" transform="translate(0,105.14)" d="M80,0h490" style="stroke: rgb(255, 255, 255); stroke-opacity: 1; stroke-width: 1px;"/></g></g><g class="zerolinelayer"><path class="yzl zl crisp" transform="translate(0,424)" d="M80,0h490" style="stroke: rgb(255, 255, 255); stroke-opacity: 1; stroke-width: 2px;"/></g><path class="xlines-below"/><path class="ylines-below"/><g class="overlines-below"/><g class="xaxislayer-below"/><g class="yaxislayer-below"/><g class="overaxes-below"/><g class="plot" transform="translate(80, 100)" clip-path="url('#clip926b1fxyplot')"><g class="scatterlayer mlayer"><g class="trace scatter trace4c0d3e" style="stroke-miterlimit: 2;"><g class="fills"><g><path class="js-fill" d="M490,324L0,324L0,324L106.34,323.26L108.43,323.23L145.96,322.01L148.04,321.83L168.89,319.6L170.98,319.31L193.91,315.71L196,315.41L208.51,312.92L210.6,312.49L231.45,308.28L233.53,307.69L246.04,304.61L248.13,303.99L256.47,301.12L258.55,300.45L268.98,296.91L271.06,296.1L275.23,294.42L277.32,293.58L285.66,290.75L287.74,289.14L310.68,278.99L312.77,277.76L319.02,274.95L321.11,273.72L335.7,266.05L337.79,263.03L339.87,261.86L341.96,259.78L352.38,252.55L354.47,251.07L364.89,243.86L366.98,242.24L371.15,238.69L373.23,237.76L381.57,230.53L383.66,228.1L387.83,224.27L389.91,222.47L396.17,216.12L398.26,214.01L406.6,205.88L408.68,203.53L419.11,193.71L421.19,190.47L429.53,181.33L431.62,178.87L490,115.72" style="fill: rgb(40, 167, 69); fill-opacity: 0.5; stroke-width: 0;"/></g><g><path class="js-fill" d="M0,324L100.09,323.27L102.17,323.24L135.53,322.36L137.62,322.23L156.38,320.29L158.47,319.96L206.43,310.82L208.51,310.35L246.04,301.15L248.13,300.47L258.55,296.74L260.64,296.11L275.23,290.36L277.32,289.46L285.66,286.46L287.74,284.81L310.68,274.1L312.77,272.82L319.02,269.88L321.11,268.6L335.7,260.6L337.79,257.52L339.87,256.31L341.96,254.18L350.3,248.18L352.38,246.7L369.06,234L371.15,232.33L375.32,229.63L377.4,227.71L394.09,211.45L396.17,209.02L419.11,185.95L421.19,182.64L431.62,170.7L433.7,168.41L444.13,157.1L446.21,154.77L462.89,136.48L464.98,133.7L490,105.91L490,115.72L431.62,178.87L429.53,181.33L421.19,190.47L419.11,193.71L408.68,203.53L406.6,205.88L398.26,214.01L396.17,216.12L389.91,222.47L387.83,224.27L383.66,228.1L381.57,230.53L373.23,237.76L371.15,238.69L366.98,242.24L364.89,243.86L354.47,251.07L352.38,252.55L341.96,259.78L339.87,261.86L337.79,263.03L335.7,266.05L321.11,273.72L319.02,274.95L312.77,277.76L310.68,278.99L287.74,289.14L285.66,290.75L277.32,293.58L275.23,294.42L271.06,296.1L268.98,296.91L258.55,300.45L256.47,301.12L248.13,303.99L246.04,304.61L233.53,307.69L231.45,308.28L210.6,312.49L208.51,312.92L196,315.41L193.91,315.71L170.98,319.31L168.89,319.6L148.04,321.83L145.96,322.01L108.43,323.23L106.34,323.26L0,324Z" style="fill: rgb(108, 117, 125); fill-opacity: 0.5; stroke-width: 0;"/></g></g><g class="errorbars"/><g class="lines"><path class="js-line" d="M0,324L106.34,323.26L108.43,323.23L145.96,322.01L148.04,321.83L168.89,319.6L170.98,319.31L193.91,315.71L196,315.41L208.51,312.92L210.6,312.49L231.45,308.28L233.53,307.69L246.04,304.61L248.13,303.99L256.47,301.12L258.55,300.45L268.98,296.91L271.06,296.1L275.23,294.42L277.32,293.58L285.66,290.75L287.74,289.14L310.68,278.99L312.77,277.76L319.02,274.95L321.11,273.72L335.7,266.05L337.79,263.03L339.87,261.86L341.96,259.78L352.38,252.55L354.47,251.07L364.89,243.86L366.98,242.24L371.15,238.69L373.23,237.76L381.57,230.53L383.66,228.1L387.83,224.27L389.91,222.47L396.17,216.12L398.26,214.01L406.6,205.88L408.68,203.53L419.11,193.71L421.19,190.47L429.53,181.33L431.62,178.87L490,115.72" style="vector-effect: non-scaling-stroke; fill: none; stroke: rgb(40, 167, 69); stroke-opacity: 1; stroke-width: 2px; opacity: 1;"/></g><g class="points"/><g class="text"/></g><g class="trace scatter traceb6b7fc" style="stroke-miterlimit: 2;"><g class="fills"><g><path class="js-fill" d="M0,323.99L52.13,323.24L54.21,323.22L112.6,322.14L114.68,321.97L125.11,320.46L127.19,320.01L135.53,317.68L137.62,316.96L148.04,313.16L150.13,312.28L243.96,273.06L246.04,272.03L273.15,257.39L275.23,256.11L296.09,242.82L298.17,241.37L310.68,232.28L312.77,230.6L319.02,226.02L321.11,224.2L339.87,206.48L341.96,204.42L350.3,196.22L352.38,193.8L373.23,170.08L375.32,167.89L381.57,159.42L383.66,156.44L446.21,75.42L448.3,73.02L454.55,64.43L456.64,61.44L483.74,25.05L485.83,21.65L490,16.2L490,105.91L464.98,133.7L462.89,136.48L446.21,154.77L444.13,157.1L433.7,168.41L431.62,170.7L421.19,182.64L419.11,185.95L396.17,209.02L394.09,211.45L377.4,227.71L375.32,229.63L371.15,232.33L369.06,234L352.38,246.7L350.3,248.18L341.96,254.18L339.87,256.31L337.79,257.52L335.7,260.6L321.11,268.6L319.02,269.88L312.77,272.82L310.68,274.1L287.74,284.81L285.66,286.46L277.32,289.46L275.23,290.36L260.64,296.11L258.55,296.74L248.13,300.47L246.04,301.15L208.51,310.35L206.43,310.82L158.47,319.96L156.38,320.29L137.62,322.23L135.53,322.36L102.17,323.24L100.09,323.27L0,324Z" style="fill: rgb(255, 7, 58); fill-opacity: 0.5; stroke-width: 0;"/></g></g><g class="errorbars"/><g class="lines"><path class="js-line" d="M0,324L100.09,323.27L102.17,323.24L135.53,322.36L137.62,322.23L156.38,320.29L158.47,319.96L206.43,310.82L208.51,310.35L246.04,301.15L248.13,300.47L258.55,296.74L260.64,296.11L275.23,290.36L277.32,289.46L285.66,286.46L287.74,284.81L310.68,274.1L312.77,272.82L319.02,269.88L321.11,268.6L335.7,260.6L337.79,257.52L339.87,256.31L341.96,254.18L350.3,248.18L352.38,246.7L369.06,234L371.15,232.33L375.32,229.63L377.4,227.71L394.09,211.45L396.17,209.02L419.11,185.95L421.19,182.64L431.62,170.7L433.7,168.41L444.13,157.1L446.21,154.77L462.89,136.48L464.98,133.7L490,105.91" style="vector-effect: non-scaling-stroke; fill: none; stroke: rgb(108, 117, 125); stroke-opacity: 1; stroke-width: 2px; opacity: 1;"/></g><g class="points"/><g class="text"/></g><g class="trace scatter trace3ffbd0" style="stroke-miterlimit: 2;"><g class="fills"/><g class="errorbars"/><g class="lines"><path class="js-line" d="M0,323.99L52.13,323.24L54.21,323.22L112.6,322.14L114.68,321.97L125.11,320.46L127.19,320.01L135.53,317.68L137.62,316.96L148.04,313.16L150.13,312.28L243.96,273.06L246.04,272.03L273.15,257.39L275.23,256.11L296.09,242.82L298.17,241.37L310.68,232.28L312.77,230.6L319.02,226.02L321.11,224.2L339.87,206.48L341.96,204.42L350.3,196.22L352.38,193.8L373.23,170.08L375.32,167.89L381.57,159.42L383.66,156.44L446.21,75.42L448.3,73.02L454.55,64.43L456.64,61.44L483.74,25.05L485.83,21.65L490,16.2" style="vector-effect: non-scaling-stroke; fill: none; stroke: rgb(255, 7, 58); stroke-opacity: 1; stroke-width: 2px; opacity: 1;"/></g><g class="points"/><g class="text"/></g></g></g><g class="overplot"/><path class="xlines-above crisp" style="fill: none; stroke-width: 1px; stroke: rgb(255, 255, 255); stroke-opacity: 1;" d="M79,424.5H570"/><path class="ylines-above crisp" style="fill: none; stroke-width: 1px; stroke: rgb(255, 255, 255); stroke-opacity: 1;" d="M79.5,100V424"/><g class="overlines-above"/><g class="xaxislayer-above"><g class="xtick"><text text-anchor="middle" x="0" y="439.4" transform="translate(161.32,0)" style="font-family: 'Open Sans', verdana, arial, sans-serif; font-size: 12px; fill: rgb(42, 63, 95); fill-opacity: 1; white-space: pre;">Mar 2020</text></g><g class="xtick"><text text-anchor="middle" x="0" y="439.4" transform="translate(288.51,0)" style="font-family: 'Open Sans', verdana, arial, sans-serif; font-size: 12px; fill: rgb(42, 63, 95); fill-opacity: 1; white-space: pre;">May 2020</text></g><g class="xtick"><text text-anchor="middle" x="0" y="439.4" transform="translate(415.7,0)" style="font-family: 'Open Sans', verdana, arial, sans-serif; font-size: 12px; fill: rgb(42, 63, 95); fill-opacity: 1; white-space: pre;">Jul 2020</text></g><g class="xtick"><text text-anchor="middle" x="0" y="439.4" transform="translate(544.98,0)" style="font-family: 'Open Sans', verdana, arial, sans-serif; font-size: 12px; fill: rgb(42, 63, 95); fill-opacity: 1; white-space: pre;">Sep 2020</text></g></g><g class="yaxislayer-above"><g class="ytick"><text text-anchor="end" x="76.6" y="4.199999999999999" transform="translate(0,424)" style="font-family: 'Open Sans', verdana, arial, sans-serif; font-size: 12px; fill: rgb(42, 63, 95); fill-opacity: 1; white-space: pre;">0</text></g><g class="ytick"><text text-anchor="end" x="76.6" y="4.199999999999999" transform="translate(0,370.86)" style="font-family: 'Open Sans', verdana, arial, sans-serif; font-size: 12px; fill: rgb(42, 63, 95); fill-opacity: 1; white-space: pre;">5M</text></g><g class="ytick"><text text-anchor="end" x="76.6" y="4.199999999999999" transform="translate(0,317.71000000000004)" style="font-family: 'Open Sans', verdana, arial, sans-serif; font-size: 12px; fill: rgb(42, 63, 95); fill-opacity: 1; white-space: pre;">10M</text></g><g class="ytick"><text text-anchor="end" x="76.6" y="4.199999999999999" transform="translate(0,264.57)" style="font-family: 'Open Sans', verdana, arial, sans-serif; font-size: 12px; fill: rgb(42, 63, 95); fill-opacity: 1; white-space: pre;">15M</text></g><g class="ytick"><text text-anchor="end" x="76.6" y="4.199999999999999" transform="translate(0,211.43)" style="font-family: 'Open Sans', verdana, arial, sans-serif; font-size: 12px; fill: rgb(42, 63, 95); fill-opacity: 1; white-space: pre;">20M</text></g><g class="ytick"><text text-anchor="end" x="76.6" y="4.199999999999999" transform="translate(0,158.29)" style="font-family: 'Open Sans', verdana, arial, sans-serif; font-size: 12px; fill: rgb(42, 63, 95); fill-opacity: 1; white-space: pre;">25M</text></g><g class="ytick"><text text-anchor="end" x="76.6" y="4.199999999999999" transform="translate(0,105.14)" style="font-family: 'Open Sans', verdana, arial, sans-serif; font-size: 12px; fill: rgb(42, 63, 95); fill-opacity: 1; white-space: pre;">30M</text></g></g><g class="overaxes-above"/></g></g><g class="polarlayer"/><g class="ternarylayer"/><g class="geolayer"/><g class="funnelarealayer"/><g class="pielayer"/><g class="treemaplayer"/><g class="sunburstlayer"/><g class="glimages"/><defs id="topdefs-926b1f"><g class="clips"/><clipPath id="legend926b1f"><rect width="108" height="83" x="0" y="0"/></clipPath><clipPath id="rangesliderx-926b1f"><rect x="0" y="0" width="490" height="63"/></clipPath></defs><g class="layer-above"><g class="imagelayer"/><g class="shapelayer"/></g><g class="infolayer"><g class="legend" pointer-events="all" transform="translate(579.8, 100)"><rect class="bg" shape-rendering="crispEdges" style="stroke: rgb(68, 68, 68); stroke-opacity: 1; fill: rgb(255, 255, 255); fill-opacity: 1; stroke-width: 0px;" width="108" height="83" x="0" y="0"/><g class="scrollbox" transform="translate(0, 0)" clip-path="url('#legend926b1f')"><text class="legendtitletext user-select-none" text-anchor="start" x="2" y="15.600000000000001" style="font-family: 'Open Sans', verdana, arial, sans-serif; font-size: 12px; fill: rgb(42, 63, 95); fill-opacity: 1; white-space: pre;">Case</text><g class="groups" transform="translate(0, 0)"><g class="traces" transform="translate(0, 30.1)" style="opacity: 1;"><text class="legendtext user-select-none" text-anchor="start" x="40" y="4.680000000000001" style="font-family: 'Open Sans', verdana, arial, sans-serif; font-size: 12px; fill: rgb(42, 63, 95); fill-opacity: 1; white-space: pre;">Recovered</text><g class="layers"><g class="legendfill"><path class="js-fill" d="M5,-2h30v6h-30z" style="stroke-width: 0; fill: rgb(40, 167, 69); fill-opacity: 0.5;"/></g><g class="legendlines"><path class="js-line" d="M5,-2h30" style="fill: none; stroke: rgb(40, 167, 69); stroke-opacity: 1; stroke-width: 2px;"/></g><g class="legendsymbols"><g class="legendpoints"/></g></g><rect class="legendtoggle" pointer-events="all" x="0" y="-9.5" width="102.546875" height="19" style="cursor: pointer; fill: rgb(0, 0, 0); fill-opacity: 0;"/></g></g><g class="groups" transform="translate(0, 0)"><g class="traces" transform="translate(0, 49.1)" style="opacity: 1;"><text class="legendtext user-select-none" text-anchor="start" x="40" y="4.680000000000001" style="font-family: 'Open Sans', verdana, arial, sans-serif; font-size: 12px; fill: rgb(42, 63, 95); fill-opacity: 1; white-space: pre;">Deaths</text><g class="layers"><g class="legendfill"><path class="js-fill" d="M5,-2h30v6h-30z" style="stroke-width: 0; fill: rgb(108, 117, 125); fill-opacity: 0.5;"/></g><g class="legendlines"><path class="js-line" d="M5,-2h30" style="fill: none; stroke: rgb(108, 117, 125); stroke-opacity: 1; stroke-width: 2px;"/></g><g class="legendsymbols"><g class="legendpoints"/></g></g><rect class="legendtoggle" pointer-events="all" x="0" y="-9.5" width="102.546875" height="19" style="cursor: pointer; fill: rgb(0, 0, 0); fill-opacity: 0;"/></g></g><g class="groups" transform="translate(0, 0)"><g class="traces" transform="translate(0, 68.1)" style="opacity: 1;"><text class="legendtext user-select-none" text-anchor="start" x="40" y="4.680000000000001" style="font-family: 'Open Sans', verdana, arial, sans-serif; font-size: 12px; fill: rgb(42, 63, 95); fill-opacity: 1; white-space: pre;">Active</text><g class="layers"><g class="legendfill"><path class="js-fill" d="M5,-2h30v6h-30z" style="stroke-width: 0; fill: rgb(255, 7, 58); fill-opacity: 0.5;"/></g><g class="legendlines"><path class="js-line" d="M5,-2h30" style="fill: none; stroke: rgb(255, 7, 58); stroke-opacity: 1; stroke-width: 2px;"/></g><g class="legendsymbols"><g class="legendpoints"/></g></g><rect class="legendtoggle" pointer-events="all" x="0" y="-9.5" width="102.546875" height="19" style="cursor: pointer; fill: rgb(0, 0, 0); fill-opacity: 0;"/></g></g></g><rect class="scrollbar" rx="20" ry="3" width="0" height="0" x="0" y="0" style="fill: rgb(128, 139, 164); fill-opacity: 1;"/></g><g class="g-gtitle"><text class="gtitle" x="35" y="50" text-anchor="start" dy="0em" style="font-family: 'Open Sans', verdana, arial, sans-serif; font-size: 17px; fill: rgb(42, 63, 95); opacity: 1; font-weight: normal; white-space: pre;">Cases over time</text></g><g class="rangeslider-container" pointer-events="all" transform="translate(80,457)"><rect class="rangeslider-bg" x="0" y="0" shape-rendering="crispEdges" width="490" height="63" transform="translate(0,0)" fill="#E5ECF6" stroke="#444" stroke-width="0"/><g class="rangeslider-rangeplot xy" clip-path="url('#rangesliderx-926b1f')"><g class="layer-subplot"><g class="shapelayer"/><g class="imagelayer"/></g><g class="gridlayer"><g class="x"/><g class="y"/></g><g class="zerolinelayer"/><path class="xlines-below"/><path class="ylines-below"/><g class="overlines-below"/><g class="xaxislayer-below"/><g class="yaxislayer-below"/><g class="overaxes-below"/><g class="plot"><g class="scatterlayer mlayer rangeplot"><g class="trace scatter trace4c0d3e" style="stroke-miterlimit: 2;"><g class="fills"><g><path class="js-fill" d="M490,63L0,63L0,63L162.64,62.28L164.72,62.24L246.04,59.23L248.13,59.11L285.66,56.53L287.74,56.22L335.7,51.73L337.79,51.14L362.81,47.75L364.89,47.42L396.17,42.02L398.26,41.61L425.36,36.2L427.45,35.61L448.3,31.35L450.38,30.87L490,22.5" style="fill: rgb(40, 167, 69); fill-opacity: 0.5; stroke-width: 0;"/></g><g><path class="js-fill" d="M0,63L156.38,62.28L158.47,62.21L246.04,58.56L248.13,58.43L285.66,55.7L287.74,55.38L335.7,50.67L337.79,50.07L362.81,46.56L364.89,46.22L396.17,40.64L398.26,40.22L425.36,34.65L427.45,34.04L446.21,30.09L448.3,29.67L490,20.59L490,22.5L450.38,30.87L448.3,31.35L427.45,35.61L425.36,36.2L398.26,41.61L396.17,42.02L364.89,47.42L362.81,47.75L337.79,51.14L335.7,51.73L287.74,56.22L285.66,56.53L248.13,59.11L246.04,59.23L164.72,62.24L162.64,62.28L0,63Z" style="fill: rgb(108, 117, 125); fill-opacity: 0.5; stroke-width: 0;"/></g></g><g class="errorbars"/><g class="lines"><path class="js-line" d="M0,63L162.64,62.28L164.72,62.24L246.04,59.23L248.13,59.11L285.66,56.53L287.74,56.22L335.7,51.73L337.79,51.14L362.81,47.75L364.89,47.42L396.17,42.02L398.26,41.61L425.36,36.2L427.45,35.61L448.3,31.35L450.38,30.87L490,22.5" style="vector-effect: non-scaling-stroke; fill: none; stroke: rgb(40, 167, 69); stroke-opacity: 1; stroke-width: 2px; opacity: 1;"/></g><g class="points"/><g class="text"/></g><g class="trace scatter traceb6b7fc" style="stroke-miterlimit: 2;"><g class="fills"><g><path class="js-fill" d="M0,63L125.11,62.31L127.19,62.22L152.21,60.55L154.3,60.41L235.62,53.83L237.7,53.64L291.91,47.77L294,47.48L327.36,42.46L329.45,42.13L350.3,38.15L352.38,37.68L406.6,24.74L408.68,24.18L433.7,17.84L435.79,17.31L490,3.15L490,20.59L448.3,29.67L446.21,30.09L427.45,34.04L425.36,34.65L398.26,40.22L396.17,40.64L364.89,46.22L362.81,46.56L337.79,50.07L335.7,50.67L287.74,55.38L285.66,55.7L248.13,58.43L246.04,58.56L158.47,62.21L156.38,62.28L0,63Z" style="fill: rgb(255, 7, 58); fill-opacity: 0.5; stroke-width: 0;"/></g></g><g class="errorbars"/><g class="lines"><path class="js-line" d="M0,63L156.38,62.28L158.47,62.21L246.04,58.56L248.13,58.43L285.66,55.7L287.74,55.38L335.7,50.67L337.79,50.07L362.81,46.56L364.89,46.22L396.17,40.64L398.26,40.22L425.36,34.65L427.45,34.04L446.21,30.09L448.3,29.67L490,20.59" style="vector-effect: non-scaling-stroke; fill: none; stroke: rgb(108, 117, 125); stroke-opacity: 1; stroke-width: 2px; opacity: 1;"/></g><g class="points"/><g class="text"/></g><g class="trace scatter trace3ffbd0" style="stroke-miterlimit: 2;"><g class="fills"/><g class="errorbars"/><g class="lines"><path class="js-line" d="M0,63L125.11,62.31L127.19,62.22L152.21,60.55L154.3,60.41L235.62,53.83L237.7,53.64L291.91,47.77L294,47.48L327.36,42.46L329.45,42.13L350.3,38.15L352.38,37.68L406.6,24.74L408.68,24.18L433.7,17.84L435.79,17.31L490,3.15" style="vector-effect: non-scaling-stroke; fill: none; stroke: rgb(255, 7, 58); stroke-opacity: 1; stroke-width: 2px; opacity: 1;"/></g><g class="points"/><g class="text"/></g></g></g><g class="overplot"/><path class="xlines-above crisp" style="fill: none;"/><path class="ylines-above crisp" style="fill: none;"/><g class="overlines-above"/><g class="xaxislayer-above"/><g class="yaxislayer-above"/><g class="overaxes-above"/></g><rect class="rangeslider-mask-min" x="0" y="0" shape-rendering="crispEdges" height="63" width="0" style="fill: rgb(0, 0, 0); fill-opacity: 0.4;"/><rect class="rangeslider-mask-max" y="0" shape-rendering="crispEdges" height="63" x="490" width="0" style="fill: rgb(0, 0, 0); fill-opacity: 0.4;"/><g class="rangeslider-grabber-min" transform="translate(-2.5,0.5)"><rect class="rangeslider-handle-min" x="0" width="4" rx="1" fill="#fff" stroke="#444" stroke-width="1" shape-rendering="crispEdges" y="16" height="32"/></g><g class="rangeslider-grabber-max" transform="translate(488.5,0.5)"><rect class="rangeslider-handle-max" x="0" width="4" rx="1" fill="#fff" stroke="#444" stroke-width="1" shape-rendering="crispEdges" y="16" height="32"/></g></g><g class="g-ytitle"><text class="ytitle" transform="rotate(-90,26.418750000000003,262)" x="26.418750000000003" y="262" text-anchor="middle" style="font-family: 'Open Sans', verdana, arial, sans-serif; font-size: 14px; fill: rgb(42, 63, 95); opacity: 1; font-weight: normal; white-space: pre;">Count</text></g><g class="g-xtitle"><text class="xtitle" x="325" y="551" text-anchor="middle" style="font-family: 'Open Sans', verdana, arial, sans-serif; font-size: 14px; fill: rgb(42, 63, 95); opacity: 1; font-weight: normal; white-space: pre;">Date</text></g></g></svg>