<svg class="main-svg" xmlns="http://www.w3.org/2000/svg" xmlns:xlink="http://www.w3.org/1999/xlink" width="700" height="600" style="" viewBox="0 0 700 600"><rect x="0" y="0" width="700" height="600" style="fill: rgb(255, 255, 255); fill-opacity: 1;"/><defs id="defs-f59fe8"><g class="clips"><clipPath id="clipf59fe8xyplot" class="plotclip"><rect width="494" height="326"/></clipPath><clipPath class="axesclip" id="clipf59fe8x"><rect x="80" y="0" width="494" height="600"/></clipPath><clipPath class="axesclip" id="clipf59fe8y"><rect x="0" y="100" width="700" height="326"/></clipPath><clipPath class="axesclip" id="clipf59fe8xy"><rect x="80" y="100" width="494" height="326"/></clipPath></g><g class="gradients"/></defs><g class="bglayer"><rect class="bg" x="80" y="100" width="494" height="326" style="fill: rgb(229, 236, 246); fill-opacity: 1; stroke-width: 0;"/></g><g class="layer-below"><g class="imagelayer"/><g class="shapelayer"/></g><g class="cartesianlayer"><g class="subplot xy"><g class="layer-subplot"><g class="shapelayer"/><g class="imagelayer"/></g><g class="gridlayer"><g class="x"><path class="xgrid crisp" transform="translate(122.22,0)" d="M0,100v326" style="stroke: rgb(255, 255, 255); stroke-opacity: 1; stroke-width: 1px;"/><path class="xgrid crisp" transform="translate(244.67,0)" d="M0,100v326" style="stroke: rgb(255, 255, 255); stroke-opacity: 1; stroke-width: 1px;"/><path class="xgrid crisp" transform="translate(375.56,0)" d="M0,100v326" style="stroke: rgb(255, 255, 255); stroke-opacity: 1; stroke-width: 1px;"/><path class="xgrid crisp" transform="translate(502.22,0)" d="M0,100v326" style="stroke: rgb(255, 255, 255); stroke-opacity: 1; stroke-width: 1px;"/></g><g class="y"><path class="ygrid crisp" transform="translate(0,361.33)" d="M80,0h494" style="stroke: rgb(255, 255, 255); stroke-opacity: 1; stroke-width: 1px;"/><path class="ygrid crisp" transform="translate(0,296.65999999999997)" d="M80,0h494" style="stroke: rgb(255, 255, 255); stroke-opacity: 1; stroke-width: 1px;"/><path class="ygrid crisp" transform="translate(0,231.99)" d="M80,0h494" style="stroke: rgb(255, 255, 255); stroke-opacity: 1; stroke-width: 1px;"/><path class="ygrid crisp" transform="translate(0,167.32)" d="M80,0h494" style="stroke: rgb(255, 255, 255); stroke-opacity: 1; stroke-width: 1px;"/><path class="ygrid crisp" transform="translate(0,102.65)" d="M80,0h494" style="stroke: rgb(255, 255, 255); stroke-opacity: 1; stroke-width: 1px;"/></g></g><g class="zerolinelayer"><path class="yzl zl crisp" transform="translate(0,426)" d="M80,0h494" style="stroke: rgb(255, 255, 255); stroke-opacity: 1; stroke-width: 2px;"/></g><path class="xlines-below"/><path class="ylines-below"/><g class="overlines-below"/><g class="xaxislayer-below"/><g class="yaxislayer-below"/><g class="overaxes-below"/><g class="plot" transform="translate(80, 100)" clip-path="url('#clipf59fe8xyplot')"><g class="scatterlayer mlayer"><g class="trace scatter tracedb4ca5" style="stroke-miterlimit: 2;"><g class="fills"><g><path class="js-fill" d="M494,326L0,326L0,326L105.56,325.3L109.78,325.19L190,322.23L194.22,322.08L257.56,319.83L261.78,319.24L278.67,317.3L282.89,316.68L316.67,308.54L320.89,307.03L333.56,302.14L337.78,300.46L346.22,297.47L350.44,295.84L358.89,291.48L363.11,289.79L375.78,284.79L380,282.56L388.44,278.76L392.67,275.5L409.56,267.92L413.78,265.25L418,261.02L422.22,258.53L434.89,251.41L439.11,249.08L447.56,243.53L451.78,241.12L456,237.66L460.22,235.51L494,211.09" style="fill: rgb(40, 167, 69); fill-opacity: 0.5; stroke-width: 0;"/></g><g><path class="js-fill" d="M0,326L101.33,325.29L105.56,325.18L173.11,322.68L177.33,322.49L257.56,318.75L261.78,318.02L278.67,315.25L282.89,314.41L304,307.8L308.22,306.11L316.67,303.46L320.89,301.44L337.78,293.1L342,291.47L354.67,284.4L358.89,281.92L388.44,266.25L392.67,262.58L409.56,253.66L413.78,250.55L418,245.94L422.22,243.12L430.67,237.84L434.89,235.16L443.33,229.02L447.56,226.12L451.78,223.36L456,219.62L460.22,217.24L464.44,213.96L468.67,211.19L472.89,207.29L481.33,200.89L485.56,197L494,190.51L494,211.09L460.22,235.51L456,237.66L451.78,241.12L447.56,243.53L439.11,249.08L434.89,251.41L422.22,258.53L418,261.02L413.78,265.25L409.56,267.92L392.67,275.5L388.44,278.76L380,282.56L375.78,284.79L363.11,289.79L358.89,291.48L350.44,295.84L346.22,297.47L337.78,300.46L333.56,302.14L320.89,307.03L316.67,308.54L282.89,316.68L278.67,317.3L261.78,319.24L257.56,319.83L194.22,322.08L190,322.23L109.78,325.19L105.56,325.3L0,326Z" style="fill: rgb(108, 117, 125); fill-opacity: 0.5; stroke-width: 0;"/></g></g><g class="errorbars"/><g class="lines"><path class="js-line" d="M0,326L105.56,325.3L109.78,325.19L190,322.23L194.22,322.08L257.56,319.83L261.78,319.24L278.67,317.3L282.89,316.68L316.67,308.54L320.89,307.03L333.56,302.14L337.78,300.46L346.22,297.47L350.44,295.84L358.89,291.48L363.11,289.79L375.78,284.79L380,282.56L388.44,278.76L392.67,275.5L409.56,267.92L413.78,265.25L418,261.02L422.22,258.53L434.89,251.41L439.11,249.08L447.56,243.53L451.78,241.12L456,237.66L460.22,235.51L494,211.09" style="vector-effect: non-scaling-stroke; fill: none; stroke: rgb(40, 167, 69); stroke-opacity: 1; stroke-width: 2px; opacity: 1;"/></g><g class="points"/><g class="text"/></g><g class="trace scatter tracebcc6ef" style="stroke-miterlimit: 2;"><g class="fills"><g><path class="js-fill" d="M0,325.96L42.22,325.22L46.44,324.92L88.67,323.08L92.89,322.1L105.56,321.4L109.78,321.26L152,320.76L156.22,320.71L194.22,319.37L198.44,319.14L211.11,318.21L215.33,317.12L232.22,313.79L236.44,312.65L253.33,304.79L257.56,302.12L266,296.34L270.22,292.34L291.33,271.17L295.56,266.33L316.67,241.21L320.89,236.36L337.78,214.41L342,208L354.67,193.76L358.89,187.53L371.56,171.43L375.78,166.85L392.67,145.9L396.89,140.37L418,116.08L422.22,110.34L443.33,83.82L447.56,78.03L456,66.52L460.22,61.5L472.89,45.65L477.11,39.51L485.56,27.13L489.78,22L494,16.3L494,190.51L485.56,197L481.33,200.89L472.89,207.29L468.67,211.19L464.44,213.96L460.22,217.24L456,219.62L451.78,223.36L447.56,226.12L443.33,229.02L434.89,235.16L430.67,237.84L422.22,243.12L418,245.94L413.78,250.55L409.56,253.66L392.67,262.58L388.44,266.25L358.89,281.92L354.67,284.4L342,291.47L337.78,293.1L320.89,301.44L316.67,303.46L308.22,306.11L304,307.8L282.89,314.41L278.67,315.25L261.78,318.02L257.56,318.75L177.33,322.49L173.11,322.68L105.56,325.18L101.33,325.29L0,326Z" style="fill: rgb(255, 7, 58); fill-opacity: 0.5; stroke-width: 0;"/></g></g><g class="errorbars"/><g class="lines"><path class="js-line" d="M0,326L101.33,325.29L105.56,325.18L173.11,322.68L177.33,322.49L257.56,318.75L261.78,318.02L278.67,315.25L282.89,314.41L304,307.8L308.22,306.11L316.67,303.46L320.89,301.44L337.78,293.1L342,291.47L354.67,284.4L358.89,281.92L388.44,266.25L392.67,262.58L409.56,253.66L413.78,250.55L418,245.94L422.22,243.12L430.67,237.84L434.89,235.16L443.33,229.02L447.56,226.12L451.78,223.36L456,219.62L460.22,217.24L464.44,213.96L468.67,211.19L472.89,207.29L481.33,200.89L485.56,197L494,190.51" style="vector-effect: non-scaling-stroke; fill: none; stroke: rgb(108, 117, 125); stroke-opacity: 1; stroke-width: 2px; opacity: 1;"/></g><g class="points"/><g class="text"/></g><g class="trace scatter traceee5571" style="stroke-miterlimit: 2;"><g class="fills"/><g class="errorbars"/><g class="lines"><path class="js-line" d="M0,325.96L42.22,325.22L46.44,324.92L88.67,323.08L92.89,322.1L105.56,321.4L109.78,321.26L152,320.76L156.22,320.71L194.22,319.37L198.44,319.14L211.11,318.21L215.33,317.12L232.22,313.79L236.44,312.65L253.33,304.79L257.56,302.12L266,296.34L270.22,292.34L291.33,271.17L295.56,266.33L316.67,241.21L320.89,236.36L337.78,214.41L342,208L354.67,193.76L358.89,187.53L371.56,171.43L375.78,166.85L392.67,145.9L396.89,140.37L418,116.08L422.22,110.34L443.33,83.82L447.56,78.03L456,66.52L460.22,61.5L472.89,45.65L477.11,39.51L485.56,27.13L489.78,22L494,16.3" style="vector-effect: non-scaling-stroke; fill: none; stroke: rgb(255, 7, 58); stroke-opacity: 1; stroke-width: 2px; opacity: 1;"/></g><g class="points"/><g class="text"/></g></g></g><g class="overplot"/><path class="xlines-above crisp" style="fill: none;" d="M0,0"/><path class="ylines-above crisp" style="fill: none;" d="M0,0"/><g class="overlines-above"/><g class="xaxislayer-above"><g class="xtick"><text text-anchor="middle" x="0" y="439" transform="translate(122.22,0)" style="font-family: 'Open Sans', verdana, arial, sans-serif; font-size: 12px; fill: rgb(42, 63, 95); fill-opacity: 1; white-space: pre;">Feb 2020</text></g><g class="xtick"><text text-anchor="middle" x="0" y="439" transform="translate(244.67,0)" style="font-family: 'Open Sans', verdana, arial, sans-serif; font-size: 12px; fill: rgb(42, 63, 95); fill-opacity: 1; white-space: pre;">Mar 2020</text></g><g class="xtick"><text text-anchor="middle" x="0" y="439" transform="translate(375.56,0)" style="font-family: 'Open Sans', verdana, arial, sans-serif; font-size: 12px; fill: rgb(42, 63, 95); fill-opacity: 1; white-space: pre;">Apr 2020</text></g><g class="xtick"><text text-anchor="middle" x="0" y="439" transform="translate(502.22,0)" style="font-family: 'Open Sans', verdana, arial, sans-serif; font-size: 12px; fill: rgb(42, 63, 95); fill-opacity: 1; white-space: pre;">May 2020</text></g></g><g class="yaxislayer-above"><g class="ytick"><text text-anchor="end" x="79" y="4.199999999999999" transform="translate(0,426)" style="font-family: 'Open Sans', verdana, arial, sans-serif; font-size: 12px; fill: rgb(42, 63, 95); fill-opacity: 1; white-space: pre;">0</text></g><g class="ytick"><text text-anchor="end" x="79" y="4.199999999999999" transform="translate(0,361.33)" style="font-family: 'Open Sans', verdana, arial, sans-serif; font-size: 12px; fill: rgb(42, 63, 95); fill-opacity: 1; white-space: pre;">1M</text></g><g class="ytick"><text text-anchor="end" x="79" y="4.199999999999999" transform="translate(0,296.65999999999997)" style="font-family: 'Open Sans', verdana, arial, sans-serif; font-size: 12px; fill: rgb(42, 63, 95); fill-opacity: 1; white-space: pre;">2M</text></g><g class="ytick"><text text-anchor="end" x="79" y="4.199999999999999" transform="translate(0,231.99)" style="font-family: 'Open Sans', verdana, arial, sans-serif; font-size: 12px; fill: rgb(42, 63, 95); fill-opacity: 1; white-space: pre;">3M</text></g><g class="ytick"><text text-anchor="end" x="79" y="4.199999999999999" transform="translate(0,167.32)" style="font-family: 'Open Sans', verdana, arial, sans-serif; font-size: 12px; fill: rgb(42, 63, 95); fill-opacity: 1; white-space: pre;">4M</text></g><g class="ytick"><text text-anchor="end" x="79" y="4.199999999999999" transform="translate(0,102.65)" style="font-family: 'Open Sans', verdana, arial, sans-serif; font-size: 12px; fill: rgb(42, 63, 95); fill-opacity: 1; white-space: pre;">5M</text></g></g><g class="overaxes-above"/></g></g><g class="polarlayer"/><g class="ternarylayer"/><g class="geolayer"/><g class="funnelarealayer"/><g class="pielayer"/><g class="treemaplayer"/><g class="sunburstlayer"/><g class="glimages"/><defs id="topdefs-f59fe8"><g class="clips"/><clipPath id="legendf59fe8"><rect width="104" height="83" x="0" y="0"/></clipPath><clipPath id="rangesliderx-f59fe8"><rect x="0" y="0" width="494" height="63"/></clipPath></defs><g class="layer-above"><g class="imagelayer"/><g class="shapelayer"/></g><g class="infolayer"><g class="legend" pointer-events="all" transform="translate(583.88, 100)"><rect class="bg" shape-rendering="crispEdges" style="stroke: rgb(68, 68, 68); stroke-opacity: 1; fill: rgb(255, 255, 255); fill-opacity: 1; stroke-width: 0px;" width="104" height="83" x="0" y="0"/><g class="scrollbox" transform="translate(0, 0)" clip-path="url('#legendf59fe8')"><text class="legendtitletext user-select-none" text-anchor="start" x="2" y="15.600000000000001" style="font-family: 'Open Sans', verdana, arial, sans-serif; font-size: 12px; fill: rgb(42, 63, 95); fill-opacity: 1; white-space: pre;">Case</text><g class="groups" transform="translate(0, 0)"><g class="traces" transform="translate(0, 30.1)" style="opacity: 1;"><text class="legendtext user-select-none" text-anchor="start" x="40" y="4.680000000000001" style="font-family: 'Open Sans', verdana, arial, sans-serif; font-size: 12px; fill: rgb(42, 63, 95); fill-opacity: 1; white-space: pre;">Recovered</text><g class="layers"><g class="legendfill"><path class="js-fill" d="M5,-2h30v6h-30z" style="stroke-width: 0; fill: rgb(40, 167, 69); fill-opacity: 0.5;"/></g><g class="legendlines"><path class="js-line" d="M5,-2h30" style="fill: none; stroke: rgb(40, 167, 69); stroke-opacity: 1; stroke-width: 2px;"/></g><g class="legendsymbols"><g class="legendpoints"/></g></g><rect class="legendtoggle" pointer-events="all" x="0" y="-9.5" width="98.03125" height="19" style="cursor: pointer; fill: rgb(0, 0, 0); fill-opacity: 0;"/></g></g><g class="groups" transform="translate(0, 0)"><g class="traces" transform="translate(0, 49.1)" style="opacity: 1;"><text class="legendtext user-select-none" text-anchor="start" x="40" y="4.680000000000001" style="font-family: 'Open Sans', verdana, arial, sans-serif; font-size: 12px; fill: rgb(42, 63, 95); fill-opacity: 1; white-space: pre;">Deaths</text><g class="layers"><g class="legendfill"><path class="js-fill" d="M5,-2h30v6h-30z" style="stroke-width: 0; fill: rgb(108, 117, 125); fill-opacity: 0.5;"/></g><g class="legendlines"><path class="js-line" d="M5,-2h30" style="fill: none; stroke: rgb(108, 117, 125); stroke-opacity: 1; stroke-width: 2px;"/></g><g class="legendsymbols"><g class="legendpoints"/></g></g><rect class="legendtoggle" pointer-events="all" x="0" y="-9.5" width="98.03125" height="19" style="cursor: pointer; fill: rgb(0, 0, 0); fill-opacity: 0;"/></g></g><g class="groups" transform="translate(0, 0)"><g class="traces" transform="translate(0, 68.1)" style="opacity: 1;"><text class="legendtext user-select-none" text-anchor="start" x="40" y="4.680000000000001" style="font-family: 'Open Sans', verdana, arial, sans-serif; font-size: 12px; fill: rgb(42, 63, 95); fill-opacity: 1; white-space: pre;">Active</text><g class="layers"><g class="legendfill"><path class="js-fill" d="M5,-2h30v6h-30z" style="stroke-width: 0; fill: rgb(255, 7, 58); fill-opacity: 0.5;"/></g><g class="legendlines"><path class="js-line" d="M5,-2h30" style="fill: none; stroke: rgb(255, 7, 58); stroke-opacity: 1; stroke-width: 2px;"/></g><g class="legendsymbols"><g class="legendpoints"/></g></g><rect class="legendtoggle" pointer-events="all" x="0" y="-9.5" width="98.03125" height="19" style="cursor: pointer; fill: rgb(0, 0, 0); fill-opacity: 0;"/></g></g></g><rect class="scrollbar" rx="20" ry="3" width="0" height="0" x="0" y="0" style="fill: rgb(128, 139, 164); fill-opacity: 1;"/></g><g class="g-gtitle"><text class="gtitle" x="35" y="50" text-anchor="start" dy="0em" style="font-family: 'Open Sans', verdana, arial, sans-serif; font-size: 17px; fill: rgb(42, 63, 95); opacity: 1; font-weight: normal; white-space: pre;">Cases over time</text></g><g class="rangeslider-container" pointer-events="all" transform="translate(80,457)"><rect class="rangeslider-bg" x="0" y="0" shape-rendering="crispEdges" width="494" height="63" transform="translate(0,0)" fill="#E5ECF6" stroke="#444" stroke-width="0"/><g class="rangeslider-rangeplot xy" clip-path="url('#rangesliderx-f59fe8')"><g class="layer-subplot"><g class="shapelayer"/><g class="imagelayer"/></g><g class="gridlayer"><g class="x"/><g class="y"/></g><g class="zerolinelayer"/><path class="xlines-below"/><path class="ylines-below"/><g class="overlines-below"/><g class="xaxislayer-below"/><g class="yaxislayer-below"/><g class="overaxes-below"/><g class="plot"><g class="scatterlayer mlayer rangeplot"><g class="trace scatter tracedb4ca5" style="stroke-miterlimit: 2;"><g class="fills"><g><path class="js-fill" d="M494,63L0,63L0,63L190,62.27L194.22,62.24L282.89,61.2L287.11,61.01L333.56,58.39L337.78,58.07L367.33,55.7L371.56,55.31L392.67,53.24L396.89,52.89L418,50.44L422.22,49.96L494,40.79" style="fill: rgb(40, 167, 69); fill-opacity: 0.5; stroke-width: 0;"/></g><g><path class="js-fill" d="M0,63L185.78,62.26L190,62.23L278.67,60.92L282.89,60.76L329.33,57.4L333.56,57.04L388.44,51.45L392.67,50.74L418,47.53L422.22,46.98L494,36.82L494,40.79L422.22,49.96L418,50.44L396.89,52.89L392.67,53.24L371.56,55.31L367.33,55.7L337.78,58.07L333.56,58.39L287.11,61.01L282.89,61.2L194.22,62.24L190,62.27L0,63Z" style="fill: rgb(108, 117, 125); fill-opacity: 0.5; stroke-width: 0;"/></g></g><g class="errorbars"/><g class="lines"><path class="js-line" d="M0,63L190,62.27L194.22,62.24L282.89,61.2L287.11,61.01L333.56,58.39L337.78,58.07L367.33,55.7L371.56,55.31L392.67,53.24L396.89,52.89L418,50.44L422.22,49.96L494,40.79" style="vector-effect: non-scaling-stroke; fill: none; stroke: rgb(40, 167, 69); stroke-opacity: 1; stroke-width: 2px; opacity: 1;"/></g><g class="points"/><g class="text"/></g><g class="trace scatter tracebcc6ef" style="stroke-miterlimit: 2;"><g class="fills"><g><path class="js-fill" d="M0,62.99L92.89,62.25L97.11,62.16L223.78,61.01L228,60.83L249.11,59.3L253.33,58.9L274.44,55.7L278.67,54.86L299.78,50.46L304,49.43L451.78,13.93L456,12.85L481.33,6.39L485.56,5.24L494,3.15L494,36.82L422.22,46.98L418,47.53L392.67,50.74L388.44,51.45L333.56,57.04L329.33,57.4L282.89,60.76L278.67,60.92L190,62.23L185.78,62.26L0,63Z" style="fill: rgb(255, 7, 58); fill-opacity: 0.5; stroke-width: 0;"/></g></g><g class="errorbars"/><g class="lines"><path class="js-line" d="M0,63L185.78,62.26L190,62.23L278.67,60.92L282.89,60.76L329.33,57.4L333.56,57.04L388.44,51.45L392.67,50.74L418,47.53L422.22,46.98L494,36.82" style="vector-effect: non-scaling-stroke; fill: none; stroke: rgb(108, 117, 125); stroke-opacity: 1; stroke-width: 2px; opacity: 1;"/></g><g class="points"/><g class="text"/></g><g class="trace scatter traceee5571" style="stroke-miterlimit: 2;"><g class="fills"/><g class="errorbars"/><g class="lines"><path class="js-line" d="M0,62.99L92.89,62.25L97.11,62.16L223.78,61.01L228,60.83L249.11,59.3L253.33,58.9L274.44,55.7L278.67,54.86L299.78,50.46L304,49.43L451.78,13.93L456,12.85L481.33,6.39L485.56,5.24L494,3.15" style="vector-effect: non-scaling-stroke; fill: none; stroke: rgb(255, 7, 58); stroke-opacity: 1; stroke-width: 2px; opacity: 1;"/></g><g class="points"/><g class="text"/></g></g></g><g class="overplot"/><path class="xlines-above crisp" style="fill: none;"/><path class="ylines-above crisp" style="fill: none;"/><g class="overlines-above"/><g class="xaxislayer-above"/><g class="yaxislayer-above"/><g class="overaxes-above"/></g><rect class="rangeslider-mask-min" x="0" y="0" shape-rendering="crispEdges" height="63" width="0" style="fill: rgb(0, 0, 0); fill-opacity: 0.4;"/><rect class="rangeslider-mask-max" y="0" shape-rendering="crispEdges" height="63" x="494" width="0" style="fill: rgb(0, 0, 0); fill-opacity: 0.4;"/><g class="rangeslider-grabber-min" transform="translate(-2.5,0.5)"><rect class="rangeslider-handle-min" x="0" width="4" rx="1" fill="#fff" stroke="#444" stroke-width="1" shape-rendering="crispEdges" y="16" height="32"/></g><g class="rangeslider-grabber-max" transform="translate(492.5,0.5)"><rect class="rangeslider-handle-max" x="0" width="4" rx="1" fill="#fff" stroke="#444" stroke-width="1" shape-rendering="crispEdges" y="16" height="32"/></g></g><g class="g-ytitle"><text class="ytitle" transform="rotate(-90,37.528125,263)" x="37.528125" y="263" text-anchor="middle" style="font-family: 'Open Sans', verdana, arial, sans-serif; font-size: 14px; fill: rgb(42, 63, 95); opacity: 1; font-weight: normal; white-space: pre;">Count</text></g><g class="g-xtitle"><text class="xtitle" x="327" y="551" text-anchor="middle" style="font-family: 'Open Sans', verdana, arial, sans-serif; font-size: 14px; fill: rgb(42, 63, 95); opacity: 1; font-weight: normal; white-space: pre;">Date</text></g></g></svg>