<svg class="main-svg" xmlns="http://www.w3.org/2000/svg" xmlns:xlink="http://www.w3.org/1999/xlink" width="700" height="600" style="" viewBox="0 0 700 600"><rect x="0" y="0" width="700" height="600" style="fill: rgb(255, 255, 255); fill-opacity: 1;"/><defs id="defs-178f09"><g class="clips"><clipPath id="clip178f09xyplot" class="plotclip"><rect width="490" height="324"/></clipPath><clipPath class="axesclip" id="clip178f09x"><rect x="80" y="0" width="490" height="600"/></clipPath><clipPath class="axesclip" id="clip178f09y"><rect x="0" y="100" width="700" height="324"/></clipPath><clipPath class="axesclip" id="clip178f09xy"><rect x="80" y="100" width="490" height="324"/></clipPath></g><g class="gradients"/></defs><g class="bglayer"><rect class="bg" x="80" y="100" width="490" height="324" style="fill: rgb(229, 236, 246); fill-opacity: 1; stroke-width: 0;"/></g><g class="layer-below"><g class="imagelayer"/><g class="shapelayer"/></g><g class="cartesianlayer"><g class="subplot xy"><g class="layer-subplot"><g class="shapelayer"/><g class="imagelayer"/></g><g class="gridlayer"><g class="x"><path class="xgrid crisp" transform="translate(108.16,0)" d="M0,100v324" style="stroke: rgb(255, 255, 255); stroke-opacity: 1; stroke-width: 1px;"/><path class="xgrid crisp" transform="translate(189.82999999999998,0)" d="M0,100v324" style="stroke: rgb(255, 255, 255); stroke-opacity: 1; stroke-width: 1px;"/><path class="xgrid crisp" transform="translate(277.13,0)" d="M0,100v324" style="stroke: rgb(255, 255, 255); stroke-opacity: 1; stroke-width: 1px;"/><path class="xgrid crisp" transform="translate(361.61,0)" d="M0,100v324" style="stroke: rgb(255, 255, 255); stroke-opacity: 1; stroke-width: 1px;"/><path class="xgrid crisp" transform="translate(448.91,0)" d="M0,100v324" style="stroke: rgb(255, 255, 255); stroke-opacity: 1; stroke-width: 1px;"/><path class="xgrid crisp" transform="translate(533.39,0)" d="M0,100v324" style="stroke: rgb(255, 255, 255); stroke-opacity: 1; stroke-width: 1px;"/></g><g class="y"><path class="ygrid crisp" transform="translate(0,377.72)" d="M80,0h490" style="stroke: rgb(255, 255, 255); stroke-opacity: 1; stroke-width: 1px;"/><path class="ygrid crisp" transform="translate(0,331.44)" d="M80,0h490" style="stroke: rgb(255, 255, 255); stroke-opacity: 1; stroke-width: 1px;"/><path class="ygrid crisp" transform="translate(0,285.15999999999997)" d="M80,0h490" style="stroke: rgb(255, 255, 255); stroke-opacity: 1; stroke-width: 1px;"/><path class="ygrid crisp" transform="translate(0,238.87)" d="M80,0h490" style="stroke: rgb(255, 255, 255); stroke-opacity: 1; stroke-width: 1px;"/><path class="ygrid crisp" transform="translate(0,192.59)" d="M80,0h490" style="stroke: rgb(255, 255, 255); stroke-opacity: 1; stroke-width: 1px;"/><path class="ygrid crisp" transform="translate(0,146.31)" d="M80,0h490" style="stroke: rgb(255, 255, 255); stroke-opacity: 1; stroke-width: 1px;"/></g></g><g class="zerolinelayer"><path class="yzl zl crisp" transform="translate(0,424)" d="M80,0h490" style="stroke: rgb(255, 255, 255); stroke-opacity: 1; stroke-width: 2px;"/></g><path class="xlines-below"/><path class="ylines-below"/><g class="overlines-below"/><g class="xaxislayer-below"/><g class="yaxislayer-below"/><g class="overaxes-below"/><g class="plot" transform="translate(80, 100)" clip-path="url('#clip178f09xyplot')"><g class="scatterlayer mlayer"><g class="trace scatter trace580cd5" style="stroke-miterlimit: 2;"><g class="fills"><g><path class="js-fill" d="M490,324L0,324L0,324L98.56,323.3L101.38,323.23L188.68,320.67L191.49,320.32L214.02,317.22L216.84,316.56L253.45,308.47L256.26,307.76L273.16,303.24L275.98,302.27L281.61,299.88L284.43,298.93L301.32,293.74L304.14,292.5L312.59,289.78L315.4,288.49L326.67,284.21L329.48,282.98L337.93,279.24L340.75,276.74L357.64,268.44L360.46,266.65L371.72,259.59L374.54,257.76L385.8,251.6L388.62,248.1L411.15,232.81L413.97,230.07L419.6,226L422.41,223.32L428.05,219.62L430.86,217.21L442.13,207.47L444.94,205.42L450.57,200.51L453.39,197.83L456.21,191.25L459.02,188.71L461.84,184.18L464.66,181.42L470.29,175.21L473.1,171.56L490,153.21" style="fill: rgb(40, 167, 69); fill-opacity: 0.5; stroke-width: 0;"/></g><g><path class="js-fill" d="M0,324L95.75,323.29L98.56,323.23L177.41,320.95L180.23,320.7L197.13,318.51L199.94,317.98L216.84,314.4L219.66,313.64L239.37,308.23L242.18,307.42L259.08,302.6L261.9,301.29L275.98,296.98L278.79,295.34L312.59,283L315.4,281.59L326.67,276.89L329.48,275.59L337.93,271.52L340.75,268.9L357.64,260.07L360.46,258.18L371.72,250.77L374.54,248.81L385.8,242.27L388.62,238.68L411.15,222.54L413.97,219.68L419.6,215.34L422.41,212.57L428.05,208.69L430.86,206.16L442.13,195.94L444.94,193.8L450.57,188.7L453.39,185.9L456.21,179.2L459.02,176.54L461.84,171.91L464.66,169.07L470.29,162.63L473.1,158.86L490,139.84L490,153.21L473.1,171.56L470.29,175.21L464.66,181.42L461.84,184.18L459.02,188.71L456.21,191.25L453.39,197.83L450.57,200.51L444.94,205.42L442.13,207.47L430.86,217.21L428.05,219.62L422.41,223.32L419.6,226L413.97,230.07L411.15,232.81L388.62,248.1L385.8,251.6L374.54,257.76L371.72,259.59L360.46,266.65L357.64,268.44L340.75,276.74L337.93,279.24L329.48,282.98L326.67,284.21L315.4,288.49L312.59,289.78L304.14,292.5L301.32,293.74L284.43,298.93L281.61,299.88L275.98,302.27L273.16,303.24L256.26,307.76L253.45,308.47L216.84,316.56L214.02,317.22L191.49,320.32L188.68,320.67L101.38,323.23L98.56,323.3L0,324Z" style="fill: rgb(108, 117, 125); fill-opacity: 0.5; stroke-width: 0;"/></g></g><g class="errorbars"/><g class="lines"><path class="js-line" d="M0,324L98.56,323.3L101.38,323.23L188.68,320.67L191.49,320.32L214.02,317.22L216.84,316.56L253.45,308.47L256.26,307.76L273.16,303.24L275.98,302.27L281.61,299.88L284.43,298.93L301.32,293.74L304.14,292.5L312.59,289.78L315.4,288.49L326.67,284.21L329.48,282.98L337.93,279.24L340.75,276.74L357.64,268.44L360.46,266.65L371.72,259.59L374.54,257.76L385.8,251.6L388.62,248.1L411.15,232.81L413.97,230.07L419.6,226L422.41,223.32L428.05,219.62L430.86,217.21L442.13,207.47L444.94,205.42L450.57,200.51L453.39,197.83L456.21,191.25L459.02,188.71L461.84,184.18L464.66,181.42L470.29,175.21L473.1,171.56L490,153.21" style="vector-effect: non-scaling-stroke; fill: none; stroke: rgb(40, 167, 69); stroke-opacity: 1; stroke-width: 2px; opacity: 1;"/></g><g class="points"/><g class="text"/></g><g class="trace scatter trace30c133" style="stroke-miterlimit: 2;"><g class="fills"><g><path class="js-fill" d="M0,323.99L47.87,323.14L50.69,323.07L143.62,320.79L146.44,320.54L157.7,319.13L160.52,318.48L174.6,314.36L177.41,313.19L197.13,302.29L199.94,300.41L230.92,279.92L233.74,278.3L273.16,252.35L275.98,250.57L329.48,213.31L332.3,211.08L360.46,187.26L363.28,184.29L374.54,174.05L377.36,171.12L385.8,162.55L388.62,160.16L402.7,144.95L405.52,141.87L411.15,135.83L413.97,131.76L419.6,124.37L422.41,120.71L430.86,110.67L433.68,106.8L453.39,77.7L456.21,72.89L464.66,59.47L467.47,55.59L490,16.2L490,139.84L473.1,158.86L470.29,162.63L464.66,169.07L461.84,171.91L459.02,176.54L456.21,179.2L453.39,185.9L450.57,188.7L444.94,193.8L442.13,195.94L430.86,206.16L428.05,208.69L422.41,212.57L419.6,215.34L413.97,219.68L411.15,222.54L388.62,238.68L385.8,242.27L374.54,248.81L371.72,250.77L360.46,258.18L357.64,260.07L340.75,268.9L337.93,271.52L329.48,275.59L326.67,276.89L315.4,281.59L312.59,283L278.79,295.34L275.98,296.98L261.9,301.29L259.08,302.6L242.18,307.42L239.37,308.23L219.66,313.64L216.84,314.4L199.94,317.98L197.13,318.51L180.23,320.7L177.41,320.95L98.56,323.23L95.75,323.29L0,324Z" style="fill: rgb(255, 7, 58); fill-opacity: 0.5; stroke-width: 0;"/></g></g><g class="errorbars"/><g class="lines"><path class="js-line" d="M0,324L95.75,323.29L98.56,323.23L177.41,320.95L180.23,320.7L197.13,318.51L199.94,317.98L216.84,314.4L219.66,313.64L239.37,308.23L242.18,307.42L259.08,302.6L261.9,301.29L275.98,296.98L278.79,295.34L312.59,283L315.4,281.59L326.67,276.89L329.48,275.59L337.93,271.52L340.75,268.9L357.64,260.07L360.46,258.18L371.72,250.77L374.54,248.81L385.8,242.27L388.62,238.68L411.15,222.54L413.97,219.68L419.6,215.34L422.41,212.57L428.05,208.69L430.86,206.16L442.13,195.94L444.94,193.8L450.57,188.7L453.39,185.9L456.21,179.2L459.02,176.54L461.84,171.91L464.66,169.07L470.29,162.63L473.1,158.86L490,139.84" style="vector-effect: non-scaling-stroke; fill: none; stroke: rgb(108, 117, 125); stroke-opacity: 1; stroke-width: 2px; opacity: 1;"/></g><g class="points"/><g class="text"/></g><g class="trace scatter trace8276f3" style="stroke-miterlimit: 2;"><g class="fills"/><g class="errorbars"/><g class="lines"><path class="js-line" d="M0,323.99L47.87,323.14L50.69,323.07L143.62,320.79L146.44,320.54L157.7,319.13L160.52,318.48L174.6,314.36L177.41,313.19L197.13,302.29L199.94,300.41L230.92,279.92L233.74,278.3L273.16,252.35L275.98,250.57L329.48,213.31L332.3,211.08L360.46,187.26L363.28,184.29L374.54,174.05L377.36,171.12L385.8,162.55L388.62,160.16L402.7,144.95L405.52,141.87L411.15,135.83L413.97,131.76L419.6,124.37L422.41,120.71L430.86,110.67L433.68,106.8L453.39,77.7L456.21,72.89L464.66,59.47L467.47,55.59L490,16.2" style="vector-effect: non-scaling-stroke; fill: none; stroke: rgb(255, 7, 58); stroke-opacity: 1; stroke-width: 2px; opacity: 1;"/></g><g class="points"/><g class="text"/></g></g></g><g class="overplot"/><path class="xlines-above crisp" style="fill: none; stroke-width: 1px; stroke: rgb(255, 255, 255); stroke-opacity: 1;" d="M79,424.5H570"/><path class="ylines-above crisp" style="fill: none; stroke-width: 1px; stroke: rgb(255, 255, 255); stroke-opacity: 1;" d="M79.5,100V424"/><g class="overlines-above"/><g class="xaxislayer-above"><g class="xtick"><text text-anchor="middle" x="0" y="439.4" transform="translate(108.16,0)" style="font-family: 'Open Sans', verdana, arial, sans-serif; font-size: 12px; fill: rgb(42, 63, 95); fill-opacity: 1; white-space: pre;">Feb 2020</text></g><g class="xtick"><text text-anchor="middle" x="0" y="439.4" transform="translate(189.82999999999998,0)" style="font-family: 'Open Sans', verdana, arial, sans-serif; font-size: 12px; fill: rgb(42, 63, 95); fill-opacity: 1; white-space: pre;">Mar 2020</text></g><g class="xtick"><text text-anchor="middle" x="0" y="439.4" transform="translate(277.13,0)" style="font-family: 'Open Sans', verdana, arial, sans-serif; font-size: 12px; fill: rgb(42, 63, 95); fill-opacity: 1; white-space: pre;">Apr 2020</text></g><g class="xtick"><text text-anchor="middle" x="0" y="439.4" transform="translate(361.61,0)" style="font-family: 'Open Sans', verdana, arial, sans-serif; font-size: 12px; fill: rgb(42, 63, 95); fill-opacity: 1; white-space: pre;">May 2020</text></g><g class="xtick"><text text-anchor="middle" x="0" y="439.4" transform="translate(448.91,0)" style="font-family: 'Open Sans', verdana, arial, sans-serif; font-size: 12px; fill: rgb(42, 63, 95); fill-opacity: 1; white-space: pre;">Jun 2020</text></g><g class="xtick"><text text-anchor="middle" x="0" y="439.4" transform="translate(533.39,0)" style="font-family: 'Open Sans', verdana, arial, sans-serif; font-size: 12px; fill: rgb(42, 63, 95); fill-opacity: 1; white-space: pre;">Jul 2020</text></g></g><g class="yaxislayer-above"><g class="ytick"><text text-anchor="end" x="76.6" y="4.199999999999999" transform="translate(0,424)" style="font-family: 'Open Sans', verdana, arial, sans-serif; font-size: 12px; fill: rgb(42, 63, 95); fill-opacity: 1; white-space: pre;">0</text></g><g class="ytick"><text text-anchor="end" x="76.6" y="4.199999999999999" transform="translate(0,377.72)" style="font-family: 'Open Sans', verdana, arial, sans-serif; font-size: 12px; fill: rgb(42, 63, 95); fill-opacity: 1; white-space: pre;">2M</text></g><g class="ytick"><text text-anchor="end" x="76.6" y="4.199999999999999" transform="translate(0,331.44)" style="font-family: 'Open Sans', verdana, arial, sans-serif; font-size: 12px; fill: rgb(42, 63, 95); fill-opacity: 1; white-space: pre;">4M</text></g><g class="ytick"><text text-anchor="end" x="76.6" y="4.199999999999999" transform="translate(0,285.15999999999997)" style="font-family: 'Open Sans', verdana, arial, sans-serif; font-size: 12px; fill: rgb(42, 63, 95); fill-opacity: 1; white-space: pre;">6M</text></g><g class="ytick"><text text-anchor="end" x="76.6" y="4.199999999999999" transform="translate(0,238.87)" style="font-family: 'Open Sans', verdana, arial, sans-serif; font-size: 12px; fill: rgb(42, 63, 95); fill-opacity: 1; white-space: pre;">8M</text></g><g class="ytick"><text text-anchor="end" x="76.6" y="4.199999999999999" transform="translate(0,192.59)" style="font-family: 'Open Sans', verdana, arial, sans-serif; font-size: 12px; fill: rgb(42, 63, 95); fill-opacity: 1; white-space: pre;">10M</text></g><g class="ytick"><text text-anchor="end" x="76.6" y="4.199999999999999" transform="translate(0,146.31)" style="font-family: 'Open Sans', verdana, arial, sans-serif; font-size: 12px; fill: rgb(42, 63, 95); fill-opacity: 1; white-space: pre;">12M</text></g><g class="ytick"><text text-anchor="end" x="76.6" y="4.199999999999999" transform="translate(0,100.03)" style="font-family: 'Open Sans', verdana, arial, sans-serif; font-size: 12px; fill: rgb(42, 63, 95); fill-opacity: 1; white-space: pre;">14M</text></g></g><g class="overaxes-above"/></g></g><g class="polarlayer"/><g class="ternarylayer"/><g class="geolayer"/><g class="funnelarealayer"/><g class="pielayer"/><g class="treemaplayer"/><g class="sunburstlayer"/><g class="glimages"/><defs id="topdefs-178f09"><g class="clips"/><clipPath id="legend178f09"><rect width="108" height="83" x="0" y="0"/></clipPath><clipPath id="rangesliderx-178f09"><rect x="0" y="0" width="490" height="63"/></clipPath></defs><g class="layer-above"><g class="imagelayer"/><g class="shapelayer"/></g><g class="infolayer"><g class="legend" pointer-events="all" transform="translate(579.8, 100)"><rect class="bg" shape-rendering="crispEdges" style="stroke: rgb(68, 68, 68); stroke-opacity: 1; fill: rgb(255, 255, 255); fill-opacity: 1; stroke-width: 0px;" width="108" height="83" x="0" y="0"/><g class="scrollbox" transform="translate(0, 0)" clip-path="url('#legend178f09')"><text class="legendtitletext user-select-none" text-anchor="start" x="2" y="15.600000000000001" style="font-family: 'Open Sans', verdana, arial, sans-serif; font-size: 12px; fill: rgb(42, 63, 95); fill-opacity: 1; white-space: pre;">Case</text><g class="groups" transform="translate(0, 0)"><g class="traces" transform="translate(0, 30.1)" style="opacity: 1;"><text class="legendtext user-select-none" text-anchor="start" x="40" y="4.680000000000001" style="font-family: 'Open Sans', verdana, arial, sans-serif; font-size: 12px; fill: rgb(42, 63, 95); fill-opacity: 1; white-space: pre;">Recovered</text><g class="layers"><g class="legendfill"><path class="js-fill" d="M5,-2h30v6h-30z" style="stroke-width: 0; fill: rgb(40, 167, 69); fill-opacity: 0.5;"/></g><g class="legendlines"><path class="js-line" d="M5,-2h30" style="fill: none; stroke: rgb(40, 167, 69); stroke-opacity: 1; stroke-width: 2px;"/></g><g class="legendsymbols"><g class="legendpoints"/></g></g><rect class="legendtoggle" pointer-events="all" x="0" y="-9.5" width="102.546875" height="19" style="cursor: pointer; fill: rgb(0, 0, 0); fill-opacity: 0;"/></g></g><g class="groups" transform="translate(0, 0)"><g class="traces" transform="translate(0, 49.1)" style="opacity: 1;"><text class="legendtext user-select-none" text-anchor="start" x="40" y="4.680000000000001" style="font-family: 'Open Sans', verdana, arial, sans-serif; font-size: 12px; fill: rgb(42, 63, 95); fill-opacity: 1; white-space: pre;">Deaths</text><g class="layers"><g class="legendfill"><path class="js-fill" d="M5,-2h30v6h-30z" style="stroke-width: 0; fill: rgb(108, 117, 125); fill-opacity: 0.5;"/></g><g class="legendlines"><path class="js-line" d="M5,-2h30" style="fill: none; stroke: rgb(108, 117, 125); stroke-opacity: 1; stroke-width: 2px;"/></g><g class="legendsymbols"><g class="legendpoints"/></g></g><rect class="legendtoggle" pointer-events="all" x="0" y="-9.5" width="102.546875" height="19" style="cursor: pointer; fill: rgb(0, 0, 0); fill-opacity: 0;"/></g></g><g class="groups" transform="translate(0, 0)"><g class="traces" transform="translate(0, 68.1)" style="opacity: 1;"><text class="legendtext user-select-none" text-anchor="start" x="40" y="4.680000000000001" style="font-family: 'Open Sans', verdana, arial, sans-serif; font-size: 12px; fill: rgb(42, 63, 95); fill-opacity: 1; white-space: pre;">Active</text><g class="layers"><g class="legendfill"><path class="js-fill" d="M5,-2h30v6h-30z" style="stroke-width: 0; fill: rgb(255, 7, 58); fill-opacity: 0.5;"/></g><g class="legendlines"><path class="js-line" d="M5,-2h30" style="fill: none; stroke: rgb(255, 7, 58); stroke-opacity: 1; stroke-width: 2px;"/></g><g class="legendsymbols"><g class="legendpoints"/></g></g><rect class="legendtoggle" pointer-events="all" x="0" y="-9.5" width="102.546875" height="19" style="cursor: pointer; fill: rgb(0, 0, 0); fill-opacity: 0;"/></g></g></g><rect class="scrollbar" rx="20" ry="3" width="0" height="0" x="0" y="0" style="fill: rgb(128, 139, 164); fill-opacity: 1;"/></g><g class="g-gtitle"><text class="gtitle" x="35" y="50" text-anchor="start" dy="0em" style="font-family: 'Open Sans', verdana, arial, sans-serif; font-size: 17px; fill: rgb(42, 63, 95); opacity: 1; font-weight: normal; white-space: pre;">Cases over time</text></g><g class="rangeslider-container" pointer-events="all" transform="translate(80,457)"><rect class="rangeslider-bg" x="0" y="0" shape-rendering="crispEdges" width="490" height="63" transform="translate(0,0)" fill="#E5ECF6" stroke="#444" stroke-width="0"/><g class="rangeslider-rangeplot xy" clip-path="url('#rangesliderx-178f09')"><g class="layer-subplot"><g class="shapelayer"/><g class="imagelayer"/></g><g class="gridlayer"><g class="x"/><g class="y"/></g><g class="zerolinelayer"/><path class="xlines-below"/><path class="ylines-below"/><g class="overlines-below"/><g class="xaxislayer-below"/><g class="yaxislayer-below"/><g class="overaxes-below"/><g class="plot"><g class="scatterlayer mlayer rangeplot"><g class="trace scatter trace580cd5" style="stroke-miterlimit: 2;"><g class="fills"><g><path class="js-fill" d="M490,63L0,63L0,63L191.49,62.28L194.31,62.22L242.18,60.48L245,60.38L321.03,55.7L323.85,55.45L349.2,53.03L352.01,52.78L385.8,48.92L388.62,48.24L436.49,41.3L439.31,40.82L453.39,38.47L456.21,37.19L470.29,34.07L473.1,33.36L490,29.79" style="fill: rgb(40, 167, 69); fill-opacity: 0.5; stroke-width: 0;"/></g><g><path class="js-fill" d="M0,63L185.86,62.25L188.68,62.19L236.55,60.1L239.37,59.93L298.51,56.06L301.32,55.87L368.91,49.25L371.72,48.76L419.6,41.87L422.41,41.33L436.49,39.1L439.31,38.6L453.39,36.15L456.21,34.84L470.29,31.62L473.1,30.89L490,27.19L490,29.79L473.1,33.36L470.29,34.07L456.21,37.19L453.39,38.47L439.31,40.82L436.49,41.3L388.62,48.24L385.8,48.92L352.01,52.78L349.2,53.03L323.85,55.45L321.03,55.7L245,60.38L242.18,60.48L194.31,62.22L191.49,62.28L0,63Z" style="fill: rgb(108, 117, 125); fill-opacity: 0.5; stroke-width: 0;"/></g></g><g class="errorbars"/><g class="lines"><path class="js-line" d="M0,63L191.49,62.28L194.31,62.22L242.18,60.48L245,60.38L321.03,55.7L323.85,55.45L349.2,53.03L352.01,52.78L385.8,48.92L388.62,48.24L436.49,41.3L439.31,40.82L453.39,38.47L456.21,37.19L470.29,34.07L473.1,33.36L490,29.79" style="vector-effect: non-scaling-stroke; fill: none; stroke: rgb(40, 167, 69); stroke-opacity: 1; stroke-width: 2px; opacity: 1;"/></g><g class="points"/><g class="text"/></g><g class="trace scatter trace30c133" style="stroke-miterlimit: 2;"><g class="fills"><g><path class="js-fill" d="M0,63L149.25,62.28L152.07,62.21L177.41,60.9L180.23,60.61L216.84,56.31L219.66,55.92L270.34,49.41L273.16,49.07L332.3,41.04L335.11,40.58L391.44,30.59L394.25,29.99L433.68,20.77L436.49,19.97L487.18,4.14L490,3.15L490,27.19L473.1,30.89L470.29,31.62L456.21,34.84L453.39,36.15L439.31,38.6L436.49,39.1L422.41,41.33L419.6,41.87L371.72,48.76L368.91,49.25L301.32,55.87L298.51,56.06L239.37,59.93L236.55,60.1L188.68,62.19L185.86,62.25L0,63Z" style="fill: rgb(255, 7, 58); fill-opacity: 0.5; stroke-width: 0;"/></g></g><g class="errorbars"/><g class="lines"><path class="js-line" d="M0,63L185.86,62.25L188.68,62.19L236.55,60.1L239.37,59.93L298.51,56.06L301.32,55.87L368.91,49.25L371.72,48.76L419.6,41.87L422.41,41.33L436.49,39.1L439.31,38.6L453.39,36.15L456.21,34.84L470.29,31.62L473.1,30.89L490,27.19" style="vector-effect: non-scaling-stroke; fill: none; stroke: rgb(108, 117, 125); stroke-opacity: 1; stroke-width: 2px; opacity: 1;"/></g><g class="points"/><g class="text"/></g><g class="trace scatter trace8276f3" style="stroke-miterlimit: 2;"><g class="fills"/><g class="errorbars"/><g class="lines"><path class="js-line" d="M0,63L149.25,62.28L152.07,62.21L177.41,60.9L180.23,60.61L216.84,56.31L219.66,55.92L270.34,49.41L273.16,49.07L332.3,41.04L335.11,40.58L391.44,30.59L394.25,29.99L433.68,20.77L436.49,19.97L487.18,4.14L490,3.15" style="vector-effect: non-scaling-stroke; fill: none; stroke: rgb(255, 7, 58); stroke-opacity: 1; stroke-width: 2px; opacity: 1;"/></g><g class="points"/><g class="text"/></g></g></g><g class="overplot"/><path class="xlines-above crisp" style="fill: none;"/><path class="ylines-above crisp" style="fill: none;"/><g class="overlines-above"/><g class="xaxislayer-above"/><g class="yaxislayer-above"/><g class="overaxes-above"/></g><rect class="rangeslider-mask-min" x="0" y="0" shape-rendering="crispEdges" height="63" width="0" style="fill: rgb(0, 0, 0); fill-opacity: 0.4;"/><rect class="rangeslider-mask-max" y="0" shape-rendering="crispEdges" height="63" x="490" width="0" style="fill: rgb(0, 0, 0); fill-opacity: 0.4;"/><g class="rangeslider-grabber-min" transform="translate(-2.5,0.5)"><rect class="rangeslider-handle-min" x="0" width="4" rx="1" fill="#fff" stroke="#444" stroke-width="1" shape-rendering="crispEdges" y="16" height="32"/></g><g class="rangeslider-grabber-max" transform="translate(488.5,0.5)"><rect class="rangeslider-handle-max" x="0" width="4" rx="1" fill="#fff" stroke="#444" stroke-width="1" shape-rendering="crispEdges" y="16" height="32"/></g></g><g class="g-ytitle"><text class="ytitle" transform="rotate(-90,26.418750000000003,262)" x="26.418750000000003" y="262" text-anchor="middle" style="font-family: 'Open Sans', verdana, arial, sans-serif; font-size: 14px; fill: rgb(42, 63, 95); opacity: 1; font-weight: normal; white-space: pre;">Count</text></g><g class="g-xtitle"><text class="xtitle" x="325" y="551" text-anchor="middle" style="font-family: 'Open Sans', verdana, arial, sans-serif; font-size: 14px; fill: rgb(42, 63, 95); opacity: 1; font-weight: normal; white-space: pre;">Date</text></g></g></svg>