<svg class="main-svg" xmlns="http://www.w3.org/2000/svg" xmlns:xlink="http://www.w3.org/1999/xlink" width="700" height="600" style="" viewBox="0 0 700 600"><rect x="0" y="0" width="700" height="600" style="fill: rgb(255, 255, 255); fill-opacity: 1;"/><defs id="defs-aae0f0"><g class="clips"><clipPath id="clipaae0f0xyplot" class="plotclip"><rect width="494" height="310"/></clipPath><clipPath class="axesclip" id="clipaae0f0x"><rect x="80" y="0" width="494" height="600"/></clipPath><clipPath class="axesclip" id="clipaae0f0y"><rect x="0" y="100" width="700" height="310"/></clipPath><clipPath class="axesclip" id="clipaae0f0xy"><rect x="80" y="100" width="494" height="310"/></clipPath></g><g class="gradients"/></defs><g class="bglayer"><rect class="bg" x="80" y="100" width="494" height="310" style="fill: rgb(229, 236, 246); fill-opacity: 1; stroke-width: 0;"/></g><g class="layer-below"><g class="imagelayer"/><g class="shapelayer"/></g><g class="cartesianlayer"><g class="subplot xy"><g class="layer-subplot"><g class="shapelayer"/><g class="imagelayer"/></g><g class="gridlayer"><g class="x"><path class="xgrid crisp" transform="translate(129.85,0)" d="M0,100v310" style="stroke: rgb(255, 255, 255); stroke-opacity: 1; stroke-width: 1px;"/><path class="xgrid crisp" transform="translate(193.3,0)" d="M0,100v310" style="stroke: rgb(255, 255, 255); stroke-opacity: 1; stroke-width: 1px;"/><path class="xgrid crisp" transform="translate(256.75,0)" d="M0,100v310" style="stroke: rgb(255, 255, 255); stroke-opacity: 1; stroke-width: 1px;"/><path class="xgrid crisp" transform="translate(320.2,0)" d="M0,100v310" style="stroke: rgb(255, 255, 255); stroke-opacity: 1; stroke-width: 1px;"/><path class="xgrid crisp" transform="translate(383.65,0)" d="M0,100v310" style="stroke: rgb(255, 255, 255); stroke-opacity: 1; stroke-width: 1px;"/><path class="xgrid crisp" transform="translate(447.1,0)" d="M0,100v310" style="stroke: rgb(255, 255, 255); stroke-opacity: 1; stroke-width: 1px;"/><path class="xgrid crisp" transform="translate(510.55,0)" d="M0,100v310" style="stroke: rgb(255, 255, 255); stroke-opacity: 1; stroke-width: 1px;"/></g><g class="y"><path class="ygrid crisp" transform="translate(0,374.28)" d="M80,0h494" style="stroke: rgb(255, 255, 255); stroke-opacity: 1; stroke-width: 1px;"/><path class="ygrid crisp" transform="translate(0,338.56)" d="M80,0h494" style="stroke: rgb(255, 255, 255); stroke-opacity: 1; stroke-width: 1px;"/><path class="ygrid crisp" transform="translate(0,302.84000000000003)" d="M80,0h494" style="stroke: rgb(255, 255, 255); stroke-opacity: 1; stroke-width: 1px;"/><path class="ygrid crisp" transform="translate(0,267.12)" d="M80,0h494" style="stroke: rgb(255, 255, 255); stroke-opacity: 1; stroke-width: 1px;"/><path class="ygrid crisp" transform="translate(0,231.4)" d="M80,0h494" style="stroke: rgb(255, 255, 255); stroke-opacity: 1; stroke-width: 1px;"/><path class="ygrid crisp" transform="translate(0,195.68)" d="M80,0h494" style="stroke: rgb(255, 255, 255); stroke-opacity: 1; stroke-width: 1px;"/><path class="ygrid crisp" transform="translate(0,159.96)" d="M80,0h494" style="stroke: rgb(255, 255, 255); stroke-opacity: 1; stroke-width: 1px;"/><path class="ygrid crisp" transform="translate(0,124.24)" d="M80,0h494" style="stroke: rgb(255, 255, 255); stroke-opacity: 1; stroke-width: 1px;"/></g></g><g class="zerolinelayer"><path class="yzl zl crisp" transform="translate(0,410)" d="M80,0h494" style="stroke: rgb(255, 255, 255); stroke-opacity: 1; stroke-width: 2px;"/></g><path class="xlines-below"/><path class="ylines-below"/><g class="overlines-below"/><g class="xaxislayer-below"/><g class="yaxislayer-below"/><g class="overaxes-below"/><g class="plot" transform="translate(80, 100)" clip-path="url('#clipaae0f0xyplot')"><g class="scatterlayer mlayer"><g class="trace scatter traceb59b1a" style="stroke-miterlimit: 2;"><g class="fills"><g><path class="js-fill" d="M494,310L0,310L0,310L108.77,309.33L113.3,309.22L181.28,306.74L185.82,306.56L249.27,304.33L253.8,304.16L276.46,303.18L280.99,302.53L299.12,300.38L303.65,299.71L339.91,290.72L344.44,289.04L358.04,283.64L362.57,281.79L371.63,278.48L376.17,276.68L385.23,271.86L389.76,270L403.36,264.48L407.89,262.01L416.95,257.81L421.49,254.21L439.61,245.84L444.15,242.89L448.68,238.22L453.21,235.47L466.81,227.6L471.34,225.02L480.4,218.89L484.94,216.24L489.47,212.41L494,210.03" style="fill: rgb(40, 167, 69); fill-opacity: 0.5; stroke-width: 0;"/></g><g><path class="js-fill" d="M0,310L104.24,309.32L108.77,309.21L172.22,306.95L176.75,306.74L276.46,301.99L280.99,301.19L299.12,298.12L303.65,297.2L326.31,289.89L330.84,288.02L339.91,285.1L344.44,282.86L362.57,273.65L367.1,271.85L376.17,267.23L380.7,264.04L394.29,256.65L398.83,254.08L403.36,252.13L407.89,249.15L416.95,244L421.49,239.94L439.61,230.09L444.15,226.64L448.68,221.56L453.21,218.44L462.28,212.61L466.81,209.65L475.87,202.87L480.4,199.66L484.94,196.62L489.47,192.48L494,189.85L494,210.03L489.47,212.41L484.94,216.24L480.4,218.89L471.34,225.02L466.81,227.6L453.21,235.47L448.68,238.22L444.15,242.89L439.61,245.84L421.49,254.21L416.95,257.81L407.89,262.01L403.36,264.48L389.76,270L385.23,271.86L376.17,276.68L371.63,278.48L362.57,281.79L358.04,283.64L344.44,289.04L339.91,290.72L303.65,299.71L299.12,300.38L280.99,302.53L276.46,303.18L253.8,304.16L249.27,304.33L185.82,306.56L181.28,306.74L113.3,309.22L108.77,309.33L0,310Z" style="fill: rgb(108, 117, 125); fill-opacity: 0.5; stroke-width: 0;"/></g></g><g class="errorbars"/><g class="lines"><path class="js-line" d="M0,310L108.77,309.33L113.3,309.22L181.28,306.74L185.82,306.56L249.27,304.33L253.8,304.16L276.46,303.18L280.99,302.53L299.12,300.38L303.65,299.71L339.91,290.72L344.44,289.04L358.04,283.64L362.57,281.79L371.63,278.48L376.17,276.68L385.23,271.86L389.76,270L403.36,264.48L407.89,262.01L416.95,257.81L421.49,254.21L439.61,245.84L444.15,242.89L448.68,238.22L453.21,235.47L466.81,227.6L471.34,225.02L480.4,218.89L484.94,216.24L489.47,212.41L494,210.03" style="vector-effect: non-scaling-stroke; fill: none; stroke: rgb(40, 167, 69); stroke-opacity: 1; stroke-width: 2px; opacity: 1;"/></g><g class="points"/><g class="text"/></g><g class="trace scatter trace5b9930" style="stroke-miterlimit: 2;"><g class="fills"><g><path class="js-fill" d="M0,309.96L45.32,309.14L49.85,308.8L95.17,306.77L99.71,305.69L113.3,304.91L117.83,304.77L154.09,304.33L158.62,304.28L203.94,302.94L208.48,302.68L226.61,301.39L231.14,300.19L249.27,296.51L253.8,295.25L271.93,286.56L276.46,283.62L285.52,277.22L290.06,272.8L312.72,249.32L317.25,243.98L339.91,216.1L344.44,210.71L362.57,186.25L367.1,179.14L380.7,163.28L385.23,156.34L398.83,138.4L403.36,133.28L421.49,109.95L426.02,103.79L448.68,76.56L453.21,70.26L480.4,33.97L484.94,27.31L494,15.5L494,189.85L489.47,192.48L484.94,196.62L480.4,199.66L475.87,202.87L466.81,209.65L462.28,212.61L453.21,218.44L448.68,221.56L444.15,226.64L439.61,230.09L421.49,239.94L416.95,244L407.89,249.15L403.36,252.13L398.83,254.08L394.29,256.65L380.7,264.04L376.17,267.23L367.1,271.85L362.57,273.65L344.44,282.86L339.91,285.1L330.84,288.02L326.31,289.89L303.65,297.2L299.12,298.12L280.99,301.19L276.46,301.99L176.75,306.74L172.22,306.95L108.77,309.21L104.24,309.32L0,310Z" style="fill: rgb(255, 7, 58); fill-opacity: 0.5; stroke-width: 0;"/></g></g><g class="errorbars"/><g class="lines"><path class="js-line" d="M0,310L104.24,309.32L108.77,309.21L172.22,306.95L176.75,306.74L276.46,301.99L280.99,301.19L299.12,298.12L303.65,297.2L326.31,289.89L330.84,288.02L339.91,285.1L344.44,282.86L362.57,273.65L367.1,271.85L376.17,267.23L380.7,264.04L394.29,256.65L398.83,254.08L403.36,252.13L407.89,249.15L416.95,244L421.49,239.94L439.61,230.09L444.15,226.64L448.68,221.56L453.21,218.44L462.28,212.61L466.81,209.65L475.87,202.87L480.4,199.66L484.94,196.62L489.47,192.48L494,189.85" style="vector-effect: non-scaling-stroke; fill: none; stroke: rgb(108, 117, 125); stroke-opacity: 1; stroke-width: 2px; opacity: 1;"/></g><g class="points"/><g class="text"/></g><g class="trace scatter trace5e2924" style="stroke-miterlimit: 2;"><g class="fills"/><g class="errorbars"/><g class="lines"><path class="js-line" d="M0,309.96L45.32,309.14L49.85,308.8L95.17,306.77L99.71,305.69L113.3,304.91L117.83,304.77L154.09,304.33L158.62,304.28L203.94,302.94L208.48,302.68L226.61,301.39L231.14,300.19L249.27,296.51L253.8,295.25L271.93,286.56L276.46,283.62L285.52,277.22L290.06,272.8L312.72,249.32L317.25,243.98L339.91,216.1L344.44,210.71L362.57,186.25L367.1,179.14L380.7,163.28L385.23,156.34L398.83,138.4L403.36,133.28L421.49,109.95L426.02,103.79L448.68,76.56L453.21,70.26L480.4,33.97L484.94,27.31L494,15.5" style="vector-effect: non-scaling-stroke; fill: none; stroke: rgb(255, 7, 58); stroke-opacity: 1; stroke-width: 2px; opacity: 1;"/></g><g class="points"/><g class="text"/></g></g></g><g class="overplot"/><path class="xlines-above crisp" style="fill: none;" d="M0,0"/><path class="ylines-above crisp" style="fill: none;" d="M0,0"/><g class="overlines-above"/><g class="xaxislayer-above"><g class="xtick"><text text-anchor="middle" x="0" y="423" transform="translate(129.85,0)" style="font-family: 'Open Sans', verdana, arial, sans-serif; font-size: 12px; fill: rgb(42, 63, 95); fill-opacity: 1; white-space: pre;"><tspan class="line" dy="0em" x="0" y="423">Feb 2</tspan><tspan class="line" dy="1.3em" x="0" y="423">2020</tspan></text></g><g class="xtick"><text text-anchor="middle" x="0" y="423" transform="translate(193.3,0)" style="font-family: 'Open Sans', verdana, arial, sans-serif; font-size: 12px; fill: rgb(42, 63, 95); fill-opacity: 1; white-space: pre;">Feb 16</text></g><g class="xtick"><text text-anchor="middle" x="0" y="423" transform="translate(256.75,0)" style="font-family: 'Open Sans', verdana, arial, sans-serif; font-size: 12px; fill: rgb(42, 63, 95); fill-opacity: 1; white-space: pre;">Mar 1</text></g><g class="xtick"><text text-anchor="middle" x="0" y="423" transform="translate(320.2,0)" style="font-family: 'Open Sans', verdana, arial, sans-serif; font-size: 12px; fill: rgb(42, 63, 95); fill-opacity: 1; white-space: pre;">Mar 15</text></g><g class="xtick"><text text-anchor="middle" x="0" y="423" transform="translate(383.65,0)" style="font-family: 'Open Sans', verdana, arial, sans-serif; font-size: 12px; fill: rgb(42, 63, 95); fill-opacity: 1; white-space: pre;">Mar 29</text></g><g class="xtick"><text text-anchor="middle" x="0" y="423" transform="translate(447.1,0)" style="font-family: 'Open Sans', verdana, arial, sans-serif; font-size: 12px; fill: rgb(42, 63, 95); fill-opacity: 1; white-space: pre;">Apr 12</text></g><g class="xtick"><text text-anchor="middle" x="0" y="423" transform="translate(510.55,0)" style="font-family: 'Open Sans', verdana, arial, sans-serif; font-size: 12px; fill: rgb(42, 63, 95); fill-opacity: 1; white-space: pre;">Apr 26</text></g><g class="xtick"><text text-anchor="middle" x="0" y="423" transform="translate(574,0)" style="font-family: 'Open Sans', verdana, arial, sans-serif; font-size: 12px; fill: rgb(42, 63, 95); fill-opacity: 1; white-space: pre;">May 10</text></g></g><g class="yaxislayer-above"><g class="ytick"><text text-anchor="end" x="79" y="4.199999999999999" transform="translate(0,410)" style="font-family: 'Open Sans', verdana, arial, sans-serif; font-size: 12px; fill: rgb(42, 63, 95); fill-opacity: 1; white-space: pre;">0</text></g><g class="ytick"><text text-anchor="end" x="79" y="4.199999999999999" transform="translate(0,374.28)" style="font-family: 'Open Sans', verdana, arial, sans-serif; font-size: 12px; fill: rgb(42, 63, 95); fill-opacity: 1; white-space: pre;">0.5M</text></g><g class="ytick"><text text-anchor="end" x="79" y="4.199999999999999" transform="translate(0,338.56)" style="font-family: 'Open Sans', verdana, arial, sans-serif; font-size: 12px; fill: rgb(42, 63, 95); fill-opacity: 1; white-space: pre;">1M</text></g><g class="ytick"><text text-anchor="end" x="79" y="4.199999999999999" transform="translate(0,302.84000000000003)" style="font-family: 'Open Sans', verdana, arial, sans-serif; font-size: 12px; fill: rgb(42, 63, 95); fill-opacity: 1; white-space: pre;">1.5M</text></g><g class="ytick"><text text-anchor="end" x="79" y="4.199999999999999" transform="translate(0,267.12)" style="font-family: 'Open Sans', verdana, arial, sans-serif; font-size: 12px; fill: rgb(42, 63, 95); fill-opacity: 1; white-space: pre;">2M</text></g><g class="ytick"><text text-anchor="end" x="79" y="4.199999999999999" transform="translate(0,231.4)" style="font-family: 'Open Sans', verdana, arial, sans-serif; font-size: 12px; fill: rgb(42, 63, 95); fill-opacity: 1; white-space: pre;">2.5M</text></g><g class="ytick"><text text-anchor="end" x="79" y="4.199999999999999" transform="translate(0,195.68)" style="font-family: 'Open Sans', verdana, arial, sans-serif; font-size: 12px; fill: rgb(42, 63, 95); fill-opacity: 1; white-space: pre;">3M</text></g><g class="ytick"><text text-anchor="end" x="79" y="4.199999999999999" transform="translate(0,159.96)" style="font-family: 'Open Sans', verdana, arial, sans-serif; font-size: 12px; fill: rgb(42, 63, 95); fill-opacity: 1; white-space: pre;">3.5M</text></g><g class="ytick"><text text-anchor="end" x="79" y="4.199999999999999" transform="translate(0,124.24)" style="font-family: 'Open Sans', verdana, arial, sans-serif; font-size: 12px; fill: rgb(42, 63, 95); fill-opacity: 1; white-space: pre;">4M</text></g></g><g class="overaxes-above"/></g></g><g class="polarlayer"/><g class="ternarylayer"/><g class="geolayer"/><g class="funnelarealayer"/><g class="pielayer"/><g class="treemaplayer"/><g class="sunburstlayer"/><g class="glimages"/><defs id="topdefs-aae0f0"><g class="clips"/><clipPath id="legendaae0f0"><rect width="104" height="83" x="0" y="0"/></clipPath><clipPath id="rangesliderx-aae0f0"><rect x="0" y="0" width="494" height="63"/></clipPath></defs><g class="layer-above"><g class="imagelayer"/><g class="shapelayer"/></g><g class="infolayer"><g class="legend" pointer-events="all" transform="translate(583.88, 100)"><rect class="bg" shape-rendering="crispEdges" style="stroke: rgb(68, 68, 68); stroke-opacity: 1; fill: rgb(255, 255, 255); fill-opacity: 1; stroke-width: 0px;" width="104" height="83" x="0" y="0"/><g class="scrollbox" transform="translate(0, 0)" clip-path="url('#legendaae0f0')"><text class="legendtitletext user-select-none" text-anchor="start" x="2" y="15.600000000000001" style="font-family: 'Open Sans', verdana, arial, sans-serif; font-size: 12px; fill: rgb(42, 63, 95); fill-opacity: 1; white-space: pre;">Case</text><g class="groups" transform="translate(0, 0)"><g class="traces" transform="translate(0, 30.1)" style="opacity: 1;"><text class="legendtext user-select-none" text-anchor="start" x="40" y="4.680000000000001" style="font-family: 'Open Sans', verdana, arial, sans-serif; font-size: 12px; fill: rgb(42, 63, 95); fill-opacity: 1; white-space: pre;">Recovered</text><g class="layers"><g class="legendfill"><path class="js-fill" d="M5,-2h30v6h-30z" style="stroke-width: 0; fill: rgb(40, 167, 69); fill-opacity: 0.5;"/></g><g class="legendlines"><path class="js-line" d="M5,-2h30" style="fill: none; stroke: rgb(40, 167, 69); stroke-opacity: 1; stroke-width: 2px;"/></g><g class="legendsymbols"><g class="legendpoints"/></g></g><rect class="legendtoggle" pointer-events="all" x="0" y="-9.5" width="98.03125" height="19" style="cursor: pointer; fill: rgb(0, 0, 0); fill-opacity: 0;"/></g></g><g class="groups" transform="translate(0, 0)"><g class="traces" transform="translate(0, 49.1)" style="opacity: 1;"><text class="legendtext user-select-none" text-anchor="start" x="40" y="4.680000000000001" style="font-family: 'Open Sans', verdana, arial, sans-serif; font-size: 12px; fill: rgb(42, 63, 95); fill-opacity: 1; white-space: pre;">Deaths</text><g class="layers"><g class="legendfill"><path class="js-fill" d="M5,-2h30v6h-30z" style="stroke-width: 0; fill: rgb(108, 117, 125); fill-opacity: 0.5;"/></g><g class="legendlines"><path class="js-line" d="M5,-2h30" style="fill: none; stroke: rgb(108, 117, 125); stroke-opacity: 1; stroke-width: 2px;"/></g><g class="legendsymbols"><g class="legendpoints"/></g></g><rect class="legendtoggle" pointer-events="all" x="0" y="-9.5" width="98.03125" height="19" style="cursor: pointer; fill: rgb(0, 0, 0); fill-opacity: 0;"/></g></g><g class="groups" transform="translate(0, 0)"><g class="traces" transform="translate(0, 68.1)" style="opacity: 1;"><text class="legendtext user-select-none" text-anchor="start" x="40" y="4.680000000000001" style="font-family: 'Open Sans', verdana, arial, sans-serif; font-size: 12px; fill: rgb(42, 63, 95); fill-opacity: 1; white-space: pre;">Active</text><g class="layers"><g class="legendfill"><path class="js-fill" d="M5,-2h30v6h-30z" style="stroke-width: 0; fill: rgb(255, 7, 58); fill-opacity: 0.5;"/></g><g class="legendlines"><path class="js-line" d="M5,-2h30" style="fill: none; stroke: rgb(255, 7, 58); stroke-opacity: 1; stroke-width: 2px;"/></g><g class="legendsymbols"><g class="legendpoints"/></g></g><rect class="legendtoggle" pointer-events="all" x="0" y="-9.5" width="98.03125" height="19" style="cursor: pointer; fill: rgb(0, 0, 0); fill-opacity: 0;"/></g></g></g><rect class="scrollbar" rx="20" ry="3" width="0" height="0" x="0" y="0" style="fill: rgb(128, 139, 164); fill-opacity: 1;"/></g><g class="g-gtitle"><text class="gtitle" x="35" y="50" text-anchor="start" dy="0em" style="font-family: 'Open Sans', verdana, arial, sans-serif; font-size: 17px; fill: rgb(42, 63, 95); opacity: 1; font-weight: normal; white-space: pre;">Cases over time</text></g><g class="rangeslider-container" pointer-events="all" transform="translate(80,457)"><rect class="rangeslider-bg" x="0" y="0" shape-rendering="crispEdges" width="494" height="63" transform="translate(0,0)" fill="#E5ECF6" stroke="#444" stroke-width="0"/><g class="rangeslider-rangeplot xy" clip-path="url('#rangesliderx-aae0f0')"><g class="layer-subplot"><g class="shapelayer"/><g class="imagelayer"/></g><g class="gridlayer"><g class="x"/><g class="y"/></g><g class="zerolinelayer"/><path class="xlines-below"/><path class="ylines-below"/><g class="overlines-below"/><g class="xaxislayer-below"/><g class="yaxislayer-below"/><g class="overaxes-below"/><g class="plot"><g class="scatterlayer mlayer rangeplot"><g class="trace scatter traceb59b1a" style="stroke-miterlimit: 2;"><g class="fills"><g><path class="js-fill" d="M494,63L0,63L0,63L190.35,62.26L194.88,62.22L303.65,60.91L308.18,60.69L353.5,57.96L358.04,57.64L416.95,52.39L421.49,51.66L444.15,49.36L448.68,48.41L494,42.68" style="fill: rgb(40, 167, 69); fill-opacity: 0.5; stroke-width: 0;"/></g><g><path class="js-fill" d="M0,63L185.82,62.25L190.35,62.21L299.12,60.59L303.65,60.4L348.97,56.97L353.5,56.5L403.36,51.24L407.89,50.63L444.15,46.06L448.68,45.03L494,38.58L494,42.68L448.68,48.41L444.15,49.36L421.49,51.66L416.95,52.39L358.04,57.64L353.5,57.96L308.18,60.69L303.65,60.91L194.88,62.22L190.35,62.26L0,63Z" style="fill: rgb(108, 117, 125); fill-opacity: 0.5; stroke-width: 0;"/></g></g><g class="errorbars"/><g class="lines"><path class="js-line" d="M0,63L190.35,62.26L194.88,62.22L303.65,60.91L308.18,60.69L353.5,57.96L358.04,57.64L416.95,52.39L421.49,51.66L444.15,49.36L448.68,48.41L494,42.68" style="vector-effect: non-scaling-stroke; fill: none; stroke: rgb(40, 167, 69); stroke-opacity: 1; stroke-width: 2px; opacity: 1;"/></g><g class="points"/><g class="text"/></g><g class="trace scatter trace5b9930" style="stroke-miterlimit: 2;"><g class="fills"><g><path class="js-fill" d="M0,62.99L95.17,62.34L99.71,62.12L149.56,61.86L154.09,61.85L231.14,61.01L235.67,60.85L262.86,59.17L267.39,58.71L285.52,56.34L290.06,55.44L321.78,48.41L326.31,47.2L421.49,22.35L426.02,21.09L471.34,9.59L475.87,8.22L494,3.15L494,38.58L448.68,45.03L444.15,46.06L407.89,50.63L403.36,51.24L353.5,56.5L348.97,56.97L303.65,60.4L299.12,60.59L190.35,62.21L185.82,62.25L0,63Z" style="fill: rgb(255, 7, 58); fill-opacity: 0.5; stroke-width: 0;"/></g></g><g class="errorbars"/><g class="lines"><path class="js-line" d="M0,63L185.82,62.25L190.35,62.21L299.12,60.59L303.65,60.4L348.97,56.97L353.5,56.5L403.36,51.24L407.89,50.63L444.15,46.06L448.68,45.03L494,38.58" style="vector-effect: non-scaling-stroke; fill: none; stroke: rgb(108, 117, 125); stroke-opacity: 1; stroke-width: 2px; opacity: 1;"/></g><g class="points"/><g class="text"/></g><g class="trace scatter trace5e2924" style="stroke-miterlimit: 2;"><g class="fills"/><g class="errorbars"/><g class="lines"><path class="js-line" d="M0,62.99L95.17,62.34L99.71,62.12L149.56,61.86L154.09,61.85L231.14,61.01L235.67,60.85L262.86,59.17L267.39,58.71L285.52,56.34L290.06,55.44L321.78,48.41L326.31,47.2L421.49,22.35L426.02,21.09L471.34,9.59L475.87,8.22L494,3.15" style="vector-effect: non-scaling-stroke; fill: none; stroke: rgb(255, 7, 58); stroke-opacity: 1; stroke-width: 2px; opacity: 1;"/></g><g class="points"/><g class="text"/></g></g></g><g class="overplot"/><path class="xlines-above crisp" style="fill: none;"/><path class="ylines-above crisp" style="fill: none;"/><g class="overlines-above"/><g class="xaxislayer-above"/><g class="yaxislayer-above"/><g class="overaxes-above"/></g><rect class="rangeslider-mask-min" x="0" y="0" shape-rendering="crispEdges" height="63" width="0" style="fill: rgb(0, 0, 0); fill-opacity: 0.4;"/><rect class="rangeslider-mask-max" y="0" shape-rendering="crispEdges" height="63" x="494" width="0" style="fill: rgb(0, 0, 0); fill-opacity: 0.4;"/><g class="rangeslider-grabber-min" transform="translate(-2.5,0.5)"><rect class="rangeslider-handle-min" x="0" width="4" rx="1" fill="#fff" stroke="#444" stroke-width="1" shape-rendering="crispEdges" y="16" height="32"/></g><g class="rangeslider-grabber-max" transform="translate(492.5,0.5)"><rect class="rangeslider-handle-max" x="0" width="4" rx="1" fill="#fff" stroke="#444" stroke-width="1" shape-rendering="crispEdges" y="16" height="32"/></g></g><g class="g-ytitle"><text class="ytitle" transform="rotate(-90,27.512500000000003,255)" x="27.512500000000003" y="255" text-anchor="middle" style="font-family: 'Open Sans', verdana, arial, sans-serif; font-size: 14px; fill: rgb(42, 63, 95); opacity: 1; font-weight: normal; white-space: pre;">Count</text></g><g class="g-xtitle"><text class="xtitle" x="327" y="551" text-anchor="middle" style="font-family: 'Open Sans', verdana, arial, sans-serif; font-size: 14px; fill: rgb(42, 63, 95); opacity: 1; font-weight: normal; white-space: pre;">Date</text></g></g></svg>