<svg class="main-svg" xmlns="http://www.w3.org/2000/svg" xmlns:xlink="http://www.w3.org/1999/xlink" width="700" height="600" style="" viewBox="0 0 700 600"><rect x="0" y="0" width="700" height="600" style="fill: rgb(255, 255, 255); fill-opacity: 1;"/><defs id="defs-ff8f5c"><g class="clips"><clipPath id="clipff8f5cxyplot" class="plotclip"><rect width="490" height="324"/></clipPath><clipPath class="axesclip" id="clipff8f5cx"><rect x="80" y="0" width="490" height="600"/></clipPath><clipPath class="axesclip" id="clipff8f5cy"><rect x="0" y="100" width="700" height="324"/></clipPath><clipPath class="axesclip" id="clipff8f5cxy"><rect x="80" y="100" width="490" height="324"/></clipPath></g><g class="gradients"/></defs><g class="bglayer"><rect class="bg" x="80" y="100" width="490" height="324" style="fill: rgb(229, 236, 246); fill-opacity: 1; stroke-width: 0;"/></g><g class="layer-below"><g class="imagelayer"/><g class="shapelayer"/></g><g class="cartesianlayer"><g class="subplot xy"><g class="layer-subplot"><g class="shapelayer"/><g class="imagelayer"/></g><g class="gridlayer"><g class="x"><path class="xgrid crisp" transform="translate(156.75,0)" d="M0,100v324" style="stroke: rgb(255, 255, 255); stroke-opacity: 1; stroke-width: 1px;"/><path class="xgrid crisp" transform="translate(276.78999999999996,0)" d="M0,100v324" style="stroke: rgb(255, 255, 255); stroke-opacity: 1; stroke-width: 1px;"/><path class="xgrid crisp" transform="translate(396.83,0)" d="M0,100v324" style="stroke: rgb(255, 255, 255); stroke-opacity: 1; stroke-width: 1px;"/><path class="xgrid crisp" transform="translate(518.8399999999999,0)" d="M0,100v324" style="stroke: rgb(255, 255, 255); stroke-opacity: 1; stroke-width: 1px;"/></g><g class="y"><path class="ygrid crisp" transform="translate(0,377.3)" d="M80,0h490" style="stroke: rgb(255, 255, 255); stroke-opacity: 1; stroke-width: 1px;"/><path class="ygrid crisp" transform="translate(0,330.61)" d="M80,0h490" style="stroke: rgb(255, 255, 255); stroke-opacity: 1; stroke-width: 1px;"/><path class="ygrid crisp" transform="translate(0,283.90999999999997)" d="M80,0h490" style="stroke: rgb(255, 255, 255); stroke-opacity: 1; stroke-width: 1px;"/><path class="ygrid crisp" transform="translate(0,237.22)" d="M80,0h490" style="stroke: rgb(255, 255, 255); stroke-opacity: 1; stroke-width: 1px;"/><path class="ygrid crisp" transform="translate(0,190.51999999999998)" d="M80,0h490" style="stroke: rgb(255, 255, 255); stroke-opacity: 1; stroke-width: 1px;"/><path class="ygrid crisp" transform="translate(0,143.82999999999998)" d="M80,0h490" style="stroke: rgb(255, 255, 255); stroke-opacity: 1; stroke-width: 1px;"/></g></g><g class="zerolinelayer"><path class="yzl zl crisp" transform="translate(0,424)" d="M80,0h490" style="stroke: rgb(255, 255, 255); stroke-opacity: 1; stroke-width: 2px;"/></g><path class="xlines-below"/><path class="ylines-below"/><g class="overlines-below"/><g class="xaxislayer-below"/><g class="yaxislayer-below"/><g class="overaxes-below"/><g class="plot" transform="translate(80, 100)" clip-path="url('#clipff8f5cxyplot')"><g class="scatterlayer mlayer"><g class="trace scatter trace9c8c92" style="stroke-miterlimit: 2;"><g class="fills"><g><path class="js-fill" d="M490,324L0,324L0,324L108.23,323.26L110.2,323.24L137.75,322.25L139.72,322.09L161.37,319.88L163.33,319.65L218.43,310.19L220.4,309.67L234.18,306.41L236.14,305.94L240.08,304.42L242.05,303.9L259.76,298L261.73,297.27L271.57,293.37L273.53,292.6L293.21,284.45L295.18,283.37L301.08,280.9L303.05,279.82L316.83,273.08L318.8,270.42L322.73,267.57L324.7,266.46L340.44,256.4L342.41,255.07L360.12,241.87L362.09,239.73L366.02,236.37L367.99,234.79L375.86,227.36L377.83,225.63L381.77,222.28L383.73,220.21L391.61,212.7L393.57,211.05L395.54,209.51L397.51,206.67L407.35,196.48L409.32,194.51L421.12,182.85L423.09,180.98L432.93,170.99L434.9,169.04L446.71,156.82L448.67,154.86L458.51,144.8L460.48,142.72L466.39,136.76L468.35,134.62L480.16,121.5L482.13,119.04L488.03,112.16L490,110.9" style="fill: rgb(40, 167, 69); fill-opacity: 0.5; stroke-width: 0;"/></g><g><path class="js-fill" d="M0,324L102.33,323.27L104.3,323.24L133.82,322.23L135.78,322.07L159.4,319.2L161.37,318.9L192.85,313.39L194.82,312.73L228.27,305.36L230.24,304.83L244.02,300.44L245.98,299.89L261.73,294.07L263.69,293.37L271.57,289.99L273.53,289.18L293.21,280.62L295.18,279.5L301.08,276.92L303.05,275.8L316.83,268.79L318.8,266.09L322.73,263.15L324.7,262.01L338.47,252.96L340.44,251.61L356.18,239.93L358.15,238.23L371.93,225.66L373.9,223.53L397.51,200.38L399.48,198.07L401.45,196.47L403.41,193.72L409.32,187.89L411.29,185.69L432.93,163.75L434.9,161.77L442.77,153.22L444.74,151.18L458.51,136.92L460.48,134.8L466.39,128.71L468.35,126.52L480.16,113.14L482.13,110.63L488.03,103.59L490,102.31L490,110.9L488.03,112.16L482.13,119.04L480.16,121.5L468.35,134.62L466.39,136.76L460.48,142.72L458.51,144.8L448.67,154.86L446.71,156.82L434.9,169.04L432.93,170.99L423.09,180.98L421.12,182.85L409.32,194.51L407.35,196.48L397.51,206.67L395.54,209.51L393.57,211.05L391.61,212.7L383.73,220.21L381.77,222.28L377.83,225.63L375.86,227.36L367.99,234.79L366.02,236.37L362.09,239.73L360.12,241.87L342.41,255.07L340.44,256.4L324.7,266.46L322.73,267.57L318.8,270.42L316.83,273.08L303.05,279.82L301.08,280.9L295.18,283.37L293.21,284.45L273.53,292.6L271.57,293.37L261.73,297.27L259.76,298L242.05,303.9L240.08,304.42L236.14,305.94L234.18,306.41L220.4,309.67L218.43,310.19L163.33,319.65L161.37,319.88L139.72,322.09L137.75,322.25L110.2,323.24L108.23,323.26L0,324Z" style="fill: rgb(108, 117, 125); fill-opacity: 0.5; stroke-width: 0;"/></g></g><g class="errorbars"/><g class="lines"><path class="js-line" d="M0,324L108.23,323.26L110.2,323.24L137.75,322.25L139.72,322.09L161.37,319.88L163.33,319.65L218.43,310.19L220.4,309.67L234.18,306.41L236.14,305.94L240.08,304.42L242.05,303.9L259.76,298L261.73,297.27L271.57,293.37L273.53,292.6L293.21,284.45L295.18,283.37L301.08,280.9L303.05,279.82L316.83,273.08L318.8,270.42L322.73,267.57L324.7,266.46L340.44,256.4L342.41,255.07L360.12,241.87L362.09,239.73L366.02,236.37L367.99,234.79L375.86,227.36L377.83,225.63L381.77,222.28L383.73,220.21L391.61,212.7L393.57,211.05L395.54,209.51L397.51,206.67L407.35,196.48L409.32,194.51L421.12,182.85L423.09,180.98L432.93,170.99L434.9,169.04L446.71,156.82L448.67,154.86L458.51,144.8L460.48,142.72L466.39,136.76L468.35,134.62L480.16,121.5L482.13,119.04L488.03,112.16L490,110.9" style="vector-effect: non-scaling-stroke; fill: none; stroke: rgb(40, 167, 69); stroke-opacity: 1; stroke-width: 2px; opacity: 1;"/></g><g class="points"/><g class="text"/></g><g class="trace scatter tracedf5308" style="stroke-miterlimit: 2;"><g class="fills"><g><path class="js-fill" d="M0,323.99L72.81,323.24L74.78,323.23L108.23,322.21L110.2,322.03L123.98,319.61L125.94,319.03L145.62,312.24L147.59,311.56L206.63,288.94L208.59,288.11L247.95,270.91L249.92,269.8L287.31,247.76L289.28,246.43L303.05,236.35L305.02,234.69L332.57,209.64L334.54,207.47L356.18,184.69L358.15,182.08L366.02,172.44L367.99,170.33L401.45,129.08L403.41,126.24L429,95.99L430.96,93.36L456.55,61.32L458.51,58.33L482.13,26.74L484.1,23.37L488.03,17.65L490,16.2L490,102.31L488.03,103.59L482.13,110.63L480.16,113.14L468.35,126.52L466.39,128.71L460.48,134.8L458.51,136.92L444.74,151.18L442.77,153.22L434.9,161.77L432.93,163.75L411.29,185.69L409.32,187.89L403.41,193.72L401.45,196.47L399.48,198.07L397.51,200.38L373.9,223.53L371.93,225.66L358.15,238.23L356.18,239.93L340.44,251.61L338.47,252.96L324.7,262.01L322.73,263.15L318.8,266.09L316.83,268.79L303.05,275.8L301.08,276.92L295.18,279.5L293.21,280.62L273.53,289.18L271.57,289.99L263.69,293.37L261.73,294.07L245.98,299.89L244.02,300.44L230.24,304.83L228.27,305.36L194.82,312.73L192.85,313.39L161.37,318.9L159.4,319.2L135.78,322.07L133.82,322.23L104.3,323.24L102.33,323.27L0,324Z" style="fill: rgb(255, 7, 58); fill-opacity: 0.5; stroke-width: 0;"/></g></g><g class="errorbars"/><g class="lines"><path class="js-line" d="M0,324L102.33,323.27L104.3,323.24L133.82,322.23L135.78,322.07L159.4,319.2L161.37,318.9L192.85,313.39L194.82,312.73L228.27,305.36L230.24,304.83L244.02,300.44L245.98,299.89L261.73,294.07L263.69,293.37L271.57,289.99L273.53,289.18L293.21,280.62L295.18,279.5L301.08,276.92L303.05,275.8L316.83,268.79L318.8,266.09L322.73,263.15L324.7,262.01L338.47,252.96L340.44,251.61L356.18,239.93L358.15,238.23L371.93,225.66L373.9,223.53L397.51,200.38L399.48,198.07L401.45,196.47L403.41,193.72L409.32,187.89L411.29,185.69L432.93,163.75L434.9,161.77L442.77,153.22L444.74,151.18L458.51,136.92L460.48,134.8L466.39,128.71L468.35,126.52L480.16,113.14L482.13,110.63L488.03,103.59L490,102.31" style="vector-effect: non-scaling-stroke; fill: none; stroke: rgb(108, 117, 125); stroke-opacity: 1; stroke-width: 2px; opacity: 1;"/></g><g class="points"/><g class="text"/></g><g class="trace scatter trace4121c2" style="stroke-miterlimit: 2;"><g class="fills"/><g class="errorbars"/><g class="lines"><path class="js-line" d="M0,323.99L72.81,323.24L74.78,323.23L108.23,322.21L110.2,322.03L123.98,319.61L125.94,319.03L145.62,312.24L147.59,311.56L206.63,288.94L208.59,288.11L247.95,270.91L249.92,269.8L287.31,247.76L289.28,246.43L303.05,236.35L305.02,234.69L332.57,209.64L334.54,207.47L356.18,184.69L358.15,182.08L366.02,172.44L367.99,170.33L401.45,129.08L403.41,126.24L429,95.99L430.96,93.36L456.55,61.32L458.51,58.33L482.13,26.74L484.1,23.37L488.03,17.65L490,16.2" style="vector-effect: non-scaling-stroke; fill: none; stroke: rgb(255, 7, 58); stroke-opacity: 1; stroke-width: 2px; opacity: 1;"/></g><g class="points"/><g class="text"/></g></g></g><g class="overplot"/><path class="xlines-above crisp" style="fill: none; stroke-width: 1px; stroke: rgb(255, 255, 255); stroke-opacity: 1;" d="M79,424.5H570"/><path class="ylines-above crisp" style="fill: none; stroke-width: 1px; stroke: rgb(255, 255, 255); stroke-opacity: 1;" d="M79.5,100V424"/><g class="overlines-above"/><g class="xaxislayer-above"><g class="xtick"><text text-anchor="middle" x="0" y="439.4" transform="translate(156.75,0)" style="font-family: 'Open Sans', verdana, arial, sans-serif; font-size: 12px; fill: rgb(42, 63, 95); fill-opacity: 1; white-space: pre;">Mar 2020</text></g><g class="xtick"><text text-anchor="middle" x="0" y="439.4" transform="translate(276.78999999999996,0)" style="font-family: 'Open Sans', verdana, arial, sans-serif; font-size: 12px; fill: rgb(42, 63, 95); fill-opacity: 1; white-space: pre;">May 2020</text></g><g class="xtick"><text text-anchor="middle" x="0" y="439.4" transform="translate(396.83,0)" style="font-family: 'Open Sans', verdana, arial, sans-serif; font-size: 12px; fill: rgb(42, 63, 95); fill-opacity: 1; white-space: pre;">Jul 2020</text></g><g class="xtick"><text text-anchor="middle" x="0" y="439.4" transform="translate(518.8399999999999,0)" style="font-family: 'Open Sans', verdana, arial, sans-serif; font-size: 12px; fill: rgb(42, 63, 95); fill-opacity: 1; white-space: pre;">Sep 2020</text></g></g><g class="yaxislayer-above"><g class="ytick"><text text-anchor="end" x="76.6" y="4.199999999999999" transform="translate(0,424)" style="font-family: 'Open Sans', verdana, arial, sans-serif; font-size: 12px; fill: rgb(42, 63, 95); fill-opacity: 1; white-space: pre;">0</text></g><g class="ytick"><text text-anchor="end" x="76.6" y="4.199999999999999" transform="translate(0,377.3)" style="font-family: 'Open Sans', verdana, arial, sans-serif; font-size: 12px; fill: rgb(42, 63, 95); fill-opacity: 1; white-space: pre;">5M</text></g><g class="ytick"><text text-anchor="end" x="76.6" y="4.199999999999999" transform="translate(0,330.61)" style="font-family: 'Open Sans', verdana, arial, sans-serif; font-size: 12px; fill: rgb(42, 63, 95); fill-opacity: 1; white-space: pre;">10M</text></g><g class="ytick"><text text-anchor="end" x="76.6" y="4.199999999999999" transform="translate(0,283.90999999999997)" style="font-family: 'Open Sans', verdana, arial, sans-serif; font-size: 12px; fill: rgb(42, 63, 95); fill-opacity: 1; white-space: pre;">15M</text></g><g class="ytick"><text text-anchor="end" x="76.6" y="4.199999999999999" transform="translate(0,237.22)" style="font-family: 'Open Sans', verdana, arial, sans-serif; font-size: 12px; fill: rgb(42, 63, 95); fill-opacity: 1; white-space: pre;">20M</text></g><g class="ytick"><text text-anchor="end" x="76.6" y="4.199999999999999" transform="translate(0,190.51999999999998)" style="font-family: 'Open Sans', verdana, arial, sans-serif; font-size: 12px; fill: rgb(42, 63, 95); fill-opacity: 1; white-space: pre;">25M</text></g><g class="ytick"><text text-anchor="end" x="76.6" y="4.199999999999999" transform="translate(0,143.82999999999998)" style="font-family: 'Open Sans', verdana, arial, sans-serif; font-size: 12px; fill: rgb(42, 63, 95); fill-opacity: 1; white-space: pre;">30M</text></g></g><g class="overaxes-above"/></g></g><g class="polarlayer"/><g class="ternarylayer"/><g class="geolayer"/><g class="funnelarealayer"/><g class="pielayer"/><g class="treemaplayer"/><g class="sunburstlayer"/><g class="glimages"/><defs id="topdefs-ff8f5c"><g class="clips"/><clipPath id="legendff8f5c"><rect width="108" height="83" x="0" y="0"/></clipPath><clipPath id="rangesliderx-ff8f5c"><rect x="0" y="0" width="490" height="63"/></clipPath></defs><g class="layer-above"><g class="imagelayer"/><g class="shapelayer"/></g><g class="infolayer"><g class="legend" pointer-events="all" transform="translate(579.8, 100)"><rect class="bg" shape-rendering="crispEdges" style="stroke: rgb(68, 68, 68); stroke-opacity: 1; fill: rgb(255, 255, 255); fill-opacity: 1; stroke-width: 0px;" width="108" height="83" x="0" y="0"/><g class="scrollbox" transform="translate(0, 0)" clip-path="url('#legendff8f5c')"><text class="legendtitletext user-select-none" text-anchor="start" x="2" y="15.600000000000001" style="font-family: 'Open Sans', verdana, arial, sans-serif; font-size: 12px; fill: rgb(42, 63, 95); fill-opacity: 1; white-space: pre;">Case</text><g class="groups" transform="translate(0, 0)"><g class="traces" transform="translate(0, 30.1)" style="opacity: 1;"><text class="legendtext user-select-none" text-anchor="start" x="40" y="4.680000000000001" style="font-family: 'Open Sans', verdana, arial, sans-serif; font-size: 12px; fill: rgb(42, 63, 95); fill-opacity: 1; white-space: pre;">Recovered</text><g class="layers"><g class="legendfill"><path class="js-fill" d="M5,-2h30v6h-30z" style="stroke-width: 0; fill: rgb(40, 167, 69); fill-opacity: 0.5;"/></g><g class="legendlines"><path class="js-line" d="M5,-2h30" style="fill: none; stroke: rgb(40, 167, 69); stroke-opacity: 1; stroke-width: 2px;"/></g><g class="legendsymbols"><g class="legendpoints"/></g></g><rect class="legendtoggle" pointer-events="all" x="0" y="-9.5" width="102.546875" height="19" style="cursor: pointer; fill: rgb(0, 0, 0); fill-opacity: 0;"/></g></g><g class="groups" transform="translate(0, 0)"><g class="traces" transform="translate(0, 49.1)" style="opacity: 1;"><text class="legendtext user-select-none" text-anchor="start" x="40" y="4.680000000000001" style="font-family: 'Open Sans', verdana, arial, sans-serif; font-size: 12px; fill: rgb(42, 63, 95); fill-opacity: 1; white-space: pre;">Deaths</text><g class="layers"><g class="legendfill"><path class="js-fill" d="M5,-2h30v6h-30z" style="stroke-width: 0; fill: rgb(108, 117, 125); fill-opacity: 0.5;"/></g><g class="legendlines"><path class="js-line" d="M5,-2h30" style="fill: none; stroke: rgb(108, 117, 125); stroke-opacity: 1; stroke-width: 2px;"/></g><g class="legendsymbols"><g class="legendpoints"/></g></g><rect class="legendtoggle" pointer-events="all" x="0" y="-9.5" width="102.546875" height="19" style="cursor: pointer; fill: rgb(0, 0, 0); fill-opacity: 0;"/></g></g><g class="groups" transform="translate(0, 0)"><g class="traces" transform="translate(0, 68.1)" style="opacity: 1;"><text class="legendtext user-select-none" text-anchor="start" x="40" y="4.680000000000001" style="font-family: 'Open Sans', verdana, arial, sans-serif; font-size: 12px; fill: rgb(42, 63, 95); fill-opacity: 1; white-space: pre;">Active</text><g class="layers"><g class="legendfill"><path class="js-fill" d="M5,-2h30v6h-30z" style="stroke-width: 0; fill: rgb(255, 7, 58); fill-opacity: 0.5;"/></g><g class="legendlines"><path class="js-line" d="M5,-2h30" style="fill: none; stroke: rgb(255, 7, 58); stroke-opacity: 1; stroke-width: 2px;"/></g><g class="legendsymbols"><g class="legendpoints"/></g></g><rect class="legendtoggle" pointer-events="all" x="0" y="-9.5" width="102.546875" height="19" style="cursor: pointer; fill: rgb(0, 0, 0); fill-opacity: 0;"/></g></g></g><rect class="scrollbar" rx="20" ry="3" width="0" height="0" x="0" y="0" style="fill: rgb(128, 139, 164); fill-opacity: 1;"/></g><g class="g-gtitle"><text class="gtitle" x="35" y="50" text-anchor="start" dy="0em" style="font-family: 'Open Sans', verdana, arial, sans-serif; font-size: 17px; fill: rgb(42, 63, 95); opacity: 1; font-weight: normal; white-space: pre;">Cases over time</text></g><g class="rangeslider-container" pointer-events="all" transform="translate(80,457)"><rect class="rangeslider-bg" x="0" y="0" shape-rendering="crispEdges" width="490" height="63" transform="translate(0,0)" fill="#E5ECF6" stroke="#444" stroke-width="0"/><g class="rangeslider-rangeplot xy" clip-path="url('#rangesliderx-ff8f5c')"><g class="layer-subplot"><g class="shapelayer"/><g class="imagelayer"/></g><g class="gridlayer"><g class="x"/><g class="y"/></g><g class="zerolinelayer"/><path class="xlines-below"/><path class="ylines-below"/><g class="overlines-below"/><g class="xaxislayer-below"/><g class="yaxislayer-below"/><g class="overaxes-below"/><g class="plot"><g class="scatterlayer mlayer rangeplot"><g class="trace scatter trace9c8c92" style="stroke-miterlimit: 2;"><g class="fills"><g><path class="js-fill" d="M490,63L0,63L0,63L159.4,62.25L161.37,62.2L232.21,59.69L234.18,59.58L269.6,57.32L271.57,57.04L316.83,53.1L318.8,52.58L346.35,49.03L348.31,48.7L379.8,43.62L381.77,43.22L490,21.56" style="fill: rgb(40, 167, 69); fill-opacity: 0.5; stroke-width: 0;"/></g><g><path class="js-fill" d="M0,63L151.53,62.28L153.49,62.22L218.43,59.85L220.4,59.74L257.79,57.53L259.76,57.33L314.86,52.48L316.83,52.27L322.73,51.17L324.7,50.95L358.15,46.32L360.12,46L377.83,42.75L379.8,42.49L490,19.89L490,21.56L381.77,43.22L379.8,43.62L348.31,48.7L346.35,49.03L318.8,52.58L316.83,53.1L271.57,57.04L269.6,57.32L234.18,59.58L232.21,59.69L161.37,62.2L159.4,62.25L0,63Z" style="fill: rgb(108, 117, 125); fill-opacity: 0.5; stroke-width: 0;"/></g></g><g class="errorbars"/><g class="lines"><path class="js-line" d="M0,63L159.4,62.25L161.37,62.2L232.21,59.69L234.18,59.58L269.6,57.32L271.57,57.04L316.83,53.1L318.8,52.58L346.35,49.03L348.31,48.7L379.8,43.62L381.77,43.22L490,21.56" style="vector-effect: non-scaling-stroke; fill: none; stroke: rgb(40, 167, 69); stroke-opacity: 1; stroke-width: 2px; opacity: 1;"/></g><g class="points"/><g class="text"/></g><g class="trace scatter tracedf5308" style="stroke-miterlimit: 2;"><g class="fills"><g><path class="js-fill" d="M0,63L120.04,62.31L122.01,62.24L155.46,59.97L157.43,59.83L228.27,54.46L230.24,54.3L281.41,48.89L283.37,48.65L306.99,45.29L308.96,44.96L332.57,40.76L334.54,40.34L369.96,32.66L371.93,32.14L407.35,23.71L409.32,23.33L468.35,8.84L470.32,8.27L490,3.15L490,19.89L379.8,42.49L377.83,42.75L360.12,46L358.15,46.32L324.7,50.95L322.73,51.17L316.83,52.27L314.86,52.48L259.76,57.33L257.79,57.53L220.4,59.74L218.43,59.85L153.49,62.22L151.53,62.28L0,63Z" style="fill: rgb(255, 7, 58); fill-opacity: 0.5; stroke-width: 0;"/></g></g><g class="errorbars"/><g class="lines"><path class="js-line" d="M0,63L151.53,62.28L153.49,62.22L218.43,59.85L220.4,59.74L257.79,57.53L259.76,57.33L314.86,52.48L316.83,52.27L322.73,51.17L324.7,50.95L358.15,46.32L360.12,46L377.83,42.75L379.8,42.49L490,19.89" style="vector-effect: non-scaling-stroke; fill: none; stroke: rgb(108, 117, 125); stroke-opacity: 1; stroke-width: 2px; opacity: 1;"/></g><g class="points"/><g class="text"/></g><g class="trace scatter trace4121c2" style="stroke-miterlimit: 2;"><g class="fills"/><g class="errorbars"/><g class="lines"><path class="js-line" d="M0,63L120.04,62.31L122.01,62.24L155.46,59.97L157.43,59.83L228.27,54.46L230.24,54.3L281.41,48.89L283.37,48.65L306.99,45.29L308.96,44.96L332.57,40.76L334.54,40.34L369.96,32.66L371.93,32.14L407.35,23.71L409.32,23.33L468.35,8.84L470.32,8.27L490,3.15" style="vector-effect: non-scaling-stroke; fill: none; stroke: rgb(255, 7, 58); stroke-opacity: 1; stroke-width: 2px; opacity: 1;"/></g><g class="points"/><g class="text"/></g></g></g><g class="overplot"/><path class="xlines-above crisp" style="fill: none;"/><path class="ylines-above crisp" style="fill: none;"/><g class="overlines-above"/><g class="xaxislayer-above"/><g class="yaxislayer-above"/><g class="overaxes-above"/></g><rect class="rangeslider-mask-min" x="0" y="0" shape-rendering="crispEdges" height="63" width="0" style="fill: rgb(0, 0, 0); fill-opacity: 0.4;"/><rect class="rangeslider-mask-max" y="0" shape-rendering="crispEdges" height="63" x="490" width="0" style="fill: rgb(0, 0, 0); fill-opacity: 0.4;"/><g class="rangeslider-grabber-min" transform="translate(-2.5,0.5)"><rect class="rangeslider-handle-min" x="0" width="4" rx="1" fill="#fff" stroke="#444" stroke-width="1" shape-rendering="crispEdges" y="16" height="32"/></g><g class="rangeslider-grabber-max" transform="translate(488.5,0.5)"><rect class="rangeslider-handle-max" x="0" width="4" rx="1" fill="#fff" stroke="#444" stroke-width="1" shape-rendering="crispEdges" y="16" height="32"/></g></g><g class="g-ytitle"><text class="ytitle" transform="rotate(-90,26.418750000000003,262)" x="26.418750000000003" y="262" text-anchor="middle" style="font-family: 'Open Sans', verdana, arial, sans-serif; font-size: 14px; fill: rgb(42, 63, 95); opacity: 1; font-weight: normal; white-space: pre;">Count</text></g><g class="g-xtitle"><text class="xtitle" x="325" y="551" text-anchor="middle" style="font-family: 'Open Sans', verdana, arial, sans-serif; font-size: 14px; fill: rgb(42, 63, 95); opacity: 1; font-weight: normal; white-space: pre;">Date</text></g></g></svg>