<svg class="main-svg" xmlns="http://www.w3.org/2000/svg" xmlns:xlink="http://www.w3.org/1999/xlink" width="700" height="600" style="" viewBox="0 0 700 600"><rect x="0" y="0" width="700" height="600" style="fill: rgb(255, 255, 255); fill-opacity: 1;"/><defs id="defs-dbb32c"><g class="clips"><clipPath id="clipdbb32cxyplot" class="plotclip"><rect width="490" height="324"/></clipPath><clipPath class="axesclip" id="clipdbb32cx"><rect x="80" y="0" width="490" height="600"/></clipPath><clipPath class="axesclip" id="clipdbb32cy"><rect x="0" y="100" width="700" height="324"/></clipPath><clipPath class="axesclip" id="clipdbb32cxy"><rect x="80" y="100" width="490" height="324"/></clipPath></g><g class="gradients"/></defs><g class="bglayer"><rect class="bg" x="80" y="100" width="490" height="324" style="fill: rgb(229, 236, 246); fill-opacity: 1; stroke-width: 0;"/></g><g class="layer-below"><g class="imagelayer"/><g class="shapelayer"/></g><g class="cartesianlayer"><g class="subplot xy"><g class="layer-subplot"><g class="shapelayer"/><g class="imagelayer"/></g><g class="gridlayer"><g class="x"><path class="xgrid crisp" transform="translate(103.67,0)" d="M0,100v324" style="stroke: rgb(255, 255, 255); stroke-opacity: 1; stroke-width: 1px;"/><path class="xgrid crisp" transform="translate(172.32,0)" d="M0,100v324" style="stroke: rgb(255, 255, 255); stroke-opacity: 1; stroke-width: 1px;"/><path class="xgrid crisp" transform="translate(245.7,0)" d="M0,100v324" style="stroke: rgb(255, 255, 255); stroke-opacity: 1; stroke-width: 1px;"/><path class="xgrid crisp" transform="translate(316.71000000000004,0)" d="M0,100v324" style="stroke: rgb(255, 255, 255); stroke-opacity: 1; stroke-width: 1px;"/><path class="xgrid crisp" transform="translate(390.1,0)" d="M0,100v324" style="stroke: rgb(255, 255, 255); stroke-opacity: 1; stroke-width: 1px;"/><path class="xgrid crisp" transform="translate(461.11,0)" d="M0,100v324" style="stroke: rgb(255, 255, 255); stroke-opacity: 1; stroke-width: 1px;"/><path class="xgrid crisp" transform="translate(534.49,0)" d="M0,100v324" style="stroke: rgb(255, 255, 255); stroke-opacity: 1; stroke-width: 1px;"/></g><g class="y"><path class="ygrid crisp" transform="translate(0,352.9)" d="M80,0h490" style="stroke: rgb(255, 255, 255); stroke-opacity: 1; stroke-width: 1px;"/><path class="ygrid crisp" transform="translate(0,281.8)" d="M80,0h490" style="stroke: rgb(255, 255, 255); stroke-opacity: 1; stroke-width: 1px;"/><path class="ygrid crisp" transform="translate(0,210.7)" d="M80,0h490" style="stroke: rgb(255, 255, 255); stroke-opacity: 1; stroke-width: 1px;"/><path class="ygrid crisp" transform="translate(0,139.6)" d="M80,0h490" style="stroke: rgb(255, 255, 255); stroke-opacity: 1; stroke-width: 1px;"/></g></g><g class="zerolinelayer"><path class="yzl zl crisp" transform="translate(0,424)" d="M80,0h490" style="stroke: rgb(255, 255, 255); stroke-opacity: 1; stroke-width: 2px;"/></g><path class="xlines-below"/><path class="ylines-below"/><g class="overlines-below"/><g class="xaxislayer-below"/><g class="yaxislayer-below"/><g class="overaxes-below"/><g class="plot" transform="translate(80, 100)" clip-path="url('#clipdbb32cxyplot')"><g class="scatterlayer mlayer"><g class="trace scatter tracec1aac1" style="stroke-miterlimit: 2;"><g class="fills"><g><path class="js-fill" d="M490,324L0,324L0,324L99.42,323.27L101.79,323.24L158.6,321.95L160.97,321.74L182.27,319.43L184.64,319.07L210.68,314.95L213.04,314.45L231.98,310.64L234.35,309.72L267.49,301.61L269.86,300.93L291.16,293.39L293.53,292.49L305.36,287.76L307.73,286.68L312.46,284.42L314.83,283.3L324.3,279.51L326.67,277.36L350.34,265.13L352.71,263.78L357.44,261.16L359.81,259.85L381.11,246.47L383.48,242.42L385.85,240.86L388.21,238.08L395.31,232.57L397.68,230.32L416.62,214.61L418.99,212.01L430.82,201.36L433.19,198.95L437.92,192.57L440.29,190.57L447.39,182.83L449.76,179.67L475.8,149.68L478.16,145.34L485.27,135.52L487.63,133.12L490,129.83" style="fill: rgb(40, 167, 69); fill-opacity: 0.5; stroke-width: 0;"/></g><g><path class="js-fill" d="M0,324L97.05,323.27L99.42,323.23L156.23,321.63L158.6,321.45L182.27,318.09L184.64,317.62L210.68,312.46L213.04,311.86L231.98,307.37L234.35,306.36L267.49,297.28L269.86,296.53L298.26,285.72L300.63,284.71L324.3,273.78L326.67,271.57L350.34,258.68L352.71,257.24L357.44,254.5L359.81,253.15L381.11,239.19L383.48,235.06L385.85,233.43L388.21,230.59L395.31,224.89L397.68,222.57L416.62,206.29L418.99,203.59L430.82,192.56L433.19,190L437.92,183.46L440.29,181.41L447.39,173.41L449.76,170.16L475.8,139.3L478.16,134.87L485.27,124.72L487.63,122.24L490,118.9L490,129.83L487.63,133.12L485.27,135.52L478.16,145.34L475.8,149.68L449.76,179.67L447.39,182.83L440.29,190.57L437.92,192.57L433.19,198.95L430.82,201.36L418.99,212.01L416.62,214.61L397.68,230.32L395.31,232.57L388.21,238.08L385.85,240.86L383.48,242.42L381.11,246.47L359.81,259.85L357.44,261.16L352.71,263.78L350.34,265.13L326.67,277.36L324.3,279.51L314.83,283.3L312.46,284.42L307.73,286.68L305.36,287.76L293.53,292.49L291.16,293.39L269.86,300.93L267.49,301.61L234.35,309.72L231.98,310.64L213.04,314.45L210.68,314.95L184.64,319.07L182.27,319.43L160.97,321.74L158.6,321.95L101.79,323.24L99.42,323.27L0,324Z" style="fill: rgb(108, 117, 125); fill-opacity: 0.5; stroke-width: 0;"/></g></g><g class="errorbars"/><g class="lines"><path class="js-line" d="M0,324L99.42,323.27L101.79,323.24L158.6,321.95L160.97,321.74L182.27,319.43L184.64,319.07L210.68,314.95L213.04,314.45L231.98,310.64L234.35,309.72L267.49,301.61L269.86,300.93L291.16,293.39L293.53,292.49L305.36,287.76L307.73,286.68L312.46,284.42L314.83,283.3L324.3,279.51L326.67,277.36L350.34,265.13L352.71,263.78L357.44,261.16L359.81,259.85L381.11,246.47L383.48,242.42L385.85,240.86L388.21,238.08L395.31,232.57L397.68,230.32L416.62,214.61L418.99,212.01L430.82,201.36L433.19,198.95L437.92,192.57L440.29,190.57L447.39,182.83L449.76,179.67L475.8,149.68L478.16,145.34L485.27,135.52L487.63,133.12L490,129.83" style="vector-effect: non-scaling-stroke; fill: none; stroke: rgb(40, 167, 69); stroke-opacity: 1; stroke-width: 2px; opacity: 1;"/></g><g class="points"/><g class="text"/></g><g class="trace scatter trace31542b" style="stroke-miterlimit: 2;"><g class="fills"><g><path class="js-fill" d="M0,323.99L49.71,323.36L52.08,323.14L78.12,322.88L80.48,322.87L120.72,322.03L123.09,321.87L137.29,320.19L139.66,319.73L149.13,317.35L151.5,316.46L168.07,309.5L170.43,308.32L265.12,262.32L267.49,260.94L300.63,241.46L303,239.74L307.73,236.26L310.1,234.9L338.5,213.46L340.87,211.56L347.97,205.84L350.34,203.85L357.44,197.21L359.81,195.26L378.74,175.68L381.11,172.59L414.25,131.48L416.62,127.89L433.19,103.76L435.56,99.77L482.9,27.07L485.27,22.74L490,16.2L490,118.9L487.63,122.24L485.27,124.72L478.16,134.87L475.8,139.3L449.76,170.16L447.39,173.41L440.29,181.41L437.92,183.46L433.19,190L430.82,192.56L418.99,203.59L416.62,206.29L397.68,222.57L395.31,224.89L388.21,230.59L385.85,233.43L383.48,235.06L381.11,239.19L359.81,253.15L357.44,254.5L352.71,257.24L350.34,258.68L326.67,271.57L324.3,273.78L300.63,284.71L298.26,285.72L269.86,296.53L267.49,297.28L234.35,306.36L231.98,307.37L213.04,311.86L210.68,312.46L184.64,317.62L182.27,318.09L158.6,321.45L156.23,321.63L99.42,323.23L97.05,323.27L0,324Z" style="fill: rgb(255, 7, 58); fill-opacity: 0.5; stroke-width: 0;"/></g></g><g class="errorbars"/><g class="lines"><path class="js-line" d="M0,324L97.05,323.27L99.42,323.23L156.23,321.63L158.6,321.45L182.27,318.09L184.64,317.62L210.68,312.46L213.04,311.86L231.98,307.37L234.35,306.36L267.49,297.28L269.86,296.53L298.26,285.72L300.63,284.71L324.3,273.78L326.67,271.57L350.34,258.68L352.71,257.24L357.44,254.5L359.81,253.15L381.11,239.19L383.48,235.06L385.85,233.43L388.21,230.59L395.31,224.89L397.68,222.57L416.62,206.29L418.99,203.59L430.82,192.56L433.19,190L437.92,183.46L440.29,181.41L447.39,173.41L449.76,170.16L475.8,139.3L478.16,134.87L485.27,124.72L487.63,122.24L490,118.9" style="vector-effect: non-scaling-stroke; fill: none; stroke: rgb(108, 117, 125); stroke-opacity: 1; stroke-width: 2px; opacity: 1;"/></g><g class="points"/><g class="text"/></g><g class="trace scatter trace435ab3" style="stroke-miterlimit: 2;"><g class="fills"/><g class="errorbars"/><g class="lines"><path class="js-line" d="M0,323.99L49.71,323.36L52.08,323.14L78.12,322.88L80.48,322.87L120.72,322.03L123.09,321.87L137.29,320.19L139.66,319.73L149.13,317.35L151.5,316.46L168.07,309.5L170.43,308.32L265.12,262.32L267.49,260.94L300.63,241.46L303,239.74L307.73,236.26L310.1,234.9L338.5,213.46L340.87,211.56L347.97,205.84L350.34,203.85L357.44,197.21L359.81,195.26L378.74,175.68L381.11,172.59L414.25,131.48L416.62,127.89L433.19,103.76L435.56,99.77L482.9,27.07L485.27,22.74L490,16.2" style="vector-effect: non-scaling-stroke; fill: none; stroke: rgb(255, 7, 58); stroke-opacity: 1; stroke-width: 2px; opacity: 1;"/></g><g class="points"/><g class="text"/></g></g></g><g class="overplot"/><path class="xlines-above crisp" style="fill: none; stroke-width: 1px; stroke: rgb(255, 255, 255); stroke-opacity: 1;" d="M79,424.5H570"/><path class="ylines-above crisp" style="fill: none; stroke-width: 1px; stroke: rgb(255, 255, 255); stroke-opacity: 1;" d="M79.5,100V424"/><g class="overlines-above"/><g class="xaxislayer-above"><g class="xtick"><text text-anchor="middle" x="0" y="439.4" transform="translate(103.67,0)" style="font-family: 'Open Sans', verdana, arial, sans-serif; font-size: 12px; fill: rgb(42, 63, 95); fill-opacity: 1; white-space: pre;">Feb 2020</text></g><g class="xtick"><text text-anchor="middle" x="0" y="439.4" transform="translate(172.32,0)" style="font-family: 'Open Sans', verdana, arial, sans-serif; font-size: 12px; fill: rgb(42, 63, 95); fill-opacity: 1; white-space: pre;">Mar 2020</text></g><g class="xtick"><text text-anchor="middle" x="0" y="439.4" transform="translate(245.7,0)" style="font-family: 'Open Sans', verdana, arial, sans-serif; font-size: 12px; fill: rgb(42, 63, 95); fill-opacity: 1; white-space: pre;">Apr 2020</text></g><g class="xtick"><text text-anchor="middle" x="0" y="439.4" transform="translate(316.71000000000004,0)" style="font-family: 'Open Sans', verdana, arial, sans-serif; font-size: 12px; fill: rgb(42, 63, 95); fill-opacity: 1; white-space: pre;">May 2020</text></g><g class="xtick"><text text-anchor="middle" x="0" y="439.4" transform="translate(390.1,0)" style="font-family: 'Open Sans', verdana, arial, sans-serif; font-size: 12px; fill: rgb(42, 63, 95); fill-opacity: 1; white-space: pre;">Jun 2020</text></g><g class="xtick"><text text-anchor="middle" x="0" y="439.4" transform="translate(461.11,0)" style="font-family: 'Open Sans', verdana, arial, sans-serif; font-size: 12px; fill: rgb(42, 63, 95); fill-opacity: 1; white-space: pre;">Jul 2020</text></g><g class="xtick"><text text-anchor="middle" x="0" y="439.4" transform="translate(534.49,0)" style="font-family: 'Open Sans', verdana, arial, sans-serif; font-size: 12px; fill: rgb(42, 63, 95); fill-opacity: 1; white-space: pre;">Aug 2020</text></g></g><g class="yaxislayer-above"><g class="ytick"><text text-anchor="end" x="76.6" y="4.199999999999999" transform="translate(0,424)" style="font-family: 'Open Sans', verdana, arial, sans-serif; font-size: 12px; fill: rgb(42, 63, 95); fill-opacity: 1; white-space: pre;">0</text></g><g class="ytick"><text text-anchor="end" x="76.6" y="4.199999999999999" transform="translate(0,352.9)" style="font-family: 'Open Sans', verdana, arial, sans-serif; font-size: 12px; fill: rgb(42, 63, 95); fill-opacity: 1; white-space: pre;">5M</text></g><g class="ytick"><text text-anchor="end" x="76.6" y="4.199999999999999" transform="translate(0,281.8)" style="font-family: 'Open Sans', verdana, arial, sans-serif; font-size: 12px; fill: rgb(42, 63, 95); fill-opacity: 1; white-space: pre;">10M</text></g><g class="ytick"><text text-anchor="end" x="76.6" y="4.199999999999999" transform="translate(0,210.7)" style="font-family: 'Open Sans', verdana, arial, sans-serif; font-size: 12px; fill: rgb(42, 63, 95); fill-opacity: 1; white-space: pre;">15M</text></g><g class="ytick"><text text-anchor="end" x="76.6" y="4.199999999999999" transform="translate(0,139.6)" style="font-family: 'Open Sans', verdana, arial, sans-serif; font-size: 12px; fill: rgb(42, 63, 95); fill-opacity: 1; white-space: pre;">20M</text></g></g><g class="overaxes-above"/></g></g><g class="polarlayer"/><g class="ternarylayer"/><g class="geolayer"/><g class="funnelarealayer"/><g class="pielayer"/><g class="treemaplayer"/><g class="sunburstlayer"/><g class="glimages"/><defs id="topdefs-dbb32c"><g class="clips"/><clipPath id="legenddbb32c"><rect width="108" height="83" x="0" y="0"/></clipPath><clipPath id="rangesliderx-dbb32c"><rect x="0" y="0" width="490" height="63"/></clipPath></defs><g class="layer-above"><g class="imagelayer"/><g class="shapelayer"/></g><g class="infolayer"><g class="legend" pointer-events="all" transform="translate(579.8, 100)"><rect class="bg" shape-rendering="crispEdges" style="stroke: rgb(68, 68, 68); stroke-opacity: 1; fill: rgb(255, 255, 255); fill-opacity: 1; stroke-width: 0px;" width="108" height="83" x="0" y="0"/><g class="scrollbox" transform="translate(0, 0)" clip-path="url('#legenddbb32c')"><text class="legendtitletext user-select-none" text-anchor="start" x="2" y="15.600000000000001" style="font-family: 'Open Sans', verdana, arial, sans-serif; font-size: 12px; fill: rgb(42, 63, 95); fill-opacity: 1; white-space: pre;">Case</text><g class="groups" transform="translate(0, 0)"><g class="traces" transform="translate(0, 30.1)" style="opacity: 1;"><text class="legendtext user-select-none" text-anchor="start" x="40" y="4.680000000000001" style="font-family: 'Open Sans', verdana, arial, sans-serif; font-size: 12px; fill: rgb(42, 63, 95); fill-opacity: 1; white-space: pre;">Recovered</text><g class="layers"><g class="legendfill"><path class="js-fill" d="M5,-2h30v6h-30z" style="stroke-width: 0; fill: rgb(40, 167, 69); fill-opacity: 0.5;"/></g><g class="legendlines"><path class="js-line" d="M5,-2h30" style="fill: none; stroke: rgb(40, 167, 69); stroke-opacity: 1; stroke-width: 2px;"/></g><g class="legendsymbols"><g class="legendpoints"/></g></g><rect class="legendtoggle" pointer-events="all" x="0" y="-9.5" width="102.546875" height="19" style="cursor: pointer; fill: rgb(0, 0, 0); fill-opacity: 0;"/></g></g><g class="groups" transform="translate(0, 0)"><g class="traces" transform="translate(0, 49.1)" style="opacity: 1;"><text class="legendtext user-select-none" text-anchor="start" x="40" y="4.680000000000001" style="font-family: 'Open Sans', verdana, arial, sans-serif; font-size: 12px; fill: rgb(42, 63, 95); fill-opacity: 1; white-space: pre;">Deaths</text><g class="layers"><g class="legendfill"><path class="js-fill" d="M5,-2h30v6h-30z" style="stroke-width: 0; fill: rgb(108, 117, 125); fill-opacity: 0.5;"/></g><g class="legendlines"><path class="js-line" d="M5,-2h30" style="fill: none; stroke: rgb(108, 117, 125); stroke-opacity: 1; stroke-width: 2px;"/></g><g class="legendsymbols"><g class="legendpoints"/></g></g><rect class="legendtoggle" pointer-events="all" x="0" y="-9.5" width="102.546875" height="19" style="cursor: pointer; fill: rgb(0, 0, 0); fill-opacity: 0;"/></g></g><g class="groups" transform="translate(0, 0)"><g class="traces" transform="translate(0, 68.1)" style="opacity: 1;"><text class="legendtext user-select-none" text-anchor="start" x="40" y="4.680000000000001" style="font-family: 'Open Sans', verdana, arial, sans-serif; font-size: 12px; fill: rgb(42, 63, 95); fill-opacity: 1; white-space: pre;">Active</text><g class="layers"><g class="legendfill"><path class="js-fill" d="M5,-2h30v6h-30z" style="stroke-width: 0; fill: rgb(255, 7, 58); fill-opacity: 0.5;"/></g><g class="legendlines"><path class="js-line" d="M5,-2h30" style="fill: none; stroke: rgb(255, 7, 58); stroke-opacity: 1; stroke-width: 2px;"/></g><g class="legendsymbols"><g class="legendpoints"/></g></g><rect class="legendtoggle" pointer-events="all" x="0" y="-9.5" width="102.546875" height="19" style="cursor: pointer; fill: rgb(0, 0, 0); fill-opacity: 0;"/></g></g></g><rect class="scrollbar" rx="20" ry="3" width="0" height="0" x="0" y="0" style="fill: rgb(128, 139, 164); fill-opacity: 1;"/></g><g class="g-gtitle"><text class="gtitle" x="35" y="50" text-anchor="start" dy="0em" style="font-family: 'Open Sans', verdana, arial, sans-serif; font-size: 17px; fill: rgb(42, 63, 95); opacity: 1; font-weight: normal; white-space: pre;">Cases over time</text></g><g class="rangeslider-container" pointer-events="all" transform="translate(80,457)"><rect class="rangeslider-bg" x="0" y="0" shape-rendering="crispEdges" width="490" height="63" transform="translate(0,0)" fill="#E5ECF6" stroke="#444" stroke-width="0"/><g class="rangeslider-rangeplot xy" clip-path="url('#rangesliderx-dbb32c')"><g class="layer-subplot"><g class="shapelayer"/><g class="imagelayer"/></g><g class="gridlayer"><g class="x"/><g class="y"/></g><g class="zerolinelayer"/><path class="xlines-below"/><path class="ylines-below"/><g class="overlines-below"/><g class="xaxislayer-below"/><g class="yaxislayer-below"/><g class="overaxes-below"/><g class="plot"><g class="scatterlayer mlayer rangeplot"><g class="trace scatter tracec1aac1" style="stroke-miterlimit: 2;"><g class="fills"><g><path class="js-fill" d="M490,63L0,63L0,63L177.54,62.25L179.9,62.19L269.86,58.51L272.22,58.36L305.36,55.95L307.73,55.74L329.03,53.7L331.4,53.49L381.11,47.93L383.48,47.14L409.52,42.99L411.88,42.59L447.39,35.55L449.76,34.94L490,25.25" style="fill: rgb(40, 167, 69); fill-opacity: 0.5; stroke-width: 0;"/></g><g><path class="js-fill" d="M0,63L168.07,62.28L170.43,62.22L231.98,59.77L234.35,59.57L295.89,55.75L298.26,55.56L345.6,50.88L347.97,50.54L381.11,46.51L383.48,45.71L407.15,41.81L409.52,41.41L435.56,36.29L437.92,35.67L449.76,33.09L452.13,32.52L478.16,26.23L480.53,25.54L490,23.12L490,25.25L449.76,34.94L447.39,35.55L411.88,42.59L409.52,42.99L383.48,47.14L381.11,47.93L331.4,53.49L329.03,53.7L307.73,55.74L305.36,55.95L272.22,58.36L269.86,58.51L179.9,62.19L177.54,62.25L0,63Z" style="fill: rgb(108, 117, 125); fill-opacity: 0.5; stroke-width: 0;"/></g></g><g class="errorbars"/><g class="lines"><path class="js-line" d="M0,63L177.54,62.25L179.9,62.19L269.86,58.51L272.22,58.36L305.36,55.95L307.73,55.74L329.03,53.7L331.4,53.49L381.11,47.93L383.48,47.14L409.52,42.99L411.88,42.59L447.39,35.55L449.76,34.94L490,25.25" style="vector-effect: non-scaling-stroke; fill: none; stroke: rgb(40, 167, 69); stroke-opacity: 1; stroke-width: 2px; opacity: 1;"/></g><g class="points"/><g class="text"/></g><g class="trace scatter trace31542b" style="stroke-miterlimit: 2;"><g class="fills"><g><path class="js-fill" d="M0,63L137.29,62.26L139.66,62.17L163.33,60.62L165.7,60.41L303,46.62L305.36,46.24L343.24,40.81L345.6,40.42L378.74,34.16L381.11,33.56L428.45,21.73L430.82,20.96L456.86,13.08L459.23,12.52L490,3.15L490,23.12L480.53,25.54L478.16,26.23L452.13,32.52L449.76,33.09L437.92,35.67L435.56,36.29L409.52,41.41L407.15,41.81L383.48,45.71L381.11,46.51L347.97,50.54L345.6,50.88L298.26,55.56L295.89,55.75L234.35,59.57L231.98,59.77L170.43,62.22L168.07,62.28L0,63Z" style="fill: rgb(255, 7, 58); fill-opacity: 0.5; stroke-width: 0;"/></g></g><g class="errorbars"/><g class="lines"><path class="js-line" d="M0,63L168.07,62.28L170.43,62.22L231.98,59.77L234.35,59.57L295.89,55.75L298.26,55.56L345.6,50.88L347.97,50.54L381.11,46.51L383.48,45.71L407.15,41.81L409.52,41.41L435.56,36.29L437.92,35.67L449.76,33.09L452.13,32.52L478.16,26.23L480.53,25.54L490,23.12" style="vector-effect: non-scaling-stroke; fill: none; stroke: rgb(108, 117, 125); stroke-opacity: 1; stroke-width: 2px; opacity: 1;"/></g><g class="points"/><g class="text"/></g><g class="trace scatter trace435ab3" style="stroke-miterlimit: 2;"><g class="fills"/><g class="errorbars"/><g class="lines"><path class="js-line" d="M0,63L137.29,62.26L139.66,62.17L163.33,60.62L165.7,60.41L303,46.62L305.36,46.24L343.24,40.81L345.6,40.42L378.74,34.16L381.11,33.56L428.45,21.73L430.82,20.96L456.86,13.08L459.23,12.52L490,3.15" style="vector-effect: non-scaling-stroke; fill: none; stroke: rgb(255, 7, 58); stroke-opacity: 1; stroke-width: 2px; opacity: 1;"/></g><g class="points"/><g class="text"/></g></g></g><g class="overplot"/><path class="xlines-above crisp" style="fill: none;"/><path class="ylines-above crisp" style="fill: none;"/><g class="overlines-above"/><g class="xaxislayer-above"/><g class="yaxislayer-above"/><g class="overaxes-above"/></g><rect class="rangeslider-mask-min" x="0" y="0" shape-rendering="crispEdges" height="63" width="0" style="fill: rgb(0, 0, 0); fill-opacity: 0.4;"/><rect class="rangeslider-mask-max" y="0" shape-rendering="crispEdges" height="63" x="490" width="0" style="fill: rgb(0, 0, 0); fill-opacity: 0.4;"/><g class="rangeslider-grabber-min" transform="translate(-2.5,0.5)"><rect class="rangeslider-handle-min" x="0" width="4" rx="1" fill="#fff" stroke="#444" stroke-width="1" shape-rendering="crispEdges" y="16" height="32"/></g><g class="rangeslider-grabber-max" transform="translate(488.5,0.5)"><rect class="rangeslider-handle-max" x="0" width="4" rx="1" fill="#fff" stroke="#444" stroke-width="1" shape-rendering="crispEdges" y="16" height="32"/></g></g><g class="g-ytitle"><text class="ytitle" transform="rotate(-90,26.418750000000003,262)" x="26.418750000000003" y="262" text-anchor="middle" style="font-family: 'Open Sans', verdana, arial, sans-serif; font-size: 14px; fill: rgb(42, 63, 95); opacity: 1; font-weight: normal; white-space: pre;">Count</text></g><g class="g-xtitle"><text class="xtitle" x="325" y="551" text-anchor="middle" style="font-family: 'Open Sans', verdana, arial, sans-serif; font-size: 14px; fill: rgb(42, 63, 95); opacity: 1; font-weight: normal; white-space: pre;">Date</text></g></g></svg>