<svg class="main-svg" xmlns="http://www.w3.org/2000/svg" xmlns:xlink="http://www.w3.org/1999/xlink" width="700" height="600" style="" viewBox="0 0 700 600"><rect x="0" y="0" width="700" height="600" style="fill: rgb(255, 255, 255); fill-opacity: 1;"/><defs id="defs-41a15f"><g class="clips"><clipPath id="clip41a15fxyplot" class="plotclip"><rect width="490" height="324"/></clipPath><clipPath class="axesclip" id="clip41a15fx"><rect x="80" y="0" width="490" height="600"/></clipPath><clipPath class="axesclip" id="clip41a15fy"><rect x="0" y="100" width="700" height="324"/></clipPath><clipPath class="axesclip" id="clip41a15fxy"><rect x="80" y="100" width="490" height="324"/></clipPath></g><g class="gradients"/></defs><g class="bglayer"><rect class="bg" x="80" y="100" width="490" height="324" style="fill: rgb(229, 236, 246); fill-opacity: 1; stroke-width: 0;"/></g><g class="layer-below"><g class="imagelayer"/><g class="shapelayer"/></g><g class="cartesianlayer"><g class="subplot xy"><g class="layer-subplot"><g class="shapelayer"/><g class="imagelayer"/></g><g class="gridlayer"><g class="x"><path class="xgrid crisp" transform="translate(104.87,0)" d="M0,100v324" style="stroke: rgb(255, 255, 255); stroke-opacity: 1; stroke-width: 1px;"/><path class="xgrid crisp" transform="translate(177.01,0)" d="M0,100v324" style="stroke: rgb(255, 255, 255); stroke-opacity: 1; stroke-width: 1px;"/><path class="xgrid crisp" transform="translate(254.11,0)" d="M0,100v324" style="stroke: rgb(255, 255, 255); stroke-opacity: 1; stroke-width: 1px;"/><path class="xgrid crisp" transform="translate(328.73,0)" d="M0,100v324" style="stroke: rgb(255, 255, 255); stroke-opacity: 1; stroke-width: 1px;"/><path class="xgrid crisp" transform="translate(405.84,0)" d="M0,100v324" style="stroke: rgb(255, 255, 255); stroke-opacity: 1; stroke-width: 1px;"/><path class="xgrid crisp" transform="translate(480.46,0)" d="M0,100v324" style="stroke: rgb(255, 255, 255); stroke-opacity: 1; stroke-width: 1px;"/><path class="xgrid crisp" transform="translate(557.56,0)" d="M0,100v324" style="stroke: rgb(255, 255, 255); stroke-opacity: 1; stroke-width: 1px;"/></g><g class="y"><path class="ygrid crisp" transform="translate(0,343.27)" d="M80,0h490" style="stroke: rgb(255, 255, 255); stroke-opacity: 1; stroke-width: 1px;"/><path class="ygrid crisp" transform="translate(0,262.55)" d="M80,0h490" style="stroke: rgb(255, 255, 255); stroke-opacity: 1; stroke-width: 1px;"/><path class="ygrid crisp" transform="translate(0,181.82)" d="M80,0h490" style="stroke: rgb(255, 255, 255); stroke-opacity: 1; stroke-width: 1px;"/><path class="ygrid crisp" transform="translate(0,101.09)" d="M80,0h490" style="stroke: rgb(255, 255, 255); stroke-opacity: 1; stroke-width: 1px;"/></g></g><g class="zerolinelayer"><path class="yzl zl crisp" transform="translate(0,424)" d="M80,0h490" style="stroke: rgb(255, 255, 255); stroke-opacity: 1; stroke-width: 2px;"/></g><path class="xlines-below"/><path class="ylines-below"/><g class="overlines-below"/><g class="xaxislayer-below"/><g class="yaxislayer-below"/><g class="overaxes-below"/><g class="plot" transform="translate(80, 100)" clip-path="url('#clip41a15fxyplot')"><g class="scatterlayer mlayer"><g class="trace scatter trace5ac426" style="stroke-miterlimit: 2;"><g class="fills"><g><path class="js-fill" d="M490,324L0,324L0,324L99.49,323.26L101.98,323.22L169.14,321.43L171.62,321.22L194.01,318.4L196.5,318.05L228.83,312.21L231.32,311.41L243.76,308.84L246.24,307.79L281.07,298.58L283.55,297.81L298.48,292.77L300.96,291.03L315.89,285.23L318.38,283.99L340.76,273.49L343.25,271.04L363.15,260.38L365.63,258.46L378.07,251.17L380.56,249.49L390.51,242.7L392.99,241.26L400.46,235.98L402.94,231.38L405.43,229.61L407.92,226.45L415.38,220.19L417.87,217.64L437.77,199.8L440.25,196.84L452.69,184.76L455.18,182.02L460.15,174.78L462.64,172.51L470.1,163.71L472.59,160.12L490,137.94" style="fill: rgb(40, 167, 69); fill-opacity: 0.5; stroke-width: 0;"/></g><g><path class="js-fill" d="M0,324L97.01,323.26L99.49,323.21L161.68,321.5L164.16,321.31L179.09,319.45L181.57,319.03L191.52,317.29L194.01,316.76L221.37,310.9L223.86,310.22L243.76,305.12L246.24,303.98L283.55,292.8L286.04,291.82L295.99,288.26L298.48,287.35L303.45,284.57L305.94,283.63L320.86,276.84L323.35,275.57L325.84,274.63L328.32,272.87L338.27,267.88L340.76,266.95L343.25,264.44L345.74,263.04L363.15,253.18L365.63,251.18L378.07,243.51L380.56,241.75L390.51,234.64L392.99,233.15L400.46,227.65L402.94,222.97L405.43,221.11L407.92,217.88L415.38,211.41L417.87,208.77L437.77,190.28L440.25,187.21L452.69,174.69L455.18,171.79L460.15,164.36L462.64,162.04L470.1,152.95L472.59,149.26L477.56,142.89L480.05,140.61L490,126.42L490,137.94L472.59,160.12L470.1,163.71L462.64,172.51L460.15,174.78L455.18,182.02L452.69,184.76L440.25,196.84L437.77,199.8L417.87,217.64L415.38,220.19L407.92,226.45L405.43,229.61L402.94,231.38L400.46,235.98L392.99,241.26L390.51,242.7L380.56,249.49L378.07,251.17L365.63,258.46L363.15,260.38L343.25,271.04L340.76,273.49L318.38,283.99L315.89,285.23L300.96,291.03L298.48,292.77L283.55,297.81L281.07,298.58L246.24,307.79L243.76,308.84L231.32,311.41L228.83,312.21L196.5,318.05L194.01,318.4L171.62,321.22L169.14,321.43L101.98,323.22L99.49,323.26L0,324Z" style="fill: rgb(108, 117, 125); fill-opacity: 0.5; stroke-width: 0;"/></g></g><g class="errorbars"/><g class="lines"><path class="js-line" d="M0,324L99.49,323.26L101.98,323.22L169.14,321.43L171.62,321.22L194.01,318.4L196.5,318.05L228.83,312.21L231.32,311.41L243.76,308.84L246.24,307.79L281.07,298.58L283.55,297.81L298.48,292.77L300.96,291.03L315.89,285.23L318.38,283.99L340.76,273.49L343.25,271.04L363.15,260.38L365.63,258.46L378.07,251.17L380.56,249.49L390.51,242.7L392.99,241.26L400.46,235.98L402.94,231.38L405.43,229.61L407.92,226.45L415.38,220.19L417.87,217.64L437.77,199.8L440.25,196.84L452.69,184.76L455.18,182.02L460.15,174.78L462.64,172.51L470.1,163.71L472.59,160.12L490,137.94" style="vector-effect: non-scaling-stroke; fill: none; stroke: rgb(40, 167, 69); stroke-opacity: 1; stroke-width: 2px; opacity: 1;"/></g><g class="points"/><g class="text"/></g><g class="trace scatter tracefe6102" style="stroke-miterlimit: 2;"><g class="fills"><g><path class="js-fill" d="M0,323.99L52.23,323.27L54.72,323.03L77.11,322.74L79.59,322.73L124.37,321.99L126.85,321.76L141.78,320.15L144.26,319.67L156.7,316.45L159.19,315.44L176.6,307.54L179.09,306.2L281.07,252.4L283.55,250.85L313.4,232.21L315.89,230.29L355.69,198.49L358.17,196.34L365.63,189.84L368.12,187.58L373.1,182.12L375.58,180.05L383.05,172.4L385.53,169.53L392.99,160.96L395.48,158.41L400.46,152.09L402.94,148.74L422.84,122.43L425.33,118.94L435.28,105.42L437.77,101.34L455.18,73.94L457.66,69.41L472.59,44.92L475.08,40.24L490,16.2L490,126.42L480.05,140.61L477.56,142.89L472.59,149.26L470.1,152.95L462.64,162.04L460.15,164.36L455.18,171.79L452.69,174.69L440.25,187.21L437.77,190.28L417.87,208.77L415.38,211.41L407.92,217.88L405.43,221.11L402.94,222.97L400.46,227.65L392.99,233.15L390.51,234.64L380.56,241.75L378.07,243.51L365.63,251.18L363.15,253.18L345.74,263.04L343.25,264.44L340.76,266.95L338.27,267.88L328.32,272.87L325.84,274.63L323.35,275.57L320.86,276.84L305.94,283.63L303.45,284.57L298.48,287.35L295.99,288.26L286.04,291.82L283.55,292.8L246.24,303.98L243.76,305.12L223.86,310.22L221.37,310.9L194.01,316.76L191.52,317.29L181.57,319.03L179.09,319.45L164.16,321.31L161.68,321.5L99.49,323.21L97.01,323.26L0,324Z" style="fill: rgb(255, 7, 58); fill-opacity: 0.5; stroke-width: 0;"/></g></g><g class="errorbars"/><g class="lines"><path class="js-line" d="M0,324L97.01,323.26L99.49,323.21L161.68,321.5L164.16,321.31L179.09,319.45L181.57,319.03L191.52,317.29L194.01,316.76L221.37,310.9L223.86,310.22L243.76,305.12L246.24,303.98L283.55,292.8L286.04,291.82L295.99,288.26L298.48,287.35L303.45,284.57L305.94,283.63L320.86,276.84L323.35,275.57L325.84,274.63L328.32,272.87L338.27,267.88L340.76,266.95L343.25,264.44L345.74,263.04L363.15,253.18L365.63,251.18L378.07,243.51L380.56,241.75L390.51,234.64L392.99,233.15L400.46,227.65L402.94,222.97L405.43,221.11L407.92,217.88L415.38,211.41L417.87,208.77L437.77,190.28L440.25,187.21L452.69,174.69L455.18,171.79L460.15,164.36L462.64,162.04L470.1,152.95L472.59,149.26L477.56,142.89L480.05,140.61L490,126.42" style="vector-effect: non-scaling-stroke; fill: none; stroke: rgb(108, 117, 125); stroke-opacity: 1; stroke-width: 2px; opacity: 1;"/></g><g class="points"/><g class="text"/></g><g class="trace scatter trace70c4f0" style="stroke-miterlimit: 2;"><g class="fills"/><g class="errorbars"/><g class="lines"><path class="js-line" d="M0,323.99L52.23,323.27L54.72,323.03L77.11,322.74L79.59,322.73L124.37,321.99L126.85,321.76L141.78,320.15L144.26,319.67L156.7,316.45L159.19,315.44L176.6,307.54L179.09,306.2L281.07,252.4L283.55,250.85L313.4,232.21L315.89,230.29L355.69,198.49L358.17,196.34L365.63,189.84L368.12,187.58L373.1,182.12L375.58,180.05L383.05,172.4L385.53,169.53L392.99,160.96L395.48,158.41L400.46,152.09L402.94,148.74L422.84,122.43L425.33,118.94L435.28,105.42L437.77,101.34L455.18,73.94L457.66,69.41L472.59,44.92L475.08,40.24L490,16.2" style="vector-effect: non-scaling-stroke; fill: none; stroke: rgb(255, 7, 58); stroke-opacity: 1; stroke-width: 2px; opacity: 1;"/></g><g class="points"/><g class="text"/></g></g></g><g class="overplot"/><path class="xlines-above crisp" style="fill: none; stroke-width: 1px; stroke: rgb(255, 255, 255); stroke-opacity: 1;" d="M79,424.5H570"/><path class="ylines-above crisp" style="fill: none; stroke-width: 1px; stroke: rgb(255, 255, 255); stroke-opacity: 1;" d="M79.5,100V424"/><g class="overlines-above"/><g class="xaxislayer-above"><g class="xtick"><text text-anchor="middle" x="0" y="439.4" transform="translate(104.87,0)" style="font-family: 'Open Sans', verdana, arial, sans-serif; font-size: 12px; fill: rgb(42, 63, 95); fill-opacity: 1; white-space: pre;">Feb 2020</text></g><g class="xtick"><text text-anchor="middle" x="0" y="439.4" transform="translate(177.01,0)" style="font-family: 'Open Sans', verdana, arial, sans-serif; font-size: 12px; fill: rgb(42, 63, 95); fill-opacity: 1; white-space: pre;">Mar 2020</text></g><g class="xtick"><text text-anchor="middle" x="0" y="439.4" transform="translate(254.11,0)" style="font-family: 'Open Sans', verdana, arial, sans-serif; font-size: 12px; fill: rgb(42, 63, 95); fill-opacity: 1; white-space: pre;">Apr 2020</text></g><g class="xtick"><text text-anchor="middle" x="0" y="439.4" transform="translate(328.73,0)" style="font-family: 'Open Sans', verdana, arial, sans-serif; font-size: 12px; fill: rgb(42, 63, 95); fill-opacity: 1; white-space: pre;">May 2020</text></g><g class="xtick"><text text-anchor="middle" x="0" y="439.4" transform="translate(405.84,0)" style="font-family: 'Open Sans', verdana, arial, sans-serif; font-size: 12px; fill: rgb(42, 63, 95); fill-opacity: 1; white-space: pre;">Jun 2020</text></g><g class="xtick"><text text-anchor="middle" x="0" y="439.4" transform="translate(480.46,0)" style="font-family: 'Open Sans', verdana, arial, sans-serif; font-size: 12px; fill: rgb(42, 63, 95); fill-opacity: 1; white-space: pre;">Jul 2020</text></g><g class="xtick"><text text-anchor="middle" x="0" y="439.4" transform="translate(557.56,0)" style="font-family: 'Open Sans', verdana, arial, sans-serif; font-size: 12px; fill: rgb(42, 63, 95); fill-opacity: 1; white-space: pre;">Aug 2020</text></g></g><g class="yaxislayer-above"><g class="ytick"><text text-anchor="end" x="76.6" y="4.199999999999999" transform="translate(0,424)" style="font-family: 'Open Sans', verdana, arial, sans-serif; font-size: 12px; fill: rgb(42, 63, 95); fill-opacity: 1; white-space: pre;">0</text></g><g class="ytick"><text text-anchor="end" x="76.6" y="4.199999999999999" transform="translate(0,343.27)" style="font-family: 'Open Sans', verdana, arial, sans-serif; font-size: 12px; fill: rgb(42, 63, 95); fill-opacity: 1; white-space: pre;">5M</text></g><g class="ytick"><text text-anchor="end" x="76.6" y="4.199999999999999" transform="translate(0,262.55)" style="font-family: 'Open Sans', verdana, arial, sans-serif; font-size: 12px; fill: rgb(42, 63, 95); fill-opacity: 1; white-space: pre;">10M</text></g><g class="ytick"><text text-anchor="end" x="76.6" y="4.199999999999999" transform="translate(0,181.82)" style="font-family: 'Open Sans', verdana, arial, sans-serif; font-size: 12px; fill: rgb(42, 63, 95); fill-opacity: 1; white-space: pre;">15M</text></g><g class="ytick"><text text-anchor="end" x="76.6" y="4.199999999999999" transform="translate(0,101.09)" style="font-family: 'Open Sans', verdana, arial, sans-serif; font-size: 12px; fill: rgb(42, 63, 95); fill-opacity: 1; white-space: pre;">20M</text></g></g><g class="overaxes-above"/></g></g><g class="polarlayer"/><g class="ternarylayer"/><g class="geolayer"/><g class="funnelarealayer"/><g class="pielayer"/><g class="treemaplayer"/><g class="sunburstlayer"/><g class="glimages"/><defs id="topdefs-41a15f"><g class="clips"/><clipPath id="legend41a15f"><rect width="108" height="83" x="0" y="0"/></clipPath><clipPath id="rangesliderx-41a15f"><rect x="0" y="0" width="490" height="63"/></clipPath></defs><g class="layer-above"><g class="imagelayer"/><g class="shapelayer"/></g><g class="infolayer"><g class="legend" pointer-events="all" transform="translate(579.8, 100)"><rect class="bg" shape-rendering="crispEdges" style="stroke: rgb(68, 68, 68); stroke-opacity: 1; fill: rgb(255, 255, 255); fill-opacity: 1; stroke-width: 0px;" width="108" height="83" x="0" y="0"/><g class="scrollbox" transform="translate(0, 0)" clip-path="url('#legend41a15f')"><text class="legendtitletext user-select-none" text-anchor="start" x="2" y="15.600000000000001" style="font-family: 'Open Sans', verdana, arial, sans-serif; font-size: 12px; fill: rgb(42, 63, 95); fill-opacity: 1; white-space: pre;">Case</text><g class="groups" transform="translate(0, 0)"><g class="traces" transform="translate(0, 30.1)" style="opacity: 1;"><text class="legendtext user-select-none" text-anchor="start" x="40" y="4.680000000000001" style="font-family: 'Open Sans', verdana, arial, sans-serif; font-size: 12px; fill: rgb(42, 63, 95); fill-opacity: 1; white-space: pre;">Recovered</text><g class="layers"><g class="legendfill"><path class="js-fill" d="M5,-2h30v6h-30z" style="stroke-width: 0; fill: rgb(40, 167, 69); fill-opacity: 0.5;"/></g><g class="legendlines"><path class="js-line" d="M5,-2h30" style="fill: none; stroke: rgb(40, 167, 69); stroke-opacity: 1; stroke-width: 2px;"/></g><g class="legendsymbols"><g class="legendpoints"/></g></g><rect class="legendtoggle" pointer-events="all" x="0" y="-9.5" width="102.546875" height="19" style="cursor: pointer; fill: rgb(0, 0, 0); fill-opacity: 0;"/></g></g><g class="groups" transform="translate(0, 0)"><g class="traces" transform="translate(0, 49.1)" style="opacity: 1;"><text class="legendtext user-select-none" text-anchor="start" x="40" y="4.680000000000001" style="font-family: 'Open Sans', verdana, arial, sans-serif; font-size: 12px; fill: rgb(42, 63, 95); fill-opacity: 1; white-space: pre;">Deaths</text><g class="layers"><g class="legendfill"><path class="js-fill" d="M5,-2h30v6h-30z" style="stroke-width: 0; fill: rgb(108, 117, 125); fill-opacity: 0.5;"/></g><g class="legendlines"><path class="js-line" d="M5,-2h30" style="fill: none; stroke: rgb(108, 117, 125); stroke-opacity: 1; stroke-width: 2px;"/></g><g class="legendsymbols"><g class="legendpoints"/></g></g><rect class="legendtoggle" pointer-events="all" x="0" y="-9.5" width="102.546875" height="19" style="cursor: pointer; fill: rgb(0, 0, 0); fill-opacity: 0;"/></g></g><g class="groups" transform="translate(0, 0)"><g class="traces" transform="translate(0, 68.1)" style="opacity: 1;"><text class="legendtext user-select-none" text-anchor="start" x="40" y="4.680000000000001" style="font-family: 'Open Sans', verdana, arial, sans-serif; font-size: 12px; fill: rgb(42, 63, 95); fill-opacity: 1; white-space: pre;">Active</text><g class="layers"><g class="legendfill"><path class="js-fill" d="M5,-2h30v6h-30z" style="stroke-width: 0; fill: rgb(255, 7, 58); fill-opacity: 0.5;"/></g><g class="legendlines"><path class="js-line" d="M5,-2h30" style="fill: none; stroke: rgb(255, 7, 58); stroke-opacity: 1; stroke-width: 2px;"/></g><g class="legendsymbols"><g class="legendpoints"/></g></g><rect class="legendtoggle" pointer-events="all" x="0" y="-9.5" width="102.546875" height="19" style="cursor: pointer; fill: rgb(0, 0, 0); fill-opacity: 0;"/></g></g></g><rect class="scrollbar" rx="20" ry="3" width="0" height="0" x="0" y="0" style="fill: rgb(128, 139, 164); fill-opacity: 1;"/></g><g class="g-gtitle"><text class="gtitle" x="35" y="50" text-anchor="start" dy="0em" style="font-family: 'Open Sans', verdana, arial, sans-serif; font-size: 17px; fill: rgb(42, 63, 95); opacity: 1; font-weight: normal; white-space: pre;">Cases over time</text></g><g class="rangeslider-container" pointer-events="all" transform="translate(80,457)"><rect class="rangeslider-bg" x="0" y="0" shape-rendering="crispEdges" width="490" height="63" transform="translate(0,0)" fill="#E5ECF6" stroke="#444" stroke-width="0"/><g class="rangeslider-rangeplot xy" clip-path="url('#rangesliderx-41a15f')"><g class="layer-subplot"><g class="shapelayer"/><g class="imagelayer"/></g><g class="gridlayer"><g class="x"/><g class="y"/></g><g class="zerolinelayer"/><path class="xlines-below"/><path class="ylines-below"/><g class="overlines-below"/><g class="xaxislayer-below"/><g class="yaxislayer-below"/><g class="overaxes-below"/><g class="plot"><g class="scatterlayer mlayer rangeplot"><g class="trace scatter trace5ac426" style="stroke-miterlimit: 2;"><g class="fills"><g><path class="js-fill" d="M490,63L0,63L0,63L181.57,62.25L184.06,62.21L243.76,60.05L246.24,59.85L303.45,56.42L305.94,56.24L350.71,51.93L353.2,51.68L400.46,45.88L402.94,44.99L420.36,41.9L422.84,41.46L450.2,36.48L452.69,35.93L482.54,28.81L485.03,28.11L490,26.82" style="fill: rgb(40, 167, 69); fill-opacity: 0.5; stroke-width: 0;"/></g><g><path class="js-fill" d="M0,63L174.11,62.25L176.6,62.18L223.86,60.32L226.35,60.2L283.55,56.93L286.04,56.74L315.89,54.32L318.38,54.06L363.15,49.23L365.63,48.84L397.97,44.64L400.46,44.26L405.43,42.99L407.92,42.37L437.77,37L440.25,36.4L465.13,30.96L467.61,30.39L490,24.58L490,26.82L485.03,28.11L482.54,28.81L452.69,35.93L450.2,36.48L422.84,41.46L420.36,41.9L402.94,44.99L400.46,45.88L353.2,51.68L350.71,51.93L305.94,56.24L303.45,56.42L246.24,59.85L243.76,60.05L184.06,62.21L181.57,62.25L0,63Z" style="fill: rgb(108, 117, 125); fill-opacity: 0.5; stroke-width: 0;"/></g></g><g class="errorbars"/><g class="lines"><path class="js-line" d="M0,63L181.57,62.25L184.06,62.21L243.76,60.05L246.24,59.85L303.45,56.42L305.94,56.24L350.71,51.93L353.2,51.68L400.46,45.88L402.94,44.99L420.36,41.9L422.84,41.46L450.2,36.48L452.69,35.93L482.54,28.81L485.03,28.11L490,26.82" style="vector-effect: non-scaling-stroke; fill: none; stroke: rgb(40, 167, 69); stroke-opacity: 1; stroke-width: 2px; opacity: 1;"/></g><g class="points"/><g class="text"/></g><g class="trace scatter tracefe6102" style="stroke-miterlimit: 2;"><g class="fills"><g><path class="js-fill" d="M0,63L141.78,62.25L144.26,62.16L169.14,60.53L171.62,60.29L283.55,48.78L286.04,48.48L315.89,44.78L318.38,44.4L388.02,32.36L390.51,31.8L412.89,26.58L415.38,25.92L452.69,15.27L455.18,14.38L480.05,6.32L482.54,5.68L490,3.15L490,24.58L467.61,30.39L465.13,30.96L440.25,36.4L437.77,37L407.92,42.37L405.43,42.99L400.46,44.26L397.97,44.64L365.63,48.84L363.15,49.23L318.38,54.06L315.89,54.32L286.04,56.74L283.55,56.93L226.35,60.2L223.86,60.32L176.6,62.18L174.11,62.25L0,63Z" style="fill: rgb(255, 7, 58); fill-opacity: 0.5; stroke-width: 0;"/></g></g><g class="errorbars"/><g class="lines"><path class="js-line" d="M0,63L174.11,62.25L176.6,62.18L223.86,60.32L226.35,60.2L283.55,56.93L286.04,56.74L315.89,54.32L318.38,54.06L363.15,49.23L365.63,48.84L397.97,44.64L400.46,44.26L405.43,42.99L407.92,42.37L437.77,37L440.25,36.4L465.13,30.96L467.61,30.39L490,24.58" style="vector-effect: non-scaling-stroke; fill: none; stroke: rgb(108, 117, 125); stroke-opacity: 1; stroke-width: 2px; opacity: 1;"/></g><g class="points"/><g class="text"/></g><g class="trace scatter trace70c4f0" style="stroke-miterlimit: 2;"><g class="fills"/><g class="errorbars"/><g class="lines"><path class="js-line" d="M0,63L141.78,62.25L144.26,62.16L169.14,60.53L171.62,60.29L283.55,48.78L286.04,48.48L315.89,44.78L318.38,44.4L388.02,32.36L390.51,31.8L412.89,26.58L415.38,25.92L452.69,15.27L455.18,14.38L480.05,6.32L482.54,5.68L490,3.15" style="vector-effect: non-scaling-stroke; fill: none; stroke: rgb(255, 7, 58); stroke-opacity: 1; stroke-width: 2px; opacity: 1;"/></g><g class="points"/><g class="text"/></g></g></g><g class="overplot"/><path class="xlines-above crisp" style="fill: none;"/><path class="ylines-above crisp" style="fill: none;"/><g class="overlines-above"/><g class="xaxislayer-above"/><g class="yaxislayer-above"/><g class="overaxes-above"/></g><rect class="rangeslider-mask-min" x="0" y="0" shape-rendering="crispEdges" height="63" width="0" style="fill: rgb(0, 0, 0); fill-opacity: 0.4;"/><rect class="rangeslider-mask-max" y="0" shape-rendering="crispEdges" height="63" x="490" width="0" style="fill: rgb(0, 0, 0); fill-opacity: 0.4;"/><g class="rangeslider-grabber-min" transform="translate(-2.5,0.5)"><rect class="rangeslider-handle-min" x="0" width="4" rx="1" fill="#fff" stroke="#444" stroke-width="1" shape-rendering="crispEdges" y="16" height="32"/></g><g class="rangeslider-grabber-max" transform="translate(488.5,0.5)"><rect class="rangeslider-handle-max" x="0" width="4" rx="1" fill="#fff" stroke="#444" stroke-width="1" shape-rendering="crispEdges" y="16" height="32"/></g></g><g class="g-ytitle"><text class="ytitle" transform="rotate(-90,26.418750000000003,262)" x="26.418750000000003" y="262" text-anchor="middle" style="font-family: 'Open Sans', verdana, arial, sans-serif; font-size: 14px; fill: rgb(42, 63, 95); opacity: 1; font-weight: normal; white-space: pre;">Count</text></g><g class="g-xtitle"><text class="xtitle" x="325" y="551" text-anchor="middle" style="font-family: 'Open Sans', verdana, arial, sans-serif; font-size: 14px; fill: rgb(42, 63, 95); opacity: 1; font-weight: normal; white-space: pre;">Date</text></g></g></svg>