<svg class="main-svg" xmlns="http://www.w3.org/2000/svg" xmlns:xlink="http://www.w3.org/1999/xlink" width="700" height="600" style="" viewBox="0 0 700 600"><rect x="0" y="0" width="700" height="600" style="fill: rgb(255, 255, 255); fill-opacity: 1;"/><defs id="defs-dc9811"><g class="clips"><clipPath id="clipdc9811xyplot" class="plotclip"><rect width="490" height="324"/></clipPath><clipPath class="axesclip" id="clipdc9811x"><rect x="80" y="0" width="490" height="600"/></clipPath><clipPath class="axesclip" id="clipdc9811y"><rect x="0" y="100" width="700" height="324"/></clipPath><clipPath class="axesclip" id="clipdc9811xy"><rect x="80" y="100" width="490" height="324"/></clipPath></g><g class="gradients"/></defs><g class="bglayer"><rect class="bg" x="80" y="100" width="490" height="324" style="fill: rgb(229, 236, 246); fill-opacity: 1; stroke-width: 0;"/></g><g class="layer-below"><g class="imagelayer"/><g class="shapelayer"/></g><g class="cartesianlayer"><g class="subplot xy"><g class="layer-subplot"><g class="shapelayer"/><g class="imagelayer"/></g><g class="gridlayer"><g class="x"><path class="xgrid crisp" transform="translate(105,0)" d="M0,100v324" style="stroke: rgb(255, 255, 255); stroke-opacity: 1; stroke-width: 1px;"/><path class="xgrid crisp" transform="translate(177.5,0)" d="M0,100v324" style="stroke: rgb(255, 255, 255); stroke-opacity: 1; stroke-width: 1px;"/><path class="xgrid crisp" transform="translate(255,0)" d="M0,100v324" style="stroke: rgb(255, 255, 255); stroke-opacity: 1; stroke-width: 1px;"/><path class="xgrid crisp" transform="translate(330,0)" d="M0,100v324" style="stroke: rgb(255, 255, 255); stroke-opacity: 1; stroke-width: 1px;"/><path class="xgrid crisp" transform="translate(407.5,0)" d="M0,100v324" style="stroke: rgb(255, 255, 255); stroke-opacity: 1; stroke-width: 1px;"/><path class="xgrid crisp" transform="translate(482.5,0)" d="M0,100v324" style="stroke: rgb(255, 255, 255); stroke-opacity: 1; stroke-width: 1px;"/><path class="xgrid crisp" transform="translate(560,0)" d="M0,100v324" style="stroke: rgb(255, 255, 255); stroke-opacity: 1; stroke-width: 1px;"/></g><g class="y"><path class="ygrid crisp" transform="translate(0,342.07)" d="M80,0h490" style="stroke: rgb(255, 255, 255); stroke-opacity: 1; stroke-width: 1px;"/><path class="ygrid crisp" transform="translate(0,260.15)" d="M80,0h490" style="stroke: rgb(255, 255, 255); stroke-opacity: 1; stroke-width: 1px;"/><path class="ygrid crisp" transform="translate(0,178.22)" d="M80,0h490" style="stroke: rgb(255, 255, 255); stroke-opacity: 1; stroke-width: 1px;"/></g></g><g class="zerolinelayer"><path class="yzl zl crisp" transform="translate(0,424)" d="M80,0h490" style="stroke: rgb(255, 255, 255); stroke-opacity: 1; stroke-width: 2px;"/></g><path class="xlines-below"/><path class="ylines-below"/><g class="overlines-below"/><g class="xaxislayer-below"/><g class="yaxislayer-below"/><g class="overaxes-below"/><g class="plot" transform="translate(80, 100)" clip-path="url('#clipdc9811xyplot')"><g class="scatterlayer mlayer"><g class="trace scatter traceab049c" style="stroke-miterlimit: 2;"><g class="fills"><g><path class="js-fill" d="M490,324L0,324L0,324L100,323.25L102.5,323.21L170,321.39L172.5,321.17L195,318.32L197.5,317.96L230,312.04L232.5,311.22L245,308.61L247.5,307.55L282.5,298.21L285,297.42L300,292.31L302.5,290.54L317.5,284.66L320,283.39L342.5,272.74L345,270.26L370,256.16L372.5,254.61L377.5,251.59L380,250.09L402.5,234.67L405,230L407.5,228.2L410,225L417.5,218.65L420,216.06L440,197.96L442.5,194.95L455,182.69L457.5,179.91L462.5,172.56L465,170.26L472.5,161.34L475,157.69L480,151.42L482.5,149.18L490,138.28" style="fill: rgb(40, 167, 69); fill-opacity: 0.5; stroke-width: 0;"/></g><g><path class="js-fill" d="M0,324L97.5,323.25L100,323.2L162.5,321.47L165,321.27L180,319.38L182.5,318.96L192.5,317.19L195,316.65L217.5,311.75L220,311.15L230,308.83L232.5,307.9L245,304.84L247.5,303.68L282.5,293.21L285,292.33L300,286.81L302.5,284.95L317.5,278.71L320,277.36L342.5,266.1L345,263.56L365,252.13L367.5,250.1L380,242.32L382.5,240.53L392.5,233.32L395,231.81L402.5,226.22L405,221.47L407.5,219.59L410,216.31L417.5,209.74L420,207.07L440,188.31L442.5,185.19L455,172.49L457.5,169.54L462.5,162L465,159.64L472.5,150.42L475,146.67L480,140.21L482.5,137.9L490,126.7L490,138.28L482.5,149.18L480,151.42L475,157.69L472.5,161.34L465,170.26L462.5,172.56L457.5,179.91L455,182.69L442.5,194.95L440,197.96L420,216.06L417.5,218.65L410,225L407.5,228.2L405,230L402.5,234.67L380,250.09L377.5,251.59L372.5,254.61L370,256.16L345,270.26L342.5,272.74L320,283.39L317.5,284.66L302.5,290.54L300,292.31L285,297.42L282.5,298.21L247.5,307.55L245,308.61L232.5,311.22L230,312.04L197.5,317.96L195,318.32L172.5,321.17L170,321.39L102.5,323.21L100,323.25L0,324Z" style="fill: rgb(108, 117, 125); fill-opacity: 0.5; stroke-width: 0;"/></g></g><g class="errorbars"/><g class="lines"><path class="js-line" d="M0,324L100,323.25L102.5,323.21L170,321.39L172.5,321.17L195,318.32L197.5,317.96L230,312.04L232.5,311.22L245,308.61L247.5,307.55L282.5,298.21L285,297.42L300,292.31L302.5,290.54L317.5,284.66L320,283.39L342.5,272.74L345,270.26L370,256.16L372.5,254.61L377.5,251.59L380,250.09L402.5,234.67L405,230L407.5,228.2L410,225L417.5,218.65L420,216.06L440,197.96L442.5,194.95L455,182.69L457.5,179.91L462.5,172.56L465,170.26L472.5,161.34L475,157.69L480,151.42L482.5,149.18L490,138.28" style="vector-effect: non-scaling-stroke; fill: none; stroke: rgb(40, 167, 69); stroke-opacity: 1; stroke-width: 2px; opacity: 1;"/></g><g class="points"/><g class="text"/></g><g class="trace scatter trace23f238" style="stroke-miterlimit: 2;"><g class="fills"><g><path class="js-fill" d="M0,323.99L52.5,323.26L55,323.01L77.5,322.72L80,322.72L125,321.96L127.5,321.73L142.5,320.09L145,319.61L157.5,316.34L160,315.31L177.5,307.29L180,305.93L282.5,251.34L285,249.77L315,230.85L317.5,228.89L355,198.86L357.5,196.63L370,185.56L372.5,182.6L387.5,167.24L390,164.1L405,146.14L407.5,142.8L422.5,123.25L425,119.44L440,98.04L442.5,94.07L455,74.86L457.5,70.23L465,57.95L467.5,54.24L475,40.78L477.5,36.02L490,16.2L490,126.7L482.5,137.9L480,140.21L475,146.67L472.5,150.42L465,159.64L462.5,162L457.5,169.54L455,172.49L442.5,185.19L440,188.31L420,207.07L417.5,209.74L410,216.31L407.5,219.59L405,221.47L402.5,226.22L395,231.81L392.5,233.32L382.5,240.53L380,242.32L367.5,250.1L365,252.13L345,263.56L342.5,266.1L320,277.36L317.5,278.71L302.5,284.95L300,286.81L285,292.33L282.5,293.21L247.5,303.68L245,304.84L232.5,307.9L230,308.83L220,311.15L217.5,311.75L195,316.65L192.5,317.19L182.5,318.96L180,319.38L165,321.27L162.5,321.47L100,323.2L97.5,323.25L0,324Z" style="fill: rgb(255, 7, 58); fill-opacity: 0.5; stroke-width: 0;"/></g></g><g class="errorbars"/><g class="lines"><path class="js-line" d="M0,324L97.5,323.25L100,323.2L162.5,321.47L165,321.27L180,319.38L182.5,318.96L192.5,317.19L195,316.65L217.5,311.75L220,311.15L230,308.83L232.5,307.9L245,304.84L247.5,303.68L282.5,293.21L285,292.33L300,286.81L302.5,284.95L317.5,278.71L320,277.36L342.5,266.1L345,263.56L365,252.13L367.5,250.1L380,242.32L382.5,240.53L392.5,233.32L395,231.81L402.5,226.22L405,221.47L407.5,219.59L410,216.31L417.5,209.74L420,207.07L440,188.31L442.5,185.19L455,172.49L457.5,169.54L462.5,162L465,159.64L472.5,150.42L475,146.67L480,140.21L482.5,137.9L490,126.7" style="vector-effect: non-scaling-stroke; fill: none; stroke: rgb(108, 117, 125); stroke-opacity: 1; stroke-width: 2px; opacity: 1;"/></g><g class="points"/><g class="text"/></g><g class="trace scatter traced37105" style="stroke-miterlimit: 2;"><g class="fills"/><g class="errorbars"/><g class="lines"><path class="js-line" d="M0,323.99L52.5,323.26L55,323.01L77.5,322.72L80,322.72L125,321.96L127.5,321.73L142.5,320.09L145,319.61L157.5,316.34L160,315.31L177.5,307.29L180,305.93L282.5,251.34L285,249.77L315,230.85L317.5,228.89L355,198.86L357.5,196.63L370,185.56L372.5,182.6L387.5,167.24L390,164.1L405,146.14L407.5,142.8L422.5,123.25L425,119.44L440,98.04L442.5,94.07L455,74.86L457.5,70.23L465,57.95L467.5,54.24L475,40.78L477.5,36.02L490,16.2" style="vector-effect: non-scaling-stroke; fill: none; stroke: rgb(255, 7, 58); stroke-opacity: 1; stroke-width: 2px; opacity: 1;"/></g><g class="points"/><g class="text"/></g></g></g><g class="overplot"/><path class="xlines-above crisp" style="fill: none; stroke-width: 1px; stroke: rgb(255, 255, 255); stroke-opacity: 1;" d="M79,424.5H570"/><path class="ylines-above crisp" style="fill: none; stroke-width: 1px; stroke: rgb(255, 255, 255); stroke-opacity: 1;" d="M79.5,100V424"/><g class="overlines-above"/><g class="xaxislayer-above"><g class="xtick"><text text-anchor="middle" x="0" y="439.4" transform="translate(105,0)" style="font-family: 'Open Sans', verdana, arial, sans-serif; font-size: 12px; fill: rgb(42, 63, 95); fill-opacity: 1; white-space: pre;">Feb 2020</text></g><g class="xtick"><text text-anchor="middle" x="0" y="439.4" transform="translate(177.5,0)" style="font-family: 'Open Sans', verdana, arial, sans-serif; font-size: 12px; fill: rgb(42, 63, 95); fill-opacity: 1; white-space: pre;">Mar 2020</text></g><g class="xtick"><text text-anchor="middle" x="0" y="439.4" transform="translate(255,0)" style="font-family: 'Open Sans', verdana, arial, sans-serif; font-size: 12px; fill: rgb(42, 63, 95); fill-opacity: 1; white-space: pre;">Apr 2020</text></g><g class="xtick"><text text-anchor="middle" x="0" y="439.4" transform="translate(330,0)" style="font-family: 'Open Sans', verdana, arial, sans-serif; font-size: 12px; fill: rgb(42, 63, 95); fill-opacity: 1; white-space: pre;">May 2020</text></g><g class="xtick"><text text-anchor="middle" x="0" y="439.4" transform="translate(407.5,0)" style="font-family: 'Open Sans', verdana, arial, sans-serif; font-size: 12px; fill: rgb(42, 63, 95); fill-opacity: 1; white-space: pre;">Jun 2020</text></g><g class="xtick"><text text-anchor="middle" x="0" y="439.4" transform="translate(482.5,0)" style="font-family: 'Open Sans', verdana, arial, sans-serif; font-size: 12px; fill: rgb(42, 63, 95); fill-opacity: 1; white-space: pre;">Jul 2020</text></g><g class="xtick"><text text-anchor="middle" x="0" y="439.4" transform="translate(560,0)" style="font-family: 'Open Sans', verdana, arial, sans-serif; font-size: 12px; fill: rgb(42, 63, 95); fill-opacity: 1; white-space: pre;">Aug 2020</text></g></g><g class="yaxislayer-above"><g class="ytick"><text text-anchor="end" x="76.6" y="4.199999999999999" transform="translate(0,424)" style="font-family: 'Open Sans', verdana, arial, sans-serif; font-size: 12px; fill: rgb(42, 63, 95); fill-opacity: 1; white-space: pre;">0</text></g><g class="ytick"><text text-anchor="end" x="76.6" y="4.199999999999999" transform="translate(0,342.07)" style="font-family: 'Open Sans', verdana, arial, sans-serif; font-size: 12px; fill: rgb(42, 63, 95); fill-opacity: 1; white-space: pre;">5M</text></g><g class="ytick"><text text-anchor="end" x="76.6" y="4.199999999999999" transform="translate(0,260.15)" style="font-family: 'Open Sans', verdana, arial, sans-serif; font-size: 12px; fill: rgb(42, 63, 95); fill-opacity: 1; white-space: pre;">10M</text></g><g class="ytick"><text text-anchor="end" x="76.6" y="4.199999999999999" transform="translate(0,178.22)" style="font-family: 'Open Sans', verdana, arial, sans-serif; font-size: 12px; fill: rgb(42, 63, 95); fill-opacity: 1; white-space: pre;">15M</text></g></g><g class="overaxes-above"/></g></g><g class="polarlayer"/><g class="ternarylayer"/><g class="geolayer"/><g class="funnelarealayer"/><g class="pielayer"/><g class="treemaplayer"/><g class="sunburstlayer"/><g class="glimages"/><defs id="topdefs-dc9811"><g class="clips"/><clipPath id="legenddc9811"><rect width="108" height="83" x="0" y="0"/></clipPath><clipPath id="rangesliderx-dc9811"><rect x="0" y="0" width="490" height="63"/></clipPath></defs><g class="layer-above"><g class="imagelayer"/><g class="shapelayer"/></g><g class="infolayer"><g class="legend" pointer-events="all" transform="translate(579.8, 100)"><rect class="bg" shape-rendering="crispEdges" style="stroke: rgb(68, 68, 68); stroke-opacity: 1; fill: rgb(255, 255, 255); fill-opacity: 1; stroke-width: 0px;" width="108" height="83" x="0" y="0"/><g class="scrollbox" transform="translate(0, 0)" clip-path="url('#legenddc9811')"><text class="legendtitletext user-select-none" text-anchor="start" x="2" y="15.600000000000001" style="font-family: 'Open Sans', verdana, arial, sans-serif; font-size: 12px; fill: rgb(42, 63, 95); fill-opacity: 1; white-space: pre;">Case</text><g class="groups" transform="translate(0, 0)"><g class="traces" transform="translate(0, 30.1)" style="opacity: 1;"><text class="legendtext user-select-none" text-anchor="start" x="40" y="4.680000000000001" style="font-family: 'Open Sans', verdana, arial, sans-serif; font-size: 12px; fill: rgb(42, 63, 95); fill-opacity: 1; white-space: pre;">Recovered</text><g class="layers"><g class="legendfill"><path class="js-fill" d="M5,-2h30v6h-30z" style="stroke-width: 0; fill: rgb(40, 167, 69); fill-opacity: 0.5;"/></g><g class="legendlines"><path class="js-line" d="M5,-2h30" style="fill: none; stroke: rgb(40, 167, 69); stroke-opacity: 1; stroke-width: 2px;"/></g><g class="legendsymbols"><g class="legendpoints"/></g></g><rect class="legendtoggle" pointer-events="all" x="0" y="-9.5" width="102.546875" height="19" style="cursor: pointer; fill: rgb(0, 0, 0); fill-opacity: 0;"/></g></g><g class="groups" transform="translate(0, 0)"><g class="traces" transform="translate(0, 49.1)" style="opacity: 1;"><text class="legendtext user-select-none" text-anchor="start" x="40" y="4.680000000000001" style="font-family: 'Open Sans', verdana, arial, sans-serif; font-size: 12px; fill: rgb(42, 63, 95); fill-opacity: 1; white-space: pre;">Deaths</text><g class="layers"><g class="legendfill"><path class="js-fill" d="M5,-2h30v6h-30z" style="stroke-width: 0; fill: rgb(108, 117, 125); fill-opacity: 0.5;"/></g><g class="legendlines"><path class="js-line" d="M5,-2h30" style="fill: none; stroke: rgb(108, 117, 125); stroke-opacity: 1; stroke-width: 2px;"/></g><g class="legendsymbols"><g class="legendpoints"/></g></g><rect class="legendtoggle" pointer-events="all" x="0" y="-9.5" width="102.546875" height="19" style="cursor: pointer; fill: rgb(0, 0, 0); fill-opacity: 0;"/></g></g><g class="groups" transform="translate(0, 0)"><g class="traces" transform="translate(0, 68.1)" style="opacity: 1;"><text class="legendtext user-select-none" text-anchor="start" x="40" y="4.680000000000001" style="font-family: 'Open Sans', verdana, arial, sans-serif; font-size: 12px; fill: rgb(42, 63, 95); fill-opacity: 1; white-space: pre;">Active</text><g class="layers"><g class="legendfill"><path class="js-fill" d="M5,-2h30v6h-30z" style="stroke-width: 0; fill: rgb(255, 7, 58); fill-opacity: 0.5;"/></g><g class="legendlines"><path class="js-line" d="M5,-2h30" style="fill: none; stroke: rgb(255, 7, 58); stroke-opacity: 1; stroke-width: 2px;"/></g><g class="legendsymbols"><g class="legendpoints"/></g></g><rect class="legendtoggle" pointer-events="all" x="0" y="-9.5" width="102.546875" height="19" style="cursor: pointer; fill: rgb(0, 0, 0); fill-opacity: 0;"/></g></g></g><rect class="scrollbar" rx="20" ry="3" width="0" height="0" x="0" y="0" style="fill: rgb(128, 139, 164); fill-opacity: 1;"/></g><g class="g-gtitle"><text class="gtitle" x="35" y="50" text-anchor="start" dy="0em" style="font-family: 'Open Sans', verdana, arial, sans-serif; font-size: 17px; fill: rgb(42, 63, 95); opacity: 1; font-weight: normal; white-space: pre;">Cases over time</text></g><g class="rangeslider-container" pointer-events="all" transform="translate(80,457)"><rect class="rangeslider-bg" x="0" y="0" shape-rendering="crispEdges" width="490" height="63" transform="translate(0,0)" fill="#E5ECF6" stroke="#444" stroke-width="0"/><g class="rangeslider-rangeplot xy" clip-path="url('#rangesliderx-dc9811')"><g class="layer-subplot"><g class="shapelayer"/><g class="imagelayer"/></g><g class="gridlayer"><g class="x"/><g class="y"/></g><g class="zerolinelayer"/><path class="xlines-below"/><path class="ylines-below"/><g class="overlines-below"/><g class="xaxislayer-below"/><g class="yaxislayer-below"/><g class="overaxes-below"/><g class="plot"><g class="scatterlayer mlayer rangeplot"><g class="trace scatter traceab049c" style="stroke-miterlimit: 2;"><g class="fills"><g><path class="js-fill" d="M490,63L0,63L0,63L180,62.3L182.5,62.24L232.5,60.51L235,60.43L282.5,57.98L285,57.83L342.5,53.03L345,52.55L397.5,46.37L400,46L407.5,44.37L410,43.75L440,38.49L442.5,37.91L467.5,32.57L470,32.01L490,26.89" style="fill: rgb(40, 167, 69); fill-opacity: 0.5; stroke-width: 0;"/></g><g><path class="js-fill" d="M0,63L172.5,62.31L175,62.24L230,60.05L232.5,59.87L285,56.84L287.5,56.65L315,54.42L317.5,54.19L380,47.12L382.5,46.77L407.5,42.7L410,42.06L437.5,37.12L440,36.61L490,24.64L490,26.89L470,32.01L467.5,32.57L442.5,37.91L440,38.49L410,43.75L407.5,44.37L400,46L397.5,46.37L345,52.55L342.5,53.03L285,57.83L282.5,57.98L235,60.43L232.5,60.51L182.5,62.24L180,62.3L0,63Z" style="fill: rgb(108, 117, 125); fill-opacity: 0.5; stroke-width: 0;"/></g></g><g class="errorbars"/><g class="lines"><path class="js-line" d="M0,63L180,62.3L182.5,62.24L232.5,60.51L235,60.43L282.5,57.98L285,57.83L342.5,53.03L345,52.55L397.5,46.37L400,46L407.5,44.37L410,43.75L440,38.49L442.5,37.91L467.5,32.57L470,32.01L490,26.89" style="vector-effect: non-scaling-stroke; fill: none; stroke: rgb(40, 167, 69); stroke-opacity: 1; stroke-width: 2px; opacity: 1;"/></g><g class="points"/><g class="text"/></g><g class="trace scatter trace23f238" style="stroke-miterlimit: 2;"><g class="fills"><g><path class="js-fill" d="M0,63L140,62.33L142.5,62.24L170,60.5L172.5,60.25L280,49.18L282.5,48.87L332.5,42.27L335,41.87L387.5,32.52L390,31.91L422.5,23.96L425,23.22L455,14.56L457.5,13.66L480,6.21L482.5,5.48L490,3.15L490,24.64L440,36.61L437.5,37.12L410,42.06L407.5,42.7L382.5,46.77L380,47.12L317.5,54.19L315,54.42L287.5,56.65L285,56.84L232.5,59.87L230,60.05L175,62.24L172.5,62.31L0,63Z" style="fill: rgb(255, 7, 58); fill-opacity: 0.5; stroke-width: 0;"/></g></g><g class="errorbars"/><g class="lines"><path class="js-line" d="M0,63L172.5,62.31L175,62.24L230,60.05L232.5,59.87L285,56.84L287.5,56.65L315,54.42L317.5,54.19L380,47.12L382.5,46.77L407.5,42.7L410,42.06L437.5,37.12L440,36.61L490,24.64" style="vector-effect: non-scaling-stroke; fill: none; stroke: rgb(108, 117, 125); stroke-opacity: 1; stroke-width: 2px; opacity: 1;"/></g><g class="points"/><g class="text"/></g><g class="trace scatter traced37105" style="stroke-miterlimit: 2;"><g class="fills"/><g class="errorbars"/><g class="lines"><path class="js-line" d="M0,63L140,62.33L142.5,62.24L170,60.5L172.5,60.25L280,49.18L282.5,48.87L332.5,42.27L335,41.87L387.5,32.52L390,31.91L422.5,23.96L425,23.22L455,14.56L457.5,13.66L480,6.21L482.5,5.48L490,3.15" style="vector-effect: non-scaling-stroke; fill: none; stroke: rgb(255, 7, 58); stroke-opacity: 1; stroke-width: 2px; opacity: 1;"/></g><g class="points"/><g class="text"/></g></g></g><g class="overplot"/><path class="xlines-above crisp" style="fill: none;"/><path class="ylines-above crisp" style="fill: none;"/><g class="overlines-above"/><g class="xaxislayer-above"/><g class="yaxislayer-above"/><g class="overaxes-above"/></g><rect class="rangeslider-mask-min" x="0" y="0" shape-rendering="crispEdges" height="63" width="0" style="fill: rgb(0, 0, 0); fill-opacity: 0.4;"/><rect class="rangeslider-mask-max" y="0" shape-rendering="crispEdges" height="63" x="490" width="0" style="fill: rgb(0, 0, 0); fill-opacity: 0.4;"/><g class="rangeslider-grabber-min" transform="translate(-2.5,0.5)"><rect class="rangeslider-handle-min" x="0" width="4" rx="1" fill="#fff" stroke="#444" stroke-width="1" shape-rendering="crispEdges" y="16" height="32"/></g><g class="rangeslider-grabber-max" transform="translate(488.5,0.5)"><rect class="rangeslider-handle-max" x="0" width="4" rx="1" fill="#fff" stroke="#444" stroke-width="1" shape-rendering="crispEdges" y="16" height="32"/></g></g><g class="g-ytitle"><text class="ytitle" transform="rotate(-90,26.418750000000003,262)" x="26.418750000000003" y="262" text-anchor="middle" style="font-family: 'Open Sans', verdana, arial, sans-serif; font-size: 14px; fill: rgb(42, 63, 95); opacity: 1; font-weight: normal; white-space: pre;">Count</text></g><g class="g-xtitle"><text class="xtitle" x="325" y="551" text-anchor="middle" style="font-family: 'Open Sans', verdana, arial, sans-serif; font-size: 14px; fill: rgb(42, 63, 95); opacity: 1; font-weight: normal; white-space: pre;">Date</text></g></g></svg>