<svg class="main-svg" xmlns="http://www.w3.org/2000/svg" xmlns:xlink="http://www.w3.org/1999/xlink" width="700" height="600" style="" viewBox="0 0 700 600"><rect x="0" y="0" width="700" height="600" style="fill: rgb(255, 255, 255); fill-opacity: 1;"/><defs id="defs-8abf76"><g class="clips"><clipPath id="clip8abf76xyplot" class="plotclip"><rect width="490" height="324"/></clipPath><clipPath class="axesclip" id="clip8abf76x"><rect x="80" y="0" width="490" height="600"/></clipPath><clipPath class="axesclip" id="clip8abf76y"><rect x="0" y="100" width="700" height="324"/></clipPath><clipPath class="axesclip" id="clip8abf76xy"><rect x="80" y="100" width="490" height="324"/></clipPath></g><g class="gradients"/></defs><g class="bglayer"><rect class="bg" x="80" y="100" width="490" height="324" style="fill: rgb(229, 236, 246); fill-opacity: 1; stroke-width: 0;"/></g><g class="layer-below"><g class="imagelayer"/><g class="shapelayer"/></g><g class="cartesianlayer"><g class="subplot xy"><g class="layer-subplot"><g class="shapelayer"/><g class="imagelayer"/></g><g class="gridlayer"><g class="x"><path class="xgrid crisp" transform="translate(107.68,0)" d="M0,100v324" style="stroke: rgb(255, 255, 255); stroke-opacity: 1; stroke-width: 1px;"/><path class="xgrid crisp" transform="translate(187.97,0)" d="M0,100v324" style="stroke: rgb(255, 255, 255); stroke-opacity: 1; stroke-width: 1px;"/><path class="xgrid crisp" transform="translate(273.78999999999996,0)" d="M0,100v324" style="stroke: rgb(255, 255, 255); stroke-opacity: 1; stroke-width: 1px;"/><path class="xgrid crisp" transform="translate(356.84,0)" d="M0,100v324" style="stroke: rgb(255, 255, 255); stroke-opacity: 1; stroke-width: 1px;"/><path class="xgrid crisp" transform="translate(442.66,0)" d="M0,100v324" style="stroke: rgb(255, 255, 255); stroke-opacity: 1; stroke-width: 1px;"/><path class="xgrid crisp" transform="translate(525.71,0)" d="M0,100v324" style="stroke: rgb(255, 255, 255); stroke-opacity: 1; stroke-width: 1px;"/></g><g class="y"><path class="ygrid crisp" transform="translate(0,380.13)" d="M80,0h490" style="stroke: rgb(255, 255, 255); stroke-opacity: 1; stroke-width: 1px;"/><path class="ygrid crisp" transform="translate(0,336.26)" d="M80,0h490" style="stroke: rgb(255, 255, 255); stroke-opacity: 1; stroke-width: 1px;"/><path class="ygrid crisp" transform="translate(0,292.39)" d="M80,0h490" style="stroke: rgb(255, 255, 255); stroke-opacity: 1; stroke-width: 1px;"/><path class="ygrid crisp" transform="translate(0,248.52)" d="M80,0h490" style="stroke: rgb(255, 255, 255); stroke-opacity: 1; stroke-width: 1px;"/><path class="ygrid crisp" transform="translate(0,204.65)" d="M80,0h490" style="stroke: rgb(255, 255, 255); stroke-opacity: 1; stroke-width: 1px;"/><path class="ygrid crisp" transform="translate(0,160.78)" d="M80,0h490" style="stroke: rgb(255, 255, 255); stroke-opacity: 1; stroke-width: 1px;"/><path class="ygrid crisp" transform="translate(0,116.91)" d="M80,0h490" style="stroke: rgb(255, 255, 255); stroke-opacity: 1; stroke-width: 1px;"/></g></g><g class="zerolinelayer"><path class="yzl zl crisp" transform="translate(0,424)" d="M80,0h490" style="stroke: rgb(255, 255, 255); stroke-opacity: 1; stroke-width: 2px;"/></g><path class="xlines-below"/><path class="ylines-below"/><g class="overlines-below"/><g class="xaxislayer-below"/><g class="yaxislayer-below"/><g class="overaxes-below"/><g class="plot" transform="translate(80, 100)" clip-path="url('#clip8abf76xyplot')"><g class="scatterlayer mlayer"><g class="trace scatter traceb550e5" style="stroke-miterlimit: 2;"><g class="fills"><g><path class="js-fill" d="M490,324L0,324L0,324L99.66,323.27L102.43,323.2L185.48,320.85L188.25,320.51L210.4,317.57L213.16,316.95L251.92,308.61L254.69,307.98L260.23,306.28L262.99,305.66L271.3,303.4L274.07,301.97L307.29,291.56L310.06,290.34L321.13,286.28L323.9,285.12L332.2,281.57L334.97,279.21L351.58,271.34L354.35,269.64L365.42,262.95L368.19,261.21L379.27,255.38L382.03,252.06L404.18,237.57L406.95,234.97L412.49,231.11L415.25,228.57L420.79,225.06L423.56,222.78L434.63,213.55L437.4,211.6L442.94,206.95L445.71,204.41L448.47,198.16L451.24,195.76L454.01,191.47L456.78,188.85L462.32,182.96L465.08,179.5L484.46,158.6L487.23,155.27L490,151.25" style="fill: rgb(40, 167, 69); fill-opacity: 0.5; stroke-width: 0;"/></g><g><path class="js-fill" d="M0,324L96.89,323.27L99.66,323.21L179.94,320.61L182.71,320.35L196.55,318.29L199.32,317.83L224.24,312.29L227.01,311.57L251.92,304.49L254.69,303.72L260.23,301.75L262.99,301.04L271.3,298.39L274.07,296.83L307.29,285.14L310.06,283.8L323.9,278.12L326.67,276.88L332.2,274.25L334.97,271.77L351.58,263.41L354.35,261.61L365.42,254.59L368.19,252.73L379.27,246.53L382.03,243.13L404.18,227.83L406.95,225.11L412.49,221.01L415.25,218.38L420.79,214.7L423.56,212.3L434.63,202.61L437.4,200.59L442.94,195.75L445.71,193.1L448.47,186.74L451.24,184.23L454.01,179.84L456.78,177.15L462.32,171.04L465.08,167.47L484.46,145.81L487.23,142.35L490,138.18L490,151.25L487.23,155.27L484.46,158.6L465.08,179.5L462.32,182.96L456.78,188.85L454.01,191.47L451.24,195.76L448.47,198.16L445.71,204.41L442.94,206.95L437.4,211.6L434.63,213.55L423.56,222.78L420.79,225.06L415.25,228.57L412.49,231.11L406.95,234.97L404.18,237.57L382.03,252.06L379.27,255.38L368.19,261.21L365.42,262.95L354.35,269.64L351.58,271.34L334.97,279.21L332.2,281.57L323.9,285.12L321.13,286.28L310.06,290.34L307.29,291.56L274.07,301.97L271.3,303.4L262.99,305.66L260.23,306.28L254.69,307.98L251.92,308.61L213.16,316.95L210.4,317.57L188.25,320.51L185.48,320.85L102.43,323.2L99.66,323.27L0,324Z" style="fill: rgb(108, 117, 125); fill-opacity: 0.5; stroke-width: 0;"/></g></g><g class="errorbars"/><g class="lines"><path class="js-line" d="M0,324L99.66,323.27L102.43,323.2L185.48,320.85L188.25,320.51L210.4,317.57L213.16,316.95L251.92,308.61L254.69,307.98L260.23,306.28L262.99,305.66L271.3,303.4L274.07,301.97L307.29,291.56L310.06,290.34L321.13,286.28L323.9,285.12L332.2,281.57L334.97,279.21L351.58,271.34L354.35,269.64L365.42,262.95L368.19,261.21L379.27,255.38L382.03,252.06L404.18,237.57L406.95,234.97L412.49,231.11L415.25,228.57L420.79,225.06L423.56,222.78L434.63,213.55L437.4,211.6L442.94,206.95L445.71,204.41L448.47,198.16L451.24,195.76L454.01,191.47L456.78,188.85L462.32,182.96L465.08,179.5L484.46,158.6L487.23,155.27L490,151.25" style="vector-effect: non-scaling-stroke; fill: none; stroke: rgb(40, 167, 69); stroke-opacity: 1; stroke-width: 2px; opacity: 1;"/></g><g class="points"/><g class="text"/></g><g class="trace scatter tracecb5b0d" style="stroke-miterlimit: 2;"><g class="fills"><g><path class="js-fill" d="M0,323.99L44.29,323.25L47.06,323.19L107.97,322.14L110.73,322.11L138.42,321.27L141.19,320.96L157.8,318.77L160.56,318.12L171.64,314.86L174.41,313.75L193.79,303.42L196.55,301.64L227.01,282.21L229.77,280.68L310.06,228.97L312.82,226.84L348.81,199.62L351.58,197.01L393.11,157.18L395.88,154.24L404.18,145.6L406.95,141.74L412.49,134.71L415.25,131.26L423.56,121.8L426.33,118.04L445.71,90.45L448.47,85.89L456.78,73.19L459.55,69.52L484.46,27.04L487.23,21.5L490,16.2L490,138.18L487.23,142.35L484.46,145.81L465.08,167.47L462.32,171.04L456.78,177.15L454.01,179.84L451.24,184.23L448.47,186.74L445.71,193.1L442.94,195.75L437.4,200.59L434.63,202.61L423.56,212.3L420.79,214.7L415.25,218.38L412.49,221.01L406.95,225.11L404.18,227.83L382.03,243.13L379.27,246.53L368.19,252.73L365.42,254.59L354.35,261.61L351.58,263.41L334.97,271.77L332.2,274.25L326.67,276.88L323.9,278.12L310.06,283.8L307.29,285.14L274.07,296.83L271.3,298.39L262.99,301.04L260.23,301.75L254.69,303.72L251.92,304.49L227.01,311.57L224.24,312.29L199.32,317.83L196.55,318.29L182.71,320.35L179.94,320.61L99.66,323.21L96.89,323.27L0,324Z" style="fill: rgb(255, 7, 58); fill-opacity: 0.5; stroke-width: 0;"/></g></g><g class="errorbars"/><g class="lines"><path class="js-line" d="M0,324L96.89,323.27L99.66,323.21L179.94,320.61L182.71,320.35L196.55,318.29L199.32,317.83L224.24,312.29L227.01,311.57L251.92,304.49L254.69,303.72L260.23,301.75L262.99,301.04L271.3,298.39L274.07,296.83L307.29,285.14L310.06,283.8L323.9,278.12L326.67,276.88L332.2,274.25L334.97,271.77L351.58,263.41L354.35,261.61L365.42,254.59L368.19,252.73L379.27,246.53L382.03,243.13L404.18,227.83L406.95,225.11L412.49,221.01L415.25,218.38L420.79,214.7L423.56,212.3L434.63,202.61L437.4,200.59L442.94,195.75L445.71,193.1L448.47,186.74L451.24,184.23L454.01,179.84L456.78,177.15L462.32,171.04L465.08,167.47L484.46,145.81L487.23,142.35L490,138.18" style="vector-effect: non-scaling-stroke; fill: none; stroke: rgb(108, 117, 125); stroke-opacity: 1; stroke-width: 2px; opacity: 1;"/></g><g class="points"/><g class="text"/></g><g class="trace scatter traceed53cd" style="stroke-miterlimit: 2;"><g class="fills"/><g class="errorbars"/><g class="lines"><path class="js-line" d="M0,323.99L44.29,323.25L47.06,323.19L107.97,322.14L110.73,322.11L138.42,321.27L141.19,320.96L157.8,318.77L160.56,318.12L171.64,314.86L174.41,313.75L193.79,303.42L196.55,301.64L227.01,282.21L229.77,280.68L310.06,228.97L312.82,226.84L348.81,199.62L351.58,197.01L393.11,157.18L395.88,154.24L404.18,145.6L406.95,141.74L412.49,134.71L415.25,131.26L423.56,121.8L426.33,118.04L445.71,90.45L448.47,85.89L456.78,73.19L459.55,69.52L484.46,27.04L487.23,21.5L490,16.2" style="vector-effect: non-scaling-stroke; fill: none; stroke: rgb(255, 7, 58); stroke-opacity: 1; stroke-width: 2px; opacity: 1;"/></g><g class="points"/><g class="text"/></g></g></g><g class="overplot"/><path class="xlines-above crisp" style="fill: none; stroke-width: 1px; stroke: rgb(255, 255, 255); stroke-opacity: 1;" d="M79,424.5H570"/><path class="ylines-above crisp" style="fill: none; stroke-width: 1px; stroke: rgb(255, 255, 255); stroke-opacity: 1;" d="M79.5,100V424"/><g class="overlines-above"/><g class="xaxislayer-above"><g class="xtick"><text text-anchor="middle" x="0" y="439.4" transform="translate(107.68,0)" style="font-family: 'Open Sans', verdana, arial, sans-serif; font-size: 12px; fill: rgb(42, 63, 95); fill-opacity: 1; white-space: pre;">Feb 2020</text></g><g class="xtick"><text text-anchor="middle" x="0" y="439.4" transform="translate(187.97,0)" style="font-family: 'Open Sans', verdana, arial, sans-serif; font-size: 12px; fill: rgb(42, 63, 95); fill-opacity: 1; white-space: pre;">Mar 2020</text></g><g class="xtick"><text text-anchor="middle" x="0" y="439.4" transform="translate(273.78999999999996,0)" style="font-family: 'Open Sans', verdana, arial, sans-serif; font-size: 12px; fill: rgb(42, 63, 95); fill-opacity: 1; white-space: pre;">Apr 2020</text></g><g class="xtick"><text text-anchor="middle" x="0" y="439.4" transform="translate(356.84,0)" style="font-family: 'Open Sans', verdana, arial, sans-serif; font-size: 12px; fill: rgb(42, 63, 95); fill-opacity: 1; white-space: pre;">May 2020</text></g><g class="xtick"><text text-anchor="middle" x="0" y="439.4" transform="translate(442.66,0)" style="font-family: 'Open Sans', verdana, arial, sans-serif; font-size: 12px; fill: rgb(42, 63, 95); fill-opacity: 1; white-space: pre;">Jun 2020</text></g><g class="xtick"><text text-anchor="middle" x="0" y="439.4" transform="translate(525.71,0)" style="font-family: 'Open Sans', verdana, arial, sans-serif; font-size: 12px; fill: rgb(42, 63, 95); fill-opacity: 1; white-space: pre;">Jul 2020</text></g></g><g class="yaxislayer-above"><g class="ytick"><text text-anchor="end" x="76.6" y="4.199999999999999" transform="translate(0,424)" style="font-family: 'Open Sans', verdana, arial, sans-serif; font-size: 12px; fill: rgb(42, 63, 95); fill-opacity: 1; white-space: pre;">0</text></g><g class="ytick"><text text-anchor="end" x="76.6" y="4.199999999999999" transform="translate(0,380.13)" style="font-family: 'Open Sans', verdana, arial, sans-serif; font-size: 12px; fill: rgb(42, 63, 95); fill-opacity: 1; white-space: pre;">2M</text></g><g class="ytick"><text text-anchor="end" x="76.6" y="4.199999999999999" transform="translate(0,336.26)" style="font-family: 'Open Sans', verdana, arial, sans-serif; font-size: 12px; fill: rgb(42, 63, 95); fill-opacity: 1; white-space: pre;">4M</text></g><g class="ytick"><text text-anchor="end" x="76.6" y="4.199999999999999" transform="translate(0,292.39)" style="font-family: 'Open Sans', verdana, arial, sans-serif; font-size: 12px; fill: rgb(42, 63, 95); fill-opacity: 1; white-space: pre;">6M</text></g><g class="ytick"><text text-anchor="end" x="76.6" y="4.199999999999999" transform="translate(0,248.52)" style="font-family: 'Open Sans', verdana, arial, sans-serif; font-size: 12px; fill: rgb(42, 63, 95); fill-opacity: 1; white-space: pre;">8M</text></g><g class="ytick"><text text-anchor="end" x="76.6" y="4.199999999999999" transform="translate(0,204.65)" style="font-family: 'Open Sans', verdana, arial, sans-serif; font-size: 12px; fill: rgb(42, 63, 95); fill-opacity: 1; white-space: pre;">10M</text></g><g class="ytick"><text text-anchor="end" x="76.6" y="4.199999999999999" transform="translate(0,160.78)" style="font-family: 'Open Sans', verdana, arial, sans-serif; font-size: 12px; fill: rgb(42, 63, 95); fill-opacity: 1; white-space: pre;">12M</text></g><g class="ytick"><text text-anchor="end" x="76.6" y="4.199999999999999" transform="translate(0,116.91)" style="font-family: 'Open Sans', verdana, arial, sans-serif; font-size: 12px; fill: rgb(42, 63, 95); fill-opacity: 1; white-space: pre;">14M</text></g></g><g class="overaxes-above"/></g></g><g class="polarlayer"/><g class="ternarylayer"/><g class="geolayer"/><g class="funnelarealayer"/><g class="pielayer"/><g class="treemaplayer"/><g class="sunburstlayer"/><g class="glimages"/><defs id="topdefs-8abf76"><g class="clips"/><clipPath id="legend8abf76"><rect width="108" height="83" x="0" y="0"/></clipPath><clipPath id="rangesliderx-8abf76"><rect x="0" y="0" width="490" height="63"/></clipPath></defs><g class="layer-above"><g class="imagelayer"/><g class="shapelayer"/></g><g class="infolayer"><g class="legend" pointer-events="all" transform="translate(579.8, 100)"><rect class="bg" shape-rendering="crispEdges" style="stroke: rgb(68, 68, 68); stroke-opacity: 1; fill: rgb(255, 255, 255); fill-opacity: 1; stroke-width: 0px;" width="108" height="83" x="0" y="0"/><g class="scrollbox" transform="translate(0, 0)" clip-path="url('#legend8abf76')"><text class="legendtitletext user-select-none" text-anchor="start" x="2" y="15.600000000000001" style="font-family: 'Open Sans', verdana, arial, sans-serif; font-size: 12px; fill: rgb(42, 63, 95); fill-opacity: 1; white-space: pre;">Case</text><g class="groups" transform="translate(0, 0)"><g class="traces" transform="translate(0, 30.1)" style="opacity: 1;"><text class="legendtext user-select-none" text-anchor="start" x="40" y="4.680000000000001" style="font-family: 'Open Sans', verdana, arial, sans-serif; font-size: 12px; fill: rgb(42, 63, 95); fill-opacity: 1; white-space: pre;">Recovered</text><g class="layers"><g class="legendfill"><path class="js-fill" d="M5,-2h30v6h-30z" style="stroke-width: 0; fill: rgb(40, 167, 69); fill-opacity: 0.5;"/></g><g class="legendlines"><path class="js-line" d="M5,-2h30" style="fill: none; stroke: rgb(40, 167, 69); stroke-opacity: 1; stroke-width: 2px;"/></g><g class="legendsymbols"><g class="legendpoints"/></g></g><rect class="legendtoggle" pointer-events="all" x="0" y="-9.5" width="102.546875" height="19" style="cursor: pointer; fill: rgb(0, 0, 0); fill-opacity: 0;"/></g></g><g class="groups" transform="translate(0, 0)"><g class="traces" transform="translate(0, 49.1)" style="opacity: 1;"><text class="legendtext user-select-none" text-anchor="start" x="40" y="4.680000000000001" style="font-family: 'Open Sans', verdana, arial, sans-serif; font-size: 12px; fill: rgb(42, 63, 95); fill-opacity: 1; white-space: pre;">Deaths</text><g class="layers"><g class="legendfill"><path class="js-fill" d="M5,-2h30v6h-30z" style="stroke-width: 0; fill: rgb(108, 117, 125); fill-opacity: 0.5;"/></g><g class="legendlines"><path class="js-line" d="M5,-2h30" style="fill: none; stroke: rgb(108, 117, 125); stroke-opacity: 1; stroke-width: 2px;"/></g><g class="legendsymbols"><g class="legendpoints"/></g></g><rect class="legendtoggle" pointer-events="all" x="0" y="-9.5" width="102.546875" height="19" style="cursor: pointer; fill: rgb(0, 0, 0); fill-opacity: 0;"/></g></g><g class="groups" transform="translate(0, 0)"><g class="traces" transform="translate(0, 68.1)" style="opacity: 1;"><text class="legendtext user-select-none" text-anchor="start" x="40" y="4.680000000000001" style="font-family: 'Open Sans', verdana, arial, sans-serif; font-size: 12px; fill: rgb(42, 63, 95); fill-opacity: 1; white-space: pre;">Active</text><g class="layers"><g class="legendfill"><path class="js-fill" d="M5,-2h30v6h-30z" style="stroke-width: 0; fill: rgb(255, 7, 58); fill-opacity: 0.5;"/></g><g class="legendlines"><path class="js-line" d="M5,-2h30" style="fill: none; stroke: rgb(255, 7, 58); stroke-opacity: 1; stroke-width: 2px;"/></g><g class="legendsymbols"><g class="legendpoints"/></g></g><rect class="legendtoggle" pointer-events="all" x="0" y="-9.5" width="102.546875" height="19" style="cursor: pointer; fill: rgb(0, 0, 0); fill-opacity: 0;"/></g></g></g><rect class="scrollbar" rx="20" ry="3" width="0" height="0" x="0" y="0" style="fill: rgb(128, 139, 164); fill-opacity: 1;"/></g><g class="g-gtitle"><text class="gtitle" x="35" y="50" text-anchor="start" dy="0em" style="font-family: 'Open Sans', verdana, arial, sans-serif; font-size: 17px; fill: rgb(42, 63, 95); opacity: 1; font-weight: normal; white-space: pre;">Cases over time</text></g><g class="rangeslider-container" pointer-events="all" transform="translate(80,457)"><rect class="rangeslider-bg" x="0" y="0" shape-rendering="crispEdges" width="490" height="63" transform="translate(0,0)" fill="#E5ECF6" stroke="#444" stroke-width="0"/><g class="rangeslider-rangeplot xy" clip-path="url('#rangesliderx-8abf76')"><g class="layer-subplot"><g class="shapelayer"/><g class="imagelayer"/></g><g class="gridlayer"><g class="x"/><g class="y"/></g><g class="zerolinelayer"/><path class="xlines-below"/><path class="ylines-below"/><g class="overlines-below"/><g class="xaxislayer-below"/><g class="yaxislayer-below"/><g class="overaxes-below"/><g class="plot"><g class="scatterlayer mlayer rangeplot"><g class="trace scatter traceb550e5" style="stroke-miterlimit: 2;"><g class="fills"><g><path class="js-fill" d="M490,63L0,63L0,63L191.02,62.26L193.79,62.2L251.92,60.01L254.69,59.89L290.68,57.75L293.45,57.58L332.2,54.75L334.97,54.29L368.19,50.79L370.96,50.49L401.41,46.61L404.18,46.19L429.1,42.43L431.86,41.98L445.71,39.75L448.47,38.53L462.32,35.58L465.08,34.9L490,29.41" style="fill: rgb(40, 167, 69); fill-opacity: 0.5; stroke-width: 0;"/></g><g><path class="js-fill" d="M0,63L182.71,62.29L185.48,62.24L246.38,59.54L249.15,59.37L312.82,54.99L315.59,54.76L362.66,49.97L365.42,49.5L412.49,42.97L415.25,42.46L431.86,39.87L434.63,39.4L445.71,37.55L448.47,36.31L462.32,33.26L465.08,32.56L490,26.87L490,29.41L465.08,34.9L462.32,35.58L448.47,38.53L445.71,39.75L431.86,41.98L429.1,42.43L404.18,46.19L401.41,46.61L370.96,50.49L368.19,50.79L334.97,54.29L332.2,54.75L293.45,57.58L290.68,57.75L254.69,59.89L251.92,60.01L193.79,62.2L191.02,62.26L0,63Z" style="fill: rgb(108, 117, 125); fill-opacity: 0.5; stroke-width: 0;"/></g></g><g class="errorbars"/><g class="lines"><path class="js-line" d="M0,63L191.02,62.26L193.79,62.2L251.92,60.01L254.69,59.89L290.68,57.75L293.45,57.58L332.2,54.75L334.97,54.29L368.19,50.79L370.96,50.49L401.41,46.61L404.18,46.19L429.1,42.43L431.86,41.98L445.71,39.75L448.47,38.53L462.32,35.58L465.08,34.9L490,29.41" style="vector-effect: non-scaling-stroke; fill: none; stroke: rgb(40, 167, 69); stroke-opacity: 1; stroke-width: 2px; opacity: 1;"/></g><g class="points"/><g class="text"/></g><g class="trace scatter tracecb5b0d" style="stroke-miterlimit: 2;"><g class="fills"><g><path class="js-fill" d="M0,63L149.49,62.25L152.26,62.18L177.18,60.74L179.94,60.46L221.47,55.58L224.24,55.17L268.53,49.79L271.3,49.46L343.28,39.65L346.05,39.25L373.73,34.26L376.5,33.72L404.18,28.31L406.95,27.56L429.1,22.2L431.86,21.38L465.08,11.72L467.85,10.74L490,3.15L490,26.87L465.08,32.56L462.32,33.26L448.47,36.31L445.71,37.55L434.63,39.4L431.86,39.87L415.25,42.46L412.49,42.97L365.42,49.5L362.66,49.97L315.59,54.76L312.82,54.99L249.15,59.37L246.38,59.54L185.48,62.24L182.71,62.29L0,63Z" style="fill: rgb(255, 7, 58); fill-opacity: 0.5; stroke-width: 0;"/></g></g><g class="errorbars"/><g class="lines"><path class="js-line" d="M0,63L182.71,62.29L185.48,62.24L246.38,59.54L249.15,59.37L312.82,54.99L315.59,54.76L362.66,49.97L365.42,49.5L412.49,42.97L415.25,42.46L431.86,39.87L434.63,39.4L445.71,37.55L448.47,36.31L462.32,33.26L465.08,32.56L490,26.87" style="vector-effect: non-scaling-stroke; fill: none; stroke: rgb(108, 117, 125); stroke-opacity: 1; stroke-width: 2px; opacity: 1;"/></g><g class="points"/><g class="text"/></g><g class="trace scatter traceed53cd" style="stroke-miterlimit: 2;"><g class="fills"/><g class="errorbars"/><g class="lines"><path class="js-line" d="M0,63L149.49,62.25L152.26,62.18L177.18,60.74L179.94,60.46L221.47,55.58L224.24,55.17L268.53,49.79L271.3,49.46L343.28,39.65L346.05,39.25L373.73,34.26L376.5,33.72L404.18,28.31L406.95,27.56L429.1,22.2L431.86,21.38L465.08,11.72L467.85,10.74L490,3.15" style="vector-effect: non-scaling-stroke; fill: none; stroke: rgb(255, 7, 58); stroke-opacity: 1; stroke-width: 2px; opacity: 1;"/></g><g class="points"/><g class="text"/></g></g></g><g class="overplot"/><path class="xlines-above crisp" style="fill: none;"/><path class="ylines-above crisp" style="fill: none;"/><g class="overlines-above"/><g class="xaxislayer-above"/><g class="yaxislayer-above"/><g class="overaxes-above"/></g><rect class="rangeslider-mask-min" x="0" y="0" shape-rendering="crispEdges" height="63" width="0" style="fill: rgb(0, 0, 0); fill-opacity: 0.4;"/><rect class="rangeslider-mask-max" y="0" shape-rendering="crispEdges" height="63" x="490" width="0" style="fill: rgb(0, 0, 0); fill-opacity: 0.4;"/><g class="rangeslider-grabber-min" transform="translate(-2.5,0.5)"><rect class="rangeslider-handle-min" x="0" width="4" rx="1" fill="#fff" stroke="#444" stroke-width="1" shape-rendering="crispEdges" y="16" height="32"/></g><g class="rangeslider-grabber-max" transform="translate(488.5,0.5)"><rect class="rangeslider-handle-max" x="0" width="4" rx="1" fill="#fff" stroke="#444" stroke-width="1" shape-rendering="crispEdges" y="16" height="32"/></g></g><g class="g-ytitle"><text class="ytitle" transform="rotate(-90,26.418750000000003,262)" x="26.418750000000003" y="262" text-anchor="middle" style="font-family: 'Open Sans', verdana, arial, sans-serif; font-size: 14px; fill: rgb(42, 63, 95); opacity: 1; font-weight: normal; white-space: pre;">Count</text></g><g class="g-xtitle"><text class="xtitle" x="325" y="551" text-anchor="middle" style="font-family: 'Open Sans', verdana, arial, sans-serif; font-size: 14px; fill: rgb(42, 63, 95); opacity: 1; font-weight: normal; white-space: pre;">Date</text></g></g></svg>