<svg class="main-svg" xmlns="http://www.w3.org/2000/svg" xmlns:xlink="http://www.w3.org/1999/xlink" width="700" height="600" style="" viewBox="0 0 700 600"><rect x="0" y="0" width="700" height="600" style="fill: rgb(255, 255, 255); fill-opacity: 1;"/><defs id="defs-22b676"><g class="clips"><clipPath id="clip22b676xyplot" class="plotclip"><rect width="494" height="326"/></clipPath><clipPath class="axesclip" id="clip22b676x"><rect x="80" y="0" width="494" height="600"/></clipPath><clipPath class="axesclip" id="clip22b676y"><rect x="0" y="100" width="700" height="326"/></clipPath><clipPath class="axesclip" id="clip22b676xy"><rect x="80" y="100" width="494" height="326"/></clipPath></g><g class="gradients"/></defs><g class="bglayer"><rect class="bg" x="80" y="100" width="494" height="326" style="fill: rgb(229, 236, 246); fill-opacity: 1; stroke-width: 0;"/></g><g class="layer-below"><g class="imagelayer"/><g class="shapelayer"/></g><g class="cartesianlayer"><g class="subplot xy"><g class="layer-subplot"><g class="shapelayer"/><g class="imagelayer"/></g><g class="gridlayer"><g class="x"><path class="xgrid crisp" transform="translate(118.59,0)" d="M0,100v326" style="stroke: rgb(255, 255, 255); stroke-opacity: 1; stroke-width: 1px;"/><path class="xgrid crisp" transform="translate(230.52,0)" d="M0,100v326" style="stroke: rgb(255, 255, 255); stroke-opacity: 1; stroke-width: 1px;"/><path class="xgrid crisp" transform="translate(350.16,0)" d="M0,100v326" style="stroke: rgb(255, 255, 255); stroke-opacity: 1; stroke-width: 1px;"/><path class="xgrid crisp" transform="translate(465.94,0)" d="M0,100v326" style="stroke: rgb(255, 255, 255); stroke-opacity: 1; stroke-width: 1px;"/></g><g class="y"><path class="ygrid crisp" transform="translate(0,373.59)" d="M80,0h494" style="stroke: rgb(255, 255, 255); stroke-opacity: 1; stroke-width: 1px;"/><path class="ygrid crisp" transform="translate(0,321.16999999999996)" d="M80,0h494" style="stroke: rgb(255, 255, 255); stroke-opacity: 1; stroke-width: 1px;"/><path class="ygrid crisp" transform="translate(0,268.76)" d="M80,0h494" style="stroke: rgb(255, 255, 255); stroke-opacity: 1; stroke-width: 1px;"/><path class="ygrid crisp" transform="translate(0,216.35)" d="M80,0h494" style="stroke: rgb(255, 255, 255); stroke-opacity: 1; stroke-width: 1px;"/><path class="ygrid crisp" transform="translate(0,163.93)" d="M80,0h494" style="stroke: rgb(255, 255, 255); stroke-opacity: 1; stroke-width: 1px;"/><path class="ygrid crisp" transform="translate(0,111.52)" d="M80,0h494" style="stroke: rgb(255, 255, 255); stroke-opacity: 1; stroke-width: 1px;"/></g></g><g class="zerolinelayer"><path class="yzl zl crisp" transform="translate(0,426)" d="M80,0h494" style="stroke: rgb(255, 255, 255); stroke-opacity: 1; stroke-width: 2px;"/></g><path class="xlines-below"/><path class="ylines-below"/><g class="overlines-below"/><g class="xaxislayer-below"/><g class="yaxislayer-below"/><g class="overaxes-below"/><g class="plot" transform="translate(80, 100)" clip-path="url('#clip22b676xyplot')"><g class="scatterlayer mlayer"><g class="trace scatter trace5ec1d0" style="stroke-miterlimit: 2;"><g class="fills"><g><path class="js-fill" d="M494,326L0,326L0,326L104.2,325.25L108.06,325.16L235.42,321L239.28,320.52L258.58,318.46L262.44,317.66L277.88,314.49L281.73,313.44L293.31,310.64L297.17,309.14L324.19,299.65L328.05,298.03L351.2,289.22L355.06,287.71L358.92,285.07L362.78,283.61L374.36,278.93L378.22,276.76L382.08,273.33L385.94,271.32L428.39,248.23L432.25,245.35L439.97,240.71L443.83,237.77L451.55,232.86L455.41,230.17L463.13,224.42L466.98,218.78L486.28,203.45L490.14,200L494,195.94" style="fill: rgb(40, 167, 69); fill-opacity: 0.5; stroke-width: 0;"/></g><g><path class="js-fill" d="M0,326L96.48,325.34L100.34,325.24L196.83,322.06L200.69,321.92L239.28,319.53L243.14,319.1L262.44,315.6L266.3,314.66L289.45,307.75L293.31,306.1L308.75,299.34L312.61,298.02L324.19,292.29L328.05,290.29L355.06,277.57L358.92,274.6L374.36,267.37L378.22,264.84L382.08,261.12L385.94,258.82L397.52,252.37L401.38,250.19L409.09,245.04L412.95,242.81L416.81,239.78L420.67,237.85L451.55,216.19L455.41,213.25L463.13,206.99L466.98,201.07L486.28,184.83L490.14,181.14L494,176.84L494,195.94L490.14,200L486.28,203.45L466.98,218.78L463.13,224.42L455.41,230.17L451.55,232.86L443.83,237.77L439.97,240.71L432.25,245.35L428.39,248.23L385.94,271.32L382.08,273.33L378.22,276.76L374.36,278.93L362.78,283.61L358.92,285.07L355.06,287.71L351.2,289.22L328.05,298.03L324.19,299.65L297.17,309.14L293.31,310.64L281.73,313.44L277.88,314.49L262.44,317.66L258.58,318.46L239.28,320.52L235.42,321L108.06,325.16L104.2,325.25L0,326Z" style="fill: rgb(108, 117, 125); fill-opacity: 0.5; stroke-width: 0;"/></g></g><g class="errorbars"/><g class="lines"><path class="js-line" d="M0,326L104.2,325.25L108.06,325.16L235.42,321L239.28,320.52L258.58,318.46L262.44,317.66L277.88,314.49L281.73,313.44L293.31,310.64L297.17,309.14L324.19,299.65L328.05,298.03L351.2,289.22L355.06,287.71L358.92,285.07L362.78,283.61L374.36,278.93L378.22,276.76L382.08,273.33L385.94,271.32L428.39,248.23L432.25,245.35L439.97,240.71L443.83,237.77L451.55,232.86L455.41,230.17L463.13,224.42L466.98,218.78L486.28,203.45L490.14,200L494,195.94" style="vector-effect: non-scaling-stroke; fill: none; stroke: rgb(40, 167, 69); stroke-opacity: 1; stroke-width: 2px; opacity: 1;"/></g><g class="points"/><g class="text"/></g><g class="trace scatter trace55f463" style="stroke-miterlimit: 2;"><g class="fills"><g><path class="js-fill" d="M0,325.97L38.59,325.37L42.45,325.12L84.91,322.84L88.77,322.5L135.08,321.8L138.94,321.76L177.53,320.63L181.39,320.44L196.83,318.81L200.69,318.24L216.13,315.18L219.98,313.73L231.56,308.81L235.42,306.64L243.14,301.96L247,298.72L266.3,281.56L270.16,277.62L289.45,257.28L293.31,253.35L316.47,226.7L320.33,223.01L328.05,213.75L331.91,209.15L358.92,180.03L362.78,175.55L382.08,155.86L385.94,151.21L409.09,125.03L412.95,120.19L436.11,93.8L439.97,88.56L459.27,64.82L463.13,59.28L474.7,43.32L478.56,38.75L486.28,28.47L490.14,22.34L494,16.3L494,176.84L490.14,181.14L486.28,184.83L466.98,201.07L463.13,206.99L455.41,213.25L451.55,216.19L420.67,237.85L416.81,239.78L412.95,242.81L409.09,245.04L401.38,250.19L397.52,252.37L385.94,258.82L382.08,261.12L378.22,264.84L374.36,267.37L358.92,274.6L355.06,277.57L328.05,290.29L324.19,292.29L312.61,298.02L308.75,299.34L293.31,306.1L289.45,307.75L266.3,314.66L262.44,315.6L243.14,319.1L239.28,319.53L200.69,321.92L196.83,322.06L100.34,325.24L96.48,325.34L0,326Z" style="fill: rgb(255, 7, 58); fill-opacity: 0.5; stroke-width: 0;"/></g></g><g class="errorbars"/><g class="lines"><path class="js-line" d="M0,326L96.48,325.34L100.34,325.24L196.83,322.06L200.69,321.92L239.28,319.53L243.14,319.1L262.44,315.6L266.3,314.66L289.45,307.75L293.31,306.1L308.75,299.34L312.61,298.02L324.19,292.29L328.05,290.29L355.06,277.57L358.92,274.6L374.36,267.37L378.22,264.84L382.08,261.12L385.94,258.82L397.52,252.37L401.38,250.19L409.09,245.04L412.95,242.81L416.81,239.78L420.67,237.85L451.55,216.19L455.41,213.25L463.13,206.99L466.98,201.07L486.28,184.83L490.14,181.14L494,176.84" style="vector-effect: non-scaling-stroke; fill: none; stroke: rgb(108, 117, 125); stroke-opacity: 1; stroke-width: 2px; opacity: 1;"/></g><g class="points"/><g class="text"/></g><g class="trace scatter traced6cfd1" style="stroke-miterlimit: 2;"><g class="fills"/><g class="errorbars"/><g class="lines"><path class="js-line" d="M0,325.97L38.59,325.37L42.45,325.12L84.91,322.84L88.77,322.5L135.08,321.8L138.94,321.76L177.53,320.63L181.39,320.44L196.83,318.81L200.69,318.24L216.13,315.18L219.98,313.73L231.56,308.81L235.42,306.64L243.14,301.96L247,298.72L266.3,281.56L270.16,277.62L289.45,257.28L293.31,253.35L316.47,226.7L320.33,223.01L328.05,213.75L331.91,209.15L358.92,180.03L362.78,175.55L382.08,155.86L385.94,151.21L409.09,125.03L412.95,120.19L436.11,93.8L439.97,88.56L459.27,64.82L463.13,59.28L474.7,43.32L478.56,38.75L486.28,28.47L490.14,22.34L494,16.3" style="vector-effect: non-scaling-stroke; fill: none; stroke: rgb(255, 7, 58); stroke-opacity: 1; stroke-width: 2px; opacity: 1;"/></g><g class="points"/><g class="text"/></g></g></g><g class="overplot"/><path class="xlines-above crisp" style="fill: none;" d="M0,0"/><path class="ylines-above crisp" style="fill: none;" d="M0,0"/><g class="overlines-above"/><g class="xaxislayer-above"><g class="xtick"><text text-anchor="middle" x="0" y="439" transform="translate(118.59,0)" style="font-family: 'Open Sans', verdana, arial, sans-serif; font-size: 12px; fill: rgb(42, 63, 95); fill-opacity: 1; white-space: pre;">Feb 2020</text></g><g class="xtick"><text text-anchor="middle" x="0" y="439" transform="translate(230.52,0)" style="font-family: 'Open Sans', verdana, arial, sans-serif; font-size: 12px; fill: rgb(42, 63, 95); fill-opacity: 1; white-space: pre;">Mar 2020</text></g><g class="xtick"><text text-anchor="middle" x="0" y="439" transform="translate(350.16,0)" style="font-family: 'Open Sans', verdana, arial, sans-serif; font-size: 12px; fill: rgb(42, 63, 95); fill-opacity: 1; white-space: pre;">Apr 2020</text></g><g class="xtick"><text text-anchor="middle" x="0" y="439" transform="translate(465.94,0)" style="font-family: 'Open Sans', verdana, arial, sans-serif; font-size: 12px; fill: rgb(42, 63, 95); fill-opacity: 1; white-space: pre;">May 2020</text></g></g><g class="yaxislayer-above"><g class="ytick"><text text-anchor="end" x="79" y="4.199999999999999" transform="translate(0,426)" style="font-family: 'Open Sans', verdana, arial, sans-serif; font-size: 12px; fill: rgb(42, 63, 95); fill-opacity: 1; white-space: pre;">0</text></g><g class="ytick"><text text-anchor="end" x="79" y="4.199999999999999" transform="translate(0,373.59)" style="font-family: 'Open Sans', verdana, arial, sans-serif; font-size: 12px; fill: rgb(42, 63, 95); fill-opacity: 1; white-space: pre;">1M</text></g><g class="ytick"><text text-anchor="end" x="79" y="4.199999999999999" transform="translate(0,321.16999999999996)" style="font-family: 'Open Sans', verdana, arial, sans-serif; font-size: 12px; fill: rgb(42, 63, 95); fill-opacity: 1; white-space: pre;">2M</text></g><g class="ytick"><text text-anchor="end" x="79" y="4.199999999999999" transform="translate(0,268.76)" style="font-family: 'Open Sans', verdana, arial, sans-serif; font-size: 12px; fill: rgb(42, 63, 95); fill-opacity: 1; white-space: pre;">3M</text></g><g class="ytick"><text text-anchor="end" x="79" y="4.199999999999999" transform="translate(0,216.35)" style="font-family: 'Open Sans', verdana, arial, sans-serif; font-size: 12px; fill: rgb(42, 63, 95); fill-opacity: 1; white-space: pre;">4M</text></g><g class="ytick"><text text-anchor="end" x="79" y="4.199999999999999" transform="translate(0,163.93)" style="font-family: 'Open Sans', verdana, arial, sans-serif; font-size: 12px; fill: rgb(42, 63, 95); fill-opacity: 1; white-space: pre;">5M</text></g><g class="ytick"><text text-anchor="end" x="79" y="4.199999999999999" transform="translate(0,111.52)" style="font-family: 'Open Sans', verdana, arial, sans-serif; font-size: 12px; fill: rgb(42, 63, 95); fill-opacity: 1; white-space: pre;">6M</text></g></g><g class="overaxes-above"/></g></g><g class="polarlayer"/><g class="ternarylayer"/><g class="geolayer"/><g class="funnelarealayer"/><g class="pielayer"/><g class="treemaplayer"/><g class="sunburstlayer"/><g class="glimages"/><defs id="topdefs-22b676"><g class="clips"/><clipPath id="legend22b676"><rect width="104" height="83" x="0" y="0"/></clipPath><clipPath id="rangesliderx-22b676"><rect x="0" y="0" width="494" height="63"/></clipPath></defs><g class="layer-above"><g class="imagelayer"/><g class="shapelayer"/></g><g class="infolayer"><g class="legend" pointer-events="all" transform="translate(583.88, 100)"><rect class="bg" shape-rendering="crispEdges" style="stroke: rgb(68, 68, 68); stroke-opacity: 1; fill: rgb(255, 255, 255); fill-opacity: 1; stroke-width: 0px;" width="104" height="83" x="0" y="0"/><g class="scrollbox" transform="translate(0, 0)" clip-path="url('#legend22b676')"><text class="legendtitletext user-select-none" text-anchor="start" x="2" y="15.600000000000001" style="font-family: 'Open Sans', verdana, arial, sans-serif; font-size: 12px; fill: rgb(42, 63, 95); fill-opacity: 1; white-space: pre;">Case</text><g class="groups" transform="translate(0, 0)"><g class="traces" transform="translate(0, 30.1)" style="opacity: 1;"><text class="legendtext user-select-none" text-anchor="start" x="40" y="4.680000000000001" style="font-family: 'Open Sans', verdana, arial, sans-serif; font-size: 12px; fill: rgb(42, 63, 95); fill-opacity: 1; white-space: pre;">Recovered</text><g class="layers"><g class="legendfill"><path class="js-fill" d="M5,-2h30v6h-30z" style="stroke-width: 0; fill: rgb(40, 167, 69); fill-opacity: 0.5;"/></g><g class="legendlines"><path class="js-line" d="M5,-2h30" style="fill: none; stroke: rgb(40, 167, 69); stroke-opacity: 1; stroke-width: 2px;"/></g><g class="legendsymbols"><g class="legendpoints"/></g></g><rect class="legendtoggle" pointer-events="all" x="0" y="-9.5" width="98.03125" height="19" style="cursor: pointer; fill: rgb(0, 0, 0); fill-opacity: 0;"/></g></g><g class="groups" transform="translate(0, 0)"><g class="traces" transform="translate(0, 49.1)" style="opacity: 1;"><text class="legendtext user-select-none" text-anchor="start" x="40" y="4.680000000000001" style="font-family: 'Open Sans', verdana, arial, sans-serif; font-size: 12px; fill: rgb(42, 63, 95); fill-opacity: 1; white-space: pre;">Deaths</text><g class="layers"><g class="legendfill"><path class="js-fill" d="M5,-2h30v6h-30z" style="stroke-width: 0; fill: rgb(108, 117, 125); fill-opacity: 0.5;"/></g><g class="legendlines"><path class="js-line" d="M5,-2h30" style="fill: none; stroke: rgb(108, 117, 125); stroke-opacity: 1; stroke-width: 2px;"/></g><g class="legendsymbols"><g class="legendpoints"/></g></g><rect class="legendtoggle" pointer-events="all" x="0" y="-9.5" width="98.03125" height="19" style="cursor: pointer; fill: rgb(0, 0, 0); fill-opacity: 0;"/></g></g><g class="groups" transform="translate(0, 0)"><g class="traces" transform="translate(0, 68.1)" style="opacity: 1;"><text class="legendtext user-select-none" text-anchor="start" x="40" y="4.680000000000001" style="font-family: 'Open Sans', verdana, arial, sans-serif; font-size: 12px; fill: rgb(42, 63, 95); fill-opacity: 1; white-space: pre;">Active</text><g class="layers"><g class="legendfill"><path class="js-fill" d="M5,-2h30v6h-30z" style="stroke-width: 0; fill: rgb(255, 7, 58); fill-opacity: 0.5;"/></g><g class="legendlines"><path class="js-line" d="M5,-2h30" style="fill: none; stroke: rgb(255, 7, 58); stroke-opacity: 1; stroke-width: 2px;"/></g><g class="legendsymbols"><g class="legendpoints"/></g></g><rect class="legendtoggle" pointer-events="all" x="0" y="-9.5" width="98.03125" height="19" style="cursor: pointer; fill: rgb(0, 0, 0); fill-opacity: 0;"/></g></g></g><rect class="scrollbar" rx="20" ry="3" width="0" height="0" x="0" y="0" style="fill: rgb(128, 139, 164); fill-opacity: 1;"/></g><g class="g-gtitle"><text class="gtitle" x="35" y="50" text-anchor="start" dy="0em" style="font-family: 'Open Sans', verdana, arial, sans-serif; font-size: 17px; fill: rgb(42, 63, 95); opacity: 1; font-weight: normal; white-space: pre;">Cases over time</text></g><g class="rangeslider-container" pointer-events="all" transform="translate(80,457)"><rect class="rangeslider-bg" x="0" y="0" shape-rendering="crispEdges" width="494" height="63" transform="translate(0,0)" fill="#E5ECF6" stroke="#444" stroke-width="0"/><g class="rangeslider-rangeplot xy" clip-path="url('#rangesliderx-22b676')"><g class="layer-subplot"><g class="shapelayer"/><g class="imagelayer"/></g><g class="gridlayer"><g class="x"/><g class="y"/></g><g class="zerolinelayer"/><path class="xlines-below"/><path class="ylines-below"/><g class="overlines-below"/><g class="xaxislayer-below"/><g class="yaxislayer-below"/><g class="overaxes-below"/><g class="plot"><g class="scatterlayer mlayer rangeplot"><g class="trace scatter trace5ec1d0" style="stroke-miterlimit: 2;"><g class="fills"><g><path class="js-fill" d="M494,63L0,63L0,63L200.69,62.27L204.55,62.24L266.3,61.25L270.16,61.1L320.33,58.28L324.19,57.91L385.94,52.43L389.8,52.02L420.67,48.83L424.53,48.35L451.55,45L455.41,44.48L490.14,38.65L494,37.87" style="fill: rgb(40, 167, 69); fill-opacity: 0.5; stroke-width: 0;"/></g><g><path class="js-fill" d="M0,63L192.97,62.26L196.83,62.24L262.44,60.99L266.3,60.81L312.61,57.59L316.47,57.26L370.5,52.07L374.36,51.67L463.13,40L466.98,38.86L494,34.17L494,37.87L490.14,38.65L455.41,44.48L451.55,45L424.53,48.35L420.67,48.83L389.8,52.02L385.94,52.43L324.19,57.91L320.33,58.28L270.16,61.1L266.3,61.25L204.55,62.24L200.69,62.27L0,63Z" style="fill: rgb(108, 117, 125); fill-opacity: 0.5; stroke-width: 0;"/></g></g><g class="errorbars"/><g class="lines"><path class="js-line" d="M0,63L200.69,62.27L204.55,62.24L266.3,61.25L270.16,61.1L320.33,58.28L324.19,57.91L385.94,52.43L389.8,52.02L420.67,48.83L424.53,48.35L451.55,45L455.41,44.48L490.14,38.65L494,37.87" style="vector-effect: non-scaling-stroke; fill: none; stroke: rgb(40, 167, 69); stroke-opacity: 1; stroke-width: 2px; opacity: 1;"/></g><g class="points"/><g class="text"/></g><g class="trace scatter trace55f463" style="stroke-miterlimit: 2;"><g class="fills"><g><path class="js-fill" d="M0,62.99L104.2,62.24L108.06,62.23L200.69,61.5L204.55,61.39L231.56,59.68L235.42,59.26L250.86,57.08L254.72,56.4L274.02,52.83L277.88,52L432.25,19.09L436.11,18.13L494,3.15L494,34.17L466.98,38.86L463.13,40L374.36,51.67L370.5,52.07L316.47,57.26L312.61,57.59L266.3,60.81L262.44,60.99L196.83,62.24L192.97,62.26L0,63Z" style="fill: rgb(255, 7, 58); fill-opacity: 0.5; stroke-width: 0;"/></g></g><g class="errorbars"/><g class="lines"><path class="js-line" d="M0,63L192.97,62.26L196.83,62.24L262.44,60.99L266.3,60.81L312.61,57.59L316.47,57.26L370.5,52.07L374.36,51.67L463.13,40L466.98,38.86L494,34.17" style="vector-effect: non-scaling-stroke; fill: none; stroke: rgb(108, 117, 125); stroke-opacity: 1; stroke-width: 2px; opacity: 1;"/></g><g class="points"/><g class="text"/></g><g class="trace scatter traced6cfd1" style="stroke-miterlimit: 2;"><g class="fills"/><g class="errorbars"/><g class="lines"><path class="js-line" d="M0,62.99L104.2,62.24L108.06,62.23L200.69,61.5L204.55,61.39L231.56,59.68L235.42,59.26L250.86,57.08L254.72,56.4L274.02,52.83L277.88,52L432.25,19.09L436.11,18.13L494,3.15" style="vector-effect: non-scaling-stroke; fill: none; stroke: rgb(255, 7, 58); stroke-opacity: 1; stroke-width: 2px; opacity: 1;"/></g><g class="points"/><g class="text"/></g></g></g><g class="overplot"/><path class="xlines-above crisp" style="fill: none;"/><path class="ylines-above crisp" style="fill: none;"/><g class="overlines-above"/><g class="xaxislayer-above"/><g class="yaxislayer-above"/><g class="overaxes-above"/></g><rect class="rangeslider-mask-min" x="0" y="0" shape-rendering="crispEdges" height="63" width="0" style="fill: rgb(0, 0, 0); fill-opacity: 0.4;"/><rect class="rangeslider-mask-max" y="0" shape-rendering="crispEdges" height="63" x="494" width="0" style="fill: rgb(0, 0, 0); fill-opacity: 0.4;"/><g class="rangeslider-grabber-min" transform="translate(-2.5,0.5)"><rect class="rangeslider-handle-min" x="0" width="4" rx="1" fill="#fff" stroke="#444" stroke-width="1" shape-rendering="crispEdges" y="16" height="32"/></g><g class="rangeslider-grabber-max" transform="translate(492.5,0.5)"><rect class="rangeslider-handle-max" x="0" width="4" rx="1" fill="#fff" stroke="#444" stroke-width="1" shape-rendering="crispEdges" y="16" height="32"/></g></g><g class="g-ytitle"><text class="ytitle" transform="rotate(-90,37.528125,263)" x="37.528125" y="263" text-anchor="middle" style="font-family: 'Open Sans', verdana, arial, sans-serif; font-size: 14px; fill: rgb(42, 63, 95); opacity: 1; font-weight: normal; white-space: pre;">Count</text></g><g class="g-xtitle"><text class="xtitle" x="327" y="551" text-anchor="middle" style="font-family: 'Open Sans', verdana, arial, sans-serif; font-size: 14px; fill: rgb(42, 63, 95); opacity: 1; font-weight: normal; white-space: pre;">Date</text></g></g></svg>