<svg class="main-svg" xmlns="http://www.w3.org/2000/svg" xmlns:xlink="http://www.w3.org/1999/xlink" width="700" height="600" style="" viewBox="0 0 700 600"><rect x="0" y="0" width="700" height="600" style="fill: rgb(255, 255, 255); fill-opacity: 1;"/><defs id="defs-312a00"><g class="clips"><clipPath id="clip312a00xyplot" class="plotclip"><rect width="494" height="326"/></clipPath><clipPath class="axesclip" id="clip312a00x"><rect x="80" y="0" width="494" height="600"/></clipPath><clipPath class="axesclip" id="clip312a00y"><rect x="0" y="100" width="700" height="326"/></clipPath><clipPath class="axesclip" id="clip312a00xy"><rect x="80" y="100" width="494" height="326"/></clipPath></g><g class="gradients"/></defs><g class="bglayer"><rect class="bg" x="80" y="100" width="494" height="326" style="fill: rgb(229, 236, 246); fill-opacity: 1; stroke-width: 0;"/></g><g class="layer-below"><g class="imagelayer"/><g class="shapelayer"/></g><g class="cartesianlayer"><g class="subplot xy"><g class="layer-subplot"><g class="shapelayer"/><g class="imagelayer"/></g><g class="gridlayer"><g class="x"><path class="xgrid crisp" transform="translate(116.59,0)" d="M0,100v326" style="stroke: rgb(255, 255, 255); stroke-opacity: 1; stroke-width: 1px;"/><path class="xgrid crisp" transform="translate(222.71,0)" d="M0,100v326" style="stroke: rgb(255, 255, 255); stroke-opacity: 1; stroke-width: 1px;"/><path class="xgrid crisp" transform="translate(336.15,0)" d="M0,100v326" style="stroke: rgb(255, 255, 255); stroke-opacity: 1; stroke-width: 1px;"/><path class="xgrid crisp" transform="translate(445.93,0)" d="M0,100v326" style="stroke: rgb(255, 255, 255); stroke-opacity: 1; stroke-width: 1px;"/><path class="xgrid crisp" transform="translate(559.36,0)" d="M0,100v326" style="stroke: rgb(255, 255, 255); stroke-opacity: 1; stroke-width: 1px;"/></g><g class="y"><path class="ygrid crisp" transform="translate(0,379.9)" d="M80,0h494" style="stroke: rgb(255, 255, 255); stroke-opacity: 1; stroke-width: 1px;"/><path class="ygrid crisp" transform="translate(0,333.78999999999996)" d="M80,0h494" style="stroke: rgb(255, 255, 255); stroke-opacity: 1; stroke-width: 1px;"/><path class="ygrid crisp" transform="translate(0,287.69)" d="M80,0h494" style="stroke: rgb(255, 255, 255); stroke-opacity: 1; stroke-width: 1px;"/><path class="ygrid crisp" transform="translate(0,241.58)" d="M80,0h494" style="stroke: rgb(255, 255, 255); stroke-opacity: 1; stroke-width: 1px;"/><path class="ygrid crisp" transform="translate(0,195.48000000000002)" d="M80,0h494" style="stroke: rgb(255, 255, 255); stroke-opacity: 1; stroke-width: 1px;"/><path class="ygrid crisp" transform="translate(0,149.37)" d="M80,0h494" style="stroke: rgb(255, 255, 255); stroke-opacity: 1; stroke-width: 1px;"/><path class="ygrid crisp" transform="translate(0,103.27)" d="M80,0h494" style="stroke: rgb(255, 255, 255); stroke-opacity: 1; stroke-width: 1px;"/></g></g><g class="zerolinelayer"><path class="yzl zl crisp" transform="translate(0,426)" d="M80,0h494" style="stroke: rgb(255, 255, 255); stroke-opacity: 1; stroke-width: 2px;"/></g><path class="xlines-below"/><path class="ylines-below"/><g class="overlines-below"/><g class="xaxislayer-below"/><g class="yaxislayer-below"/><g class="overaxes-below"/><g class="plot" transform="translate(80, 100)" clip-path="url('#clip312a00xyplot')"><g class="scatterlayer mlayer"><g class="trace scatter trace5a4d7b" style="stroke-miterlimit: 2;"><g class="fills"><g><path class="js-fill" d="M494,326L0,326L0,326L102.46,325.26L106.12,325.16L139.05,324.17L142.71,324.03L234.19,320.56L237.85,320.17L252.49,318.05L256.15,317.37L278.1,312.5L281.76,311.18L307.38,302.84L311.04,301.42L336.65,292.35L340.31,290.04L354.95,284.64L358.61,282.74L362.27,279.72L365.93,277.95L376.9,273.01L380.56,271.35L395.2,263.25L398.86,261.71L431.79,241.94L435.45,239.24L439.11,236.87L442.77,231.91L461.07,218.43L464.73,215.4L475.7,205.03L479.36,202.51L486.68,194.08L490.34,190.85L494,199.99" style="fill: rgb(40, 167, 69); fill-opacity: 0.5; stroke-width: 0;"/></g><g><path class="js-fill" d="M0,326L98.8,325.25L102.46,325.16L212.24,321.52L215.9,321.24L237.85,318.88L241.51,318.34L252.49,316.02L256.15,315.08L278.1,308.51L281.76,306.88L307.38,296.37L311.04,294.61L336.65,283.43L340.31,280.83L354.95,274.47L358.61,272.25L362.27,268.97L365.93,266.96L376.9,261.42L380.56,259.5L387.88,255.02L391.54,253.06L395.2,250.39L398.86,248.69L428.13,229.64L431.79,227.05L439.11,221.54L442.77,216.34L461.07,202.05L464.73,198.81L475.7,187.89L479.36,185.22L486.68,176.31L490.34,172.84L494,181.81L494,199.99L490.34,190.85L486.68,194.08L479.36,202.51L475.7,205.03L464.73,215.4L461.07,218.43L442.77,231.91L439.11,236.87L435.45,239.24L431.79,241.94L398.86,261.71L395.2,263.25L380.56,271.35L376.9,273.01L365.93,277.95L362.27,279.72L358.61,282.74L354.95,284.64L340.31,290.04L336.65,292.35L311.04,301.42L307.38,302.84L281.76,311.18L278.1,312.5L256.15,317.37L252.49,318.05L237.85,320.17L234.19,320.56L142.71,324.03L139.05,324.17L106.12,325.16L102.46,325.26L0,326Z" style="fill: rgb(108, 117, 125); fill-opacity: 0.5; stroke-width: 0;"/></g></g><g class="errorbars"/><g class="lines"><path class="js-line" d="M0,326L102.46,325.26L106.12,325.16L139.05,324.17L142.71,324.03L234.19,320.56L237.85,320.17L252.49,318.05L256.15,317.37L278.1,312.5L281.76,311.18L307.38,302.84L311.04,301.42L336.65,292.35L340.31,290.04L354.95,284.64L358.61,282.74L362.27,279.72L365.93,277.95L376.9,273.01L380.56,271.35L395.2,263.25L398.86,261.71L431.79,241.94L435.45,239.24L439.11,236.87L442.77,231.91L461.07,218.43L464.73,215.4L475.7,205.03L479.36,202.51L486.68,194.08L490.34,190.85L494,199.99" style="vector-effect: non-scaling-stroke; fill: none; stroke: rgb(40, 167, 69); stroke-opacity: 1; stroke-width: 2px; opacity: 1;"/></g><g class="points"/><g class="text"/></g><g class="trace scatter trace7c18ae" style="stroke-miterlimit: 2;"><g class="fills"><g><path class="js-fill" d="M0,325.97L40.25,325.23L43.91,325.08L106.12,322.49L109.78,322.47L175.64,320.88L179.3,320.55L190.28,319.18L193.94,318.65L204.92,316.48L208.58,315.21L219.56,310.88L223.21,308.97L230.53,304.85L234.19,302L252.49,286.91L256.15,283.44L292.74,246.43L296.4,241.88L307.38,231.71L311.04,227.27L322.01,215.81L325.67,212.52L340.31,197.6L343.97,193.66L362.27,176.34L365.93,172.25L387.88,149.22L391.54,144.96L417.16,117.14L420.81,112.93L428.13,105.21L431.79,100.82L464.73,58.89L468.39,53.28L475.7,42.41L479.36,37.86L486.68,26.68L490.34,20.95L494,16.3L494,181.81L490.34,172.84L486.68,176.31L479.36,185.22L475.7,187.89L464.73,198.81L461.07,202.05L442.77,216.34L439.11,221.54L431.79,227.05L428.13,229.64L398.86,248.69L395.2,250.39L391.54,253.06L387.88,255.02L380.56,259.5L376.9,261.42L365.93,266.96L362.27,268.97L358.61,272.25L354.95,274.47L340.31,280.83L336.65,283.43L311.04,294.61L307.38,296.37L281.76,306.88L278.1,308.51L256.15,315.08L252.49,316.02L241.51,318.34L237.85,318.88L215.9,321.24L212.24,321.52L102.46,325.16L98.8,325.25L0,326Z" style="fill: rgb(255, 7, 58); fill-opacity: 0.5; stroke-width: 0;"/></g></g><g class="errorbars"/><g class="lines"><path class="js-line" d="M0,326L98.8,325.25L102.46,325.16L212.24,321.52L215.9,321.24L237.85,318.88L241.51,318.34L252.49,316.02L256.15,315.08L278.1,308.51L281.76,306.88L307.38,296.37L311.04,294.61L336.65,283.43L340.31,280.83L354.95,274.47L358.61,272.25L362.27,268.97L365.93,266.96L376.9,261.42L380.56,259.5L387.88,255.02L391.54,253.06L395.2,250.39L398.86,248.69L428.13,229.64L431.79,227.05L439.11,221.54L442.77,216.34L461.07,202.05L464.73,198.81L475.7,187.89L479.36,185.22L486.68,176.31L490.34,172.84L494,181.81" style="vector-effect: non-scaling-stroke; fill: none; stroke: rgb(108, 117, 125); stroke-opacity: 1; stroke-width: 2px; opacity: 1;"/></g><g class="points"/><g class="text"/></g><g class="trace scatter traceb93f1b" style="stroke-miterlimit: 2;"><g class="fills"/><g class="errorbars"/><g class="lines"><path class="js-line" d="M0,325.97L40.25,325.23L43.91,325.08L106.12,322.49L109.78,322.47L175.64,320.88L179.3,320.55L190.28,319.18L193.94,318.65L204.92,316.48L208.58,315.21L219.56,310.88L223.21,308.97L230.53,304.85L234.19,302L252.49,286.91L256.15,283.44L292.74,246.43L296.4,241.88L307.38,231.71L311.04,227.27L322.01,215.81L325.67,212.52L340.31,197.6L343.97,193.66L362.27,176.34L365.93,172.25L387.88,149.22L391.54,144.96L417.16,117.14L420.81,112.93L428.13,105.21L431.79,100.82L464.73,58.89L468.39,53.28L475.7,42.41L479.36,37.86L486.68,26.68L490.34,20.95L494,16.3" style="vector-effect: non-scaling-stroke; fill: none; stroke: rgb(255, 7, 58); stroke-opacity: 1; stroke-width: 2px; opacity: 1;"/></g><g class="points"/><g class="text"/></g></g></g><g class="overplot"/><path class="xlines-above crisp" d="M0,0" style="fill: none;"/><path class="ylines-above crisp" d="M0,0" style="fill: none;"/><g class="overlines-above"/><g class="xaxislayer-above"><g class="xtick"><text text-anchor="middle" x="0" y="439" transform="translate(116.59,0)" style="font-family: 'Open Sans', verdana, arial, sans-serif; font-size: 12px; fill: rgb(42, 63, 95); fill-opacity: 1; white-space: pre;">Feb 2020</text></g><g class="xtick"><text text-anchor="middle" x="0" y="439" transform="translate(222.71,0)" style="font-family: 'Open Sans', verdana, arial, sans-serif; font-size: 12px; fill: rgb(42, 63, 95); fill-opacity: 1; white-space: pre;">Mar 2020</text></g><g class="xtick"><text text-anchor="middle" x="0" y="439" transform="translate(336.15,0)" style="font-family: 'Open Sans', verdana, arial, sans-serif; font-size: 12px; fill: rgb(42, 63, 95); fill-opacity: 1; white-space: pre;">Apr 2020</text></g><g class="xtick"><text text-anchor="middle" x="0" y="439" transform="translate(445.93,0)" style="font-family: 'Open Sans', verdana, arial, sans-serif; font-size: 12px; fill: rgb(42, 63, 95); fill-opacity: 1; white-space: pre;">May 2020</text></g><g class="xtick"><text text-anchor="middle" x="0" y="439" transform="translate(559.36,0)" style="font-family: 'Open Sans', verdana, arial, sans-serif; font-size: 12px; fill: rgb(42, 63, 95); fill-opacity: 1; white-space: pre;">Jun 2020</text></g></g><g class="yaxislayer-above"><g class="ytick"><text text-anchor="end" x="79" y="4.199999999999999" transform="translate(0,426)" style="font-family: 'Open Sans', verdana, arial, sans-serif; font-size: 12px; fill: rgb(42, 63, 95); fill-opacity: 1; white-space: pre;">0</text></g><g class="ytick"><text text-anchor="end" x="79" y="4.199999999999999" transform="translate(0,379.9)" style="font-family: 'Open Sans', verdana, arial, sans-serif; font-size: 12px; fill: rgb(42, 63, 95); fill-opacity: 1; white-space: pre;">1M</text></g><g class="ytick"><text text-anchor="end" x="79" y="4.199999999999999" transform="translate(0,333.78999999999996)" style="font-family: 'Open Sans', verdana, arial, sans-serif; font-size: 12px; fill: rgb(42, 63, 95); fill-opacity: 1; white-space: pre;">2M</text></g><g class="ytick"><text text-anchor="end" x="79" y="4.199999999999999" transform="translate(0,287.69)" style="font-family: 'Open Sans', verdana, arial, sans-serif; font-size: 12px; fill: rgb(42, 63, 95); fill-opacity: 1; white-space: pre;">3M</text></g><g class="ytick"><text text-anchor="end" x="79" y="4.199999999999999" transform="translate(0,241.58)" style="font-family: 'Open Sans', verdana, arial, sans-serif; font-size: 12px; fill: rgb(42, 63, 95); fill-opacity: 1; white-space: pre;">4M</text></g><g class="ytick"><text text-anchor="end" x="79" y="4.199999999999999" transform="translate(0,195.48000000000002)" style="font-family: 'Open Sans', verdana, arial, sans-serif; font-size: 12px; fill: rgb(42, 63, 95); fill-opacity: 1; white-space: pre;">5M</text></g><g class="ytick"><text text-anchor="end" x="79" y="4.199999999999999" transform="translate(0,149.37)" style="font-family: 'Open Sans', verdana, arial, sans-serif; font-size: 12px; fill: rgb(42, 63, 95); fill-opacity: 1; white-space: pre;">6M</text></g><g class="ytick"><text text-anchor="end" x="79" y="4.199999999999999" transform="translate(0,103.27)" style="font-family: 'Open Sans', verdana, arial, sans-serif; font-size: 12px; fill: rgb(42, 63, 95); fill-opacity: 1; white-space: pre;">7M</text></g></g><g class="overaxes-above"/></g></g><g class="polarlayer"/><g class="ternarylayer"/><g class="geolayer"/><g class="funnelarealayer"/><g class="pielayer"/><g class="treemaplayer"/><g class="sunburstlayer"/><g class="glimages"/><defs id="topdefs-312a00"><g class="clips"/><clipPath id="legend312a00"><rect width="104" height="83" x="0" y="0"/></clipPath><clipPath id="rangesliderx-312a00"><rect x="0" y="0" width="494" height="63"/></clipPath></defs><g class="layer-above"><g class="imagelayer"/><g class="shapelayer"/></g><g class="infolayer"><g class="legend" pointer-events="all" transform="translate(583.88, 100)"><rect class="bg" shape-rendering="crispEdges" width="104" height="83" x="0" y="0" style="stroke: rgb(68, 68, 68); stroke-opacity: 1; fill: rgb(255, 255, 255); fill-opacity: 1; stroke-width: 0px;"/><g class="scrollbox" transform="translate(0, 0)" clip-path="url('#legend312a00')"><text class="legendtitletext user-select-none" text-anchor="start" x="2" y="15.600000000000001" style="font-family: 'Open Sans', verdana, arial, sans-serif; font-size: 12px; fill: rgb(42, 63, 95); fill-opacity: 1; white-space: pre;">Case</text><g class="groups" transform="translate(0, 0)"><g class="traces" transform="translate(0, 30.1)" style="opacity: 1;"><text class="legendtext user-select-none" text-anchor="start" x="40" y="4.680000000000001" style="font-family: 'Open Sans', verdana, arial, sans-serif; font-size: 12px; fill: rgb(42, 63, 95); fill-opacity: 1; white-space: pre;">Recovered</text><g class="layers"><g class="legendfill"><path class="js-fill" d="M5,-2h30v6h-30z" style="stroke-width: 0; fill: rgb(40, 167, 69); fill-opacity: 0.5;"/></g><g class="legendlines"><path class="js-line" d="M5,-2h30" style="fill: none; stroke: rgb(40, 167, 69); stroke-opacity: 1; stroke-width: 2px;"/></g><g class="legendsymbols"><g class="legendpoints"/></g></g><rect class="legendtoggle" pointer-events="all" x="0" y="-9.5" width="98.03125" height="19" style="cursor: pointer; fill: rgb(0, 0, 0); fill-opacity: 0;"/></g></g><g class="groups" transform="translate(0, 0)"><g class="traces" transform="translate(0, 49.1)" style="opacity: 1;"><text class="legendtext user-select-none" text-anchor="start" x="40" y="4.680000000000001" style="font-family: 'Open Sans', verdana, arial, sans-serif; font-size: 12px; fill: rgb(42, 63, 95); fill-opacity: 1; white-space: pre;">Deaths</text><g class="layers"><g class="legendfill"><path class="js-fill" d="M5,-2h30v6h-30z" style="stroke-width: 0; fill: rgb(108, 117, 125); fill-opacity: 0.5;"/></g><g class="legendlines"><path class="js-line" d="M5,-2h30" style="fill: none; stroke: rgb(108, 117, 125); stroke-opacity: 1; stroke-width: 2px;"/></g><g class="legendsymbols"><g class="legendpoints"/></g></g><rect class="legendtoggle" pointer-events="all" x="0" y="-9.5" width="98.03125" height="19" style="cursor: pointer; fill: rgb(0, 0, 0); fill-opacity: 0;"/></g></g><g class="groups" transform="translate(0, 0)"><g class="traces" transform="translate(0, 68.1)" style="opacity: 1;"><text class="legendtext user-select-none" text-anchor="start" x="40" y="4.680000000000001" style="font-family: 'Open Sans', verdana, arial, sans-serif; font-size: 12px; fill: rgb(42, 63, 95); fill-opacity: 1; white-space: pre;">Active</text><g class="layers"><g class="legendfill"><path class="js-fill" d="M5,-2h30v6h-30z" style="stroke-width: 0; fill: rgb(255, 7, 58); fill-opacity: 0.5;"/></g><g class="legendlines"><path class="js-line" d="M5,-2h30" style="fill: none; stroke: rgb(255, 7, 58); stroke-opacity: 1; stroke-width: 2px;"/></g><g class="legendsymbols"><g class="legendpoints"/></g></g><rect class="legendtoggle" pointer-events="all" x="0" y="-9.5" width="98.03125" height="19" style="cursor: pointer; fill: rgb(0, 0, 0); fill-opacity: 0;"/></g></g></g><rect class="scrollbar" rx="20" ry="3" width="0" height="0" x="0" y="0" style="fill: rgb(128, 139, 164); fill-opacity: 1;"/></g><g class="g-gtitle"><text class="gtitle" x="35" y="50" text-anchor="start" dy="0em" style="font-family: 'Open Sans', verdana, arial, sans-serif; font-size: 17px; fill: rgb(42, 63, 95); opacity: 1; font-weight: normal; white-space: pre;">Cases over time</text></g><g class="rangeslider-container" pointer-events="all" transform="translate(80,457)"><rect class="rangeslider-bg" x="0" y="0" shape-rendering="crispEdges" width="494" height="63" transform="translate(0,0)" fill="#E5ECF6" stroke="#444" stroke-width="0"/><g class="rangeslider-rangeplot xy" clip-path="url('#rangesliderx-312a00')"><g class="layer-subplot"><g class="shapelayer"/><g class="imagelayer"/></g><g class="gridlayer"><g class="x"/><g class="y"/></g><g class="zerolinelayer"/><path class="xlines-below"/><path class="ylines-below"/><g class="overlines-below"/><g class="xaxislayer-below"/><g class="yaxislayer-below"/><g class="overaxes-below"/><g class="plot"><g class="scatterlayer mlayer rangeplot"><g class="trace scatter trace5a4d7b" style="stroke-miterlimit: 2;"><g class="fills"><g><path class="js-fill" d="M494,63L0,63L0,63L208.58,62.26L212.24,62.23L259.81,61.18L263.47,61.05L325.67,57.33L329.33,57.02L373.24,53.07L376.9,52.76L417.16,48.55L420.81,48.05L439.11,45.78L442.77,44.82L479.36,39.14L483.02,38.22L490.34,36.88L494,38.65" style="fill: rgb(40, 167, 69); fill-opacity: 0.5; stroke-width: 0;"/></g><g><path class="js-fill" d="M0,63L197.6,62.25L201.26,62.22L252.49,61.07L256.15,60.89L303.72,57.67L307.38,57.27L387.88,49.28L391.54,48.9L461.07,39.05L464.73,38.42L490.34,33.4L494,35.13L494,38.65L490.34,36.88L483.02,38.22L479.36,39.14L442.77,44.82L439.11,45.78L420.81,48.05L417.16,48.55L376.9,52.76L373.24,53.07L329.33,57.02L325.67,57.33L263.47,61.05L259.81,61.18L212.24,62.23L208.58,62.26L0,63Z" style="fill: rgb(108, 117, 125); fill-opacity: 0.5; stroke-width: 0;"/></g></g><g class="errorbars"/><g class="lines"><path class="js-line" d="M0,63L208.58,62.26L212.24,62.23L259.81,61.18L263.47,61.05L325.67,57.33L329.33,57.02L373.24,53.07L376.9,52.76L417.16,48.55L420.81,48.05L439.11,45.78L442.77,44.82L479.36,39.14L483.02,38.22L490.34,36.88L494,38.65" style="vector-effect: non-scaling-stroke; fill: none; stroke: rgb(40, 167, 69); stroke-opacity: 1; stroke-width: 2px; opacity: 1;"/></g><g class="points"/><g class="text"/></g><g class="trace scatter trace7c18ae" style="stroke-miterlimit: 2;"><g class="fills"><g><path class="js-fill" d="M0,63L186.62,61.78L190.28,61.68L215.9,60.36L219.56,60.08L241.51,57.19L245.17,56.67L267.13,52.61L270.79,51.96L303.72,45.49L307.38,44.78L329.33,40.38L332.99,39.71L435.45,18.6L439.11,17.66L494,3.15L494,35.13L490.34,33.4L464.73,38.42L461.07,39.05L391.54,48.9L387.88,49.28L307.38,57.27L303.72,57.67L256.15,60.89L252.49,61.07L201.26,62.22L197.6,62.25L0,63Z" style="fill: rgb(255, 7, 58); fill-opacity: 0.5; stroke-width: 0;"/></g></g><g class="errorbars"/><g class="lines"><path class="js-line" d="M0,63L197.6,62.25L201.26,62.22L252.49,61.07L256.15,60.89L303.72,57.67L307.38,57.27L387.88,49.28L391.54,48.9L461.07,39.05L464.73,38.42L490.34,33.4L494,35.13" style="vector-effect: non-scaling-stroke; fill: none; stroke: rgb(108, 117, 125); stroke-opacity: 1; stroke-width: 2px; opacity: 1;"/></g><g class="points"/><g class="text"/></g><g class="trace scatter traceb93f1b" style="stroke-miterlimit: 2;"><g class="fills"/><g class="errorbars"/><g class="lines"><path class="js-line" d="M0,63L186.62,61.78L190.28,61.68L215.9,60.36L219.56,60.08L241.51,57.19L245.17,56.67L267.13,52.61L270.79,51.96L303.72,45.49L307.38,44.78L329.33,40.38L332.99,39.71L435.45,18.6L439.11,17.66L494,3.15" style="vector-effect: non-scaling-stroke; fill: none; stroke: rgb(255, 7, 58); stroke-opacity: 1; stroke-width: 2px; opacity: 1;"/></g><g class="points"/><g class="text"/></g></g></g><g class="overplot"/><path class="xlines-above crisp" style="fill: none;"/><path class="ylines-above crisp" style="fill: none;"/><g class="overlines-above"/><g class="xaxislayer-above"/><g class="yaxislayer-above"/><g class="overaxes-above"/></g><rect class="rangeslider-mask-min" x="0" y="0" shape-rendering="crispEdges" height="63" width="0" style="fill: rgb(0, 0, 0); fill-opacity: 0.4;"/><rect class="rangeslider-mask-max" y="0" shape-rendering="crispEdges" height="63" x="494" width="0" style="fill: rgb(0, 0, 0); fill-opacity: 0.4;"/><g class="rangeslider-grabber-min" transform="translate(-2.5,0.5)"><rect class="rangeslider-handle-min" x="0" width="4" rx="1" fill="#fff" stroke="#444" stroke-width="1" shape-rendering="crispEdges" y="16" height="32"/></g><g class="rangeslider-grabber-max" transform="translate(492.5,0.5)"><rect class="rangeslider-handle-max" x="0" width="4" rx="1" fill="#fff" stroke="#444" stroke-width="1" shape-rendering="crispEdges" y="16" height="32"/></g></g><g class="g-ytitle"><text class="ytitle" transform="rotate(-90,37.528125,263)" x="37.528125" y="263" text-anchor="middle" style="font-family: 'Open Sans', verdana, arial, sans-serif; font-size: 14px; fill: rgb(42, 63, 95); opacity: 1; font-weight: normal; white-space: pre;">Count</text></g><g class="g-xtitle"><text class="xtitle" x="327" y="551" text-anchor="middle" style="font-family: 'Open Sans', verdana, arial, sans-serif; font-size: 14px; fill: rgb(42, 63, 95); opacity: 1; font-weight: normal; white-space: pre;">Date</text></g></g></svg>