<svg class="main-svg" xmlns="http://www.w3.org/2000/svg" xmlns:xlink="http://www.w3.org/1999/xlink" width="700" height="600" style="" viewBox="0 0 700 600"><rect x="0" y="0" width="700" height="600" style="fill: rgb(255, 255, 255); fill-opacity: 1;"/><defs id="defs-ade8c0"><g class="clips"><clipPath id="clipade8c0xyplot" class="plotclip"><rect width="494" height="326"/></clipPath><clipPath class="axesclip" id="clipade8c0x"><rect x="80" y="0" width="494" height="600"/></clipPath><clipPath class="axesclip" id="clipade8c0y"><rect x="0" y="100" width="700" height="326"/></clipPath><clipPath class="axesclip" id="clipade8c0xy"><rect x="80" y="100" width="494" height="326"/></clipPath></g><g class="gradients"/></defs><g class="bglayer"><rect class="bg" x="80" y="100" width="494" height="326" style="fill: rgb(229, 236, 246); fill-opacity: 1; stroke-width: 0;"/></g><g class="layer-below"><g class="imagelayer"/><g class="shapelayer"/></g><g class="cartesianlayer"><g class="subplot xy"><g class="layer-subplot"><g class="shapelayer"/><g class="imagelayer"/></g><g class="gridlayer"><g class="x"><path class="xgrid crisp" transform="translate(117.14,0)" d="M0,100v326" style="stroke: rgb(255, 255, 255); stroke-opacity: 1; stroke-width: 1px;"/><path class="xgrid crisp" transform="translate(224.86,0)" d="M0,100v326" style="stroke: rgb(255, 255, 255); stroke-opacity: 1; stroke-width: 1px;"/><path class="xgrid crisp" transform="translate(340,0)" d="M0,100v326" style="stroke: rgb(255, 255, 255); stroke-opacity: 1; stroke-width: 1px;"/><path class="xgrid crisp" transform="translate(451.43,0)" d="M0,100v326" style="stroke: rgb(255, 255, 255); stroke-opacity: 1; stroke-width: 1px;"/><path class="xgrid crisp" transform="translate(566.5699999999999,0)" d="M0,100v326" style="stroke: rgb(255, 255, 255); stroke-opacity: 1; stroke-width: 1px;"/></g><g class="y"><path class="ygrid crisp" transform="translate(0,378.3)" d="M80,0h494" style="stroke: rgb(255, 255, 255); stroke-opacity: 1; stroke-width: 1px;"/><path class="ygrid crisp" transform="translate(0,330.59000000000003)" d="M80,0h494" style="stroke: rgb(255, 255, 255); stroke-opacity: 1; stroke-width: 1px;"/><path class="ygrid crisp" transform="translate(0,282.89)" d="M80,0h494" style="stroke: rgb(255, 255, 255); stroke-opacity: 1; stroke-width: 1px;"/><path class="ygrid crisp" transform="translate(0,235.19)" d="M80,0h494" style="stroke: rgb(255, 255, 255); stroke-opacity: 1; stroke-width: 1px;"/><path class="ygrid crisp" transform="translate(0,187.48000000000002)" d="M80,0h494" style="stroke: rgb(255, 255, 255); stroke-opacity: 1; stroke-width: 1px;"/><path class="ygrid crisp" transform="translate(0,139.78)" d="M80,0h494" style="stroke: rgb(255, 255, 255); stroke-opacity: 1; stroke-width: 1px;"/></g></g><g class="zerolinelayer"><path class="yzl zl crisp" transform="translate(0,426)" d="M80,0h494" style="stroke: rgb(255, 255, 255); stroke-opacity: 1; stroke-width: 2px;"/></g><path class="xlines-below"/><path class="ylines-below"/><g class="overlines-below"/><g class="xaxislayer-below"/><g class="yaxislayer-below"/><g class="overaxes-below"/><g class="plot" transform="translate(80, 100)" clip-path="url('#clipade8c0xyplot')"><g class="scatterlayer mlayer"><g class="trace scatter tracea682ce" style="stroke-miterlimit: 2;"><g class="fills"><g><path class="js-fill" d="M494,326L0,326L0,326L100.29,325.32L104,325.23L226.57,321.45L230.29,321.02L248.86,319.14L252.57,318.41L274.86,313.92L278.57,313.14L308.29,303.76L312,302.02L326.86,296.66L330.57,295.62L352.86,286.06L356.57,284.75L364,281.19L367.71,278.07L397.43,263.39L401.14,260.84L408.57,257L412.29,255.22L419.71,250.72L423.43,248.38L434.57,241.23L438.29,238.79L445.71,233.55L449.43,228.42L468,214.46L471.71,211.33L482.86,200.6L486.57,197.99L490.29,196.4L494,192.81" style="fill: rgb(40, 167, 69); fill-opacity: 0.5; stroke-width: 0;"/></g><g><path class="js-fill" d="M0,326L96.57,325.31L100.29,325.22L193.14,322.29L196.86,322.09L226.57,320.65L230.29,320.11L248.86,317.46L252.57,316.54L267.43,312.59L271.14,311.34L282.29,307.89L286,306.21L312,295.32L315.71,293.5L341.71,281.93L345.43,279.22L360.29,272.64L364,270.34L367.71,266.95L371.43,264.86L382.57,258.99L386.29,257L401.14,247.53L404.86,245.77L434.57,226.06L438.29,223.38L445.71,217.68L449.43,212.3L468,197.52L471.71,194.16L482.86,182.87L486.57,180.1L490.29,178.28L494,174.42L494,192.81L490.29,196.4L486.57,197.99L482.86,200.6L471.71,211.33L468,214.46L449.43,228.42L445.71,233.55L438.29,238.79L434.57,241.23L423.43,248.38L419.71,250.72L412.29,255.22L408.57,257L401.14,260.84L397.43,263.39L367.71,278.07L364,281.19L356.57,284.75L352.86,286.06L330.57,295.62L326.86,296.66L312,302.02L308.29,303.76L278.57,313.14L274.86,313.92L252.57,318.41L248.86,319.14L230.29,321.02L226.57,321.45L104,325.23L100.29,325.32L0,326Z" style="fill: rgb(108, 117, 125); fill-opacity: 0.5; stroke-width: 0;"/></g></g><g class="errorbars"/><g class="lines"><path class="js-line" d="M0,326L100.29,325.32L104,325.23L226.57,321.45L230.29,321.02L248.86,319.14L252.57,318.41L274.86,313.92L278.57,313.14L308.29,303.76L312,302.02L326.86,296.66L330.57,295.62L352.86,286.06L356.57,284.75L364,281.19L367.71,278.07L397.43,263.39L401.14,260.84L408.57,257L412.29,255.22L419.71,250.72L423.43,248.38L434.57,241.23L438.29,238.79L445.71,233.55L449.43,228.42L468,214.46L471.71,211.33L482.86,200.6L486.57,197.99L490.29,196.4L494,192.81" style="vector-effect: non-scaling-stroke; fill: none; stroke: rgb(40, 167, 69); stroke-opacity: 1; stroke-width: 2px; opacity: 1;"/></g><g class="points"/><g class="text"/></g><g class="trace scatter trace8e4d08" style="stroke-miterlimit: 2;"><g class="fills"><g><path class="js-fill" d="M0,325.97L37.14,325.43L40.86,325.2L115.14,322.27L118.86,322.26L167.14,321.29L170.86,321.11L185.71,320.13L189.43,319.45L208,316.15L211.71,314.83L222.86,310.35L226.57,308.38L234,304.12L237.71,301.17L256.29,285.56L260,281.96L278.57,263.45L282.29,259.88L304.57,235.62L308.29,232.26L315.71,223.84L319.43,219.65L345.43,193.15L349.14,189.07L367.71,171.15L371.43,166.92L393.71,143.09L397.43,138.69L423.43,109.9L427.14,105.54L434.57,97.55L438.29,93.01L471.71,49.63L475.43,43.82L482.86,32.58L486.57,27.86L494,16.3L494,174.42L490.29,178.28L486.57,180.1L482.86,182.87L471.71,194.16L468,197.52L449.43,212.3L445.71,217.68L438.29,223.38L434.57,226.06L404.86,245.77L401.14,247.53L386.29,257L382.57,258.99L371.43,264.86L367.71,266.95L364,270.34L360.29,272.64L345.43,279.22L341.71,281.93L315.71,293.5L312,295.32L286,306.21L282.29,307.89L271.14,311.34L267.43,312.59L252.57,316.54L248.86,317.46L230.29,320.11L226.57,320.65L196.86,322.09L193.14,322.29L100.29,325.22L96.57,325.31L0,326Z" style="fill: rgb(255, 7, 58); fill-opacity: 0.5; stroke-width: 0;"/></g></g><g class="errorbars"/><g class="lines"><path class="js-line" d="M0,326L96.57,325.31L100.29,325.22L193.14,322.29L196.86,322.09L226.57,320.65L230.29,320.11L248.86,317.46L252.57,316.54L267.43,312.59L271.14,311.34L282.29,307.89L286,306.21L312,295.32L315.71,293.5L341.71,281.93L345.43,279.22L360.29,272.64L364,270.34L367.71,266.95L371.43,264.86L382.57,258.99L386.29,257L401.14,247.53L404.86,245.77L434.57,226.06L438.29,223.38L445.71,217.68L449.43,212.3L468,197.52L471.71,194.16L482.86,182.87L486.57,180.1L490.29,178.28L494,174.42" style="vector-effect: non-scaling-stroke; fill: none; stroke: rgb(108, 117, 125); stroke-opacity: 1; stroke-width: 2px; opacity: 1;"/></g><g class="points"/><g class="text"/></g><g class="trace scatter trace390d2e" style="stroke-miterlimit: 2;"><g class="fills"/><g class="errorbars"/><g class="lines"><path class="js-line" d="M0,325.97L37.14,325.43L40.86,325.2L115.14,322.27L118.86,322.26L167.14,321.29L170.86,321.11L185.71,320.13L189.43,319.45L208,316.15L211.71,314.83L222.86,310.35L226.57,308.38L234,304.12L237.71,301.17L256.29,285.56L260,281.96L278.57,263.45L282.29,259.88L304.57,235.62L308.29,232.26L315.71,223.84L319.43,219.65L345.43,193.15L349.14,189.07L367.71,171.15L371.43,166.92L393.71,143.09L397.43,138.69L423.43,109.9L427.14,105.54L434.57,97.55L438.29,93.01L471.71,49.63L475.43,43.82L482.86,32.58L486.57,27.86L494,16.3" style="vector-effect: non-scaling-stroke; fill: none; stroke: rgb(255, 7, 58); stroke-opacity: 1; stroke-width: 2px; opacity: 1;"/></g><g class="points"/><g class="text"/></g></g></g><g class="overplot"/><path class="xlines-above crisp" style="fill: none;" d="M0,0"/><path class="ylines-above crisp" style="fill: none;" d="M0,0"/><g class="overlines-above"/><g class="xaxislayer-above"><g class="xtick"><text text-anchor="middle" x="0" y="439" transform="translate(117.14,0)" style="font-family: 'Open Sans', verdana, arial, sans-serif; font-size: 12px; fill: rgb(42, 63, 95); fill-opacity: 1; white-space: pre;">Feb 2020</text></g><g class="xtick"><text text-anchor="middle" x="0" y="439" transform="translate(224.86,0)" style="font-family: 'Open Sans', verdana, arial, sans-serif; font-size: 12px; fill: rgb(42, 63, 95); fill-opacity: 1; white-space: pre;">Mar 2020</text></g><g class="xtick"><text text-anchor="middle" x="0" y="439" transform="translate(340,0)" style="font-family: 'Open Sans', verdana, arial, sans-serif; font-size: 12px; fill: rgb(42, 63, 95); fill-opacity: 1; white-space: pre;">Apr 2020</text></g><g class="xtick"><text text-anchor="middle" x="0" y="439" transform="translate(451.43,0)" style="font-family: 'Open Sans', verdana, arial, sans-serif; font-size: 12px; fill: rgb(42, 63, 95); fill-opacity: 1; white-space: pre;">May 2020</text></g><g class="xtick"><text text-anchor="middle" x="0" y="439" transform="translate(566.5699999999999,0)" style="font-family: 'Open Sans', verdana, arial, sans-serif; font-size: 12px; fill: rgb(42, 63, 95); fill-opacity: 1; white-space: pre;">Jun 2020</text></g></g><g class="yaxislayer-above"><g class="ytick"><text text-anchor="end" x="79" y="4.199999999999999" transform="translate(0,426)" style="font-family: 'Open Sans', verdana, arial, sans-serif; font-size: 12px; fill: rgb(42, 63, 95); fill-opacity: 1; white-space: pre;">0</text></g><g class="ytick"><text text-anchor="end" x="79" y="4.199999999999999" transform="translate(0,378.3)" style="font-family: 'Open Sans', verdana, arial, sans-serif; font-size: 12px; fill: rgb(42, 63, 95); fill-opacity: 1; white-space: pre;">1M</text></g><g class="ytick"><text text-anchor="end" x="79" y="4.199999999999999" transform="translate(0,330.59000000000003)" style="font-family: 'Open Sans', verdana, arial, sans-serif; font-size: 12px; fill: rgb(42, 63, 95); fill-opacity: 1; white-space: pre;">2M</text></g><g class="ytick"><text text-anchor="end" x="79" y="4.199999999999999" transform="translate(0,282.89)" style="font-family: 'Open Sans', verdana, arial, sans-serif; font-size: 12px; fill: rgb(42, 63, 95); fill-opacity: 1; white-space: pre;">3M</text></g><g class="ytick"><text text-anchor="end" x="79" y="4.199999999999999" transform="translate(0,235.19)" style="font-family: 'Open Sans', verdana, arial, sans-serif; font-size: 12px; fill: rgb(42, 63, 95); fill-opacity: 1; white-space: pre;">4M</text></g><g class="ytick"><text text-anchor="end" x="79" y="4.199999999999999" transform="translate(0,187.48000000000002)" style="font-family: 'Open Sans', verdana, arial, sans-serif; font-size: 12px; fill: rgb(42, 63, 95); fill-opacity: 1; white-space: pre;">5M</text></g><g class="ytick"><text text-anchor="end" x="79" y="4.199999999999999" transform="translate(0,139.78)" style="font-family: 'Open Sans', verdana, arial, sans-serif; font-size: 12px; fill: rgb(42, 63, 95); fill-opacity: 1; white-space: pre;">6M</text></g></g><g class="overaxes-above"/></g></g><g class="polarlayer"/><g class="ternarylayer"/><g class="geolayer"/><g class="funnelarealayer"/><g class="pielayer"/><g class="treemaplayer"/><g class="sunburstlayer"/><g class="glimages"/><defs id="topdefs-ade8c0"><g class="clips"/><clipPath id="legendade8c0"><rect width="104" height="83" x="0" y="0"/></clipPath><clipPath id="rangesliderx-ade8c0"><rect x="0" y="0" width="494" height="63"/></clipPath></defs><g class="layer-above"><g class="imagelayer"/><g class="shapelayer"/></g><g class="infolayer"><g class="legend" pointer-events="all" transform="translate(583.88, 100)"><rect class="bg" shape-rendering="crispEdges" style="stroke: rgb(68, 68, 68); stroke-opacity: 1; fill: rgb(255, 255, 255); fill-opacity: 1; stroke-width: 0px;" width="104" height="83" x="0" y="0"/><g class="scrollbox" transform="translate(0, 0)" clip-path="url('#legendade8c0')"><text class="legendtitletext user-select-none" text-anchor="start" x="2" y="15.600000000000001" style="font-family: 'Open Sans', verdana, arial, sans-serif; font-size: 12px; fill: rgb(42, 63, 95); fill-opacity: 1; white-space: pre;">Case</text><g class="groups" transform="translate(0, 0)"><g class="traces" transform="translate(0, 30.1)" style="opacity: 1;"><text class="legendtext user-select-none" text-anchor="start" x="40" y="4.680000000000001" style="font-family: 'Open Sans', verdana, arial, sans-serif; font-size: 12px; fill: rgb(42, 63, 95); fill-opacity: 1; white-space: pre;">Recovered</text><g class="layers"><g class="legendfill"><path class="js-fill" d="M5,-2h30v6h-30z" style="stroke-width: 0; fill: rgb(40, 167, 69); fill-opacity: 0.5;"/></g><g class="legendlines"><path class="js-line" d="M5,-2h30" style="fill: none; stroke: rgb(40, 167, 69); stroke-opacity: 1; stroke-width: 2px;"/></g><g class="legendsymbols"><g class="legendpoints"/></g></g><rect class="legendtoggle" pointer-events="all" x="0" y="-9.5" width="98.03125" height="19" style="cursor: pointer; fill: rgb(0, 0, 0); fill-opacity: 0;"/></g></g><g class="groups" transform="translate(0, 0)"><g class="traces" transform="translate(0, 49.1)" style="opacity: 1;"><text class="legendtext user-select-none" text-anchor="start" x="40" y="4.680000000000001" style="font-family: 'Open Sans', verdana, arial, sans-serif; font-size: 12px; fill: rgb(42, 63, 95); fill-opacity: 1; white-space: pre;">Deaths</text><g class="layers"><g class="legendfill"><path class="js-fill" d="M5,-2h30v6h-30z" style="stroke-width: 0; fill: rgb(108, 117, 125); fill-opacity: 0.5;"/></g><g class="legendlines"><path class="js-line" d="M5,-2h30" style="fill: none; stroke: rgb(108, 117, 125); stroke-opacity: 1; stroke-width: 2px;"/></g><g class="legendsymbols"><g class="legendpoints"/></g></g><rect class="legendtoggle" pointer-events="all" x="0" y="-9.5" width="98.03125" height="19" style="cursor: pointer; fill: rgb(0, 0, 0); fill-opacity: 0;"/></g></g><g class="groups" transform="translate(0, 0)"><g class="traces" transform="translate(0, 68.1)" style="opacity: 1;"><text class="legendtext user-select-none" text-anchor="start" x="40" y="4.680000000000001" style="font-family: 'Open Sans', verdana, arial, sans-serif; font-size: 12px; fill: rgb(42, 63, 95); fill-opacity: 1; white-space: pre;">Active</text><g class="layers"><g class="legendfill"><path class="js-fill" d="M5,-2h30v6h-30z" style="stroke-width: 0; fill: rgb(255, 7, 58); fill-opacity: 0.5;"/></g><g class="legendlines"><path class="js-line" d="M5,-2h30" style="fill: none; stroke: rgb(255, 7, 58); stroke-opacity: 1; stroke-width: 2px;"/></g><g class="legendsymbols"><g class="legendpoints"/></g></g><rect class="legendtoggle" pointer-events="all" x="0" y="-9.5" width="98.03125" height="19" style="cursor: pointer; fill: rgb(0, 0, 0); fill-opacity: 0;"/></g></g></g><rect class="scrollbar" rx="20" ry="3" width="0" height="0" x="0" y="0" style="fill: rgb(128, 139, 164); fill-opacity: 1;"/></g><g class="g-gtitle"><text class="gtitle" x="35" y="50" text-anchor="start" dy="0em" style="font-family: 'Open Sans', verdana, arial, sans-serif; font-size: 17px; fill: rgb(42, 63, 95); opacity: 1; font-weight: normal; white-space: pre;">Cases over time</text></g><g class="rangeslider-container" pointer-events="all" transform="translate(80,457)"><rect class="rangeslider-bg" x="0" y="0" shape-rendering="crispEdges" width="494" height="63" transform="translate(0,0)" fill="#E5ECF6" stroke="#444" stroke-width="0"/><g class="rangeslider-rangeplot xy" clip-path="url('#rangesliderx-ade8c0')"><g class="layer-subplot"><g class="shapelayer"/><g class="imagelayer"/></g><g class="gridlayer"><g class="x"/><g class="y"/></g><g class="zerolinelayer"/><path class="xlines-below"/><path class="ylines-below"/><g class="overlines-below"/><g class="xaxislayer-below"/><g class="yaxislayer-below"/><g class="overaxes-below"/><g class="plot"><g class="scatterlayer mlayer rangeplot"><g class="trace scatter tracea682ce" style="stroke-miterlimit: 2;"><g class="fills"><g><path class="js-fill" d="M494,63L0,63L0,63L208,62.25L211.71,62.23L260,61.27L263.71,61.12L308.29,58.7L312,58.37L382.57,52.37L386.29,52.03L445.71,45.13L449.43,44.14L479.14,39.47L482.86,38.77L494,37.26" style="fill: rgb(40, 167, 69); fill-opacity: 0.5; stroke-width: 0;"/></g><g><path class="js-fill" d="M0,63L193.14,62.28L196.86,62.24L248.86,61.35L252.57,61.17L293.43,58.61L297.14,58.31L330.57,55.53L334.29,55.15L386.29,49.67L390,49.18L442,42.58L445.71,42.07L453.14,40.48L456.86,39.94L494,33.71L494,37.26L482.86,38.77L479.14,39.47L449.43,44.14L445.71,45.13L386.29,52.03L382.57,52.37L312,58.37L308.29,58.7L263.71,61.12L260,61.27L211.71,62.23L208,62.25L0,63Z" style="fill: rgb(108, 117, 125); fill-opacity: 0.5; stroke-width: 0;"/></g></g><g class="errorbars"/><g class="lines"><path class="js-line" d="M0,63L208,62.25L211.71,62.23L260,61.27L263.71,61.12L308.29,58.7L312,58.37L382.57,52.37L386.29,52.03L445.71,45.13L449.43,44.14L479.14,39.47L482.86,38.77L494,37.26" style="vector-effect: non-scaling-stroke; fill: none; stroke: rgb(40, 167, 69); stroke-opacity: 1; stroke-width: 2px; opacity: 1;"/></g><g class="points"/><g class="text"/></g><g class="trace scatter trace8e4d08" style="stroke-miterlimit: 2;"><g class="fills"><g><path class="js-fill" d="M0,62.99L141.14,62.24L144.86,62.22L200.57,61.4L204.29,61.26L226.57,59.6L230.29,59.23L252.57,55.87L256.29,55.18L312,44.15L315.71,43.26L352.86,35.86L356.57,35.22L390,28.48L393.71,27.65L468,10.67L471.71,9.59L494,3.15L494,33.71L456.86,39.94L453.14,40.48L445.71,42.07L442,42.58L390,49.18L386.29,49.67L334.29,55.15L330.57,55.53L297.14,58.31L293.43,58.61L252.57,61.17L248.86,61.35L196.86,62.24L193.14,62.28L0,63Z" style="fill: rgb(255, 7, 58); fill-opacity: 0.5; stroke-width: 0;"/></g></g><g class="errorbars"/><g class="lines"><path class="js-line" d="M0,63L193.14,62.28L196.86,62.24L248.86,61.35L252.57,61.17L293.43,58.61L297.14,58.31L330.57,55.53L334.29,55.15L386.29,49.67L390,49.18L442,42.58L445.71,42.07L453.14,40.48L456.86,39.94L494,33.71" style="vector-effect: non-scaling-stroke; fill: none; stroke: rgb(108, 117, 125); stroke-opacity: 1; stroke-width: 2px; opacity: 1;"/></g><g class="points"/><g class="text"/></g><g class="trace scatter trace390d2e" style="stroke-miterlimit: 2;"><g class="fills"/><g class="errorbars"/><g class="lines"><path class="js-line" d="M0,62.99L141.14,62.24L144.86,62.22L200.57,61.4L204.29,61.26L226.57,59.6L230.29,59.23L252.57,55.87L256.29,55.18L312,44.15L315.71,43.26L352.86,35.86L356.57,35.22L390,28.48L393.71,27.65L468,10.67L471.71,9.59L494,3.15" style="vector-effect: non-scaling-stroke; fill: none; stroke: rgb(255, 7, 58); stroke-opacity: 1; stroke-width: 2px; opacity: 1;"/></g><g class="points"/><g class="text"/></g></g></g><g class="overplot"/><path class="xlines-above crisp" style="fill: none;"/><path class="ylines-above crisp" style="fill: none;"/><g class="overlines-above"/><g class="xaxislayer-above"/><g class="yaxislayer-above"/><g class="overaxes-above"/></g><rect class="rangeslider-mask-min" x="0" y="0" shape-rendering="crispEdges" height="63" width="0" style="fill: rgb(0, 0, 0); fill-opacity: 0.4;"/><rect class="rangeslider-mask-max" y="0" shape-rendering="crispEdges" height="63" x="494" width="0" style="fill: rgb(0, 0, 0); fill-opacity: 0.4;"/><g class="rangeslider-grabber-min" transform="translate(-2.5,0.5)"><rect class="rangeslider-handle-min" x="0" width="4" rx="1" fill="#fff" stroke="#444" stroke-width="1" shape-rendering="crispEdges" y="16" height="32"/></g><g class="rangeslider-grabber-max" transform="translate(492.5,0.5)"><rect class="rangeslider-handle-max" x="0" width="4" rx="1" fill="#fff" stroke="#444" stroke-width="1" shape-rendering="crispEdges" y="16" height="32"/></g></g><g class="g-ytitle"><text class="ytitle" transform="rotate(-90,37.528125,263)" x="37.528125" y="263" text-anchor="middle" style="font-family: 'Open Sans', verdana, arial, sans-serif; font-size: 14px; fill: rgb(42, 63, 95); opacity: 1; font-weight: normal; white-space: pre;">Count</text></g><g class="g-xtitle"><text class="xtitle" x="327" y="551" text-anchor="middle" style="font-family: 'Open Sans', verdana, arial, sans-serif; font-size: 14px; fill: rgb(42, 63, 95); opacity: 1; font-weight: normal; white-space: pre;">Date</text></g></g></svg>