<svg class="main-svg" xmlns="http://www.w3.org/2000/svg" xmlns:xlink="http://www.w3.org/1999/xlink" width="700" height="600" style="" viewBox="0 0 700 600"><rect x="0" y="0" width="700" height="600" style="fill: rgb(255, 255, 255); fill-opacity: 1;"/><defs id="defs-f7fbab"><g class="clips"><clipPath id="clipf7fbabxyplot" class="plotclip"><rect width="494" height="326"/></clipPath><clipPath class="axesclip" id="clipf7fbabx"><rect x="80" y="0" width="494" height="600"/></clipPath><clipPath class="axesclip" id="clipf7fbaby"><rect x="0" y="100" width="700" height="326"/></clipPath><clipPath class="axesclip" id="clipf7fbabxy"><rect x="80" y="100" width="494" height="326"/></clipPath></g><g class="gradients"/></defs><g class="bglayer"><rect class="bg" x="80" y="100" width="494" height="326" style="fill: rgb(229, 236, 246); fill-opacity: 1; stroke-width: 0;"/></g><g class="layer-below"><g class="imagelayer"/><g class="shapelayer"/></g><g class="cartesianlayer"><g class="subplot xy"><g class="layer-subplot"><g class="shapelayer"/><g class="imagelayer"/></g><g class="gridlayer"><g class="x"><path class="xgrid crisp" transform="translate(116.87,0)" d="M0,100v326" style="stroke: rgb(255, 255, 255); stroke-opacity: 1; stroke-width: 1px;"/><path class="xgrid crisp" transform="translate(223.78,0)" d="M0,100v326" style="stroke: rgb(255, 255, 255); stroke-opacity: 1; stroke-width: 1px;"/><path class="xgrid crisp" transform="translate(338.06,0)" d="M0,100v326" style="stroke: rgb(255, 255, 255); stroke-opacity: 1; stroke-width: 1px;"/><path class="xgrid crisp" transform="translate(448.66,0)" d="M0,100v326" style="stroke: rgb(255, 255, 255); stroke-opacity: 1; stroke-width: 1px;"/><path class="xgrid crisp" transform="translate(562.94,0)" d="M0,100v326" style="stroke: rgb(255, 255, 255); stroke-opacity: 1; stroke-width: 1px;"/></g><g class="y"><path class="ygrid crisp" transform="translate(0,379.19)" d="M80,0h494" style="stroke: rgb(255, 255, 255); stroke-opacity: 1; stroke-width: 1px;"/><path class="ygrid crisp" transform="translate(0,332.38)" d="M80,0h494" style="stroke: rgb(255, 255, 255); stroke-opacity: 1; stroke-width: 1px;"/><path class="ygrid crisp" transform="translate(0,285.58000000000004)" d="M80,0h494" style="stroke: rgb(255, 255, 255); stroke-opacity: 1; stroke-width: 1px;"/><path class="ygrid crisp" transform="translate(0,238.77)" d="M80,0h494" style="stroke: rgb(255, 255, 255); stroke-opacity: 1; stroke-width: 1px;"/><path class="ygrid crisp" transform="translate(0,191.95999999999998)" d="M80,0h494" style="stroke: rgb(255, 255, 255); stroke-opacity: 1; stroke-width: 1px;"/><path class="ygrid crisp" transform="translate(0,145.15)" d="M80,0h494" style="stroke: rgb(255, 255, 255); stroke-opacity: 1; stroke-width: 1px;"/></g></g><g class="zerolinelayer"><path class="yzl zl crisp" transform="translate(0,426)" d="M80,0h494" style="stroke: rgb(255, 255, 255); stroke-opacity: 1; stroke-width: 2px;"/></g><path class="xlines-below"/><path class="ylines-below"/><g class="overlines-below"/><g class="xaxislayer-below"/><g class="yaxislayer-below"/><g class="overaxes-below"/><g class="plot" transform="translate(80, 100)" clip-path="url('#clipf7fbabxyplot')"><g class="scatterlayer mlayer"><g class="trace scatter tracef809a4" style="stroke-miterlimit: 2;"><g class="fills"><g><path class="js-fill" d="M494,326L0,326L0,326L103.22,325.25L106.91,325.15L140.09,324.14L143.78,324L235.94,320.48L239.63,320.08L254.37,317.93L258.06,317.23L280.18,312.28L283.87,310.94L309.67,302.47L313.36,301.02L339.16,291.81L342.85,289.45L357.6,283.97L361.28,282.03L364.97,278.97L368.66,277.17L409.21,256.55L412.9,253.97L420.27,249.83L423.96,247.21L431.33,242.83L435.01,240.42L442.39,235.28L446.07,230.25L464.51,216.56L468.19,213.48L479.25,202.95L482.94,200.39L486.63,198.83L490.31,195.31L494,192.27" style="fill: rgb(40, 167, 69); fill-opacity: 0.5; stroke-width: 0;"/></g><g><path class="js-fill" d="M0,326L95.85,325.32L99.54,325.23L173.27,322.9L176.96,322.8L228.57,320.22L232.25,319.83L250.69,316.71L254.37,315.87L276.49,309.7L280.18,308.23L294.93,302.19L298.61,301.02L309.67,295.9L313.36,294.11L339.16,282.75L342.85,280.1L357.6,273.64L361.28,271.39L364.97,268.06L368.66,266.01L379.72,260.25L383.4,258.29L398.15,249L401.84,247.28L431.33,227.93L435.01,225.31L442.39,219.71L446.07,214.43L464.51,199.93L468.19,196.63L479.25,185.55L482.94,182.84L486.63,181.05L490.31,177.26L494,173.98L494,192.27L490.31,195.31L486.63,198.83L482.94,200.39L479.25,202.95L468.19,213.48L464.51,216.56L446.07,230.25L442.39,235.28L435.01,240.42L431.33,242.83L423.96,247.21L420.27,249.83L412.9,253.97L409.21,256.55L368.66,277.17L364.97,278.97L361.28,282.03L357.6,283.97L342.85,289.45L339.16,291.81L313.36,301.02L309.67,302.47L283.87,310.94L280.18,312.28L258.06,317.23L254.37,317.93L239.63,320.08L235.94,320.48L143.78,324L140.09,324.14L106.91,325.15L103.22,325.25L0,326Z" style="fill: rgb(108, 117, 125); fill-opacity: 0.5; stroke-width: 0;"/></g></g><g class="errorbars"/><g class="lines"><path class="js-line" d="M0,326L103.22,325.25L106.91,325.15L140.09,324.14L143.78,324L235.94,320.48L239.63,320.08L254.37,317.93L258.06,317.23L280.18,312.28L283.87,310.94L309.67,302.47L313.36,301.02L339.16,291.81L342.85,289.45L357.6,283.97L361.28,282.03L364.97,278.97L368.66,277.17L409.21,256.55L412.9,253.97L420.27,249.83L423.96,247.21L431.33,242.83L435.01,240.42L442.39,235.28L446.07,230.25L464.51,216.56L468.19,213.48L479.25,202.95L482.94,200.39L486.63,198.83L490.31,195.31L494,192.27" style="vector-effect: non-scaling-stroke; fill: none; stroke: rgb(40, 167, 69); stroke-opacity: 1; stroke-width: 2px; opacity: 1;"/></g><g class="points"/><g class="text"/></g><g class="trace scatter trace201209" style="stroke-miterlimit: 2;"><g class="fills"><g><path class="js-fill" d="M0,325.97L36.87,325.44L40.55,325.21L117.97,322.33L121.66,322.31L169.58,321.2L173.27,321.03L188.01,319.58L191.7,319.07L206.45,316.34L210.13,315.04L221.19,310.64L224.88,308.71L232.25,304.53L235.94,301.64L254.37,286.32L258.06,282.79L294.93,245.21L298.61,240.59L309.67,230.27L313.36,225.76L324.42,214.12L328.1,210.79L342.85,195.64L346.54,191.64L364.97,174.06L368.66,169.91L390.78,146.52L394.46,142.2L416.58,118.64L420.27,113.96L438.7,92.76L442.39,87.81L453.45,73.56L457.13,69.47L464.51,60.29L468.19,54.81L479.25,38.08L482.94,33.46L490.31,22.11L494,16.3L494,173.98L490.31,177.26L486.63,181.05L482.94,182.84L479.25,185.55L468.19,196.63L464.51,199.93L446.07,214.43L442.39,219.71L435.01,225.31L431.33,227.93L401.84,247.28L398.15,249L383.4,258.29L379.72,260.25L368.66,266.01L364.97,268.06L361.28,271.39L357.6,273.64L342.85,280.1L339.16,282.75L313.36,294.11L309.67,295.9L298.61,301.02L294.93,302.19L280.18,308.23L276.49,309.7L254.37,315.87L250.69,316.71L232.25,319.83L228.57,320.22L176.96,322.8L173.27,322.9L99.54,325.23L95.85,325.32L0,326Z" style="fill: rgb(255, 7, 58); fill-opacity: 0.5; stroke-width: 0;"/></g></g><g class="errorbars"/><g class="lines"><path class="js-line" d="M0,326L95.85,325.32L99.54,325.23L173.27,322.9L176.96,322.8L228.57,320.22L232.25,319.83L250.69,316.71L254.37,315.87L276.49,309.7L280.18,308.23L294.93,302.19L298.61,301.02L309.67,295.9L313.36,294.11L339.16,282.75L342.85,280.1L357.6,273.64L361.28,271.39L364.97,268.06L368.66,266.01L379.72,260.25L383.4,258.29L398.15,249L401.84,247.28L431.33,227.93L435.01,225.31L442.39,219.71L446.07,214.43L464.51,199.93L468.19,196.63L479.25,185.55L482.94,182.84L486.63,181.05L490.31,177.26L494,173.98" style="vector-effect: non-scaling-stroke; fill: none; stroke: rgb(108, 117, 125); stroke-opacity: 1; stroke-width: 2px; opacity: 1;"/></g><g class="points"/><g class="text"/></g><g class="trace scatter trace3e3e44" style="stroke-miterlimit: 2;"><g class="fills"/><g class="errorbars"/><g class="lines"><path class="js-line" d="M0,325.97L36.87,325.44L40.55,325.21L117.97,322.33L121.66,322.31L169.58,321.2L173.27,321.03L188.01,319.58L191.7,319.07L206.45,316.34L210.13,315.04L221.19,310.64L224.88,308.71L232.25,304.53L235.94,301.64L254.37,286.32L258.06,282.79L294.93,245.21L298.61,240.59L309.67,230.27L313.36,225.76L324.42,214.12L328.1,210.79L342.85,195.64L346.54,191.64L364.97,174.06L368.66,169.91L390.78,146.52L394.46,142.2L416.58,118.64L420.27,113.96L438.7,92.76L442.39,87.81L453.45,73.56L457.13,69.47L464.51,60.29L468.19,54.81L479.25,38.08L482.94,33.46L490.31,22.11L494,16.3" style="vector-effect: non-scaling-stroke; fill: none; stroke: rgb(255, 7, 58); stroke-opacity: 1; stroke-width: 2px; opacity: 1;"/></g><g class="points"/><g class="text"/></g></g></g><g class="overplot"/><path class="xlines-above crisp" style="fill: none;" d="M0,0"/><path class="ylines-above crisp" style="fill: none;" d="M0,0"/><g class="overlines-above"/><g class="xaxislayer-above"><g class="xtick"><text text-anchor="middle" x="0" y="439" transform="translate(116.87,0)" style="font-family: 'Open Sans', verdana, arial, sans-serif; font-size: 12px; fill: rgb(42, 63, 95); fill-opacity: 1; white-space: pre;">Feb 2020</text></g><g class="xtick"><text text-anchor="middle" x="0" y="439" transform="translate(223.78,0)" style="font-family: 'Open Sans', verdana, arial, sans-serif; font-size: 12px; fill: rgb(42, 63, 95); fill-opacity: 1; white-space: pre;">Mar 2020</text></g><g class="xtick"><text text-anchor="middle" x="0" y="439" transform="translate(338.06,0)" style="font-family: 'Open Sans', verdana, arial, sans-serif; font-size: 12px; fill: rgb(42, 63, 95); fill-opacity: 1; white-space: pre;">Apr 2020</text></g><g class="xtick"><text text-anchor="middle" x="0" y="439" transform="translate(448.66,0)" style="font-family: 'Open Sans', verdana, arial, sans-serif; font-size: 12px; fill: rgb(42, 63, 95); fill-opacity: 1; white-space: pre;">May 2020</text></g><g class="xtick"><text text-anchor="middle" x="0" y="439" transform="translate(562.94,0)" style="font-family: 'Open Sans', verdana, arial, sans-serif; font-size: 12px; fill: rgb(42, 63, 95); fill-opacity: 1; white-space: pre;">Jun 2020</text></g></g><g class="yaxislayer-above"><g class="ytick"><text text-anchor="end" x="79" y="4.199999999999999" transform="translate(0,426)" style="font-family: 'Open Sans', verdana, arial, sans-serif; font-size: 12px; fill: rgb(42, 63, 95); fill-opacity: 1; white-space: pre;">0</text></g><g class="ytick"><text text-anchor="end" x="79" y="4.199999999999999" transform="translate(0,379.19)" style="font-family: 'Open Sans', verdana, arial, sans-serif; font-size: 12px; fill: rgb(42, 63, 95); fill-opacity: 1; white-space: pre;">1M</text></g><g class="ytick"><text text-anchor="end" x="79" y="4.199999999999999" transform="translate(0,332.38)" style="font-family: 'Open Sans', verdana, arial, sans-serif; font-size: 12px; fill: rgb(42, 63, 95); fill-opacity: 1; white-space: pre;">2M</text></g><g class="ytick"><text text-anchor="end" x="79" y="4.199999999999999" transform="translate(0,285.58000000000004)" style="font-family: 'Open Sans', verdana, arial, sans-serif; font-size: 12px; fill: rgb(42, 63, 95); fill-opacity: 1; white-space: pre;">3M</text></g><g class="ytick"><text text-anchor="end" x="79" y="4.199999999999999" transform="translate(0,238.77)" style="font-family: 'Open Sans', verdana, arial, sans-serif; font-size: 12px; fill: rgb(42, 63, 95); fill-opacity: 1; white-space: pre;">4M</text></g><g class="ytick"><text text-anchor="end" x="79" y="4.199999999999999" transform="translate(0,191.95999999999998)" style="font-family: 'Open Sans', verdana, arial, sans-serif; font-size: 12px; fill: rgb(42, 63, 95); fill-opacity: 1; white-space: pre;">5M</text></g><g class="ytick"><text text-anchor="end" x="79" y="4.199999999999999" transform="translate(0,145.15)" style="font-family: 'Open Sans', verdana, arial, sans-serif; font-size: 12px; fill: rgb(42, 63, 95); fill-opacity: 1; white-space: pre;">6M</text></g></g><g class="overaxes-above"/></g></g><g class="polarlayer"/><g class="ternarylayer"/><g class="geolayer"/><g class="funnelarealayer"/><g class="pielayer"/><g class="treemaplayer"/><g class="sunburstlayer"/><g class="glimages"/><defs id="topdefs-f7fbab"><g class="clips"/><clipPath id="legendf7fbab"><rect width="104" height="83" x="0" y="0"/></clipPath><clipPath id="rangesliderx-f7fbab"><rect x="0" y="0" width="494" height="63"/></clipPath></defs><g class="layer-above"><g class="imagelayer"/><g class="shapelayer"/></g><g class="infolayer"><g class="legend" pointer-events="all" transform="translate(583.88, 100)"><rect class="bg" shape-rendering="crispEdges" style="stroke: rgb(68, 68, 68); stroke-opacity: 1; fill: rgb(255, 255, 255); fill-opacity: 1; stroke-width: 0px;" width="104" height="83" x="0" y="0"/><g class="scrollbox" transform="translate(0, 0)" clip-path="url('#legendf7fbab')"><text class="legendtitletext user-select-none" text-anchor="start" x="2" y="15.600000000000001" style="font-family: 'Open Sans', verdana, arial, sans-serif; font-size: 12px; fill: rgb(42, 63, 95); fill-opacity: 1; white-space: pre;">Case</text><g class="groups" transform="translate(0, 0)"><g class="traces" transform="translate(0, 30.1)" style="opacity: 1;"><text class="legendtext user-select-none" text-anchor="start" x="40" y="4.680000000000001" style="font-family: 'Open Sans', verdana, arial, sans-serif; font-size: 12px; fill: rgb(42, 63, 95); fill-opacity: 1; white-space: pre;">Recovered</text><g class="layers"><g class="legendfill"><path class="js-fill" d="M5,-2h30v6h-30z" style="stroke-width: 0; fill: rgb(40, 167, 69); fill-opacity: 0.5;"/></g><g class="legendlines"><path class="js-line" d="M5,-2h30" style="fill: none; stroke: rgb(40, 167, 69); stroke-opacity: 1; stroke-width: 2px;"/></g><g class="legendsymbols"><g class="legendpoints"/></g></g><rect class="legendtoggle" pointer-events="all" x="0" y="-9.5" width="98.03125" height="19" style="cursor: pointer; fill: rgb(0, 0, 0); fill-opacity: 0;"/></g></g><g class="groups" transform="translate(0, 0)"><g class="traces" transform="translate(0, 49.1)" style="opacity: 1;"><text class="legendtext user-select-none" text-anchor="start" x="40" y="4.680000000000001" style="font-family: 'Open Sans', verdana, arial, sans-serif; font-size: 12px; fill: rgb(42, 63, 95); fill-opacity: 1; white-space: pre;">Deaths</text><g class="layers"><g class="legendfill"><path class="js-fill" d="M5,-2h30v6h-30z" style="stroke-width: 0; fill: rgb(108, 117, 125); fill-opacity: 0.5;"/></g><g class="legendlines"><path class="js-line" d="M5,-2h30" style="fill: none; stroke: rgb(108, 117, 125); stroke-opacity: 1; stroke-width: 2px;"/></g><g class="legendsymbols"><g class="legendpoints"/></g></g><rect class="legendtoggle" pointer-events="all" x="0" y="-9.5" width="98.03125" height="19" style="cursor: pointer; fill: rgb(0, 0, 0); fill-opacity: 0;"/></g></g><g class="groups" transform="translate(0, 0)"><g class="traces" transform="translate(0, 68.1)" style="opacity: 1;"><text class="legendtext user-select-none" text-anchor="start" x="40" y="4.680000000000001" style="font-family: 'Open Sans', verdana, arial, sans-serif; font-size: 12px; fill: rgb(42, 63, 95); fill-opacity: 1; white-space: pre;">Active</text><g class="layers"><g class="legendfill"><path class="js-fill" d="M5,-2h30v6h-30z" style="stroke-width: 0; fill: rgb(255, 7, 58); fill-opacity: 0.5;"/></g><g class="legendlines"><path class="js-line" d="M5,-2h30" style="fill: none; stroke: rgb(255, 7, 58); stroke-opacity: 1; stroke-width: 2px;"/></g><g class="legendsymbols"><g class="legendpoints"/></g></g><rect class="legendtoggle" pointer-events="all" x="0" y="-9.5" width="98.03125" height="19" style="cursor: pointer; fill: rgb(0, 0, 0); fill-opacity: 0;"/></g></g></g><rect class="scrollbar" rx="20" ry="3" width="0" height="0" x="0" y="0" style="fill: rgb(128, 139, 164); fill-opacity: 1;"/></g><g class="g-gtitle"><text class="gtitle" x="35" y="50" text-anchor="start" dy="0em" style="font-family: 'Open Sans', verdana, arial, sans-serif; font-size: 17px; fill: rgb(42, 63, 95); opacity: 1; font-weight: normal; white-space: pre;">Cases over time</text></g><g class="rangeslider-container" pointer-events="all" transform="translate(80,457)"><rect class="rangeslider-bg" x="0" y="0" shape-rendering="crispEdges" width="494" height="63" transform="translate(0,0)" fill="#E5ECF6" stroke="#444" stroke-width="0"/><g class="rangeslider-rangeplot xy" clip-path="url('#rangesliderx-f7fbab')"><g class="layer-subplot"><g class="shapelayer"/><g class="imagelayer"/></g><g class="gridlayer"><g class="x"/><g class="y"/></g><g class="zerolinelayer"/><path class="xlines-below"/><path class="ylines-below"/><g class="overlines-below"/><g class="xaxislayer-below"/><g class="yaxislayer-below"/><g class="overaxes-below"/><g class="plot"><g class="scatterlayer mlayer rangeplot"><g class="trace scatter tracef809a4" style="stroke-miterlimit: 2;"><g class="fills"><g><path class="js-fill" d="M494,63L0,63L0,63L210.13,62.25L213.82,62.22L265.43,61.01L269.12,60.83L302.3,59.01L305.99,58.78L409.21,49.58L412.9,49.08L438.7,45.93L442.39,45.47L449.76,43.99L453.45,43.49L494,37.16" style="fill: rgb(40, 167, 69); fill-opacity: 0.5; stroke-width: 0;"/></g><g><path class="js-fill" d="M0,63L195.39,62.26L199.07,62.24L250.69,61.21L254.37,61.04L298.61,58.17L302.3,57.88L357.6,52.88L361.28,52.45L372.34,50.99L376.03,50.67L420.27,45.5L423.96,44.96L442.39,42.46L446.07,41.44L490.31,34.26L494,33.62L494,37.16L453.45,43.49L449.76,43.99L442.39,45.47L438.7,45.93L412.9,49.08L409.21,49.58L305.99,58.78L302.3,59.01L269.12,60.83L265.43,61.01L213.82,62.22L210.13,62.25L0,63Z" style="fill: rgb(108, 117, 125); fill-opacity: 0.5; stroke-width: 0;"/></g></g><g class="errorbars"/><g class="lines"><path class="js-line" d="M0,63L210.13,62.25L213.82,62.22L265.43,61.01L269.12,60.83L302.3,59.01L305.99,58.78L409.21,49.58L412.9,49.08L438.7,45.93L442.39,45.47L449.76,43.99L453.45,43.49L494,37.16" style="vector-effect: non-scaling-stroke; fill: none; stroke: rgb(40, 167, 69); stroke-opacity: 1; stroke-width: 2px; opacity: 1;"/></g><g class="points"/><g class="text"/></g><g class="trace scatter trace201209" style="stroke-miterlimit: 2;"><g class="fills"><g><path class="js-fill" d="M0,62.99L140.09,62.25L143.78,62.23L199.07,61.43L202.76,61.29L224.88,59.66L228.57,59.3L250.69,56.01L254.37,55.33L309.67,44.5L313.36,43.63L350.22,36.37L353.91,35.75L390.78,28.32L394.46,27.48L442.39,16.97L446.07,15.99L482.94,6.47L486.63,5.45L494,3.15L494,33.62L490.31,34.26L446.07,41.44L442.39,42.46L423.96,44.96L420.27,45.5L376.03,50.67L372.34,50.99L361.28,52.45L357.6,52.88L302.3,57.88L298.61,58.17L254.37,61.04L250.69,61.21L199.07,62.24L195.39,62.26L0,63Z" style="fill: rgb(255, 7, 58); fill-opacity: 0.5; stroke-width: 0;"/></g></g><g class="errorbars"/><g class="lines"><path class="js-line" d="M0,63L195.39,62.26L199.07,62.24L250.69,61.21L254.37,61.04L298.61,58.17L302.3,57.88L357.6,52.88L361.28,52.45L372.34,50.99L376.03,50.67L420.27,45.5L423.96,44.96L442.39,42.46L446.07,41.44L490.31,34.26L494,33.62" style="vector-effect: non-scaling-stroke; fill: none; stroke: rgb(108, 117, 125); stroke-opacity: 1; stroke-width: 2px; opacity: 1;"/></g><g class="points"/><g class="text"/></g><g class="trace scatter trace3e3e44" style="stroke-miterlimit: 2;"><g class="fills"/><g class="errorbars"/><g class="lines"><path class="js-line" d="M0,62.99L140.09,62.25L143.78,62.23L199.07,61.43L202.76,61.29L224.88,59.66L228.57,59.3L250.69,56.01L254.37,55.33L309.67,44.5L313.36,43.63L350.22,36.37L353.91,35.75L390.78,28.32L394.46,27.48L442.39,16.97L446.07,15.99L482.94,6.47L486.63,5.45L494,3.15" style="vector-effect: non-scaling-stroke; fill: none; stroke: rgb(255, 7, 58); stroke-opacity: 1; stroke-width: 2px; opacity: 1;"/></g><g class="points"/><g class="text"/></g></g></g><g class="overplot"/><path class="xlines-above crisp" style="fill: none;"/><path class="ylines-above crisp" style="fill: none;"/><g class="overlines-above"/><g class="xaxislayer-above"/><g class="yaxislayer-above"/><g class="overaxes-above"/></g><rect class="rangeslider-mask-min" x="0" y="0" shape-rendering="crispEdges" height="63" width="0" style="fill: rgb(0, 0, 0); fill-opacity: 0.4;"/><rect class="rangeslider-mask-max" y="0" shape-rendering="crispEdges" height="63" x="494" width="0" style="fill: rgb(0, 0, 0); fill-opacity: 0.4;"/><g class="rangeslider-grabber-min" transform="translate(-2.5,0.5)"><rect class="rangeslider-handle-min" x="0" width="4" rx="1" fill="#fff" stroke="#444" stroke-width="1" shape-rendering="crispEdges" y="16" height="32"/></g><g class="rangeslider-grabber-max" transform="translate(492.5,0.5)"><rect class="rangeslider-handle-max" x="0" width="4" rx="1" fill="#fff" stroke="#444" stroke-width="1" shape-rendering="crispEdges" y="16" height="32"/></g></g><g class="g-ytitle"><text class="ytitle" transform="rotate(-90,37.528125,263)" x="37.528125" y="263" text-anchor="middle" style="font-family: 'Open Sans', verdana, arial, sans-serif; font-size: 14px; fill: rgb(42, 63, 95); opacity: 1; font-weight: normal; white-space: pre;">Count</text></g><g class="g-xtitle"><text class="xtitle" x="327" y="551" text-anchor="middle" style="font-family: 'Open Sans', verdana, arial, sans-serif; font-size: 14px; fill: rgb(42, 63, 95); opacity: 1; font-weight: normal; white-space: pre;">Date</text></g></g></svg>