<svg class="main-svg" xmlns="http://www.w3.org/2000/svg" xmlns:xlink="http://www.w3.org/1999/xlink" width="700" height="600" style="" viewBox="0 0 700 600"><rect x="0" y="0" width="700" height="600" style="fill: rgb(255, 255, 255); fill-opacity: 1;"/><defs id="defs-76341f"><g class="clips"><clipPath id="clip76341fxyplot" class="plotclip"><rect width="490" height="324"/></clipPath><clipPath class="axesclip" id="clip76341fx"><rect x="80" y="0" width="490" height="600"/></clipPath><clipPath class="axesclip" id="clip76341fy"><rect x="0" y="100" width="700" height="324"/></clipPath><clipPath class="axesclip" id="clip76341fxy"><rect x="80" y="100" width="490" height="324"/></clipPath></g><g class="gradients"/></defs><g class="bglayer"><rect class="bg" x="80" y="100" width="490" height="324" style="fill: rgb(229, 236, 246); fill-opacity: 1; stroke-width: 0;"/></g><g class="layer-below"><g class="imagelayer"/><g class="shapelayer"/></g><g class="cartesianlayer"><g class="subplot xy"><g class="layer-subplot"><g class="shapelayer"/><g class="imagelayer"/></g><g class="gridlayer"><g class="x"><path class="xgrid crisp" transform="translate(103.78999999999999,0)" d="M0,100v324" style="stroke: rgb(255, 255, 255); stroke-opacity: 1; stroke-width: 1px;"/><path class="xgrid crisp" transform="translate(172.76999999999998,0)" d="M0,100v324" style="stroke: rgb(255, 255, 255); stroke-opacity: 1; stroke-width: 1px;"/><path class="xgrid crisp" transform="translate(246.5,0)" d="M0,100v324" style="stroke: rgb(255, 255, 255); stroke-opacity: 1; stroke-width: 1px;"/><path class="xgrid crisp" transform="translate(317.86,0)" d="M0,100v324" style="stroke: rgb(255, 255, 255); stroke-opacity: 1; stroke-width: 1px;"/><path class="xgrid crisp" transform="translate(391.6,0)" d="M0,100v324" style="stroke: rgb(255, 255, 255); stroke-opacity: 1; stroke-width: 1px;"/><path class="xgrid crisp" transform="translate(462.96,0)" d="M0,100v324" style="stroke: rgb(255, 255, 255); stroke-opacity: 1; stroke-width: 1px;"/><path class="xgrid crisp" transform="translate(536.7,0)" d="M0,100v324" style="stroke: rgb(255, 255, 255); stroke-opacity: 1; stroke-width: 1px;"/></g><g class="y"><path class="ygrid crisp" transform="translate(0,352.2)" d="M80,0h490" style="stroke: rgb(255, 255, 255); stroke-opacity: 1; stroke-width: 1px;"/><path class="ygrid crisp" transform="translate(0,280.39)" d="M80,0h490" style="stroke: rgb(255, 255, 255); stroke-opacity: 1; stroke-width: 1px;"/><path class="ygrid crisp" transform="translate(0,208.59)" d="M80,0h490" style="stroke: rgb(255, 255, 255); stroke-opacity: 1; stroke-width: 1px;"/><path class="ygrid crisp" transform="translate(0,136.78)" d="M80,0h490" style="stroke: rgb(255, 255, 255); stroke-opacity: 1; stroke-width: 1px;"/></g></g><g class="zerolinelayer"><path class="yzl zl crisp" transform="translate(0,424)" d="M80,0h490" style="stroke: rgb(255, 255, 255); stroke-opacity: 1; stroke-width: 2px;"/></g><path class="xlines-below"/><path class="ylines-below"/><g class="overlines-below"/><g class="xaxislayer-below"/><g class="yaxislayer-below"/><g class="overaxes-below"/><g class="plot" transform="translate(80, 100)" clip-path="url('#clip76341fxyplot')"><g class="scatterlayer mlayer"><g class="trace scatter trace28e30c" style="stroke-miterlimit: 2;"><g class="fills"><g><path class="js-fill" d="M490,324L0,324L0,324L99.9,323.27L102.28,323.23L159.37,321.93L161.75,321.72L185.53,319.02L187.91,318.71L223.59,312.4L225.97,311.99L233.11,310.51L235.49,309.58L271.17,300.7L273.54,299.89L285.44,296.22L287.82,294.67L304.47,288.41L306.84,287.4L325.87,279.07L328.25,276.9L352.04,264.54L354.42,263.18L359.17,260.53L361.55,259.22L382.96,245.7L385.34,241.62L387.72,240.04L390.1,237.23L397.23,231.66L399.61,229.4L418.64,213.53L421.02,210.9L432.91,200.15L435.29,197.71L440.05,191.27L442.43,189.25L449.56,181.43L451.94,178.24L478.11,147.95L480.49,143.58L487.62,133.65L490,131.23" style="fill: rgb(40, 167, 69); fill-opacity: 0.5; stroke-width: 0;"/></g><g><path class="js-fill" d="M0,324L97.52,323.26L99.9,323.22L156.99,321.61L159.37,321.43L183.16,318.03L185.53,317.56L211.7,312.35L214.08,311.74L233.11,307.21L235.49,306.19L271.17,296.25L273.54,295.37L283.06,292.21L285.44,291.4L290.19,288.93L292.57,288.09L311.6,280.09L313.98,278.53L325.87,273.25L328.25,271.02L352.04,257.99L354.42,256.54L359.17,253.78L361.55,252.41L382.96,238.3L385.34,234.13L387.72,232.48L390.1,229.61L397.23,223.85L399.61,221.51L418.64,205.06L421.02,202.33L432.91,191.2L435.29,188.61L440.05,182L442.43,179.94L449.56,171.85L451.94,168.57L478.11,137.39L480.49,132.92L487.62,122.69L490,120.17L490,131.23L487.62,133.65L480.49,143.58L478.11,147.95L451.94,178.24L449.56,181.43L442.43,189.25L440.05,191.27L435.29,197.71L432.91,200.15L421.02,210.9L418.64,213.53L399.61,229.4L397.23,231.66L390.1,237.23L387.72,240.04L385.34,241.62L382.96,245.7L361.55,259.22L359.17,260.53L354.42,263.18L352.04,264.54L328.25,276.9L325.87,279.07L306.84,287.4L304.47,288.41L287.82,294.67L285.44,296.22L273.54,299.89L271.17,300.7L235.49,309.58L233.11,310.51L225.97,311.99L223.59,312.4L187.91,318.71L185.53,319.02L161.75,321.72L159.37,321.93L102.28,323.23L99.9,323.27L0,324Z" style="fill: rgb(108, 117, 125); fill-opacity: 0.5; stroke-width: 0;"/></g></g><g class="errorbars"/><g class="lines"><path class="js-line" d="M0,324L99.9,323.27L102.28,323.23L159.37,321.93L161.75,321.72L185.53,319.02L187.91,318.71L223.59,312.4L225.97,311.99L233.11,310.51L235.49,309.58L271.17,300.7L273.54,299.89L285.44,296.22L287.82,294.67L304.47,288.41L306.84,287.4L325.87,279.07L328.25,276.9L352.04,264.54L354.42,263.18L359.17,260.53L361.55,259.22L382.96,245.7L385.34,241.62L387.72,240.04L390.1,237.23L397.23,231.66L399.61,229.4L418.64,213.53L421.02,210.9L432.91,200.15L435.29,197.71L440.05,191.27L442.43,189.25L449.56,181.43L451.94,178.24L478.11,147.95L480.49,143.58L487.62,133.65L490,131.23" style="vector-effect: non-scaling-stroke; fill: none; stroke: rgb(40, 167, 69); stroke-opacity: 1; stroke-width: 2px; opacity: 1;"/></g><g class="points"/><g class="text"/></g><g class="trace scatter trace8461ed" style="stroke-miterlimit: 2;"><g class="fills"><g><path class="js-fill" d="M0,323.99L49.95,323.35L52.33,323.13L78.5,322.87L80.87,322.86L121.31,322.01L123.69,321.85L137.96,320.15L140.34,319.69L149.85,317.29L152.23,316.39L168.88,309.36L171.26,308.16L266.41,261.71L268.79,260.32L302.09,240.64L304.47,238.91L309.22,235.39L311.6,234.02L340.15,212.37L342.52,210.45L349.66,204.67L352.04,202.66L359.17,195.96L361.55,193.99L380.58,174.21L382.96,171.09L416.26,129.58L418.64,125.95L435.29,101.58L437.67,97.55L487.62,20.46L490,16.2L490,120.17L487.62,122.69L480.49,132.92L478.11,137.39L451.94,168.57L449.56,171.85L442.43,179.94L440.05,182L435.29,188.61L432.91,191.2L421.02,202.33L418.64,205.06L399.61,221.51L397.23,223.85L390.1,229.61L387.72,232.48L385.34,234.13L382.96,238.3L361.55,252.41L359.17,253.78L354.42,256.54L352.04,257.99L328.25,271.02L325.87,273.25L313.98,278.53L311.6,280.09L292.57,288.09L290.19,288.93L285.44,291.4L283.06,292.21L273.54,295.37L271.17,296.25L235.49,306.19L233.11,307.21L214.08,311.74L211.7,312.35L185.53,317.56L183.16,318.03L159.37,321.43L156.99,321.61L99.9,323.22L97.52,323.26L0,324Z" style="fill: rgb(255, 7, 58); fill-opacity: 0.5; stroke-width: 0;"/></g></g><g class="errorbars"/><g class="lines"><path class="js-line" d="M0,324L97.52,323.26L99.9,323.22L156.99,321.61L159.37,321.43L183.16,318.03L185.53,317.56L211.7,312.35L214.08,311.74L233.11,307.21L235.49,306.19L271.17,296.25L273.54,295.37L283.06,292.21L285.44,291.4L290.19,288.93L292.57,288.09L311.6,280.09L313.98,278.53L325.87,273.25L328.25,271.02L352.04,257.99L354.42,256.54L359.17,253.78L361.55,252.41L382.96,238.3L385.34,234.13L387.72,232.48L390.1,229.61L397.23,223.85L399.61,221.51L418.64,205.06L421.02,202.33L432.91,191.2L435.29,188.61L440.05,182L442.43,179.94L449.56,171.85L451.94,168.57L478.11,137.39L480.49,132.92L487.62,122.69L490,120.17" style="vector-effect: non-scaling-stroke; fill: none; stroke: rgb(108, 117, 125); stroke-opacity: 1; stroke-width: 2px; opacity: 1;"/></g><g class="points"/><g class="text"/></g><g class="trace scatter trace03b4b9" style="stroke-miterlimit: 2;"><g class="fills"/><g class="errorbars"/><g class="lines"><path class="js-line" d="M0,323.99L49.95,323.35L52.33,323.13L78.5,322.87L80.87,322.86L121.31,322.01L123.69,321.85L137.96,320.15L140.34,319.69L149.85,317.29L152.23,316.39L168.88,309.36L171.26,308.16L266.41,261.71L268.79,260.32L302.09,240.64L304.47,238.91L309.22,235.39L311.6,234.02L340.15,212.37L342.52,210.45L349.66,204.67L352.04,202.66L359.17,195.96L361.55,193.99L380.58,174.21L382.96,171.09L416.26,129.58L418.64,125.95L435.29,101.58L437.67,97.55L487.62,20.46L490,16.2" style="vector-effect: non-scaling-stroke; fill: none; stroke: rgb(255, 7, 58); stroke-opacity: 1; stroke-width: 2px; opacity: 1;"/></g><g class="points"/><g class="text"/></g></g></g><g class="overplot"/><path class="xlines-above crisp" style="fill: none; stroke-width: 1px; stroke: rgb(255, 255, 255); stroke-opacity: 1;" d="M79,424.5H570"/><path class="ylines-above crisp" style="fill: none; stroke-width: 1px; stroke: rgb(255, 255, 255); stroke-opacity: 1;" d="M79.5,100V424"/><g class="overlines-above"/><g class="xaxislayer-above"><g class="xtick"><text text-anchor="middle" x="0" y="439.4" transform="translate(103.78999999999999,0)" style="font-family: 'Open Sans', verdana, arial, sans-serif; font-size: 12px; fill: rgb(42, 63, 95); fill-opacity: 1; white-space: pre;">Feb 2020</text></g><g class="xtick"><text text-anchor="middle" x="0" y="439.4" transform="translate(172.76999999999998,0)" style="font-family: 'Open Sans', verdana, arial, sans-serif; font-size: 12px; fill: rgb(42, 63, 95); fill-opacity: 1; white-space: pre;">Mar 2020</text></g><g class="xtick"><text text-anchor="middle" x="0" y="439.4" transform="translate(246.5,0)" style="font-family: 'Open Sans', verdana, arial, sans-serif; font-size: 12px; fill: rgb(42, 63, 95); fill-opacity: 1; white-space: pre;">Apr 2020</text></g><g class="xtick"><text text-anchor="middle" x="0" y="439.4" transform="translate(317.86,0)" style="font-family: 'Open Sans', verdana, arial, sans-serif; font-size: 12px; fill: rgb(42, 63, 95); fill-opacity: 1; white-space: pre;">May 2020</text></g><g class="xtick"><text text-anchor="middle" x="0" y="439.4" transform="translate(391.6,0)" style="font-family: 'Open Sans', verdana, arial, sans-serif; font-size: 12px; fill: rgb(42, 63, 95); fill-opacity: 1; white-space: pre;">Jun 2020</text></g><g class="xtick"><text text-anchor="middle" x="0" y="439.4" transform="translate(462.96,0)" style="font-family: 'Open Sans', verdana, arial, sans-serif; font-size: 12px; fill: rgb(42, 63, 95); fill-opacity: 1; white-space: pre;">Jul 2020</text></g><g class="xtick"><text text-anchor="middle" x="0" y="439.4" transform="translate(536.7,0)" style="font-family: 'Open Sans', verdana, arial, sans-serif; font-size: 12px; fill: rgb(42, 63, 95); fill-opacity: 1; white-space: pre;">Aug 2020</text></g></g><g class="yaxislayer-above"><g class="ytick"><text text-anchor="end" x="76.6" y="4.199999999999999" transform="translate(0,424)" style="font-family: 'Open Sans', verdana, arial, sans-serif; font-size: 12px; fill: rgb(42, 63, 95); fill-opacity: 1; white-space: pre;">0</text></g><g class="ytick"><text text-anchor="end" x="76.6" y="4.199999999999999" transform="translate(0,352.2)" style="font-family: 'Open Sans', verdana, arial, sans-serif; font-size: 12px; fill: rgb(42, 63, 95); fill-opacity: 1; white-space: pre;">5M</text></g><g class="ytick"><text text-anchor="end" x="76.6" y="4.199999999999999" transform="translate(0,280.39)" style="font-family: 'Open Sans', verdana, arial, sans-serif; font-size: 12px; fill: rgb(42, 63, 95); fill-opacity: 1; white-space: pre;">10M</text></g><g class="ytick"><text text-anchor="end" x="76.6" y="4.199999999999999" transform="translate(0,208.59)" style="font-family: 'Open Sans', verdana, arial, sans-serif; font-size: 12px; fill: rgb(42, 63, 95); fill-opacity: 1; white-space: pre;">15M</text></g><g class="ytick"><text text-anchor="end" x="76.6" y="4.199999999999999" transform="translate(0,136.78)" style="font-family: 'Open Sans', verdana, arial, sans-serif; font-size: 12px; fill: rgb(42, 63, 95); fill-opacity: 1; white-space: pre;">20M</text></g></g><g class="overaxes-above"/></g></g><g class="polarlayer"/><g class="ternarylayer"/><g class="geolayer"/><g class="funnelarealayer"/><g class="pielayer"/><g class="treemaplayer"/><g class="sunburstlayer"/><g class="glimages"/><defs id="topdefs-76341f"><g class="clips"/><clipPath id="legend76341f"><rect width="108" height="83" x="0" y="0"/></clipPath><clipPath id="rangesliderx-76341f"><rect x="0" y="0" width="490" height="63"/></clipPath></defs><g class="layer-above"><g class="imagelayer"/><g class="shapelayer"/></g><g class="infolayer"><g class="legend" pointer-events="all" transform="translate(579.8, 100)"><rect class="bg" shape-rendering="crispEdges" style="stroke: rgb(68, 68, 68); stroke-opacity: 1; fill: rgb(255, 255, 255); fill-opacity: 1; stroke-width: 0px;" width="108" height="83" x="0" y="0"/><g class="scrollbox" transform="translate(0, 0)" clip-path="url('#legend76341f')"><text class="legendtitletext user-select-none" text-anchor="start" x="2" y="15.600000000000001" style="font-family: 'Open Sans', verdana, arial, sans-serif; font-size: 12px; fill: rgb(42, 63, 95); fill-opacity: 1; white-space: pre;">Case</text><g class="groups" transform="translate(0, 0)"><g class="traces" transform="translate(0, 30.1)" style="opacity: 1;"><text class="legendtext user-select-none" text-anchor="start" x="40" y="4.680000000000001" style="font-family: 'Open Sans', verdana, arial, sans-serif; font-size: 12px; fill: rgb(42, 63, 95); fill-opacity: 1; white-space: pre;">Recovered</text><g class="layers"><g class="legendfill"><path class="js-fill" d="M5,-2h30v6h-30z" style="stroke-width: 0; fill: rgb(40, 167, 69); fill-opacity: 0.5;"/></g><g class="legendlines"><path class="js-line" d="M5,-2h30" style="fill: none; stroke: rgb(40, 167, 69); stroke-opacity: 1; stroke-width: 2px;"/></g><g class="legendsymbols"><g class="legendpoints"/></g></g><rect class="legendtoggle" pointer-events="all" x="0" y="-9.5" width="102.546875" height="19" style="cursor: pointer; fill: rgb(0, 0, 0); fill-opacity: 0;"/></g></g><g class="groups" transform="translate(0, 0)"><g class="traces" transform="translate(0, 49.1)" style="opacity: 1;"><text class="legendtext user-select-none" text-anchor="start" x="40" y="4.680000000000001" style="font-family: 'Open Sans', verdana, arial, sans-serif; font-size: 12px; fill: rgb(42, 63, 95); fill-opacity: 1; white-space: pre;">Deaths</text><g class="layers"><g class="legendfill"><path class="js-fill" d="M5,-2h30v6h-30z" style="stroke-width: 0; fill: rgb(108, 117, 125); fill-opacity: 0.5;"/></g><g class="legendlines"><path class="js-line" d="M5,-2h30" style="fill: none; stroke: rgb(108, 117, 125); stroke-opacity: 1; stroke-width: 2px;"/></g><g class="legendsymbols"><g class="legendpoints"/></g></g><rect class="legendtoggle" pointer-events="all" x="0" y="-9.5" width="102.546875" height="19" style="cursor: pointer; fill: rgb(0, 0, 0); fill-opacity: 0;"/></g></g><g class="groups" transform="translate(0, 0)"><g class="traces" transform="translate(0, 68.1)" style="opacity: 1;"><text class="legendtext user-select-none" text-anchor="start" x="40" y="4.680000000000001" style="font-family: 'Open Sans', verdana, arial, sans-serif; font-size: 12px; fill: rgb(42, 63, 95); fill-opacity: 1; white-space: pre;">Active</text><g class="layers"><g class="legendfill"><path class="js-fill" d="M5,-2h30v6h-30z" style="stroke-width: 0; fill: rgb(255, 7, 58); fill-opacity: 0.5;"/></g><g class="legendlines"><path class="js-line" d="M5,-2h30" style="fill: none; stroke: rgb(255, 7, 58); stroke-opacity: 1; stroke-width: 2px;"/></g><g class="legendsymbols"><g class="legendpoints"/></g></g><rect class="legendtoggle" pointer-events="all" x="0" y="-9.5" width="102.546875" height="19" style="cursor: pointer; fill: rgb(0, 0, 0); fill-opacity: 0;"/></g></g></g><rect class="scrollbar" rx="20" ry="3" width="0" height="0" x="0" y="0" style="fill: rgb(128, 139, 164); fill-opacity: 1;"/></g><g class="g-gtitle"><text class="gtitle" x="35" y="50" text-anchor="start" dy="0em" style="font-family: 'Open Sans', verdana, arial, sans-serif; font-size: 17px; fill: rgb(42, 63, 95); opacity: 1; font-weight: normal; white-space: pre;">Cases over time</text></g><g class="rangeslider-container" pointer-events="all" transform="translate(80,457)"><rect class="rangeslider-bg" x="0" y="0" shape-rendering="crispEdges" width="490" height="63" transform="translate(0,0)" fill="#E5ECF6" stroke="#444" stroke-width="0"/><g class="rangeslider-rangeplot xy" clip-path="url('#rangesliderx-76341f')"><g class="layer-subplot"><g class="shapelayer"/><g class="imagelayer"/></g><g class="gridlayer"><g class="x"/><g class="y"/></g><g class="zerolinelayer"/><path class="xlines-below"/><path class="ylines-below"/><g class="overlines-below"/><g class="xaxislayer-below"/><g class="yaxislayer-below"/><g class="overaxes-below"/><g class="plot"><g class="scatterlayer mlayer rangeplot"><g class="trace scatter trace28e30c" style="stroke-miterlimit: 2;"><g class="fills"><g><path class="js-fill" d="M490,63L0,63L0,63L178.4,62.25L180.78,62.18L268.79,58.6L271.17,58.47L325.87,54.26L328.25,53.84L380.58,48.1L382.96,47.78L390.1,46.13L392.48,45.79L421.02,41.01L423.4,40.59L432.91,38.92L435.29,38.44L451.94,34.66L454.32,34.1L480.49,27.92L482.86,27.24L490,25.52" style="fill: rgb(40, 167, 69); fill-opacity: 0.5; stroke-width: 0;"/></g><g><path class="js-fill" d="M0,63L168.88,62.27L171.26,62.21L233.11,59.73L235.49,59.54L294.95,55.84L297.33,55.67L337.77,51.73L340.15,51.48L363.93,48.77L366.31,48.44L385.34,45.53L387.72,45.21L399.61,43.07L401.99,42.68L435.29,36.67L437.67,36.02L456.7,31.68L459.08,31.28L490,23.37L490,25.52L482.86,27.24L480.49,27.92L454.32,34.1L451.94,34.66L435.29,38.44L432.91,38.92L423.4,40.59L421.02,41.01L392.48,45.79L390.1,46.13L382.96,47.78L380.58,48.1L328.25,53.84L325.87,54.26L271.17,58.47L268.79,58.6L180.78,62.18L178.4,62.25L0,63Z" style="fill: rgb(108, 117, 125); fill-opacity: 0.5; stroke-width: 0;"/></g></g><g class="errorbars"/><g class="lines"><path class="js-line" d="M0,63L178.4,62.25L180.78,62.18L268.79,58.6L271.17,58.47L325.87,54.26L328.25,53.84L380.58,48.1L382.96,47.78L390.1,46.13L392.48,45.79L421.02,41.01L423.4,40.59L432.91,38.92L435.29,38.44L451.94,34.66L454.32,34.1L480.49,27.92L482.86,27.24L490,25.52" style="vector-effect: non-scaling-stroke; fill: none; stroke: rgb(40, 167, 69); stroke-opacity: 1; stroke-width: 2px; opacity: 1;"/></g><g class="points"/><g class="text"/></g><g class="trace scatter trace8461ed" style="stroke-miterlimit: 2;"><g class="fills"><g><path class="js-fill" d="M0,63L137.96,62.25L140.34,62.16L164.13,60.59L166.5,60.38L302.09,46.79L304.47,46.45L371.07,35.75L373.45,35.25L397.23,30.01L399.61,29.42L447.18,16.32L449.56,15.52L473.35,8.23L475.73,7.61L490,3.15L490,23.37L459.08,31.28L456.7,31.68L437.67,36.02L435.29,36.67L401.99,42.68L399.61,43.07L387.72,45.21L385.34,45.53L366.31,48.44L363.93,48.77L340.15,51.48L337.77,51.73L297.33,55.67L294.95,55.84L235.49,59.54L233.11,59.73L171.26,62.21L168.88,62.27L0,63Z" style="fill: rgb(255, 7, 58); fill-opacity: 0.5; stroke-width: 0;"/></g></g><g class="errorbars"/><g class="lines"><path class="js-line" d="M0,63L168.88,62.27L171.26,62.21L233.11,59.73L235.49,59.54L294.95,55.84L297.33,55.67L337.77,51.73L340.15,51.48L363.93,48.77L366.31,48.44L385.34,45.53L387.72,45.21L399.61,43.07L401.99,42.68L435.29,36.67L437.67,36.02L456.7,31.68L459.08,31.28L490,23.37" style="vector-effect: non-scaling-stroke; fill: none; stroke: rgb(108, 117, 125); stroke-opacity: 1; stroke-width: 2px; opacity: 1;"/></g><g class="points"/><g class="text"/></g><g class="trace scatter trace03b4b9" style="stroke-miterlimit: 2;"><g class="fills"/><g class="errorbars"/><g class="lines"><path class="js-line" d="M0,63L137.96,62.25L140.34,62.16L164.13,60.59L166.5,60.38L302.09,46.79L304.47,46.45L371.07,35.75L373.45,35.25L397.23,30.01L399.61,29.42L447.18,16.32L449.56,15.52L473.35,8.23L475.73,7.61L490,3.15" style="vector-effect: non-scaling-stroke; fill: none; stroke: rgb(255, 7, 58); stroke-opacity: 1; stroke-width: 2px; opacity: 1;"/></g><g class="points"/><g class="text"/></g></g></g><g class="overplot"/><path class="xlines-above crisp" style="fill: none;"/><path class="ylines-above crisp" style="fill: none;"/><g class="overlines-above"/><g class="xaxislayer-above"/><g class="yaxislayer-above"/><g class="overaxes-above"/></g><rect class="rangeslider-mask-min" x="0" y="0" shape-rendering="crispEdges" height="63" width="0" style="fill: rgb(0, 0, 0); fill-opacity: 0.4;"/><rect class="rangeslider-mask-max" y="0" shape-rendering="crispEdges" height="63" x="490" width="0" style="fill: rgb(0, 0, 0); fill-opacity: 0.4;"/><g class="rangeslider-grabber-min" transform="translate(-2.5,0.5)"><rect class="rangeslider-handle-min" x="0" width="4" rx="1" fill="#fff" stroke="#444" stroke-width="1" shape-rendering="crispEdges" y="16" height="32"/></g><g class="rangeslider-grabber-max" transform="translate(488.5,0.5)"><rect class="rangeslider-handle-max" x="0" width="4" rx="1" fill="#fff" stroke="#444" stroke-width="1" shape-rendering="crispEdges" y="16" height="32"/></g></g><g class="g-ytitle"><text class="ytitle" transform="rotate(-90,26.418750000000003,262)" x="26.418750000000003" y="262" text-anchor="middle" style="font-family: 'Open Sans', verdana, arial, sans-serif; font-size: 14px; fill: rgb(42, 63, 95); opacity: 1; font-weight: normal; white-space: pre;">Count</text></g><g class="g-xtitle"><text class="xtitle" x="325" y="551" text-anchor="middle" style="font-family: 'Open Sans', verdana, arial, sans-serif; font-size: 14px; fill: rgb(42, 63, 95); opacity: 1; font-weight: normal; white-space: pre;">Date</text></g></g></svg>