<svg class="main-svg" xmlns="http://www.w3.org/2000/svg" xmlns:xlink="http://www.w3.org/1999/xlink" width="700" height="600" style="" viewBox="0 0 700 600"><rect x="0" y="0" width="700" height="600" style="fill: rgb(255, 255, 255); fill-opacity: 1;"/><defs id="defs-d6837b"><g class="clips"><clipPath id="clipd6837bxyplot" class="plotclip"><rect width="490" height="324"/></clipPath><clipPath class="axesclip" id="clipd6837bx"><rect x="80" y="0" width="490" height="600"/></clipPath><clipPath class="axesclip" id="clipd6837by"><rect x="0" y="100" width="700" height="324"/></clipPath><clipPath class="axesclip" id="clipd6837bxy"><rect x="80" y="100" width="490" height="324"/></clipPath></g><g class="gradients"/></defs><g class="bglayer"><rect class="bg" x="80" y="100" width="490" height="324" style="fill: rgb(229, 236, 246); fill-opacity: 1; stroke-width: 0;"/></g><g class="layer-below"><g class="imagelayer"/><g class="shapelayer"/></g><g class="cartesianlayer"><g class="subplot xy"><g class="layer-subplot"><g class="shapelayer"/><g class="imagelayer"/></g><g class="gridlayer"><g class="x"><path class="xgrid crisp" transform="translate(157.06,0)" d="M0,100v324" style="stroke: rgb(255, 255, 255); stroke-opacity: 1; stroke-width: 1px;"/><path class="xgrid crisp" transform="translate(277.58000000000004,0)" d="M0,100v324" style="stroke: rgb(255, 255, 255); stroke-opacity: 1; stroke-width: 1px;"/><path class="xgrid crisp" transform="translate(398.1,0)" d="M0,100v324" style="stroke: rgb(255, 255, 255); stroke-opacity: 1; stroke-width: 1px;"/><path class="xgrid crisp" transform="translate(520.6,0)" d="M0,100v324" style="stroke: rgb(255, 255, 255); stroke-opacity: 1; stroke-width: 1px;"/></g><g class="y"><path class="ygrid crisp" transform="translate(0,377.08)" d="M80,0h490" style="stroke: rgb(255, 255, 255); stroke-opacity: 1; stroke-width: 1px;"/><path class="ygrid crisp" transform="translate(0,330.16999999999996)" d="M80,0h490" style="stroke: rgb(255, 255, 255); stroke-opacity: 1; stroke-width: 1px;"/><path class="ygrid crisp" transform="translate(0,283.25)" d="M80,0h490" style="stroke: rgb(255, 255, 255); stroke-opacity: 1; stroke-width: 1px;"/><path class="ygrid crisp" transform="translate(0,236.33)" d="M80,0h490" style="stroke: rgb(255, 255, 255); stroke-opacity: 1; stroke-width: 1px;"/><path class="ygrid crisp" transform="translate(0,189.42000000000002)" d="M80,0h490" style="stroke: rgb(255, 255, 255); stroke-opacity: 1; stroke-width: 1px;"/><path class="ygrid crisp" transform="translate(0,142.5)" d="M80,0h490" style="stroke: rgb(255, 255, 255); stroke-opacity: 1; stroke-width: 1px;"/></g></g><g class="zerolinelayer"><path class="yzl zl crisp" transform="translate(0,424)" d="M80,0h490" style="stroke: rgb(255, 255, 255); stroke-opacity: 1; stroke-width: 2px;"/></g><path class="xlines-below"/><path class="ylines-below"/><g class="overlines-below"/><g class="xaxislayer-below"/><g class="yaxislayer-below"/><g class="overaxes-below"/><g class="plot" transform="translate(80, 100)" clip-path="url('#clipd6837bxyplot')"><g class="scatterlayer mlayer"><g class="trace scatter tracedfb675" style="stroke-miterlimit: 2;"><g class="fills"><g><path class="js-fill" d="M490,324L0,324L0,324L108.67,323.25L110.65,323.23L136.33,322.38L138.31,322.24L165.97,319.28L167.94,319L193.63,315.19L195.6,314.58L229.19,307.86L231.17,307.37L243.02,303.8L245,303.21L258.83,298.86L260.81,297.88L280.56,290.16L282.54,289.35L288.47,287.02L290.44,285.91L302.3,280.7L304.27,279.61L318.1,272.84L320.08,270.17L324.03,267.3L326.01,266.18L339.84,257.39L341.81,256.08L357.62,244.73L359.6,243.08L363.55,239.33L365.52,237.27L371.45,232.74L373.43,230.85L379.35,225.17L381.33,223.88L393.19,212.17L395.16,210.52L397.14,208.97L399.11,206.11L408.99,195.88L410.97,193.89L420.85,184.2L422.82,182.18L438.63,166.42L440.6,164.03L478.15,124.87L480.12,122.59L488.02,113.44L490,111.15" style="fill: rgb(40, 167, 69); fill-opacity: 0.5; stroke-width: 0;"/></g><g><path class="js-fill" d="M0,324L102.74,323.27L104.72,323.23L132.38,322.39L134.35,322.22L154.11,319.97L156.09,319.7L193.63,313.34L195.6,312.68L231.17,304.74L233.15,304.22L254.88,297.01L256.85,296.27L262.78,293.92L264.76,293.22L272.66,289.83L274.64,289.02L294.4,280.41L296.37,279.29L302.3,276.7L304.27,275.57L318.1,268.53L320.08,265.81L324.03,262.87L326.01,261.72L341.81,251.27L343.79,249.89L361.57,236.13L363.55,233.93L367.5,230.47L369.48,228.84L377.38,221.14L379.35,219.36L383.31,215.91L385.28,213.77L393.19,206L395.16,204.3L397.14,202.71L399.11,199.79L408.99,189.26L410.97,187.24L420.85,177.27L422.82,175.21L438.63,159.08L440.6,156.63L478.15,116.55L480.12,114.24L488.02,104.88L490,102.55L490,111.15L488.02,113.44L480.12,122.59L478.15,124.87L440.6,164.03L438.63,166.42L422.82,182.18L420.85,184.2L410.97,193.89L408.99,195.88L399.11,206.11L397.14,208.97L395.16,210.52L393.19,212.17L381.33,223.88L379.35,225.17L373.43,230.85L371.45,232.74L365.52,237.27L363.55,239.33L359.6,243.08L357.62,244.73L341.81,256.08L339.84,257.39L326.01,266.18L324.03,267.3L320.08,270.17L318.1,272.84L304.27,279.61L302.3,280.7L290.44,285.91L288.47,287.02L282.54,289.35L280.56,290.16L260.81,297.88L258.83,298.86L245,303.21L243.02,303.8L231.17,307.37L229.19,307.86L195.6,314.58L193.63,315.19L167.94,319L165.97,319.28L138.31,322.24L136.33,322.38L110.65,323.23L108.67,323.25L0,324Z" style="fill: rgb(108, 117, 125); fill-opacity: 0.5; stroke-width: 0;"/></g></g><g class="errorbars"/><g class="lines"><path class="js-line" d="M0,324L108.67,323.25L110.65,323.23L136.33,322.38L138.31,322.24L165.97,319.28L167.94,319L193.63,315.19L195.6,314.58L229.19,307.86L231.17,307.37L243.02,303.8L245,303.21L258.83,298.86L260.81,297.88L280.56,290.16L282.54,289.35L288.47,287.02L290.44,285.91L302.3,280.7L304.27,279.61L318.1,272.84L320.08,270.17L324.03,267.3L326.01,266.18L339.84,257.39L341.81,256.08L357.62,244.73L359.6,243.08L363.55,239.33L365.52,237.27L371.45,232.74L373.43,230.85L379.35,225.17L381.33,223.88L393.19,212.17L395.16,210.52L397.14,208.97L399.11,206.11L408.99,195.88L410.97,193.89L420.85,184.2L422.82,182.18L438.63,166.42L440.6,164.03L478.15,124.87L480.12,122.59L488.02,113.44L490,111.15" style="vector-effect: non-scaling-stroke; fill: none; stroke: rgb(40, 167, 69); stroke-opacity: 1; stroke-width: 2px; opacity: 1;"/></g><g class="points"/><g class="text"/></g><g class="trace scatter trace9e8308" style="stroke-miterlimit: 2;"><g class="fills"><g><path class="js-fill" d="M0,323.99L71.13,323.24L73.1,323.23L106.69,322.35L108.67,322.2L120.52,320.46L122.5,320.07L134.35,316.59L136.33,315.87L167.94,303.74L169.92,302.91L195.6,293.38L197.58,292.57L231.17,279.03L233.15,278.13L260.81,264.09L262.78,262.98L292.42,244.75L294.4,243.06L314.15,227.81L316.13,226.18L326.01,216.76L327.98,215.2L349.72,192.4L351.69,190.17L359.6,181.4L361.57,178.75L367.5,171.72L369.48,169.6L403.06,128.16L405.04,125.3L430.73,94.91L432.7,92.27L458.39,60.07L460.36,57.08L484.07,25.33L486.05,21.95L490,16.2L490,102.55L488.02,104.88L480.12,114.24L478.15,116.55L440.6,156.63L438.63,159.08L422.82,175.21L420.85,177.27L410.97,187.24L408.99,189.26L399.11,199.79L397.14,202.71L395.16,204.3L393.19,206L385.28,213.77L383.31,215.91L379.35,219.36L377.38,221.14L369.48,228.84L367.5,230.47L363.55,233.93L361.57,236.13L343.79,249.89L341.81,251.27L326.01,261.72L324.03,262.87L320.08,265.81L318.1,268.53L304.27,275.57L302.3,276.7L296.37,279.29L294.4,280.41L274.64,289.02L272.66,289.83L264.76,293.22L262.78,293.92L256.85,296.27L254.88,297.01L233.15,304.22L231.17,304.74L195.6,312.68L193.63,313.34L156.09,319.7L154.11,319.97L134.35,322.22L132.38,322.39L104.72,323.23L102.74,323.27L0,324Z" style="fill: rgb(255, 7, 58); fill-opacity: 0.5; stroke-width: 0;"/></g></g><g class="errorbars"/><g class="lines"><path class="js-line" d="M0,324L102.74,323.27L104.72,323.23L132.38,322.39L134.35,322.22L154.11,319.97L156.09,319.7L193.63,313.34L195.6,312.68L231.17,304.74L233.15,304.22L254.88,297.01L256.85,296.27L262.78,293.92L264.76,293.22L272.66,289.83L274.64,289.02L294.4,280.41L296.37,279.29L302.3,276.7L304.27,275.57L318.1,268.53L320.08,265.81L324.03,262.87L326.01,261.72L341.81,251.27L343.79,249.89L361.57,236.13L363.55,233.93L367.5,230.47L369.48,228.84L377.38,221.14L379.35,219.36L383.31,215.91L385.28,213.77L393.19,206L395.16,204.3L397.14,202.71L399.11,199.79L408.99,189.26L410.97,187.24L420.85,177.27L422.82,175.21L438.63,159.08L440.6,156.63L478.15,116.55L480.12,114.24L488.02,104.88L490,102.55" style="vector-effect: non-scaling-stroke; fill: none; stroke: rgb(108, 117, 125); stroke-opacity: 1; stroke-width: 2px; opacity: 1;"/></g><g class="points"/><g class="text"/></g><g class="trace scatter trace6d436b" style="stroke-miterlimit: 2;"><g class="fills"/><g class="errorbars"/><g class="lines"><path class="js-line" d="M0,323.99L71.13,323.24L73.1,323.23L106.69,322.35L108.67,322.2L120.52,320.46L122.5,320.07L134.35,316.59L136.33,315.87L167.94,303.74L169.92,302.91L195.6,293.38L197.58,292.57L231.17,279.03L233.15,278.13L260.81,264.09L262.78,262.98L292.42,244.75L294.4,243.06L314.15,227.81L316.13,226.18L326.01,216.76L327.98,215.2L349.72,192.4L351.69,190.17L359.6,181.4L361.57,178.75L367.5,171.72L369.48,169.6L403.06,128.16L405.04,125.3L430.73,94.91L432.7,92.27L458.39,60.07L460.36,57.08L484.07,25.33L486.05,21.95L490,16.2" style="vector-effect: non-scaling-stroke; fill: none; stroke: rgb(255, 7, 58); stroke-opacity: 1; stroke-width: 2px; opacity: 1;"/></g><g class="points"/><g class="text"/></g></g></g><g class="overplot"/><path class="xlines-above crisp" style="fill: none; stroke-width: 1px; stroke: rgb(255, 255, 255); stroke-opacity: 1;" d="M79,424.5H570"/><path class="ylines-above crisp" style="fill: none; stroke-width: 1px; stroke: rgb(255, 255, 255); stroke-opacity: 1;" d="M79.5,100V424"/><g class="overlines-above"/><g class="xaxislayer-above"><g class="xtick"><text text-anchor="middle" x="0" y="439.4" transform="translate(157.06,0)" style="font-family: 'Open Sans', verdana, arial, sans-serif; font-size: 12px; fill: rgb(42, 63, 95); fill-opacity: 1; white-space: pre;">Mar 2020</text></g><g class="xtick"><text text-anchor="middle" x="0" y="439.4" transform="translate(277.58000000000004,0)" style="font-family: 'Open Sans', verdana, arial, sans-serif; font-size: 12px; fill: rgb(42, 63, 95); fill-opacity: 1; white-space: pre;">May 2020</text></g><g class="xtick"><text text-anchor="middle" x="0" y="439.4" transform="translate(398.1,0)" style="font-family: 'Open Sans', verdana, arial, sans-serif; font-size: 12px; fill: rgb(42, 63, 95); fill-opacity: 1; white-space: pre;">Jul 2020</text></g><g class="xtick"><text text-anchor="middle" x="0" y="439.4" transform="translate(520.6,0)" style="font-family: 'Open Sans', verdana, arial, sans-serif; font-size: 12px; fill: rgb(42, 63, 95); fill-opacity: 1; white-space: pre;">Sep 2020</text></g></g><g class="yaxislayer-above"><g class="ytick"><text text-anchor="end" x="76.6" y="4.199999999999999" transform="translate(0,424)" style="font-family: 'Open Sans', verdana, arial, sans-serif; font-size: 12px; fill: rgb(42, 63, 95); fill-opacity: 1; white-space: pre;">0</text></g><g class="ytick"><text text-anchor="end" x="76.6" y="4.199999999999999" transform="translate(0,377.08)" style="font-family: 'Open Sans', verdana, arial, sans-serif; font-size: 12px; fill: rgb(42, 63, 95); fill-opacity: 1; white-space: pre;">5M</text></g><g class="ytick"><text text-anchor="end" x="76.6" y="4.199999999999999" transform="translate(0,330.16999999999996)" style="font-family: 'Open Sans', verdana, arial, sans-serif; font-size: 12px; fill: rgb(42, 63, 95); fill-opacity: 1; white-space: pre;">10M</text></g><g class="ytick"><text text-anchor="end" x="76.6" y="4.199999999999999" transform="translate(0,283.25)" style="font-family: 'Open Sans', verdana, arial, sans-serif; font-size: 12px; fill: rgb(42, 63, 95); fill-opacity: 1; white-space: pre;">15M</text></g><g class="ytick"><text text-anchor="end" x="76.6" y="4.199999999999999" transform="translate(0,236.33)" style="font-family: 'Open Sans', verdana, arial, sans-serif; font-size: 12px; fill: rgb(42, 63, 95); fill-opacity: 1; white-space: pre;">20M</text></g><g class="ytick"><text text-anchor="end" x="76.6" y="4.199999999999999" transform="translate(0,189.42000000000002)" style="font-family: 'Open Sans', verdana, arial, sans-serif; font-size: 12px; fill: rgb(42, 63, 95); fill-opacity: 1; white-space: pre;">25M</text></g><g class="ytick"><text text-anchor="end" x="76.6" y="4.199999999999999" transform="translate(0,142.5)" style="font-family: 'Open Sans', verdana, arial, sans-serif; font-size: 12px; fill: rgb(42, 63, 95); fill-opacity: 1; white-space: pre;">30M</text></g></g><g class="overaxes-above"/></g></g><g class="polarlayer"/><g class="ternarylayer"/><g class="geolayer"/><g class="funnelarealayer"/><g class="pielayer"/><g class="treemaplayer"/><g class="sunburstlayer"/><g class="glimages"/><defs id="topdefs-d6837b"><g class="clips"/><clipPath id="legendd6837b"><rect width="108" height="83" x="0" y="0"/></clipPath><clipPath id="rangesliderx-d6837b"><rect x="0" y="0" width="490" height="63"/></clipPath></defs><g class="layer-above"><g class="imagelayer"/><g class="shapelayer"/></g><g class="infolayer"><g class="legend" pointer-events="all" transform="translate(579.8, 100)"><rect class="bg" shape-rendering="crispEdges" style="stroke: rgb(68, 68, 68); stroke-opacity: 1; fill: rgb(255, 255, 255); fill-opacity: 1; stroke-width: 0px;" width="108" height="83" x="0" y="0"/><g class="scrollbox" transform="translate(0, 0)" clip-path="url('#legendd6837b')"><text class="legendtitletext user-select-none" text-anchor="start" x="2" y="15.600000000000001" style="font-family: 'Open Sans', verdana, arial, sans-serif; font-size: 12px; fill: rgb(42, 63, 95); fill-opacity: 1; white-space: pre;">Case</text><g class="groups" transform="translate(0, 0)"><g class="traces" transform="translate(0, 30.1)" style="opacity: 1;"><text class="legendtext user-select-none" text-anchor="start" x="40" y="4.680000000000001" style="font-family: 'Open Sans', verdana, arial, sans-serif; font-size: 12px; fill: rgb(42, 63, 95); fill-opacity: 1; white-space: pre;">Recovered</text><g class="layers"><g class="legendfill"><path class="js-fill" d="M5,-2h30v6h-30z" style="stroke-width: 0; fill: rgb(40, 167, 69); fill-opacity: 0.5;"/></g><g class="legendlines"><path class="js-line" d="M5,-2h30" style="fill: none; stroke: rgb(40, 167, 69); stroke-opacity: 1; stroke-width: 2px;"/></g><g class="legendsymbols"><g class="legendpoints"/></g></g><rect class="legendtoggle" pointer-events="all" x="0" y="-9.5" width="102.546875" height="19" style="cursor: pointer; fill: rgb(0, 0, 0); fill-opacity: 0;"/></g></g><g class="groups" transform="translate(0, 0)"><g class="traces" transform="translate(0, 49.1)" style="opacity: 1;"><text class="legendtext user-select-none" text-anchor="start" x="40" y="4.680000000000001" style="font-family: 'Open Sans', verdana, arial, sans-serif; font-size: 12px; fill: rgb(42, 63, 95); fill-opacity: 1; white-space: pre;">Deaths</text><g class="layers"><g class="legendfill"><path class="js-fill" d="M5,-2h30v6h-30z" style="stroke-width: 0; fill: rgb(108, 117, 125); fill-opacity: 0.5;"/></g><g class="legendlines"><path class="js-line" d="M5,-2h30" style="fill: none; stroke: rgb(108, 117, 125); stroke-opacity: 1; stroke-width: 2px;"/></g><g class="legendsymbols"><g class="legendpoints"/></g></g><rect class="legendtoggle" pointer-events="all" x="0" y="-9.5" width="102.546875" height="19" style="cursor: pointer; fill: rgb(0, 0, 0); fill-opacity: 0;"/></g></g><g class="groups" transform="translate(0, 0)"><g class="traces" transform="translate(0, 68.1)" style="opacity: 1;"><text class="legendtext user-select-none" text-anchor="start" x="40" y="4.680000000000001" style="font-family: 'Open Sans', verdana, arial, sans-serif; font-size: 12px; fill: rgb(42, 63, 95); fill-opacity: 1; white-space: pre;">Active</text><g class="layers"><g class="legendfill"><path class="js-fill" d="M5,-2h30v6h-30z" style="stroke-width: 0; fill: rgb(255, 7, 58); fill-opacity: 0.5;"/></g><g class="legendlines"><path class="js-line" d="M5,-2h30" style="fill: none; stroke: rgb(255, 7, 58); stroke-opacity: 1; stroke-width: 2px;"/></g><g class="legendsymbols"><g class="legendpoints"/></g></g><rect class="legendtoggle" pointer-events="all" x="0" y="-9.5" width="102.546875" height="19" style="cursor: pointer; fill: rgb(0, 0, 0); fill-opacity: 0;"/></g></g></g><rect class="scrollbar" rx="20" ry="3" width="0" height="0" x="0" y="0" style="fill: rgb(128, 139, 164); fill-opacity: 1;"/></g><g class="g-gtitle"><text class="gtitle" x="35" y="50" text-anchor="start" dy="0em" style="font-family: 'Open Sans', verdana, arial, sans-serif; font-size: 17px; fill: rgb(42, 63, 95); opacity: 1; font-weight: normal; white-space: pre;">Cases over time</text></g><g class="rangeslider-container" pointer-events="all" transform="translate(80,457)"><rect class="rangeslider-bg" x="0" y="0" shape-rendering="crispEdges" width="490" height="63" transform="translate(0,0)" fill="#E5ECF6" stroke="#444" stroke-width="0"/><g class="rangeslider-rangeplot xy" clip-path="url('#rangesliderx-d6837b')"><g class="layer-subplot"><g class="shapelayer"/><g class="imagelayer"/></g><g class="gridlayer"><g class="x"/><g class="y"/></g><g class="zerolinelayer"/><path class="xlines-below"/><path class="ylines-below"/><g class="overlines-below"/><g class="xaxislayer-below"/><g class="yaxislayer-below"/><g class="overaxes-below"/><g class="plot"><g class="scatterlayer mlayer rangeplot"><g class="trace scatter tracedfb675" style="stroke-miterlimit: 2;"><g class="fills"><g><path class="js-fill" d="M490,63L0,63L0,63L158.06,62.28L160.04,62.24L219.31,60.3L221.29,60.2L256.85,58.21L258.83,58.11L329.96,51.27L331.94,50.98L363.55,46.54L365.52,46.14L383.31,43.13L385.28,42.72L490,21.61" style="fill: rgb(40, 167, 69); fill-opacity: 0.5; stroke-width: 0;"/></g><g><path class="js-fill" d="M0,63L152.14,62.27L154.11,62.22L233.15,59.15L235.12,59.04L270.69,56.64L272.66,56.36L318.1,52.21L320.08,51.69L345.77,48.29L347.74,48L408.99,36.8L410.97,36.41L452.46,28.09L454.44,27.74L490,19.94L490,21.61L385.28,42.72L383.31,43.13L365.52,46.14L363.55,46.54L331.94,50.98L329.96,51.27L258.83,58.11L256.85,58.21L221.29,60.2L219.31,60.3L160.04,62.24L158.06,62.28L0,63Z" style="fill: rgb(108, 117, 125); fill-opacity: 0.5; stroke-width: 0;"/></g></g><g class="errorbars"/><g class="lines"><path class="js-line" d="M0,63L158.06,62.28L160.04,62.24L219.31,60.3L221.29,60.2L256.85,58.21L258.83,58.11L329.96,51.27L331.94,50.98L363.55,46.54L365.52,46.14L383.31,43.13L385.28,42.72L490,21.61" style="vector-effect: non-scaling-stroke; fill: none; stroke: rgb(40, 167, 69); stroke-opacity: 1; stroke-width: 2px; opacity: 1;"/></g><g class="points"/><g class="text"/></g><g class="trace scatter trace9e8308" style="stroke-miterlimit: 2;"><g class="fills"><g><path class="js-fill" d="M0,63L120.52,62.31L122.5,62.24L162.02,59.52L163.99,59.39L258.83,51.57L260.81,51.35L302.3,46.19L304.27,45.88L345.77,38.31L347.74,37.85L403.06,24.92L405.04,24.36L458.39,11.68L460.36,11.1L490,3.15L490,19.94L454.44,27.74L452.46,28.09L410.97,36.41L408.99,36.8L347.74,48L345.77,48.29L320.08,51.69L318.1,52.21L272.66,56.36L270.69,56.64L235.12,59.04L233.15,59.15L154.11,62.22L152.14,62.27L0,63Z" style="fill: rgb(255, 7, 58); fill-opacity: 0.5; stroke-width: 0;"/></g></g><g class="errorbars"/><g class="lines"><path class="js-line" d="M0,63L152.14,62.27L154.11,62.22L233.15,59.15L235.12,59.04L270.69,56.64L272.66,56.36L318.1,52.21L320.08,51.69L345.77,48.29L347.74,48L408.99,36.8L410.97,36.41L452.46,28.09L454.44,27.74L490,19.94" style="vector-effect: non-scaling-stroke; fill: none; stroke: rgb(108, 117, 125); stroke-opacity: 1; stroke-width: 2px; opacity: 1;"/></g><g class="points"/><g class="text"/></g><g class="trace scatter trace6d436b" style="stroke-miterlimit: 2;"><g class="fills"/><g class="errorbars"/><g class="lines"><path class="js-line" d="M0,63L120.52,62.31L122.5,62.24L162.02,59.52L163.99,59.39L258.83,51.57L260.81,51.35L302.3,46.19L304.27,45.88L345.77,38.31L347.74,37.85L403.06,24.92L405.04,24.36L458.39,11.68L460.36,11.1L490,3.15" style="vector-effect: non-scaling-stroke; fill: none; stroke: rgb(255, 7, 58); stroke-opacity: 1; stroke-width: 2px; opacity: 1;"/></g><g class="points"/><g class="text"/></g></g></g><g class="overplot"/><path class="xlines-above crisp" style="fill: none;"/><path class="ylines-above crisp" style="fill: none;"/><g class="overlines-above"/><g class="xaxislayer-above"/><g class="yaxislayer-above"/><g class="overaxes-above"/></g><rect class="rangeslider-mask-min" x="0" y="0" shape-rendering="crispEdges" height="63" width="0" style="fill: rgb(0, 0, 0); fill-opacity: 0.4;"/><rect class="rangeslider-mask-max" y="0" shape-rendering="crispEdges" height="63" x="490" width="0" style="fill: rgb(0, 0, 0); fill-opacity: 0.4;"/><g class="rangeslider-grabber-min" transform="translate(-2.5,0.5)"><rect class="rangeslider-handle-min" x="0" width="4" rx="1" fill="#fff" stroke="#444" stroke-width="1" shape-rendering="crispEdges" y="16" height="32"/></g><g class="rangeslider-grabber-max" transform="translate(488.5,0.5)"><rect class="rangeslider-handle-max" x="0" width="4" rx="1" fill="#fff" stroke="#444" stroke-width="1" shape-rendering="crispEdges" y="16" height="32"/></g></g><g class="g-ytitle"><text class="ytitle" transform="rotate(-90,26.418750000000003,262)" x="26.418750000000003" y="262" text-anchor="middle" style="font-family: 'Open Sans', verdana, arial, sans-serif; font-size: 14px; fill: rgb(42, 63, 95); opacity: 1; font-weight: normal; white-space: pre;">Count</text></g><g class="g-xtitle"><text class="xtitle" x="325" y="551" text-anchor="middle" style="font-family: 'Open Sans', verdana, arial, sans-serif; font-size: 14px; fill: rgb(42, 63, 95); opacity: 1; font-weight: normal; white-space: pre;">Date</text></g></g></svg>