<svg class="main-svg" xmlns="http://www.w3.org/2000/svg" xmlns:xlink="http://www.w3.org/1999/xlink" width="700" height="600" style="" viewBox="0 0 700 600"><rect x="0" y="0" width="700" height="600" style="fill: rgb(255, 255, 255); fill-opacity: 1;"/><defs id="defs-9a1b91"><g class="clips"><clipPath id="clip9a1b91xyplot" class="plotclip"><rect width="490" height="324"/></clipPath><clipPath class="axesclip" id="clip9a1b91x"><rect x="80" y="0" width="490" height="600"/></clipPath><clipPath class="axesclip" id="clip9a1b91y"><rect x="0" y="100" width="700" height="324"/></clipPath><clipPath class="axesclip" id="clip9a1b91xy"><rect x="80" y="100" width="490" height="324"/></clipPath></g><g class="gradients"/></defs><g class="bglayer"><rect class="bg" x="80" y="100" width="490" height="324" style="fill: rgb(229, 236, 246); fill-opacity: 1; stroke-width: 0;"/></g><g class="layer-below"><g class="imagelayer"/><g class="shapelayer"/></g><g class="cartesianlayer"><g class="subplot xy"><g class="layer-subplot"><g class="shapelayer"/><g class="imagelayer"/></g><g class="gridlayer"><g class="x"><path class="xgrid crisp" transform="translate(156.44,0)" d="M0,100v324" style="stroke: rgb(255, 255, 255); stroke-opacity: 1; stroke-width: 1px;"/><path class="xgrid crisp" transform="translate(276,0)" d="M0,100v324" style="stroke: rgb(255, 255, 255); stroke-opacity: 1; stroke-width: 1px;"/><path class="xgrid crisp" transform="translate(395.56,0)" d="M0,100v324" style="stroke: rgb(255, 255, 255); stroke-opacity: 1; stroke-width: 1px;"/><path class="xgrid crisp" transform="translate(517.0799999999999,0)" d="M0,100v324" style="stroke: rgb(255, 255, 255); stroke-opacity: 1; stroke-width: 1px;"/></g><g class="y"><path class="ygrid crisp" transform="translate(0,377.81)" d="M80,0h490" style="stroke: rgb(255, 255, 255); stroke-opacity: 1; stroke-width: 1px;"/><path class="ygrid crisp" transform="translate(0,331.61)" d="M80,0h490" style="stroke: rgb(255, 255, 255); stroke-opacity: 1; stroke-width: 1px;"/><path class="ygrid crisp" transform="translate(0,285.41999999999996)" d="M80,0h490" style="stroke: rgb(255, 255, 255); stroke-opacity: 1; stroke-width: 1px;"/><path class="ygrid crisp" transform="translate(0,239.22)" d="M80,0h490" style="stroke: rgb(255, 255, 255); stroke-opacity: 1; stroke-width: 1px;"/><path class="ygrid crisp" transform="translate(0,193.03)" d="M80,0h490" style="stroke: rgb(255, 255, 255); stroke-opacity: 1; stroke-width: 1px;"/><path class="ygrid crisp" transform="translate(0,146.84)" d="M80,0h490" style="stroke: rgb(255, 255, 255); stroke-opacity: 1; stroke-width: 1px;"/></g></g><g class="zerolinelayer"><path class="yzl zl crisp" transform="translate(0,424)" d="M80,0h490" style="stroke: rgb(255, 255, 255); stroke-opacity: 1; stroke-width: 2px;"/></g><path class="xlines-below"/><path class="ylines-below"/><g class="overlines-below"/><g class="xaxislayer-below"/><g class="yaxislayer-below"/><g class="overaxes-below"/><g class="plot" transform="translate(80, 100)" clip-path="url('#clip9a1b91xyplot')"><g class="scatterlayer mlayer"><g class="trace scatter trace7516cc" style="stroke-miterlimit: 2;"><g class="fills"><g><path class="js-fill" d="M490,324L0,324L0,324L107.8,323.27L109.76,323.24L135.24,322.41L137.2,322.27L164.64,319.36L166.6,319.07L192.08,315.32L194.04,314.72L227.36,308.11L229.32,307.62L241.08,304.12L243.04,303.53L256.76,299.24L258.72,298.28L278.32,290.68L280.28,289.89L288.12,286.5L290.08,285.75L315.56,273.63L317.52,271L321.44,268.18L323.4,267.08L339.08,257.12L341.04,255.81L358.68,242.75L360.64,240.64L364.56,237.31L366.52,235.75L374.36,228.39L376.32,226.69L380.24,223.37L382.2,221.32L390.04,213.9L392,212.26L393.96,210.74L395.92,207.93L405.72,197.85L407.68,195.9L417.48,186.35L419.44,184.36L435.12,168.85L437.08,166.49L474.32,127.93L476.28,125.69L484.12,116.68L486.08,114.43L490,110.41" style="fill: rgb(40, 167, 69); fill-opacity: 0.5; stroke-width: 0;"/></g><g><path class="js-fill" d="M0,324L103.88,323.25L105.84,323.23L135.24,322.09L137.2,321.91L162.68,318.66L164.64,318.26L203.84,310.97L205.8,310.49L231.28,304.52L233.24,303.94L245,300.15L246.96,299.52L268.52,291.79L270.48,290.36L292.04,281.09L294,279.98L299.88,277.43L301.84,276.32L315.56,269.38L317.52,266.71L323.4,262.68L325.36,261.5L356.72,239.15L358.68,237.49L364.56,231.91L366.52,230.3L374.36,222.72L376.32,220.97L380.24,217.58L382.2,215.47L390.04,207.82L392,206.14L393.96,204.58L395.92,201.71L405.72,191.34L407.68,189.35L417.48,179.53L419.44,177.51L435.12,161.62L437.08,159.21L478.24,115.41L480.2,112.93L490,101.88L490,110.41L486.08,114.43L484.12,116.68L476.28,125.69L474.32,127.93L437.08,166.49L435.12,168.85L419.44,184.36L417.48,186.35L407.68,195.9L405.72,197.85L395.92,207.93L393.96,210.74L392,212.26L390.04,213.9L382.2,221.32L380.24,223.37L376.32,226.69L374.36,228.39L366.52,235.75L364.56,237.31L360.64,240.64L358.68,242.75L341.04,255.81L339.08,257.12L323.4,267.08L321.44,268.18L317.52,271L315.56,273.63L290.08,285.75L288.12,286.5L280.28,289.89L278.32,290.68L258.72,298.28L256.76,299.24L243.04,303.53L241.08,304.12L229.32,307.62L227.36,308.11L194.04,314.72L192.08,315.32L166.6,319.07L164.64,319.36L137.2,322.27L135.24,322.41L109.76,323.24L107.8,323.27L0,324Z" style="fill: rgb(108, 117, 125); fill-opacity: 0.5; stroke-width: 0;"/></g></g><g class="errorbars"/><g class="lines"><path class="js-line" d="M0,324L107.8,323.27L109.76,323.24L135.24,322.41L137.2,322.27L164.64,319.36L166.6,319.07L192.08,315.32L194.04,314.72L227.36,308.11L229.32,307.62L241.08,304.12L243.04,303.53L256.76,299.24L258.72,298.28L278.32,290.68L280.28,289.89L288.12,286.5L290.08,285.75L315.56,273.63L317.52,271L321.44,268.18L323.4,267.08L339.08,257.12L341.04,255.81L358.68,242.75L360.64,240.64L364.56,237.31L366.52,235.75L374.36,228.39L376.32,226.69L380.24,223.37L382.2,221.32L390.04,213.9L392,212.26L393.96,210.74L395.92,207.93L405.72,197.85L407.68,195.9L417.48,186.35L419.44,184.36L435.12,168.85L437.08,166.49L474.32,127.93L476.28,125.69L484.12,116.68L486.08,114.43L490,110.41" style="vector-effect: non-scaling-stroke; fill: none; stroke: rgb(40, 167, 69); stroke-opacity: 1; stroke-width: 2px; opacity: 1;"/></g><g class="points"/><g class="text"/></g><g class="trace scatter trace3fd843" style="stroke-miterlimit: 2;"><g class="fills"><g><path class="js-fill" d="M0,323.99L72.52,323.24L74.48,323.23L105.84,322.38L107.8,322.23L119.56,320.51L121.52,320.13L133.28,316.71L135.24,316L180.32,298.9L182.28,298.12L233.24,277.88L235.2,276.91L262.64,262.75L264.6,261.54L297.92,240.39L299.88,238.87L317.52,223.77L319.48,221.89L333.2,208.72L335.16,206.73L343,198.99L344.96,196.66L360.64,178.4L362.6,176.04L368.48,169.65L370.44,166.98L378.28,157.28L380.24,155.41L419.44,107.99L421.4,105.9L427.28,98.44L429.24,95.84L454.72,64.14L456.68,61.19L480.2,29.93L482.16,26.6L486.08,20.94L488.04,18.75L490,16.2L490,101.88L480.2,112.93L478.24,115.41L437.08,159.21L435.12,161.62L419.44,177.51L417.48,179.53L407.68,189.35L405.72,191.34L395.92,201.71L393.96,204.58L392,206.14L390.04,207.82L382.2,215.47L380.24,217.58L376.32,220.97L374.36,222.72L366.52,230.3L364.56,231.91L358.68,237.49L356.72,239.15L325.36,261.5L323.4,262.68L317.52,266.71L315.56,269.38L301.84,276.32L299.88,277.43L294,279.98L292.04,281.09L270.48,290.36L268.52,291.79L246.96,299.52L245,300.15L233.24,303.94L231.28,304.52L205.8,310.49L203.84,310.97L164.64,318.26L162.68,318.66L137.2,321.91L135.24,322.09L105.84,323.23L103.88,323.25L0,324Z" style="fill: rgb(255, 7, 58); fill-opacity: 0.5; stroke-width: 0;"/></g></g><g class="errorbars"/><g class="lines"><path class="js-line" d="M0,324L103.88,323.25L105.84,323.23L135.24,322.09L137.2,321.91L162.68,318.66L164.64,318.26L203.84,310.97L205.8,310.49L231.28,304.52L233.24,303.94L245,300.15L246.96,299.52L268.52,291.79L270.48,290.36L292.04,281.09L294,279.98L299.88,277.43L301.84,276.32L315.56,269.38L317.52,266.71L323.4,262.68L325.36,261.5L356.72,239.15L358.68,237.49L364.56,231.91L366.52,230.3L374.36,222.72L376.32,220.97L380.24,217.58L382.2,215.47L390.04,207.82L392,206.14L393.96,204.58L395.92,201.71L405.72,191.34L407.68,189.35L417.48,179.53L419.44,177.51L435.12,161.62L437.08,159.21L478.24,115.41L480.2,112.93L490,101.88" style="vector-effect: non-scaling-stroke; fill: none; stroke: rgb(108, 117, 125); stroke-opacity: 1; stroke-width: 2px; opacity: 1;"/></g><g class="points"/><g class="text"/></g><g class="trace scatter trace987cd1" style="stroke-miterlimit: 2;"><g class="fills"/><g class="errorbars"/><g class="lines"><path class="js-line" d="M0,323.99L72.52,323.24L74.48,323.23L105.84,322.38L107.8,322.23L119.56,320.51L121.52,320.13L133.28,316.71L135.24,316L180.32,298.9L182.28,298.12L233.24,277.88L235.2,276.91L262.64,262.75L264.6,261.54L297.92,240.39L299.88,238.87L317.52,223.77L319.48,221.89L333.2,208.72L335.16,206.73L343,198.99L344.96,196.66L360.64,178.4L362.6,176.04L368.48,169.65L370.44,166.98L378.28,157.28L380.24,155.41L419.44,107.99L421.4,105.9L427.28,98.44L429.24,95.84L454.72,64.14L456.68,61.19L480.2,29.93L482.16,26.6L486.08,20.94L488.04,18.75L490,16.2" style="vector-effect: non-scaling-stroke; fill: none; stroke: rgb(255, 7, 58); stroke-opacity: 1; stroke-width: 2px; opacity: 1;"/></g><g class="points"/><g class="text"/></g></g></g><g class="overplot"/><path class="xlines-above crisp" style="fill: none; stroke-width: 1px; stroke: rgb(255, 255, 255); stroke-opacity: 1;" d="M79,424.5H570"/><path class="ylines-above crisp" style="fill: none; stroke-width: 1px; stroke: rgb(255, 255, 255); stroke-opacity: 1;" d="M79.5,100V424"/><g class="overlines-above"/><g class="xaxislayer-above"><g class="xtick"><text text-anchor="middle" x="0" y="439.4" transform="translate(156.44,0)" style="font-family: 'Open Sans', verdana, arial, sans-serif; font-size: 12px; fill: rgb(42, 63, 95); fill-opacity: 1; white-space: pre;">Mar 2020</text></g><g class="xtick"><text text-anchor="middle" x="0" y="439.4" transform="translate(276,0)" style="font-family: 'Open Sans', verdana, arial, sans-serif; font-size: 12px; fill: rgb(42, 63, 95); fill-opacity: 1; white-space: pre;">May 2020</text></g><g class="xtick"><text text-anchor="middle" x="0" y="439.4" transform="translate(395.56,0)" style="font-family: 'Open Sans', verdana, arial, sans-serif; font-size: 12px; fill: rgb(42, 63, 95); fill-opacity: 1; white-space: pre;">Jul 2020</text></g><g class="xtick"><text text-anchor="middle" x="0" y="439.4" transform="translate(517.0799999999999,0)" style="font-family: 'Open Sans', verdana, arial, sans-serif; font-size: 12px; fill: rgb(42, 63, 95); fill-opacity: 1; white-space: pre;">Sep 2020</text></g></g><g class="yaxislayer-above"><g class="ytick"><text text-anchor="end" x="76.6" y="4.199999999999999" transform="translate(0,424)" style="font-family: 'Open Sans', verdana, arial, sans-serif; font-size: 12px; fill: rgb(42, 63, 95); fill-opacity: 1; white-space: pre;">0</text></g><g class="ytick"><text text-anchor="end" x="76.6" y="4.199999999999999" transform="translate(0,377.81)" style="font-family: 'Open Sans', verdana, arial, sans-serif; font-size: 12px; fill: rgb(42, 63, 95); fill-opacity: 1; white-space: pre;">5M</text></g><g class="ytick"><text text-anchor="end" x="76.6" y="4.199999999999999" transform="translate(0,331.61)" style="font-family: 'Open Sans', verdana, arial, sans-serif; font-size: 12px; fill: rgb(42, 63, 95); fill-opacity: 1; white-space: pre;">10M</text></g><g class="ytick"><text text-anchor="end" x="76.6" y="4.199999999999999" transform="translate(0,285.41999999999996)" style="font-family: 'Open Sans', verdana, arial, sans-serif; font-size: 12px; fill: rgb(42, 63, 95); fill-opacity: 1; white-space: pre;">15M</text></g><g class="ytick"><text text-anchor="end" x="76.6" y="4.199999999999999" transform="translate(0,239.22)" style="font-family: 'Open Sans', verdana, arial, sans-serif; font-size: 12px; fill: rgb(42, 63, 95); fill-opacity: 1; white-space: pre;">20M</text></g><g class="ytick"><text text-anchor="end" x="76.6" y="4.199999999999999" transform="translate(0,193.03)" style="font-family: 'Open Sans', verdana, arial, sans-serif; font-size: 12px; fill: rgb(42, 63, 95); fill-opacity: 1; white-space: pre;">25M</text></g><g class="ytick"><text text-anchor="end" x="76.6" y="4.199999999999999" transform="translate(0,146.84)" style="font-family: 'Open Sans', verdana, arial, sans-serif; font-size: 12px; fill: rgb(42, 63, 95); fill-opacity: 1; white-space: pre;">30M</text></g><g class="ytick"><text text-anchor="end" x="76.6" y="4.199999999999999" transform="translate(0,100.64)" style="font-family: 'Open Sans', verdana, arial, sans-serif; font-size: 12px; fill: rgb(42, 63, 95); fill-opacity: 1; white-space: pre;">35M</text></g></g><g class="overaxes-above"/></g></g><g class="polarlayer"/><g class="ternarylayer"/><g class="geolayer"/><g class="funnelarealayer"/><g class="pielayer"/><g class="treemaplayer"/><g class="sunburstlayer"/><g class="glimages"/><defs id="topdefs-9a1b91"><g class="clips"/><clipPath id="legend9a1b91"><rect width="108" height="83" x="0" y="0"/></clipPath><clipPath id="rangesliderx-9a1b91"><rect x="0" y="0" width="490" height="63"/></clipPath></defs><g class="layer-above"><g class="imagelayer"/><g class="shapelayer"/></g><g class="infolayer"><g class="legend" pointer-events="all" transform="translate(579.8, 100)"><rect class="bg" shape-rendering="crispEdges" style="stroke: rgb(68, 68, 68); stroke-opacity: 1; fill: rgb(255, 255, 255); fill-opacity: 1; stroke-width: 0px;" width="108" height="83" x="0" y="0"/><g class="scrollbox" transform="translate(0, 0)" clip-path="url('#legend9a1b91')"><text class="legendtitletext user-select-none" text-anchor="start" x="2" y="15.600000000000001" style="font-family: 'Open Sans', verdana, arial, sans-serif; font-size: 12px; fill: rgb(42, 63, 95); fill-opacity: 1; white-space: pre;">Case</text><g class="groups" transform="translate(0, 0)"><g class="traces" transform="translate(0, 30.1)" style="opacity: 1;"><text class="legendtext user-select-none" text-anchor="start" x="40" y="4.680000000000001" style="font-family: 'Open Sans', verdana, arial, sans-serif; font-size: 12px; fill: rgb(42, 63, 95); fill-opacity: 1; white-space: pre;">Recovered</text><g class="layers"><g class="legendfill"><path class="js-fill" d="M5,-2h30v6h-30z" style="stroke-width: 0; fill: rgb(40, 167, 69); fill-opacity: 0.5;"/></g><g class="legendlines"><path class="js-line" d="M5,-2h30" style="fill: none; stroke: rgb(40, 167, 69); stroke-opacity: 1; stroke-width: 2px;"/></g><g class="legendsymbols"><g class="legendpoints"/></g></g><rect class="legendtoggle" pointer-events="all" x="0" y="-9.5" width="102.546875" height="19" style="cursor: pointer; fill: rgb(0, 0, 0); fill-opacity: 0;"/></g></g><g class="groups" transform="translate(0, 0)"><g class="traces" transform="translate(0, 49.1)" style="opacity: 1;"><text class="legendtext user-select-none" text-anchor="start" x="40" y="4.680000000000001" style="font-family: 'Open Sans', verdana, arial, sans-serif; font-size: 12px; fill: rgb(42, 63, 95); fill-opacity: 1; white-space: pre;">Deaths</text><g class="layers"><g class="legendfill"><path class="js-fill" d="M5,-2h30v6h-30z" style="stroke-width: 0; fill: rgb(108, 117, 125); fill-opacity: 0.5;"/></g><g class="legendlines"><path class="js-line" d="M5,-2h30" style="fill: none; stroke: rgb(108, 117, 125); stroke-opacity: 1; stroke-width: 2px;"/></g><g class="legendsymbols"><g class="legendpoints"/></g></g><rect class="legendtoggle" pointer-events="all" x="0" y="-9.5" width="102.546875" height="19" style="cursor: pointer; fill: rgb(0, 0, 0); fill-opacity: 0;"/></g></g><g class="groups" transform="translate(0, 0)"><g class="traces" transform="translate(0, 68.1)" style="opacity: 1;"><text class="legendtext user-select-none" text-anchor="start" x="40" y="4.680000000000001" style="font-family: 'Open Sans', verdana, arial, sans-serif; font-size: 12px; fill: rgb(42, 63, 95); fill-opacity: 1; white-space: pre;">Active</text><g class="layers"><g class="legendfill"><path class="js-fill" d="M5,-2h30v6h-30z" style="stroke-width: 0; fill: rgb(255, 7, 58); fill-opacity: 0.5;"/></g><g class="legendlines"><path class="js-line" d="M5,-2h30" style="fill: none; stroke: rgb(255, 7, 58); stroke-opacity: 1; stroke-width: 2px;"/></g><g class="legendsymbols"><g class="legendpoints"/></g></g><rect class="legendtoggle" pointer-events="all" x="0" y="-9.5" width="102.546875" height="19" style="cursor: pointer; fill: rgb(0, 0, 0); fill-opacity: 0;"/></g></g></g><rect class="scrollbar" rx="20" ry="3" width="0" height="0" x="0" y="0" style="fill: rgb(128, 139, 164); fill-opacity: 1;"/></g><g class="g-gtitle"><text class="gtitle" x="35" y="50" text-anchor="start" dy="0em" style="font-family: 'Open Sans', verdana, arial, sans-serif; font-size: 17px; fill: rgb(42, 63, 95); opacity: 1; font-weight: normal; white-space: pre;">Cases over time</text></g><g class="rangeslider-container" pointer-events="all" transform="translate(80,457)"><rect class="rangeslider-bg" x="0" y="0" shape-rendering="crispEdges" width="490" height="63" transform="translate(0,0)" fill="#E5ECF6" stroke="#444" stroke-width="0"/><g class="rangeslider-rangeplot xy" clip-path="url('#rangesliderx-9a1b91')"><g class="layer-subplot"><g class="shapelayer"/><g class="imagelayer"/></g><g class="gridlayer"><g class="x"/><g class="y"/></g><g class="zerolinelayer"/><path class="xlines-below"/><path class="ylines-below"/><g class="overlines-below"/><g class="xaxislayer-below"/><g class="yaxislayer-below"/><g class="overaxes-below"/><g class="plot"><g class="scatterlayer mlayer rangeplot"><g class="trace scatter trace7516cc" style="stroke-miterlimit: 2;"><g class="fills"><g><path class="js-fill" d="M490,63L0,63L0,63L158.76,62.26L160.72,62.21L233.24,59.62L235.2,59.53L254.8,58.28L256.76,58.19L329.28,51.17L331.24,50.92L368.48,45.53L370.44,45.17L427.28,34.31L429.24,33.95L490,21.47" style="fill: rgb(40, 167, 69); fill-opacity: 0.5; stroke-width: 0;"/></g><g><path class="js-fill" d="M0,63L150.92,62.28L152.88,62.23L219.52,59.78L221.48,59.7L270.48,56.46L272.44,56.3L315.56,52.38L317.52,51.86L344.96,48.23L346.92,47.89L372.4,43.67L374.36,43.31L405.72,37.2L407.68,36.82L458.64,26.61L460.6,26.27L490,19.81L490,21.47L429.24,33.95L427.28,34.31L370.44,45.17L368.48,45.53L331.24,50.92L329.28,51.17L256.76,58.19L254.8,58.28L235.2,59.53L233.24,59.62L160.72,62.21L158.76,62.26L0,63Z" style="fill: rgb(108, 117, 125); fill-opacity: 0.5; stroke-width: 0;"/></g></g><g class="errorbars"/><g class="lines"><path class="js-line" d="M0,63L158.76,62.26L160.72,62.21L233.24,59.62L235.2,59.53L254.8,58.28L256.76,58.19L329.28,51.17L331.24,50.92L368.48,45.53L370.44,45.17L427.28,34.31L429.24,33.95L490,21.47" style="vector-effect: non-scaling-stroke; fill: none; stroke: rgb(40, 167, 69); stroke-opacity: 1; stroke-width: 2px; opacity: 1;"/></g><g class="points"/><g class="text"/></g><g class="trace scatter trace3fd843" style="stroke-miterlimit: 2;"><g class="fills"><g><path class="js-fill" d="M0,63L121.52,62.25L123.48,62.16L194.04,57.14L196,56.98L250.88,52.36L252.84,52.11L290.08,47.83L292.04,47.5L327.32,41.79L329.28,41.41L382.2,29.75L384.16,29.27L417.48,21.37L419.44,21L441,15.8L442.96,15.24L480.2,5.82L482.16,5.17L490,3.15L490,19.81L460.6,26.27L458.64,26.61L407.68,36.82L405.72,37.2L374.36,43.31L372.4,43.67L346.92,47.89L344.96,48.23L317.52,51.86L315.56,52.38L272.44,56.3L270.48,56.46L221.48,59.7L219.52,59.78L152.88,62.23L150.92,62.28L0,63Z" style="fill: rgb(255, 7, 58); fill-opacity: 0.5; stroke-width: 0;"/></g></g><g class="errorbars"/><g class="lines"><path class="js-line" d="M0,63L150.92,62.28L152.88,62.23L219.52,59.78L221.48,59.7L270.48,56.46L272.44,56.3L315.56,52.38L317.52,51.86L344.96,48.23L346.92,47.89L372.4,43.67L374.36,43.31L405.72,37.2L407.68,36.82L458.64,26.61L460.6,26.27L490,19.81" style="vector-effect: non-scaling-stroke; fill: none; stroke: rgb(108, 117, 125); stroke-opacity: 1; stroke-width: 2px; opacity: 1;"/></g><g class="points"/><g class="text"/></g><g class="trace scatter trace987cd1" style="stroke-miterlimit: 2;"><g class="fills"/><g class="errorbars"/><g class="lines"><path class="js-line" d="M0,63L121.52,62.25L123.48,62.16L194.04,57.14L196,56.98L250.88,52.36L252.84,52.11L290.08,47.83L292.04,47.5L327.32,41.79L329.28,41.41L382.2,29.75L384.16,29.27L417.48,21.37L419.44,21L441,15.8L442.96,15.24L480.2,5.82L482.16,5.17L490,3.15" style="vector-effect: non-scaling-stroke; fill: none; stroke: rgb(255, 7, 58); stroke-opacity: 1; stroke-width: 2px; opacity: 1;"/></g><g class="points"/><g class="text"/></g></g></g><g class="overplot"/><path class="xlines-above crisp" style="fill: none;"/><path class="ylines-above crisp" style="fill: none;"/><g class="overlines-above"/><g class="xaxislayer-above"/><g class="yaxislayer-above"/><g class="overaxes-above"/></g><rect class="rangeslider-mask-min" x="0" y="0" shape-rendering="crispEdges" height="63" width="0" style="fill: rgb(0, 0, 0); fill-opacity: 0.4;"/><rect class="rangeslider-mask-max" y="0" shape-rendering="crispEdges" height="63" x="490" width="0" style="fill: rgb(0, 0, 0); fill-opacity: 0.4;"/><g class="rangeslider-grabber-min" transform="translate(-2.5,0.5)"><rect class="rangeslider-handle-min" x="0" width="4" rx="1" fill="#fff" stroke="#444" stroke-width="1" shape-rendering="crispEdges" y="16" height="32"/></g><g class="rangeslider-grabber-max" transform="translate(488.5,0.5)"><rect class="rangeslider-handle-max" x="0" width="4" rx="1" fill="#fff" stroke="#444" stroke-width="1" shape-rendering="crispEdges" y="16" height="32"/></g></g><g class="g-ytitle"><text class="ytitle" transform="rotate(-90,26.418750000000003,262)" x="26.418750000000003" y="262" text-anchor="middle" style="font-family: 'Open Sans', verdana, arial, sans-serif; font-size: 14px; fill: rgb(42, 63, 95); opacity: 1; font-weight: normal; white-space: pre;">Count</text></g><g class="g-xtitle"><text class="xtitle" x="325" y="551" text-anchor="middle" style="font-family: 'Open Sans', verdana, arial, sans-serif; font-size: 14px; fill: rgb(42, 63, 95); opacity: 1; font-weight: normal; white-space: pre;">Date</text></g></g></svg>