<svg class="main-svg" xmlns="http://www.w3.org/2000/svg" xmlns:xlink="http://www.w3.org/1999/xlink" width="700" height="600" style="" viewBox="0 0 700 600"><rect x="0" y="0" width="700" height="600" style="fill: rgb(255, 255, 255); fill-opacity: 1;"/><defs id="defs-398934"><g class="clips"><clipPath id="clip398934xyplot" class="plotclip"><rect width="490" height="324"/></clipPath><clipPath class="axesclip" id="clip398934x"><rect x="80" y="0" width="490" height="600"/></clipPath><clipPath class="axesclip" id="clip398934y"><rect x="0" y="100" width="700" height="324"/></clipPath><clipPath class="axesclip" id="clip398934xy"><rect x="80" y="100" width="490" height="324"/></clipPath></g><g class="gradients"/></defs><g class="bglayer"><rect class="bg" x="80" y="100" width="490" height="324" style="fill: rgb(229, 236, 246); fill-opacity: 1; stroke-width: 0;"/></g><g class="layer-below"><g class="imagelayer"/><g class="shapelayer"/></g><g class="cartesianlayer"><g class="subplot xy"><g class="layer-subplot"><g class="shapelayer"/><g class="imagelayer"/></g><g class="gridlayer"><g class="x"><path class="xgrid crisp" transform="translate(154.36,0)" d="M0,100v324" style="stroke: rgb(255, 255, 255); stroke-opacity: 1; stroke-width: 1px;"/><path class="xgrid crisp" transform="translate(270.65999999999997,0)" d="M0,100v324" style="stroke: rgb(255, 255, 255); stroke-opacity: 1; stroke-width: 1px;"/><path class="xgrid crisp" transform="translate(386.96,0)" d="M0,100v324" style="stroke: rgb(255, 255, 255); stroke-opacity: 1; stroke-width: 1px;"/><path class="xgrid crisp" transform="translate(505.18,0)" d="M0,100v324" style="stroke: rgb(255, 255, 255); stroke-opacity: 1; stroke-width: 1px;"/></g><g class="y"><path class="ygrid crisp" transform="translate(0,380.57)" d="M80,0h490" style="stroke: rgb(255, 255, 255); stroke-opacity: 1; stroke-width: 1px;"/><path class="ygrid crisp" transform="translate(0,337.14)" d="M80,0h490" style="stroke: rgb(255, 255, 255); stroke-opacity: 1; stroke-width: 1px;"/><path class="ygrid crisp" transform="translate(0,293.71000000000004)" d="M80,0h490" style="stroke: rgb(255, 255, 255); stroke-opacity: 1; stroke-width: 1px;"/><path class="ygrid crisp" transform="translate(0,250.29)" d="M80,0h490" style="stroke: rgb(255, 255, 255); stroke-opacity: 1; stroke-width: 1px;"/><path class="ygrid crisp" transform="translate(0,206.86)" d="M80,0h490" style="stroke: rgb(255, 255, 255); stroke-opacity: 1; stroke-width: 1px;"/><path class="ygrid crisp" transform="translate(0,163.43)" d="M80,0h490" style="stroke: rgb(255, 255, 255); stroke-opacity: 1; stroke-width: 1px;"/><path class="ygrid crisp" transform="translate(0,120)" d="M80,0h490" style="stroke: rgb(255, 255, 255); stroke-opacity: 1; stroke-width: 1px;"/></g></g><g class="zerolinelayer"><path class="yzl zl crisp" transform="translate(0,424)" d="M80,0h490" style="stroke: rgb(255, 255, 255); stroke-opacity: 1; stroke-width: 2px;"/></g><path class="xlines-below"/><path class="ylines-below"/><g class="overlines-below"/><g class="xaxislayer-below"/><g class="yaxislayer-below"/><g class="overaxes-below"/><g class="plot" transform="translate(80, 100)" clip-path="url('#clip398934xyplot')"><g class="scatterlayer mlayer"><g class="trace scatter trace4ae1dd" style="stroke-miterlimit: 2;"><g class="fills"><g><path class="js-fill" d="M490,324L0,324L0,324L110.58,323.25L112.49,323.22L137.28,322.09L139.18,321.92L156.34,320.17L158.25,319.95L211.63,311.16L213.54,310.67L228.79,307.2L230.7,306.26L245.95,301.86L247.86,301.2L253.58,299.14L255.49,298.53L263.11,295.51L265.02,294.8L284.09,287.22L285.99,286.21L291.71,283.92L293.62,282.91L306.96,276.65L308.87,274.17L312.68,271.52L314.59,270.48L329.84,261.13L331.75,259.89L348.91,247.62L350.82,245.63L354.63,242.5L356.54,241.03L367.98,231.33L369.88,229.4L379.42,220.49L381.32,218.95L383.23,217.52L385.14,214.88L394.67,205.4L396.58,203.57L408.02,192.72L409.92,190.98L421.36,179.88L423.27,178.13L430.89,170.26L432.8,168.51L455.68,145.97L457.59,143.78L490,109.37" style="fill: rgb(40, 167, 69); fill-opacity: 0.5; stroke-width: 0;"/></g><g><path class="js-fill" d="M0,324L104.86,323.25L106.77,323.22L129.65,322.35L131.56,322.2L156.34,319.26L158.25,318.98L181.13,315.16L183.04,314.89L207.82,309.74L209.73,309.3L224.98,305.69L226.89,305.14L240.23,300.99L242.14,300.37L270.74,289.38L272.65,288.6L280.27,285.26L282.18,284.52L306.96,272.65L308.87,270.14L314.59,266.35L316.5,265.24L347,244.23L348.91,242.67L354.63,237.43L356.54,235.91L367.98,225.91L369.88,223.95L379.42,214.77L381.32,213.2L383.23,211.73L385.14,209.03L394.67,199.28L396.58,197.41L406.11,188.18L408.02,186.28L423.27,171.34L425.18,169.08L465.21,127.89L467.12,125.56L480.47,110.85L482.37,108.87L486.19,105.05L488.09,103.13L490,101L490,109.37L457.59,143.78L455.68,145.97L432.8,168.51L430.89,170.26L423.27,178.13L421.36,179.88L409.92,190.98L408.02,192.72L396.58,203.57L394.67,205.4L385.14,214.88L383.23,217.52L381.32,218.95L379.42,220.49L369.88,229.4L367.98,231.33L356.54,241.03L354.63,242.5L350.82,245.63L348.91,247.62L331.75,259.89L329.84,261.13L314.59,270.48L312.68,271.52L308.87,274.17L306.96,276.65L293.62,282.91L291.71,283.92L285.99,286.21L284.09,287.22L265.02,294.8L263.11,295.51L255.49,298.53L253.58,299.14L247.86,301.2L245.95,301.86L230.7,306.26L228.79,307.2L213.54,310.67L211.63,311.16L158.25,319.95L156.34,320.17L139.18,321.92L137.28,322.09L112.49,323.22L110.58,323.25L0,324Z" style="fill: rgb(108, 117, 125); fill-opacity: 0.5; stroke-width: 0;"/></g></g><g class="errorbars"/><g class="lines"><path class="js-line" d="M0,324L110.58,323.25L112.49,323.22L137.28,322.09L139.18,321.92L156.34,320.17L158.25,319.95L211.63,311.16L213.54,310.67L228.79,307.2L230.7,306.26L245.95,301.86L247.86,301.2L253.58,299.14L255.49,298.53L263.11,295.51L265.02,294.8L284.09,287.22L285.99,286.21L291.71,283.92L293.62,282.91L306.96,276.65L308.87,274.17L312.68,271.52L314.59,270.48L329.84,261.13L331.75,259.89L348.91,247.62L350.82,245.63L354.63,242.5L356.54,241.03L367.98,231.33L369.88,229.4L379.42,220.49L381.32,218.95L383.23,217.52L385.14,214.88L394.67,205.4L396.58,203.57L408.02,192.72L409.92,190.98L421.36,179.88L423.27,178.13L430.89,170.26L432.8,168.51L455.68,145.97L457.59,143.78L490,109.37" style="vector-effect: non-scaling-stroke; fill: none; stroke: rgb(40, 167, 69); stroke-opacity: 1; stroke-width: 2px; opacity: 1;"/></g><g class="points"/><g class="text"/></g><g class="trace scatter trace78a0df" style="stroke-miterlimit: 2;"><g class="fills"><g><path class="js-fill" d="M0,324L97.24,322.79L99.14,322.7L112.49,321.39L114.4,321.09L125.84,318.22L127.74,317.71L143,312.43L144.9,311.75L192.57,294.2L194.47,293.54L215.45,285.46L217.35,284.63L242.14,273.58L244.05,272.53L251.67,268.54L253.58,267.51L282.18,250.62L284.09,249.06L303.15,234.95L305.06,233.43L314.59,224.71L316.5,223.27L337.47,202.16L339.38,200.1L347,191.98L348.91,189.52L354.63,183.02L356.54,181.05L388.95,142.68L390.86,140.04L417.55,109.45L419.46,107.18L425.18,100.65L427.08,98.2L436.61,86.81L438.52,84.78L490,16.2L490,101L488.09,103.13L486.19,105.05L482.37,108.87L480.47,110.85L467.12,125.56L465.21,127.89L425.18,169.08L423.27,171.34L408.02,186.28L406.11,188.18L396.58,197.41L394.67,199.28L385.14,209.03L383.23,211.73L381.32,213.2L379.42,214.77L369.88,223.95L367.98,225.91L356.54,235.91L354.63,237.43L348.91,242.67L347,244.23L316.5,265.24L314.59,266.35L308.87,270.14L306.96,272.65L282.18,284.52L280.27,285.26L272.65,288.6L270.74,289.38L242.14,300.37L240.23,300.99L226.89,305.14L224.98,305.69L209.73,309.3L207.82,309.74L183.04,314.89L181.13,315.16L158.25,318.98L156.34,319.26L131.56,322.2L129.65,322.35L106.77,323.22L104.86,323.25L0,324Z" style="fill: rgb(255, 7, 58); fill-opacity: 0.5; stroke-width: 0;"/></g></g><g class="errorbars"/><g class="lines"><path class="js-line" d="M0,324L104.86,323.25L106.77,323.22L129.65,322.35L131.56,322.2L156.34,319.26L158.25,318.98L181.13,315.16L183.04,314.89L207.82,309.74L209.73,309.3L224.98,305.69L226.89,305.14L240.23,300.99L242.14,300.37L270.74,289.38L272.65,288.6L280.27,285.26L282.18,284.52L306.96,272.65L308.87,270.14L314.59,266.35L316.5,265.24L347,244.23L348.91,242.67L354.63,237.43L356.54,235.91L367.98,225.91L369.88,223.95L379.42,214.77L381.32,213.2L383.23,211.73L385.14,209.03L394.67,199.28L396.58,197.41L406.11,188.18L408.02,186.28L423.27,171.34L425.18,169.08L465.21,127.89L467.12,125.56L480.47,110.85L482.37,108.87L486.19,105.05L488.09,103.13L490,101" style="vector-effect: non-scaling-stroke; fill: none; stroke: rgb(108, 117, 125); stroke-opacity: 1; stroke-width: 2px; opacity: 1;"/></g><g class="points"/><g class="text"/></g><g class="trace scatter traced9ca4b" style="stroke-miterlimit: 2;"><g class="fills"/><g class="errorbars"/><g class="lines"><path class="js-line" d="M0,324L97.24,322.79L99.14,322.7L112.49,321.39L114.4,321.09L125.84,318.22L127.74,317.71L143,312.43L144.9,311.75L192.57,294.2L194.47,293.54L215.45,285.46L217.35,284.63L242.14,273.58L244.05,272.53L251.67,268.54L253.58,267.51L282.18,250.62L284.09,249.06L303.15,234.95L305.06,233.43L314.59,224.71L316.5,223.27L337.47,202.16L339.38,200.1L347,191.98L348.91,189.52L354.63,183.02L356.54,181.05L388.95,142.68L390.86,140.04L417.55,109.45L419.46,107.18L425.18,100.65L427.08,98.2L436.61,86.81L438.52,84.78L490,16.2" style="vector-effect: non-scaling-stroke; fill: none; stroke: rgb(255, 7, 58); stroke-opacity: 1; stroke-width: 2px; opacity: 1;"/></g><g class="points"/><g class="text"/></g></g></g><g class="overplot"/><path class="xlines-above crisp" style="fill: none; stroke-width: 1px; stroke: rgb(255, 255, 255); stroke-opacity: 1;" d="M79,424.5H570"/><path class="ylines-above crisp" style="fill: none; stroke-width: 1px; stroke: rgb(255, 255, 255); stroke-opacity: 1;" d="M79.5,100V424"/><g class="overlines-above"/><g class="xaxislayer-above"><g class="xtick"><text text-anchor="middle" x="0" y="439.4" transform="translate(154.36,0)" style="font-family: 'Open Sans', verdana, arial, sans-serif; font-size: 12px; fill: rgb(42, 63, 95); fill-opacity: 1; white-space: pre;">Mar 2020</text></g><g class="xtick"><text text-anchor="middle" x="0" y="439.4" transform="translate(270.65999999999997,0)" style="font-family: 'Open Sans', verdana, arial, sans-serif; font-size: 12px; fill: rgb(42, 63, 95); fill-opacity: 1; white-space: pre;">May 2020</text></g><g class="xtick"><text text-anchor="middle" x="0" y="439.4" transform="translate(386.96,0)" style="font-family: 'Open Sans', verdana, arial, sans-serif; font-size: 12px; fill: rgb(42, 63, 95); fill-opacity: 1; white-space: pre;">Jul 2020</text></g><g class="xtick"><text text-anchor="middle" x="0" y="439.4" transform="translate(505.18,0)" style="font-family: 'Open Sans', verdana, arial, sans-serif; font-size: 12px; fill: rgb(42, 63, 95); fill-opacity: 1; white-space: pre;">Sep 2020</text></g></g><g class="yaxislayer-above"><g class="ytick"><text text-anchor="end" x="76.6" y="4.199999999999999" transform="translate(0,424)" style="font-family: 'Open Sans', verdana, arial, sans-serif; font-size: 12px; fill: rgb(42, 63, 95); fill-opacity: 1; white-space: pre;">0</text></g><g class="ytick"><text text-anchor="end" x="76.6" y="4.199999999999999" transform="translate(0,380.57)" style="font-family: 'Open Sans', verdana, arial, sans-serif; font-size: 12px; fill: rgb(42, 63, 95); fill-opacity: 1; white-space: pre;">5M</text></g><g class="ytick"><text text-anchor="end" x="76.6" y="4.199999999999999" transform="translate(0,337.14)" style="font-family: 'Open Sans', verdana, arial, sans-serif; font-size: 12px; fill: rgb(42, 63, 95); fill-opacity: 1; white-space: pre;">10M</text></g><g class="ytick"><text text-anchor="end" x="76.6" y="4.199999999999999" transform="translate(0,293.71000000000004)" style="font-family: 'Open Sans', verdana, arial, sans-serif; font-size: 12px; fill: rgb(42, 63, 95); fill-opacity: 1; white-space: pre;">15M</text></g><g class="ytick"><text text-anchor="end" x="76.6" y="4.199999999999999" transform="translate(0,250.29)" style="font-family: 'Open Sans', verdana, arial, sans-serif; font-size: 12px; fill: rgb(42, 63, 95); fill-opacity: 1; white-space: pre;">20M</text></g><g class="ytick"><text text-anchor="end" x="76.6" y="4.199999999999999" transform="translate(0,206.86)" style="font-family: 'Open Sans', verdana, arial, sans-serif; font-size: 12px; fill: rgb(42, 63, 95); fill-opacity: 1; white-space: pre;">25M</text></g><g class="ytick"><text text-anchor="end" x="76.6" y="4.199999999999999" transform="translate(0,163.43)" style="font-family: 'Open Sans', verdana, arial, sans-serif; font-size: 12px; fill: rgb(42, 63, 95); fill-opacity: 1; white-space: pre;">30M</text></g><g class="ytick"><text text-anchor="end" x="76.6" y="4.199999999999999" transform="translate(0,120)" style="font-family: 'Open Sans', verdana, arial, sans-serif; font-size: 12px; fill: rgb(42, 63, 95); fill-opacity: 1; white-space: pre;">35M</text></g></g><g class="overaxes-above"/></g></g><g class="polarlayer"/><g class="ternarylayer"/><g class="geolayer"/><g class="funnelarealayer"/><g class="pielayer"/><g class="treemaplayer"/><g class="sunburstlayer"/><g class="glimages"/><defs id="topdefs-398934"><g class="clips"/><clipPath id="legend398934"><rect width="108" height="83" x="0" y="0"/></clipPath><clipPath id="rangesliderx-398934"><rect x="0" y="0" width="490" height="63"/></clipPath></defs><g class="layer-above"><g class="imagelayer"/><g class="shapelayer"/></g><g class="infolayer"><g class="legend" pointer-events="all" transform="translate(579.8, 100)"><rect class="bg" shape-rendering="crispEdges" style="stroke: rgb(68, 68, 68); stroke-opacity: 1; fill: rgb(255, 255, 255); fill-opacity: 1; stroke-width: 0px;" width="108" height="83" x="0" y="0"/><g class="scrollbox" transform="translate(0, 0)" clip-path="url('#legend398934')"><text class="legendtitletext user-select-none" text-anchor="start" x="2" y="15.600000000000001" style="font-family: 'Open Sans', verdana, arial, sans-serif; font-size: 12px; fill: rgb(42, 63, 95); fill-opacity: 1; white-space: pre;">Case</text><g class="groups" transform="translate(0, 0)"><g class="traces" transform="translate(0, 30.1)" style="opacity: 1;"><text class="legendtext user-select-none" text-anchor="start" x="40" y="4.680000000000001" style="font-family: 'Open Sans', verdana, arial, sans-serif; font-size: 12px; fill: rgb(42, 63, 95); fill-opacity: 1; white-space: pre;">Recovered</text><g class="layers"><g class="legendfill"><path class="js-fill" d="M5,-2h30v6h-30z" style="stroke-width: 0; fill: rgb(40, 167, 69); fill-opacity: 0.5;"/></g><g class="legendlines"><path class="js-line" d="M5,-2h30" style="fill: none; stroke: rgb(40, 167, 69); stroke-opacity: 1; stroke-width: 2px;"/></g><g class="legendsymbols"><g class="legendpoints"/></g></g><rect class="legendtoggle" pointer-events="all" x="0" y="-9.5" width="102.546875" height="19" style="cursor: pointer; fill: rgb(0, 0, 0); fill-opacity: 0;"/></g></g><g class="groups" transform="translate(0, 0)"><g class="traces" transform="translate(0, 49.1)" style="opacity: 1;"><text class="legendtext user-select-none" text-anchor="start" x="40" y="4.680000000000001" style="font-family: 'Open Sans', verdana, arial, sans-serif; font-size: 12px; fill: rgb(42, 63, 95); fill-opacity: 1; white-space: pre;">Deaths</text><g class="layers"><g class="legendfill"><path class="js-fill" d="M5,-2h30v6h-30z" style="stroke-width: 0; fill: rgb(108, 117, 125); fill-opacity: 0.5;"/></g><g class="legendlines"><path class="js-line" d="M5,-2h30" style="fill: none; stroke: rgb(108, 117, 125); stroke-opacity: 1; stroke-width: 2px;"/></g><g class="legendsymbols"><g class="legendpoints"/></g></g><rect class="legendtoggle" pointer-events="all" x="0" y="-9.5" width="102.546875" height="19" style="cursor: pointer; fill: rgb(0, 0, 0); fill-opacity: 0;"/></g></g><g class="groups" transform="translate(0, 0)"><g class="traces" transform="translate(0, 68.1)" style="opacity: 1;"><text class="legendtext user-select-none" text-anchor="start" x="40" y="4.680000000000001" style="font-family: 'Open Sans', verdana, arial, sans-serif; font-size: 12px; fill: rgb(42, 63, 95); fill-opacity: 1; white-space: pre;">Active</text><g class="layers"><g class="legendfill"><path class="js-fill" d="M5,-2h30v6h-30z" style="stroke-width: 0; fill: rgb(255, 7, 58); fill-opacity: 0.5;"/></g><g class="legendlines"><path class="js-line" d="M5,-2h30" style="fill: none; stroke: rgb(255, 7, 58); stroke-opacity: 1; stroke-width: 2px;"/></g><g class="legendsymbols"><g class="legendpoints"/></g></g><rect class="legendtoggle" pointer-events="all" x="0" y="-9.5" width="102.546875" height="19" style="cursor: pointer; fill: rgb(0, 0, 0); fill-opacity: 0;"/></g></g></g><rect class="scrollbar" rx="20" ry="3" width="0" height="0" x="0" y="0" style="fill: rgb(128, 139, 164); fill-opacity: 1;"/></g><g class="g-gtitle"><text class="gtitle" x="35" y="50" text-anchor="start" dy="0em" style="font-family: 'Open Sans', verdana, arial, sans-serif; font-size: 17px; fill: rgb(42, 63, 95); opacity: 1; font-weight: normal; white-space: pre;">Cases over time</text></g><g class="rangeslider-container" pointer-events="all" transform="translate(80,457)"><rect class="rangeslider-bg" x="0" y="0" shape-rendering="crispEdges" width="490" height="63" transform="translate(0,0)" fill="#E5ECF6" stroke="#444" stroke-width="0"/><g class="rangeslider-rangeplot xy" clip-path="url('#rangesliderx-398934')"><g class="layer-subplot"><g class="shapelayer"/><g class="imagelayer"/></g><g class="gridlayer"><g class="x"/><g class="y"/></g><g class="zerolinelayer"/><path class="xlines-below"/><path class="ylines-below"/><g class="overlines-below"/><g class="xaxislayer-below"/><g class="yaxislayer-below"/><g class="overaxes-below"/><g class="plot"><g class="scatterlayer mlayer rangeplot"><g class="trace scatter trace4ae1dd" style="stroke-miterlimit: 2;"><g class="fills"><g><path class="js-fill" d="M490,63L0,63L0,63L156.34,62.26L158.25,62.21L242.14,58.94L244.05,58.81L287.9,55.54L289.81,55.38L318.4,52.14L320.31,51.87L350.82,47.76L352.72,47.39L369.88,44.6L371.79,44.23L490,21.27" style="fill: rgb(40, 167, 69); fill-opacity: 0.5; stroke-width: 0;"/></g><g><path class="js-fill" d="M0,63L148.72,62.27L150.62,62.23L232.61,58.95L234.51,58.85L278.37,55.68L280.27,55.47L310.78,52.33L312.68,52L347,47.49L348.91,47.19L371.79,43.16L373.7,42.77L411.83,35.47L413.74,35.08L465.21,24.87L467.12,24.41L490,19.64L490,21.27L371.79,44.23L369.88,44.6L352.72,47.39L350.82,47.76L320.31,51.87L318.4,52.14L289.81,55.38L287.9,55.54L244.05,58.81L242.14,58.94L158.25,62.21L156.34,62.26L0,63Z" style="fill: rgb(108, 117, 125); fill-opacity: 0.5; stroke-width: 0;"/></g></g><g class="errorbars"/><g class="lines"><path class="js-line" d="M0,63L156.34,62.26L158.25,62.21L242.14,58.94L244.05,58.81L287.9,55.54L289.81,55.38L318.4,52.14L320.31,51.87L350.82,47.76L352.72,47.39L369.88,44.6L371.79,44.23L490,21.27" style="vector-effect: non-scaling-stroke; fill: none; stroke: rgb(40, 167, 69); stroke-opacity: 1; stroke-width: 2px; opacity: 1;"/></g><g class="points"/><g class="text"/></g><g class="trace scatter trace78a0df" style="stroke-miterlimit: 2;"><g class="fills"><g><path class="js-fill" d="M0,63L118.21,62.29L120.12,62.21L186.85,57.63L188.75,57.49L259.3,51.35L261.21,51.16L284.09,48.43L285.99,48.16L305.06,45.39L306.96,45.02L350.82,36.38L352.72,35.95L373.7,31.28L375.6,30.8L409.92,23.12L411.83,22.71L490,3.15L490,19.64L467.12,24.41L465.21,24.87L413.74,35.08L411.83,35.47L373.7,42.77L371.79,43.16L348.91,47.19L347,47.49L312.68,52L310.78,52.33L280.27,55.47L278.37,55.68L234.51,58.85L232.61,58.95L150.62,62.23L148.72,62.27L0,63Z" style="fill: rgb(255, 7, 58); fill-opacity: 0.5; stroke-width: 0;"/></g></g><g class="errorbars"/><g class="lines"><path class="js-line" d="M0,63L148.72,62.27L150.62,62.23L232.61,58.95L234.51,58.85L278.37,55.68L280.27,55.47L310.78,52.33L312.68,52L347,47.49L348.91,47.19L371.79,43.16L373.7,42.77L411.83,35.47L413.74,35.08L465.21,24.87L467.12,24.41L490,19.64" style="vector-effect: non-scaling-stroke; fill: none; stroke: rgb(108, 117, 125); stroke-opacity: 1; stroke-width: 2px; opacity: 1;"/></g><g class="points"/><g class="text"/></g><g class="trace scatter traced9ca4b" style="stroke-miterlimit: 2;"><g class="fills"/><g class="errorbars"/><g class="lines"><path class="js-line" d="M0,63L118.21,62.29L120.12,62.21L186.85,57.63L188.75,57.49L259.3,51.35L261.21,51.16L284.09,48.43L285.99,48.16L305.06,45.39L306.96,45.02L350.82,36.38L352.72,35.95L373.7,31.28L375.6,30.8L409.92,23.12L411.83,22.71L490,3.15" style="vector-effect: non-scaling-stroke; fill: none; stroke: rgb(255, 7, 58); stroke-opacity: 1; stroke-width: 2px; opacity: 1;"/></g><g class="points"/><g class="text"/></g></g></g><g class="overplot"/><path class="xlines-above crisp" style="fill: none;"/><path class="ylines-above crisp" style="fill: none;"/><g class="overlines-above"/><g class="xaxislayer-above"/><g class="yaxislayer-above"/><g class="overaxes-above"/></g><rect class="rangeslider-mask-min" x="0" y="0" shape-rendering="crispEdges" height="63" width="0" style="fill: rgb(0, 0, 0); fill-opacity: 0.4;"/><rect class="rangeslider-mask-max" y="0" shape-rendering="crispEdges" height="63" x="490" width="0" style="fill: rgb(0, 0, 0); fill-opacity: 0.4;"/><g class="rangeslider-grabber-min" transform="translate(-2.5,0.5)"><rect class="rangeslider-handle-min" x="0" width="4" rx="1" fill="#fff" stroke="#444" stroke-width="1" shape-rendering="crispEdges" y="16" height="32"/></g><g class="rangeslider-grabber-max" transform="translate(488.5,0.5)"><rect class="rangeslider-handle-max" x="0" width="4" rx="1" fill="#fff" stroke="#444" stroke-width="1" shape-rendering="crispEdges" y="16" height="32"/></g></g><g class="g-ytitle"><text class="ytitle" transform="rotate(-90,26.418750000000003,262)" x="26.418750000000003" y="262" text-anchor="middle" style="font-family: 'Open Sans', verdana, arial, sans-serif; font-size: 14px; fill: rgb(42, 63, 95); opacity: 1; font-weight: normal; white-space: pre;">Count</text></g><g class="g-xtitle"><text class="xtitle" x="325" y="551" text-anchor="middle" style="font-family: 'Open Sans', verdana, arial, sans-serif; font-size: 14px; fill: rgb(42, 63, 95); opacity: 1; font-weight: normal; white-space: pre;">Date</text></g></g></svg>