<svg class="main-svg" xmlns="http://www.w3.org/2000/svg" xmlns:xlink="http://www.w3.org/1999/xlink" width="700" height="600" style="" viewBox="0 0 700 600"><rect x="0" y="0" width="700" height="600" style="fill: rgb(255, 255, 255); fill-opacity: 1;"/><defs id="defs-f75e7e"><g class="clips"><clipPath id="clipf75e7exyplot" class="plotclip"><rect width="490" height="324"/></clipPath><clipPath class="axesclip" id="clipf75e7ex"><rect x="80" y="0" width="490" height="600"/></clipPath><clipPath class="axesclip" id="clipf75e7ey"><rect x="0" y="100" width="700" height="324"/></clipPath><clipPath class="axesclip" id="clipf75e7exy"><rect x="80" y="100" width="490" height="324"/></clipPath></g><g class="gradients"/></defs><g class="bglayer"><rect class="bg" x="80" y="100" width="490" height="324" style="fill: rgb(229, 236, 246); fill-opacity: 1; stroke-width: 0;"/></g><g class="layer-below"><g class="imagelayer"/><g class="shapelayer"/></g><g class="cartesianlayer"><g class="subplot xy"><g class="layer-subplot"><g class="shapelayer"/><g class="imagelayer"/></g><g class="gridlayer"><g class="x"><path class="xgrid crisp" transform="translate(162.73000000000002,0)" d="M0,100v324" style="stroke: rgb(255, 255, 255); stroke-opacity: 1; stroke-width: 1px;"/><path class="xgrid crisp" transform="translate(292.12,0)" d="M0,100v324" style="stroke: rgb(255, 255, 255); stroke-opacity: 1; stroke-width: 1px;"/><path class="xgrid crisp" transform="translate(421.52,0)" d="M0,100v324" style="stroke: rgb(255, 255, 255); stroke-opacity: 1; stroke-width: 1px;"/><path class="xgrid crisp" transform="translate(553.03,0)" d="M0,100v324" style="stroke: rgb(255, 255, 255); stroke-opacity: 1; stroke-width: 1px;"/></g><g class="y"><path class="ygrid crisp" transform="translate(0,368.7)" d="M80,0h490" style="stroke: rgb(255, 255, 255); stroke-opacity: 1; stroke-width: 1px;"/><path class="ygrid crisp" transform="translate(0,313.4)" d="M80,0h490" style="stroke: rgb(255, 255, 255); stroke-opacity: 1; stroke-width: 1px;"/><path class="ygrid crisp" transform="translate(0,258.1)" d="M80,0h490" style="stroke: rgb(255, 255, 255); stroke-opacity: 1; stroke-width: 1px;"/><path class="ygrid crisp" transform="translate(0,202.8)" d="M80,0h490" style="stroke: rgb(255, 255, 255); stroke-opacity: 1; stroke-width: 1px;"/><path class="ygrid crisp" transform="translate(0,147.49)" d="M80,0h490" style="stroke: rgb(255, 255, 255); stroke-opacity: 1; stroke-width: 1px;"/></g></g><g class="zerolinelayer"><path class="yzl zl crisp" transform="translate(0,424)" d="M80,0h490" style="stroke: rgb(255, 255, 255); stroke-opacity: 1; stroke-width: 2px;"/></g><path class="xlines-below"/><path class="ylines-below"/><g class="overlines-below"/><g class="xaxislayer-below"/><g class="yaxislayer-below"/><g class="overaxes-below"/><g class="plot" transform="translate(80, 100)" clip-path="url('#clipf75e7exyplot')"><g class="scatterlayer mlayer"><g class="trace scatter tracee754e4" style="stroke-miterlimit: 2;"><g class="fills"><g><path class="js-fill" d="M490,324L0,324L0,324L106.06,323.25L108.18,323.23L146.36,322.09L148.48,321.93L176.06,318.85L178.18,318.44L212.12,312.47L214.24,312.02L233.33,308.05L235.45,307.64L265.15,298.88L267.27,298.18L290.61,289.4L292.73,287.72L316.06,277.16L318.18,275.88L324.55,272.96L326.67,271.68L339.39,264.98L341.52,263.7L343.64,260.55L345.76,259.34L350,255.85L352.12,254.49L386.06,228.62L388.18,226.74L394.55,220.22L396.67,218.35L403.03,211.74L405.15,209.54L413.64,201.08L415.76,198.63L426.36,188.42L428.48,185.04L439.09,172.98L441.21,170.64L449.7,161.54L451.82,159.21L490,116.63" style="fill: rgb(40, 167, 69); fill-opacity: 0.5; stroke-width: 0;"/></g><g><path class="js-fill" d="M0,324L99.7,323.27L101.82,323.24L142.12,322.02L144.24,321.8L163.33,319.4L165.45,319.04L193.03,314.15L195.15,313.75L203.64,312.04L205.76,311.6L254.55,298.9L256.67,297.65L273.64,291.71L275.76,290.83L280,288.99L282.12,288.06L290.61,284.93L292.73,283.22L316.06,272.07L318.18,270.75L324.55,267.68L326.67,266.35L341.52,258.03L343.64,254.82L345.76,253.56L347.88,251.34L356.36,245.11L358.48,243.56L373.33,232.44L375.45,230.34L388.18,219.78L390.3,217.18L394.55,213.1L396.67,211.17L403.03,204.35L405.15,202.09L413.64,193.39L415.76,190.86L426.36,180.34L428.48,176.9L439.09,164.47L441.21,162.09L449.7,152.71L451.82,150.32L490,106.64L490,116.63L451.82,159.21L449.7,161.54L441.21,170.64L439.09,172.98L428.48,185.04L426.36,188.42L415.76,198.63L413.64,201.08L405.15,209.54L403.03,211.74L396.67,218.35L394.55,220.22L388.18,226.74L386.06,228.62L352.12,254.49L350,255.85L345.76,259.34L343.64,260.55L341.52,263.7L339.39,264.98L326.67,271.68L324.55,272.96L318.18,275.88L316.06,277.16L292.73,287.72L290.61,289.4L267.27,298.18L265.15,298.88L235.45,307.64L233.33,308.05L214.24,312.02L212.12,312.47L178.18,318.44L176.06,318.85L148.48,321.93L146.36,322.09L108.18,323.23L106.06,323.25L0,324Z" style="fill: rgb(108, 117, 125); fill-opacity: 0.5; stroke-width: 0;"/></g></g><g class="errorbars"/><g class="lines"><path class="js-line" d="M0,324L106.06,323.25L108.18,323.23L146.36,322.09L148.48,321.93L176.06,318.85L178.18,318.44L212.12,312.47L214.24,312.02L233.33,308.05L235.45,307.64L265.15,298.88L267.27,298.18L290.61,289.4L292.73,287.72L316.06,277.16L318.18,275.88L324.55,272.96L326.67,271.68L339.39,264.98L341.52,263.7L343.64,260.55L345.76,259.34L350,255.85L352.12,254.49L386.06,228.62L388.18,226.74L394.55,220.22L396.67,218.35L403.03,211.74L405.15,209.54L413.64,201.08L415.76,198.63L426.36,188.42L428.48,185.04L439.09,172.98L441.21,170.64L449.7,161.54L451.82,159.21L490,116.63" style="vector-effect: non-scaling-stroke; fill: none; stroke: rgb(40, 167, 69); stroke-opacity: 1; stroke-width: 2px; opacity: 1;"/></g><g class="points"/><g class="text"/></g><g class="trace scatter tracec33c6c" style="stroke-miterlimit: 2;"><g class="fills"><g><path class="js-fill" d="M0,323.99L50.91,323.24L53.03,323.21L114.55,322.06L116.67,321.89L129.39,319.85L131.52,319.39L144.24,315.3L146.36,314.46L178.18,301.25L180.3,300.18L199.39,292.13L201.52,291.32L216.36,285.23L218.48,284.39L241.82,273.88L243.94,272.83L252.42,268.79L254.55,267.61L282.12,252.05L284.24,250.64L313.94,230.54L316.06,228.55L330.91,216.07L333.03,214.09L341.52,206.25L343.64,203.95L369.09,176.85L371.21,174.29L381.82,161.55L383.94,158.96L394.55,144.45L396.67,141.95L430.61,96.24L432.73,93.08L436.97,86.98L439.09,84.63L443.33,79.49L445.45,76.47L456.06,62.82L458.18,60.15L468.79,45.38L470.91,42.49L490,16.2L490,106.64L451.82,150.32L449.7,152.71L441.21,162.09L439.09,164.47L428.48,176.9L426.36,180.34L415.76,190.86L413.64,193.39L405.15,202.09L403.03,204.35L396.67,211.17L394.55,213.1L390.3,217.18L388.18,219.78L375.45,230.34L373.33,232.44L358.48,243.56L356.36,245.11L347.88,251.34L345.76,253.56L343.64,254.82L341.52,258.03L326.67,266.35L324.55,267.68L318.18,270.75L316.06,272.07L292.73,283.22L290.61,284.93L282.12,288.06L280,288.99L275.76,290.83L273.64,291.71L256.67,297.65L254.55,298.9L205.76,311.6L203.64,312.04L195.15,313.75L193.03,314.15L165.45,319.04L163.33,319.4L144.24,321.8L142.12,322.02L101.82,323.24L99.7,323.27L0,324Z" style="fill: rgb(255, 7, 58); fill-opacity: 0.5; stroke-width: 0;"/></g></g><g class="errorbars"/><g class="lines"><path class="js-line" d="M0,324L99.7,323.27L101.82,323.24L142.12,322.02L144.24,321.8L163.33,319.4L165.45,319.04L193.03,314.15L195.15,313.75L203.64,312.04L205.76,311.6L254.55,298.9L256.67,297.65L273.64,291.71L275.76,290.83L280,288.99L282.12,288.06L290.61,284.93L292.73,283.22L316.06,272.07L318.18,270.75L324.55,267.68L326.67,266.35L341.52,258.03L343.64,254.82L345.76,253.56L347.88,251.34L356.36,245.11L358.48,243.56L373.33,232.44L375.45,230.34L388.18,219.78L390.3,217.18L394.55,213.1L396.67,211.17L403.03,204.35L405.15,202.09L413.64,193.39L415.76,190.86L426.36,180.34L428.48,176.9L439.09,164.47L441.21,162.09L449.7,152.71L451.82,150.32L490,106.64" style="vector-effect: non-scaling-stroke; fill: none; stroke: rgb(108, 117, 125); stroke-opacity: 1; stroke-width: 2px; opacity: 1;"/></g><g class="points"/><g class="text"/></g><g class="trace scatter tracebab351" style="stroke-miterlimit: 2;"><g class="fills"/><g class="errorbars"/><g class="lines"><path class="js-line" d="M0,323.99L50.91,323.24L53.03,323.21L114.55,322.06L116.67,321.89L129.39,319.85L131.52,319.39L144.24,315.3L146.36,314.46L178.18,301.25L180.3,300.18L199.39,292.13L201.52,291.32L216.36,285.23L218.48,284.39L241.82,273.88L243.94,272.83L252.42,268.79L254.55,267.61L282.12,252.05L284.24,250.64L313.94,230.54L316.06,228.55L330.91,216.07L333.03,214.09L341.52,206.25L343.64,203.95L369.09,176.85L371.21,174.29L381.82,161.55L383.94,158.96L394.55,144.45L396.67,141.95L430.61,96.24L432.73,93.08L436.97,86.98L439.09,84.63L443.33,79.49L445.45,76.47L456.06,62.82L458.18,60.15L468.79,45.38L470.91,42.49L490,16.2" style="vector-effect: non-scaling-stroke; fill: none; stroke: rgb(255, 7, 58); stroke-opacity: 1; stroke-width: 2px; opacity: 1;"/></g><g class="points"/><g class="text"/></g></g></g><g class="overplot"/><path class="xlines-above crisp" style="fill: none; stroke-width: 1px; stroke: rgb(255, 255, 255); stroke-opacity: 1;" d="M79,424.5H570"/><path class="ylines-above crisp" style="fill: none; stroke-width: 1px; stroke: rgb(255, 255, 255); stroke-opacity: 1;" d="M79.5,100V424"/><g class="overlines-above"/><g class="xaxislayer-above"><g class="xtick"><text text-anchor="middle" x="0" y="439.4" transform="translate(162.73000000000002,0)" style="font-family: 'Open Sans', verdana, arial, sans-serif; font-size: 12px; fill: rgb(42, 63, 95); fill-opacity: 1; white-space: pre;">Mar 2020</text></g><g class="xtick"><text text-anchor="middle" x="0" y="439.4" transform="translate(292.12,0)" style="font-family: 'Open Sans', verdana, arial, sans-serif; font-size: 12px; fill: rgb(42, 63, 95); fill-opacity: 1; white-space: pre;">May 2020</text></g><g class="xtick"><text text-anchor="middle" x="0" y="439.4" transform="translate(421.52,0)" style="font-family: 'Open Sans', verdana, arial, sans-serif; font-size: 12px; fill: rgb(42, 63, 95); fill-opacity: 1; white-space: pre;">Jul 2020</text></g><g class="xtick"><text text-anchor="middle" x="0" y="439.4" transform="translate(553.03,0)" style="font-family: 'Open Sans', verdana, arial, sans-serif; font-size: 12px; fill: rgb(42, 63, 95); fill-opacity: 1; white-space: pre;">Sep 2020</text></g></g><g class="yaxislayer-above"><g class="ytick"><text text-anchor="end" x="76.6" y="4.199999999999999" transform="translate(0,424)" style="font-family: 'Open Sans', verdana, arial, sans-serif; font-size: 12px; fill: rgb(42, 63, 95); fill-opacity: 1; white-space: pre;">0</text></g><g class="ytick"><text text-anchor="end" x="76.6" y="4.199999999999999" transform="translate(0,368.7)" style="font-family: 'Open Sans', verdana, arial, sans-serif; font-size: 12px; fill: rgb(42, 63, 95); fill-opacity: 1; white-space: pre;">5M</text></g><g class="ytick"><text text-anchor="end" x="76.6" y="4.199999999999999" transform="translate(0,313.4)" style="font-family: 'Open Sans', verdana, arial, sans-serif; font-size: 12px; fill: rgb(42, 63, 95); fill-opacity: 1; white-space: pre;">10M</text></g><g class="ytick"><text text-anchor="end" x="76.6" y="4.199999999999999" transform="translate(0,258.1)" style="font-family: 'Open Sans', verdana, arial, sans-serif; font-size: 12px; fill: rgb(42, 63, 95); fill-opacity: 1; white-space: pre;">15M</text></g><g class="ytick"><text text-anchor="end" x="76.6" y="4.199999999999999" transform="translate(0,202.8)" style="font-family: 'Open Sans', verdana, arial, sans-serif; font-size: 12px; fill: rgb(42, 63, 95); fill-opacity: 1; white-space: pre;">20M</text></g><g class="ytick"><text text-anchor="end" x="76.6" y="4.199999999999999" transform="translate(0,147.49)" style="font-family: 'Open Sans', verdana, arial, sans-serif; font-size: 12px; fill: rgb(42, 63, 95); fill-opacity: 1; white-space: pre;">25M</text></g></g><g class="overaxes-above"/></g></g><g class="polarlayer"/><g class="ternarylayer"/><g class="geolayer"/><g class="funnelarealayer"/><g class="pielayer"/><g class="treemaplayer"/><g class="sunburstlayer"/><g class="glimages"/><defs id="topdefs-f75e7e"><g class="clips"/><clipPath id="legendf75e7e"><rect width="108" height="83" x="0" y="0"/></clipPath><clipPath id="rangesliderx-f75e7e"><rect x="0" y="0" width="490" height="63"/></clipPath></defs><g class="layer-above"><g class="imagelayer"/><g class="shapelayer"/></g><g class="infolayer"><g class="legend" pointer-events="all" transform="translate(579.8, 100)"><rect class="bg" shape-rendering="crispEdges" style="stroke: rgb(68, 68, 68); stroke-opacity: 1; fill: rgb(255, 255, 255); fill-opacity: 1; stroke-width: 0px;" width="108" height="83" x="0" y="0"/><g class="scrollbox" transform="translate(0, 0)" clip-path="url('#legendf75e7e')"><text class="legendtitletext user-select-none" text-anchor="start" x="2" y="15.600000000000001" style="font-family: 'Open Sans', verdana, arial, sans-serif; font-size: 12px; fill: rgb(42, 63, 95); fill-opacity: 1; white-space: pre;">Case</text><g class="groups" transform="translate(0, 0)"><g class="traces" transform="translate(0, 30.1)" style="opacity: 1;"><text class="legendtext user-select-none" text-anchor="start" x="40" y="4.680000000000001" style="font-family: 'Open Sans', verdana, arial, sans-serif; font-size: 12px; fill: rgb(42, 63, 95); fill-opacity: 1; white-space: pre;">Recovered</text><g class="layers"><g class="legendfill"><path class="js-fill" d="M5,-2h30v6h-30z" style="stroke-width: 0; fill: rgb(40, 167, 69); fill-opacity: 0.5;"/></g><g class="legendlines"><path class="js-line" d="M5,-2h30" style="fill: none; stroke: rgb(40, 167, 69); stroke-opacity: 1; stroke-width: 2px;"/></g><g class="legendsymbols"><g class="legendpoints"/></g></g><rect class="legendtoggle" pointer-events="all" x="0" y="-9.5" width="102.546875" height="19" style="cursor: pointer; fill: rgb(0, 0, 0); fill-opacity: 0;"/></g></g><g class="groups" transform="translate(0, 0)"><g class="traces" transform="translate(0, 49.1)" style="opacity: 1;"><text class="legendtext user-select-none" text-anchor="start" x="40" y="4.680000000000001" style="font-family: 'Open Sans', verdana, arial, sans-serif; font-size: 12px; fill: rgb(42, 63, 95); fill-opacity: 1; white-space: pre;">Deaths</text><g class="layers"><g class="legendfill"><path class="js-fill" d="M5,-2h30v6h-30z" style="stroke-width: 0; fill: rgb(108, 117, 125); fill-opacity: 0.5;"/></g><g class="legendlines"><path class="js-line" d="M5,-2h30" style="fill: none; stroke: rgb(108, 117, 125); stroke-opacity: 1; stroke-width: 2px;"/></g><g class="legendsymbols"><g class="legendpoints"/></g></g><rect class="legendtoggle" pointer-events="all" x="0" y="-9.5" width="102.546875" height="19" style="cursor: pointer; fill: rgb(0, 0, 0); fill-opacity: 0;"/></g></g><g class="groups" transform="translate(0, 0)"><g class="traces" transform="translate(0, 68.1)" style="opacity: 1;"><text class="legendtext user-select-none" text-anchor="start" x="40" y="4.680000000000001" style="font-family: 'Open Sans', verdana, arial, sans-serif; font-size: 12px; fill: rgb(42, 63, 95); fill-opacity: 1; white-space: pre;">Active</text><g class="layers"><g class="legendfill"><path class="js-fill" d="M5,-2h30v6h-30z" style="stroke-width: 0; fill: rgb(255, 7, 58); fill-opacity: 0.5;"/></g><g class="legendlines"><path class="js-line" d="M5,-2h30" style="fill: none; stroke: rgb(255, 7, 58); stroke-opacity: 1; stroke-width: 2px;"/></g><g class="legendsymbols"><g class="legendpoints"/></g></g><rect class="legendtoggle" pointer-events="all" x="0" y="-9.5" width="102.546875" height="19" style="cursor: pointer; fill: rgb(0, 0, 0); fill-opacity: 0;"/></g></g></g><rect class="scrollbar" rx="20" ry="3" width="0" height="0" x="0" y="0" style="fill: rgb(128, 139, 164); fill-opacity: 1;"/></g><g class="g-gtitle"><text class="gtitle" x="35" y="50" text-anchor="start" dy="0em" style="font-family: 'Open Sans', verdana, arial, sans-serif; font-size: 17px; fill: rgb(42, 63, 95); opacity: 1; font-weight: normal; white-space: pre;">Cases over time</text></g><g class="rangeslider-container" pointer-events="all" transform="translate(80,457)"><rect class="rangeslider-bg" x="0" y="0" shape-rendering="crispEdges" width="490" height="63" transform="translate(0,0)" fill="#E5ECF6" stroke="#444" stroke-width="0"/><g class="rangeslider-rangeplot xy" clip-path="url('#rangesliderx-f75e7e')"><g class="layer-subplot"><g class="shapelayer"/><g class="imagelayer"/></g><g class="gridlayer"><g class="x"/><g class="y"/></g><g class="zerolinelayer"/><path class="xlines-below"/><path class="ylines-below"/><g class="overlines-below"/><g class="xaxislayer-below"/><g class="yaxislayer-below"/><g class="overaxes-below"/><g class="plot"><g class="scatterlayer mlayer rangeplot"><g class="trace scatter tracee754e4" style="stroke-miterlimit: 2;"><g class="fills"><g><path class="js-fill" d="M490,63L0,63L0,63L165.45,62.25L167.58,62.21L246.06,59.3L248.18,59.19L290.61,56.27L292.73,55.95L341.52,51.27L343.64,50.66L366.97,47.43L369.09,47.13L411.52,39.58L413.64,39.1L479.39,24.93L481.52,24.5L490,22.68" style="fill: rgb(40, 167, 69); fill-opacity: 0.5; stroke-width: 0;"/></g><g><path class="js-fill" d="M0,63L159.09,62.25L161.21,62.18L241.82,58.84L243.94,58.71L273.64,56.72L275.76,56.55L299.09,54.51L301.21,54.33L341.52,50.17L343.64,49.55L369.09,45.89L371.21,45.54L400.91,40.23L403.03,39.73L470.91,25.06L473.03,24.49L490,20.74L490,22.68L481.52,24.5L479.39,24.93L413.64,39.1L411.52,39.58L369.09,47.13L366.97,47.43L343.64,50.66L341.52,51.27L292.73,55.95L290.61,56.27L248.18,59.19L246.06,59.3L167.58,62.21L165.45,62.25L0,63Z" style="fill: rgb(108, 117, 125); fill-opacity: 0.5; stroke-width: 0;"/></g></g><g class="errorbars"/><g class="lines"><path class="js-line" d="M0,63L165.45,62.25L167.58,62.21L246.06,59.3L248.18,59.19L290.61,56.27L292.73,55.95L341.52,51.27L343.64,50.66L366.97,47.43L369.09,47.13L411.52,39.58L413.64,39.1L479.39,24.93L481.52,24.5L490,22.68" style="vector-effect: non-scaling-stroke; fill: none; stroke: rgb(40, 167, 69); stroke-opacity: 1; stroke-width: 2px; opacity: 1;"/></g><g class="points"/><g class="text"/></g><g class="trace scatter tracec33c6c" style="stroke-miterlimit: 2;"><g class="fills"><g><path class="js-fill" d="M0,63L127.27,62.28L129.39,62.19L156.97,60.3L159.09,60.14L248.18,52.69L250.3,52.49L309.7,45.43L311.82,45.13L339.39,40.57L341.52,40.1L386.06,30.31L388.18,29.7L411.52,23.74L413.64,23.19L453.94,12.7L456.06,12.22L490,3.15L490,20.74L473.03,24.49L470.91,25.06L403.03,39.73L400.91,40.23L371.21,45.54L369.09,45.89L343.64,49.55L341.52,50.17L301.21,54.33L299.09,54.51L275.76,56.55L273.64,56.72L243.94,58.71L241.82,58.84L161.21,62.18L159.09,62.25L0,63Z" style="fill: rgb(255, 7, 58); fill-opacity: 0.5; stroke-width: 0;"/></g></g><g class="errorbars"/><g class="lines"><path class="js-line" d="M0,63L159.09,62.25L161.21,62.18L241.82,58.84L243.94,58.71L273.64,56.72L275.76,56.55L299.09,54.51L301.21,54.33L341.52,50.17L343.64,49.55L369.09,45.89L371.21,45.54L400.91,40.23L403.03,39.73L470.91,25.06L473.03,24.49L490,20.74" style="vector-effect: non-scaling-stroke; fill: none; stroke: rgb(108, 117, 125); stroke-opacity: 1; stroke-width: 2px; opacity: 1;"/></g><g class="points"/><g class="text"/></g><g class="trace scatter tracebab351" style="stroke-miterlimit: 2;"><g class="fills"/><g class="errorbars"/><g class="lines"><path class="js-line" d="M0,63L127.27,62.28L129.39,62.19L156.97,60.3L159.09,60.14L248.18,52.69L250.3,52.49L309.7,45.43L311.82,45.13L339.39,40.57L341.52,40.1L386.06,30.31L388.18,29.7L411.52,23.74L413.64,23.19L453.94,12.7L456.06,12.22L490,3.15" style="vector-effect: non-scaling-stroke; fill: none; stroke: rgb(255, 7, 58); stroke-opacity: 1; stroke-width: 2px; opacity: 1;"/></g><g class="points"/><g class="text"/></g></g></g><g class="overplot"/><path class="xlines-above crisp" style="fill: none;"/><path class="ylines-above crisp" style="fill: none;"/><g class="overlines-above"/><g class="xaxislayer-above"/><g class="yaxislayer-above"/><g class="overaxes-above"/></g><rect class="rangeslider-mask-min" x="0" y="0" shape-rendering="crispEdges" height="63" width="0" style="fill: rgb(0, 0, 0); fill-opacity: 0.4;"/><rect class="rangeslider-mask-max" y="0" shape-rendering="crispEdges" height="63" x="490" width="0" style="fill: rgb(0, 0, 0); fill-opacity: 0.4;"/><g class="rangeslider-grabber-min" transform="translate(-2.5,0.5)"><rect class="rangeslider-handle-min" x="0" width="4" rx="1" fill="#fff" stroke="#444" stroke-width="1" shape-rendering="crispEdges" y="16" height="32"/></g><g class="rangeslider-grabber-max" transform="translate(488.5,0.5)"><rect class="rangeslider-handle-max" x="0" width="4" rx="1" fill="#fff" stroke="#444" stroke-width="1" shape-rendering="crispEdges" y="16" height="32"/></g></g><g class="g-ytitle"><text class="ytitle" transform="rotate(-90,26.418750000000003,262)" x="26.418750000000003" y="262" text-anchor="middle" style="font-family: 'Open Sans', verdana, arial, sans-serif; font-size: 14px; fill: rgb(42, 63, 95); opacity: 1; font-weight: normal; white-space: pre;">Count</text></g><g class="g-xtitle"><text class="xtitle" x="325" y="551" text-anchor="middle" style="font-family: 'Open Sans', verdana, arial, sans-serif; font-size: 14px; fill: rgb(42, 63, 95); opacity: 1; font-weight: normal; white-space: pre;">Date</text></g></g></svg>