<svg class="main-svg" xmlns="http://www.w3.org/2000/svg" xmlns:xlink="http://www.w3.org/1999/xlink" width="700" height="600" style="" viewBox="0 0 700 600"><rect x="0" y="0" width="700" height="600" style="fill: rgb(255, 255, 255); fill-opacity: 1;"/><defs id="defs-53b67a"><g class="clips"><clipPath id="clip53b67axyplot" class="plotclip"><rect width="490" height="324"/></clipPath><clipPath class="axesclip" id="clip53b67ax"><rect x="80" y="0" width="490" height="600"/></clipPath><clipPath class="axesclip" id="clip53b67ay"><rect x="0" y="100" width="700" height="324"/></clipPath><clipPath class="axesclip" id="clip53b67axy"><rect x="80" y="100" width="490" height="324"/></clipPath></g><g class="gradients"/></defs><g class="bglayer"><rect class="bg" x="80" y="100" width="490" height="324" style="fill: rgb(229, 236, 246); fill-opacity: 1; stroke-width: 0;"/></g><g class="layer-below"><g class="imagelayer"/><g class="shapelayer"/></g><g class="cartesianlayer"><g class="subplot xy"><g class="layer-subplot"><g class="shapelayer"/><g class="imagelayer"/></g><g class="gridlayer"><g class="x"><path class="xgrid crisp" transform="translate(105.78999999999999,0)" d="M0,100v324" style="stroke: rgb(255, 255, 255); stroke-opacity: 1; stroke-width: 1px;"/><path class="xgrid crisp" transform="translate(180.57999999999998,0)" d="M0,100v324" style="stroke: rgb(255, 255, 255); stroke-opacity: 1; stroke-width: 1px;"/><path class="xgrid crisp" transform="translate(260.53,0)" d="M0,100v324" style="stroke: rgb(255, 255, 255); stroke-opacity: 1; stroke-width: 1px;"/><path class="xgrid crisp" transform="translate(337.89,0)" d="M0,100v324" style="stroke: rgb(255, 255, 255); stroke-opacity: 1; stroke-width: 1px;"/><path class="xgrid crisp" transform="translate(417.84,0)" d="M0,100v324" style="stroke: rgb(255, 255, 255); stroke-opacity: 1; stroke-width: 1px;"/><path class="xgrid crisp" transform="translate(495.21,0)" d="M0,100v324" style="stroke: rgb(255, 255, 255); stroke-opacity: 1; stroke-width: 1px;"/></g><g class="y"><path class="ygrid crisp" transform="translate(0,388.36)" d="M80,0h490" style="stroke: rgb(255, 255, 255); stroke-opacity: 1; stroke-width: 1px;"/><path class="ygrid crisp" transform="translate(0,352.71000000000004)" d="M80,0h490" style="stroke: rgb(255, 255, 255); stroke-opacity: 1; stroke-width: 1px;"/><path class="ygrid crisp" transform="translate(0,317.07)" d="M80,0h490" style="stroke: rgb(255, 255, 255); stroke-opacity: 1; stroke-width: 1px;"/><path class="ygrid crisp" transform="translate(0,281.43)" d="M80,0h490" style="stroke: rgb(255, 255, 255); stroke-opacity: 1; stroke-width: 1px;"/><path class="ygrid crisp" transform="translate(0,245.78)" d="M80,0h490" style="stroke: rgb(255, 255, 255); stroke-opacity: 1; stroke-width: 1px;"/><path class="ygrid crisp" transform="translate(0,210.14)" d="M80,0h490" style="stroke: rgb(255, 255, 255); stroke-opacity: 1; stroke-width: 1px;"/><path class="ygrid crisp" transform="translate(0,174.5)" d="M80,0h490" style="stroke: rgb(255, 255, 255); stroke-opacity: 1; stroke-width: 1px;"/><path class="ygrid crisp" transform="translate(0,138.85)" d="M80,0h490" style="stroke: rgb(255, 255, 255); stroke-opacity: 1; stroke-width: 1px;"/><path class="ygrid crisp" transform="translate(0,103.21)" d="M80,0h490" style="stroke: rgb(255, 255, 255); stroke-opacity: 1; stroke-width: 1px;"/></g></g><g class="zerolinelayer"><path class="yzl zl crisp" transform="translate(0,424)" d="M80,0h490" style="stroke: rgb(255, 255, 255); stroke-opacity: 1; stroke-width: 2px;"/></g><path class="xlines-below"/><path class="ylines-below"/><g class="overlines-below"/><g class="xaxislayer-below"/><g class="yaxislayer-below"/><g class="overaxes-below"/><g class="plot" transform="translate(80, 100)" clip-path="url('#clip53b67axyplot')"><g class="scatterlayer mlayer"><g class="trace scatter tracee9acf6" style="stroke-miterlimit: 2;"><g class="fills"><g><path class="js-fill" d="M490,324L0,324L0,324L98,323.29L100.58,323.24L172.79,321.44L175.37,321.16L196,318.78L198.58,318.27L237.26,310.99L239.84,310.1L252.74,307.26L255.32,306.1L288.84,296.65L291.42,295.94L309.47,289.53L312.05,287.61L327.53,281.21L330.11,279.83L353.32,268.24L355.89,265.55L376.53,253.77L379.11,251.66L384.26,248.52L386.84,246.46L392,243.61L394.58,241.76L404.89,234.25L407.47,232.67L415.21,226.84L417.79,221.76L420.37,219.81L422.95,216.32L430.68,209.41L433.26,206.6L453.89,186.91L456.47,183.64L459.05,180.95L461.63,179.39L471.95,167.27L474.53,163.19L477.11,159.28L479.68,156.88L490,143.79" style="fill: rgb(40, 167, 69); fill-opacity: 0.5; stroke-width: 0;"/></g><g><path class="js-fill" d="M0,324L95.42,323.3L98,323.24L167.63,321.25L170.21,321.03L185.68,318.98L188.26,318.52L198.58,316.6L201.16,316.02L224.37,310.69L226.95,310.05L237.26,307.52L239.84,306.51L252.74,303.19L255.32,301.92L291.42,290.54L294,289.59L309.47,283.58L312.05,281.56L327.53,274.77L330.11,273.31L353.32,261.06L355.89,258.29L376.53,245.86L379.11,243.66L392,235.19L394.58,233.25L404.89,225.37L407.47,223.73L415.21,217.65L417.79,212.48L420.37,210.44L422.95,206.87L430.68,199.73L433.26,196.82L453.89,176.41L456.47,173.02L459.05,170.24L461.63,168.6L471.95,156L474.53,151.8L477.11,147.8L479.68,145.33L490,131.81L490,143.79L479.68,156.88L477.11,159.28L474.53,163.19L471.95,167.27L461.63,179.39L459.05,180.95L456.47,183.64L453.89,186.91L433.26,206.6L430.68,209.41L422.95,216.32L420.37,219.81L417.79,221.76L415.21,226.84L407.47,232.67L404.89,234.25L394.58,241.76L392,243.61L386.84,246.46L384.26,248.52L379.11,251.66L376.53,253.77L355.89,265.55L353.32,268.24L330.11,279.83L327.53,281.21L312.05,287.61L309.47,289.53L291.42,295.94L288.84,296.65L255.32,306.1L252.74,307.26L239.84,310.1L237.26,310.99L198.58,318.27L196,318.78L175.37,321.16L172.79,321.44L100.58,323.24L98,323.29L0,324Z" style="fill: rgb(108, 117, 125); fill-opacity: 0.5; stroke-width: 0;"/></g></g><g class="errorbars"/><g class="lines"><path class="js-line" d="M0,324L98,323.29L100.58,323.24L172.79,321.44L175.37,321.16L196,318.78L198.58,318.27L237.26,310.99L239.84,310.1L252.74,307.26L255.32,306.1L288.84,296.65L291.42,295.94L309.47,289.53L312.05,287.61L327.53,281.21L330.11,279.83L353.32,268.24L355.89,265.55L376.53,253.77L379.11,251.66L384.26,248.52L386.84,246.46L392,243.61L394.58,241.76L404.89,234.25L407.47,232.67L415.21,226.84L417.79,221.76L420.37,219.81L422.95,216.32L430.68,209.41L433.26,206.6L453.89,186.91L456.47,183.64L459.05,180.95L461.63,179.39L471.95,167.27L474.53,163.19L477.11,159.28L479.68,156.88L490,143.79" style="vector-effect: non-scaling-stroke; fill: none; stroke: rgb(40, 167, 69); stroke-opacity: 1; stroke-width: 2px; opacity: 1;"/></g><g class="points"/><g class="text"/></g><g class="trace scatter tracee99876" style="stroke-miterlimit: 2;"><g class="fills"><g><path class="js-fill" d="M0,323.99L49,323.24L51.58,323.2L116.05,322.24L118.63,322.17L139.26,320.87L141.84,320.59L152.16,318.65L154.74,318.06L165.05,314.55L167.63,313.41L185.68,304.35L188.26,302.91L201.16,295.94L203.74,294.38L234.68,277.3L237.26,275.72L250.16,268.79L252.74,267.41L301.74,238.6L304.32,236.88L330.11,218.4L332.68,215.95L345.58,205.81L348.16,203.48L355.89,197.24L358.47,195.03L381.68,173.42L384.26,170.2L399.74,153.49L402.32,150.08L415.21,134.24L417.79,130.54L438.42,101.5L441,97.65L451.32,82.73L453.89,78.22L471.95,47.98L474.53,42.97L490,16.2L490,131.81L479.68,145.33L477.11,147.8L474.53,151.8L471.95,156L461.63,168.6L459.05,170.24L456.47,173.02L453.89,176.41L433.26,196.82L430.68,199.73L422.95,206.87L420.37,210.44L417.79,212.48L415.21,217.65L407.47,223.73L404.89,225.37L394.58,233.25L392,235.19L379.11,243.66L376.53,245.86L355.89,258.29L353.32,261.06L330.11,273.31L327.53,274.77L312.05,281.56L309.47,283.58L294,289.59L291.42,290.54L255.32,301.92L252.74,303.19L239.84,306.51L237.26,307.52L226.95,310.05L224.37,310.69L201.16,316.02L198.58,316.6L188.26,318.52L185.68,318.98L170.21,321.03L167.63,321.25L98,323.24L95.42,323.3L0,324Z" style="fill: rgb(255, 7, 58); fill-opacity: 0.5; stroke-width: 0;"/></g></g><g class="errorbars"/><g class="lines"><path class="js-line" d="M0,324L95.42,323.3L98,323.24L167.63,321.25L170.21,321.03L185.68,318.98L188.26,318.52L198.58,316.6L201.16,316.02L224.37,310.69L226.95,310.05L237.26,307.52L239.84,306.51L252.74,303.19L255.32,301.92L291.42,290.54L294,289.59L309.47,283.58L312.05,281.56L327.53,274.77L330.11,273.31L353.32,261.06L355.89,258.29L376.53,245.86L379.11,243.66L392,235.19L394.58,233.25L404.89,225.37L407.47,223.73L415.21,217.65L417.79,212.48L420.37,210.44L422.95,206.87L430.68,199.73L433.26,196.82L453.89,176.41L456.47,173.02L459.05,170.24L461.63,168.6L471.95,156L474.53,151.8L477.11,147.8L479.68,145.33L490,131.81" style="vector-effect: non-scaling-stroke; fill: none; stroke: rgb(108, 117, 125); stroke-opacity: 1; stroke-width: 2px; opacity: 1;"/></g><g class="points"/><g class="text"/></g><g class="trace scatter tracef3ab61" style="stroke-miterlimit: 2;"><g class="fills"/><g class="errorbars"/><g class="lines"><path class="js-line" d="M0,323.99L49,323.24L51.58,323.2L116.05,322.24L118.63,322.17L139.26,320.87L141.84,320.59L152.16,318.65L154.74,318.06L165.05,314.55L167.63,313.41L185.68,304.35L188.26,302.91L201.16,295.94L203.74,294.38L234.68,277.3L237.26,275.72L250.16,268.79L252.74,267.41L301.74,238.6L304.32,236.88L330.11,218.4L332.68,215.95L345.58,205.81L348.16,203.48L355.89,197.24L358.47,195.03L381.68,173.42L384.26,170.2L399.74,153.49L402.32,150.08L415.21,134.24L417.79,130.54L438.42,101.5L441,97.65L451.32,82.73L453.89,78.22L471.95,47.98L474.53,42.97L490,16.2" style="vector-effect: non-scaling-stroke; fill: none; stroke: rgb(255, 7, 58); stroke-opacity: 1; stroke-width: 2px; opacity: 1;"/></g><g class="points"/><g class="text"/></g></g></g><g class="overplot"/><path class="xlines-above crisp" style="fill: none; stroke-width: 1px; stroke: rgb(255, 255, 255); stroke-opacity: 1;" d="M79,424.5H570"/><path class="ylines-above crisp" style="fill: none; stroke-width: 1px; stroke: rgb(255, 255, 255); stroke-opacity: 1;" d="M79.5,100V424"/><g class="overlines-above"/><g class="xaxislayer-above"><g class="xtick"><text text-anchor="middle" x="0" y="439.4" transform="translate(105.78999999999999,0)" style="font-family: 'Open Sans', verdana, arial, sans-serif; font-size: 12px; fill: rgb(42, 63, 95); fill-opacity: 1; white-space: pre;">Feb 2020</text></g><g class="xtick"><text text-anchor="middle" x="0" y="439.4" transform="translate(180.57999999999998,0)" style="font-family: 'Open Sans', verdana, arial, sans-serif; font-size: 12px; fill: rgb(42, 63, 95); fill-opacity: 1; white-space: pre;">Mar 2020</text></g><g class="xtick"><text text-anchor="middle" x="0" y="439.4" transform="translate(260.53,0)" style="font-family: 'Open Sans', verdana, arial, sans-serif; font-size: 12px; fill: rgb(42, 63, 95); fill-opacity: 1; white-space: pre;">Apr 2020</text></g><g class="xtick"><text text-anchor="middle" x="0" y="439.4" transform="translate(337.89,0)" style="font-family: 'Open Sans', verdana, arial, sans-serif; font-size: 12px; fill: rgb(42, 63, 95); fill-opacity: 1; white-space: pre;">May 2020</text></g><g class="xtick"><text text-anchor="middle" x="0" y="439.4" transform="translate(417.84,0)" style="font-family: 'Open Sans', verdana, arial, sans-serif; font-size: 12px; fill: rgb(42, 63, 95); fill-opacity: 1; white-space: pre;">Jun 2020</text></g><g class="xtick"><text text-anchor="middle" x="0" y="439.4" transform="translate(495.21,0)" style="font-family: 'Open Sans', verdana, arial, sans-serif; font-size: 12px; fill: rgb(42, 63, 95); fill-opacity: 1; white-space: pre;">Jul 2020</text></g></g><g class="yaxislayer-above"><g class="ytick"><text text-anchor="end" x="76.6" y="4.199999999999999" transform="translate(0,424)" style="font-family: 'Open Sans', verdana, arial, sans-serif; font-size: 12px; fill: rgb(42, 63, 95); fill-opacity: 1; white-space: pre;">0</text></g><g class="ytick"><text text-anchor="end" x="76.6" y="4.199999999999999" transform="translate(0,388.36)" style="font-family: 'Open Sans', verdana, arial, sans-serif; font-size: 12px; fill: rgb(42, 63, 95); fill-opacity: 1; white-space: pre;">2M</text></g><g class="ytick"><text text-anchor="end" x="76.6" y="4.199999999999999" transform="translate(0,352.71000000000004)" style="font-family: 'Open Sans', verdana, arial, sans-serif; font-size: 12px; fill: rgb(42, 63, 95); fill-opacity: 1; white-space: pre;">4M</text></g><g class="ytick"><text text-anchor="end" x="76.6" y="4.199999999999999" transform="translate(0,317.07)" style="font-family: 'Open Sans', verdana, arial, sans-serif; font-size: 12px; fill: rgb(42, 63, 95); fill-opacity: 1; white-space: pre;">6M</text></g><g class="ytick"><text text-anchor="end" x="76.6" y="4.199999999999999" transform="translate(0,281.43)" style="font-family: 'Open Sans', verdana, arial, sans-serif; font-size: 12px; fill: rgb(42, 63, 95); fill-opacity: 1; white-space: pre;">8M</text></g><g class="ytick"><text text-anchor="end" x="76.6" y="4.199999999999999" transform="translate(0,245.78)" style="font-family: 'Open Sans', verdana, arial, sans-serif; font-size: 12px; fill: rgb(42, 63, 95); fill-opacity: 1; white-space: pre;">10M</text></g><g class="ytick"><text text-anchor="end" x="76.6" y="4.199999999999999" transform="translate(0,210.14)" style="font-family: 'Open Sans', verdana, arial, sans-serif; font-size: 12px; fill: rgb(42, 63, 95); fill-opacity: 1; white-space: pre;">12M</text></g><g class="ytick"><text text-anchor="end" x="76.6" y="4.199999999999999" transform="translate(0,174.5)" style="font-family: 'Open Sans', verdana, arial, sans-serif; font-size: 12px; fill: rgb(42, 63, 95); fill-opacity: 1; white-space: pre;">14M</text></g><g class="ytick"><text text-anchor="end" x="76.6" y="4.199999999999999" transform="translate(0,138.85)" style="font-family: 'Open Sans', verdana, arial, sans-serif; font-size: 12px; fill: rgb(42, 63, 95); fill-opacity: 1; white-space: pre;">16M</text></g><g class="ytick"><text text-anchor="end" x="76.6" y="4.199999999999999" transform="translate(0,103.21)" style="font-family: 'Open Sans', verdana, arial, sans-serif; font-size: 12px; fill: rgb(42, 63, 95); fill-opacity: 1; white-space: pre;">18M</text></g></g><g class="overaxes-above"/></g></g><g class="polarlayer"/><g class="ternarylayer"/><g class="geolayer"/><g class="funnelarealayer"/><g class="pielayer"/><g class="treemaplayer"/><g class="sunburstlayer"/><g class="glimages"/><defs id="topdefs-53b67a"><g class="clips"/><clipPath id="legend53b67a"><rect width="108" height="83" x="0" y="0"/></clipPath><clipPath id="rangesliderx-53b67a"><rect x="0" y="0" width="490" height="63"/></clipPath></defs><g class="layer-above"><g class="imagelayer"/><g class="shapelayer"/></g><g class="infolayer"><g class="legend" pointer-events="all" transform="translate(579.8, 100)"><rect class="bg" shape-rendering="crispEdges" style="stroke: rgb(68, 68, 68); stroke-opacity: 1; fill: rgb(255, 255, 255); fill-opacity: 1; stroke-width: 0px;" width="108" height="83" x="0" y="0"/><g class="scrollbox" transform="translate(0, 0)" clip-path="url('#legend53b67a')"><text class="legendtitletext user-select-none" text-anchor="start" x="2" y="15.600000000000001" style="font-family: 'Open Sans', verdana, arial, sans-serif; font-size: 12px; fill: rgb(42, 63, 95); fill-opacity: 1; white-space: pre;">Case</text><g class="groups" transform="translate(0, 0)"><g class="traces" transform="translate(0, 30.1)" style="opacity: 1;"><text class="legendtext user-select-none" text-anchor="start" x="40" y="4.680000000000001" style="font-family: 'Open Sans', verdana, arial, sans-serif; font-size: 12px; fill: rgb(42, 63, 95); fill-opacity: 1; white-space: pre;">Recovered</text><g class="layers"><g class="legendfill"><path class="js-fill" d="M5,-2h30v6h-30z" style="stroke-width: 0; fill: rgb(40, 167, 69); fill-opacity: 0.5;"/></g><g class="legendlines"><path class="js-line" d="M5,-2h30" style="fill: none; stroke: rgb(40, 167, 69); stroke-opacity: 1; stroke-width: 2px;"/></g><g class="legendsymbols"><g class="legendpoints"/></g></g><rect class="legendtoggle" pointer-events="all" x="0" y="-9.5" width="102.546875" height="19" style="cursor: pointer; fill: rgb(0, 0, 0); fill-opacity: 0;"/></g></g><g class="groups" transform="translate(0, 0)"><g class="traces" transform="translate(0, 49.1)" style="opacity: 1;"><text class="legendtext user-select-none" text-anchor="start" x="40" y="4.680000000000001" style="font-family: 'Open Sans', verdana, arial, sans-serif; font-size: 12px; fill: rgb(42, 63, 95); fill-opacity: 1; white-space: pre;">Deaths</text><g class="layers"><g class="legendfill"><path class="js-fill" d="M5,-2h30v6h-30z" style="stroke-width: 0; fill: rgb(108, 117, 125); fill-opacity: 0.5;"/></g><g class="legendlines"><path class="js-line" d="M5,-2h30" style="fill: none; stroke: rgb(108, 117, 125); stroke-opacity: 1; stroke-width: 2px;"/></g><g class="legendsymbols"><g class="legendpoints"/></g></g><rect class="legendtoggle" pointer-events="all" x="0" y="-9.5" width="102.546875" height="19" style="cursor: pointer; fill: rgb(0, 0, 0); fill-opacity: 0;"/></g></g><g class="groups" transform="translate(0, 0)"><g class="traces" transform="translate(0, 68.1)" style="opacity: 1;"><text class="legendtext user-select-none" text-anchor="start" x="40" y="4.680000000000001" style="font-family: 'Open Sans', verdana, arial, sans-serif; font-size: 12px; fill: rgb(42, 63, 95); fill-opacity: 1; white-space: pre;">Active</text><g class="layers"><g class="legendfill"><path class="js-fill" d="M5,-2h30v6h-30z" style="stroke-width: 0; fill: rgb(255, 7, 58); fill-opacity: 0.5;"/></g><g class="legendlines"><path class="js-line" d="M5,-2h30" style="fill: none; stroke: rgb(255, 7, 58); stroke-opacity: 1; stroke-width: 2px;"/></g><g class="legendsymbols"><g class="legendpoints"/></g></g><rect class="legendtoggle" pointer-events="all" x="0" y="-9.5" width="102.546875" height="19" style="cursor: pointer; fill: rgb(0, 0, 0); fill-opacity: 0;"/></g></g></g><rect class="scrollbar" rx="20" ry="3" width="0" height="0" x="0" y="0" style="fill: rgb(128, 139, 164); fill-opacity: 1;"/></g><g class="g-gtitle"><text class="gtitle" x="35" y="50" text-anchor="start" dy="0em" style="font-family: 'Open Sans', verdana, arial, sans-serif; font-size: 17px; fill: rgb(42, 63, 95); opacity: 1; font-weight: normal; white-space: pre;">Cases over time</text></g><g class="rangeslider-container" pointer-events="all" transform="translate(80,457)"><rect class="rangeslider-bg" x="0" y="0" shape-rendering="crispEdges" width="490" height="63" transform="translate(0,0)" fill="#E5ECF6" stroke="#444" stroke-width="0"/><g class="rangeslider-rangeplot xy" clip-path="url('#rangesliderx-53b67a')"><g class="layer-subplot"><g class="shapelayer"/><g class="imagelayer"/></g><g class="gridlayer"><g class="x"/><g class="y"/></g><g class="zerolinelayer"/><path class="xlines-below"/><path class="ylines-below"/><g class="overlines-below"/><g class="xaxislayer-below"/><g class="yaxislayer-below"/><g class="overaxes-below"/><g class="plot"><g class="scatterlayer mlayer rangeplot"><g class="trace scatter tracee9acf6" style="stroke-miterlimit: 2;"><g class="fills"><g><path class="js-fill" d="M490,63L0,63L0,63L183.11,62.29L185.68,62.24L252.74,59.75L255.32,59.52L309.47,56.3L312.05,55.92L353.32,52.16L355.89,51.63L402.32,45.92L404.89,45.55L415.21,44.11L417.79,43.12L435.84,39.71L438.42,39.22L464.21,34.33L466.79,33.73L490,27.96" style="fill: rgb(40, 167, 69); fill-opacity: 0.5; stroke-width: 0;"/></g><g><path class="js-fill" d="M0,63L177.95,62.25L180.53,62.18L237.26,59.8L239.84,59.6L291.42,56.49L294,56.31L345.58,51.48L348.16,51.22L376.53,47.81L379.11,47.38L412.63,42.74L415.21,42.32L420.37,40.92L422.95,40.23L451.32,34.85L453.89,34.3L490,25.63L490,27.96L466.79,33.73L464.21,34.33L438.42,39.22L435.84,39.71L417.79,43.12L415.21,44.11L404.89,45.55L402.32,45.92L355.89,51.63L353.32,52.16L312.05,55.92L309.47,56.3L255.32,59.52L252.74,59.75L185.68,62.24L183.11,62.29L0,63Z" style="fill: rgb(108, 117, 125); fill-opacity: 0.5; stroke-width: 0;"/></g></g><g class="errorbars"/><g class="lines"><path class="js-line" d="M0,63L183.11,62.29L185.68,62.24L252.74,59.75L255.32,59.52L309.47,56.3L312.05,55.92L353.32,52.16L355.89,51.63L402.32,45.92L404.89,45.55L415.21,44.11L417.79,43.12L435.84,39.71L438.42,39.22L464.21,34.33L466.79,33.73L490,27.96" style="vector-effect: non-scaling-stroke; fill: none; stroke: rgb(40, 167, 69); stroke-opacity: 1; stroke-width: 2px; opacity: 1;"/></g><g class="points"/><g class="text"/></g><g class="trace scatter tracee99876" style="stroke-miterlimit: 2;"><g class="fills"><g><path class="js-fill" d="M0,63L144.42,62.27L147,62.17L172.79,60.5L175.37,60.28L304.32,46.06L306.89,45.7L358.47,37.92L361.05,37.46L402.32,29.18L404.89,28.57L428.11,22.8L430.68,22.07L469.37,10.31L471.95,9.33L490,3.15L490,25.63L453.89,34.3L451.32,34.85L422.95,40.23L420.37,40.92L415.21,42.32L412.63,42.74L379.11,47.38L376.53,47.81L348.16,51.22L345.58,51.48L294,56.31L291.42,56.49L239.84,59.6L237.26,59.8L180.53,62.18L177.95,62.25L0,63Z" style="fill: rgb(255, 7, 58); fill-opacity: 0.5; stroke-width: 0;"/></g></g><g class="errorbars"/><g class="lines"><path class="js-line" d="M0,63L177.95,62.25L180.53,62.18L237.26,59.8L239.84,59.6L291.42,56.49L294,56.31L345.58,51.48L348.16,51.22L376.53,47.81L379.11,47.38L412.63,42.74L415.21,42.32L420.37,40.92L422.95,40.23L451.32,34.85L453.89,34.3L490,25.63" style="vector-effect: non-scaling-stroke; fill: none; stroke: rgb(108, 117, 125); stroke-opacity: 1; stroke-width: 2px; opacity: 1;"/></g><g class="points"/><g class="text"/></g><g class="trace scatter tracef3ab61" style="stroke-miterlimit: 2;"><g class="fills"/><g class="errorbars"/><g class="lines"><path class="js-line" d="M0,63L144.42,62.27L147,62.17L172.79,60.5L175.37,60.28L304.32,46.06L306.89,45.7L358.47,37.92L361.05,37.46L402.32,29.18L404.89,28.57L428.11,22.8L430.68,22.07L469.37,10.31L471.95,9.33L490,3.15" style="vector-effect: non-scaling-stroke; fill: none; stroke: rgb(255, 7, 58); stroke-opacity: 1; stroke-width: 2px; opacity: 1;"/></g><g class="points"/><g class="text"/></g></g></g><g class="overplot"/><path class="xlines-above crisp" style="fill: none;"/><path class="ylines-above crisp" style="fill: none;"/><g class="overlines-above"/><g class="xaxislayer-above"/><g class="yaxislayer-above"/><g class="overaxes-above"/></g><rect class="rangeslider-mask-min" x="0" y="0" shape-rendering="crispEdges" height="63" width="0" style="fill: rgb(0, 0, 0); fill-opacity: 0.4;"/><rect class="rangeslider-mask-max" y="0" shape-rendering="crispEdges" height="63" x="490" width="0" style="fill: rgb(0, 0, 0); fill-opacity: 0.4;"/><g class="rangeslider-grabber-min" transform="translate(-2.5,0.5)"><rect class="rangeslider-handle-min" x="0" width="4" rx="1" fill="#fff" stroke="#444" stroke-width="1" shape-rendering="crispEdges" y="16" height="32"/></g><g class="rangeslider-grabber-max" transform="translate(488.5,0.5)"><rect class="rangeslider-handle-max" x="0" width="4" rx="1" fill="#fff" stroke="#444" stroke-width="1" shape-rendering="crispEdges" y="16" height="32"/></g></g><g class="g-ytitle"><text class="ytitle" transform="rotate(-90,26.418750000000003,262)" x="26.418750000000003" y="262" text-anchor="middle" style="font-family: 'Open Sans', verdana, arial, sans-serif; font-size: 14px; fill: rgb(42, 63, 95); opacity: 1; font-weight: normal; white-space: pre;">Count</text></g><g class="g-xtitle"><text class="xtitle" x="325" y="551" text-anchor="middle" style="font-family: 'Open Sans', verdana, arial, sans-serif; font-size: 14px; fill: rgb(42, 63, 95); opacity: 1; font-weight: normal; white-space: pre;">Date</text></g></g></svg>