<svg class="main-svg" xmlns="http://www.w3.org/2000/svg" xmlns:xlink="http://www.w3.org/1999/xlink" width="700" height="600" style="" viewBox="0 0 700 600"><rect x="0" y="0" width="700" height="600" style="fill: rgb(255, 255, 255); fill-opacity: 1;"/><defs id="defs-f883df"><g class="clips"><clipPath id="clipf883dfxyplot" class="plotclip"><rect width="490" height="324"/></clipPath><clipPath class="axesclip" id="clipf883dfx"><rect x="80" y="0" width="490" height="600"/></clipPath><clipPath class="axesclip" id="clipf883dfy"><rect x="0" y="100" width="700" height="324"/></clipPath><clipPath class="axesclip" id="clipf883dfxy"><rect x="80" y="100" width="490" height="324"/></clipPath></g><g class="gradients"/></defs><g class="bglayer"><rect class="bg" x="80" y="100" width="490" height="324" style="fill: rgb(229, 236, 246); fill-opacity: 1; stroke-width: 0;"/></g><g class="layer-below"><g class="imagelayer"/><g class="shapelayer"/></g><g class="cartesianlayer"><g class="subplot xy"><g class="layer-subplot"><g class="shapelayer"/><g class="imagelayer"/></g><g class="gridlayer"><g class="x"><path class="xgrid crisp" transform="translate(166.47,0)" d="M0,100v324" style="stroke: rgb(255, 255, 255); stroke-opacity: 1; stroke-width: 1px;"/><path class="xgrid crisp" transform="translate(301.72,0)" d="M0,100v324" style="stroke: rgb(255, 255, 255); stroke-opacity: 1; stroke-width: 1px;"/><path class="xgrid crisp" transform="translate(436.97,0)" d="M0,100v324" style="stroke: rgb(255, 255, 255); stroke-opacity: 1; stroke-width: 1px;"/></g><g class="y"><path class="ygrid crisp" transform="translate(0,362.91)" d="M80,0h490" style="stroke: rgb(255, 255, 255); stroke-opacity: 1; stroke-width: 1px;"/><path class="ygrid crisp" transform="translate(0,301.81)" d="M80,0h490" style="stroke: rgb(255, 255, 255); stroke-opacity: 1; stroke-width: 1px;"/><path class="ygrid crisp" transform="translate(0,240.72)" d="M80,0h490" style="stroke: rgb(255, 255, 255); stroke-opacity: 1; stroke-width: 1px;"/><path class="ygrid crisp" transform="translate(0,179.62)" d="M80,0h490" style="stroke: rgb(255, 255, 255); stroke-opacity: 1; stroke-width: 1px;"/><path class="ygrid crisp" transform="translate(0,118.53)" d="M80,0h490" style="stroke: rgb(255, 255, 255); stroke-opacity: 1; stroke-width: 1px;"/></g></g><g class="zerolinelayer"><path class="yzl zl crisp" transform="translate(0,424)" d="M80,0h490" style="stroke: rgb(255, 255, 255); stroke-opacity: 1; stroke-width: 2px;"/></g><path class="xlines-below"/><path class="ylines-below"/><g class="overlines-below"/><g class="xaxislayer-below"/><g class="yaxislayer-below"/><g class="overaxes-below"/><g class="plot" transform="translate(80, 100)" clip-path="url('#clipf883dfxyplot')"><g class="scatterlayer mlayer"><g class="trace scatter traced4b7af" style="stroke-miterlimit: 2;"><g class="fills"><g><path class="js-fill" d="M490,324L0,324L0,324L101.99,323.26L104.21,323.24L148.55,322.24L150.77,322.06L175.16,319.5L177.38,319.18L192.9,316.88L195.11,316.49L208.42,314.13L210.63,313.78L219.5,311.73L221.72,311.26L259.41,302.34L261.63,301.71L281.58,294.66L283.8,293.72L303.76,285.77L305.97,283.92L330.36,272.25L332.58,270.84L339.23,267.61L341.45,266.2L354.75,258.8L356.97,257.38L359.19,253.9L361.4,252.56L365.84,248.71L368.05,247.21L401.31,220.78L403.53,218.62L407.96,213.75L410.18,211.07L416.83,205.16L419.05,202.7L425.7,195.3L427.92,193.63L441.22,178.38L443.44,176.22L445.66,174.21L447.87,170.49L454.52,162.05L456.74,159.98L467.83,146.6L470.05,144.52L485.57,126.37L487.78,123.79L490,121.24" style="fill: rgb(40, 167, 69); fill-opacity: 0.5; stroke-width: 0;"/></g><g><path class="js-fill" d="M0,324L99.77,323.25L101.99,323.21L144.12,322.11L146.33,321.96L164.07,320.01L166.29,319.73L203.98,312.68L206.2,311.99L219.5,308.84L221.72,308.31L261.63,297.74L263.85,296.96L272.71,293.46L274.93,292.67L286.02,288.33L288.24,287.36L292.67,285.33L294.89,284.29L303.76,280.84L305.97,278.95L330.36,266.63L332.58,265.17L339.23,261.79L341.45,260.31L354.75,252.59L356.97,251.12L359.19,247.58L361.4,246.18L365.84,242.23L368.05,240.68L381.36,230.36L383.57,228.6L392.44,220.53L394.66,218.62L396.88,217.5L399.1,215.51L407.96,205.99L410.18,203.24L416.83,197.15L419.05,194.6L425.7,187L427.92,185.27L441.22,169.58L443.44,167.36L445.66,165.29L447.87,161.49L456.74,150.64L458.96,147.76L490,110.91L490,121.24L487.78,123.79L485.57,126.37L470.05,144.52L467.83,146.6L456.74,159.98L454.52,162.05L447.87,170.49L445.66,174.21L443.44,176.22L441.22,178.38L427.92,193.63L425.7,195.3L419.05,202.7L416.83,205.16L410.18,211.07L407.96,213.75L403.53,218.62L401.31,220.78L368.05,247.21L365.84,248.71L361.4,252.56L359.19,253.9L356.97,257.38L354.75,258.8L341.45,266.2L339.23,267.61L332.58,270.84L330.36,272.25L305.97,283.92L303.76,285.77L283.8,293.72L281.58,294.66L261.63,301.71L259.41,302.34L221.72,311.26L219.5,311.73L210.63,313.78L208.42,314.13L195.11,316.49L192.9,316.88L177.38,319.18L175.16,319.5L150.77,322.06L148.55,322.24L104.21,323.24L101.99,323.26L0,324Z" style="fill: rgb(108, 117, 125); fill-opacity: 0.5; stroke-width: 0;"/></g></g><g class="errorbars"/><g class="lines"><path class="js-line" d="M0,324L101.99,323.26L104.21,323.24L148.55,322.24L150.77,322.06L175.16,319.5L177.38,319.18L192.9,316.88L195.11,316.49L208.42,314.13L210.63,313.78L219.5,311.73L221.72,311.26L259.41,302.34L261.63,301.71L281.58,294.66L283.8,293.72L303.76,285.77L305.97,283.92L330.36,272.25L332.58,270.84L339.23,267.61L341.45,266.2L354.75,258.8L356.97,257.38L359.19,253.9L361.4,252.56L365.84,248.71L368.05,247.21L401.31,220.78L403.53,218.62L407.96,213.75L410.18,211.07L416.83,205.16L419.05,202.7L425.7,195.3L427.92,193.63L441.22,178.38L443.44,176.22L445.66,174.21L447.87,170.49L454.52,162.05L456.74,159.98L467.83,146.6L470.05,144.52L485.57,126.37L487.78,123.79L490,121.24" style="vector-effect: non-scaling-stroke; fill: none; stroke: rgb(40, 167, 69); stroke-opacity: 1; stroke-width: 2px; opacity: 1;"/></g><g class="points"/><g class="text"/></g><g class="trace scatter trace2f4c91" style="stroke-miterlimit: 2;"><g class="fills"><g><path class="js-fill" d="M0,323.99L48.78,323.26L51,323.18L117.51,322.03L119.73,321.86L133.03,319.93L135.25,319.41L144.12,316.73L146.33,315.91L157.42,311.54L159.64,310.52L250.54,269.81L252.76,268.63L281.58,253.06L283.8,251.58L290.45,247.43L292.67,245.95L312.62,232.24L314.84,230.67L330.36,218.55L332.58,216.63L339.23,211.36L341.45,209.27L359.19,191.38L361.4,188.89L374.71,174.32L376.92,171.48L392.44,152.58L394.66,149.67L403.53,138.25L405.75,134.8L412.4,125.64L414.62,122.88L450.09,72.39L452.31,68.89L456.74,62.15L458.96,59.55L463.39,53.88L465.61,50.54L476.7,35.46L478.91,32.51L490,16.2L490,110.91L458.96,147.76L456.74,150.64L447.87,161.49L445.66,165.29L443.44,167.36L441.22,169.58L427.92,185.27L425.7,187L419.05,194.6L416.83,197.15L410.18,203.24L407.96,205.99L399.1,215.51L396.88,217.5L394.66,218.62L392.44,220.53L383.57,228.6L381.36,230.36L368.05,240.68L365.84,242.23L361.4,246.18L359.19,247.58L356.97,251.12L354.75,252.59L341.45,260.31L339.23,261.79L332.58,265.17L330.36,266.63L305.97,278.95L303.76,280.84L294.89,284.29L292.67,285.33L288.24,287.36L286.02,288.33L274.93,292.67L272.71,293.46L263.85,296.96L261.63,297.74L221.72,308.31L219.5,308.84L206.2,311.99L203.98,312.68L166.29,319.73L164.07,320.01L146.33,321.96L144.12,322.11L101.99,323.21L99.77,323.25L0,324Z" style="fill: rgb(255, 7, 58); fill-opacity: 0.5; stroke-width: 0;"/></g></g><g class="errorbars"/><g class="lines"><path class="js-line" d="M0,324L99.77,323.25L101.99,323.21L144.12,322.11L146.33,321.96L164.07,320.01L166.29,319.73L203.98,312.68L206.2,311.99L219.5,308.84L221.72,308.31L261.63,297.74L263.85,296.96L272.71,293.46L274.93,292.67L286.02,288.33L288.24,287.36L292.67,285.33L294.89,284.29L303.76,280.84L305.97,278.95L330.36,266.63L332.58,265.17L339.23,261.79L341.45,260.31L354.75,252.59L356.97,251.12L359.19,247.58L361.4,246.18L365.84,242.23L368.05,240.68L381.36,230.36L383.57,228.6L392.44,220.53L394.66,218.62L396.88,217.5L399.1,215.51L407.96,205.99L410.18,203.24L416.83,197.15L419.05,194.6L425.7,187L427.92,185.27L441.22,169.58L443.44,167.36L445.66,165.29L447.87,161.49L456.74,150.64L458.96,147.76L490,110.91" style="vector-effect: non-scaling-stroke; fill: none; stroke: rgb(108, 117, 125); stroke-opacity: 1; stroke-width: 2px; opacity: 1;"/></g><g class="points"/><g class="text"/></g><g class="trace scatter traceda043e" style="stroke-miterlimit: 2;"><g class="fills"/><g class="errorbars"/><g class="lines"><path class="js-line" d="M0,323.99L48.78,323.26L51,323.18L117.51,322.03L119.73,321.86L133.03,319.93L135.25,319.41L144.12,316.73L146.33,315.91L157.42,311.54L159.64,310.52L250.54,269.81L252.76,268.63L281.58,253.06L283.8,251.58L290.45,247.43L292.67,245.95L312.62,232.24L314.84,230.67L330.36,218.55L332.58,216.63L339.23,211.36L341.45,209.27L359.19,191.38L361.4,188.89L374.71,174.32L376.92,171.48L392.44,152.58L394.66,149.67L403.53,138.25L405.75,134.8L412.4,125.64L414.62,122.88L450.09,72.39L452.31,68.89L456.74,62.15L458.96,59.55L463.39,53.88L465.61,50.54L476.7,35.46L478.91,32.51L490,16.2" style="vector-effect: non-scaling-stroke; fill: none; stroke: rgb(255, 7, 58); stroke-opacity: 1; stroke-width: 2px; opacity: 1;"/></g><g class="points"/><g class="text"/></g></g></g><g class="overplot"/><path class="xlines-above crisp" style="fill: none; stroke-width: 1px; stroke: rgb(255, 255, 255); stroke-opacity: 1;" d="M79,424.5H570"/><path class="ylines-above crisp" style="fill: none; stroke-width: 1px; stroke: rgb(255, 255, 255); stroke-opacity: 1;" d="M79.5,100V424"/><g class="overlines-above"/><g class="xaxislayer-above"><g class="xtick"><text text-anchor="middle" x="0" y="439.4" transform="translate(166.47,0)" style="font-family: 'Open Sans', verdana, arial, sans-serif; font-size: 12px; fill: rgb(42, 63, 95); fill-opacity: 1; white-space: pre;">Mar 2020</text></g><g class="xtick"><text text-anchor="middle" x="0" y="439.4" transform="translate(301.72,0)" style="font-family: 'Open Sans', verdana, arial, sans-serif; font-size: 12px; fill: rgb(42, 63, 95); fill-opacity: 1; white-space: pre;">May 2020</text></g><g class="xtick"><text text-anchor="middle" x="0" y="439.4" transform="translate(436.97,0)" style="font-family: 'Open Sans', verdana, arial, sans-serif; font-size: 12px; fill: rgb(42, 63, 95); fill-opacity: 1; white-space: pre;">Jul 2020</text></g></g><g class="yaxislayer-above"><g class="ytick"><text text-anchor="end" x="76.6" y="4.199999999999999" transform="translate(0,424)" style="font-family: 'Open Sans', verdana, arial, sans-serif; font-size: 12px; fill: rgb(42, 63, 95); fill-opacity: 1; white-space: pre;">0</text></g><g class="ytick"><text text-anchor="end" x="76.6" y="4.199999999999999" transform="translate(0,362.91)" style="font-family: 'Open Sans', verdana, arial, sans-serif; font-size: 12px; fill: rgb(42, 63, 95); fill-opacity: 1; white-space: pre;">5M</text></g><g class="ytick"><text text-anchor="end" x="76.6" y="4.199999999999999" transform="translate(0,301.81)" style="font-family: 'Open Sans', verdana, arial, sans-serif; font-size: 12px; fill: rgb(42, 63, 95); fill-opacity: 1; white-space: pre;">10M</text></g><g class="ytick"><text text-anchor="end" x="76.6" y="4.199999999999999" transform="translate(0,240.72)" style="font-family: 'Open Sans', verdana, arial, sans-serif; font-size: 12px; fill: rgb(42, 63, 95); fill-opacity: 1; white-space: pre;">15M</text></g><g class="ytick"><text text-anchor="end" x="76.6" y="4.199999999999999" transform="translate(0,179.62)" style="font-family: 'Open Sans', verdana, arial, sans-serif; font-size: 12px; fill: rgb(42, 63, 95); fill-opacity: 1; white-space: pre;">20M</text></g><g class="ytick"><text text-anchor="end" x="76.6" y="4.199999999999999" transform="translate(0,118.53)" style="font-family: 'Open Sans', verdana, arial, sans-serif; font-size: 12px; fill: rgb(42, 63, 95); fill-opacity: 1; white-space: pre;">25M</text></g></g><g class="overaxes-above"/></g></g><g class="polarlayer"/><g class="ternarylayer"/><g class="geolayer"/><g class="funnelarealayer"/><g class="pielayer"/><g class="treemaplayer"/><g class="sunburstlayer"/><g class="glimages"/><defs id="topdefs-f883df"><g class="clips"/><clipPath id="legendf883df"><rect width="108" height="83" x="0" y="0"/></clipPath><clipPath id="rangesliderx-f883df"><rect x="0" y="0" width="490" height="63"/></clipPath></defs><g class="layer-above"><g class="imagelayer"/><g class="shapelayer"/></g><g class="infolayer"><g class="legend" pointer-events="all" transform="translate(579.8, 100)"><rect class="bg" shape-rendering="crispEdges" style="stroke: rgb(68, 68, 68); stroke-opacity: 1; fill: rgb(255, 255, 255); fill-opacity: 1; stroke-width: 0px;" width="108" height="83" x="0" y="0"/><g class="scrollbox" transform="translate(0, 0)" clip-path="url('#legendf883df')"><text class="legendtitletext user-select-none" text-anchor="start" x="2" y="15.600000000000001" style="font-family: 'Open Sans', verdana, arial, sans-serif; font-size: 12px; fill: rgb(42, 63, 95); fill-opacity: 1; white-space: pre;">Case</text><g class="groups" transform="translate(0, 0)"><g class="traces" transform="translate(0, 30.1)" style="opacity: 1;"><text class="legendtext user-select-none" text-anchor="start" x="40" y="4.680000000000001" style="font-family: 'Open Sans', verdana, arial, sans-serif; font-size: 12px; fill: rgb(42, 63, 95); fill-opacity: 1; white-space: pre;">Recovered</text><g class="layers"><g class="legendfill"><path class="js-fill" d="M5,-2h30v6h-30z" style="stroke-width: 0; fill: rgb(40, 167, 69); fill-opacity: 0.5;"/></g><g class="legendlines"><path class="js-line" d="M5,-2h30" style="fill: none; stroke: rgb(40, 167, 69); stroke-opacity: 1; stroke-width: 2px;"/></g><g class="legendsymbols"><g class="legendpoints"/></g></g><rect class="legendtoggle" pointer-events="all" x="0" y="-9.5" width="102.546875" height="19" style="cursor: pointer; fill: rgb(0, 0, 0); fill-opacity: 0;"/></g></g><g class="groups" transform="translate(0, 0)"><g class="traces" transform="translate(0, 49.1)" style="opacity: 1;"><text class="legendtext user-select-none" text-anchor="start" x="40" y="4.680000000000001" style="font-family: 'Open Sans', verdana, arial, sans-serif; font-size: 12px; fill: rgb(42, 63, 95); fill-opacity: 1; white-space: pre;">Deaths</text><g class="layers"><g class="legendfill"><path class="js-fill" d="M5,-2h30v6h-30z" style="stroke-width: 0; fill: rgb(108, 117, 125); fill-opacity: 0.5;"/></g><g class="legendlines"><path class="js-line" d="M5,-2h30" style="fill: none; stroke: rgb(108, 117, 125); stroke-opacity: 1; stroke-width: 2px;"/></g><g class="legendsymbols"><g class="legendpoints"/></g></g><rect class="legendtoggle" pointer-events="all" x="0" y="-9.5" width="102.546875" height="19" style="cursor: pointer; fill: rgb(0, 0, 0); fill-opacity: 0;"/></g></g><g class="groups" transform="translate(0, 0)"><g class="traces" transform="translate(0, 68.1)" style="opacity: 1;"><text class="legendtext user-select-none" text-anchor="start" x="40" y="4.680000000000001" style="font-family: 'Open Sans', verdana, arial, sans-serif; font-size: 12px; fill: rgb(42, 63, 95); fill-opacity: 1; white-space: pre;">Active</text><g class="layers"><g class="legendfill"><path class="js-fill" d="M5,-2h30v6h-30z" style="stroke-width: 0; fill: rgb(255, 7, 58); fill-opacity: 0.5;"/></g><g class="legendlines"><path class="js-line" d="M5,-2h30" style="fill: none; stroke: rgb(255, 7, 58); stroke-opacity: 1; stroke-width: 2px;"/></g><g class="legendsymbols"><g class="legendpoints"/></g></g><rect class="legendtoggle" pointer-events="all" x="0" y="-9.5" width="102.546875" height="19" style="cursor: pointer; fill: rgb(0, 0, 0); fill-opacity: 0;"/></g></g></g><rect class="scrollbar" rx="20" ry="3" width="0" height="0" x="0" y="0" style="fill: rgb(128, 139, 164); fill-opacity: 1;"/></g><g class="g-gtitle"><text class="gtitle" x="35" y="50" text-anchor="start" dy="0em" style="font-family: 'Open Sans', verdana, arial, sans-serif; font-size: 17px; fill: rgb(42, 63, 95); opacity: 1; font-weight: normal; white-space: pre;">Cases over time</text></g><g class="rangeslider-container" pointer-events="all" transform="translate(80,457)"><rect class="rangeslider-bg" x="0" y="0" shape-rendering="crispEdges" width="490" height="63" transform="translate(0,0)" fill="#E5ECF6" stroke="#444" stroke-width="0"/><g class="rangeslider-rangeplot xy" clip-path="url('#rangesliderx-f883df')"><g class="layer-subplot"><g class="shapelayer"/><g class="imagelayer"/></g><g class="gridlayer"><g class="x"/><g class="y"/></g><g class="zerolinelayer"/><path class="xlines-below"/><path class="ylines-below"/><g class="overlines-below"/><g class="xaxislayer-below"/><g class="yaxislayer-below"/><g class="overaxes-below"/><g class="plot"><g class="scatterlayer mlayer rangeplot"><g class="trace scatter traced4b7af" style="stroke-miterlimit: 2;"><g class="fills"><g><path class="js-fill" d="M490,63L0,63L0,63L168.51,62.3L170.72,62.24L246.11,59.49L248.33,59.35L281.58,57.3L283.8,57.11L334.8,52.5L337.01,52.28L361.4,49.11L363.62,48.64L392.44,44.29L394.66,43.93L403.53,42.51L405.75,42.11L423.48,38.41L425.7,37.98L436.79,35.62L439,35.16L476.7,26.62L478.91,26.06L490,23.58" style="fill: rgb(40, 167, 69); fill-opacity: 0.5; stroke-width: 0;"/></g><g><path class="js-fill" d="M0,63L161.86,62.27L164.07,62.22L215.07,60.34L217.29,60.22L243.89,58.89L246.11,58.79L308.19,54.03L310.41,53.83L356.97,48.83L359.19,48.14L383.57,44.45L385.79,44.1L421.27,37.3L423.48,36.81L452.31,30.4L454.52,29.7L472.26,25.72L474.48,25.17L490,21.57L490,23.58L478.91,26.06L476.7,26.62L439,35.16L436.79,35.62L425.7,37.98L423.48,38.41L405.75,42.11L403.53,42.51L394.66,43.93L392.44,44.29L363.62,48.64L361.4,49.11L337.01,52.28L334.8,52.5L283.8,57.11L281.58,57.3L248.33,59.35L246.11,59.49L170.72,62.24L168.51,62.3L0,63Z" style="fill: rgb(108, 117, 125); fill-opacity: 0.5; stroke-width: 0;"/></g></g><g class="errorbars"/><g class="lines"><path class="js-line" d="M0,63L168.51,62.3L170.72,62.24L246.11,59.49L248.33,59.35L281.58,57.3L283.8,57.11L334.8,52.5L337.01,52.28L361.4,49.11L363.62,48.64L392.44,44.29L394.66,43.93L403.53,42.51L405.75,42.11L423.48,38.41L425.7,37.98L436.79,35.62L439,35.16L476.7,26.62L478.91,26.06L490,23.58" style="vector-effect: non-scaling-stroke; fill: none; stroke: rgb(40, 167, 69); stroke-opacity: 1; stroke-width: 2px; opacity: 1;"/></g><g class="points"/><g class="text"/></g><g class="trace scatter trace2f4c91" style="stroke-miterlimit: 2;"><g class="fills"><g><path class="js-fill" d="M0,63L130.81,62.29L133.03,62.21L161.86,60.19L164.07,60.02L235.02,53.88L237.24,53.66L294.89,47.54L297.1,47.24L345.88,39.81L348.1,39.39L372.49,34.44L374.71,33.9L434.57,18.37L436.79,17.7L461.18,11.08L463.39,10.48L490,3.15L490,21.57L474.48,25.17L472.26,25.72L454.52,29.7L452.31,30.4L423.48,36.81L421.27,37.3L385.79,44.1L383.57,44.45L359.19,48.14L356.97,48.83L310.41,53.83L308.19,54.03L246.11,58.79L243.89,58.89L217.29,60.22L215.07,60.34L164.07,62.22L161.86,62.27L0,63Z" style="fill: rgb(255, 7, 58); fill-opacity: 0.5; stroke-width: 0;"/></g></g><g class="errorbars"/><g class="lines"><path class="js-line" d="M0,63L161.86,62.27L164.07,62.22L215.07,60.34L217.29,60.22L243.89,58.89L246.11,58.79L308.19,54.03L310.41,53.83L356.97,48.83L359.19,48.14L383.57,44.45L385.79,44.1L421.27,37.3L423.48,36.81L452.31,30.4L454.52,29.7L472.26,25.72L474.48,25.17L490,21.57" style="vector-effect: non-scaling-stroke; fill: none; stroke: rgb(108, 117, 125); stroke-opacity: 1; stroke-width: 2px; opacity: 1;"/></g><g class="points"/><g class="text"/></g><g class="trace scatter traceda043e" style="stroke-miterlimit: 2;"><g class="fills"/><g class="errorbars"/><g class="lines"><path class="js-line" d="M0,63L130.81,62.29L133.03,62.21L161.86,60.19L164.07,60.02L235.02,53.88L237.24,53.66L294.89,47.54L297.1,47.24L345.88,39.81L348.1,39.39L372.49,34.44L374.71,33.9L434.57,18.37L436.79,17.7L461.18,11.08L463.39,10.48L490,3.15" style="vector-effect: non-scaling-stroke; fill: none; stroke: rgb(255, 7, 58); stroke-opacity: 1; stroke-width: 2px; opacity: 1;"/></g><g class="points"/><g class="text"/></g></g></g><g class="overplot"/><path class="xlines-above crisp" style="fill: none;"/><path class="ylines-above crisp" style="fill: none;"/><g class="overlines-above"/><g class="xaxislayer-above"/><g class="yaxislayer-above"/><g class="overaxes-above"/></g><rect class="rangeslider-mask-min" x="0" y="0" shape-rendering="crispEdges" height="63" width="0" style="fill: rgb(0, 0, 0); fill-opacity: 0.4;"/><rect class="rangeslider-mask-max" y="0" shape-rendering="crispEdges" height="63" x="490" width="0" style="fill: rgb(0, 0, 0); fill-opacity: 0.4;"/><g class="rangeslider-grabber-min" transform="translate(-2.5,0.5)"><rect class="rangeslider-handle-min" x="0" width="4" rx="1" fill="#fff" stroke="#444" stroke-width="1" shape-rendering="crispEdges" y="16" height="32"/></g><g class="rangeslider-grabber-max" transform="translate(488.5,0.5)"><rect class="rangeslider-handle-max" x="0" width="4" rx="1" fill="#fff" stroke="#444" stroke-width="1" shape-rendering="crispEdges" y="16" height="32"/></g></g><g class="g-ytitle"><text class="ytitle" transform="rotate(-90,26.418750000000003,262)" x="26.418750000000003" y="262" text-anchor="middle" style="font-family: 'Open Sans', verdana, arial, sans-serif; font-size: 14px; fill: rgb(42, 63, 95); opacity: 1; font-weight: normal; white-space: pre;">Count</text></g><g class="g-xtitle"><text class="xtitle" x="325" y="551" text-anchor="middle" style="font-family: 'Open Sans', verdana, arial, sans-serif; font-size: 14px; fill: rgb(42, 63, 95); opacity: 1; font-weight: normal; white-space: pre;">Date</text></g></g></svg>