<svg class="main-svg" xmlns="http://www.w3.org/2000/svg" xmlns:xlink="http://www.w3.org/1999/xlink" width="700" height="600" style="" viewBox="0 0 700 600"><rect x="0" y="0" width="700" height="600" style="fill: rgb(255, 255, 255); fill-opacity: 1;"/><defs id="defs-143fd8"><g class="clips"><clipPath id="clip143fd8xyplot" class="plotclip"><rect width="490" height="324"/></clipPath><clipPath class="axesclip" id="clip143fd8x"><rect x="80" y="0" width="490" height="600"/></clipPath><clipPath class="axesclip" id="clip143fd8y"><rect x="0" y="100" width="700" height="324"/></clipPath><clipPath class="axesclip" id="clip143fd8xy"><rect x="80" y="100" width="490" height="324"/></clipPath></g><g class="gradients"/></defs><g class="bglayer"><rect class="bg" x="80" y="100" width="490" height="324" style="fill: rgb(229, 236, 246); fill-opacity: 1; stroke-width: 0;"/></g><g class="layer-below"><g class="imagelayer"/><g class="shapelayer"/></g><g class="cartesianlayer"><g class="subplot xy"><g class="layer-subplot"><g class="shapelayer"/><g class="imagelayer"/></g><g class="gridlayer"><g class="x"><path class="xgrid crisp" transform="translate(163.45,0)" d="M0,100v324" style="stroke: rgb(255, 255, 255); stroke-opacity: 1; stroke-width: 1px;"/><path class="xgrid crisp" transform="translate(293.97,0)" d="M0,100v324" style="stroke: rgb(255, 255, 255); stroke-opacity: 1; stroke-width: 1px;"/><path class="xgrid crisp" transform="translate(424.5,0)" d="M0,100v324" style="stroke: rgb(255, 255, 255); stroke-opacity: 1; stroke-width: 1px;"/><path class="xgrid crisp" transform="translate(557.1600000000001,0)" d="M0,100v324" style="stroke: rgb(255, 255, 255); stroke-opacity: 1; stroke-width: 1px;"/></g><g class="y"><path class="ygrid crisp" transform="translate(0,367.63)" d="M80,0h490" style="stroke: rgb(255, 255, 255); stroke-opacity: 1; stroke-width: 1px;"/><path class="ygrid crisp" transform="translate(0,311.27)" d="M80,0h490" style="stroke: rgb(255, 255, 255); stroke-opacity: 1; stroke-width: 1px;"/><path class="ygrid crisp" transform="translate(0,254.9)" d="M80,0h490" style="stroke: rgb(255, 255, 255); stroke-opacity: 1; stroke-width: 1px;"/><path class="ygrid crisp" transform="translate(0,198.54000000000002)" d="M80,0h490" style="stroke: rgb(255, 255, 255); stroke-opacity: 1; stroke-width: 1px;"/><path class="ygrid crisp" transform="translate(0,142.17000000000002)" d="M80,0h490" style="stroke: rgb(255, 255, 255); stroke-opacity: 1; stroke-width: 1px;"/></g></g><g class="zerolinelayer"><path class="yzl zl crisp" transform="translate(0,424)" d="M80,0h490" style="stroke: rgb(255, 255, 255); stroke-opacity: 1; stroke-width: 2px;"/></g><path class="xlines-below"/><path class="ylines-below"/><g class="overlines-below"/><g class="xaxislayer-below"/><g class="yaxislayer-below"/><g class="overaxes-below"/><g class="plot" transform="translate(80, 100)" clip-path="url('#clip143fd8xyplot')"><g class="scatterlayer mlayer"><g class="trace scatter tracece93cb" style="stroke-miterlimit: 2;"><g class="fills"><g><path class="js-fill" d="M490,324L0,324L0,324L104.85,323.25L106.99,323.23L145.5,322.21L147.64,322.06L173.32,319.34L175.46,319.03L199,315.21L201.14,314.89L213.97,312.25L216.11,311.79L237.51,307.33L239.65,306.7L252.49,303.44L254.63,302.77L263.19,299.74L265.33,299.02L276.03,295.27L278.17,294.41L282.45,292.62L284.59,291.73L293.14,288.73L295.28,287.02L318.82,276.26L320.96,274.95L327.38,271.98L329.52,270.67L342.36,263.84L344.5,262.54L346.64,259.33L348.78,258.09L353.06,254.54L355.2,253.15L387.29,228.77L389.43,226.78L393.71,222.28L395.85,219.81L402.27,214.36L404.41,212.08L410.83,205.26L412.97,203.72L425.81,189.65L427.95,187.66L430.09,185.81L432.23,182.37L440.79,172.68L442.93,170.07L490,117.59" style="fill: rgb(40, 167, 69); fill-opacity: 0.5; stroke-width: 0;"/></g><g><path class="js-fill" d="M0,324L100.57,323.25L102.71,323.23L143.36,321.98L145.5,321.76L164.76,319.31L166.9,318.94L194.72,313.96L196.86,313.56L203.28,312.18L205.41,311.81L228.95,306.13L231.09,305.47L241.79,302.82L243.93,302.22L271.75,292.85L273.89,291.92L293.14,284.18L295.28,282.43L318.82,271.07L320.96,269.72L327.38,266.6L329.52,265.24L344.5,256.76L346.64,253.49L348.78,252.2L350.92,249.94L359.48,243.59L361.62,242.01L378.73,228.54L380.87,226.78L385.15,223.9L387.29,221.87L404.41,204.62L406.55,202.04L430.09,177.58L432.23,174.07L440.79,164.05L442.93,161.4L490,107.54L490,117.59L442.93,170.07L440.79,172.68L432.23,182.37L430.09,185.81L427.95,187.66L425.81,189.65L412.97,203.72L410.83,205.26L404.41,212.08L402.27,214.36L395.85,219.81L393.71,222.28L389.43,226.78L387.29,228.77L355.2,253.15L353.06,254.54L348.78,258.09L346.64,259.33L344.5,262.54L342.36,263.84L329.52,270.67L327.38,271.98L320.96,274.95L318.82,276.26L295.28,287.02L293.14,288.73L284.59,291.73L282.45,292.62L278.17,294.41L276.03,295.27L265.33,299.02L263.19,299.74L254.63,302.77L252.49,303.44L239.65,306.7L237.51,307.33L216.11,311.79L213.97,312.25L201.14,314.89L199,315.21L175.46,319.03L173.32,319.34L147.64,322.06L145.5,322.21L106.99,323.23L104.85,323.25L0,324Z" style="fill: rgb(108, 117, 125); fill-opacity: 0.5; stroke-width: 0;"/></g></g><g class="errorbars"/><g class="lines"><path class="js-line" d="M0,324L104.85,323.25L106.99,323.23L145.5,322.21L147.64,322.06L173.32,319.34L175.46,319.03L199,315.21L201.14,314.89L213.97,312.25L216.11,311.79L237.51,307.33L239.65,306.7L252.49,303.44L254.63,302.77L263.19,299.74L265.33,299.02L276.03,295.27L278.17,294.41L282.45,292.62L284.59,291.73L293.14,288.73L295.28,287.02L318.82,276.26L320.96,274.95L327.38,271.98L329.52,270.67L342.36,263.84L344.5,262.54L346.64,259.33L348.78,258.09L353.06,254.54L355.2,253.15L387.29,228.77L389.43,226.78L393.71,222.28L395.85,219.81L402.27,214.36L404.41,212.08L410.83,205.26L412.97,203.72L425.81,189.65L427.95,187.66L430.09,185.81L432.23,182.37L440.79,172.68L442.93,170.07L490,117.59" style="vector-effect: non-scaling-stroke; fill: none; stroke: rgb(40, 167, 69); stroke-opacity: 1; stroke-width: 2px; opacity: 1;"/></g><g class="points"/><g class="text"/></g><g class="trace scatter trace616753" style="stroke-miterlimit: 2;"><g class="fills"><g><path class="js-fill" d="M0,323.99L49.21,323.25L51.35,323.22L115.55,322.02L117.69,321.85L128.38,320.25L130.52,319.77L139.08,317.3L141.22,316.54L151.92,312.5L154.06,311.56L239.65,275.09L241.79,274L271.75,258.55L273.89,257.19L280.31,253.35L282.45,251.99L303.84,237.89L305.98,236.36L318.82,226.71L320.96,224.94L327.38,220.08L329.52,218.15L346.64,201.64L348.78,199.35L361.62,185.9L363.76,183.29L378.73,165.84L380.87,163.16L389.43,152.63L391.57,149.44L397.99,140.99L400.13,138.44L421.53,109.04L423.67,105.87L445.07,77.67L447.21,74.78L457.9,60.34L460.04,57.79L466.46,48.69L468.6,45.52L490,16.2L490,107.54L442.93,161.4L440.79,164.05L432.23,174.07L430.09,177.58L406.55,202.04L404.41,204.62L387.29,221.87L385.15,223.9L380.87,226.78L378.73,228.54L361.62,242.01L359.48,243.59L350.92,249.94L348.78,252.2L346.64,253.49L344.5,256.76L329.52,265.24L327.38,266.6L320.96,269.72L318.82,271.07L295.28,282.43L293.14,284.18L273.89,291.92L271.75,292.85L243.93,302.22L241.79,302.82L231.09,305.47L228.95,306.13L205.41,311.81L203.28,312.18L196.86,313.56L194.72,313.96L166.9,318.94L164.76,319.31L145.5,321.76L143.36,321.98L102.71,323.23L100.57,323.25L0,324Z" style="fill: rgb(255, 7, 58); fill-opacity: 0.5; stroke-width: 0;"/></g></g><g class="errorbars"/><g class="lines"><path class="js-line" d="M0,324L100.57,323.25L102.71,323.23L143.36,321.98L145.5,321.76L164.76,319.31L166.9,318.94L194.72,313.96L196.86,313.56L203.28,312.18L205.41,311.81L228.95,306.13L231.09,305.47L241.79,302.82L243.93,302.22L271.75,292.85L273.89,291.92L293.14,284.18L295.28,282.43L318.82,271.07L320.96,269.72L327.38,266.6L329.52,265.24L344.5,256.76L346.64,253.49L348.78,252.2L350.92,249.94L359.48,243.59L361.62,242.01L378.73,228.54L380.87,226.78L385.15,223.9L387.29,221.87L404.41,204.62L406.55,202.04L430.09,177.58L432.23,174.07L440.79,164.05L442.93,161.4L490,107.54" style="vector-effect: non-scaling-stroke; fill: none; stroke: rgb(108, 117, 125); stroke-opacity: 1; stroke-width: 2px; opacity: 1;"/></g><g class="points"/><g class="text"/></g><g class="trace scatter tracedc847d" style="stroke-miterlimit: 2;"><g class="fills"/><g class="errorbars"/><g class="lines"><path class="js-line" d="M0,323.99L49.21,323.25L51.35,323.22L115.55,322.02L117.69,321.85L128.38,320.25L130.52,319.77L139.08,317.3L141.22,316.54L151.92,312.5L154.06,311.56L239.65,275.09L241.79,274L271.75,258.55L273.89,257.19L280.31,253.35L282.45,251.99L303.84,237.89L305.98,236.36L318.82,226.71L320.96,224.94L327.38,220.08L329.52,218.15L346.64,201.64L348.78,199.35L361.62,185.9L363.76,183.29L378.73,165.84L380.87,163.16L389.43,152.63L391.57,149.44L397.99,140.99L400.13,138.44L421.53,109.04L423.67,105.87L445.07,77.67L447.21,74.78L457.9,60.34L460.04,57.79L466.46,48.69L468.6,45.52L490,16.2" style="vector-effect: non-scaling-stroke; fill: none; stroke: rgb(255, 7, 58); stroke-opacity: 1; stroke-width: 2px; opacity: 1;"/></g><g class="points"/><g class="text"/></g></g></g><g class="overplot"/><path class="xlines-above crisp" style="fill: none; stroke-width: 1px; stroke: rgb(255, 255, 255); stroke-opacity: 1;" d="M79,424.5H570"/><path class="ylines-above crisp" style="fill: none; stroke-width: 1px; stroke: rgb(255, 255, 255); stroke-opacity: 1;" d="M79.5,100V424"/><g class="overlines-above"/><g class="xaxislayer-above"><g class="xtick"><text text-anchor="middle" x="0" y="439.4" transform="translate(163.45,0)" style="font-family: 'Open Sans', verdana, arial, sans-serif; font-size: 12px; fill: rgb(42, 63, 95); fill-opacity: 1; white-space: pre;">Mar 2020</text></g><g class="xtick"><text text-anchor="middle" x="0" y="439.4" transform="translate(293.97,0)" style="font-family: 'Open Sans', verdana, arial, sans-serif; font-size: 12px; fill: rgb(42, 63, 95); fill-opacity: 1; white-space: pre;">May 2020</text></g><g class="xtick"><text text-anchor="middle" x="0" y="439.4" transform="translate(424.5,0)" style="font-family: 'Open Sans', verdana, arial, sans-serif; font-size: 12px; fill: rgb(42, 63, 95); fill-opacity: 1; white-space: pre;">Jul 2020</text></g><g class="xtick"><text text-anchor="middle" x="0" y="439.4" transform="translate(557.1600000000001,0)" style="font-family: 'Open Sans', verdana, arial, sans-serif; font-size: 12px; fill: rgb(42, 63, 95); fill-opacity: 1; white-space: pre;">Sep 2020</text></g></g><g class="yaxislayer-above"><g class="ytick"><text text-anchor="end" x="76.6" y="4.199999999999999" transform="translate(0,424)" style="font-family: 'Open Sans', verdana, arial, sans-serif; font-size: 12px; fill: rgb(42, 63, 95); fill-opacity: 1; white-space: pre;">0</text></g><g class="ytick"><text text-anchor="end" x="76.6" y="4.199999999999999" transform="translate(0,367.63)" style="font-family: 'Open Sans', verdana, arial, sans-serif; font-size: 12px; fill: rgb(42, 63, 95); fill-opacity: 1; white-space: pre;">5M</text></g><g class="ytick"><text text-anchor="end" x="76.6" y="4.199999999999999" transform="translate(0,311.27)" style="font-family: 'Open Sans', verdana, arial, sans-serif; font-size: 12px; fill: rgb(42, 63, 95); fill-opacity: 1; white-space: pre;">10M</text></g><g class="ytick"><text text-anchor="end" x="76.6" y="4.199999999999999" transform="translate(0,254.9)" style="font-family: 'Open Sans', verdana, arial, sans-serif; font-size: 12px; fill: rgb(42, 63, 95); fill-opacity: 1; white-space: pre;">15M</text></g><g class="ytick"><text text-anchor="end" x="76.6" y="4.199999999999999" transform="translate(0,198.54000000000002)" style="font-family: 'Open Sans', verdana, arial, sans-serif; font-size: 12px; fill: rgb(42, 63, 95); fill-opacity: 1; white-space: pre;">20M</text></g><g class="ytick"><text text-anchor="end" x="76.6" y="4.199999999999999" transform="translate(0,142.17000000000002)" style="font-family: 'Open Sans', verdana, arial, sans-serif; font-size: 12px; fill: rgb(42, 63, 95); fill-opacity: 1; white-space: pre;">25M</text></g></g><g class="overaxes-above"/></g></g><g class="polarlayer"/><g class="ternarylayer"/><g class="geolayer"/><g class="funnelarealayer"/><g class="pielayer"/><g class="treemaplayer"/><g class="sunburstlayer"/><g class="glimages"/><defs id="topdefs-143fd8"><g class="clips"/><clipPath id="legend143fd8"><rect width="108" height="83" x="0" y="0"/></clipPath><clipPath id="rangesliderx-143fd8"><rect x="0" y="0" width="490" height="63"/></clipPath></defs><g class="layer-above"><g class="imagelayer"/><g class="shapelayer"/></g><g class="infolayer"><g class="legend" pointer-events="all" transform="translate(579.8, 100)"><rect class="bg" shape-rendering="crispEdges" style="stroke: rgb(68, 68, 68); stroke-opacity: 1; fill: rgb(255, 255, 255); fill-opacity: 1; stroke-width: 0px;" width="108" height="83" x="0" y="0"/><g class="scrollbox" transform="translate(0, 0)" clip-path="url('#legend143fd8')"><text class="legendtitletext user-select-none" text-anchor="start" x="2" y="15.600000000000001" style="font-family: 'Open Sans', verdana, arial, sans-serif; font-size: 12px; fill: rgb(42, 63, 95); fill-opacity: 1; white-space: pre;">Case</text><g class="groups" transform="translate(0, 0)"><g class="traces" transform="translate(0, 30.1)" style="opacity: 1;"><text class="legendtext user-select-none" text-anchor="start" x="40" y="4.680000000000001" style="font-family: 'Open Sans', verdana, arial, sans-serif; font-size: 12px; fill: rgb(42, 63, 95); fill-opacity: 1; white-space: pre;">Recovered</text><g class="layers"><g class="legendfill"><path class="js-fill" d="M5,-2h30v6h-30z" style="stroke-width: 0; fill: rgb(40, 167, 69); fill-opacity: 0.5;"/></g><g class="legendlines"><path class="js-line" d="M5,-2h30" style="fill: none; stroke: rgb(40, 167, 69); stroke-opacity: 1; stroke-width: 2px;"/></g><g class="legendsymbols"><g class="legendpoints"/></g></g><rect class="legendtoggle" pointer-events="all" x="0" y="-9.5" width="102.546875" height="19" style="cursor: pointer; fill: rgb(0, 0, 0); fill-opacity: 0;"/></g></g><g class="groups" transform="translate(0, 0)"><g class="traces" transform="translate(0, 49.1)" style="opacity: 1;"><text class="legendtext user-select-none" text-anchor="start" x="40" y="4.680000000000001" style="font-family: 'Open Sans', verdana, arial, sans-serif; font-size: 12px; fill: rgb(42, 63, 95); fill-opacity: 1; white-space: pre;">Deaths</text><g class="layers"><g class="legendfill"><path class="js-fill" d="M5,-2h30v6h-30z" style="stroke-width: 0; fill: rgb(108, 117, 125); fill-opacity: 0.5;"/></g><g class="legendlines"><path class="js-line" d="M5,-2h30" style="fill: none; stroke: rgb(108, 117, 125); stroke-opacity: 1; stroke-width: 2px;"/></g><g class="legendsymbols"><g class="legendpoints"/></g></g><rect class="legendtoggle" pointer-events="all" x="0" y="-9.5" width="102.546875" height="19" style="cursor: pointer; fill: rgb(0, 0, 0); fill-opacity: 0;"/></g></g><g class="groups" transform="translate(0, 0)"><g class="traces" transform="translate(0, 68.1)" style="opacity: 1;"><text class="legendtext user-select-none" text-anchor="start" x="40" y="4.680000000000001" style="font-family: 'Open Sans', verdana, arial, sans-serif; font-size: 12px; fill: rgb(42, 63, 95); fill-opacity: 1; white-space: pre;">Active</text><g class="layers"><g class="legendfill"><path class="js-fill" d="M5,-2h30v6h-30z" style="stroke-width: 0; fill: rgb(255, 7, 58); fill-opacity: 0.5;"/></g><g class="legendlines"><path class="js-line" d="M5,-2h30" style="fill: none; stroke: rgb(255, 7, 58); stroke-opacity: 1; stroke-width: 2px;"/></g><g class="legendsymbols"><g class="legendpoints"/></g></g><rect class="legendtoggle" pointer-events="all" x="0" y="-9.5" width="102.546875" height="19" style="cursor: pointer; fill: rgb(0, 0, 0); fill-opacity: 0;"/></g></g></g><rect class="scrollbar" rx="20" ry="3" width="0" height="0" x="0" y="0" style="fill: rgb(128, 139, 164); fill-opacity: 1;"/></g><g class="g-gtitle"><text class="gtitle" x="35" y="50" text-anchor="start" dy="0em" style="font-family: 'Open Sans', verdana, arial, sans-serif; font-size: 17px; fill: rgb(42, 63, 95); opacity: 1; font-weight: normal; white-space: pre;">Cases over time</text></g><g class="rangeslider-container" pointer-events="all" transform="translate(80,457)"><rect class="rangeslider-bg" x="0" y="0" shape-rendering="crispEdges" width="490" height="63" transform="translate(0,0)" fill="#E5ECF6" stroke="#444" stroke-width="0"/><g class="rangeslider-rangeplot xy" clip-path="url('#rangesliderx-143fd8')"><g class="layer-subplot"><g class="shapelayer"/><g class="imagelayer"/></g><g class="gridlayer"><g class="x"/><g class="y"/></g><g class="zerolinelayer"/><path class="xlines-below"/><path class="ylines-below"/><g class="overlines-below"/><g class="xaxislayer-below"/><g class="yaxislayer-below"/><g class="overaxes-below"/><g class="plot"><g class="scatterlayer mlayer rangeplot"><g class="trace scatter tracece93cb" style="stroke-miterlimit: 2;"><g class="fills"><g><path class="js-fill" d="M490,63L0,63L0,63L164.76,62.3L166.9,62.24L231.09,60.02L233.23,59.94L280.31,57.13L282.45,56.9L333.8,52.19L335.94,51.96L348.78,50.18L350.92,49.76L387.29,44.48L389.43,44.1L425.81,36.88L427.95,36.49L440.79,33.58L442.93,33.07L490,22.87" style="fill: rgb(40, 167, 69); fill-opacity: 0.5; stroke-width: 0;"/></g><g><path class="js-fill" d="M0,63L158.34,62.28L160.48,62.24L241.79,58.88L243.93,58.76L293.14,55.26L295.28,54.92L344.5,49.93L346.64,49.29L372.31,45.56L374.45,45.2L406.55,39.29L408.69,38.84L436.51,32.93L438.65,32.28L455.76,28.58L457.9,28.1L490,20.91L490,22.87L442.93,33.07L440.79,33.58L427.95,36.49L425.81,36.88L389.43,44.1L387.29,44.48L350.92,49.76L348.78,50.18L335.94,51.96L333.8,52.19L282.45,56.9L280.31,57.13L233.23,59.94L231.09,60.02L166.9,62.24L164.76,62.3L0,63Z" style="fill: rgb(108, 117, 125); fill-opacity: 0.5; stroke-width: 0;"/></g></g><g class="errorbars"/><g class="lines"><path class="js-line" d="M0,63L164.76,62.3L166.9,62.24L231.09,60.02L233.23,59.94L280.31,57.13L282.45,56.9L333.8,52.19L335.94,51.96L348.78,50.18L350.92,49.76L387.29,44.48L389.43,44.1L425.81,36.88L427.95,36.49L440.79,33.58L442.93,33.07L490,22.87" style="vector-effect: non-scaling-stroke; fill: none; stroke: rgb(40, 167, 69); stroke-opacity: 1; stroke-width: 2px; opacity: 1;"/></g><g class="points"/><g class="text"/></g><g class="trace scatter trace616753" style="stroke-miterlimit: 2;"><g class="fills"><g><path class="js-fill" d="M0,63L128.38,62.27L130.52,62.18L156.2,60.41L158.34,60.25L241.79,53.28L243.93,53.07L297.42,47.14L299.56,46.84L340.22,40.52L342.36,40.14L402.27,26.37L404.41,25.73L440.79,16.02L442.93,15.56L462.18,10.71L464.32,10.08L490,3.15L490,20.91L457.9,28.1L455.76,28.58L438.65,32.28L436.51,32.93L408.69,38.84L406.55,39.29L374.45,45.2L372.31,45.56L346.64,49.29L344.5,49.93L295.28,54.92L293.14,55.26L243.93,58.76L241.79,58.88L160.48,62.24L158.34,62.28L0,63Z" style="fill: rgb(255, 7, 58); fill-opacity: 0.5; stroke-width: 0;"/></g></g><g class="errorbars"/><g class="lines"><path class="js-line" d="M0,63L158.34,62.28L160.48,62.24L241.79,58.88L243.93,58.76L293.14,55.26L295.28,54.92L344.5,49.93L346.64,49.29L372.31,45.56L374.45,45.2L406.55,39.29L408.69,38.84L436.51,32.93L438.65,32.28L455.76,28.58L457.9,28.1L490,20.91" style="vector-effect: non-scaling-stroke; fill: none; stroke: rgb(108, 117, 125); stroke-opacity: 1; stroke-width: 2px; opacity: 1;"/></g><g class="points"/><g class="text"/></g><g class="trace scatter tracedc847d" style="stroke-miterlimit: 2;"><g class="fills"/><g class="errorbars"/><g class="lines"><path class="js-line" d="M0,63L128.38,62.27L130.52,62.18L156.2,60.41L158.34,60.25L241.79,53.28L243.93,53.07L297.42,47.14L299.56,46.84L340.22,40.52L342.36,40.14L402.27,26.37L404.41,25.73L440.79,16.02L442.93,15.56L462.18,10.71L464.32,10.08L490,3.15" style="vector-effect: non-scaling-stroke; fill: none; stroke: rgb(255, 7, 58); stroke-opacity: 1; stroke-width: 2px; opacity: 1;"/></g><g class="points"/><g class="text"/></g></g></g><g class="overplot"/><path class="xlines-above crisp" style="fill: none;"/><path class="ylines-above crisp" style="fill: none;"/><g class="overlines-above"/><g class="xaxislayer-above"/><g class="yaxislayer-above"/><g class="overaxes-above"/></g><rect class="rangeslider-mask-min" x="0" y="0" shape-rendering="crispEdges" height="63" width="0" style="fill: rgb(0, 0, 0); fill-opacity: 0.4;"/><rect class="rangeslider-mask-max" y="0" shape-rendering="crispEdges" height="63" x="490" width="0" style="fill: rgb(0, 0, 0); fill-opacity: 0.4;"/><g class="rangeslider-grabber-min" transform="translate(-2.5,0.5)"><rect class="rangeslider-handle-min" x="0" width="4" rx="1" fill="#fff" stroke="#444" stroke-width="1" shape-rendering="crispEdges" y="16" height="32"/></g><g class="rangeslider-grabber-max" transform="translate(488.5,0.5)"><rect class="rangeslider-handle-max" x="0" width="4" rx="1" fill="#fff" stroke="#444" stroke-width="1" shape-rendering="crispEdges" y="16" height="32"/></g></g><g class="g-ytitle"><text class="ytitle" transform="rotate(-90,26.418750000000003,262)" x="26.418750000000003" y="262" text-anchor="middle" style="font-family: 'Open Sans', verdana, arial, sans-serif; font-size: 14px; fill: rgb(42, 63, 95); opacity: 1; font-weight: normal; white-space: pre;">Count</text></g><g class="g-xtitle"><text class="xtitle" x="325" y="551" text-anchor="middle" style="font-family: 'Open Sans', verdana, arial, sans-serif; font-size: 14px; fill: rgb(42, 63, 95); opacity: 1; font-weight: normal; white-space: pre;">Date</text></g></g></svg>