<svg class="main-svg" xmlns="http://www.w3.org/2000/svg" xmlns:xlink="http://www.w3.org/1999/xlink" width="700" height="600" style="" viewBox="0 0 700 600"><rect x="0" y="0" width="700" height="600" style="fill: rgb(255, 255, 255); fill-opacity: 1;"/><defs id="defs-70b4f6"><g class="clips"><clipPath id="clip70b4f6xyplot" class="plotclip"><rect width="490" height="324"/></clipPath><clipPath class="axesclip" id="clip70b4f6x"><rect x="80" y="0" width="490" height="600"/></clipPath><clipPath class="axesclip" id="clip70b4f6y"><rect x="0" y="100" width="700" height="324"/></clipPath><clipPath class="axesclip" id="clip70b4f6xy"><rect x="80" y="100" width="490" height="324"/></clipPath></g><g class="gradients"/></defs><g class="bglayer"><rect class="bg" x="80" y="100" width="490" height="324" style="fill: rgb(229, 236, 246); fill-opacity: 1; stroke-width: 0;"/></g><g class="layer-below"><g class="imagelayer"/><g class="shapelayer"/></g><g class="cartesianlayer"><g class="subplot xy"><g class="layer-subplot"><g class="shapelayer"/><g class="imagelayer"/></g><g class="gridlayer"><g class="x"><path class="xgrid crisp" transform="translate(156.14,0)" d="M0,100v324" style="stroke: rgb(255, 255, 255); stroke-opacity: 1; stroke-width: 1px;"/><path class="xgrid crisp" transform="translate(275.22,0)" d="M0,100v324" style="stroke: rgb(255, 255, 255); stroke-opacity: 1; stroke-width: 1px;"/><path class="xgrid crisp" transform="translate(394.3,0)" d="M0,100v324" style="stroke: rgb(255, 255, 255); stroke-opacity: 1; stroke-width: 1px;"/><path class="xgrid crisp" transform="translate(515.3399999999999,0)" d="M0,100v324" style="stroke: rgb(255, 255, 255); stroke-opacity: 1; stroke-width: 1px;"/></g><g class="y"><path class="ygrid crisp" transform="translate(0,378.09)" d="M80,0h490" style="stroke: rgb(255, 255, 255); stroke-opacity: 1; stroke-width: 1px;"/><path class="ygrid crisp" transform="translate(0,332.18)" d="M80,0h490" style="stroke: rgb(255, 255, 255); stroke-opacity: 1; stroke-width: 1px;"/><path class="ygrid crisp" transform="translate(0,286.28)" d="M80,0h490" style="stroke: rgb(255, 255, 255); stroke-opacity: 1; stroke-width: 1px;"/><path class="ygrid crisp" transform="translate(0,240.37)" d="M80,0h490" style="stroke: rgb(255, 255, 255); stroke-opacity: 1; stroke-width: 1px;"/><path class="ygrid crisp" transform="translate(0,194.45999999999998)" d="M80,0h490" style="stroke: rgb(255, 255, 255); stroke-opacity: 1; stroke-width: 1px;"/><path class="ygrid crisp" transform="translate(0,148.55)" d="M80,0h490" style="stroke: rgb(255, 255, 255); stroke-opacity: 1; stroke-width: 1px;"/><path class="ygrid crisp" transform="translate(0,102.64)" d="M80,0h490" style="stroke: rgb(255, 255, 255); stroke-opacity: 1; stroke-width: 1px;"/></g></g><g class="zerolinelayer"><path class="yzl zl crisp" transform="translate(0,424)" d="M80,0h490" style="stroke: rgb(255, 255, 255); stroke-opacity: 1; stroke-width: 2px;"/></g><path class="xlines-below"/><path class="ylines-below"/><g class="overlines-below"/><g class="xaxislayer-below"/><g class="yaxislayer-below"/><g class="overaxes-below"/><g class="plot" transform="translate(80, 100)" clip-path="url('#clip70b4f6xyplot')"><g class="scatterlayer mlayer"><g class="trace scatter trace9a3beb" style="stroke-miterlimit: 2;"><g class="fills"><g><path class="js-fill" d="M490,324L0,324L0,324L109.32,323.25L111.27,323.23L136.65,322.28L138.61,322.13L162.03,319.72L163.98,319.39L203.03,313.11L204.98,312.69L228.41,307.72L230.36,307.25L251.83,300.6L253.78,299.9L259.64,297.72L261.59,297.08L269.4,293.88L271.35,293.13L290.88,285.12L292.83,284.05L298.69,281.63L300.64,280.57L314.3,273.94L316.25,271.33L320.16,268.52L322.11,267.43L337.73,257.54L339.68,256.23L357.25,243.26L359.2,241.15L363.11,237.85L365.06,236.29L372.87,228.98L374.82,227.29L378.73,223.99L380.68,221.96L388.49,214.58L390.44,212.96L392.39,211.44L394.34,208.65L404.1,198.63L406.06,196.69L417.77,185.23L419.72,183.39L431.43,171.65L433.39,169.81L441.2,161.48L443.15,159.64L466.57,135.8L468.53,133.49L488.05,111.73L490,110.36" style="fill: rgb(40, 167, 69); fill-opacity: 0.5; stroke-width: 0;"/></g><g><path class="js-fill" d="M0,324L103.47,323.25L105.42,323.23L134.7,322.1L136.65,321.92L162.03,318.7L163.98,318.29L203.03,311.05L204.98,310.57L230.36,304.64L232.31,304.06L244.02,300.3L245.98,299.67L267.45,291.99L269.4,290.56L290.88,281.35L292.83,280.25L298.69,277.72L300.64,276.61L314.3,269.72L316.25,267.06L320.16,264.18L322.11,263.05L331.87,256.41L333.82,255.21L339.68,251.48L341.63,249.97L357.25,238.02L359.2,235.87L363.11,232.48L365.06,230.88L372.87,223.35L374.82,221.61L378.73,218.24L380.68,216.14L388.49,208.53L390.44,206.87L392.39,205.32L394.34,202.46L404.1,192.16L406.06,190.18L415.82,180.42L417.77,178.41L433.39,162.63L435.34,160.23L476.33,116.7L478.29,114.23L488.05,103.25L490,101.83L490,110.36L488.05,111.73L468.53,133.49L466.57,135.8L443.15,159.64L441.2,161.48L433.39,169.81L431.43,171.65L419.72,183.39L417.77,185.23L406.06,196.69L404.1,198.63L394.34,208.65L392.39,211.44L390.44,212.96L388.49,214.58L380.68,221.96L378.73,223.99L374.82,227.29L372.87,228.98L365.06,236.29L363.11,237.85L359.2,241.15L357.25,243.26L339.68,256.23L337.73,257.54L322.11,267.43L320.16,268.52L316.25,271.33L314.3,273.94L300.64,280.57L298.69,281.63L292.83,284.05L290.88,285.12L271.35,293.13L269.4,293.88L261.59,297.08L259.64,297.72L253.78,299.9L251.83,300.6L230.36,307.25L228.41,307.72L204.98,312.69L203.03,313.11L163.98,319.39L162.03,319.72L138.61,322.13L136.65,322.28L111.27,323.23L109.32,323.25L0,324Z" style="fill: rgb(108, 117, 125); fill-opacity: 0.5; stroke-width: 0;"/></g></g><g class="errorbars"/><g class="lines"><path class="js-line" d="M0,324L109.32,323.25L111.27,323.23L136.65,322.28L138.61,322.13L162.03,319.72L163.98,319.39L203.03,313.11L204.98,312.69L228.41,307.72L230.36,307.25L251.83,300.6L253.78,299.9L259.64,297.72L261.59,297.08L269.4,293.88L271.35,293.13L290.88,285.12L292.83,284.05L298.69,281.63L300.64,280.57L314.3,273.94L316.25,271.33L320.16,268.52L322.11,267.43L337.73,257.54L339.68,256.23L357.25,243.26L359.2,241.15L363.11,237.85L365.06,236.29L372.87,228.98L374.82,227.29L378.73,223.99L380.68,221.96L388.49,214.58L390.44,212.96L392.39,211.44L394.34,208.65L404.1,198.63L406.06,196.69L417.77,185.23L419.72,183.39L431.43,171.65L433.39,169.81L441.2,161.48L443.15,159.64L466.57,135.8L468.53,133.49L488.05,111.73L490,110.36" style="vector-effect: non-scaling-stroke; fill: none; stroke: rgb(40, 167, 69); stroke-opacity: 1; stroke-width: 2px; opacity: 1;"/></g><g class="points"/><g class="text"/></g><g class="trace scatter trace1ee305" style="stroke-miterlimit: 2;"><g class="fills"><g><path class="js-fill" d="M0,323.99L74.18,323.24L76.14,323.22L105.42,322.39L107.37,322.24L119.08,320.53L121.04,320.15L132.75,316.75L134.7,316.05L177.65,299.86L179.6,299.05L232.31,278.17L234.26,277.2L259.64,264.29L261.59,263.13L290.88,244.8L292.83,243.35L300.64,237.82L302.59,236.19L329.92,211.57L331.87,209.44L353.35,187.04L355.3,184.47L363.11,175L365.06,172.92L398.25,132.37L400.2,129.57L425.58,99.83L427.53,97.25L454.86,62.81L456.81,60.27L462.67,52.93L464.62,50.14L474.38,36.76L476.33,34.2L480.24,28.44L482.19,25.37L490,16.2L490,101.83L488.05,103.25L478.29,114.23L476.33,116.7L435.34,160.23L433.39,162.63L417.77,178.41L415.82,180.42L406.06,190.18L404.1,192.16L394.34,202.46L392.39,205.32L390.44,206.87L388.49,208.53L380.68,216.14L378.73,218.24L374.82,221.61L372.87,223.35L365.06,230.88L363.11,232.48L359.2,235.87L357.25,238.02L341.63,249.97L339.68,251.48L333.82,255.21L331.87,256.41L322.11,263.05L320.16,264.18L316.25,267.06L314.3,269.72L300.64,276.61L298.69,277.72L292.83,280.25L290.88,281.35L269.4,290.56L267.45,291.99L245.98,299.67L244.02,300.3L232.31,304.06L230.36,304.64L204.98,310.57L203.03,311.05L163.98,318.29L162.03,318.7L136.65,321.92L134.7,322.1L105.42,323.23L103.47,323.25L0,324Z" style="fill: rgb(255, 7, 58); fill-opacity: 0.5; stroke-width: 0;"/></g></g><g class="errorbars"/><g class="lines"><path class="js-line" d="M0,324L103.47,323.25L105.42,323.23L134.7,322.1L136.65,321.92L162.03,318.7L163.98,318.29L203.03,311.05L204.98,310.57L230.36,304.64L232.31,304.06L244.02,300.3L245.98,299.67L267.45,291.99L269.4,290.56L290.88,281.35L292.83,280.25L298.69,277.72L300.64,276.61L314.3,269.72L316.25,267.06L320.16,264.18L322.11,263.05L331.87,256.41L333.82,255.21L339.68,251.48L341.63,249.97L357.25,238.02L359.2,235.87L363.11,232.48L365.06,230.88L372.87,223.35L374.82,221.61L378.73,218.24L380.68,216.14L388.49,208.53L390.44,206.87L392.39,205.32L394.34,202.46L404.1,192.16L406.06,190.18L415.82,180.42L417.77,178.41L433.39,162.63L435.34,160.23L476.33,116.7L478.29,114.23L488.05,103.25L490,101.83" style="vector-effect: non-scaling-stroke; fill: none; stroke: rgb(108, 117, 125); stroke-opacity: 1; stroke-width: 2px; opacity: 1;"/></g><g class="points"/><g class="text"/></g><g class="trace scatter tracec57ad7" style="stroke-miterlimit: 2;"><g class="fills"/><g class="errorbars"/><g class="lines"><path class="js-line" d="M0,323.99L74.18,323.24L76.14,323.22L105.42,322.39L107.37,322.24L119.08,320.53L121.04,320.15L132.75,316.75L134.7,316.05L177.65,299.86L179.6,299.05L232.31,278.17L234.26,277.2L259.64,264.29L261.59,263.13L290.88,244.8L292.83,243.35L300.64,237.82L302.59,236.19L329.92,211.57L331.87,209.44L353.35,187.04L355.3,184.47L363.11,175L365.06,172.92L398.25,132.37L400.2,129.57L425.58,99.83L427.53,97.25L454.86,62.81L456.81,60.27L462.67,52.93L464.62,50.14L474.38,36.76L476.33,34.2L480.24,28.44L482.19,25.37L490,16.2" style="vector-effect: non-scaling-stroke; fill: none; stroke: rgb(255, 7, 58); stroke-opacity: 1; stroke-width: 2px; opacity: 1;"/></g><g class="points"/><g class="text"/></g></g></g><g class="overplot"/><path class="xlines-above crisp" style="fill: none; stroke-width: 1px; stroke: rgb(255, 255, 255); stroke-opacity: 1;" d="M79,424.5H570"/><path class="ylines-above crisp" style="fill: none; stroke-width: 1px; stroke: rgb(255, 255, 255); stroke-opacity: 1;" d="M79.5,100V424"/><g class="overlines-above"/><g class="xaxislayer-above"><g class="xtick"><text text-anchor="middle" x="0" y="439.4" transform="translate(156.14,0)" style="font-family: 'Open Sans', verdana, arial, sans-serif; font-size: 12px; fill: rgb(42, 63, 95); fill-opacity: 1; white-space: pre;">Mar 2020</text></g><g class="xtick"><text text-anchor="middle" x="0" y="439.4" transform="translate(275.22,0)" style="font-family: 'Open Sans', verdana, arial, sans-serif; font-size: 12px; fill: rgb(42, 63, 95); fill-opacity: 1; white-space: pre;">May 2020</text></g><g class="xtick"><text text-anchor="middle" x="0" y="439.4" transform="translate(394.3,0)" style="font-family: 'Open Sans', verdana, arial, sans-serif; font-size: 12px; fill: rgb(42, 63, 95); fill-opacity: 1; white-space: pre;">Jul 2020</text></g><g class="xtick"><text text-anchor="middle" x="0" y="439.4" transform="translate(515.3399999999999,0)" style="font-family: 'Open Sans', verdana, arial, sans-serif; font-size: 12px; fill: rgb(42, 63, 95); fill-opacity: 1; white-space: pre;">Sep 2020</text></g></g><g class="yaxislayer-above"><g class="ytick"><text text-anchor="end" x="76.6" y="4.199999999999999" transform="translate(0,424)" style="font-family: 'Open Sans', verdana, arial, sans-serif; font-size: 12px; fill: rgb(42, 63, 95); fill-opacity: 1; white-space: pre;">0</text></g><g class="ytick"><text text-anchor="end" x="76.6" y="4.199999999999999" transform="translate(0,378.09)" style="font-family: 'Open Sans', verdana, arial, sans-serif; font-size: 12px; fill: rgb(42, 63, 95); fill-opacity: 1; white-space: pre;">5M</text></g><g class="ytick"><text text-anchor="end" x="76.6" y="4.199999999999999" transform="translate(0,332.18)" style="font-family: 'Open Sans', verdana, arial, sans-serif; font-size: 12px; fill: rgb(42, 63, 95); fill-opacity: 1; white-space: pre;">10M</text></g><g class="ytick"><text text-anchor="end" x="76.6" y="4.199999999999999" transform="translate(0,286.28)" style="font-family: 'Open Sans', verdana, arial, sans-serif; font-size: 12px; fill: rgb(42, 63, 95); fill-opacity: 1; white-space: pre;">15M</text></g><g class="ytick"><text text-anchor="end" x="76.6" y="4.199999999999999" transform="translate(0,240.37)" style="font-family: 'Open Sans', verdana, arial, sans-serif; font-size: 12px; fill: rgb(42, 63, 95); fill-opacity: 1; white-space: pre;">20M</text></g><g class="ytick"><text text-anchor="end" x="76.6" y="4.199999999999999" transform="translate(0,194.45999999999998)" style="font-family: 'Open Sans', verdana, arial, sans-serif; font-size: 12px; fill: rgb(42, 63, 95); fill-opacity: 1; white-space: pre;">25M</text></g><g class="ytick"><text text-anchor="end" x="76.6" y="4.199999999999999" transform="translate(0,148.55)" style="font-family: 'Open Sans', verdana, arial, sans-serif; font-size: 12px; fill: rgb(42, 63, 95); fill-opacity: 1; white-space: pre;">30M</text></g><g class="ytick"><text text-anchor="end" x="76.6" y="4.199999999999999" transform="translate(0,102.64)" style="font-family: 'Open Sans', verdana, arial, sans-serif; font-size: 12px; fill: rgb(42, 63, 95); fill-opacity: 1; white-space: pre;">35M</text></g></g><g class="overaxes-above"/></g></g><g class="polarlayer"/><g class="ternarylayer"/><g class="geolayer"/><g class="funnelarealayer"/><g class="pielayer"/><g class="treemaplayer"/><g class="sunburstlayer"/><g class="glimages"/><defs id="topdefs-70b4f6"><g class="clips"/><clipPath id="legend70b4f6"><rect width="108" height="83" x="0" y="0"/></clipPath><clipPath id="rangesliderx-70b4f6"><rect x="0" y="0" width="490" height="63"/></clipPath></defs><g class="layer-above"><g class="imagelayer"/><g class="shapelayer"/></g><g class="infolayer"><g class="legend" pointer-events="all" transform="translate(579.8, 100)"><rect class="bg" shape-rendering="crispEdges" style="stroke: rgb(68, 68, 68); stroke-opacity: 1; fill: rgb(255, 255, 255); fill-opacity: 1; stroke-width: 0px;" width="108" height="83" x="0" y="0"/><g class="scrollbox" transform="translate(0, 0)" clip-path="url('#legend70b4f6')"><text class="legendtitletext user-select-none" text-anchor="start" x="2" y="15.600000000000001" style="font-family: 'Open Sans', verdana, arial, sans-serif; font-size: 12px; fill: rgb(42, 63, 95); fill-opacity: 1; white-space: pre;">Case</text><g class="groups" transform="translate(0, 0)"><g class="traces" transform="translate(0, 30.1)" style="opacity: 1;"><text class="legendtext user-select-none" text-anchor="start" x="40" y="4.680000000000001" style="font-family: 'Open Sans', verdana, arial, sans-serif; font-size: 12px; fill: rgb(42, 63, 95); fill-opacity: 1; white-space: pre;">Recovered</text><g class="layers"><g class="legendfill"><path class="js-fill" d="M5,-2h30v6h-30z" style="stroke-width: 0; fill: rgb(40, 167, 69); fill-opacity: 0.5;"/></g><g class="legendlines"><path class="js-line" d="M5,-2h30" style="fill: none; stroke: rgb(40, 167, 69); stroke-opacity: 1; stroke-width: 2px;"/></g><g class="legendsymbols"><g class="legendpoints"/></g></g><rect class="legendtoggle" pointer-events="all" x="0" y="-9.5" width="102.546875" height="19" style="cursor: pointer; fill: rgb(0, 0, 0); fill-opacity: 0;"/></g></g><g class="groups" transform="translate(0, 0)"><g class="traces" transform="translate(0, 49.1)" style="opacity: 1;"><text class="legendtext user-select-none" text-anchor="start" x="40" y="4.680000000000001" style="font-family: 'Open Sans', verdana, arial, sans-serif; font-size: 12px; fill: rgb(42, 63, 95); fill-opacity: 1; white-space: pre;">Deaths</text><g class="layers"><g class="legendfill"><path class="js-fill" d="M5,-2h30v6h-30z" style="stroke-width: 0; fill: rgb(108, 117, 125); fill-opacity: 0.5;"/></g><g class="legendlines"><path class="js-line" d="M5,-2h30" style="fill: none; stroke: rgb(108, 117, 125); stroke-opacity: 1; stroke-width: 2px;"/></g><g class="legendsymbols"><g class="legendpoints"/></g></g><rect class="legendtoggle" pointer-events="all" x="0" y="-9.5" width="102.546875" height="19" style="cursor: pointer; fill: rgb(0, 0, 0); fill-opacity: 0;"/></g></g><g class="groups" transform="translate(0, 0)"><g class="traces" transform="translate(0, 68.1)" style="opacity: 1;"><text class="legendtext user-select-none" text-anchor="start" x="40" y="4.680000000000001" style="font-family: 'Open Sans', verdana, arial, sans-serif; font-size: 12px; fill: rgb(42, 63, 95); fill-opacity: 1; white-space: pre;">Active</text><g class="layers"><g class="legendfill"><path class="js-fill" d="M5,-2h30v6h-30z" style="stroke-width: 0; fill: rgb(255, 7, 58); fill-opacity: 0.5;"/></g><g class="legendlines"><path class="js-line" d="M5,-2h30" style="fill: none; stroke: rgb(255, 7, 58); stroke-opacity: 1; stroke-width: 2px;"/></g><g class="legendsymbols"><g class="legendpoints"/></g></g><rect class="legendtoggle" pointer-events="all" x="0" y="-9.5" width="102.546875" height="19" style="cursor: pointer; fill: rgb(0, 0, 0); fill-opacity: 0;"/></g></g></g><rect class="scrollbar" rx="20" ry="3" width="0" height="0" x="0" y="0" style="fill: rgb(128, 139, 164); fill-opacity: 1;"/></g><g class="g-gtitle"><text class="gtitle" x="35" y="50" text-anchor="start" dy="0em" style="font-family: 'Open Sans', verdana, arial, sans-serif; font-size: 17px; fill: rgb(42, 63, 95); opacity: 1; font-weight: normal; white-space: pre;">Cases over time</text></g><g class="rangeslider-container" pointer-events="all" transform="translate(80,457)"><rect class="rangeslider-bg" x="0" y="0" shape-rendering="crispEdges" width="490" height="63" transform="translate(0,0)" fill="#E5ECF6" stroke="#444" stroke-width="0"/><g class="rangeslider-rangeplot xy" clip-path="url('#rangesliderx-70b4f6')"><g class="layer-subplot"><g class="shapelayer"/><g class="imagelayer"/></g><g class="gridlayer"><g class="x"/><g class="y"/></g><g class="zerolinelayer"/><path class="xlines-below"/><path class="ylines-below"/><g class="overlines-below"/><g class="xaxislayer-below"/><g class="yaxislayer-below"/><g class="overaxes-below"/><g class="plot"><g class="scatterlayer mlayer rangeplot"><g class="trace scatter trace9a3beb" style="stroke-miterlimit: 2;"><g class="fills"><g><path class="js-fill" d="M490,63L0,63L0,63L158.13,62.26L160.08,62.21L218.65,60.26L220.6,60.19L267.45,57.41L269.4,57.14L314.3,53.27L316.25,52.76L343.59,49.27L345.54,48.94L372.87,44.52L374.82,44.2L388.49,41.72L390.44,41.41L406.06,38.25L408.01,37.84L490,21.46" style="fill: rgb(40, 167, 69); fill-opacity: 0.5; stroke-width: 0;"/></g><g><path class="js-fill" d="M0,63L150.32,62.29L152.27,62.23L218.65,59.8L220.6,59.72L269.4,56.5L271.35,56.34L314.3,52.45L316.25,51.93L343.59,48.32L345.54,47.98L368.96,44.2L370.92,43.79L431.43,31.99L433.39,31.62L456.81,26.83L458.76,26.49L490,19.8L490,21.46L408.01,37.84L406.06,38.25L390.44,41.41L388.49,41.72L374.82,44.2L372.87,44.52L345.54,48.94L343.59,49.27L316.25,52.76L314.3,53.27L269.4,57.14L267.45,57.41L220.6,60.19L218.65,60.26L160.08,62.21L158.13,62.26L0,63Z" style="fill: rgb(108, 117, 125); fill-opacity: 0.5; stroke-width: 0;"/></g></g><g class="errorbars"/><g class="lines"><path class="js-line" d="M0,63L158.13,62.26L160.08,62.21L218.65,60.26L220.6,60.19L267.45,57.41L269.4,57.14L314.3,53.27L316.25,52.76L343.59,49.27L345.54,48.94L372.87,44.52L374.82,44.2L388.49,41.72L390.44,41.41L406.06,38.25L408.01,37.84L490,21.46" style="vector-effect: non-scaling-stroke; fill: none; stroke: rgb(40, 167, 69); stroke-opacity: 1; stroke-width: 2px; opacity: 1;"/></g><g class="points"/><g class="text"/></g><g class="trace scatter trace1ee305" style="stroke-miterlimit: 2;"><g class="fills"><g><path class="js-fill" d="M0,63L121.04,62.25L122.99,62.16L175.7,58.45L177.65,58.31L265.5,50.69L267.45,50.49L290.88,47.6L292.83,47.32L312.35,44.39L314.3,44L357.25,35.36L359.2,34.86L452.91,12.78L454.86,12.21L490,3.15L490,19.8L458.76,26.49L456.81,26.83L433.39,31.62L431.43,31.99L370.92,43.79L368.96,44.2L345.54,47.98L343.59,48.32L316.25,51.93L314.3,52.45L271.35,56.34L269.4,56.5L220.6,59.72L218.65,59.8L152.27,62.23L150.32,62.29L0,63Z" style="fill: rgb(255, 7, 58); fill-opacity: 0.5; stroke-width: 0;"/></g></g><g class="errorbars"/><g class="lines"><path class="js-line" d="M0,63L150.32,62.29L152.27,62.23L218.65,59.8L220.6,59.72L269.4,56.5L271.35,56.34L314.3,52.45L316.25,51.93L343.59,48.32L345.54,47.98L368.96,44.2L370.92,43.79L431.43,31.99L433.39,31.62L456.81,26.83L458.76,26.49L490,19.8" style="vector-effect: non-scaling-stroke; fill: none; stroke: rgb(108, 117, 125); stroke-opacity: 1; stroke-width: 2px; opacity: 1;"/></g><g class="points"/><g class="text"/></g><g class="trace scatter tracec57ad7" style="stroke-miterlimit: 2;"><g class="fills"/><g class="errorbars"/><g class="lines"><path class="js-line" d="M0,63L121.04,62.25L122.99,62.16L175.7,58.45L177.65,58.31L265.5,50.69L267.45,50.49L290.88,47.6L292.83,47.32L312.35,44.39L314.3,44L357.25,35.36L359.2,34.86L452.91,12.78L454.86,12.21L490,3.15" style="vector-effect: non-scaling-stroke; fill: none; stroke: rgb(255, 7, 58); stroke-opacity: 1; stroke-width: 2px; opacity: 1;"/></g><g class="points"/><g class="text"/></g></g></g><g class="overplot"/><path class="xlines-above crisp" style="fill: none;"/><path class="ylines-above crisp" style="fill: none;"/><g class="overlines-above"/><g class="xaxislayer-above"/><g class="yaxislayer-above"/><g class="overaxes-above"/></g><rect class="rangeslider-mask-min" x="0" y="0" shape-rendering="crispEdges" height="63" width="0" style="fill: rgb(0, 0, 0); fill-opacity: 0.4;"/><rect class="rangeslider-mask-max" y="0" shape-rendering="crispEdges" height="63" x="490" width="0" style="fill: rgb(0, 0, 0); fill-opacity: 0.4;"/><g class="rangeslider-grabber-min" transform="translate(-2.5,0.5)"><rect class="rangeslider-handle-min" x="0" width="4" rx="1" fill="#fff" stroke="#444" stroke-width="1" shape-rendering="crispEdges" y="16" height="32"/></g><g class="rangeslider-grabber-max" transform="translate(488.5,0.5)"><rect class="rangeslider-handle-max" x="0" width="4" rx="1" fill="#fff" stroke="#444" stroke-width="1" shape-rendering="crispEdges" y="16" height="32"/></g></g><g class="g-ytitle"><text class="ytitle" transform="rotate(-90,26.418750000000003,262)" x="26.418750000000003" y="262" text-anchor="middle" style="font-family: 'Open Sans', verdana, arial, sans-serif; font-size: 14px; fill: rgb(42, 63, 95); opacity: 1; font-weight: normal; white-space: pre;">Count</text></g><g class="g-xtitle"><text class="xtitle" x="325" y="551" text-anchor="middle" style="font-family: 'Open Sans', verdana, arial, sans-serif; font-size: 14px; fill: rgb(42, 63, 95); opacity: 1; font-weight: normal; white-space: pre;">Date</text></g></g></svg>