<svg class="main-svg" xmlns="http://www.w3.org/2000/svg" xmlns:xlink="http://www.w3.org/1999/xlink" width="700" height="600" style="" viewBox="0 0 700 600"><rect x="0" y="0" width="700" height="600" style="fill: rgb(255, 255, 255); fill-opacity: 1;"/><defs id="defs-648cc1"><g class="clips"><clipPath id="clip648cc1xyplot" class="plotclip"><rect width="490" height="324"/></clipPath><clipPath class="axesclip" id="clip648cc1x"><rect x="80" y="0" width="490" height="600"/></clipPath><clipPath class="axesclip" id="clip648cc1y"><rect x="0" y="100" width="700" height="324"/></clipPath><clipPath class="axesclip" id="clip648cc1xy"><rect x="80" y="100" width="490" height="324"/></clipPath></g><g class="gradients"/></defs><g class="bglayer"><rect class="bg" x="80" y="100" width="490" height="324" style="fill: rgb(229, 236, 246); fill-opacity: 1; stroke-width: 0;"/></g><g class="layer-below"><g class="imagelayer"/><g class="shapelayer"/></g><g class="cartesianlayer"><g class="subplot xy"><g class="layer-subplot"><g class="shapelayer"/><g class="imagelayer"/></g><g class="gridlayer"><g class="x"><path class="xgrid crisp" transform="translate(107.37,0)" d="M0,100v324" style="stroke: rgb(255, 255, 255); stroke-opacity: 1; stroke-width: 1px;"/><path class="xgrid crisp" transform="translate(186.76,0)" d="M0,100v324" style="stroke: rgb(255, 255, 255); stroke-opacity: 1; stroke-width: 1px;"/><path class="xgrid crisp" transform="translate(271.62,0)" d="M0,100v324" style="stroke: rgb(255, 255, 255); stroke-opacity: 1; stroke-width: 1px;"/><path class="xgrid crisp" transform="translate(353.74,0)" d="M0,100v324" style="stroke: rgb(255, 255, 255); stroke-opacity: 1; stroke-width: 1px;"/><path class="xgrid crisp" transform="translate(438.6,0)" d="M0,100v324" style="stroke: rgb(255, 255, 255); stroke-opacity: 1; stroke-width: 1px;"/><path class="xgrid crisp" transform="translate(520.73,0)" d="M0,100v324" style="stroke: rgb(255, 255, 255); stroke-opacity: 1; stroke-width: 1px;"/></g><g class="y"><path class="ygrid crisp" transform="translate(0,381.5)" d="M80,0h490" style="stroke: rgb(255, 255, 255); stroke-opacity: 1; stroke-width: 1px;"/><path class="ygrid crisp" transform="translate(0,339)" d="M80,0h490" style="stroke: rgb(255, 255, 255); stroke-opacity: 1; stroke-width: 1px;"/><path class="ygrid crisp" transform="translate(0,296.5)" d="M80,0h490" style="stroke: rgb(255, 255, 255); stroke-opacity: 1; stroke-width: 1px;"/><path class="ygrid crisp" transform="translate(0,254)" d="M80,0h490" style="stroke: rgb(255, 255, 255); stroke-opacity: 1; stroke-width: 1px;"/><path class="ygrid crisp" transform="translate(0,211.5)" d="M80,0h490" style="stroke: rgb(255, 255, 255); stroke-opacity: 1; stroke-width: 1px;"/><path class="ygrid crisp" transform="translate(0,169)" d="M80,0h490" style="stroke: rgb(255, 255, 255); stroke-opacity: 1; stroke-width: 1px;"/><path class="ygrid crisp" transform="translate(0,126.5)" d="M80,0h490" style="stroke: rgb(255, 255, 255); stroke-opacity: 1; stroke-width: 1px;"/></g></g><g class="zerolinelayer"><path class="yzl zl crisp" transform="translate(0,424)" d="M80,0h490" style="stroke: rgb(255, 255, 255); stroke-opacity: 1; stroke-width: 2px;"/></g><path class="xlines-below"/><path class="ylines-below"/><g class="overlines-below"/><g class="xaxislayer-below"/><g class="yaxislayer-below"/><g class="overaxes-below"/><g class="plot" transform="translate(80, 100)" clip-path="url('#clip648cc1xyplot')"><g class="scatterlayer mlayer"><g class="trace scatter tracebfa5ee" style="stroke-miterlimit: 2;"><g class="fills"><g><path class="js-fill" d="M490,324L0,324L0,324L98.55,323.29L101.28,323.22L183.41,320.94L186.15,320.62L208.04,317.77L210.78,317.17L249.11,309.09L251.84,308.48L257.32,306.84L260.06,306.23L268.27,304.04L271.01,302.66L303.85,292.57L306.59,291.39L317.54,287.46L320.28,286.33L328.49,282.9L331.23,280.6L347.65,272.98L350.39,271.34L361.34,264.85L364.08,263.17L375.03,257.52L377.77,254.3L399.66,240.26L402.4,237.74L407.88,234.01L410.61,231.55L416.09,228.14L418.83,225.93L429.78,216.99L432.51,215.1L440.73,208.14L443.46,202.09L446.2,199.76L448.94,195.6L457.15,187.36L459.89,184.01L479.05,163.76L481.79,160.53L487.26,153.43L490,151.57" style="fill: rgb(40, 167, 69); fill-opacity: 0.5; stroke-width: 0;"/></g><g><path class="js-fill" d="M0,324L95.81,323.3L98.55,323.23L177.93,320.72L180.67,320.46L194.36,318.47L197.09,318.02L221.73,312.65L224.47,311.96L249.11,305.1L251.84,304.35L257.32,302.44L260.06,301.75L268.27,299.18L271.01,297.68L303.85,286.35L306.59,285.05L320.28,279.55L323.02,278.35L328.49,275.81L331.23,273.4L347.65,265.3L350.39,263.56L361.34,256.75L364.08,254.96L375.03,248.95L377.77,245.65L399.66,230.83L402.4,228.2L407.88,224.22L410.61,221.67L416.09,218.11L418.83,215.79L429.78,206.4L432.51,204.44L437.99,199.75L440.73,197.19L443.46,191.03L446.2,188.59L448.94,184.34L451.68,181.73L457.15,175.82L459.89,172.35L479.05,151.37L481.79,148.01L487.26,140.65L490,138.7L490,151.57L487.26,153.43L481.79,160.53L479.05,163.76L459.89,184.01L457.15,187.36L448.94,195.6L446.2,199.76L443.46,202.09L440.73,208.14L432.51,215.1L429.78,216.99L418.83,225.93L416.09,228.14L410.61,231.55L407.88,234.01L402.4,237.74L399.66,240.26L377.77,254.3L375.03,257.52L364.08,263.17L361.34,264.85L350.39,271.34L347.65,272.98L331.23,280.6L328.49,282.9L320.28,286.33L317.54,287.46L306.59,291.39L303.85,292.57L271.01,302.66L268.27,304.04L260.06,306.23L257.32,306.84L251.84,308.48L249.11,309.09L210.78,317.17L208.04,317.77L186.15,320.62L183.41,320.94L101.28,323.22L98.55,323.29L0,324Z" style="fill: rgb(108, 117, 125); fill-opacity: 0.5; stroke-width: 0;"/></g></g><g class="errorbars"/><g class="lines"><path class="js-line" d="M0,324L98.55,323.29L101.28,323.22L183.41,320.94L186.15,320.62L208.04,317.77L210.78,317.17L249.11,309.09L251.84,308.48L257.32,306.84L260.06,306.23L268.27,304.04L271.01,302.66L303.85,292.57L306.59,291.39L317.54,287.46L320.28,286.33L328.49,282.9L331.23,280.6L347.65,272.98L350.39,271.34L361.34,264.85L364.08,263.17L375.03,257.52L377.77,254.3L399.66,240.26L402.4,237.74L407.88,234.01L410.61,231.55L416.09,228.14L418.83,225.93L429.78,216.99L432.51,215.1L440.73,208.14L443.46,202.09L446.2,199.76L448.94,195.6L457.15,187.36L459.89,184.01L479.05,163.76L481.79,160.53L487.26,153.43L490,151.57" style="vector-effect: non-scaling-stroke; fill: none; stroke: rgb(40, 167, 69); stroke-opacity: 1; stroke-width: 2px; opacity: 1;"/></g><g class="points"/><g class="text"/></g><g class="trace scatter trace16e5dc" style="stroke-miterlimit: 2;"><g class="fills"><g><path class="js-fill" d="M0,323.99L43.8,323.27L46.54,323.21L142.35,320.82L145.08,320.58L158.77,318.31L161.51,317.62L172.46,314.07L175.2,312.74L191.62,304.06L194.36,302.33L227.21,282.03L229.94,280.32L238.16,274.84L240.89,273.12L254.58,264.6L257.32,262.81L276.48,251.22L279.22,249.58L290.17,242.46L292.91,240.52L320.28,222.35L323.02,220.31L350.39,198.4L353.13,195.67L366.82,183.57L369.55,180.8L399.66,151.17L402.4,147.43L407.88,140.62L410.61,137.27L418.83,128.11L421.56,124.47L440.73,97.73L443.46,93.32L451.68,81.01L454.41,77.46L479.05,36.31L481.79,30.94L490,16.2L490,138.7L487.26,140.65L481.79,148.01L479.05,151.37L459.89,172.35L457.15,175.82L451.68,181.73L448.94,184.34L446.2,188.59L443.46,191.03L440.73,197.19L437.99,199.75L432.51,204.44L429.78,206.4L418.83,215.79L416.09,218.11L410.61,221.67L407.88,224.22L402.4,228.2L399.66,230.83L377.77,245.65L375.03,248.95L364.08,254.96L361.34,256.75L350.39,263.56L347.65,265.3L331.23,273.4L328.49,275.81L323.02,278.35L320.28,279.55L306.59,285.05L303.85,286.35L271.01,297.68L268.27,299.18L260.06,301.75L257.32,302.44L251.84,304.35L249.11,305.1L224.47,311.96L221.73,312.65L197.09,318.02L194.36,318.47L180.67,320.46L177.93,320.72L98.55,323.23L95.81,323.3L0,324Z" style="fill: rgb(255, 7, 58); fill-opacity: 0.5; stroke-width: 0;"/></g></g><g class="errorbars"/><g class="lines"><path class="js-line" d="M0,324L95.81,323.3L98.55,323.23L177.93,320.72L180.67,320.46L194.36,318.47L197.09,318.02L221.73,312.65L224.47,311.96L249.11,305.1L251.84,304.35L257.32,302.44L260.06,301.75L268.27,299.18L271.01,297.68L303.85,286.35L306.59,285.05L320.28,279.55L323.02,278.35L328.49,275.81L331.23,273.4L347.65,265.3L350.39,263.56L361.34,256.75L364.08,254.96L375.03,248.95L377.77,245.65L399.66,230.83L402.4,228.2L407.88,224.22L410.61,221.67L416.09,218.11L418.83,215.79L429.78,206.4L432.51,204.44L437.99,199.75L440.73,197.19L443.46,191.03L446.2,188.59L448.94,184.34L451.68,181.73L457.15,175.82L459.89,172.35L479.05,151.37L481.79,148.01L487.26,140.65L490,138.7" style="vector-effect: non-scaling-stroke; fill: none; stroke: rgb(108, 117, 125); stroke-opacity: 1; stroke-width: 2px; opacity: 1;"/></g><g class="points"/><g class="text"/></g><g class="trace scatter trace2248c5" style="stroke-miterlimit: 2;"><g class="fills"/><g class="errorbars"/><g class="lines"><path class="js-line" d="M0,323.99L43.8,323.27L46.54,323.21L142.35,320.82L145.08,320.58L158.77,318.31L161.51,317.62L172.46,314.07L175.2,312.74L191.62,304.06L194.36,302.33L227.21,282.03L229.94,280.32L238.16,274.84L240.89,273.12L254.58,264.6L257.32,262.81L276.48,251.22L279.22,249.58L290.17,242.46L292.91,240.52L320.28,222.35L323.02,220.31L350.39,198.4L353.13,195.67L366.82,183.57L369.55,180.8L399.66,151.17L402.4,147.43L407.88,140.62L410.61,137.27L418.83,128.11L421.56,124.47L440.73,97.73L443.46,93.32L451.68,81.01L454.41,77.46L479.05,36.31L481.79,30.94L490,16.2" style="vector-effect: non-scaling-stroke; fill: none; stroke: rgb(255, 7, 58); stroke-opacity: 1; stroke-width: 2px; opacity: 1;"/></g><g class="points"/><g class="text"/></g></g></g><g class="overplot"/><path class="xlines-above crisp" style="fill: none; stroke-width: 1px; stroke: rgb(255, 255, 255); stroke-opacity: 1;" d="M79,424.5H570"/><path class="ylines-above crisp" style="fill: none; stroke-width: 1px; stroke: rgb(255, 255, 255); stroke-opacity: 1;" d="M79.5,100V424"/><g class="overlines-above"/><g class="xaxislayer-above"><g class="xtick"><text text-anchor="middle" x="0" y="439.4" transform="translate(107.37,0)" style="font-family: 'Open Sans', verdana, arial, sans-serif; font-size: 12px; fill: rgb(42, 63, 95); fill-opacity: 1; white-space: pre;">Feb 2020</text></g><g class="xtick"><text text-anchor="middle" x="0" y="439.4" transform="translate(186.76,0)" style="font-family: 'Open Sans', verdana, arial, sans-serif; font-size: 12px; fill: rgb(42, 63, 95); fill-opacity: 1; white-space: pre;">Mar 2020</text></g><g class="xtick"><text text-anchor="middle" x="0" y="439.4" transform="translate(271.62,0)" style="font-family: 'Open Sans', verdana, arial, sans-serif; font-size: 12px; fill: rgb(42, 63, 95); fill-opacity: 1; white-space: pre;">Apr 2020</text></g><g class="xtick"><text text-anchor="middle" x="0" y="439.4" transform="translate(353.74,0)" style="font-family: 'Open Sans', verdana, arial, sans-serif; font-size: 12px; fill: rgb(42, 63, 95); fill-opacity: 1; white-space: pre;">May 2020</text></g><g class="xtick"><text text-anchor="middle" x="0" y="439.4" transform="translate(438.6,0)" style="font-family: 'Open Sans', verdana, arial, sans-serif; font-size: 12px; fill: rgb(42, 63, 95); fill-opacity: 1; white-space: pre;">Jun 2020</text></g><g class="xtick"><text text-anchor="middle" x="0" y="439.4" transform="translate(520.73,0)" style="font-family: 'Open Sans', verdana, arial, sans-serif; font-size: 12px; fill: rgb(42, 63, 95); fill-opacity: 1; white-space: pre;">Jul 2020</text></g></g><g class="yaxislayer-above"><g class="ytick"><text text-anchor="end" x="76.6" y="4.199999999999999" transform="translate(0,424)" style="font-family: 'Open Sans', verdana, arial, sans-serif; font-size: 12px; fill: rgb(42, 63, 95); fill-opacity: 1; white-space: pre;">0</text></g><g class="ytick"><text text-anchor="end" x="76.6" y="4.199999999999999" transform="translate(0,381.5)" style="font-family: 'Open Sans', verdana, arial, sans-serif; font-size: 12px; fill: rgb(42, 63, 95); fill-opacity: 1; white-space: pre;">2M</text></g><g class="ytick"><text text-anchor="end" x="76.6" y="4.199999999999999" transform="translate(0,339)" style="font-family: 'Open Sans', verdana, arial, sans-serif; font-size: 12px; fill: rgb(42, 63, 95); fill-opacity: 1; white-space: pre;">4M</text></g><g class="ytick"><text text-anchor="end" x="76.6" y="4.199999999999999" transform="translate(0,296.5)" style="font-family: 'Open Sans', verdana, arial, sans-serif; font-size: 12px; fill: rgb(42, 63, 95); fill-opacity: 1; white-space: pre;">6M</text></g><g class="ytick"><text text-anchor="end" x="76.6" y="4.199999999999999" transform="translate(0,254)" style="font-family: 'Open Sans', verdana, arial, sans-serif; font-size: 12px; fill: rgb(42, 63, 95); fill-opacity: 1; white-space: pre;">8M</text></g><g class="ytick"><text text-anchor="end" x="76.6" y="4.199999999999999" transform="translate(0,211.5)" style="font-family: 'Open Sans', verdana, arial, sans-serif; font-size: 12px; fill: rgb(42, 63, 95); fill-opacity: 1; white-space: pre;">10M</text></g><g class="ytick"><text text-anchor="end" x="76.6" y="4.199999999999999" transform="translate(0,169)" style="font-family: 'Open Sans', verdana, arial, sans-serif; font-size: 12px; fill: rgb(42, 63, 95); fill-opacity: 1; white-space: pre;">12M</text></g><g class="ytick"><text text-anchor="end" x="76.6" y="4.199999999999999" transform="translate(0,126.5)" style="font-family: 'Open Sans', verdana, arial, sans-serif; font-size: 12px; fill: rgb(42, 63, 95); fill-opacity: 1; white-space: pre;">14M</text></g></g><g class="overaxes-above"/></g></g><g class="polarlayer"/><g class="ternarylayer"/><g class="geolayer"/><g class="funnelarealayer"/><g class="pielayer"/><g class="treemaplayer"/><g class="sunburstlayer"/><g class="glimages"/><defs id="topdefs-648cc1"><g class="clips"/><clipPath id="legend648cc1"><rect width="108" height="83" x="0" y="0"/></clipPath><clipPath id="rangesliderx-648cc1"><rect x="0" y="0" width="490" height="63"/></clipPath></defs><g class="layer-above"><g class="imagelayer"/><g class="shapelayer"/></g><g class="infolayer"><g class="legend" pointer-events="all" transform="translate(579.8, 100)"><rect class="bg" shape-rendering="crispEdges" style="stroke: rgb(68, 68, 68); stroke-opacity: 1; fill: rgb(255, 255, 255); fill-opacity: 1; stroke-width: 0px;" width="108" height="83" x="0" y="0"/><g class="scrollbox" transform="translate(0, 0)" clip-path="url('#legend648cc1')"><text class="legendtitletext user-select-none" text-anchor="start" x="2" y="15.600000000000001" style="font-family: 'Open Sans', verdana, arial, sans-serif; font-size: 12px; fill: rgb(42, 63, 95); fill-opacity: 1; white-space: pre;">Case</text><g class="groups" transform="translate(0, 0)"><g class="traces" transform="translate(0, 30.1)" style="opacity: 1;"><text class="legendtext user-select-none" text-anchor="start" x="40" y="4.680000000000001" style="font-family: 'Open Sans', verdana, arial, sans-serif; font-size: 12px; fill: rgb(42, 63, 95); fill-opacity: 1; white-space: pre;">Recovered</text><g class="layers"><g class="legendfill"><path class="js-fill" d="M5,-2h30v6h-30z" style="stroke-width: 0; fill: rgb(40, 167, 69); fill-opacity: 0.5;"/></g><g class="legendlines"><path class="js-line" d="M5,-2h30" style="fill: none; stroke: rgb(40, 167, 69); stroke-opacity: 1; stroke-width: 2px;"/></g><g class="legendsymbols"><g class="legendpoints"/></g></g><rect class="legendtoggle" pointer-events="all" x="0" y="-9.5" width="102.546875" height="19" style="cursor: pointer; fill: rgb(0, 0, 0); fill-opacity: 0;"/></g></g><g class="groups" transform="translate(0, 0)"><g class="traces" transform="translate(0, 49.1)" style="opacity: 1;"><text class="legendtext user-select-none" text-anchor="start" x="40" y="4.680000000000001" style="font-family: 'Open Sans', verdana, arial, sans-serif; font-size: 12px; fill: rgb(42, 63, 95); fill-opacity: 1; white-space: pre;">Deaths</text><g class="layers"><g class="legendfill"><path class="js-fill" d="M5,-2h30v6h-30z" style="stroke-width: 0; fill: rgb(108, 117, 125); fill-opacity: 0.5;"/></g><g class="legendlines"><path class="js-line" d="M5,-2h30" style="fill: none; stroke: rgb(108, 117, 125); stroke-opacity: 1; stroke-width: 2px;"/></g><g class="legendsymbols"><g class="legendpoints"/></g></g><rect class="legendtoggle" pointer-events="all" x="0" y="-9.5" width="102.546875" height="19" style="cursor: pointer; fill: rgb(0, 0, 0); fill-opacity: 0;"/></g></g><g class="groups" transform="translate(0, 0)"><g class="traces" transform="translate(0, 68.1)" style="opacity: 1;"><text class="legendtext user-select-none" text-anchor="start" x="40" y="4.680000000000001" style="font-family: 'Open Sans', verdana, arial, sans-serif; font-size: 12px; fill: rgb(42, 63, 95); fill-opacity: 1; white-space: pre;">Active</text><g class="layers"><g class="legendfill"><path class="js-fill" d="M5,-2h30v6h-30z" style="stroke-width: 0; fill: rgb(255, 7, 58); fill-opacity: 0.5;"/></g><g class="legendlines"><path class="js-line" d="M5,-2h30" style="fill: none; stroke: rgb(255, 7, 58); stroke-opacity: 1; stroke-width: 2px;"/></g><g class="legendsymbols"><g class="legendpoints"/></g></g><rect class="legendtoggle" pointer-events="all" x="0" y="-9.5" width="102.546875" height="19" style="cursor: pointer; fill: rgb(0, 0, 0); fill-opacity: 0;"/></g></g></g><rect class="scrollbar" rx="20" ry="3" width="0" height="0" x="0" y="0" style="fill: rgb(128, 139, 164); fill-opacity: 1;"/></g><g class="g-gtitle"><text class="gtitle" x="35" y="50" text-anchor="start" dy="0em" style="font-family: 'Open Sans', verdana, arial, sans-serif; font-size: 17px; fill: rgb(42, 63, 95); opacity: 1; font-weight: normal; white-space: pre;">Cases over time</text></g><g class="rangeslider-container" pointer-events="all" transform="translate(80,457)"><rect class="rangeslider-bg" x="0" y="0" shape-rendering="crispEdges" width="490" height="63" transform="translate(0,0)" fill="#E5ECF6" stroke="#444" stroke-width="0"/><g class="rangeslider-rangeplot xy" clip-path="url('#rangesliderx-648cc1')"><g class="layer-subplot"><g class="shapelayer"/><g class="imagelayer"/></g><g class="gridlayer"><g class="x"/><g class="y"/></g><g class="zerolinelayer"/><path class="xlines-below"/><path class="ylines-below"/><g class="overlines-below"/><g class="xaxislayer-below"/><g class="yaxislayer-below"/><g class="overaxes-below"/><g class="plot"><g class="scatterlayer mlayer rangeplot"><g class="trace scatter tracebfa5ee" style="stroke-miterlimit: 2;"><g class="fills"><g><path class="js-fill" d="M490,63L0,63L0,63L188.88,62.29L191.62,62.23L251.84,59.98L254.58,59.78L303.85,56.89L306.59,56.66L333.97,54.34L336.7,54.11L380.5,49.11L383.24,48.78L432.51,41.83L435.25,41.43L446.2,38.84L448.94,38.03L476.31,32.5L479.05,31.84L490,29.47" style="fill: rgb(40, 167, 69); fill-opacity: 0.5; stroke-width: 0;"/></g><g><path class="js-fill" d="M0,63L183.41,62.26L186.15,62.18L238.16,59.91L240.89,59.77L279.22,57.36L281.96,57.21L328.49,53.63L331.23,53.16L364.08,49.57L366.82,49.26L396.93,45.32L399.66,44.88L424.3,41.05L427.04,40.59L440.73,38.34L443.46,37.14L457.15,34.19L459.89,33.51L490,26.97L490,29.47L479.05,31.84L476.31,32.5L448.94,38.03L446.2,38.84L435.25,41.43L432.51,41.83L383.24,48.78L380.5,49.11L336.7,54.11L333.97,54.34L306.59,56.66L303.85,56.89L254.58,59.78L251.84,59.98L191.62,62.23L188.88,62.29L0,63Z" style="fill: rgb(108, 117, 125); fill-opacity: 0.5; stroke-width: 0;"/></g></g><g class="errorbars"/><g class="lines"><path class="js-line" d="M0,63L188.88,62.29L191.62,62.23L251.84,59.98L254.58,59.78L303.85,56.89L306.59,56.66L333.97,54.34L336.7,54.11L380.5,49.11L383.24,48.78L432.51,41.83L435.25,41.43L446.2,38.84L448.94,38.03L476.31,32.5L479.05,31.84L490,29.47" style="vector-effect: non-scaling-stroke; fill: none; stroke: rgb(40, 167, 69); stroke-opacity: 1; stroke-width: 2px; opacity: 1;"/></g><g class="points"/><g class="text"/></g><g class="trace scatter trace16e5dc" style="stroke-miterlimit: 2;"><g class="fills"><g><path class="js-fill" d="M0,63L147.82,62.28L150.56,62.21L175.2,60.81L177.93,60.54L218.99,55.82L221.73,55.42L273.74,49.18L276.48,48.85L325.75,42.41L328.49,41.97L383.24,32.68L385.98,32.11L416.09,25.59L418.83,24.91L457.15,14.19L459.89,13.32L490,3.15L490,26.97L459.89,33.51L457.15,34.19L443.46,37.14L440.73,38.34L427.04,40.59L424.3,41.05L399.66,44.88L396.93,45.32L366.82,49.26L364.08,49.57L331.23,53.16L328.49,53.63L281.96,57.21L279.22,57.36L240.89,59.77L238.16,59.91L186.15,62.18L183.41,62.26L0,63Z" style="fill: rgb(255, 7, 58); fill-opacity: 0.5; stroke-width: 0;"/></g></g><g class="errorbars"/><g class="lines"><path class="js-line" d="M0,63L183.41,62.26L186.15,62.18L238.16,59.91L240.89,59.77L279.22,57.36L281.96,57.21L328.49,53.63L331.23,53.16L364.08,49.57L366.82,49.26L396.93,45.32L399.66,44.88L424.3,41.05L427.04,40.59L440.73,38.34L443.46,37.14L457.15,34.19L459.89,33.51L490,26.97" style="vector-effect: non-scaling-stroke; fill: none; stroke: rgb(108, 117, 125); stroke-opacity: 1; stroke-width: 2px; opacity: 1;"/></g><g class="points"/><g class="text"/></g><g class="trace scatter trace2248c5" style="stroke-miterlimit: 2;"><g class="fills"/><g class="errorbars"/><g class="lines"><path class="js-line" d="M0,63L147.82,62.28L150.56,62.21L175.2,60.81L177.93,60.54L218.99,55.82L221.73,55.42L273.74,49.18L276.48,48.85L325.75,42.41L328.49,41.97L383.24,32.68L385.98,32.11L416.09,25.59L418.83,24.91L457.15,14.19L459.89,13.32L490,3.15" style="vector-effect: non-scaling-stroke; fill: none; stroke: rgb(255, 7, 58); stroke-opacity: 1; stroke-width: 2px; opacity: 1;"/></g><g class="points"/><g class="text"/></g></g></g><g class="overplot"/><path class="xlines-above crisp" style="fill: none;"/><path class="ylines-above crisp" style="fill: none;"/><g class="overlines-above"/><g class="xaxislayer-above"/><g class="yaxislayer-above"/><g class="overaxes-above"/></g><rect class="rangeslider-mask-min" x="0" y="0" shape-rendering="crispEdges" height="63" width="0" style="fill: rgb(0, 0, 0); fill-opacity: 0.4;"/><rect class="rangeslider-mask-max" y="0" shape-rendering="crispEdges" height="63" x="490" width="0" style="fill: rgb(0, 0, 0); fill-opacity: 0.4;"/><g class="rangeslider-grabber-min" transform="translate(-2.5,0.5)"><rect class="rangeslider-handle-min" x="0" width="4" rx="1" fill="#fff" stroke="#444" stroke-width="1" shape-rendering="crispEdges" y="16" height="32"/></g><g class="rangeslider-grabber-max" transform="translate(488.5,0.5)"><rect class="rangeslider-handle-max" x="0" width="4" rx="1" fill="#fff" stroke="#444" stroke-width="1" shape-rendering="crispEdges" y="16" height="32"/></g></g><g class="g-ytitle"><text class="ytitle" transform="rotate(-90,26.418750000000003,262)" x="26.418750000000003" y="262" text-anchor="middle" style="font-family: 'Open Sans', verdana, arial, sans-serif; font-size: 14px; fill: rgb(42, 63, 95); opacity: 1; font-weight: normal; white-space: pre;">Count</text></g><g class="g-xtitle"><text class="xtitle" x="325" y="551" text-anchor="middle" style="font-family: 'Open Sans', verdana, arial, sans-serif; font-size: 14px; fill: rgb(42, 63, 95); opacity: 1; font-weight: normal; white-space: pre;">Date</text></g></g></svg>