<svg class="main-svg" xmlns="http://www.w3.org/2000/svg" xmlns:xlink="http://www.w3.org/1999/xlink" width="700" height="600" style="" viewBox="0 0 700 600"><rect x="0" y="0" width="700" height="600" style="fill: rgb(255, 255, 255); fill-opacity: 1;"/><defs id="defs-799234"><g class="clips"><clipPath id="clip799234xyplot" class="plotclip"><rect width="490" height="324"/></clipPath><clipPath class="axesclip" id="clip799234x"><rect x="80" y="0" width="490" height="600"/></clipPath><clipPath class="axesclip" id="clip799234y"><rect x="0" y="100" width="700" height="324"/></clipPath><clipPath class="axesclip" id="clip799234xy"><rect x="80" y="100" width="490" height="324"/></clipPath></g><g class="gradients"/></defs><g class="bglayer"><rect class="bg" x="80" y="100" width="490" height="324" style="fill: rgb(229, 236, 246); fill-opacity: 1; stroke-width: 0;"/></g><g class="layer-below"><g class="imagelayer"/><g class="shapelayer"/></g><g class="cartesianlayer"><g class="subplot xy"><g class="layer-subplot"><g class="shapelayer"/><g class="imagelayer"/></g><g class="gridlayer"><g class="x"><path class="xgrid crisp" transform="translate(103.56,0)" d="M0,100v324" style="stroke: rgb(255, 255, 255); stroke-opacity: 1; stroke-width: 1px;"/><path class="xgrid crisp" transform="translate(171.88,0)" d="M0,100v324" style="stroke: rgb(255, 255, 255); stroke-opacity: 1; stroke-width: 1px;"/><path class="xgrid crisp" transform="translate(244.9,0)" d="M0,100v324" style="stroke: rgb(255, 255, 255); stroke-opacity: 1; stroke-width: 1px;"/><path class="xgrid crisp" transform="translate(315.58000000000004,0)" d="M0,100v324" style="stroke: rgb(255, 255, 255); stroke-opacity: 1; stroke-width: 1px;"/><path class="xgrid crisp" transform="translate(388.61,0)" d="M0,100v324" style="stroke: rgb(255, 255, 255); stroke-opacity: 1; stroke-width: 1px;"/><path class="xgrid crisp" transform="translate(459.28,0)" d="M0,100v324" style="stroke: rgb(255, 255, 255); stroke-opacity: 1; stroke-width: 1px;"/><path class="xgrid crisp" transform="translate(532.31,0)" d="M0,100v324" style="stroke: rgb(255, 255, 255); stroke-opacity: 1; stroke-width: 1px;"/></g><g class="y"><path class="ygrid crisp" transform="translate(0,353.58000000000004)" d="M80,0h490" style="stroke: rgb(255, 255, 255); stroke-opacity: 1; stroke-width: 1px;"/><path class="ygrid crisp" transform="translate(0,283.15999999999997)" d="M80,0h490" style="stroke: rgb(255, 255, 255); stroke-opacity: 1; stroke-width: 1px;"/><path class="ygrid crisp" transform="translate(0,212.74)" d="M80,0h490" style="stroke: rgb(255, 255, 255); stroke-opacity: 1; stroke-width: 1px;"/><path class="ygrid crisp" transform="translate(0,142.32)" d="M80,0h490" style="stroke: rgb(255, 255, 255); stroke-opacity: 1; stroke-width: 1px;"/></g></g><g class="zerolinelayer"><path class="yzl zl crisp" transform="translate(0,424)" d="M80,0h490" style="stroke: rgb(255, 255, 255); stroke-opacity: 1; stroke-width: 2px;"/></g><path class="xlines-below"/><path class="ylines-below"/><g class="overlines-below"/><g class="xaxislayer-below"/><g class="yaxislayer-below"/><g class="overaxes-below"/><g class="plot" transform="translate(80, 100)" clip-path="url('#clip799234xyplot')"><g class="scatterlayer mlayer"><g class="trace scatter traceb7991f" style="stroke-miterlimit: 2;"><g class="fills"><g><path class="js-fill" d="M490,324L0,324L0,324L98.94,323.28L101.3,323.24L155.48,322.1L157.84,321.97L186.11,318.81L188.46,318.44L202.6,316.12L204.95,315.79L233.22,309.86L235.58,309.32L275.63,299.03L277.98,298.31L299.18,290.18L301.54,289.1L322.74,279.94L325.1,277.81L348.65,265.69L351.01,264.35L355.72,261.76L358.08,260.47L379.28,247.21L381.63,243.2L383.99,241.66L386.35,238.9L393.41,233.44L395.77,231.22L414.62,215.66L416.97,213.08L428.75,202.54L431.11,200.14L435.82,193.83L438.17,191.85L445.24,184.18L447.6,181.05L471.15,153.67L473.51,151.35L478.22,143.66L480.58,141.33L482.93,137.33L485.29,134.95L490,128.72" style="fill: rgb(40, 167, 69); fill-opacity: 0.5; stroke-width: 0;"/></g><g><path class="js-fill" d="M0,324L96.59,323.28L98.94,323.23L153.13,321.82L155.48,321.65L169.62,320.03L171.97,319.67L183.75,317.68L186.11,317.28L216.73,310.96L219.09,310.16L230.87,307.53L233.22,306.53L268.56,296.79L270.91,295.94L282.69,292.05L285.05,290.45L301.54,283.93L303.89,282.88L322.74,274.26L325.1,272.08L348.65,259.3L351.01,257.88L355.72,255.17L358.08,253.83L379.28,240L381.63,235.92L383.99,234.3L386.35,231.48L393.41,225.84L395.77,223.54L414.62,207.41L416.97,204.74L428.75,193.82L431.11,191.29L435.82,184.81L438.17,182.78L445.24,174.85L447.6,171.64L473.51,141.07L475.87,136.68L482.93,126.63L485.29,124.17L490,117.83L490,128.72L485.29,134.95L482.93,137.33L480.58,141.33L478.22,143.66L473.51,151.35L471.15,153.67L447.6,181.05L445.24,184.18L438.17,191.85L435.82,193.83L431.11,200.14L428.75,202.54L416.97,213.08L414.62,215.66L395.77,231.22L393.41,233.44L386.35,238.9L383.99,241.66L381.63,243.2L379.28,247.21L358.08,260.47L355.72,261.76L351.01,264.35L348.65,265.69L325.1,277.81L322.74,279.94L301.54,289.1L299.18,290.18L277.98,298.31L275.63,299.03L235.58,309.32L233.22,309.86L204.95,315.79L202.6,316.12L188.46,318.44L186.11,318.81L157.84,321.97L155.48,322.1L101.3,323.24L98.94,323.28L0,324Z" style="fill: rgb(108, 117, 125); fill-opacity: 0.5; stroke-width: 0;"/></g></g><g class="errorbars"/><g class="lines"><path class="js-line" d="M0,324L98.94,323.28L101.3,323.24L155.48,322.1L157.84,321.97L186.11,318.81L188.46,318.44L202.6,316.12L204.95,315.79L233.22,309.86L235.58,309.32L275.63,299.03L277.98,298.31L299.18,290.18L301.54,289.1L322.74,279.94L325.1,277.81L348.65,265.69L351.01,264.35L355.72,261.76L358.08,260.47L379.28,247.21L381.63,243.2L383.99,241.66L386.35,238.9L393.41,233.44L395.77,231.22L414.62,215.66L416.97,213.08L428.75,202.54L431.11,200.14L435.82,193.83L438.17,191.85L445.24,184.18L447.6,181.05L471.15,153.67L473.51,151.35L478.22,143.66L480.58,141.33L482.93,137.33L485.29,134.95L490,128.72" style="vector-effect: non-scaling-stroke; fill: none; stroke: rgb(40, 167, 69); stroke-opacity: 1; stroke-width: 2px; opacity: 1;"/></g><g class="points"/><g class="text"/></g><g class="trace scatter trace942c00" style="stroke-miterlimit: 2;"><g class="fills"><g><path class="js-fill" d="M0,323.99L49.47,323.36L51.83,323.15L77.74,322.89L80.1,322.88L120.14,322.05L122.5,321.89L134.28,320.64L136.63,320.23L148.41,317.42L150.77,316.53L167.26,309.64L169.62,308.47L266.2,261.55L268.56,260.19L299.18,242.25L301.54,240.55L306.25,237.1L308.61,235.76L336.88,214.52L339.23,212.64L346.3,206.97L348.65,205L355.72,198.43L358.08,196.5L376.92,177.1L379.28,174.04L388.7,162.96L391.06,160.6L414.62,129.77L416.97,126.37L431.11,105.87L433.46,101.91L480.58,29.91L482.93,25.63L490,16.2L490,117.83L485.29,124.17L482.93,126.63L475.87,136.68L473.51,141.07L447.6,171.64L445.24,174.85L438.17,182.78L435.82,184.81L431.11,191.29L428.75,193.82L416.97,204.74L414.62,207.41L395.77,223.54L393.41,225.84L386.35,231.48L383.99,234.3L381.63,235.92L379.28,240L358.08,253.83L355.72,255.17L351.01,257.88L348.65,259.3L325.1,272.08L322.74,274.26L303.89,282.88L301.54,283.93L285.05,290.45L282.69,292.05L270.91,295.94L268.56,296.79L233.22,306.53L230.87,307.53L219.09,310.16L216.73,310.96L186.11,317.28L183.75,317.68L171.97,319.67L169.62,320.03L155.48,321.65L153.13,321.82L98.94,323.23L96.59,323.28L0,324Z" style="fill: rgb(255, 7, 58); fill-opacity: 0.5; stroke-width: 0;"/></g></g><g class="errorbars"/><g class="lines"><path class="js-line" d="M0,324L96.59,323.28L98.94,323.23L153.13,321.82L155.48,321.65L169.62,320.03L171.97,319.67L183.75,317.68L186.11,317.28L216.73,310.96L219.09,310.16L230.87,307.53L233.22,306.53L268.56,296.79L270.91,295.94L282.69,292.05L285.05,290.45L301.54,283.93L303.89,282.88L322.74,274.26L325.1,272.08L348.65,259.3L351.01,257.88L355.72,255.17L358.08,253.83L379.28,240L381.63,235.92L383.99,234.3L386.35,231.48L393.41,225.84L395.77,223.54L414.62,207.41L416.97,204.74L428.75,193.82L431.11,191.29L435.82,184.81L438.17,182.78L445.24,174.85L447.6,171.64L473.51,141.07L475.87,136.68L482.93,126.63L485.29,124.17L490,117.83" style="vector-effect: non-scaling-stroke; fill: none; stroke: rgb(108, 117, 125); stroke-opacity: 1; stroke-width: 2px; opacity: 1;"/></g><g class="points"/><g class="text"/></g><g class="trace scatter trace85305f" style="stroke-miterlimit: 2;"><g class="fills"/><g class="errorbars"/><g class="lines"><path class="js-line" d="M0,323.99L49.47,323.36L51.83,323.15L77.74,322.89L80.1,322.88L120.14,322.05L122.5,321.89L134.28,320.64L136.63,320.23L148.41,317.42L150.77,316.53L167.26,309.64L169.62,308.47L266.2,261.55L268.56,260.19L299.18,242.25L301.54,240.55L306.25,237.1L308.61,235.76L336.88,214.52L339.23,212.64L346.3,206.97L348.65,205L355.72,198.43L358.08,196.5L376.92,177.1L379.28,174.04L388.7,162.96L391.06,160.6L414.62,129.77L416.97,126.37L431.11,105.87L433.46,101.91L480.58,29.91L482.93,25.63L490,16.2" style="vector-effect: non-scaling-stroke; fill: none; stroke: rgb(255, 7, 58); stroke-opacity: 1; stroke-width: 2px; opacity: 1;"/></g><g class="points"/><g class="text"/></g></g></g><g class="overplot"/><path class="xlines-above crisp" style="fill: none; stroke-width: 1px; stroke: rgb(255, 255, 255); stroke-opacity: 1;" d="M79,424.5H570"/><path class="ylines-above crisp" style="fill: none; stroke-width: 1px; stroke: rgb(255, 255, 255); stroke-opacity: 1;" d="M79.5,100V424"/><g class="overlines-above"/><g class="xaxislayer-above"><g class="xtick"><text text-anchor="middle" x="0" y="439.4" transform="translate(103.56,0)" style="font-family: 'Open Sans', verdana, arial, sans-serif; font-size: 12px; fill: rgb(42, 63, 95); fill-opacity: 1; white-space: pre;">Feb 2020</text></g><g class="xtick"><text text-anchor="middle" x="0" y="439.4" transform="translate(171.88,0)" style="font-family: 'Open Sans', verdana, arial, sans-serif; font-size: 12px; fill: rgb(42, 63, 95); fill-opacity: 1; white-space: pre;">Mar 2020</text></g><g class="xtick"><text text-anchor="middle" x="0" y="439.4" transform="translate(244.9,0)" style="font-family: 'Open Sans', verdana, arial, sans-serif; font-size: 12px; fill: rgb(42, 63, 95); fill-opacity: 1; white-space: pre;">Apr 2020</text></g><g class="xtick"><text text-anchor="middle" x="0" y="439.4" transform="translate(315.58000000000004,0)" style="font-family: 'Open Sans', verdana, arial, sans-serif; font-size: 12px; fill: rgb(42, 63, 95); fill-opacity: 1; white-space: pre;">May 2020</text></g><g class="xtick"><text text-anchor="middle" x="0" y="439.4" transform="translate(388.61,0)" style="font-family: 'Open Sans', verdana, arial, sans-serif; font-size: 12px; fill: rgb(42, 63, 95); fill-opacity: 1; white-space: pre;">Jun 2020</text></g><g class="xtick"><text text-anchor="middle" x="0" y="439.4" transform="translate(459.28,0)" style="font-family: 'Open Sans', verdana, arial, sans-serif; font-size: 12px; fill: rgb(42, 63, 95); fill-opacity: 1; white-space: pre;">Jul 2020</text></g><g class="xtick"><text text-anchor="middle" x="0" y="439.4" transform="translate(532.31,0)" style="font-family: 'Open Sans', verdana, arial, sans-serif; font-size: 12px; fill: rgb(42, 63, 95); fill-opacity: 1; white-space: pre;">Aug 2020</text></g></g><g class="yaxislayer-above"><g class="ytick"><text text-anchor="end" x="76.6" y="4.199999999999999" transform="translate(0,424)" style="font-family: 'Open Sans', verdana, arial, sans-serif; font-size: 12px; fill: rgb(42, 63, 95); fill-opacity: 1; white-space: pre;">0</text></g><g class="ytick"><text text-anchor="end" x="76.6" y="4.199999999999999" transform="translate(0,353.58000000000004)" style="font-family: 'Open Sans', verdana, arial, sans-serif; font-size: 12px; fill: rgb(42, 63, 95); fill-opacity: 1; white-space: pre;">5M</text></g><g class="ytick"><text text-anchor="end" x="76.6" y="4.199999999999999" transform="translate(0,283.15999999999997)" style="font-family: 'Open Sans', verdana, arial, sans-serif; font-size: 12px; fill: rgb(42, 63, 95); fill-opacity: 1; white-space: pre;">10M</text></g><g class="ytick"><text text-anchor="end" x="76.6" y="4.199999999999999" transform="translate(0,212.74)" style="font-family: 'Open Sans', verdana, arial, sans-serif; font-size: 12px; fill: rgb(42, 63, 95); fill-opacity: 1; white-space: pre;">15M</text></g><g class="ytick"><text text-anchor="end" x="76.6" y="4.199999999999999" transform="translate(0,142.32)" style="font-family: 'Open Sans', verdana, arial, sans-serif; font-size: 12px; fill: rgb(42, 63, 95); fill-opacity: 1; white-space: pre;">20M</text></g></g><g class="overaxes-above"/></g></g><g class="polarlayer"/><g class="ternarylayer"/><g class="geolayer"/><g class="funnelarealayer"/><g class="pielayer"/><g class="treemaplayer"/><g class="sunburstlayer"/><g class="glimages"/><defs id="topdefs-799234"><g class="clips"/><clipPath id="legend799234"><rect width="108" height="83" x="0" y="0"/></clipPath><clipPath id="rangesliderx-799234"><rect x="0" y="0" width="490" height="63"/></clipPath></defs><g class="layer-above"><g class="imagelayer"/><g class="shapelayer"/></g><g class="infolayer"><g class="legend" pointer-events="all" transform="translate(579.8, 100)"><rect class="bg" shape-rendering="crispEdges" style="stroke: rgb(68, 68, 68); stroke-opacity: 1; fill: rgb(255, 255, 255); fill-opacity: 1; stroke-width: 0px;" width="108" height="83" x="0" y="0"/><g class="scrollbox" transform="translate(0, 0)" clip-path="url('#legend799234')"><text class="legendtitletext user-select-none" text-anchor="start" x="2" y="15.600000000000001" style="font-family: 'Open Sans', verdana, arial, sans-serif; font-size: 12px; fill: rgb(42, 63, 95); fill-opacity: 1; white-space: pre;">Case</text><g class="groups" transform="translate(0, 0)"><g class="traces" transform="translate(0, 30.1)" style="opacity: 1;"><text class="legendtext user-select-none" text-anchor="start" x="40" y="4.680000000000001" style="font-family: 'Open Sans', verdana, arial, sans-serif; font-size: 12px; fill: rgb(42, 63, 95); fill-opacity: 1; white-space: pre;">Recovered</text><g class="layers"><g class="legendfill"><path class="js-fill" d="M5,-2h30v6h-30z" style="stroke-width: 0; fill: rgb(40, 167, 69); fill-opacity: 0.5;"/></g><g class="legendlines"><path class="js-line" d="M5,-2h30" style="fill: none; stroke: rgb(40, 167, 69); stroke-opacity: 1; stroke-width: 2px;"/></g><g class="legendsymbols"><g class="legendpoints"/></g></g><rect class="legendtoggle" pointer-events="all" x="0" y="-9.5" width="102.546875" height="19" style="cursor: pointer; fill: rgb(0, 0, 0); fill-opacity: 0;"/></g></g><g class="groups" transform="translate(0, 0)"><g class="traces" transform="translate(0, 49.1)" style="opacity: 1;"><text class="legendtext user-select-none" text-anchor="start" x="40" y="4.680000000000001" style="font-family: 'Open Sans', verdana, arial, sans-serif; font-size: 12px; fill: rgb(42, 63, 95); fill-opacity: 1; white-space: pre;">Deaths</text><g class="layers"><g class="legendfill"><path class="js-fill" d="M5,-2h30v6h-30z" style="stroke-width: 0; fill: rgb(108, 117, 125); fill-opacity: 0.5;"/></g><g class="legendlines"><path class="js-line" d="M5,-2h30" style="fill: none; stroke: rgb(108, 117, 125); stroke-opacity: 1; stroke-width: 2px;"/></g><g class="legendsymbols"><g class="legendpoints"/></g></g><rect class="legendtoggle" pointer-events="all" x="0" y="-9.5" width="102.546875" height="19" style="cursor: pointer; fill: rgb(0, 0, 0); fill-opacity: 0;"/></g></g><g class="groups" transform="translate(0, 0)"><g class="traces" transform="translate(0, 68.1)" style="opacity: 1;"><text class="legendtext user-select-none" text-anchor="start" x="40" y="4.680000000000001" style="font-family: 'Open Sans', verdana, arial, sans-serif; font-size: 12px; fill: rgb(42, 63, 95); fill-opacity: 1; white-space: pre;">Active</text><g class="layers"><g class="legendfill"><path class="js-fill" d="M5,-2h30v6h-30z" style="stroke-width: 0; fill: rgb(255, 7, 58); fill-opacity: 0.5;"/></g><g class="legendlines"><path class="js-line" d="M5,-2h30" style="fill: none; stroke: rgb(255, 7, 58); stroke-opacity: 1; stroke-width: 2px;"/></g><g class="legendsymbols"><g class="legendpoints"/></g></g><rect class="legendtoggle" pointer-events="all" x="0" y="-9.5" width="102.546875" height="19" style="cursor: pointer; fill: rgb(0, 0, 0); fill-opacity: 0;"/></g></g></g><rect class="scrollbar" rx="20" ry="3" width="0" height="0" x="0" y="0" style="fill: rgb(128, 139, 164); fill-opacity: 1;"/></g><g class="g-gtitle"><text class="gtitle" x="35" y="50" text-anchor="start" dy="0em" style="font-family: 'Open Sans', verdana, arial, sans-serif; font-size: 17px; fill: rgb(42, 63, 95); opacity: 1; font-weight: normal; white-space: pre;">Cases over time</text></g><g class="rangeslider-container" pointer-events="all" transform="translate(80,457)"><rect class="rangeslider-bg" x="0" y="0" shape-rendering="crispEdges" width="490" height="63" transform="translate(0,0)" fill="#E5ECF6" stroke="#444" stroke-width="0"/><g class="rangeslider-rangeplot xy" clip-path="url('#rangesliderx-799234')"><g class="layer-subplot"><g class="shapelayer"/><g class="imagelayer"/></g><g class="gridlayer"><g class="x"/><g class="y"/></g><g class="zerolinelayer"/><path class="xlines-below"/><path class="ylines-below"/><g class="overlines-below"/><g class="xaxislayer-below"/><g class="yaxislayer-below"/><g class="overaxes-below"/><g class="plot"><g class="scatterlayer mlayer rangeplot"><g class="trace scatter traceb7991f" style="stroke-miterlimit: 2;"><g class="fills"><g><path class="js-fill" d="M490,63L0,63L0,63L176.68,62.26L179.04,62.2L268.56,58.56L270.91,58.4L299.18,56.42L301.54,56.21L346.3,51.88L348.65,51.66L379.28,48.07L381.63,47.29L405.19,43.56L407.55,43.18L433.46,38.29L435.82,37.69L449.95,34.66L452.31,34.16L461.73,31.96L464.09,31.44L490,25.03" style="fill: rgb(40, 167, 69); fill-opacity: 0.5; stroke-width: 0;"/></g><g><path class="js-fill" d="M0,63L167.26,62.29L169.62,62.23L230.87,59.8L233.22,59.6L285.05,56.48L287.4,56.32L322.74,53.33L325.1,52.9L374.57,47.33L376.92,47L391.06,44.33L393.41,43.91L445.24,34L447.6,33.37L490,22.91L490,25.03L464.09,31.44L461.73,31.96L452.31,34.16L449.95,34.66L435.82,37.69L433.46,38.29L407.55,43.18L405.19,43.56L381.63,47.29L379.28,48.07L348.65,51.66L346.3,51.88L301.54,56.21L299.18,56.42L270.91,58.4L268.56,58.56L179.04,62.2L176.68,62.26L0,63Z" style="fill: rgb(108, 117, 125); fill-opacity: 0.5; stroke-width: 0;"/></g></g><g class="errorbars"/><g class="lines"><path class="js-line" d="M0,63L176.68,62.26L179.04,62.2L268.56,58.56L270.91,58.4L299.18,56.42L301.54,56.21L346.3,51.88L348.65,51.66L379.28,48.07L381.63,47.29L405.19,43.56L407.55,43.18L433.46,38.29L435.82,37.69L449.95,34.66L452.31,34.16L461.73,31.96L464.09,31.44L490,25.03" style="vector-effect: non-scaling-stroke; fill: none; stroke: rgb(40, 167, 69); stroke-opacity: 1; stroke-width: 2px; opacity: 1;"/></g><g class="points"/><g class="text"/></g><g class="trace scatter trace942c00" style="stroke-miterlimit: 2;"><g class="fills"><g><path class="js-fill" d="M0,63L136.63,62.27L138.99,62.18L162.55,60.64L164.9,60.43L296.83,47.43L299.18,47.1L358.08,38.21L360.43,37.75L393.41,30.65L395.77,30.07L442.88,17.22L445.24,16.43L471.15,8.68L473.51,8.05L490,3.15L490,22.91L447.6,33.37L445.24,34L393.41,43.91L391.06,44.33L376.92,47L374.57,47.33L325.1,52.9L322.74,53.33L287.4,56.32L285.05,56.48L233.22,59.6L230.87,59.8L169.62,62.23L167.26,62.29L0,63Z" style="fill: rgb(255, 7, 58); fill-opacity: 0.5; stroke-width: 0;"/></g></g><g class="errorbars"/><g class="lines"><path class="js-line" d="M0,63L167.26,62.29L169.62,62.23L230.87,59.8L233.22,59.6L285.05,56.48L287.4,56.32L322.74,53.33L325.1,52.9L374.57,47.33L376.92,47L391.06,44.33L393.41,43.91L445.24,34L447.6,33.37L490,22.91" style="vector-effect: non-scaling-stroke; fill: none; stroke: rgb(108, 117, 125); stroke-opacity: 1; stroke-width: 2px; opacity: 1;"/></g><g class="points"/><g class="text"/></g><g class="trace scatter trace85305f" style="stroke-miterlimit: 2;"><g class="fills"/><g class="errorbars"/><g class="lines"><path class="js-line" d="M0,63L136.63,62.27L138.99,62.18L162.55,60.64L164.9,60.43L296.83,47.43L299.18,47.1L358.08,38.21L360.43,37.75L393.41,30.65L395.77,30.07L442.88,17.22L445.24,16.43L471.15,8.68L473.51,8.05L490,3.15" style="vector-effect: non-scaling-stroke; fill: none; stroke: rgb(255, 7, 58); stroke-opacity: 1; stroke-width: 2px; opacity: 1;"/></g><g class="points"/><g class="text"/></g></g></g><g class="overplot"/><path class="xlines-above crisp" style="fill: none;"/><path class="ylines-above crisp" style="fill: none;"/><g class="overlines-above"/><g class="xaxislayer-above"/><g class="yaxislayer-above"/><g class="overaxes-above"/></g><rect class="rangeslider-mask-min" x="0" y="0" shape-rendering="crispEdges" height="63" width="0" style="fill: rgb(0, 0, 0); fill-opacity: 0.4;"/><rect class="rangeslider-mask-max" y="0" shape-rendering="crispEdges" height="63" x="490" width="0" style="fill: rgb(0, 0, 0); fill-opacity: 0.4;"/><g class="rangeslider-grabber-min" transform="translate(-2.5,0.5)"><rect class="rangeslider-handle-min" x="0" width="4" rx="1" fill="#fff" stroke="#444" stroke-width="1" shape-rendering="crispEdges" y="16" height="32"/></g><g class="rangeslider-grabber-max" transform="translate(488.5,0.5)"><rect class="rangeslider-handle-max" x="0" width="4" rx="1" fill="#fff" stroke="#444" stroke-width="1" shape-rendering="crispEdges" y="16" height="32"/></g></g><g class="g-ytitle"><text class="ytitle" transform="rotate(-90,26.418750000000003,262)" x="26.418750000000003" y="262" text-anchor="middle" style="font-family: 'Open Sans', verdana, arial, sans-serif; font-size: 14px; fill: rgb(42, 63, 95); opacity: 1; font-weight: normal; white-space: pre;">Count</text></g><g class="g-xtitle"><text class="xtitle" x="325" y="551" text-anchor="middle" style="font-family: 'Open Sans', verdana, arial, sans-serif; font-size: 14px; fill: rgb(42, 63, 95); opacity: 1; font-weight: normal; white-space: pre;">Date</text></g></g></svg>