<svg class="main-svg" xmlns="http://www.w3.org/2000/svg" xmlns:xlink="http://www.w3.org/1999/xlink" width="700" height="600" style="" viewBox="0 0 700 600"><rect x="0" y="0" width="700" height="600" style="fill: rgb(255, 255, 255); fill-opacity: 1;"/><defs id="defs-1c9663"><g class="clips"><clipPath id="clip1c9663xyplot" class="plotclip"><rect width="494" height="326"/></clipPath><clipPath class="axesclip" id="clip1c9663x"><rect x="80" y="0" width="494" height="600"/></clipPath><clipPath class="axesclip" id="clip1c9663y"><rect x="0" y="100" width="700" height="326"/></clipPath><clipPath class="axesclip" id="clip1c9663xy"><rect x="80" y="100" width="494" height="326"/></clipPath></g><g class="gradients"/></defs><g class="bglayer"><rect class="bg" x="80" y="100" width="494" height="326" style="fill: rgb(229, 236, 246); fill-opacity: 1; stroke-width: 0;"/></g><g class="layer-below"><g class="imagelayer"/><g class="shapelayer"/></g><g class="cartesianlayer"><g class="subplot xy"><g class="layer-subplot"><g class="shapelayer"/><g class="imagelayer"/></g><g class="gridlayer"><g class="x"><path class="xgrid crisp" transform="translate(113.38,0)" d="M0,100v326" style="stroke: rgb(255, 255, 255); stroke-opacity: 1; stroke-width: 1px;"/><path class="xgrid crisp" transform="translate(210.18,0)" d="M0,100v326" style="stroke: rgb(255, 255, 255); stroke-opacity: 1; stroke-width: 1px;"/><path class="xgrid crisp" transform="translate(313.65,0)" d="M0,100v326" style="stroke: rgb(255, 255, 255); stroke-opacity: 1; stroke-width: 1px;"/><path class="xgrid crisp" transform="translate(413.78,0)" d="M0,100v326" style="stroke: rgb(255, 255, 255); stroke-opacity: 1; stroke-width: 1px;"/><path class="xgrid crisp" transform="translate(517.26,0)" d="M0,100v326" style="stroke: rgb(255, 255, 255); stroke-opacity: 1; stroke-width: 1px;"/></g><g class="y"><path class="ygrid crisp" transform="translate(0,389.44)" d="M80,0h494" style="stroke: rgb(255, 255, 255); stroke-opacity: 1; stroke-width: 1px;"/><path class="ygrid crisp" transform="translate(0,352.87)" d="M80,0h494" style="stroke: rgb(255, 255, 255); stroke-opacity: 1; stroke-width: 1px;"/><path class="ygrid crisp" transform="translate(0,316.31)" d="M80,0h494" style="stroke: rgb(255, 255, 255); stroke-opacity: 1; stroke-width: 1px;"/><path class="ygrid crisp" transform="translate(0,279.75)" d="M80,0h494" style="stroke: rgb(255, 255, 255); stroke-opacity: 1; stroke-width: 1px;"/><path class="ygrid crisp" transform="translate(0,243.18)" d="M80,0h494" style="stroke: rgb(255, 255, 255); stroke-opacity: 1; stroke-width: 1px;"/><path class="ygrid crisp" transform="translate(0,206.62)" d="M80,0h494" style="stroke: rgb(255, 255, 255); stroke-opacity: 1; stroke-width: 1px;"/><path class="ygrid crisp" transform="translate(0,170.06)" d="M80,0h494" style="stroke: rgb(255, 255, 255); stroke-opacity: 1; stroke-width: 1px;"/><path class="ygrid crisp" transform="translate(0,133.49)" d="M80,0h494" style="stroke: rgb(255, 255, 255); stroke-opacity: 1; stroke-width: 1px;"/></g></g><g class="zerolinelayer"><path class="yzl zl crisp" transform="translate(0,426)" d="M80,0h494" style="stroke: rgb(255, 255, 255); stroke-opacity: 1; stroke-width: 2px;"/></g><path class="xlines-below"/><path class="ylines-below"/><g class="overlines-below"/><g class="xaxislayer-below"/><g class="yaxislayer-below"/><g class="overaxes-below"/><g class="plot" transform="translate(80, 100)" clip-path="url('#clip1c9663xyplot')"><g class="scatterlayer mlayer"><g class="trace scatter trace616fcc" style="stroke-miterlimit: 2;"><g class="fills"><g><path class="js-fill" d="M494,326L0,326L0,326L100.14,325.31L103.47,325.16L133.51,324.33L136.85,324.24L216.96,321.38L220.3,321.08L233.65,319.15L236.99,318.54L253.68,315.29L257.01,314.24L290.39,304.68L293.73,303.53L300.41,301.46L303.74,300.35L320.43,294.41L323.77,293.19L327.11,291.66L330.45,289.28L357.15,278.18L360.49,276.23L370.5,271.93L373.84,269.89L380.51,266.69L383.85,264.62L393.86,259.31L397.2,257.15L400.54,255.28L403.88,251.33L420.57,240.65L423.91,238.21L433.92,230.03L437.26,228.03L443.93,221.34L447.27,218.78L457.28,211.61L460.62,206.07L487.32,181.92L490.66,177.59L494,174.62" style="fill: rgb(40, 167, 69); fill-opacity: 0.5; stroke-width: 0;"/></g><g><path class="js-fill" d="M0,326L96.8,325.25L100.14,325.23L140.19,324.01L143.53,323.91L203.61,321.9L206.95,321.49L223.64,319.45L226.97,318.74L247,314.08L250.34,313.26L280.38,302.49L283.72,301.1L307.08,292.22L310.42,290.17L327.11,283.33L330.45,280.75L357.15,268.13L360.49,266.01L370.5,261.25L373.84,259.02L380.51,255.44L383.85,253.22L390.53,249.54L393.86,247.49L400.54,243.11L403.88,238.97L420.57,227.65L423.91,225.04L433.92,216.43L437.26,214.3L443.93,207.23L447.27,204.48L457.28,196.9L460.62,191.22L487.32,165.72L490.66,161.19L494,158.05L494,174.62L490.66,177.59L487.32,181.92L460.62,206.07L457.28,211.61L447.27,218.78L443.93,221.34L437.26,228.03L433.92,230.03L423.91,238.21L420.57,240.65L403.88,251.33L400.54,255.28L397.2,257.15L393.86,259.31L383.85,264.62L380.51,266.69L373.84,269.89L370.5,271.93L360.49,276.23L357.15,278.18L330.45,289.28L327.11,291.66L323.77,293.19L320.43,294.41L303.74,300.35L300.41,301.46L293.73,303.53L290.39,304.68L257.01,314.24L253.68,315.29L236.99,318.54L233.65,319.15L220.3,321.08L216.96,321.38L136.85,324.24L133.51,324.33L103.47,325.16L100.14,325.31L0,326Z" style="fill: rgb(108, 117, 125); fill-opacity: 0.5; stroke-width: 0;"/></g></g><g class="errorbars"/><g class="lines"><path class="js-line" d="M0,326L100.14,325.31L103.47,325.16L133.51,324.33L136.85,324.24L216.96,321.38L220.3,321.08L233.65,319.15L236.99,318.54L253.68,315.29L257.01,314.24L290.39,304.68L293.73,303.53L300.41,301.46L303.74,300.35L320.43,294.41L323.77,293.19L327.11,291.66L330.45,289.28L357.15,278.18L360.49,276.23L370.5,271.93L373.84,269.89L380.51,266.69L383.85,264.62L393.86,259.31L397.2,257.15L400.54,255.28L403.88,251.33L420.57,240.65L423.91,238.21L433.92,230.03L437.26,228.03L443.93,221.34L447.27,218.78L457.28,211.61L460.62,206.07L487.32,181.92L490.66,177.59L494,174.62" style="vector-effect: non-scaling-stroke; fill: none; stroke: rgb(40, 167, 69); stroke-opacity: 1; stroke-width: 2px; opacity: 1;"/></g><g class="points"/><g class="text"/></g><g class="trace scatter tracec9bb3d" style="stroke-miterlimit: 2;"><g class="fills"><g><path class="js-fill" d="M0,325.98L40.05,325.27L43.39,325.13L103.47,323.14L106.81,323.14L156.88,322.12L160.22,321.95L176.91,320.19L180.24,319.67L190.26,317.43L193.59,316.35L206.95,311.03L210.28,309.22L230.31,294.98L233.65,292.22L267.03,262.84L270.36,259.23L280.38,251.16L283.72,247.65L293.73,238.7L297.07,236L307.08,227.25L310.42,224.05L320.43,215.71L323.77,213.01L333.78,203.91L337.12,200.91L353.81,185.58L357.15,182.18L380.51,160.14L383.85,156.74L393.86,147.1L397.2,143.47L410.55,128.45L413.89,125.28L420.57,118.07L423.91,113.75L433.92,100.66L437.26,97.14L447.27,83.72L450.61,78.85L457.28,70.1L460.62,66.32L473.97,47.15L477.31,42.24L487.32,27.81L490.66,21.38L494,16.3L494,158.05L490.66,161.19L487.32,165.72L460.62,191.22L457.28,196.9L447.27,204.48L443.93,207.23L437.26,214.3L433.92,216.43L423.91,225.04L420.57,227.65L403.88,238.97L400.54,243.11L393.86,247.49L390.53,249.54L383.85,253.22L380.51,255.44L373.84,259.02L370.5,261.25L360.49,266.01L357.15,268.13L330.45,280.75L327.11,283.33L310.42,290.17L307.08,292.22L283.72,301.1L280.38,302.49L250.34,313.26L247,314.08L226.97,318.74L223.64,319.45L206.95,321.49L203.61,321.9L143.53,323.91L140.19,324.01L100.14,325.23L96.8,325.25L0,326Z" style="fill: rgb(255, 7, 58); fill-opacity: 0.5; stroke-width: 0;"/></g></g><g class="errorbars"/><g class="lines"><path class="js-line" d="M0,326L96.8,325.25L100.14,325.23L140.19,324.01L143.53,323.91L203.61,321.9L206.95,321.49L223.64,319.45L226.97,318.74L247,314.08L250.34,313.26L280.38,302.49L283.72,301.1L307.08,292.22L310.42,290.17L327.11,283.33L330.45,280.75L357.15,268.13L360.49,266.01L370.5,261.25L373.84,259.02L380.51,255.44L383.85,253.22L390.53,249.54L393.86,247.49L400.54,243.11L403.88,238.97L420.57,227.65L423.91,225.04L433.92,216.43L437.26,214.3L443.93,207.23L447.27,204.48L457.28,196.9L460.62,191.22L487.32,165.72L490.66,161.19L494,158.05" style="vector-effect: non-scaling-stroke; fill: none; stroke: rgb(108, 117, 125); stroke-opacity: 1; stroke-width: 2px; opacity: 1;"/></g><g class="points"/><g class="text"/></g><g class="trace scatter trace5f7ffe" style="stroke-miterlimit: 2;"><g class="fills"/><g class="errorbars"/><g class="lines"><path class="js-line" d="M0,325.98L40.05,325.27L43.39,325.13L103.47,323.14L106.81,323.14L156.88,322.12L160.22,321.95L176.91,320.19L180.24,319.67L190.26,317.43L193.59,316.35L206.95,311.03L210.28,309.22L230.31,294.98L233.65,292.22L267.03,262.84L270.36,259.23L280.38,251.16L283.72,247.65L293.73,238.7L297.07,236L307.08,227.25L310.42,224.05L320.43,215.71L323.77,213.01L333.78,203.91L337.12,200.91L353.81,185.58L357.15,182.18L380.51,160.14L383.85,156.74L393.86,147.1L397.2,143.47L410.55,128.45L413.89,125.28L420.57,118.07L423.91,113.75L433.92,100.66L437.26,97.14L447.27,83.72L450.61,78.85L457.28,70.1L460.62,66.32L473.97,47.15L477.31,42.24L487.32,27.81L490.66,21.38L494,16.3" style="vector-effect: non-scaling-stroke; fill: none; stroke: rgb(255, 7, 58); stroke-opacity: 1; stroke-width: 2px; opacity: 1;"/></g><g class="points"/><g class="text"/></g></g></g><g class="overplot"/><path class="xlines-above crisp" style="fill: none;" d="M0,0"/><path class="ylines-above crisp" style="fill: none;" d="M0,0"/><g class="overlines-above"/><g class="xaxislayer-above"><g class="xtick"><text text-anchor="middle" x="0" y="439" transform="translate(113.38,0)" style="font-family: 'Open Sans', verdana, arial, sans-serif; font-size: 12px; fill: rgb(42, 63, 95); fill-opacity: 1; white-space: pre;">Feb 2020</text></g><g class="xtick"><text text-anchor="middle" x="0" y="439" transform="translate(210.18,0)" style="font-family: 'Open Sans', verdana, arial, sans-serif; font-size: 12px; fill: rgb(42, 63, 95); fill-opacity: 1; white-space: pre;">Mar 2020</text></g><g class="xtick"><text text-anchor="middle" x="0" y="439" transform="translate(313.65,0)" style="font-family: 'Open Sans', verdana, arial, sans-serif; font-size: 12px; fill: rgb(42, 63, 95); fill-opacity: 1; white-space: pre;">Apr 2020</text></g><g class="xtick"><text text-anchor="middle" x="0" y="439" transform="translate(413.78,0)" style="font-family: 'Open Sans', verdana, arial, sans-serif; font-size: 12px; fill: rgb(42, 63, 95); fill-opacity: 1; white-space: pre;">May 2020</text></g><g class="xtick"><text text-anchor="middle" x="0" y="439" transform="translate(517.26,0)" style="font-family: 'Open Sans', verdana, arial, sans-serif; font-size: 12px; fill: rgb(42, 63, 95); fill-opacity: 1; white-space: pre;">Jun 2020</text></g></g><g class="yaxislayer-above"><g class="ytick"><text text-anchor="end" x="79" y="4.199999999999999" transform="translate(0,426)" style="font-family: 'Open Sans', verdana, arial, sans-serif; font-size: 12px; fill: rgb(42, 63, 95); fill-opacity: 1; white-space: pre;">0</text></g><g class="ytick"><text text-anchor="end" x="79" y="4.199999999999999" transform="translate(0,389.44)" style="font-family: 'Open Sans', verdana, arial, sans-serif; font-size: 12px; fill: rgb(42, 63, 95); fill-opacity: 1; white-space: pre;">1M</text></g><g class="ytick"><text text-anchor="end" x="79" y="4.199999999999999" transform="translate(0,352.87)" style="font-family: 'Open Sans', verdana, arial, sans-serif; font-size: 12px; fill: rgb(42, 63, 95); fill-opacity: 1; white-space: pre;">2M</text></g><g class="ytick"><text text-anchor="end" x="79" y="4.199999999999999" transform="translate(0,316.31)" style="font-family: 'Open Sans', verdana, arial, sans-serif; font-size: 12px; fill: rgb(42, 63, 95); fill-opacity: 1; white-space: pre;">3M</text></g><g class="ytick"><text text-anchor="end" x="79" y="4.199999999999999" transform="translate(0,279.75)" style="font-family: 'Open Sans', verdana, arial, sans-serif; font-size: 12px; fill: rgb(42, 63, 95); fill-opacity: 1; white-space: pre;">4M</text></g><g class="ytick"><text text-anchor="end" x="79" y="4.199999999999999" transform="translate(0,243.18)" style="font-family: 'Open Sans', verdana, arial, sans-serif; font-size: 12px; fill: rgb(42, 63, 95); fill-opacity: 1; white-space: pre;">5M</text></g><g class="ytick"><text text-anchor="end" x="79" y="4.199999999999999" transform="translate(0,206.62)" style="font-family: 'Open Sans', verdana, arial, sans-serif; font-size: 12px; fill: rgb(42, 63, 95); fill-opacity: 1; white-space: pre;">6M</text></g><g class="ytick"><text text-anchor="end" x="79" y="4.199999999999999" transform="translate(0,170.06)" style="font-family: 'Open Sans', verdana, arial, sans-serif; font-size: 12px; fill: rgb(42, 63, 95); fill-opacity: 1; white-space: pre;">7M</text></g><g class="ytick"><text text-anchor="end" x="79" y="4.199999999999999" transform="translate(0,133.49)" style="font-family: 'Open Sans', verdana, arial, sans-serif; font-size: 12px; fill: rgb(42, 63, 95); fill-opacity: 1; white-space: pre;">8M</text></g></g><g class="overaxes-above"/></g></g><g class="polarlayer"/><g class="ternarylayer"/><g class="geolayer"/><g class="funnelarealayer"/><g class="pielayer"/><g class="treemaplayer"/><g class="sunburstlayer"/><g class="glimages"/><defs id="topdefs-1c9663"><g class="clips"/><clipPath id="legend1c9663"><rect width="104" height="83" x="0" y="0"/></clipPath><clipPath id="rangesliderx-1c9663"><rect x="0" y="0" width="494" height="63"/></clipPath></defs><g class="layer-above"><g class="imagelayer"/><g class="shapelayer"/></g><g class="infolayer"><g class="legend" pointer-events="all" transform="translate(583.88, 100)"><rect class="bg" shape-rendering="crispEdges" style="stroke: rgb(68, 68, 68); stroke-opacity: 1; fill: rgb(255, 255, 255); fill-opacity: 1; stroke-width: 0px;" width="104" height="83" x="0" y="0"/><g class="scrollbox" transform="translate(0, 0)" clip-path="url('#legend1c9663')"><text class="legendtitletext user-select-none" text-anchor="start" x="2" y="15.600000000000001" style="font-family: 'Open Sans', verdana, arial, sans-serif; font-size: 12px; fill: rgb(42, 63, 95); fill-opacity: 1; white-space: pre;">Case</text><g class="groups" transform="translate(0, 0)"><g class="traces" transform="translate(0, 30.1)" style="opacity: 1;"><text class="legendtext user-select-none" text-anchor="start" x="40" y="4.680000000000001" style="font-family: 'Open Sans', verdana, arial, sans-serif; font-size: 12px; fill: rgb(42, 63, 95); fill-opacity: 1; white-space: pre;">Recovered</text><g class="layers"><g class="legendfill"><path class="js-fill" d="M5,-2h30v6h-30z" style="stroke-width: 0; fill: rgb(40, 167, 69); fill-opacity: 0.5;"/></g><g class="legendlines"><path class="js-line" d="M5,-2h30" style="fill: none; stroke: rgb(40, 167, 69); stroke-opacity: 1; stroke-width: 2px;"/></g><g class="legendsymbols"><g class="legendpoints"/></g></g><rect class="legendtoggle" pointer-events="all" x="0" y="-9.5" width="98.03125" height="19" style="cursor: pointer; fill: rgb(0, 0, 0); fill-opacity: 0;"/></g></g><g class="groups" transform="translate(0, 0)"><g class="traces" transform="translate(0, 49.1)" style="opacity: 1;"><text class="legendtext user-select-none" text-anchor="start" x="40" y="4.680000000000001" style="font-family: 'Open Sans', verdana, arial, sans-serif; font-size: 12px; fill: rgb(42, 63, 95); fill-opacity: 1; white-space: pre;">Deaths</text><g class="layers"><g class="legendfill"><path class="js-fill" d="M5,-2h30v6h-30z" style="stroke-width: 0; fill: rgb(108, 117, 125); fill-opacity: 0.5;"/></g><g class="legendlines"><path class="js-line" d="M5,-2h30" style="fill: none; stroke: rgb(108, 117, 125); stroke-opacity: 1; stroke-width: 2px;"/></g><g class="legendsymbols"><g class="legendpoints"/></g></g><rect class="legendtoggle" pointer-events="all" x="0" y="-9.5" width="98.03125" height="19" style="cursor: pointer; fill: rgb(0, 0, 0); fill-opacity: 0;"/></g></g><g class="groups" transform="translate(0, 0)"><g class="traces" transform="translate(0, 68.1)" style="opacity: 1;"><text class="legendtext user-select-none" text-anchor="start" x="40" y="4.680000000000001" style="font-family: 'Open Sans', verdana, arial, sans-serif; font-size: 12px; fill: rgb(42, 63, 95); fill-opacity: 1; white-space: pre;">Active</text><g class="layers"><g class="legendfill"><path class="js-fill" d="M5,-2h30v6h-30z" style="stroke-width: 0; fill: rgb(255, 7, 58); fill-opacity: 0.5;"/></g><g class="legendlines"><path class="js-line" d="M5,-2h30" style="fill: none; stroke: rgb(255, 7, 58); stroke-opacity: 1; stroke-width: 2px;"/></g><g class="legendsymbols"><g class="legendpoints"/></g></g><rect class="legendtoggle" pointer-events="all" x="0" y="-9.5" width="98.03125" height="19" style="cursor: pointer; fill: rgb(0, 0, 0); fill-opacity: 0;"/></g></g></g><rect class="scrollbar" rx="20" ry="3" width="0" height="0" x="0" y="0" style="fill: rgb(128, 139, 164); fill-opacity: 1;"/></g><g class="g-gtitle"><text class="gtitle" x="35" y="50" text-anchor="start" dy="0em" style="font-family: 'Open Sans', verdana, arial, sans-serif; font-size: 17px; fill: rgb(42, 63, 95); opacity: 1; font-weight: normal; white-space: pre;">Cases over time</text></g><g class="rangeslider-container" pointer-events="all" transform="translate(80,457)"><rect class="rangeslider-bg" x="0" y="0" shape-rendering="crispEdges" width="494" height="63" transform="translate(0,0)" fill="#E5ECF6" stroke="#444" stroke-width="0"/><g class="rangeslider-rangeplot xy" clip-path="url('#rangesliderx-1c9663')"><g class="layer-subplot"><g class="shapelayer"/><g class="imagelayer"/></g><g class="gridlayer"><g class="x"/><g class="y"/></g><g class="zerolinelayer"/><path class="xlines-below"/><path class="ylines-below"/><g class="overlines-below"/><g class="xaxislayer-below"/><g class="yaxislayer-below"/><g class="overaxes-below"/><g class="plot"><g class="scatterlayer mlayer rangeplot"><g class="trace scatter trace616fcc" style="stroke-miterlimit: 2;"><g class="fills"><g><path class="js-fill" d="M494,63L0,63L0,63L206.95,62.26L210.28,62.22L253.68,60.93L257.01,60.73L327.11,56.36L330.45,55.9L393.86,50.11L397.2,49.7L423.91,46.03L427.24,45.49L460.62,39.82L463.96,39.24L494,33.75" style="fill: rgb(40, 167, 69); fill-opacity: 0.5; stroke-width: 0;"/></g><g><path class="js-fill" d="M0,63L196.93,62.27L200.27,62.22L230.31,61.47L233.65,61.32L280.38,58.46L283.72,58.19L347.14,52.8L350.47,52.43L400.54,46.98L403.88,46.18L437.26,41.41L440.59,40.65L487.32,32.03L490.66,31.15L494,30.54L494,33.75L463.96,39.24L460.62,39.82L427.24,45.49L423.91,46.03L397.2,49.7L393.86,50.11L330.45,55.9L327.11,56.36L257.01,60.73L253.68,60.93L210.28,62.22L206.95,62.26L0,63Z" style="fill: rgb(108, 117, 125); fill-opacity: 0.5; stroke-width: 0;"/></g></g><g class="errorbars"/><g class="lines"><path class="js-line" d="M0,63L206.95,62.26L210.28,62.22L253.68,60.93L257.01,60.73L327.11,56.36L330.45,55.9L393.86,50.11L397.2,49.7L423.91,46.03L427.24,45.49L460.62,39.82L463.96,39.24L494,33.75" style="vector-effect: non-scaling-stroke; fill: none; stroke: rgb(40, 167, 69); stroke-opacity: 1; stroke-width: 2px; opacity: 1;"/></g><g class="points"/><g class="text"/></g><g class="trace scatter tracec9bb3d" style="stroke-miterlimit: 2;"><g class="fills"><g><path class="js-fill" d="M0,63L156.88,62.25L160.22,62.22L193.59,61.13L196.93,60.91L216.96,58.87L220.3,58.39L240.32,55.32L243.66,54.75L283.72,47.86L287.05,47.23L347.14,37.16L350.47,36.51L423.91,21.98L427.24,21.12L457.28,13.55L460.62,12.82L487.32,5.37L490.66,4.13L494,3.15L494,30.54L490.66,31.15L487.32,32.03L440.59,40.65L437.26,41.41L403.88,46.18L400.54,46.98L350.47,52.43L347.14,52.8L283.72,58.19L280.38,58.46L233.65,61.32L230.31,61.47L200.27,62.22L196.93,62.27L0,63Z" style="fill: rgb(255, 7, 58); fill-opacity: 0.5; stroke-width: 0;"/></g></g><g class="errorbars"/><g class="lines"><path class="js-line" d="M0,63L196.93,62.27L200.27,62.22L230.31,61.47L233.65,61.32L280.38,58.46L283.72,58.19L347.14,52.8L350.47,52.43L400.54,46.98L403.88,46.18L437.26,41.41L440.59,40.65L487.32,32.03L490.66,31.15L494,30.54" style="vector-effect: non-scaling-stroke; fill: none; stroke: rgb(108, 117, 125); stroke-opacity: 1; stroke-width: 2px; opacity: 1;"/></g><g class="points"/><g class="text"/></g><g class="trace scatter trace5f7ffe" style="stroke-miterlimit: 2;"><g class="fills"/><g class="errorbars"/><g class="lines"><path class="js-line" d="M0,63L156.88,62.25L160.22,62.22L193.59,61.13L196.93,60.91L216.96,58.87L220.3,58.39L240.32,55.32L243.66,54.75L283.72,47.86L287.05,47.23L347.14,37.16L350.47,36.51L423.91,21.98L427.24,21.12L457.28,13.55L460.62,12.82L487.32,5.37L490.66,4.13L494,3.15" style="vector-effect: non-scaling-stroke; fill: none; stroke: rgb(255, 7, 58); stroke-opacity: 1; stroke-width: 2px; opacity: 1;"/></g><g class="points"/><g class="text"/></g></g></g><g class="overplot"/><path class="xlines-above crisp" style="fill: none;"/><path class="ylines-above crisp" style="fill: none;"/><g class="overlines-above"/><g class="xaxislayer-above"/><g class="yaxislayer-above"/><g class="overaxes-above"/></g><rect class="rangeslider-mask-min" x="0" y="0" shape-rendering="crispEdges" height="63" width="0" style="fill: rgb(0, 0, 0); fill-opacity: 0.4;"/><rect class="rangeslider-mask-max" y="0" shape-rendering="crispEdges" height="63" x="494" width="0" style="fill: rgb(0, 0, 0); fill-opacity: 0.4;"/><g class="rangeslider-grabber-min" transform="translate(-2.5,0.5)"><rect class="rangeslider-handle-min" x="0" width="4" rx="1" fill="#fff" stroke="#444" stroke-width="1" shape-rendering="crispEdges" y="16" height="32"/></g><g class="rangeslider-grabber-max" transform="translate(492.5,0.5)"><rect class="rangeslider-handle-max" x="0" width="4" rx="1" fill="#fff" stroke="#444" stroke-width="1" shape-rendering="crispEdges" y="16" height="32"/></g></g><g class="g-ytitle"><text class="ytitle" transform="rotate(-90,37.528125,263)" x="37.528125" y="263" text-anchor="middle" style="font-family: 'Open Sans', verdana, arial, sans-serif; font-size: 14px; fill: rgb(42, 63, 95); opacity: 1; font-weight: normal; white-space: pre;">Count</text></g><g class="g-xtitle"><text class="xtitle" x="327" y="551" text-anchor="middle" style="font-family: 'Open Sans', verdana, arial, sans-serif; font-size: 14px; fill: rgb(42, 63, 95); opacity: 1; font-weight: normal; white-space: pre;">Date</text></g></g></svg>