<svg class="main-svg" xmlns="http://www.w3.org/2000/svg" xmlns:xlink="http://www.w3.org/1999/xlink" width="700" height="1200" style="" viewBox="0 0 700 1200"><rect x="0" y="0" width="700" height="1200" style="fill: rgb(255, 255, 255); fill-opacity: 1;"/><defs id="defs-17e089"><g class="clips"><clipPath id="clip17e089xyplot" class="plotclip"><rect width="243" height="226.66666666666666"/></clipPath><clipPath id="clip17e089x2y2plot" class="plotclip"><rect width="242.99999999999997" height="226.66666666666666"/></clipPath><clipPath id="clip17e089x3y3plot" class="plotclip"><rect width="243" height="226.6666666666667"/></clipPath><clipPath id="clip17e089x4y4plot" class="plotclip"><rect width="242.99999999999997" height="226.6666666666667"/></clipPath><clipPath id="clip17e089x5y5plot" class="plotclip"><rect width="243" height="226.66666666666669"/></clipPath><clipPath id="clip17e089x6y6plot" class="plotclip"><rect width="242.99999999999997" height="226.66666666666669"/></clipPath><clipPath class="axesclip" id="clip17e089x"><rect x="80" y="0" width="243" height="1200"/></clipPath><clipPath class="axesclip" id="clip17e089y"><rect x="0" y="100" width="700" height="226.66666666666666"/></clipPath><clipPath class="axesclip" id="clip17e089xy"><rect x="80" y="100" width="243" height="226.66666666666666"/></clipPath><clipPath class="axesclip" id="clip17e089y2"><rect x="0" y="100" width="700" height="226.66666666666666"/></clipPath><clipPath class="axesclip" id="clip17e089xy2"><rect x="80" y="100" width="243" height="226.66666666666666"/></clipPath><clipPath class="axesclip" id="clip17e089y3"><rect x="0" y="496.66666666666663" width="700" height="226.6666666666667"/></clipPath><clipPath class="axesclip" id="clip17e089xy3"><rect x="80" y="496.66666666666663" width="243" height="226.6666666666667"/></clipPath><clipPath class="axesclip" id="clip17e089y4"><rect x="0" y="496.66666666666663" width="700" height="226.6666666666667"/></clipPath><clipPath class="axesclip" id="clip17e089xy4"><rect x="80" y="496.66666666666663" width="243" height="226.6666666666667"/></clipPath><clipPath class="axesclip" id="clip17e089y5"><rect x="0" y="893.3333333333334" width="700" height="226.66666666666669"/></clipPath><clipPath class="axesclip" id="clip17e089xy5"><rect x="80" y="893.3333333333334" width="243" height="226.66666666666669"/></clipPath><clipPath class="axesclip" id="clip17e089y6"><rect x="0" y="893.3333333333334" width="700" height="226.66666666666669"/></clipPath><clipPath class="axesclip" id="clip17e089xy6"><rect x="80" y="893.3333333333334" width="243" height="226.66666666666669"/></clipPath><clipPath class="axesclip" id="clip17e089x2"><rect x="377" y="0" width="242.99999999999997" height="1200"/></clipPath><clipPath class="axesclip" id="clip17e089x2y"><rect x="377" y="100" width="242.99999999999997" height="226.66666666666666"/></clipPath><clipPath class="axesclip" id="clip17e089x2y2"><rect x="377" y="100" width="242.99999999999997" height="226.66666666666666"/></clipPath><clipPath class="axesclip" id="clip17e089x2y3"><rect x="377" y="496.66666666666663" width="242.99999999999997" height="226.6666666666667"/></clipPath><clipPath class="axesclip" id="clip17e089x2y4"><rect x="377" y="496.66666666666663" width="242.99999999999997" height="226.6666666666667"/></clipPath><clipPath class="axesclip" id="clip17e089x2y5"><rect x="377" y="893.3333333333334" width="242.99999999999997" height="226.66666666666669"/></clipPath><clipPath class="axesclip" id="clip17e089x2y6"><rect x="377" y="893.3333333333334" width="242.99999999999997" height="226.66666666666669"/></clipPath><clipPath class="axesclip" id="clip17e089x3"><rect x="80" y="0" width="243" height="1200"/></clipPath><clipPath class="axesclip" id="clip17e089x3y"><rect x="80" y="100" width="243" height="226.66666666666666"/></clipPath><clipPath class="axesclip" id="clip17e089x3y2"><rect x="80" y="100" width="243" height="226.66666666666666"/></clipPath><clipPath class="axesclip" id="clip17e089x3y3"><rect x="80" y="496.66666666666663" width="243" height="226.6666666666667"/></clipPath><clipPath class="axesclip" id="clip17e089x3y4"><rect x="80" y="496.66666666666663" width="243" height="226.6666666666667"/></clipPath><clipPath class="axesclip" id="clip17e089x3y5"><rect x="80" y="893.3333333333334" width="243" height="226.66666666666669"/></clipPath><clipPath class="axesclip" id="clip17e089x3y6"><rect x="80" y="893.3333333333334" width="243" height="226.66666666666669"/></clipPath><clipPath class="axesclip" id="clip17e089x4"><rect x="377" y="0" width="242.99999999999997" height="1200"/></clipPath><clipPath class="axesclip" id="clip17e089x4y"><rect x="377" y="100" width="242.99999999999997" height="226.66666666666666"/></clipPath><clipPath class="axesclip" id="clip17e089x4y2"><rect x="377" y="100" width="242.99999999999997" height="226.66666666666666"/></clipPath><clipPath class="axesclip" id="clip17e089x4y3"><rect x="377" y="496.66666666666663" width="242.99999999999997" height="226.6666666666667"/></clipPath><clipPath class="axesclip" id="clip17e089x4y4"><rect x="377" y="496.66666666666663" width="242.99999999999997" height="226.6666666666667"/></clipPath><clipPath class="axesclip" id="clip17e089x4y5"><rect x="377" y="893.3333333333334" width="242.99999999999997" height="226.66666666666669"/></clipPath><clipPath class="axesclip" id="clip17e089x4y6"><rect x="377" y="893.3333333333334" width="242.99999999999997" height="226.66666666666669"/></clipPath><clipPath class="axesclip" id="clip17e089x5"><rect x="80" y="0" width="243" height="1200"/></clipPath><clipPath class="axesclip" id="clip17e089x5y"><rect x="80" y="100" width="243" height="226.66666666666666"/></clipPath><clipPath class="axesclip" id="clip17e089x5y2"><rect x="80" y="100" width="243" height="226.66666666666666"/></clipPath><clipPath class="axesclip" id="clip17e089x5y3"><rect x="80" y="496.66666666666663" width="243" height="226.6666666666667"/></clipPath><clipPath class="axesclip" id="clip17e089x5y4"><rect x="80" y="496.66666666666663" width="243" height="226.6666666666667"/></clipPath><clipPath class="axesclip" id="clip17e089x5y5"><rect x="80" y="893.3333333333334" width="243" height="226.66666666666669"/></clipPath><clipPath class="axesclip" id="clip17e089x5y6"><rect x="80" y="893.3333333333334" width="243" height="226.66666666666669"/></clipPath><clipPath class="axesclip" id="clip17e089x6"><rect x="377" y="0" width="242.99999999999997" height="1200"/></clipPath><clipPath class="axesclip" id="clip17e089x6y"><rect x="377" y="100" width="242.99999999999997" height="226.66666666666666"/></clipPath><clipPath class="axesclip" id="clip17e089x6y2"><rect x="377" y="100" width="242.99999999999997" height="226.66666666666666"/></clipPath><clipPath class="axesclip" id="clip17e089x6y3"><rect x="377" y="496.66666666666663" width="242.99999999999997" height="226.6666666666667"/></clipPath><clipPath class="axesclip" id="clip17e089x6y4"><rect x="377" y="496.66666666666663" width="242.99999999999997" height="226.6666666666667"/></clipPath><clipPath class="axesclip" id="clip17e089x6y5"><rect x="377" y="893.3333333333334" width="242.99999999999997" height="226.66666666666669"/></clipPath><clipPath class="axesclip" id="clip17e089x6y6"><rect x="377" y="893.3333333333334" width="242.99999999999997" height="226.66666666666669"/></clipPath></g><g class="gradients"/></defs><g class="bglayer"><rect class="bg" x="80" y="100" width="243" height="226.66666666666666" style="fill: rgb(229, 236, 246); fill-opacity: 1; stroke-width: 0;"/><rect class="bg" x="377" y="100" width="242.99999999999997" height="226.66666666666666" style="fill: rgb(229, 236, 246); fill-opacity: 1; stroke-width: 0;"/><rect class="bg" x="80" y="496.66666666666663" width="243" height="226.6666666666667" style="fill: rgb(229, 236, 246); fill-opacity: 1; stroke-width: 0;"/><rect class="bg" x="377" y="496.66666666666663" width="242.99999999999997" height="226.6666666666667" style="fill: rgb(229, 236, 246); fill-opacity: 1; stroke-width: 0;"/><rect class="bg" x="80" y="893.3333333333334" width="243" height="226.66666666666669" style="fill: rgb(229, 236, 246); fill-opacity: 1; stroke-width: 0;"/><rect class="bg" x="377" y="893.3333333333334" width="242.99999999999997" height="226.66666666666669" style="fill: rgb(229, 236, 246); fill-opacity: 1; stroke-width: 0;"/></g><g class="layer-below"><g class="imagelayer"/><g class="shapelayer"/></g><g class="cartesianlayer"><g class="subplot xy"><g class="layer-subplot"><g class="shapelayer"/><g class="imagelayer"/></g><g class="gridlayer"><g class="x"><path class="xgrid crisp" transform="translate(125.56,0)" d="M0,100v226.66666666666666" style="stroke: rgb(255, 255, 255); stroke-opacity: 1; stroke-width: 1px;"/><path class="xgrid crisp" transform="translate(196.82999999999998,0)" d="M0,100v226.66666666666666" style="stroke: rgb(255, 255, 255); stroke-opacity: 1; stroke-width: 1px;"/><path class="xgrid crisp" transform="translate(268.09000000000003,0)" d="M0,100v226.66666666666666" style="stroke: rgb(255, 255, 255); stroke-opacity: 1; stroke-width: 1px;"/></g><g class="y"><path class="ygrid crisp" transform="translate(0,268.66999999999996)" d="M80,0h243" style="stroke: rgb(255, 255, 255); stroke-opacity: 1; stroke-width: 1px;"/><path class="ygrid crisp" transform="translate(0,221.99)" d="M80,0h243" style="stroke: rgb(255, 255, 255); stroke-opacity: 1; stroke-width: 1px;"/><path class="ygrid crisp" transform="translate(0,175.32)" d="M80,0h243" style="stroke: rgb(255, 255, 255); stroke-opacity: 1; stroke-width: 1px;"/><path class="ygrid crisp" transform="translate(0,128.65)" d="M80,0h243" style="stroke: rgb(255, 255, 255); stroke-opacity: 1; stroke-width: 1px;"/></g></g><g class="zerolinelayer"><path class="yzl zl crisp" transform="translate(0,315.34000000000003)" d="M80,0h243" style="stroke: rgb(255, 255, 255); stroke-opacity: 1; stroke-width: 2px;"/></g><path class="xlines-below"/><path class="ylines-below"/><g class="overlines-below"/><g class="xaxislayer-below"/><g class="yaxislayer-below"/><g class="overaxes-below"/><g class="plot" transform="translate(80, 100)" clip-path="url('#clip17e089xyplot')"><g class="scatterlayer mlayer"><g class="trace scatter tracebb4c6f" style="stroke-miterlimit: 2; opacity: 1;"><g class="fills"/><g class="errorbars"/><g class="lines"><path class="js-line" d="M0,215.33L43.23,214.58L44.39,214.57L64.25,213.55L65.42,213.37L73.6,210.98L74.77,210.39L86.45,203.63L87.62,202.95L116.83,184.11L118,183.34L132.01,173.95L133.18,173.05L149.54,160.03L150.71,158.74L161.22,148.94L162.39,147.78L177.58,130.83L178.75,129.29L191.6,110.3L192.76,108.6L196.27,103.1L197.44,100.97L214.96,68.14L216.13,65.76L220.8,56.6L221.97,53.99L226.64,44.91L227.81,42.5L241.83,13.29L243,11.33" style="vector-effect: non-scaling-stroke; fill: none; stroke: rgb(0, 123, 255); stroke-opacity: 1; stroke-width: 2px; opacity: 1;"/></g><g class="points"/><g class="text"/></g></g></g><g class="overplot"/><path class="xlines-above crisp" d="M79,327.16666666666663H323" style="fill: none; stroke-width: 1px; stroke: rgb(255, 255, 255); stroke-opacity: 1;"/><path class="ylines-above crisp" d="M79.5,100V326.66666666666663" style="fill: none; stroke-width: 1px; stroke: rgb(255, 255, 255); stroke-opacity: 1;"/><g class="overlines-above"/><g class="xaxislayer-above"><g class="xtick"><text text-anchor="middle" x="0" y="342.0666666666666" transform="translate(125.56,0)" style="font-family: 'Open Sans', verdana, arial, sans-serif; font-size: 12px; fill: rgb(42, 63, 95); fill-opacity: 1; white-space: pre;">Mar 2020</text></g><g class="xtick"><text text-anchor="middle" x="0" y="342.0666666666666" transform="translate(196.82999999999998,0)" style="font-family: 'Open Sans', verdana, arial, sans-serif; font-size: 12px; fill: rgb(42, 63, 95); fill-opacity: 1; white-space: pre;">May 2020</text></g><g class="xtick"><text text-anchor="middle" x="0" y="342.0666666666666" transform="translate(268.09000000000003,0)" style="font-family: 'Open Sans', verdana, arial, sans-serif; font-size: 12px; fill: rgb(42, 63, 95); fill-opacity: 1; white-space: pre;">Jul 2020</text></g></g><g class="yaxislayer-above"><g class="ytick"><text text-anchor="end" x="76.6" y="4.199999999999999" transform="translate(0,315.34000000000003)" style="font-family: 'Open Sans', verdana, arial, sans-serif; font-size: 12px; fill: rgb(42, 63, 95); fill-opacity: 1; white-space: pre;">0</text></g><g class="ytick"><text text-anchor="end" x="76.6" y="4.199999999999999" transform="translate(0,268.66999999999996)" style="font-family: 'Open Sans', verdana, arial, sans-serif; font-size: 12px; fill: rgb(42, 63, 95); fill-opacity: 1; white-space: pre;">5M</text></g><g class="ytick"><text text-anchor="end" x="76.6" y="4.199999999999999" transform="translate(0,221.99)" style="font-family: 'Open Sans', verdana, arial, sans-serif; font-size: 12px; fill: rgb(42, 63, 95); fill-opacity: 1; white-space: pre;">10M</text></g><g class="ytick"><text text-anchor="end" x="76.6" y="4.199999999999999" transform="translate(0,175.32)" style="font-family: 'Open Sans', verdana, arial, sans-serif; font-size: 12px; fill: rgb(42, 63, 95); fill-opacity: 1; white-space: pre;">15M</text></g><g class="ytick"><text text-anchor="end" x="76.6" y="4.199999999999999" transform="translate(0,128.65)" style="font-family: 'Open Sans', verdana, arial, sans-serif; font-size: 12px; fill: rgb(42, 63, 95); fill-opacity: 1; white-space: pre;">20M</text></g></g><g class="overaxes-above"/></g><g class="subplot x2y2"><g class="layer-subplot"><g class="shapelayer"/><g class="imagelayer"/></g><g class="gridlayer"><g class="x2"><path class="x2grid crisp" transform="translate(422.56,0)" d="M0,100v226.66666666666666" style="stroke: rgb(255, 255, 255); stroke-opacity: 1; stroke-width: 1px;"/><path class="x2grid crisp" transform="translate(493.83,0)" d="M0,100v226.66666666666666" style="stroke: rgb(255, 255, 255); stroke-opacity: 1; stroke-width: 1px;"/><path class="x2grid crisp" transform="translate(565.09,0)" d="M0,100v226.66666666666666" style="stroke: rgb(255, 255, 255); stroke-opacity: 1; stroke-width: 1px;"/></g><g class="y2"><path class="y2grid crisp" transform="translate(0,259.03)" d="M377,0h242.99999999999997" style="stroke: rgb(255, 255, 255); stroke-opacity: 1; stroke-width: 1px;"/><path class="y2grid crisp" transform="translate(0,202.70999999999998)" d="M377,0h242.99999999999997" style="stroke: rgb(255, 255, 255); stroke-opacity: 1; stroke-width: 1px;"/><path class="y2grid crisp" transform="translate(0,146.39)" d="M377,0h242.99999999999997" style="stroke: rgb(255, 255, 255); stroke-opacity: 1; stroke-width: 1px;"/></g></g><g class="zerolinelayer"><path class="y2zl zl crisp" transform="translate(0,315.35)" d="M377,0h242.99999999999997" style="stroke: rgb(255, 255, 255); stroke-opacity: 1; stroke-width: 2px;"/></g><path class="xlines-below"/><path class="ylines-below"/><g class="overlines-below"/><g class="xaxislayer-below"/><g class="yaxislayer-below"/><g class="overaxes-below"/><g class="plot" transform="translate(377, 100)" clip-path="url('#clip17e089x2y2plot')"><g class="scatterlayer mlayer"><g class="trace scatter trace62f9f7" style="stroke-miterlimit: 2; opacity: 1;"><g class="fills"/><g class="errorbars"/><g class="lines"><path class="js-line" d="M0,215.33L16.36,214.62L17.52,214.54L35.05,213.78L36.22,213.86L58.41,213.89L59.58,213.56L65.42,211.97L66.59,211.26L72.43,207.09L73.6,205.9L96.97,176.61L98.13,175.6L102.81,169.99L103.98,168.69L108.65,164.28L109.82,162.82L114.49,158.86L115.66,158.5L126.17,148.5L127.34,147.39L130.85,144.85L132.01,143.38L140.19,135.71L141.36,135.89L144.87,132.93L146.03,132.01L149.54,128.6L150.71,126.82L156.55,122.2L157.72,120.6L160.05,117.38L161.22,118.87L165.89,113.82L167.06,112.53L170.57,108.8L171.74,108.29L181.08,95.45L182.25,93.19L188.09,83.47L189.26,85.79L190.43,83.29L191.6,83.47L197.44,75.13L198.61,72.65L203.28,64.63L204.45,62.77L209.12,52.91L210.29,51.68L211.46,50.19L212.63,47.46L214.96,43.28L216.13,42.42L225.48,26.65L226.64,27.33L228.98,25.28L230.15,22.76L232.49,18.96L233.65,17.75L234.82,16.11L235.99,17.71L237.16,16.89L238.33,13.67L239.5,13.4L240.66,11.33L243,12.15" style="vector-effect: non-scaling-stroke; fill: none; stroke: rgb(255, 7, 58); stroke-opacity: 1; stroke-width: 2px; opacity: 1;"/></g><g class="points"/><g class="text"/></g></g></g><g class="overplot"/><path class="xlines-above crisp" d="M376,327.16666666666663H620" style="fill: none; stroke-width: 1px; stroke: rgb(255, 255, 255); stroke-opacity: 1;"/><path class="ylines-above crisp" d="M376.5,100V326.66666666666663" style="fill: none; stroke-width: 1px; stroke: rgb(255, 255, 255); stroke-opacity: 1;"/><g class="overlines-above"/><g class="xaxislayer-above"><g class="x2tick"><text text-anchor="middle" x="0" y="342.0666666666666" transform="translate(422.56,0)" style="font-family: 'Open Sans', verdana, arial, sans-serif; font-size: 12px; fill: rgb(42, 63, 95); fill-opacity: 1; white-space: pre;">Mar 2020</text></g><g class="x2tick"><text text-anchor="middle" x="0" y="342.0666666666666" transform="translate(493.83,0)" style="font-family: 'Open Sans', verdana, arial, sans-serif; font-size: 12px; fill: rgb(42, 63, 95); fill-opacity: 1; white-space: pre;">May 2020</text></g><g class="x2tick"><text text-anchor="middle" x="0" y="342.0666666666666" transform="translate(565.09,0)" style="font-family: 'Open Sans', verdana, arial, sans-serif; font-size: 12px; fill: rgb(42, 63, 95); fill-opacity: 1; white-space: pre;">Jul 2020</text></g></g><g class="yaxislayer-above"><g class="y2tick"><text text-anchor="end" x="373.6" y="4.199999999999999" transform="translate(0,315.35)" style="font-family: 'Open Sans', verdana, arial, sans-serif; font-size: 12px; fill: rgb(42, 63, 95); fill-opacity: 1; white-space: pre;">0</text></g><g class="y2tick"><text text-anchor="end" x="373.6" y="4.199999999999999" transform="translate(0,259.03)" style="font-family: 'Open Sans', verdana, arial, sans-serif; font-size: 12px; fill: rgb(42, 63, 95); fill-opacity: 1; white-space: pre;">2M</text></g><g class="y2tick"><text text-anchor="end" x="373.6" y="4.199999999999999" transform="translate(0,202.70999999999998)" style="font-family: 'Open Sans', verdana, arial, sans-serif; font-size: 12px; fill: rgb(42, 63, 95); fill-opacity: 1; white-space: pre;">4M</text></g><g class="y2tick"><text text-anchor="end" x="373.6" y="4.199999999999999" transform="translate(0,146.39)" style="font-family: 'Open Sans', verdana, arial, sans-serif; font-size: 12px; fill: rgb(42, 63, 95); fill-opacity: 1; white-space: pre;">6M</text></g></g><g class="overaxes-above"/></g><g class="subplot x3y3"><g class="layer-subplot"><g class="shapelayer"/><g class="imagelayer"/></g><g class="gridlayer"><g class="x3"><path class="x3grid crisp" transform="translate(125.56,0)" d="M0,496.66666666666663v226.6666666666667" style="stroke: rgb(255, 255, 255); stroke-opacity: 1; stroke-width: 1px;"/><path class="x3grid crisp" transform="translate(196.82999999999998,0)" d="M0,496.66666666666663v226.6666666666667" style="stroke: rgb(255, 255, 255); stroke-opacity: 1; stroke-width: 1px;"/><path class="x3grid crisp" transform="translate(268.09000000000003,0)" d="M0,496.66666666666663v226.6666666666667" style="stroke: rgb(255, 255, 255); stroke-opacity: 1; stroke-width: 1px;"/></g><g class="y3"><path class="y3grid crisp" transform="translate(0,638.4366666666666)" d="M80,0h243" style="stroke: rgb(255, 255, 255); stroke-opacity: 1; stroke-width: 1px;"/><path class="y3grid crisp" transform="translate(0,564.8766666666667)" d="M80,0h243" style="stroke: rgb(255, 255, 255); stroke-opacity: 1; stroke-width: 1px;"/></g></g><g class="zerolinelayer"><path class="y3zl zl crisp" transform="translate(0,711.9966666666667)" d="M80,0h243" style="stroke: rgb(255, 255, 255); stroke-opacity: 1; stroke-width: 2px;"/></g><path class="xlines-below"/><path class="ylines-below"/><g class="overlines-below"/><g class="xaxislayer-below"/><g class="yaxislayer-below"/><g class="overaxes-below"/><g class="plot" transform="translate(80, 496.66666666666663)" clip-path="url('#clip17e089x3y3plot')"><g class="scatterlayer mlayer"><g class="trace scatter trace67118f" style="stroke-miterlimit: 2; opacity: 1;"><g class="fills"/><g class="errorbars"/><g class="lines"><path class="js-line" d="M0,215.33L49.07,214.58L50.24,214.54L78.27,213.22L79.44,212.99L89.96,210.6L91.13,210.23L103.98,205.97L105.14,205.46L114.49,201.51L115.66,200.56L133.18,191.47L134.35,190.63L140.19,186.88L141.36,185.29L149.54,178.87L150.71,177.84L160.05,169.31L161.22,167.08L174.07,153.03L175.24,151.32L178.75,147.44L179.91,145.74L188.09,135.12L189.26,130.93L191.6,126.44L192.76,124.68L202.11,108.84L203.28,106.75L214.96,82.58L216.13,79.35L219.63,72.24L220.8,69.27L228.98,48.57L230.15,45.79L235.99,30.49L237.16,26.94L238.33,24.51L239.5,20.33L243,11.33" style="vector-effect: non-scaling-stroke; fill: none; stroke: rgb(40, 167, 69); stroke-opacity: 1; stroke-width: 2px; opacity: 1;"/></g><g class="points"/><g class="text"/></g></g></g><g class="overplot"/><path class="xlines-above crisp" d="M79,723.8333333333334H323" style="fill: none; stroke-width: 1px; stroke: rgb(255, 255, 255); stroke-opacity: 1;"/><path class="ylines-above crisp" d="M79.5,496.66666666666663V723.3333333333334" style="fill: none; stroke-width: 1px; stroke: rgb(255, 255, 255); stroke-opacity: 1;"/><g class="overlines-above"/><g class="xaxislayer-above"><g class="x3tick"><text text-anchor="middle" x="0" y="738.7333333333333" transform="translate(125.56,0)" style="font-family: 'Open Sans', verdana, arial, sans-serif; font-size: 12px; fill: rgb(42, 63, 95); fill-opacity: 1; white-space: pre;">Mar 2020</text></g><g class="x3tick"><text text-anchor="middle" x="0" y="738.7333333333333" transform="translate(196.82999999999998,0)" style="font-family: 'Open Sans', verdana, arial, sans-serif; font-size: 12px; fill: rgb(42, 63, 95); fill-opacity: 1; white-space: pre;">May 2020</text></g><g class="x3tick"><text text-anchor="middle" x="0" y="738.7333333333333" transform="translate(268.09000000000003,0)" style="font-family: 'Open Sans', verdana, arial, sans-serif; font-size: 12px; fill: rgb(42, 63, 95); fill-opacity: 1; white-space: pre;">Jul 2020</text></g></g><g class="yaxislayer-above"><g class="y3tick"><text text-anchor="end" x="76.6" y="4.199999999999999" transform="translate(0,711.9966666666667)" style="font-family: 'Open Sans', verdana, arial, sans-serif; font-size: 12px; fill: rgb(42, 63, 95); fill-opacity: 1; white-space: pre;">0</text></g><g class="y3tick"><text text-anchor="end" x="76.6" y="4.199999999999999" transform="translate(0,638.4366666666666)" style="font-family: 'Open Sans', verdana, arial, sans-serif; font-size: 12px; fill: rgb(42, 63, 95); fill-opacity: 1; white-space: pre;">5M</text></g><g class="y3tick"><text text-anchor="end" x="76.6" y="4.199999999999999" transform="translate(0,564.8766666666667)" style="font-family: 'Open Sans', verdana, arial, sans-serif; font-size: 12px; fill: rgb(42, 63, 95); fill-opacity: 1; white-space: pre;">10M</text></g></g><g class="overaxes-above"/></g><g class="subplot x4y4"><g class="layer-subplot"><g class="shapelayer"/><g class="imagelayer"/></g><g class="gridlayer"><g class="x4"><path class="x4grid crisp" transform="translate(422.56,0)" d="M0,496.66666666666663v226.6666666666667" style="stroke: rgb(255, 255, 255); stroke-opacity: 1; stroke-width: 1px;"/><path class="x4grid crisp" transform="translate(493.83,0)" d="M0,496.66666666666663v226.6666666666667" style="stroke: rgb(255, 255, 255); stroke-opacity: 1; stroke-width: 1px;"/><path class="x4grid crisp" transform="translate(565.09,0)" d="M0,496.66666666666663v226.6666666666667" style="stroke: rgb(255, 255, 255); stroke-opacity: 1; stroke-width: 1px;"/></g><g class="y4"><path class="y4grid crisp" transform="translate(0,659.2266666666667)" d="M377,0h242.99999999999997" style="stroke: rgb(255, 255, 255); stroke-opacity: 1; stroke-width: 1px;"/><path class="y4grid crisp" transform="translate(0,606.4566666666666)" d="M377,0h242.99999999999997" style="stroke: rgb(255, 255, 255); stroke-opacity: 1; stroke-width: 1px;"/><path class="y4grid crisp" transform="translate(0,553.6766666666666)" d="M377,0h242.99999999999997" style="stroke: rgb(255, 255, 255); stroke-opacity: 1; stroke-width: 1px;"/><path class="y4grid crisp" transform="translate(0,500.89666666666665)" d="M377,0h242.99999999999997" style="stroke: rgb(255, 255, 255); stroke-opacity: 1; stroke-width: 1px;"/></g></g><g class="zerolinelayer"><path class="y4zl zl crisp" transform="translate(0,712.0066666666667)" d="M377,0h242.99999999999997" style="stroke: rgb(255, 255, 255); stroke-opacity: 1; stroke-width: 2px;"/></g><path class="xlines-below"/><path class="ylines-below"/><g class="overlines-below"/><g class="xaxislayer-below"/><g class="yaxislayer-below"/><g class="overaxes-below"/><g class="plot" transform="translate(377, 496.66666666666663)" clip-path="url('#clip17e089x4y4plot')"><g class="scatterlayer mlayer"><g class="trace scatter traceeef736" style="stroke-miterlimit: 2; opacity: 1;"><g class="fills"/><g class="errorbars"/><g class="lines"><path class="js-line" d="M0,215.33L43.23,214.58L44.39,214.57L61.92,213.65L63.09,213.47L70.1,211.45L71.26,210.94L75.94,207.89L77.11,206.91L80.61,203.6L81.78,202.13L96.97,180.05L98.13,177.83L103.98,169.17L105.14,167.25L110.99,159.39L112.15,158.15L118,150.28L119.16,149.38L121.5,146.73L122.67,145L127.34,140.09L128.51,139.18L134.35,132.53L135.52,131.68L139.02,128.29L140.19,127.04L143.7,123.81L144.87,123.51L170.57,98.35L171.74,96.99L183.42,84.55L184.59,83.73L188.09,80.12L189.26,78.77L205.62,60.86L206.78,59.1L212.63,52L213.79,49.38L224.31,35.92L225.48,34.79L227.81,31.82L228.98,29.99L241.83,12.42L243,11.33" style="vector-effect: non-scaling-stroke; fill: none; stroke: rgb(108, 117, 125); stroke-opacity: 1; stroke-width: 2px; opacity: 1;"/></g><g class="points"/><g class="text"/></g></g></g><g class="overplot"/><path class="xlines-above crisp" d="M376,723.8333333333334H620" style="fill: none; stroke-width: 1px; stroke: rgb(255, 255, 255); stroke-opacity: 1;"/><path class="ylines-above crisp" d="M376.5,496.66666666666663V723.3333333333334" style="fill: none; stroke-width: 1px; stroke: rgb(255, 255, 255); stroke-opacity: 1;"/><g class="overlines-above"/><g class="xaxislayer-above"><g class="x4tick"><text text-anchor="middle" x="0" y="738.7333333333333" transform="translate(422.56,0)" style="font-family: 'Open Sans', verdana, arial, sans-serif; font-size: 12px; fill: rgb(42, 63, 95); fill-opacity: 1; white-space: pre;">Mar 2020</text></g><g class="x4tick"><text text-anchor="middle" x="0" y="738.7333333333333" transform="translate(493.83,0)" style="font-family: 'Open Sans', verdana, arial, sans-serif; font-size: 12px; fill: rgb(42, 63, 95); fill-opacity: 1; white-space: pre;">May 2020</text></g><g class="x4tick"><text text-anchor="middle" x="0" y="738.7333333333333" transform="translate(565.09,0)" style="font-family: 'Open Sans', verdana, arial, sans-serif; font-size: 12px; fill: rgb(42, 63, 95); fill-opacity: 1; white-space: pre;">Jul 2020</text></g></g><g class="yaxislayer-above"><g class="y4tick"><text text-anchor="end" x="373.6" y="4.199999999999999" transform="translate(0,712.0066666666667)" style="font-family: 'Open Sans', verdana, arial, sans-serif; font-size: 12px; fill: rgb(42, 63, 95); fill-opacity: 1; white-space: pre;">0</text></g><g class="y4tick"><text text-anchor="end" x="373.6" y="4.199999999999999" transform="translate(0,659.2266666666667)" style="font-family: 'Open Sans', verdana, arial, sans-serif; font-size: 12px; fill: rgb(42, 63, 95); fill-opacity: 1; white-space: pre;">200k</text></g><g class="y4tick"><text text-anchor="end" x="373.6" y="4.199999999999999" transform="translate(0,606.4566666666666)" style="font-family: 'Open Sans', verdana, arial, sans-serif; font-size: 12px; fill: rgb(42, 63, 95); fill-opacity: 1; white-space: pre;">400k</text></g><g class="y4tick"><text text-anchor="end" x="373.6" y="4.199999999999999" transform="translate(0,553.6766666666666)" style="font-family: 'Open Sans', verdana, arial, sans-serif; font-size: 12px; fill: rgb(42, 63, 95); fill-opacity: 1; white-space: pre;">600k</text></g><g class="y4tick"><text text-anchor="end" x="373.6" y="4.199999999999999" transform="translate(0,500.89666666666665)" style="font-family: 'Open Sans', verdana, arial, sans-serif; font-size: 12px; fill: rgb(42, 63, 95); fill-opacity: 1; white-space: pre;">800k</text></g></g><g class="overaxes-above"/></g><g class="subplot x5y5"><g class="layer-subplot"><g class="shapelayer"/><g class="imagelayer"/></g><g class="gridlayer"><g class="x5"><path class="x5grid crisp" transform="translate(125.56,0)" d="M0,893.3333333333334v226.66666666666669" style="stroke: rgb(255, 255, 255); stroke-opacity: 1; stroke-width: 1px;"/><path class="x5grid crisp" transform="translate(196.82999999999998,0)" d="M0,893.3333333333334v226.66666666666669" style="stroke: rgb(255, 255, 255); stroke-opacity: 1; stroke-width: 1px;"/><path class="x5grid crisp" transform="translate(268.09000000000003,0)" d="M0,893.3333333333334v226.66666666666669" style="stroke: rgb(255, 255, 255); stroke-opacity: 1; stroke-width: 1px;"/></g><g class="y5"><path class="y5grid crisp" transform="translate(0,1041.6133333333335)" d="M80,0h243" style="stroke: rgb(255, 255, 255); stroke-opacity: 1; stroke-width: 1px;"/><path class="y5grid crisp" transform="translate(0,974.5533333333334)" d="M80,0h243" style="stroke: rgb(255, 255, 255); stroke-opacity: 1; stroke-width: 1px;"/><path class="y5grid crisp" transform="translate(0,907.5033333333333)" d="M80,0h243" style="stroke: rgb(255, 255, 255); stroke-opacity: 1; stroke-width: 1px;"/></g></g><g class="zerolinelayer"><path class="y5zl zl crisp" transform="translate(0,1108.6633333333334)" d="M80,0h243" style="stroke: rgb(255, 255, 255); stroke-opacity: 1; stroke-width: 2px;"/></g><path class="xlines-below"/><path class="ylines-below"/><g class="overlines-below"/><g class="xaxislayer-below"/><g class="yaxislayer-below"/><g class="overaxes-below"/><g class="plot" transform="translate(80, 893.3333333333334)" clip-path="url('#clip17e089x5y5plot')"><g class="scatterlayer mlayer"><g class="trace scatter trace67dc1d" style="stroke-miterlimit: 2; opacity: 1;"><g class="fills"/><g class="errorbars"/><g class="lines"><path class="js-line" d="M0,215.33L5.84,214.79L7.01,213.56L8.18,214.94L9.35,213.95L11.68,213.92L12.85,212.15L14.02,213.25L15.19,212.64L23.37,213.96L24.53,215.05L25.7,205.17L26.87,210.96L28.04,213.9L29.21,213.87L31.54,214.07L32.71,215L36.22,214.31L37.38,215.19L50.24,213.77L51.4,213.03L56.08,211.99L57.25,210.36L58.41,211.55L59.58,205.75L60.75,207.96L61.92,207.91L65.42,202.26L66.59,196.71L70.1,193.03L71.26,187.06L72.43,187.77L73.6,181.32L74.77,173.23L75.94,172.21L77.11,170.06L78.27,175.45L79.44,172.04L80.61,164.18L81.78,164.3L82.95,160.8L84.12,159.63L85.28,161.44L86.45,167.3L87.62,166.63L91.13,157.25L92.29,156.62L93.46,163.75L94.63,150.42L95.8,168.63L96.97,168.52L99.3,150.52L100.47,156.53L101.64,165.75L102.81,161.36L103.98,166.16L105.14,164.86L106.31,162.38L107.48,155.66L108.65,150.31L109.82,158.39L112.15,169.26L113.32,164.77L116.83,156.96L118,160.51L120.33,164.38L121.5,161.75L122.67,155.03L123.84,154.6L125,153.03L126.17,157.85L127.34,164.24L128.51,164.23L129.68,159.35L130.85,158.45L132.01,150.33L133.18,150.88L134.35,151.5L135.52,162.83L139.02,146.42L140.19,144.12L141.36,143.84L142.53,144.88L144.87,156.91L146.03,153.29L147.2,146.7L148.37,135.47L149.54,134.19L150.71,123.04L153.04,151.59L154.21,133.93L155.38,135.42L156.55,130.32L158.88,124.28L160.05,140.11L161.22,146.93L162.39,132.04L164.73,122.83L165.89,128.86L167.06,124.29L168.23,125.92L169.4,135.25L170.57,120.54L171.74,120.21L172.9,121.54L174.07,94.03L175.24,109.73L176.41,129.15L177.58,123.38L178.75,104.54L179.91,100.59L181.08,96.1L182.25,87.07L184.59,106.48L185.75,109.36L186.92,98.85L188.09,69.52L192.76,93.01L193.93,103.21L195.1,74.04L196.27,73.39L197.44,62.41L198.61,59.48L200.94,86.31L202.11,86.13L203.28,66.79L204.45,60.44L205.62,46L206.78,53.23L207.95,56.08L209.12,71.47L210.29,76.75L211.46,58.69L212.63,27.34L213.79,25.8L214.96,26.92L216.13,44.09L217.3,72.44L218.47,63.54L220.8,21.56L221.97,27.23L223.14,20.86L224.31,47.34L226.64,79.61L227.81,42.02L230.15,24.16L231.32,27.06L232.49,41.37L233.65,65.06L234.82,62.61L235.99,44.7L238.33,23.71L239.5,11.33L241.83,72.99L243,74.96" style="vector-effect: non-scaling-stroke; fill: none; stroke: rgb(254, 152, 1); stroke-opacity: 1; stroke-width: 2px; opacity: 1;"/></g><g class="points"/><g class="text"/></g></g></g><g class="overplot"/><path class="xlines-above crisp" d="M79,1120.5H323" style="fill: none; stroke-width: 1px; stroke: rgb(255, 255, 255); stroke-opacity: 1;"/><path class="ylines-above crisp" d="M79.5,893.3333333333334V1120" style="fill: none; stroke-width: 1px; stroke: rgb(255, 255, 255); stroke-opacity: 1;"/><g class="overlines-above"/><g class="xaxislayer-above"><g class="x5tick"><text text-anchor="middle" x="0" y="1135.4" transform="translate(125.56,0)" style="font-family: 'Open Sans', verdana, arial, sans-serif; font-size: 12px; fill: rgb(42, 63, 95); fill-opacity: 1; white-space: pre;">Mar 2020</text></g><g class="x5tick"><text text-anchor="middle" x="0" y="1135.4" transform="translate(196.82999999999998,0)" style="font-family: 'Open Sans', verdana, arial, sans-serif; font-size: 12px; fill: rgb(42, 63, 95); fill-opacity: 1; white-space: pre;">May 2020</text></g><g class="x5tick"><text text-anchor="middle" x="0" y="1135.4" transform="translate(268.09000000000003,0)" style="font-family: 'Open Sans', verdana, arial, sans-serif; font-size: 12px; fill: rgb(42, 63, 95); fill-opacity: 1; white-space: pre;">Jul 2020</text></g></g><g class="yaxislayer-above"><g class="y5tick"><text text-anchor="end" x="76.6" y="4.199999999999999" transform="translate(0,1108.6633333333334)" style="font-family: 'Open Sans', verdana, arial, sans-serif; font-size: 12px; fill: rgb(42, 63, 95); fill-opacity: 1; white-space: pre;">0</text></g><g class="y5tick"><text text-anchor="end" x="76.6" y="4.199999999999999" transform="translate(0,1041.6133333333335)" style="font-family: 'Open Sans', verdana, arial, sans-serif; font-size: 12px; fill: rgb(42, 63, 95); fill-opacity: 1; white-space: pre;">100k</text></g><g class="y5tick"><text text-anchor="end" x="76.6" y="4.199999999999999" transform="translate(0,974.5533333333334)" style="font-family: 'Open Sans', verdana, arial, sans-serif; font-size: 12px; fill: rgb(42, 63, 95); fill-opacity: 1; white-space: pre;">200k</text></g><g class="y5tick"><text text-anchor="end" x="76.6" y="4.199999999999999" transform="translate(0,907.5033333333333)" style="font-family: 'Open Sans', verdana, arial, sans-serif; font-size: 12px; fill: rgb(42, 63, 95); fill-opacity: 1; white-space: pre;">300k</text></g></g><g class="overaxes-above"/></g><g class="subplot x6y6"><g class="layer-subplot"><g class="shapelayer"/><g class="imagelayer"/></g><g class="gridlayer"><g class="x6"><path class="x6grid crisp" transform="translate(422.56,0)" d="M0,893.3333333333334v226.66666666666669" style="stroke: rgb(255, 255, 255); stroke-opacity: 1; stroke-width: 1px;"/><path class="x6grid crisp" transform="translate(493.83,0)" d="M0,893.3333333333334v226.66666666666669" style="stroke: rgb(255, 255, 255); stroke-opacity: 1; stroke-width: 1px;"/><path class="x6grid crisp" transform="translate(565.09,0)" d="M0,893.3333333333334v226.66666666666669" style="stroke: rgb(255, 255, 255); stroke-opacity: 1; stroke-width: 1px;"/></g><g class="y6"><path class="y6grid crisp" transform="translate(0,1057.0933333333332)" d="M377,0h242.99999999999997" style="stroke: rgb(255, 255, 255); stroke-opacity: 1; stroke-width: 1px;"/><path class="y6grid crisp" transform="translate(0,999.7933333333334)" d="M377,0h242.99999999999997" style="stroke: rgb(255, 255, 255); stroke-opacity: 1; stroke-width: 1px;"/><path class="y6grid crisp" transform="translate(0,942.4833333333333)" d="M377,0h242.99999999999997" style="stroke: rgb(255, 255, 255); stroke-opacity: 1; stroke-width: 1px;"/></g></g><g class="zerolinelayer"><path class="y6zl zl crisp" transform="translate(0,1114.3933333333334)" d="M377,0h242.99999999999997" style="stroke: rgb(255, 255, 255); stroke-opacity: 1; stroke-width: 2px;"/></g><path class="xlines-below"/><path class="ylines-below"/><g class="overlines-below"/><g class="xaxislayer-below"/><g class="yaxislayer-below"/><g class="overaxes-below"/><g class="plot" transform="translate(377, 893.3333333333334)" clip-path="url('#clip17e089x6y6plot')"><g class="scatterlayer mlayer"><g class="trace scatter trace62d17a" style="stroke-miterlimit: 2; opacity: 1;"><g class="fills"/><g class="errorbars"/><g class="lines"><path class="js-line" d="M0,215.33L5.84,203.87L7.01,203.87L9.35,199.29L10.51,194.7L11.68,193.56L12.85,193.56L14.02,193.56L15.19,192.41L17.52,192.41L18.69,191.27L25.7,191.27L26.87,190.12L31.54,190.12L32.71,188.97L33.88,188.97L35.05,186.68L36.22,186.68L37.38,185.54L49.07,129.38L50.24,124.79L51.4,114.48L52.57,113.33L54.91,104.16L56.08,100.73L57.25,93.85L58.41,91.56L59.58,83.54L60.75,67.49L66.59,44.57L67.76,36.55L68.93,34.25L70.1,28.52L71.26,27.38L72.43,25.09L73.6,21.65L74.77,21.65L77.11,19.36L78.27,19.36L79.44,18.21L80.61,15.92L81.78,15.92L82.95,14.77L85.28,14.77L86.45,12.48L87.62,11.33L88.79,11.33L243,11.33" style="vector-effect: non-scaling-stroke; fill: none; stroke: rgb(255, 15, 128); stroke-opacity: 1; stroke-width: 2px; opacity: 1;"/></g><g class="points"/><g class="text"/></g></g></g><g class="overplot"/><path class="xlines-above crisp" d="M376,1120.5H620" style="fill: none; stroke-width: 1px; stroke: rgb(255, 255, 255); stroke-opacity: 1;"/><path class="ylines-above crisp" d="M376.5,893.3333333333334V1120" style="fill: none; stroke-width: 1px; stroke: rgb(255, 255, 255); stroke-opacity: 1;"/><g class="overlines-above"/><g class="xaxislayer-above"><g class="x6tick"><text text-anchor="middle" x="0" y="1135.4" transform="translate(422.56,0)" style="font-family: 'Open Sans', verdana, arial, sans-serif; font-size: 12px; fill: rgb(42, 63, 95); fill-opacity: 1; white-space: pre;">Mar 2020</text></g><g class="x6tick"><text text-anchor="middle" x="0" y="1135.4" transform="translate(493.83,0)" style="font-family: 'Open Sans', verdana, arial, sans-serif; font-size: 12px; fill: rgb(42, 63, 95); fill-opacity: 1; white-space: pre;">May 2020</text></g><g class="x6tick"><text text-anchor="middle" x="0" y="1135.4" transform="translate(565.09,0)" style="font-family: 'Open Sans', verdana, arial, sans-serif; font-size: 12px; fill: rgb(42, 63, 95); fill-opacity: 1; white-space: pre;">Jul 2020</text></g></g><g class="yaxislayer-above"><g class="y6tick"><text text-anchor="end" x="373.6" y="4.199999999999999" transform="translate(0,1114.3933333333334)" style="font-family: 'Open Sans', verdana, arial, sans-serif; font-size: 12px; fill: rgb(42, 63, 95); fill-opacity: 1; white-space: pre;">0</text></g><g class="y6tick"><text text-anchor="end" x="373.6" y="4.199999999999999" transform="translate(0,1057.0933333333332)" style="font-family: 'Open Sans', verdana, arial, sans-serif; font-size: 12px; fill: rgb(42, 63, 95); fill-opacity: 1; white-space: pre;">50</text></g><g class="y6tick"><text text-anchor="end" x="373.6" y="4.199999999999999" transform="translate(0,999.7933333333334)" style="font-family: 'Open Sans', verdana, arial, sans-serif; font-size: 12px; fill: rgb(42, 63, 95); fill-opacity: 1; white-space: pre;">100</text></g><g class="y6tick"><text text-anchor="end" x="373.6" y="4.199999999999999" transform="translate(0,942.4833333333333)" style="font-family: 'Open Sans', verdana, arial, sans-serif; font-size: 12px; fill: rgb(42, 63, 95); fill-opacity: 1; white-space: pre;">150</text></g></g><g class="overaxes-above"/></g></g><g class="polarlayer"/><g class="ternarylayer"/><g class="geolayer"/><g class="funnelarealayer"/><g class="pielayer"/><g class="treemaplayer"/><g class="sunburstlayer"/><g class="glimages"/><defs id="topdefs-17e089"><g class="clips"/></defs><g class="layer-above"><g class="imagelayer"/><g class="shapelayer"/></g><g class="infolayer"><g class="g-gtitle"><text class="gtitle" x="35" y="50" text-anchor="start" dy="0em" style="font-family: 'Open Sans', verdana, arial, sans-serif; font-size: 17px; fill: rgb(42, 63, 95); opacity: 1; font-weight: normal; white-space: pre;">Day Wise</text></g><g class="g-xtitle"/><g class="g-x2title"/><g class="g-x3title"/><g class="g-x4title"/><g class="g-x5title"/><g class="g-x6title"/><g class="g-ytitle"/><g class="g-y2title"/><g class="g-y3title"/><g class="g-y4title"/><g class="g-y5title"/><g class="g-y6title"/><g class="annotation" data-index="0" style="opacity: 1;"><g class="annotation-text-g" transform="rotate(0,201.5,88.5)"><g class="cursor-pointer" transform="translate(133, 77)"><rect class="bg" x="0.5" y="0.5" width="136" height="22" style="stroke-width: 1px; stroke: rgb(0, 0, 0); stroke-opacity: 0; fill: rgb(0, 0, 0); fill-opacity: 0;"/><text class="annotation-text" text-anchor="middle" x="68.34375" y="18" style="font-family: 'Open Sans', verdana, arial, sans-serif; font-size: 16px; fill: rgb(42, 63, 95); fill-opacity: 1; white-space: pre;">Confirmed cases</text></g></g></g><g class="annotation" data-index="1" style="opacity: 1;"><g class="annotation-text-g" transform="rotate(0,498.5,88.5)"><g class="cursor-pointer" transform="translate(446, 77)"><rect class="bg" x="0.5" y="0.5" width="105" height="22" style="stroke-width: 1px; stroke: rgb(0, 0, 0); stroke-opacity: 0; fill: rgb(0, 0, 0); fill-opacity: 0;"/><text class="annotation-text" text-anchor="middle" x="53.53125" y="18" style="font-family: 'Open Sans', verdana, arial, sans-serif; font-size: 16px; fill: rgb(42, 63, 95); fill-opacity: 1; white-space: pre;">Active Cases</text></g></g></g><g class="annotation" data-index="2" style="opacity: 1;"><g class="annotation-text-g" transform="rotate(0,201.5,485.16666666666663)"><g class="cursor-pointer" transform="translate(132, 474)"><rect class="bg" x="0.5" y="0.5" width="139" height="22" style="stroke-width: 1px; stroke: rgb(0, 0, 0); stroke-opacity: 0; fill: rgb(0, 0, 0); fill-opacity: 0;"/><text class="annotation-text" text-anchor="middle" x="70" y="18" style="font-family: 'Open Sans', verdana, arial, sans-serif; font-size: 16px; fill: rgb(42, 63, 95); fill-opacity: 1; white-space: pre;">Recovered Cases</text></g></g></g><g class="annotation" data-index="3" style="opacity: 1;"><g class="annotation-text-g" transform="rotate(0,498.5,485.16666666666663)"><g class="cursor-pointer" transform="translate(431, 474)"><rect class="bg" x="0.5" y="0.5" width="134" height="22" style="stroke-width: 1px; stroke: rgb(0, 0, 0); stroke-opacity: 0; fill: rgb(0, 0, 0); fill-opacity: 0;"/><text class="annotation-text" text-anchor="middle" x="67.265625" y="18" style="font-family: 'Open Sans', verdana, arial, sans-serif; font-size: 16px; fill: rgb(42, 63, 95); fill-opacity: 1; white-space: pre;">Deaths reported</text></g></g></g><g class="annotation" data-index="4" style="opacity: 1;"><g class="annotation-text-g" transform="rotate(0,201.5,881.8333333333334)"><g class="cursor-pointer" transform="translate(156, 870)"><rect class="bg" x="0.5" y="0.5" width="90" height="22" style="stroke-width: 1px; stroke: rgb(0, 0, 0); stroke-opacity: 0; fill: rgb(0, 0, 0); fill-opacity: 0;"/><text class="annotation-text" text-anchor="middle" x="45.609375" y="18" style="font-family: 'Open Sans', verdana, arial, sans-serif; font-size: 16px; fill: rgb(42, 63, 95); fill-opacity: 1; white-space: pre;">New Cases</text></g></g></g><g class="annotation" data-index="5" style="opacity: 1;"><g class="annotation-text-g" transform="rotate(0,498.5,881.8333333333334)"><g class="cursor-pointer" transform="translate(423, 870)"><rect class="bg" x="0.5" y="0.5" width="151" height="22" style="stroke-width: 1px; stroke: rgb(0, 0, 0); stroke-opacity: 0; fill: rgb(0, 0, 0); fill-opacity: 0;"/><text class="annotation-text" text-anchor="middle" x="76.015625" y="18" style="font-family: 'Open Sans', verdana, arial, sans-serif; font-size: 16px; fill: rgb(42, 63, 95); fill-opacity: 1; white-space: pre;">Countries Affected</text></g></g></g></g></svg>