<svg class="main-svg" xmlns="http://www.w3.org/2000/svg" xmlns:xlink="http://www.w3.org/1999/xlink" width="700" height="1200" style="" viewBox="0 0 700 1200"><rect x="0" y="0" width="700" height="1200" style="fill: rgb(255, 255, 255); fill-opacity: 1;"/><defs id="defs-a4f2bc"><g class="clips"><clipPath id="clipa4f2bcxyplot" class="plotclip"><rect width="243" height="226.66666666666666"/></clipPath><clipPath id="clipa4f2bcx2y2plot" class="plotclip"><rect width="242.99999999999997" height="226.66666666666666"/></clipPath><clipPath id="clipa4f2bcx3y3plot" class="plotclip"><rect width="243" height="226.6666666666667"/></clipPath><clipPath id="clipa4f2bcx4y4plot" class="plotclip"><rect width="242.99999999999997" height="226.6666666666667"/></clipPath><clipPath id="clipa4f2bcx5y5plot" class="plotclip"><rect width="243" height="226.66666666666669"/></clipPath><clipPath id="clipa4f2bcx6y6plot" class="plotclip"><rect width="242.99999999999997" height="226.66666666666669"/></clipPath><clipPath class="axesclip" id="clipa4f2bcx"><rect x="80" y="0" width="243" height="1200"/></clipPath><clipPath class="axesclip" id="clipa4f2bcy"><rect x="0" y="100" width="700" height="226.66666666666666"/></clipPath><clipPath class="axesclip" id="clipa4f2bcxy"><rect x="80" y="100" width="243" height="226.66666666666666"/></clipPath><clipPath class="axesclip" id="clipa4f2bcy2"><rect x="0" y="100" width="700" height="226.66666666666666"/></clipPath><clipPath class="axesclip" id="clipa4f2bcxy2"><rect x="80" y="100" width="243" height="226.66666666666666"/></clipPath><clipPath class="axesclip" id="clipa4f2bcy3"><rect x="0" y="496.66666666666663" width="700" height="226.6666666666667"/></clipPath><clipPath class="axesclip" id="clipa4f2bcxy3"><rect x="80" y="496.66666666666663" width="243" height="226.6666666666667"/></clipPath><clipPath class="axesclip" id="clipa4f2bcy4"><rect x="0" y="496.66666666666663" width="700" height="226.6666666666667"/></clipPath><clipPath class="axesclip" id="clipa4f2bcxy4"><rect x="80" y="496.66666666666663" width="243" height="226.6666666666667"/></clipPath><clipPath class="axesclip" id="clipa4f2bcy5"><rect x="0" y="893.3333333333334" width="700" height="226.66666666666669"/></clipPath><clipPath class="axesclip" id="clipa4f2bcxy5"><rect x="80" y="893.3333333333334" width="243" height="226.66666666666669"/></clipPath><clipPath class="axesclip" id="clipa4f2bcy6"><rect x="0" y="893.3333333333334" width="700" height="226.66666666666669"/></clipPath><clipPath class="axesclip" id="clipa4f2bcxy6"><rect x="80" y="893.3333333333334" width="243" height="226.66666666666669"/></clipPath><clipPath class="axesclip" id="clipa4f2bcx2"><rect x="377" y="0" width="242.99999999999997" height="1200"/></clipPath><clipPath class="axesclip" id="clipa4f2bcx2y"><rect x="377" y="100" width="242.99999999999997" height="226.66666666666666"/></clipPath><clipPath class="axesclip" id="clipa4f2bcx2y2"><rect x="377" y="100" width="242.99999999999997" height="226.66666666666666"/></clipPath><clipPath class="axesclip" id="clipa4f2bcx2y3"><rect x="377" y="496.66666666666663" width="242.99999999999997" height="226.6666666666667"/></clipPath><clipPath class="axesclip" id="clipa4f2bcx2y4"><rect x="377" y="496.66666666666663" width="242.99999999999997" height="226.6666666666667"/></clipPath><clipPath class="axesclip" id="clipa4f2bcx2y5"><rect x="377" y="893.3333333333334" width="242.99999999999997" height="226.66666666666669"/></clipPath><clipPath class="axesclip" id="clipa4f2bcx2y6"><rect x="377" y="893.3333333333334" width="242.99999999999997" height="226.66666666666669"/></clipPath><clipPath class="axesclip" id="clipa4f2bcx3"><rect x="80" y="0" width="243" height="1200"/></clipPath><clipPath class="axesclip" id="clipa4f2bcx3y"><rect x="80" y="100" width="243" height="226.66666666666666"/></clipPath><clipPath class="axesclip" id="clipa4f2bcx3y2"><rect x="80" y="100" width="243" height="226.66666666666666"/></clipPath><clipPath class="axesclip" id="clipa4f2bcx3y3"><rect x="80" y="496.66666666666663" width="243" height="226.6666666666667"/></clipPath><clipPath class="axesclip" id="clipa4f2bcx3y4"><rect x="80" y="496.66666666666663" width="243" height="226.6666666666667"/></clipPath><clipPath class="axesclip" id="clipa4f2bcx3y5"><rect x="80" y="893.3333333333334" width="243" height="226.66666666666669"/></clipPath><clipPath class="axesclip" id="clipa4f2bcx3y6"><rect x="80" y="893.3333333333334" width="243" height="226.66666666666669"/></clipPath><clipPath class="axesclip" id="clipa4f2bcx4"><rect x="377" y="0" width="242.99999999999997" height="1200"/></clipPath><clipPath class="axesclip" id="clipa4f2bcx4y"><rect x="377" y="100" width="242.99999999999997" height="226.66666666666666"/></clipPath><clipPath class="axesclip" id="clipa4f2bcx4y2"><rect x="377" y="100" width="242.99999999999997" height="226.66666666666666"/></clipPath><clipPath class="axesclip" id="clipa4f2bcx4y3"><rect x="377" y="496.66666666666663" width="242.99999999999997" height="226.6666666666667"/></clipPath><clipPath class="axesclip" id="clipa4f2bcx4y4"><rect x="377" y="496.66666666666663" width="242.99999999999997" height="226.6666666666667"/></clipPath><clipPath class="axesclip" id="clipa4f2bcx4y5"><rect x="377" y="893.3333333333334" width="242.99999999999997" height="226.66666666666669"/></clipPath><clipPath class="axesclip" id="clipa4f2bcx4y6"><rect x="377" y="893.3333333333334" width="242.99999999999997" height="226.66666666666669"/></clipPath><clipPath class="axesclip" id="clipa4f2bcx5"><rect x="80" y="0" width="243" height="1200"/></clipPath><clipPath class="axesclip" id="clipa4f2bcx5y"><rect x="80" y="100" width="243" height="226.66666666666666"/></clipPath><clipPath class="axesclip" id="clipa4f2bcx5y2"><rect x="80" y="100" width="243" height="226.66666666666666"/></clipPath><clipPath class="axesclip" id="clipa4f2bcx5y3"><rect x="80" y="496.66666666666663" width="243" height="226.6666666666667"/></clipPath><clipPath class="axesclip" id="clipa4f2bcx5y4"><rect x="80" y="496.66666666666663" width="243" height="226.6666666666667"/></clipPath><clipPath class="axesclip" id="clipa4f2bcx5y5"><rect x="80" y="893.3333333333334" width="243" height="226.66666666666669"/></clipPath><clipPath class="axesclip" id="clipa4f2bcx5y6"><rect x="80" y="893.3333333333334" width="243" height="226.66666666666669"/></clipPath><clipPath class="axesclip" id="clipa4f2bcx6"><rect x="377" y="0" width="242.99999999999997" height="1200"/></clipPath><clipPath class="axesclip" id="clipa4f2bcx6y"><rect x="377" y="100" width="242.99999999999997" height="226.66666666666666"/></clipPath><clipPath class="axesclip" id="clipa4f2bcx6y2"><rect x="377" y="100" width="242.99999999999997" height="226.66666666666666"/></clipPath><clipPath class="axesclip" id="clipa4f2bcx6y3"><rect x="377" y="496.66666666666663" width="242.99999999999997" height="226.6666666666667"/></clipPath><clipPath class="axesclip" id="clipa4f2bcx6y4"><rect x="377" y="496.66666666666663" width="242.99999999999997" height="226.6666666666667"/></clipPath><clipPath class="axesclip" id="clipa4f2bcx6y5"><rect x="377" y="893.3333333333334" width="242.99999999999997" height="226.66666666666669"/></clipPath><clipPath class="axesclip" id="clipa4f2bcx6y6"><rect x="377" y="893.3333333333334" width="242.99999999999997" height="226.66666666666669"/></clipPath></g><g class="gradients"/></defs><g class="bglayer"><rect class="bg" x="80" y="100" width="243" height="226.66666666666666" style="fill: rgb(229, 236, 246); fill-opacity: 1; stroke-width: 0;"/><rect class="bg" x="377" y="100" width="242.99999999999997" height="226.66666666666666" style="fill: rgb(229, 236, 246); fill-opacity: 1; stroke-width: 0;"/><rect class="bg" x="80" y="496.66666666666663" width="243" height="226.6666666666667" style="fill: rgb(229, 236, 246); fill-opacity: 1; stroke-width: 0;"/><rect class="bg" x="377" y="496.66666666666663" width="242.99999999999997" height="226.6666666666667" style="fill: rgb(229, 236, 246); fill-opacity: 1; stroke-width: 0;"/><rect class="bg" x="80" y="893.3333333333334" width="243" height="226.66666666666669" style="fill: rgb(229, 236, 246); fill-opacity: 1; stroke-width: 0;"/><rect class="bg" x="377" y="893.3333333333334" width="242.99999999999997" height="226.66666666666669" style="fill: rgb(229, 236, 246); fill-opacity: 1; stroke-width: 0;"/></g><g class="layer-below"><g class="imagelayer"/><g class="shapelayer"/></g><g class="cartesianlayer"><g class="subplot xy"><g class="layer-subplot"><g class="shapelayer"/><g class="imagelayer"/></g><g class="gridlayer"><g class="x"><path class="xgrid crisp" transform="translate(121.57,0)" d="M0,100v226.66666666666666" style="stroke: rgb(255, 255, 255); stroke-opacity: 1; stroke-width: 1px;"/><path class="xgrid crisp" transform="translate(186.57999999999998,0)" d="M0,100v226.66666666666666" style="stroke: rgb(255, 255, 255); stroke-opacity: 1; stroke-width: 1px;"/><path class="xgrid crisp" transform="translate(251.59,0)" d="M0,100v226.66666666666666" style="stroke: rgb(255, 255, 255); stroke-opacity: 1; stroke-width: 1px;"/><path class="xgrid crisp" transform="translate(317.66999999999996,0)" d="M0,100v226.66666666666666" style="stroke: rgb(255, 255, 255); stroke-opacity: 1; stroke-width: 1px;"/></g><g class="y"><path class="ygrid crisp" transform="translate(0,277.65999999999997)" d="M80,0h243" style="stroke: rgb(255, 255, 255); stroke-opacity: 1; stroke-width: 1px;"/><path class="ygrid crisp" transform="translate(0,239.98)" d="M80,0h243" style="stroke: rgb(255, 255, 255); stroke-opacity: 1; stroke-width: 1px;"/><path class="ygrid crisp" transform="translate(0,202.3)" d="M80,0h243" style="stroke: rgb(255, 255, 255); stroke-opacity: 1; stroke-width: 1px;"/><path class="ygrid crisp" transform="translate(0,164.61)" d="M80,0h243" style="stroke: rgb(255, 255, 255); stroke-opacity: 1; stroke-width: 1px;"/><path class="ygrid crisp" transform="translate(0,126.93)" d="M80,0h243" style="stroke: rgb(255, 255, 255); stroke-opacity: 1; stroke-width: 1px;"/></g></g><g class="zerolinelayer"><path class="yzl zl crisp" transform="translate(0,315.34000000000003)" d="M80,0h243" style="stroke: rgb(255, 255, 255); stroke-opacity: 1; stroke-width: 2px;"/></g><path class="xlines-below"/><path class="ylines-below"/><g class="overlines-below"/><g class="xaxislayer-below"/><g class="yaxislayer-below"/><g class="overaxes-below"/><g class="plot" transform="translate(80, 100)" clip-path="url('#clipa4f2bcxyplot')"><g class="scatterlayer mlayer"><g class="trace scatter tracec5ede3" style="stroke-miterlimit: 2; opacity: 1;"><g class="fills"/><g class="errorbars"/><g class="lines"><path class="js-line" d="M0,215.33L47.96,214.59L49.03,214.56L59.68,213.75L60.75,213.55L68.21,211.34L69.28,210.86L83.13,203.47L84.2,202.81L117.24,183.91L118.3,183.28L128.96,176.11L130.03,175.32L139.62,168.11L140.68,167.2L154.54,154.85L155.61,153.78L165.2,143.24L166.26,141.79L177.99,126.33L179.05,124.74L196.11,96.53L197.17,94.6L201.43,87.21L202.5,85.1L207.83,75.82L208.89,73.78L219.55,53.84L220.62,52.24L224.88,44.67L225.95,42.63L243,11.33" style="vector-effect: non-scaling-stroke; fill: none; stroke: rgb(0, 123, 255); stroke-opacity: 1; stroke-width: 2px; opacity: 1;"/></g><g class="points"/><g class="text"/></g></g></g><g class="overplot"/><path class="xlines-above crisp" d="M79,327.16666666666663H323" style="fill: none; stroke-width: 1px; stroke: rgb(255, 255, 255); stroke-opacity: 1;"/><path class="ylines-above crisp" d="M79.5,100V326.66666666666663" style="fill: none; stroke-width: 1px; stroke: rgb(255, 255, 255); stroke-opacity: 1;"/><g class="overlines-above"/><g class="xaxislayer-above"><g class="xtick"><text text-anchor="middle" x="0" y="342.0666666666666" transform="translate(121.57,0)" style="font-family: 'Open Sans', verdana, arial, sans-serif; font-size: 12px; fill: rgb(42, 63, 95); fill-opacity: 1; white-space: pre;">Mar 2020</text></g><g class="xtick"><text text-anchor="middle" x="0" y="342.0666666666666" transform="translate(186.57999999999998,0)" style="font-family: 'Open Sans', verdana, arial, sans-serif; font-size: 12px; fill: rgb(42, 63, 95); fill-opacity: 1; white-space: pre;">May 2020</text></g><g class="xtick"><text text-anchor="middle" x="0" y="342.0666666666666" transform="translate(251.59,0)" style="font-family: 'Open Sans', verdana, arial, sans-serif; font-size: 12px; fill: rgb(42, 63, 95); fill-opacity: 1; white-space: pre;">Jul 2020</text></g><g class="xtick"><text text-anchor="middle" x="0" y="342.0666666666666" transform="translate(317.66999999999996,0)" style="font-family: 'Open Sans', verdana, arial, sans-serif; font-size: 12px; fill: rgb(42, 63, 95); fill-opacity: 1; white-space: pre;">Sep 2020</text></g></g><g class="yaxislayer-above"><g class="ytick"><text text-anchor="end" x="76.6" y="4.199999999999999" transform="translate(0,315.34000000000003)" style="font-family: 'Open Sans', verdana, arial, sans-serif; font-size: 12px; fill: rgb(42, 63, 95); fill-opacity: 1; white-space: pre;">0</text></g><g class="ytick"><text text-anchor="end" x="76.6" y="4.199999999999999" transform="translate(0,277.65999999999997)" style="font-family: 'Open Sans', verdana, arial, sans-serif; font-size: 12px; fill: rgb(42, 63, 95); fill-opacity: 1; white-space: pre;">5M</text></g><g class="ytick"><text text-anchor="end" x="76.6" y="4.199999999999999" transform="translate(0,239.98)" style="font-family: 'Open Sans', verdana, arial, sans-serif; font-size: 12px; fill: rgb(42, 63, 95); fill-opacity: 1; white-space: pre;">10M</text></g><g class="ytick"><text text-anchor="end" x="76.6" y="4.199999999999999" transform="translate(0,202.3)" style="font-family: 'Open Sans', verdana, arial, sans-serif; font-size: 12px; fill: rgb(42, 63, 95); fill-opacity: 1; white-space: pre;">15M</text></g><g class="ytick"><text text-anchor="end" x="76.6" y="4.199999999999999" transform="translate(0,164.61)" style="font-family: 'Open Sans', verdana, arial, sans-serif; font-size: 12px; fill: rgb(42, 63, 95); fill-opacity: 1; white-space: pre;">20M</text></g><g class="ytick"><text text-anchor="end" x="76.6" y="4.199999999999999" transform="translate(0,126.93)" style="font-family: 'Open Sans', verdana, arial, sans-serif; font-size: 12px; fill: rgb(42, 63, 95); fill-opacity: 1; white-space: pre;">25M</text></g></g><g class="overaxes-above"/></g><g class="subplot x2y2"><g class="layer-subplot"><g class="shapelayer"/><g class="imagelayer"/></g><g class="gridlayer"><g class="x2"><path class="x2grid crisp" transform="translate(418.57,0)" d="M0,100v226.66666666666666" style="stroke: rgb(255, 255, 255); stroke-opacity: 1; stroke-width: 1px;"/><path class="x2grid crisp" transform="translate(483.58,0)" d="M0,100v226.66666666666666" style="stroke: rgb(255, 255, 255); stroke-opacity: 1; stroke-width: 1px;"/><path class="x2grid crisp" transform="translate(548.59,0)" d="M0,100v226.66666666666666" style="stroke: rgb(255, 255, 255); stroke-opacity: 1; stroke-width: 1px;"/><path class="x2grid crisp" transform="translate(614.67,0)" d="M0,100v226.66666666666666" style="stroke: rgb(255, 255, 255); stroke-opacity: 1; stroke-width: 1px;"/></g><g class="y2"><path class="y2grid crisp" transform="translate(0,264.83000000000004)" d="M377,0h242.99999999999997" style="stroke: rgb(255, 255, 255); stroke-opacity: 1; stroke-width: 1px;"/><path class="y2grid crisp" transform="translate(0,214.31)" d="M377,0h242.99999999999997" style="stroke: rgb(255, 255, 255); stroke-opacity: 1; stroke-width: 1px;"/><path class="y2grid crisp" transform="translate(0,163.79)" d="M377,0h242.99999999999997" style="stroke: rgb(255, 255, 255); stroke-opacity: 1; stroke-width: 1px;"/><path class="y2grid crisp" transform="translate(0,113.27)" d="M377,0h242.99999999999997" style="stroke: rgb(255, 255, 255); stroke-opacity: 1; stroke-width: 1px;"/></g></g><g class="zerolinelayer"><path class="y2zl zl crisp" transform="translate(0,315.35)" d="M377,0h242.99999999999997" style="stroke: rgb(255, 255, 255); stroke-opacity: 1; stroke-width: 2px;"/></g><path class="xlines-below"/><path class="ylines-below"/><g class="overlines-below"/><g class="xaxislayer-below"/><g class="yaxislayer-below"/><g class="overaxes-below"/><g class="plot" transform="translate(377, 100)" clip-path="url('#clipa4f2bcx2y2plot')"><g class="scatterlayer mlayer"><g class="trace scatter trace912735" style="stroke-miterlimit: 2; opacity: 1;"><g class="fills"/><g class="errorbars"/><g class="lines"><path class="js-line" d="M0,215.33L15.99,214.62L17.05,214.55L35.17,214.06L36.24,214.11L52.22,214.14L53.29,214.04L60.75,211.72L61.82,211.05L66.08,207.94L67.14,206.87L85.26,184.3L86.33,182.48L90.59,178.21L91.66,176.86L103.38,165.39L104.45,164.67L106.58,163.25L107.64,162.36L118.3,152.7L119.37,152.1L123.63,147.97L124.7,147.17L127.89,143.9L128.96,144.06L132.16,141.41L133.22,140.57L136.42,137.51L137.49,135.92L142.82,131.8L143.88,130.35L146.01,127.48L147.08,128.81L152.41,123.11L153.47,121.62L157.74,117.94L158.8,115.95L162,112.5L163.07,111.1L165.2,107.8L166.26,105.77L171.59,97.08L172.66,99.17L173.72,96.93L174.79,97.08L180.12,89.63L181.18,87.41L185.45,80.22L186.51,78.56L190.78,69.71L191.84,68.62L193.97,64.83L195.04,62.24L199.3,57.26L200.37,55.43L205.7,46.15L206.76,46.77L208.89,44.93L209.96,42.67L212.09,39.25L213.16,38.17L214.22,36.71L215.29,38.14L216.36,37.4L217.42,34.51L218.49,34.27L219.55,32.41L221.68,33.16L222.75,32.63L224.88,30.04L225.95,27.66L227.01,26.4L228.08,26.75L230.21,26.14L231.28,24.7L234.47,19.86L235.54,19.51L236.61,18.09L237.67,18L241.93,11.51L243,11.33" style="vector-effect: non-scaling-stroke; fill: none; stroke: rgb(255, 7, 58); stroke-opacity: 1; stroke-width: 2px; opacity: 1;"/></g><g class="points"/><g class="text"/></g></g></g><g class="overplot"/><path class="xlines-above crisp" d="M376,327.16666666666663H620" style="fill: none; stroke-width: 1px; stroke: rgb(255, 255, 255); stroke-opacity: 1;"/><path class="ylines-above crisp" d="M376.5,100V326.66666666666663" style="fill: none; stroke-width: 1px; stroke: rgb(255, 255, 255); stroke-opacity: 1;"/><g class="overlines-above"/><g class="xaxislayer-above"><g class="x2tick"><text text-anchor="middle" x="0" y="342.0666666666666" transform="translate(418.57,0)" style="font-family: 'Open Sans', verdana, arial, sans-serif; font-size: 12px; fill: rgb(42, 63, 95); fill-opacity: 1; white-space: pre;">Mar 2020</text></g><g class="x2tick"><text text-anchor="middle" x="0" y="342.0666666666666" transform="translate(483.58,0)" style="font-family: 'Open Sans', verdana, arial, sans-serif; font-size: 12px; fill: rgb(42, 63, 95); fill-opacity: 1; white-space: pre;">May 2020</text></g><g class="x2tick"><text text-anchor="middle" x="0" y="342.0666666666666" transform="translate(548.59,0)" style="font-family: 'Open Sans', verdana, arial, sans-serif; font-size: 12px; fill: rgb(42, 63, 95); fill-opacity: 1; white-space: pre;">Jul 2020</text></g><g class="x2tick"><text text-anchor="middle" x="0" y="342.0666666666666" transform="translate(614.67,0)" style="font-family: 'Open Sans', verdana, arial, sans-serif; font-size: 12px; fill: rgb(42, 63, 95); fill-opacity: 1; white-space: pre;">Sep 2020</text></g></g><g class="yaxislayer-above"><g class="y2tick"><text text-anchor="end" x="373.6" y="4.199999999999999" transform="translate(0,315.35)" style="font-family: 'Open Sans', verdana, arial, sans-serif; font-size: 12px; fill: rgb(42, 63, 95); fill-opacity: 1; white-space: pre;">0</text></g><g class="y2tick"><text text-anchor="end" x="373.6" y="4.199999999999999" transform="translate(0,264.83000000000004)" style="font-family: 'Open Sans', verdana, arial, sans-serif; font-size: 12px; fill: rgb(42, 63, 95); fill-opacity: 1; white-space: pre;">2M</text></g><g class="y2tick"><text text-anchor="end" x="373.6" y="4.199999999999999" transform="translate(0,214.31)" style="font-family: 'Open Sans', verdana, arial, sans-serif; font-size: 12px; fill: rgb(42, 63, 95); fill-opacity: 1; white-space: pre;">4M</text></g><g class="y2tick"><text text-anchor="end" x="373.6" y="4.199999999999999" transform="translate(0,163.79)" style="font-family: 'Open Sans', verdana, arial, sans-serif; font-size: 12px; fill: rgb(42, 63, 95); fill-opacity: 1; white-space: pre;">6M</text></g><g class="y2tick"><text text-anchor="end" x="373.6" y="4.199999999999999" transform="translate(0,113.27)" style="font-family: 'Open Sans', verdana, arial, sans-serif; font-size: 12px; fill: rgb(42, 63, 95); fill-opacity: 1; white-space: pre;">8M</text></g></g><g class="overaxes-above"/></g><g class="subplot x3y3"><g class="layer-subplot"><g class="shapelayer"/><g class="imagelayer"/></g><g class="gridlayer"><g class="x3"><path class="x3grid crisp" transform="translate(121.57,0)" d="M0,496.66666666666663v226.6666666666667" style="stroke: rgb(255, 255, 255); stroke-opacity: 1; stroke-width: 1px;"/><path class="x3grid crisp" transform="translate(186.57999999999998,0)" d="M0,496.66666666666663v226.6666666666667" style="stroke: rgb(255, 255, 255); stroke-opacity: 1; stroke-width: 1px;"/><path class="x3grid crisp" transform="translate(251.59,0)" d="M0,496.66666666666663v226.6666666666667" style="stroke: rgb(255, 255, 255); stroke-opacity: 1; stroke-width: 1px;"/><path class="x3grid crisp" transform="translate(317.66999999999996,0)" d="M0,496.66666666666663v226.6666666666667" style="stroke: rgb(255, 255, 255); stroke-opacity: 1; stroke-width: 1px;"/></g><g class="y3"><path class="y3grid crisp" transform="translate(0,655.6866666666666)" d="M80,0h243" style="stroke: rgb(255, 255, 255); stroke-opacity: 1; stroke-width: 1px;"/><path class="y3grid crisp" transform="translate(0,599.3666666666667)" d="M80,0h243" style="stroke: rgb(255, 255, 255); stroke-opacity: 1; stroke-width: 1px;"/><path class="y3grid crisp" transform="translate(0,543.0466666666666)" d="M80,0h243" style="stroke: rgb(255, 255, 255); stroke-opacity: 1; stroke-width: 1px;"/></g></g><g class="zerolinelayer"><path class="y3zl zl crisp" transform="translate(0,711.9966666666667)" d="M80,0h243" style="stroke: rgb(255, 255, 255); stroke-opacity: 1; stroke-width: 2px;"/></g><path class="xlines-below"/><path class="ylines-below"/><g class="overlines-below"/><g class="xaxislayer-below"/><g class="yaxislayer-below"/><g class="overaxes-below"/><g class="plot" transform="translate(80, 496.66666666666663)" clip-path="url('#clipa4f2bcx3y3plot')"><g class="scatterlayer mlayer"><g class="trace scatter tracee99483" style="stroke-miterlimit: 2; opacity: 1;"><g class="fills"/><g class="errorbars"/><g class="lines"><path class="js-line" d="M0,215.33L52.22,214.58L53.29,214.57L72.47,213.54L73.54,213.39L86.33,210.67L87.39,210.37L99.12,206.55L100.18,206.24L106.58,203.59L107.64,203.13L116.17,199.62L117.24,199.09L123.63,195.96L124.7,195.37L131.09,191.09L132.16,190.37L139.62,185.15L140.68,183.98L151.34,174.71L152.41,173.75L156.67,169.61L157.74,168.7L171.59,153.92L172.66,150.72L175.86,145.93L176.92,144.54L195.04,116.28L196.11,113.7L199.3,107.74L200.37,105.78L217.42,69.24L218.49,66.04L221.68,59.15L222.75,56.59L243,11.33" style="vector-effect: non-scaling-stroke; fill: none; stroke: rgb(40, 167, 69); stroke-opacity: 1; stroke-width: 2px; opacity: 1;"/></g><g class="points"/><g class="text"/></g></g></g><g class="overplot"/><path class="xlines-above crisp" d="M79,723.8333333333334H323" style="fill: none; stroke-width: 1px; stroke: rgb(255, 255, 255); stroke-opacity: 1;"/><path class="ylines-above crisp" d="M79.5,496.66666666666663V723.3333333333334" style="fill: none; stroke-width: 1px; stroke: rgb(255, 255, 255); stroke-opacity: 1;"/><g class="overlines-above"/><g class="xaxislayer-above"><g class="x3tick"><text text-anchor="middle" x="0" y="738.7333333333333" transform="translate(121.57,0)" style="font-family: 'Open Sans', verdana, arial, sans-serif; font-size: 12px; fill: rgb(42, 63, 95); fill-opacity: 1; white-space: pre;">Mar 2020</text></g><g class="x3tick"><text text-anchor="middle" x="0" y="738.7333333333333" transform="translate(186.57999999999998,0)" style="font-family: 'Open Sans', verdana, arial, sans-serif; font-size: 12px; fill: rgb(42, 63, 95); fill-opacity: 1; white-space: pre;">May 2020</text></g><g class="x3tick"><text text-anchor="middle" x="0" y="738.7333333333333" transform="translate(251.59,0)" style="font-family: 'Open Sans', verdana, arial, sans-serif; font-size: 12px; fill: rgb(42, 63, 95); fill-opacity: 1; white-space: pre;">Jul 2020</text></g><g class="x3tick"><text text-anchor="middle" x="0" y="738.7333333333333" transform="translate(317.66999999999996,0)" style="font-family: 'Open Sans', verdana, arial, sans-serif; font-size: 12px; fill: rgb(42, 63, 95); fill-opacity: 1; white-space: pre;">Sep 2020</text></g></g><g class="yaxislayer-above"><g class="y3tick"><text text-anchor="end" x="76.6" y="4.199999999999999" transform="translate(0,711.9966666666667)" style="font-family: 'Open Sans', verdana, arial, sans-serif; font-size: 12px; fill: rgb(42, 63, 95); fill-opacity: 1; white-space: pre;">0</text></g><g class="y3tick"><text text-anchor="end" x="76.6" y="4.199999999999999" transform="translate(0,655.6866666666666)" style="font-family: 'Open Sans', verdana, arial, sans-serif; font-size: 12px; fill: rgb(42, 63, 95); fill-opacity: 1; white-space: pre;">5M</text></g><g class="y3tick"><text text-anchor="end" x="76.6" y="4.199999999999999" transform="translate(0,599.3666666666667)" style="font-family: 'Open Sans', verdana, arial, sans-serif; font-size: 12px; fill: rgb(42, 63, 95); fill-opacity: 1; white-space: pre;">10M</text></g><g class="y3tick"><text text-anchor="end" x="76.6" y="4.199999999999999" transform="translate(0,543.0466666666666)" style="font-family: 'Open Sans', verdana, arial, sans-serif; font-size: 12px; fill: rgb(42, 63, 95); fill-opacity: 1; white-space: pre;">15M</text></g></g><g class="overaxes-above"/></g><g class="subplot x4y4"><g class="layer-subplot"><g class="shapelayer"/><g class="imagelayer"/></g><g class="gridlayer"><g class="x4"><path class="x4grid crisp" transform="translate(418.57,0)" d="M0,496.66666666666663v226.6666666666667" style="stroke: rgb(255, 255, 255); stroke-opacity: 1; stroke-width: 1px;"/><path class="x4grid crisp" transform="translate(483.58,0)" d="M0,496.66666666666663v226.6666666666667" style="stroke: rgb(255, 255, 255); stroke-opacity: 1; stroke-width: 1px;"/><path class="x4grid crisp" transform="translate(548.59,0)" d="M0,496.66666666666663v226.6666666666667" style="stroke: rgb(255, 255, 255); stroke-opacity: 1; stroke-width: 1px;"/><path class="x4grid crisp" transform="translate(614.67,0)" d="M0,496.66666666666663v226.6666666666667" style="stroke: rgb(255, 255, 255); stroke-opacity: 1; stroke-width: 1px;"/></g><g class="y4"><path class="y4grid crisp" transform="translate(0,665.7566666666667)" d="M377,0h242.99999999999997" style="stroke: rgb(255, 255, 255); stroke-opacity: 1; stroke-width: 1px;"/><path class="y4grid crisp" transform="translate(0,619.5166666666667)" d="M377,0h242.99999999999997" style="stroke: rgb(255, 255, 255); stroke-opacity: 1; stroke-width: 1px;"/><path class="y4grid crisp" transform="translate(0,573.2766666666666)" d="M377,0h242.99999999999997" style="stroke: rgb(255, 255, 255); stroke-opacity: 1; stroke-width: 1px;"/><path class="y4grid crisp" transform="translate(0,527.0366666666666)" d="M377,0h242.99999999999997" style="stroke: rgb(255, 255, 255); stroke-opacity: 1; stroke-width: 1px;"/></g></g><g class="zerolinelayer"><path class="y4zl zl crisp" transform="translate(0,712.0066666666667)" d="M377,0h242.99999999999997" style="stroke: rgb(255, 255, 255); stroke-opacity: 1; stroke-width: 2px;"/></g><path class="xlines-below"/><path class="ylines-below"/><g class="overlines-below"/><g class="xaxislayer-below"/><g class="yaxislayer-below"/><g class="overaxes-below"/><g class="plot" transform="translate(377, 496.66666666666663)" clip-path="url('#clipa4f2bcx4y4plot')"><g class="scatterlayer mlayer"><g class="trace scatter tracea3886e" style="stroke-miterlimit: 2; opacity: 1;"><g class="fills"/><g class="errorbars"/><g class="lines"><path class="js-line" d="M0,215.33L44.76,214.59L45.83,214.57L57.55,213.7L58.62,213.51L63.95,211.93L65.01,211.48L69.28,208.81L70.34,207.95L74.61,203.85L75.67,202.41L83.13,191.75L84.2,190.04L90.59,180.66L91.66,178.72L107.64,158.24L108.71,157.43L111.91,153.6L112.97,152.38L116.17,149.31L117.24,148.5L123.63,141.95L124.7,141.1L131.09,134.99L132.16,134.71L154.54,114.29L155.61,112.74L167.33,100.67L168.39,99.95L172.66,95.64L173.72,94.5L180.12,87.95L181.18,86.73L188.64,78.42L189.71,77.12L192.91,73.79L193.97,72.2L196.11,68.51L197.17,67.23L199.3,65.19L200.37,63.74L205.7,57.14L206.76,56.14L213.16,47.68L214.22,46.54L224.88,32.05L225.95,30.77L243,11.33" style="vector-effect: non-scaling-stroke; fill: none; stroke: rgb(108, 117, 125); stroke-opacity: 1; stroke-width: 2px; opacity: 1;"/></g><g class="points"/><g class="text"/></g></g></g><g class="overplot"/><path class="xlines-above crisp" d="M376,723.8333333333334H620" style="fill: none; stroke-width: 1px; stroke: rgb(255, 255, 255); stroke-opacity: 1;"/><path class="ylines-above crisp" d="M376.5,496.66666666666663V723.3333333333334" style="fill: none; stroke-width: 1px; stroke: rgb(255, 255, 255); stroke-opacity: 1;"/><g class="overlines-above"/><g class="xaxislayer-above"><g class="x4tick"><text text-anchor="middle" x="0" y="738.7333333333333" transform="translate(418.57,0)" style="font-family: 'Open Sans', verdana, arial, sans-serif; font-size: 12px; fill: rgb(42, 63, 95); fill-opacity: 1; white-space: pre;">Mar 2020</text></g><g class="x4tick"><text text-anchor="middle" x="0" y="738.7333333333333" transform="translate(483.58,0)" style="font-family: 'Open Sans', verdana, arial, sans-serif; font-size: 12px; fill: rgb(42, 63, 95); fill-opacity: 1; white-space: pre;">May 2020</text></g><g class="x4tick"><text text-anchor="middle" x="0" y="738.7333333333333" transform="translate(548.59,0)" style="font-family: 'Open Sans', verdana, arial, sans-serif; font-size: 12px; fill: rgb(42, 63, 95); fill-opacity: 1; white-space: pre;">Jul 2020</text></g><g class="x4tick"><text text-anchor="middle" x="0" y="738.7333333333333" transform="translate(614.67,0)" style="font-family: 'Open Sans', verdana, arial, sans-serif; font-size: 12px; fill: rgb(42, 63, 95); fill-opacity: 1; white-space: pre;">Sep 2020</text></g></g><g class="yaxislayer-above"><g class="y4tick"><text text-anchor="end" x="373.6" y="4.199999999999999" transform="translate(0,712.0066666666667)" style="font-family: 'Open Sans', verdana, arial, sans-serif; font-size: 12px; fill: rgb(42, 63, 95); fill-opacity: 1; white-space: pre;">0</text></g><g class="y4tick"><text text-anchor="end" x="373.6" y="4.199999999999999" transform="translate(0,665.7566666666667)" style="font-family: 'Open Sans', verdana, arial, sans-serif; font-size: 12px; fill: rgb(42, 63, 95); fill-opacity: 1; white-space: pre;">200k</text></g><g class="y4tick"><text text-anchor="end" x="373.6" y="4.199999999999999" transform="translate(0,619.5166666666667)" style="font-family: 'Open Sans', verdana, arial, sans-serif; font-size: 12px; fill: rgb(42, 63, 95); fill-opacity: 1; white-space: pre;">400k</text></g><g class="y4tick"><text text-anchor="end" x="373.6" y="4.199999999999999" transform="translate(0,573.2766666666666)" style="font-family: 'Open Sans', verdana, arial, sans-serif; font-size: 12px; fill: rgb(42, 63, 95); fill-opacity: 1; white-space: pre;">600k</text></g><g class="y4tick"><text text-anchor="end" x="373.6" y="4.199999999999999" transform="translate(0,527.0366666666666)" style="font-family: 'Open Sans', verdana, arial, sans-serif; font-size: 12px; fill: rgb(42, 63, 95); fill-opacity: 1; white-space: pre;">800k</text></g></g><g class="overaxes-above"/></g><g class="subplot x5y5"><g class="layer-subplot"><g class="shapelayer"/><g class="imagelayer"/></g><g class="gridlayer"><g class="x5"><path class="x5grid crisp" transform="translate(121.57,0)" d="M0,893.3333333333334v226.66666666666669" style="stroke: rgb(255, 255, 255); stroke-opacity: 1; stroke-width: 1px;"/><path class="x5grid crisp" transform="translate(186.57999999999998,0)" d="M0,893.3333333333334v226.66666666666669" style="stroke: rgb(255, 255, 255); stroke-opacity: 1; stroke-width: 1px;"/><path class="x5grid crisp" transform="translate(251.59,0)" d="M0,893.3333333333334v226.66666666666669" style="stroke: rgb(255, 255, 255); stroke-opacity: 1; stroke-width: 1px;"/><path class="x5grid crisp" transform="translate(317.66999999999996,0)" d="M0,893.3333333333334v226.66666666666669" style="stroke: rgb(255, 255, 255); stroke-opacity: 1; stroke-width: 1px;"/></g><g class="y5"><path class="y5grid crisp" transform="translate(0,1041.6433333333334)" d="M80,0h243" style="stroke: rgb(255, 255, 255); stroke-opacity: 1; stroke-width: 1px;"/><path class="y5grid crisp" transform="translate(0,974.6133333333333)" d="M80,0h243" style="stroke: rgb(255, 255, 255); stroke-opacity: 1; stroke-width: 1px;"/><path class="y5grid crisp" transform="translate(0,907.5833333333334)" d="M80,0h243" style="stroke: rgb(255, 255, 255); stroke-opacity: 1; stroke-width: 1px;"/></g></g><g class="zerolinelayer"><path class="y5zl zl crisp" transform="translate(0,1108.6633333333334)" d="M80,0h243" style="stroke: rgb(255, 255, 255); stroke-opacity: 1; stroke-width: 2px;"/></g><path class="xlines-below"/><path class="ylines-below"/><g class="overlines-below"/><g class="xaxislayer-below"/><g class="yaxislayer-below"/><g class="overaxes-below"/><g class="plot" transform="translate(80, 893.3333333333334)" clip-path="url('#clipa4f2bcx5y5plot')"><g class="scatterlayer mlayer"><g class="trace scatter tracecc7489" style="stroke-miterlimit: 2; opacity: 1;"><g class="fills"/><g class="errorbars"/><g class="lines"><path class="js-line" d="M0,215.33L5.33,214.79L6.39,213.56L7.46,214.94L8.53,213.95L10.66,213.92L11.72,212.15L12.79,213.26L13.86,212.65L21.32,213.97L22.38,215.05L23.45,205.18L24.51,210.96L25.58,213.9L26.64,213.87L28.78,214.07L29.84,215L33.04,214.31L34.11,215.19L45.83,213.8L46.89,213L50.09,212.79L51.16,211.99L52.22,210.33L53.29,211.54L54.36,205.8L55.42,208.02L56.49,207.86L57.55,205.57L58.62,204.86L59.68,202.47L61.82,195.06L62.88,194.15L63.95,192.6L65.01,186.62L66.08,187.79L67.14,181.29L68.21,173.59L69.28,171.93L70.34,170.03L71.41,175.45L72.47,172L73.54,164.14L74.61,164.35L75.67,160.87L76.74,159.63L77.8,161.43L78.87,167.35L79.93,166.64L83.13,157.32L84.2,156.7L85.26,163.82L86.33,150.36L87.39,168.67L88.46,168.55L90.59,150.54L91.66,156.55L92.72,165.87L93.79,161.34L94.86,166.1L95.92,164.93L96.99,162.23L98.05,155.82L99.12,150.36L100.18,158.5L102.32,169.1L103.38,164.76L106.58,156.92L107.64,160.71L109.78,164.35L110.84,161.66L111.91,155.03L112.97,154.57L114.04,153.02L115.11,157.98L116.17,164.34L117.24,164.18L118.3,159.27L119.37,158.43L120.43,150.37L121.5,150.87L122.57,151.61L123.63,162.99L126.83,146.39L127.89,144.18L128.96,143.94L130.03,144.89L132.16,156.86L133.22,153.22L135.36,135.42L136.42,134.21L137.49,123.22L138.55,143.47L139.62,151.37L140.68,133.88L141.75,136.24L142.82,130.38L144.95,124.43L146.01,140.4L147.08,146.77L148.14,131.98L150.28,122.99L151.34,128.93L152.41,124.47L153.47,126.13L154.54,135.34L155.61,120.4L156.67,120.11L157.74,121.57L158.8,94.63L159.87,109.65L160.93,129.15L162,122.94L163.07,104.98L164.13,100.5L165.2,96.34L166.26,87.15L169.46,110.61L170.53,98.89L171.59,69.95L172.66,76.36L173.72,79L174.79,85.38L176.92,104.18L177.99,74.1L179.05,73.44L180.12,62.57L181.18,59.68L182.25,70.33L183.32,86.29L184.38,86.69L186.51,60.63L187.58,46.14L189.71,56.01L190.78,71.46L191.84,77.23L192.91,58.68L193.97,27.44L195.04,25.91L196.11,26.98L197.17,44.07L198.24,72.47L199.3,63.82L201.43,21.63L202.5,27.32L203.57,20.98L204.63,47.21L206.76,79.95L207.83,41.98L209.96,24.27L211.03,27.12L213.16,65.07L214.22,62.98L216.36,29.71L217.42,23.82L218.49,11.48L219.55,49.1L220.62,73.01L221.68,75.41L223.82,32.21L224.88,36.58L225.95,34.14L227.01,45.01L228.08,70.15L229.14,63.77L230.21,53.37L231.28,22.71L232.34,28.46L233.41,25.99L235.54,63.88L236.61,39.89L237.67,38.01L238.74,26.63L239.8,32.22L240.87,11.33L243,60.81" style="vector-effect: non-scaling-stroke; fill: none; stroke: rgb(254, 152, 1); stroke-opacity: 1; stroke-width: 2px; opacity: 1;"/></g><g class="points"/><g class="text"/></g></g></g><g class="overplot"/><path class="xlines-above crisp" d="M79,1120.5H323" style="fill: none; stroke-width: 1px; stroke: rgb(255, 255, 255); stroke-opacity: 1;"/><path class="ylines-above crisp" d="M79.5,893.3333333333334V1120" style="fill: none; stroke-width: 1px; stroke: rgb(255, 255, 255); stroke-opacity: 1;"/><g class="overlines-above"/><g class="xaxislayer-above"><g class="x5tick"><text text-anchor="middle" x="0" y="1135.4" transform="translate(121.57,0)" style="font-family: 'Open Sans', verdana, arial, sans-serif; font-size: 12px; fill: rgb(42, 63, 95); fill-opacity: 1; white-space: pre;">Mar 2020</text></g><g class="x5tick"><text text-anchor="middle" x="0" y="1135.4" transform="translate(186.57999999999998,0)" style="font-family: 'Open Sans', verdana, arial, sans-serif; font-size: 12px; fill: rgb(42, 63, 95); fill-opacity: 1; white-space: pre;">May 2020</text></g><g class="x5tick"><text text-anchor="middle" x="0" y="1135.4" transform="translate(251.59,0)" style="font-family: 'Open Sans', verdana, arial, sans-serif; font-size: 12px; fill: rgb(42, 63, 95); fill-opacity: 1; white-space: pre;">Jul 2020</text></g><g class="x5tick"><text text-anchor="middle" x="0" y="1135.4" transform="translate(317.66999999999996,0)" style="font-family: 'Open Sans', verdana, arial, sans-serif; font-size: 12px; fill: rgb(42, 63, 95); fill-opacity: 1; white-space: pre;">Sep 2020</text></g></g><g class="yaxislayer-above"><g class="y5tick"><text text-anchor="end" x="76.6" y="4.199999999999999" transform="translate(0,1108.6633333333334)" style="font-family: 'Open Sans', verdana, arial, sans-serif; font-size: 12px; fill: rgb(42, 63, 95); fill-opacity: 1; white-space: pre;">0</text></g><g class="y5tick"><text text-anchor="end" x="76.6" y="4.199999999999999" transform="translate(0,1041.6433333333334)" style="font-family: 'Open Sans', verdana, arial, sans-serif; font-size: 12px; fill: rgb(42, 63, 95); fill-opacity: 1; white-space: pre;">100k</text></g><g class="y5tick"><text text-anchor="end" x="76.6" y="4.199999999999999" transform="translate(0,974.6133333333333)" style="font-family: 'Open Sans', verdana, arial, sans-serif; font-size: 12px; fill: rgb(42, 63, 95); fill-opacity: 1; white-space: pre;">200k</text></g><g class="y5tick"><text text-anchor="end" x="76.6" y="4.199999999999999" transform="translate(0,907.5833333333334)" style="font-family: 'Open Sans', verdana, arial, sans-serif; font-size: 12px; fill: rgb(42, 63, 95); fill-opacity: 1; white-space: pre;">300k</text></g></g><g class="overaxes-above"/></g><g class="subplot x6y6"><g class="layer-subplot"><g class="shapelayer"/><g class="imagelayer"/></g><g class="gridlayer"><g class="x6"><path class="x6grid crisp" transform="translate(418.57,0)" d="M0,893.3333333333334v226.66666666666669" style="stroke: rgb(255, 255, 255); stroke-opacity: 1; stroke-width: 1px;"/><path class="x6grid crisp" transform="translate(483.58,0)" d="M0,893.3333333333334v226.66666666666669" style="stroke: rgb(255, 255, 255); stroke-opacity: 1; stroke-width: 1px;"/><path class="x6grid crisp" transform="translate(548.59,0)" d="M0,893.3333333333334v226.66666666666669" style="stroke: rgb(255, 255, 255); stroke-opacity: 1; stroke-width: 1px;"/><path class="x6grid crisp" transform="translate(614.67,0)" d="M0,893.3333333333334v226.66666666666669" style="stroke: rgb(255, 255, 255); stroke-opacity: 1; stroke-width: 1px;"/></g><g class="y6"><path class="y6grid crisp" transform="translate(0,1057.0933333333332)" d="M377,0h242.99999999999997" style="stroke: rgb(255, 255, 255); stroke-opacity: 1; stroke-width: 1px;"/><path class="y6grid crisp" transform="translate(0,999.7933333333334)" d="M377,0h242.99999999999997" style="stroke: rgb(255, 255, 255); stroke-opacity: 1; stroke-width: 1px;"/><path class="y6grid crisp" transform="translate(0,942.4833333333333)" d="M377,0h242.99999999999997" style="stroke: rgb(255, 255, 255); stroke-opacity: 1; stroke-width: 1px;"/></g></g><g class="zerolinelayer"><path class="y6zl zl crisp" transform="translate(0,1114.3933333333334)" d="M377,0h242.99999999999997" style="stroke: rgb(255, 255, 255); stroke-opacity: 1; stroke-width: 2px;"/></g><path class="xlines-below"/><path class="ylines-below"/><g class="overlines-below"/><g class="xaxislayer-below"/><g class="yaxislayer-below"/><g class="overaxes-below"/><g class="plot" transform="translate(377, 893.3333333333334)" clip-path="url('#clipa4f2bcx6y6plot')"><g class="scatterlayer mlayer"><g class="trace scatter traced949b4" style="stroke-miterlimit: 2; opacity: 1;"><g class="fills"/><g class="errorbars"/><g class="lines"><path class="js-line" d="M0,215.33L5.33,203.87L6.39,203.87L10.66,193.56L11.72,193.56L12.79,193.56L13.86,192.41L15.99,192.41L17.05,191.27L23.45,191.27L24.51,190.12L28.78,190.12L29.84,188.97L30.91,188.97L31.97,186.68L33.04,186.68L34.11,185.54L44.76,129.38L45.83,124.79L46.89,114.48L47.96,113.33L50.09,104.16L51.16,100.73L54.36,83.54L55.42,67.49L60.75,44.57L61.82,36.55L62.88,34.25L63.95,28.52L65.01,27.38L66.08,25.09L67.14,21.65L68.21,21.65L70.34,19.36L71.41,19.36L72.47,18.21L73.54,15.92L74.61,15.92L75.67,14.77L77.8,14.77L78.87,12.48L79.93,11.33L81,11.33L243,11.33" style="vector-effect: non-scaling-stroke; fill: none; stroke: rgb(255, 15, 128); stroke-opacity: 1; stroke-width: 2px; opacity: 1;"/></g><g class="points"/><g class="text"/></g></g></g><g class="overplot"/><path class="xlines-above crisp" d="M376,1120.5H620" style="fill: none; stroke-width: 1px; stroke: rgb(255, 255, 255); stroke-opacity: 1;"/><path class="ylines-above crisp" d="M376.5,893.3333333333334V1120" style="fill: none; stroke-width: 1px; stroke: rgb(255, 255, 255); stroke-opacity: 1;"/><g class="overlines-above"/><g class="xaxislayer-above"><g class="x6tick"><text text-anchor="middle" x="0" y="1135.4" transform="translate(418.57,0)" style="font-family: 'Open Sans', verdana, arial, sans-serif; font-size: 12px; fill: rgb(42, 63, 95); fill-opacity: 1; white-space: pre;">Mar 2020</text></g><g class="x6tick"><text text-anchor="middle" x="0" y="1135.4" transform="translate(483.58,0)" style="font-family: 'Open Sans', verdana, arial, sans-serif; font-size: 12px; fill: rgb(42, 63, 95); fill-opacity: 1; white-space: pre;">May 2020</text></g><g class="x6tick"><text text-anchor="middle" x="0" y="1135.4" transform="translate(548.59,0)" style="font-family: 'Open Sans', verdana, arial, sans-serif; font-size: 12px; fill: rgb(42, 63, 95); fill-opacity: 1; white-space: pre;">Jul 2020</text></g><g class="x6tick"><text text-anchor="middle" x="0" y="1135.4" transform="translate(614.67,0)" style="font-family: 'Open Sans', verdana, arial, sans-serif; font-size: 12px; fill: rgb(42, 63, 95); fill-opacity: 1; white-space: pre;">Sep 2020</text></g></g><g class="yaxislayer-above"><g class="y6tick"><text text-anchor="end" x="373.6" y="4.199999999999999" transform="translate(0,1114.3933333333334)" style="font-family: 'Open Sans', verdana, arial, sans-serif; font-size: 12px; fill: rgb(42, 63, 95); fill-opacity: 1; white-space: pre;">0</text></g><g class="y6tick"><text text-anchor="end" x="373.6" y="4.199999999999999" transform="translate(0,1057.0933333333332)" style="font-family: 'Open Sans', verdana, arial, sans-serif; font-size: 12px; fill: rgb(42, 63, 95); fill-opacity: 1; white-space: pre;">50</text></g><g class="y6tick"><text text-anchor="end" x="373.6" y="4.199999999999999" transform="translate(0,999.7933333333334)" style="font-family: 'Open Sans', verdana, arial, sans-serif; font-size: 12px; fill: rgb(42, 63, 95); fill-opacity: 1; white-space: pre;">100</text></g><g class="y6tick"><text text-anchor="end" x="373.6" y="4.199999999999999" transform="translate(0,942.4833333333333)" style="font-family: 'Open Sans', verdana, arial, sans-serif; font-size: 12px; fill: rgb(42, 63, 95); fill-opacity: 1; white-space: pre;">150</text></g></g><g class="overaxes-above"/></g></g><g class="polarlayer"/><g class="ternarylayer"/><g class="geolayer"/><g class="funnelarealayer"/><g class="pielayer"/><g class="treemaplayer"/><g class="sunburstlayer"/><g class="glimages"/><defs id="topdefs-a4f2bc"><g class="clips"/></defs><g class="layer-above"><g class="imagelayer"/><g class="shapelayer"/></g><g class="infolayer"><g class="g-gtitle"><text class="gtitle" x="35" y="50" text-anchor="start" dy="0em" style="font-family: 'Open Sans', verdana, arial, sans-serif; font-size: 17px; fill: rgb(42, 63, 95); opacity: 1; font-weight: normal; white-space: pre;">Day Wise</text></g><g class="g-xtitle"/><g class="g-x2title"/><g class="g-x3title"/><g class="g-x4title"/><g class="g-x5title"/><g class="g-x6title"/><g class="g-ytitle"/><g class="g-y2title"/><g class="g-y3title"/><g class="g-y4title"/><g class="g-y5title"/><g class="g-y6title"/><g class="annotation" data-index="0" style="opacity: 1;"><g class="annotation-text-g" transform="rotate(0,201.5,88.5)"><g class="cursor-pointer" transform="translate(133, 77)"><rect class="bg" x="0.5" y="0.5" width="136" height="22" style="stroke-width: 1px; stroke: rgb(0, 0, 0); stroke-opacity: 0; fill: rgb(0, 0, 0); fill-opacity: 0;"/><text class="annotation-text" text-anchor="middle" x="68.34375" y="18" style="font-family: 'Open Sans', verdana, arial, sans-serif; font-size: 16px; fill: rgb(42, 63, 95); fill-opacity: 1; white-space: pre;">Confirmed cases</text></g></g></g><g class="annotation" data-index="1" style="opacity: 1;"><g class="annotation-text-g" transform="rotate(0,498.5,88.5)"><g class="cursor-pointer" transform="translate(446, 77)"><rect class="bg" x="0.5" y="0.5" width="105" height="22" style="stroke-width: 1px; stroke: rgb(0, 0, 0); stroke-opacity: 0; fill: rgb(0, 0, 0); fill-opacity: 0;"/><text class="annotation-text" text-anchor="middle" x="53.53125" y="18" style="font-family: 'Open Sans', verdana, arial, sans-serif; font-size: 16px; fill: rgb(42, 63, 95); fill-opacity: 1; white-space: pre;">Active Cases</text></g></g></g><g class="annotation" data-index="2" style="opacity: 1;"><g class="annotation-text-g" transform="rotate(0,201.5,485.16666666666663)"><g class="cursor-pointer" transform="translate(132, 474)"><rect class="bg" x="0.5" y="0.5" width="139" height="22" style="stroke-width: 1px; stroke: rgb(0, 0, 0); stroke-opacity: 0; fill: rgb(0, 0, 0); fill-opacity: 0;"/><text class="annotation-text" text-anchor="middle" x="70" y="18" style="font-family: 'Open Sans', verdana, arial, sans-serif; font-size: 16px; fill: rgb(42, 63, 95); fill-opacity: 1; white-space: pre;">Recovered Cases</text></g></g></g><g class="annotation" data-index="3" style="opacity: 1;"><g class="annotation-text-g" transform="rotate(0,498.5,485.16666666666663)"><g class="cursor-pointer" transform="translate(431, 474)"><rect class="bg" x="0.5" y="0.5" width="134" height="22" style="stroke-width: 1px; stroke: rgb(0, 0, 0); stroke-opacity: 0; fill: rgb(0, 0, 0); fill-opacity: 0;"/><text class="annotation-text" text-anchor="middle" x="67.265625" y="18" style="font-family: 'Open Sans', verdana, arial, sans-serif; font-size: 16px; fill: rgb(42, 63, 95); fill-opacity: 1; white-space: pre;">Deaths reported</text></g></g></g><g class="annotation" data-index="4" style="opacity: 1;"><g class="annotation-text-g" transform="rotate(0,201.5,881.8333333333334)"><g class="cursor-pointer" transform="translate(156, 870)"><rect class="bg" x="0.5" y="0.5" width="90" height="22" style="stroke-width: 1px; stroke: rgb(0, 0, 0); stroke-opacity: 0; fill: rgb(0, 0, 0); fill-opacity: 0;"/><text class="annotation-text" text-anchor="middle" x="45.609375" y="18" style="font-family: 'Open Sans', verdana, arial, sans-serif; font-size: 16px; fill: rgb(42, 63, 95); fill-opacity: 1; white-space: pre;">New Cases</text></g></g></g><g class="annotation" data-index="5" style="opacity: 1;"><g class="annotation-text-g" transform="rotate(0,498.5,881.8333333333334)"><g class="cursor-pointer" transform="translate(423, 870)"><rect class="bg" x="0.5" y="0.5" width="151" height="22" style="stroke-width: 1px; stroke: rgb(0, 0, 0); stroke-opacity: 0; fill: rgb(0, 0, 0); fill-opacity: 0;"/><text class="annotation-text" text-anchor="middle" x="76.015625" y="18" style="font-family: 'Open Sans', verdana, arial, sans-serif; font-size: 16px; fill: rgb(42, 63, 95); fill-opacity: 1; white-space: pre;">Countries Affected</text></g></g></g></g></svg>