<svg class="main-svg" xmlns="http://www.w3.org/2000/svg" xmlns:xlink="http://www.w3.org/1999/xlink" width="700" height="1200" style="" viewBox="0 0 700 1200"><rect x="0" y="0" width="700" height="1200" style="fill: rgb(255, 255, 255); fill-opacity: 1;"/><defs id="defs-8d188f"><g class="clips"><clipPath id="clip8d188fxyplot" class="plotclip"><rect width="243" height="226.66666666666666"/></clipPath><clipPath id="clip8d188fx2y2plot" class="plotclip"><rect width="242.99999999999997" height="226.66666666666666"/></clipPath><clipPath id="clip8d188fx3y3plot" class="plotclip"><rect width="243" height="226.6666666666667"/></clipPath><clipPath id="clip8d188fx4y4plot" class="plotclip"><rect width="242.99999999999997" height="226.6666666666667"/></clipPath><clipPath id="clip8d188fx5y5plot" class="plotclip"><rect width="243" height="226.66666666666669"/></clipPath><clipPath id="clip8d188fx6y6plot" class="plotclip"><rect width="242.99999999999997" height="226.66666666666669"/></clipPath><clipPath class="axesclip" id="clip8d188fx"><rect x="80" y="0" width="243" height="1200"/></clipPath><clipPath class="axesclip" id="clip8d188fy"><rect x="0" y="100" width="700" height="226.66666666666666"/></clipPath><clipPath class="axesclip" id="clip8d188fxy"><rect x="80" y="100" width="243" height="226.66666666666666"/></clipPath><clipPath class="axesclip" id="clip8d188fy2"><rect x="0" y="100" width="700" height="226.66666666666666"/></clipPath><clipPath class="axesclip" id="clip8d188fxy2"><rect x="80" y="100" width="243" height="226.66666666666666"/></clipPath><clipPath class="axesclip" id="clip8d188fy3"><rect x="0" y="496.66666666666663" width="700" height="226.6666666666667"/></clipPath><clipPath class="axesclip" id="clip8d188fxy3"><rect x="80" y="496.66666666666663" width="243" height="226.6666666666667"/></clipPath><clipPath class="axesclip" id="clip8d188fy4"><rect x="0" y="496.66666666666663" width="700" height="226.6666666666667"/></clipPath><clipPath class="axesclip" id="clip8d188fxy4"><rect x="80" y="496.66666666666663" width="243" height="226.6666666666667"/></clipPath><clipPath class="axesclip" id="clip8d188fy5"><rect x="0" y="893.3333333333334" width="700" height="226.66666666666669"/></clipPath><clipPath class="axesclip" id="clip8d188fxy5"><rect x="80" y="893.3333333333334" width="243" height="226.66666666666669"/></clipPath><clipPath class="axesclip" id="clip8d188fy6"><rect x="0" y="893.3333333333334" width="700" height="226.66666666666669"/></clipPath><clipPath class="axesclip" id="clip8d188fxy6"><rect x="80" y="893.3333333333334" width="243" height="226.66666666666669"/></clipPath><clipPath class="axesclip" id="clip8d188fx2"><rect x="377" y="0" width="242.99999999999997" height="1200"/></clipPath><clipPath class="axesclip" id="clip8d188fx2y"><rect x="377" y="100" width="242.99999999999997" height="226.66666666666666"/></clipPath><clipPath class="axesclip" id="clip8d188fx2y2"><rect x="377" y="100" width="242.99999999999997" height="226.66666666666666"/></clipPath><clipPath class="axesclip" id="clip8d188fx2y3"><rect x="377" y="496.66666666666663" width="242.99999999999997" height="226.6666666666667"/></clipPath><clipPath class="axesclip" id="clip8d188fx2y4"><rect x="377" y="496.66666666666663" width="242.99999999999997" height="226.6666666666667"/></clipPath><clipPath class="axesclip" id="clip8d188fx2y5"><rect x="377" y="893.3333333333334" width="242.99999999999997" height="226.66666666666669"/></clipPath><clipPath class="axesclip" id="clip8d188fx2y6"><rect x="377" y="893.3333333333334" width="242.99999999999997" height="226.66666666666669"/></clipPath><clipPath class="axesclip" id="clip8d188fx3"><rect x="80" y="0" width="243" height="1200"/></clipPath><clipPath class="axesclip" id="clip8d188fx3y"><rect x="80" y="100" width="243" height="226.66666666666666"/></clipPath><clipPath class="axesclip" id="clip8d188fx3y2"><rect x="80" y="100" width="243" height="226.66666666666666"/></clipPath><clipPath class="axesclip" id="clip8d188fx3y3"><rect x="80" y="496.66666666666663" width="243" height="226.6666666666667"/></clipPath><clipPath class="axesclip" id="clip8d188fx3y4"><rect x="80" y="496.66666666666663" width="243" height="226.6666666666667"/></clipPath><clipPath class="axesclip" id="clip8d188fx3y5"><rect x="80" y="893.3333333333334" width="243" height="226.66666666666669"/></clipPath><clipPath class="axesclip" id="clip8d188fx3y6"><rect x="80" y="893.3333333333334" width="243" height="226.66666666666669"/></clipPath><clipPath class="axesclip" id="clip8d188fx4"><rect x="377" y="0" width="242.99999999999997" height="1200"/></clipPath><clipPath class="axesclip" id="clip8d188fx4y"><rect x="377" y="100" width="242.99999999999997" height="226.66666666666666"/></clipPath><clipPath class="axesclip" id="clip8d188fx4y2"><rect x="377" y="100" width="242.99999999999997" height="226.66666666666666"/></clipPath><clipPath class="axesclip" id="clip8d188fx4y3"><rect x="377" y="496.66666666666663" width="242.99999999999997" height="226.6666666666667"/></clipPath><clipPath class="axesclip" id="clip8d188fx4y4"><rect x="377" y="496.66666666666663" width="242.99999999999997" height="226.6666666666667"/></clipPath><clipPath class="axesclip" id="clip8d188fx4y5"><rect x="377" y="893.3333333333334" width="242.99999999999997" height="226.66666666666669"/></clipPath><clipPath class="axesclip" id="clip8d188fx4y6"><rect x="377" y="893.3333333333334" width="242.99999999999997" height="226.66666666666669"/></clipPath><clipPath class="axesclip" id="clip8d188fx5"><rect x="80" y="0" width="243" height="1200"/></clipPath><clipPath class="axesclip" id="clip8d188fx5y"><rect x="80" y="100" width="243" height="226.66666666666666"/></clipPath><clipPath class="axesclip" id="clip8d188fx5y2"><rect x="80" y="100" width="243" height="226.66666666666666"/></clipPath><clipPath class="axesclip" id="clip8d188fx5y3"><rect x="80" y="496.66666666666663" width="243" height="226.6666666666667"/></clipPath><clipPath class="axesclip" id="clip8d188fx5y4"><rect x="80" y="496.66666666666663" width="243" height="226.6666666666667"/></clipPath><clipPath class="axesclip" id="clip8d188fx5y5"><rect x="80" y="893.3333333333334" width="243" height="226.66666666666669"/></clipPath><clipPath class="axesclip" id="clip8d188fx5y6"><rect x="80" y="893.3333333333334" width="243" height="226.66666666666669"/></clipPath><clipPath class="axesclip" id="clip8d188fx6"><rect x="377" y="0" width="242.99999999999997" height="1200"/></clipPath><clipPath class="axesclip" id="clip8d188fx6y"><rect x="377" y="100" width="242.99999999999997" height="226.66666666666666"/></clipPath><clipPath class="axesclip" id="clip8d188fx6y2"><rect x="377" y="100" width="242.99999999999997" height="226.66666666666666"/></clipPath><clipPath class="axesclip" id="clip8d188fx6y3"><rect x="377" y="496.66666666666663" width="242.99999999999997" height="226.6666666666667"/></clipPath><clipPath class="axesclip" id="clip8d188fx6y4"><rect x="377" y="496.66666666666663" width="242.99999999999997" height="226.6666666666667"/></clipPath><clipPath class="axesclip" id="clip8d188fx6y5"><rect x="377" y="893.3333333333334" width="242.99999999999997" height="226.66666666666669"/></clipPath><clipPath class="axesclip" id="clip8d188fx6y6"><rect x="377" y="893.3333333333334" width="242.99999999999997" height="226.66666666666669"/></clipPath></g><g class="gradients"/></defs><g class="bglayer"><rect class="bg" x="80" y="100" width="243" height="226.66666666666666" style="fill: rgb(229, 236, 246); fill-opacity: 1; stroke-width: 0;"/><rect class="bg" x="377" y="100" width="242.99999999999997" height="226.66666666666666" style="fill: rgb(229, 236, 246); fill-opacity: 1; stroke-width: 0;"/><rect class="bg" x="80" y="496.66666666666663" width="243" height="226.6666666666667" style="fill: rgb(229, 236, 246); fill-opacity: 1; stroke-width: 0;"/><rect class="bg" x="377" y="496.66666666666663" width="242.99999999999997" height="226.6666666666667" style="fill: rgb(229, 236, 246); fill-opacity: 1; stroke-width: 0;"/><rect class="bg" x="80" y="893.3333333333334" width="243" height="226.66666666666669" style="fill: rgb(229, 236, 246); fill-opacity: 1; stroke-width: 0;"/><rect class="bg" x="377" y="893.3333333333334" width="242.99999999999997" height="226.66666666666669" style="fill: rgb(229, 236, 246); fill-opacity: 1; stroke-width: 0;"/></g><g class="layer-below"><g class="imagelayer"/><g class="shapelayer"/></g><g class="cartesianlayer"><g class="subplot xy"><g class="layer-subplot"><g class="shapelayer"/><g class="imagelayer"/></g><g class="gridlayer"><g class="x"><path class="xgrid crisp" transform="translate(100.25,0)" d="M0,100v226.66666666666666" style="stroke: rgb(255, 255, 255); stroke-opacity: 1; stroke-width: 1px;"/><path class="xgrid crisp" transform="translate(158.97,0)" d="M0,100v226.66666666666666" style="stroke: rgb(255, 255, 255); stroke-opacity: 1; stroke-width: 1px;"/><path class="xgrid crisp" transform="translate(221.75,0)" d="M0,100v226.66666666666666" style="stroke: rgb(255, 255, 255); stroke-opacity: 1; stroke-width: 1px;"/><path class="xgrid crisp" transform="translate(282.5,0)" d="M0,100v226.66666666666666" style="stroke: rgb(255, 255, 255); stroke-opacity: 1; stroke-width: 1px;"/></g><g class="y"><path class="ygrid crisp" transform="translate(0,275.26)" d="M80,0h243" style="stroke: rgb(255, 255, 255); stroke-opacity: 1; stroke-width: 1px;"/><path class="ygrid crisp" transform="translate(0,235.17)" d="M80,0h243" style="stroke: rgb(255, 255, 255); stroke-opacity: 1; stroke-width: 1px;"/><path class="ygrid crisp" transform="translate(0,195.07999999999998)" d="M80,0h243" style="stroke: rgb(255, 255, 255); stroke-opacity: 1; stroke-width: 1px;"/><path class="ygrid crisp" transform="translate(0,154.98)" d="M80,0h243" style="stroke: rgb(255, 255, 255); stroke-opacity: 1; stroke-width: 1px;"/><path class="ygrid crisp" transform="translate(0,114.89)" d="M80,0h243" style="stroke: rgb(255, 255, 255); stroke-opacity: 1; stroke-width: 1px;"/></g></g><g class="zerolinelayer"><path class="yzl zl crisp" transform="translate(0,315.36)" d="M80,0h243" style="stroke: rgb(255, 255, 255); stroke-opacity: 1; stroke-width: 2px;"/></g><path class="xlines-below"/><path class="ylines-below"/><g class="overlines-below"/><g class="xaxislayer-below"/><g class="yaxislayer-below"/><g class="overaxes-below"/><g class="plot" transform="translate(80, 100)" clip-path="url('#clip8d188fxyplot')"><g class="scatterlayer mlayer"><g class="trace scatter trace44a79c" style="stroke-miterlimit: 2; opacity: 1;"><g class="fills"/><g class="errorbars"/><g class="lines"><path class="js-line" d="M0,215.33L22.27,214.68L24.3,214.56L60.75,212.28L62.77,212.22L91.13,211.39L93.15,211.25L103.27,209.85L105.3,209.42L113.4,207.08L115.42,205.97L123.52,200.55L125.55,198.95L129.6,194.49L131.63,191.92L143.77,175.11L145.8,171.8L162,146.16L164.02,142.2L170.1,133.36L172.13,129.49L180.22,116.67L182.25,113.58L200.47,85.21L202.5,81.65L226.8,41.55L228.82,37.74L236.92,23.35L238.95,19.53L243,11.33" style="vector-effect: non-scaling-stroke; fill: none; stroke: rgb(0, 123, 255); stroke-opacity: 1; stroke-width: 2px; opacity: 1;"/></g><g class="points"/><g class="text"/></g></g></g><g class="overplot"/><path class="xlines-above crisp" d="M0,0" style="fill: none;"/><path class="ylines-above crisp" d="M0,0" style="fill: none;"/><g class="overlines-above"/><g class="xaxislayer-above"><g class="xtick"><text text-anchor="middle" x="0" y="339.66666666666663" transform="translate(100.25,0)" style="font-family: 'Open Sans', verdana, arial, sans-serif; font-size: 12px; fill: rgb(42, 63, 95); fill-opacity: 1; white-space: pre;">Feb 2020</text></g><g class="xtick"><text text-anchor="middle" x="0" y="339.66666666666663" transform="translate(158.97,0)" style="font-family: 'Open Sans', verdana, arial, sans-serif; font-size: 12px; fill: rgb(42, 63, 95); fill-opacity: 1; white-space: pre;">Mar 2020</text></g><g class="xtick"><text text-anchor="middle" x="0" y="339.66666666666663" transform="translate(221.75,0)" style="font-family: 'Open Sans', verdana, arial, sans-serif; font-size: 12px; fill: rgb(42, 63, 95); fill-opacity: 1; white-space: pre;">Apr 2020</text></g><g class="xtick"><text text-anchor="middle" x="0" y="339.66666666666663" transform="translate(282.5,0)" style="font-family: 'Open Sans', verdana, arial, sans-serif; font-size: 12px; fill: rgb(42, 63, 95); fill-opacity: 1; white-space: pre;">May 2020</text></g></g><g class="yaxislayer-above"><g class="ytick"><text text-anchor="end" x="79" y="4.199999999999999" transform="translate(0,315.36)" style="font-family: 'Open Sans', verdana, arial, sans-serif; font-size: 12px; fill: rgb(42, 63, 95); fill-opacity: 1; white-space: pre;">0</text></g><g class="ytick"><text text-anchor="end" x="79" y="4.199999999999999" transform="translate(0,275.26)" style="font-family: 'Open Sans', verdana, arial, sans-serif; font-size: 12px; fill: rgb(42, 63, 95); fill-opacity: 1; white-space: pre;">1M</text></g><g class="ytick"><text text-anchor="end" x="79" y="4.199999999999999" transform="translate(0,235.17)" style="font-family: 'Open Sans', verdana, arial, sans-serif; font-size: 12px; fill: rgb(42, 63, 95); fill-opacity: 1; white-space: pre;">2M</text></g><g class="ytick"><text text-anchor="end" x="79" y="4.199999999999999" transform="translate(0,195.07999999999998)" style="font-family: 'Open Sans', verdana, arial, sans-serif; font-size: 12px; fill: rgb(42, 63, 95); fill-opacity: 1; white-space: pre;">3M</text></g><g class="ytick"><text text-anchor="end" x="79" y="4.199999999999999" transform="translate(0,154.98)" style="font-family: 'Open Sans', verdana, arial, sans-serif; font-size: 12px; fill: rgb(42, 63, 95); fill-opacity: 1; white-space: pre;">4M</text></g><g class="ytick"><text text-anchor="end" x="79" y="4.199999999999999" transform="translate(0,114.89)" style="font-family: 'Open Sans', verdana, arial, sans-serif; font-size: 12px; fill: rgb(42, 63, 95); fill-opacity: 1; white-space: pre;">5M</text></g></g><g class="overaxes-above"/></g><g class="subplot x2y2"><g class="layer-subplot"><g class="shapelayer"/><g class="imagelayer"/></g><g class="gridlayer"><g class="x2"><path class="x2grid crisp" transform="translate(397.25,0)" d="M0,100v226.66666666666666" style="stroke: rgb(255, 255, 255); stroke-opacity: 1; stroke-width: 1px;"/><path class="x2grid crisp" transform="translate(455.97,0)" d="M0,100v226.66666666666666" style="stroke: rgb(255, 255, 255); stroke-opacity: 1; stroke-width: 1px;"/><path class="x2grid crisp" transform="translate(518.75,0)" d="M0,100v226.66666666666666" style="stroke: rgb(255, 255, 255); stroke-opacity: 1; stroke-width: 1px;"/><path class="x2grid crisp" transform="translate(579.5,0)" d="M0,100v226.66666666666666" style="stroke: rgb(255, 255, 255); stroke-opacity: 1; stroke-width: 1px;"/></g><g class="y2"><path class="y2grid crisp" transform="translate(0,279.16999999999996)" d="M377,0h242.99999999999997" style="stroke: rgb(255, 255, 255); stroke-opacity: 1; stroke-width: 1px;"/><path class="y2grid crisp" transform="translate(0,242.97)" d="M377,0h242.99999999999997" style="stroke: rgb(255, 255, 255); stroke-opacity: 1; stroke-width: 1px;"/><path class="y2grid crisp" transform="translate(0,206.76)" d="M377,0h242.99999999999997" style="stroke: rgb(255, 255, 255); stroke-opacity: 1; stroke-width: 1px;"/><path class="y2grid crisp" transform="translate(0,170.56)" d="M377,0h242.99999999999997" style="stroke: rgb(255, 255, 255); stroke-opacity: 1; stroke-width: 1px;"/><path class="y2grid crisp" transform="translate(0,134.36)" d="M377,0h242.99999999999997" style="stroke: rgb(255, 255, 255); stroke-opacity: 1; stroke-width: 1px;"/></g></g><g class="zerolinelayer"><path class="y2zl zl crisp" transform="translate(0,315.37)" d="M377,0h242.99999999999997" style="stroke: rgb(255, 255, 255); stroke-opacity: 1; stroke-width: 2px;"/></g><path class="xlines-below"/><path class="ylines-below"/><g class="overlines-below"/><g class="xaxislayer-below"/><g class="yaxislayer-below"/><g class="overaxes-below"/><g class="plot" transform="translate(377, 100)" clip-path="url('#clip8d188fx2y2plot')"><g class="scatterlayer mlayer"><g class="trace scatter trace41df77" style="stroke-miterlimit: 2; opacity: 1;"><g class="fills"/><g class="errorbars"/><g class="lines"><path class="js-line" d="M0,215.33L18.22,214.68L20.25,214.54L34.42,212.93L36.45,212.77L42.53,212.55L44.55,211.56L50.63,211.13L52.65,211.11L68.85,211.83L70.88,211.97L89.1,212.76L91.13,212.69L101.25,211.73L103.28,210.87L111.38,208.02L113.4,206.98L121.5,199.56L123.53,196.74L127.57,191.7L129.6,188.02L143.78,161.52L145.8,157.1L166.05,119.21L168.07,116.44L170.1,113.87L172.13,109.66L180.22,95.81L182.25,93.25L196.42,72.89L198.45,70.94L200.47,69.97L202.5,66.72L212.63,52.8L214.65,49.58L216.67,45.98L218.7,43.96L224.78,36.2L226.8,34.4L230.85,27.44L232.88,25.18L240.97,14.93L243,11.33" style="vector-effect: non-scaling-stroke; fill: none; stroke: rgb(255, 7, 58); stroke-opacity: 1; stroke-width: 2px; opacity: 1;"/></g><g class="points"/><g class="text"/></g></g></g><g class="overplot"/><path class="xlines-above crisp" d="M0,0" style="fill: none;"/><path class="ylines-above crisp" d="M0,0" style="fill: none;"/><g class="overlines-above"/><g class="xaxislayer-above"><g class="x2tick"><text text-anchor="middle" x="0" y="339.66666666666663" transform="translate(397.25,0)" style="font-family: 'Open Sans', verdana, arial, sans-serif; font-size: 12px; fill: rgb(42, 63, 95); fill-opacity: 1; white-space: pre;">Feb 2020</text></g><g class="x2tick"><text text-anchor="middle" x="0" y="339.66666666666663" transform="translate(455.97,0)" style="font-family: 'Open Sans', verdana, arial, sans-serif; font-size: 12px; fill: rgb(42, 63, 95); fill-opacity: 1; white-space: pre;">Mar 2020</text></g><g class="x2tick"><text text-anchor="middle" x="0" y="339.66666666666663" transform="translate(518.75,0)" style="font-family: 'Open Sans', verdana, arial, sans-serif; font-size: 12px; fill: rgb(42, 63, 95); fill-opacity: 1; white-space: pre;">Apr 2020</text></g><g class="x2tick"><text text-anchor="middle" x="0" y="339.66666666666663" transform="translate(579.5,0)" style="font-family: 'Open Sans', verdana, arial, sans-serif; font-size: 12px; fill: rgb(42, 63, 95); fill-opacity: 1; white-space: pre;">May 2020</text></g></g><g class="yaxislayer-above"><g class="y2tick"><text text-anchor="end" x="376" y="4.199999999999999" transform="translate(0,315.37)" style="font-family: 'Open Sans', verdana, arial, sans-serif; font-size: 12px; fill: rgb(42, 63, 95); fill-opacity: 1; white-space: pre;">0</text></g><g class="y2tick"><text text-anchor="end" x="376" y="4.199999999999999" transform="translate(0,279.16999999999996)" style="font-family: 'Open Sans', verdana, arial, sans-serif; font-size: 12px; fill: rgb(42, 63, 95); fill-opacity: 1; white-space: pre;">0.5M</text></g><g class="y2tick"><text text-anchor="end" x="376" y="4.199999999999999" transform="translate(0,242.97)" style="font-family: 'Open Sans', verdana, arial, sans-serif; font-size: 12px; fill: rgb(42, 63, 95); fill-opacity: 1; white-space: pre;">1M</text></g><g class="y2tick"><text text-anchor="end" x="376" y="4.199999999999999" transform="translate(0,206.76)" style="font-family: 'Open Sans', verdana, arial, sans-serif; font-size: 12px; fill: rgb(42, 63, 95); fill-opacity: 1; white-space: pre;">1.5M</text></g><g class="y2tick"><text text-anchor="end" x="376" y="4.199999999999999" transform="translate(0,170.56)" style="font-family: 'Open Sans', verdana, arial, sans-serif; font-size: 12px; fill: rgb(42, 63, 95); fill-opacity: 1; white-space: pre;">2M</text></g><g class="y2tick"><text text-anchor="end" x="376" y="4.199999999999999" transform="translate(0,134.36)" style="font-family: 'Open Sans', verdana, arial, sans-serif; font-size: 12px; fill: rgb(42, 63, 95); fill-opacity: 1; white-space: pre;">2.5M</text></g></g><g class="overaxes-above"/></g><g class="subplot x3y3"><g class="layer-subplot"><g class="shapelayer"/><g class="imagelayer"/></g><g class="gridlayer"><g class="x3"><path class="x3grid crisp" transform="translate(100.25,0)" d="M0,496.66666666666663v226.6666666666667" style="stroke: rgb(255, 255, 255); stroke-opacity: 1; stroke-width: 1px;"/><path class="x3grid crisp" transform="translate(158.97,0)" d="M0,496.66666666666663v226.6666666666667" style="stroke: rgb(255, 255, 255); stroke-opacity: 1; stroke-width: 1px;"/><path class="x3grid crisp" transform="translate(221.75,0)" d="M0,496.66666666666663v226.6666666666667" style="stroke: rgb(255, 255, 255); stroke-opacity: 1; stroke-width: 1px;"/><path class="x3grid crisp" transform="translate(282.5,0)" d="M0,496.66666666666663v226.6666666666667" style="stroke: rgb(255, 255, 255); stroke-opacity: 1; stroke-width: 1px;"/></g><g class="y3"><path class="y3grid crisp" transform="translate(0,659.3766666666667)" d="M80,0h243" style="stroke: rgb(255, 255, 255); stroke-opacity: 1; stroke-width: 1px;"/><path class="y3grid crisp" transform="translate(0,606.7466666666667)" d="M80,0h243" style="stroke: rgb(255, 255, 255); stroke-opacity: 1; stroke-width: 1px;"/><path class="y3grid crisp" transform="translate(0,554.1166666666667)" d="M80,0h243" style="stroke: rgb(255, 255, 255); stroke-opacity: 1; stroke-width: 1px;"/><path class="y3grid crisp" transform="translate(0,501.4866666666666)" d="M80,0h243" style="stroke: rgb(255, 255, 255); stroke-opacity: 1; stroke-width: 1px;"/></g></g><g class="zerolinelayer"><path class="y3zl zl crisp" transform="translate(0,712.0066666666667)" d="M80,0h243" style="stroke: rgb(255, 255, 255); stroke-opacity: 1; stroke-width: 2px;"/></g><path class="xlines-below"/><path class="ylines-below"/><g class="overlines-below"/><g class="xaxislayer-below"/><g class="yaxislayer-below"/><g class="overaxes-below"/><g class="plot" transform="translate(80, 496.66666666666663)" clip-path="url('#clip8d188fx3y3plot')"><g class="scatterlayer mlayer"><g class="trace scatter trace353b5c" style="stroke-miterlimit: 2; opacity: 1;"><g class="fills"/><g class="errorbars"/><g class="lines"><path class="js-line" d="M0,215.33L44.55,214.67L46.57,214.49L70.88,212.14L72.9,211.84L91.13,209.21L93.15,208.96L119.47,205.85L121.5,205.34L123.52,205.29L125.55,204.34L131.63,202.03L133.65,201.17L137.7,198.56L139.72,197.17L151.88,186.92L153.9,184.46L159.97,176.5L162,173.77L166.05,168.89L168.07,166.24L172.13,159.15L174.15,156.4L180.22,148.27L182.25,144.63L186.3,138.45L188.32,133.13L196.42,120.81L198.45,116.46L200.47,109.57L202.5,105.52L208.57,93.93L210.6,90.13L218.7,71.55L220.72,68.04L238.95,22.89L240.97,16.73L243,11.33" style="vector-effect: non-scaling-stroke; fill: none; stroke: rgb(40, 167, 69); stroke-opacity: 1; stroke-width: 2px; opacity: 1;"/></g><g class="points"/><g class="text"/></g></g></g><g class="overplot"/><path class="xlines-above crisp" d="M0,0" style="fill: none;"/><path class="ylines-above crisp" d="M0,0" style="fill: none;"/><g class="overlines-above"/><g class="xaxislayer-above"><g class="x3tick"><text text-anchor="middle" x="0" y="736.3333333333334" transform="translate(100.25,0)" style="font-family: 'Open Sans', verdana, arial, sans-serif; font-size: 12px; fill: rgb(42, 63, 95); fill-opacity: 1; white-space: pre;">Feb 2020</text></g><g class="x3tick"><text text-anchor="middle" x="0" y="736.3333333333334" transform="translate(158.97,0)" style="font-family: 'Open Sans', verdana, arial, sans-serif; font-size: 12px; fill: rgb(42, 63, 95); fill-opacity: 1; white-space: pre;">Mar 2020</text></g><g class="x3tick"><text text-anchor="middle" x="0" y="736.3333333333334" transform="translate(221.75,0)" style="font-family: 'Open Sans', verdana, arial, sans-serif; font-size: 12px; fill: rgb(42, 63, 95); fill-opacity: 1; white-space: pre;">Apr 2020</text></g><g class="x3tick"><text text-anchor="middle" x="0" y="736.3333333333334" transform="translate(282.5,0)" style="font-family: 'Open Sans', verdana, arial, sans-serif; font-size: 12px; fill: rgb(42, 63, 95); fill-opacity: 1; white-space: pre;">May 2020</text></g></g><g class="yaxislayer-above"><g class="y3tick"><text text-anchor="end" x="79" y="4.199999999999999" transform="translate(0,712.0066666666667)" style="font-family: 'Open Sans', verdana, arial, sans-serif; font-size: 12px; fill: rgb(42, 63, 95); fill-opacity: 1; white-space: pre;">0</text></g><g class="y3tick"><text text-anchor="end" x="79" y="4.199999999999999" transform="translate(0,659.3766666666667)" style="font-family: 'Open Sans', verdana, arial, sans-serif; font-size: 12px; fill: rgb(42, 63, 95); fill-opacity: 1; white-space: pre;">0.5M</text></g><g class="y3tick"><text text-anchor="end" x="79" y="4.199999999999999" transform="translate(0,606.7466666666667)" style="font-family: 'Open Sans', verdana, arial, sans-serif; font-size: 12px; fill: rgb(42, 63, 95); fill-opacity: 1; white-space: pre;">1M</text></g><g class="y3tick"><text text-anchor="end" x="79" y="4.199999999999999" transform="translate(0,554.1166666666667)" style="font-family: 'Open Sans', verdana, arial, sans-serif; font-size: 12px; fill: rgb(42, 63, 95); fill-opacity: 1; white-space: pre;">1.5M</text></g><g class="y3tick"><text text-anchor="end" x="79" y="4.199999999999999" transform="translate(0,501.4866666666666)" style="font-family: 'Open Sans', verdana, arial, sans-serif; font-size: 12px; fill: rgb(42, 63, 95); fill-opacity: 1; white-space: pre;">2M</text></g></g><g class="overaxes-above"/></g><g class="subplot x4y4"><g class="layer-subplot"><g class="shapelayer"/><g class="imagelayer"/></g><g class="gridlayer"><g class="x4"><path class="x4grid crisp" transform="translate(397.25,0)" d="M0,496.66666666666663v226.6666666666667" style="stroke: rgb(255, 255, 255); stroke-opacity: 1; stroke-width: 1px;"/><path class="x4grid crisp" transform="translate(455.97,0)" d="M0,496.66666666666663v226.6666666666667" style="stroke: rgb(255, 255, 255); stroke-opacity: 1; stroke-width: 1px;"/><path class="x4grid crisp" transform="translate(518.75,0)" d="M0,496.66666666666663v226.6666666666667" style="stroke: rgb(255, 255, 255); stroke-opacity: 1; stroke-width: 1px;"/><path class="x4grid crisp" transform="translate(579.5,0)" d="M0,496.66666666666663v226.6666666666667" style="stroke: rgb(255, 255, 255); stroke-opacity: 1; stroke-width: 1px;"/></g><g class="y4"><path class="y4grid crisp" transform="translate(0,650.6666666666666)" d="M377,0h242.99999999999997" style="stroke: rgb(255, 255, 255); stroke-opacity: 1; stroke-width: 1px;"/><path class="y4grid crisp" transform="translate(0,589.3266666666666)" d="M377,0h242.99999999999997" style="stroke: rgb(255, 255, 255); stroke-opacity: 1; stroke-width: 1px;"/><path class="y4grid crisp" transform="translate(0,527.9866666666667)" d="M377,0h242.99999999999997" style="stroke: rgb(255, 255, 255); stroke-opacity: 1; stroke-width: 1px;"/></g></g><g class="zerolinelayer"><path class="y4zl zl crisp" transform="translate(0,712.0066666666667)" d="M377,0h242.99999999999997" style="stroke: rgb(255, 255, 255); stroke-opacity: 1; stroke-width: 2px;"/></g><path class="xlines-below"/><path class="ylines-below"/><g class="overlines-below"/><g class="xaxislayer-below"/><g class="yaxislayer-below"/><g class="overaxes-below"/><g class="plot" transform="translate(377, 496.66666666666663)" clip-path="url('#clip8d188fx4y4plot')"><g class="scatterlayer mlayer"><g class="trace scatter trace65ed87" style="stroke-miterlimit: 2; opacity: 1;"><g class="fills"/><g class="errorbars"/><g class="lines"><path class="js-line" d="M0,215.33L42.53,214.66L44.55,214.5L89.1,213.25L91.13,213.19L107.32,211.42L109.35,211L117.45,208.39L119.47,207.36L125.55,203.75L127.57,202.06L135.67,193.77L137.7,191.25L143.78,181.2L145.8,177.53L155.92,158.2L157.95,153.57L164.03,141.96L166.05,138.46L172.13,124.72L174.15,119.29L178.2,112.57L180.22,109.29L190.35,89.01L192.38,86.74L196.42,80.05L198.45,75.84L204.53,65.94L206.55,63.7L210.6,57.71L212.63,53.66L218.7,44.18L220.72,42.1L222.75,39.88L224.78,36.44L232.88,24.29L234.9,22.2L238.95,17.24L240.97,14.28L243,11.33" style="vector-effect: non-scaling-stroke; fill: none; stroke: rgb(108, 117, 125); stroke-opacity: 1; stroke-width: 2px; opacity: 1;"/></g><g class="points"/><g class="text"/></g></g></g><g class="overplot"/><path class="xlines-above crisp" d="M0,0" style="fill: none;"/><path class="ylines-above crisp" d="M0,0" style="fill: none;"/><g class="overlines-above"/><g class="xaxislayer-above"><g class="x4tick"><text text-anchor="middle" x="0" y="736.3333333333334" transform="translate(397.25,0)" style="font-family: 'Open Sans', verdana, arial, sans-serif; font-size: 12px; fill: rgb(42, 63, 95); fill-opacity: 1; white-space: pre;">Feb 2020</text></g><g class="x4tick"><text text-anchor="middle" x="0" y="736.3333333333334" transform="translate(455.97,0)" style="font-family: 'Open Sans', verdana, arial, sans-serif; font-size: 12px; fill: rgb(42, 63, 95); fill-opacity: 1; white-space: pre;">Mar 2020</text></g><g class="x4tick"><text text-anchor="middle" x="0" y="736.3333333333334" transform="translate(518.75,0)" style="font-family: 'Open Sans', verdana, arial, sans-serif; font-size: 12px; fill: rgb(42, 63, 95); fill-opacity: 1; white-space: pre;">Apr 2020</text></g><g class="x4tick"><text text-anchor="middle" x="0" y="736.3333333333334" transform="translate(579.5,0)" style="font-family: 'Open Sans', verdana, arial, sans-serif; font-size: 12px; fill: rgb(42, 63, 95); fill-opacity: 1; white-space: pre;">May 2020</text></g></g><g class="yaxislayer-above"><g class="y4tick"><text text-anchor="end" x="376" y="4.199999999999999" transform="translate(0,712.0066666666667)" style="font-family: 'Open Sans', verdana, arial, sans-serif; font-size: 12px; fill: rgb(42, 63, 95); fill-opacity: 1; white-space: pre;">0</text></g><g class="y4tick"><text text-anchor="end" x="376" y="4.199999999999999" transform="translate(0,650.6666666666666)" style="font-family: 'Open Sans', verdana, arial, sans-serif; font-size: 12px; fill: rgb(42, 63, 95); fill-opacity: 1; white-space: pre;">100k</text></g><g class="y4tick"><text text-anchor="end" x="376" y="4.199999999999999" transform="translate(0,589.3266666666666)" style="font-family: 'Open Sans', verdana, arial, sans-serif; font-size: 12px; fill: rgb(42, 63, 95); fill-opacity: 1; white-space: pre;">200k</text></g><g class="y4tick"><text text-anchor="end" x="376" y="4.199999999999999" transform="translate(0,527.9866666666667)" style="font-family: 'Open Sans', verdana, arial, sans-serif; font-size: 12px; fill: rgb(42, 63, 95); fill-opacity: 1; white-space: pre;">300k</text></g></g><g class="overaxes-above"/></g><g class="subplot x5y5"><g class="layer-subplot"><g class="shapelayer"/><g class="imagelayer"/></g><g class="gridlayer"><g class="x5"><path class="x5grid crisp" transform="translate(100.25,0)" d="M0,893.3333333333334v226.66666666666669" style="stroke: rgb(255, 255, 255); stroke-opacity: 1; stroke-width: 1px;"/><path class="x5grid crisp" transform="translate(158.97,0)" d="M0,893.3333333333334v226.66666666666669" style="stroke: rgb(255, 255, 255); stroke-opacity: 1; stroke-width: 1px;"/><path class="x5grid crisp" transform="translate(221.75,0)" d="M0,893.3333333333334v226.66666666666669" style="stroke: rgb(255, 255, 255); stroke-opacity: 1; stroke-width: 1px;"/><path class="x5grid crisp" transform="translate(282.5,0)" d="M0,893.3333333333334v226.66666666666669" style="stroke: rgb(255, 255, 255); stroke-opacity: 1; stroke-width: 1px;"/></g><g class="y5"><path class="y5grid crisp" transform="translate(0,1070.1033333333335)" d="M80,0h243" style="stroke: rgb(255, 255, 255); stroke-opacity: 1; stroke-width: 1px;"/><path class="y5grid crisp" transform="translate(0,1031.5533333333333)" d="M80,0h243" style="stroke: rgb(255, 255, 255); stroke-opacity: 1; stroke-width: 1px;"/><path class="y5grid crisp" transform="translate(0,992.9933333333333)" d="M80,0h243" style="stroke: rgb(255, 255, 255); stroke-opacity: 1; stroke-width: 1px;"/><path class="y5grid crisp" transform="translate(0,954.4333333333334)" d="M80,0h243" style="stroke: rgb(255, 255, 255); stroke-opacity: 1; stroke-width: 1px;"/><path class="y5grid crisp" transform="translate(0,915.8733333333333)" d="M80,0h243" style="stroke: rgb(255, 255, 255); stroke-opacity: 1; stroke-width: 1px;"/></g></g><g class="zerolinelayer"><path class="y5zl zl crisp" transform="translate(0,1108.6633333333334)" d="M80,0h243" style="stroke: rgb(255, 255, 255); stroke-opacity: 1; stroke-width: 2px;"/></g><path class="xlines-below"/><path class="ylines-below"/><g class="overlines-below"/><g class="xaxislayer-below"/><g class="yaxislayer-below"/><g class="overaxes-below"/><g class="plot" transform="translate(80, 893.3333333333334)" clip-path="url('#clip8d188fx5y5plot')"><g class="scatterlayer mlayer"><g class="trace scatter trace4da205" style="stroke-miterlimit: 2; opacity: 1;"><g class="fills"/><g class="errorbars"/><g class="lines"><path class="js-line" d="M0,215.33L10.13,213.78L12.15,210.22L14.17,214.2L16.2,211.35L18.22,212.08L20.25,211.27L22.27,206.18L24.3,209.37L26.32,207.6L28.35,208.12L30.38,209.25L32.4,208.4L34.42,210.07L36.45,209.49L40.5,211.4L42.52,214.53L44.55,186.13L46.57,202.77L48.6,211.2L50.63,211.11L54.67,211.71L56.7,214.36L60.75,214.33L62.77,212.4L64.8,214.91L66.82,214.62L70.88,213.99L72.9,213.69L76.95,213.24L78.97,211.92L81,212.75L83.02,212.09L87.07,210.9L89.1,208.75L95.17,208.38L97.2,205.71L99.22,201.81L101.25,205.67L103.27,188.14L105.3,194.53L107.32,193.53L109.35,188.2L111.38,185.63L113.4,181.35L115.42,162.11L117.45,158.37L119.47,153.31L121.5,153.11L123.52,135.75L125.55,138.35L129.6,96.19L131.63,92.04L133.65,85.65L135.67,101.56L137.7,94.94L139.72,71.38L141.75,70.16L143.77,59.63L145.8,56.52L147.82,61.06L149.85,74.16L151.88,77.2L153.9,70.83L155.92,53.89L157.95,49.86L159.97,37.71L162,64.72L164.02,25L166.05,80.39L168.07,79.66L170.1,60.8L172.13,29.46L176.17,65.67L178.2,55.04L180.22,77.85L182.25,67.02L184.27,65.46L186.3,53.81L188.32,27.65L190.35,50.69L192.38,72.89L194.4,82.93L202.5,44.44L204.52,57.02L208.57,68.39L210.6,61.95L212.63,35.5L214.65,39.63L216.67,34.61L218.7,49.88L220.72,65.64L222.75,69.24L224.77,53.07L226.8,50.83L228.82,32.18L230.85,22.67L232.88,38.95L234.9,62.39L238.95,31.25L240.97,24L243,11.33" style="vector-effect: non-scaling-stroke; fill: none; stroke: rgb(254, 152, 1); stroke-opacity: 1; stroke-width: 2px; opacity: 1;"/></g><g class="points"/><g class="text"/></g></g></g><g class="overplot"/><path class="xlines-above crisp" d="M0,0" style="fill: none;"/><path class="ylines-above crisp" d="M0,0" style="fill: none;"/><g class="overlines-above"/><g class="xaxislayer-above"><g class="x5tick"><text text-anchor="middle" x="0" y="1133" transform="translate(100.25,0)" style="font-family: 'Open Sans', verdana, arial, sans-serif; font-size: 12px; fill: rgb(42, 63, 95); fill-opacity: 1; white-space: pre;">Feb 2020</text></g><g class="x5tick"><text text-anchor="middle" x="0" y="1133" transform="translate(158.97,0)" style="font-family: 'Open Sans', verdana, arial, sans-serif; font-size: 12px; fill: rgb(42, 63, 95); fill-opacity: 1; white-space: pre;">Mar 2020</text></g><g class="x5tick"><text text-anchor="middle" x="0" y="1133" transform="translate(221.75,0)" style="font-family: 'Open Sans', verdana, arial, sans-serif; font-size: 12px; fill: rgb(42, 63, 95); fill-opacity: 1; white-space: pre;">Apr 2020</text></g><g class="x5tick"><text text-anchor="middle" x="0" y="1133" transform="translate(282.5,0)" style="font-family: 'Open Sans', verdana, arial, sans-serif; font-size: 12px; fill: rgb(42, 63, 95); fill-opacity: 1; white-space: pre;">May 2020</text></g></g><g class="yaxislayer-above"><g class="y5tick"><text text-anchor="end" x="79" y="4.199999999999999" transform="translate(0,1108.6633333333334)" style="font-family: 'Open Sans', verdana, arial, sans-serif; font-size: 12px; fill: rgb(42, 63, 95); fill-opacity: 1; white-space: pre;">0</text></g><g class="y5tick"><text text-anchor="end" x="79" y="4.199999999999999" transform="translate(0,1070.1033333333335)" style="font-family: 'Open Sans', verdana, arial, sans-serif; font-size: 12px; fill: rgb(42, 63, 95); fill-opacity: 1; white-space: pre;">20k</text></g><g class="y5tick"><text text-anchor="end" x="79" y="4.199999999999999" transform="translate(0,1031.5533333333333)" style="font-family: 'Open Sans', verdana, arial, sans-serif; font-size: 12px; fill: rgb(42, 63, 95); fill-opacity: 1; white-space: pre;">40k</text></g><g class="y5tick"><text text-anchor="end" x="79" y="4.199999999999999" transform="translate(0,992.9933333333333)" style="font-family: 'Open Sans', verdana, arial, sans-serif; font-size: 12px; fill: rgb(42, 63, 95); fill-opacity: 1; white-space: pre;">60k</text></g><g class="y5tick"><text text-anchor="end" x="79" y="4.199999999999999" transform="translate(0,954.4333333333334)" style="font-family: 'Open Sans', verdana, arial, sans-serif; font-size: 12px; fill: rgb(42, 63, 95); fill-opacity: 1; white-space: pre;">80k</text></g><g class="y5tick"><text text-anchor="end" x="79" y="4.199999999999999" transform="translate(0,915.8733333333333)" style="font-family: 'Open Sans', verdana, arial, sans-serif; font-size: 12px; fill: rgb(42, 63, 95); fill-opacity: 1; white-space: pre;">100k</text></g></g><g class="overaxes-above"/></g><g class="subplot x6y6"><g class="layer-subplot"><g class="shapelayer"/><g class="imagelayer"/></g><g class="gridlayer"><g class="x6"><path class="x6grid crisp" transform="translate(397.25,0)" d="M0,893.3333333333334v226.66666666666669" style="stroke: rgb(255, 255, 255); stroke-opacity: 1; stroke-width: 1px;"/><path class="x6grid crisp" transform="translate(455.97,0)" d="M0,893.3333333333334v226.66666666666669" style="stroke: rgb(255, 255, 255); stroke-opacity: 1; stroke-width: 1px;"/><path class="x6grid crisp" transform="translate(518.75,0)" d="M0,893.3333333333334v226.66666666666669" style="stroke: rgb(255, 255, 255); stroke-opacity: 1; stroke-width: 1px;"/><path class="x6grid crisp" transform="translate(579.5,0)" d="M0,893.3333333333334v226.66666666666669" style="stroke: rgb(255, 255, 255); stroke-opacity: 1; stroke-width: 1px;"/></g><g class="y6"><path class="y6grid crisp" transform="translate(0,1057.0933333333332)" d="M377,0h242.99999999999997" style="stroke: rgb(255, 255, 255); stroke-opacity: 1; stroke-width: 1px;"/><path class="y6grid crisp" transform="translate(0,999.7933333333334)" d="M377,0h242.99999999999997" style="stroke: rgb(255, 255, 255); stroke-opacity: 1; stroke-width: 1px;"/><path class="y6grid crisp" transform="translate(0,942.4833333333333)" d="M377,0h242.99999999999997" style="stroke: rgb(255, 255, 255); stroke-opacity: 1; stroke-width: 1px;"/></g></g><g class="zerolinelayer"><path class="y6zl zl crisp" transform="translate(0,1114.3933333333334)" d="M377,0h242.99999999999997" style="stroke: rgb(255, 255, 255); stroke-opacity: 1; stroke-width: 2px;"/></g><path class="xlines-below"/><path class="ylines-below"/><g class="overlines-below"/><g class="xaxislayer-below"/><g class="yaxislayer-below"/><g class="overaxes-below"/><g class="plot" transform="translate(377, 893.3333333333334)" clip-path="url('#clip8d188fx6y6plot')"><g class="scatterlayer mlayer"><g class="trace scatter trace195ef3" style="stroke-miterlimit: 2; opacity: 1;"><g class="fills"/><g class="errorbars"/><g class="lines"><path class="js-line" d="M0,215.33L2.03,213.04L4.05,211.9L10.13,203.87L12.15,203.87L16.2,199.29L18.22,194.7L20.25,193.56L22.28,193.56L24.3,193.56L26.32,192.41L30.38,192.41L32.4,191.27L44.55,191.27L46.57,190.12L54.67,190.12L56.7,188.97L58.72,188.97L60.75,186.68L64.8,186.68L66.82,180.95L68.85,176.37L70.88,168.34L72.9,163.76L74.92,156.88L78.97,146.57L81,138.55L87.07,124.79L89.1,114.48L91.13,113.33L93.15,107.6L97.2,100.73L99.22,93.85L101.25,91.56L103.28,83.54L105.3,68.64L107.32,64.05L109.35,58.32L111.38,54.88L115.42,45.72L117.45,37.69L119.47,35.4L121.5,29.67L123.53,28.52L125.55,26.23L127.57,22.79L129.6,21.65L133.65,19.36L135.67,19.36L137.7,18.21L139.72,15.92L141.75,15.92L143.78,14.77L147.82,14.77L149.85,12.48L151.88,11.33L153.9,11.33L243,11.33" style="vector-effect: non-scaling-stroke; fill: none; stroke: rgb(255, 15, 128); stroke-opacity: 1; stroke-width: 2px; opacity: 1;"/></g><g class="points"/><g class="text"/></g></g></g><g class="overplot"/><path class="xlines-above crisp" d="M0,0" style="fill: none;"/><path class="ylines-above crisp" d="M0,0" style="fill: none;"/><g class="overlines-above"/><g class="xaxislayer-above"><g class="x6tick"><text text-anchor="middle" x="0" y="1133" transform="translate(397.25,0)" style="font-family: 'Open Sans', verdana, arial, sans-serif; font-size: 12px; fill: rgb(42, 63, 95); fill-opacity: 1; white-space: pre;">Feb 2020</text></g><g class="x6tick"><text text-anchor="middle" x="0" y="1133" transform="translate(455.97,0)" style="font-family: 'Open Sans', verdana, arial, sans-serif; font-size: 12px; fill: rgb(42, 63, 95); fill-opacity: 1; white-space: pre;">Mar 2020</text></g><g class="x6tick"><text text-anchor="middle" x="0" y="1133" transform="translate(518.75,0)" style="font-family: 'Open Sans', verdana, arial, sans-serif; font-size: 12px; fill: rgb(42, 63, 95); fill-opacity: 1; white-space: pre;">Apr 2020</text></g><g class="x6tick"><text text-anchor="middle" x="0" y="1133" transform="translate(579.5,0)" style="font-family: 'Open Sans', verdana, arial, sans-serif; font-size: 12px; fill: rgb(42, 63, 95); fill-opacity: 1; white-space: pre;">May 2020</text></g></g><g class="yaxislayer-above"><g class="y6tick"><text text-anchor="end" x="376" y="4.199999999999999" transform="translate(0,1114.3933333333334)" style="font-family: 'Open Sans', verdana, arial, sans-serif; font-size: 12px; fill: rgb(42, 63, 95); fill-opacity: 1; white-space: pre;">0</text></g><g class="y6tick"><text text-anchor="end" x="376" y="4.199999999999999" transform="translate(0,1057.0933333333332)" style="font-family: 'Open Sans', verdana, arial, sans-serif; font-size: 12px; fill: rgb(42, 63, 95); fill-opacity: 1; white-space: pre;">50</text></g><g class="y6tick"><text text-anchor="end" x="376" y="4.199999999999999" transform="translate(0,999.7933333333334)" style="font-family: 'Open Sans', verdana, arial, sans-serif; font-size: 12px; fill: rgb(42, 63, 95); fill-opacity: 1; white-space: pre;">100</text></g><g class="y6tick"><text text-anchor="end" x="376" y="4.199999999999999" transform="translate(0,942.4833333333333)" style="font-family: 'Open Sans', verdana, arial, sans-serif; font-size: 12px; fill: rgb(42, 63, 95); fill-opacity: 1; white-space: pre;">150</text></g></g><g class="overaxes-above"/></g></g><g class="polarlayer"/><g class="ternarylayer"/><g class="geolayer"/><g class="funnelarealayer"/><g class="pielayer"/><g class="treemaplayer"/><g class="sunburstlayer"/><g class="glimages"/><defs id="topdefs-8d188f"><g class="clips"/></defs><g class="layer-above"><g class="imagelayer"/><g class="shapelayer"/></g><g class="infolayer"><g class="g-gtitle"><text class="gtitle" x="35" y="50" text-anchor="start" dy="0em" style="font-family: 'Open Sans', verdana, arial, sans-serif; font-size: 17px; fill: rgb(42, 63, 95); opacity: 1; font-weight: normal; white-space: pre;">Day Wise</text></g><g class="g-xtitle"/><g class="g-x2title"/><g class="g-x3title"/><g class="g-x4title"/><g class="g-x5title"/><g class="g-x6title"/><g class="g-ytitle"/><g class="g-y2title"/><g class="g-y3title"/><g class="g-y4title"/><g class="g-y5title"/><g class="g-y6title"/><g class="annotation" data-index="0" style="opacity: 1;"><g class="annotation-text-g" transform="rotate(0,201.5,89.5)"><g class="cursor-pointer" transform="translate(140, 79)"><rect class="bg" x="0.5" y="0.5" width="123" height="20" style="stroke-width: 1px; stroke: rgb(0, 0, 0); stroke-opacity: 0; fill: rgb(0, 0, 0); fill-opacity: 0;"/><text class="annotation-text" text-anchor="middle" x="62.03125" y="16" style="font-family: 'Open Sans', verdana, arial, sans-serif; font-size: 16px; fill: rgb(42, 63, 95); fill-opacity: 1; white-space: pre;">Confirmed cases</text></g></g></g><g class="annotation" data-index="1" style="opacity: 1;"><g class="annotation-text-g" transform="rotate(0,498.5,89.5)"><g class="cursor-pointer" transform="translate(450, 79)"><rect class="bg" x="0.5" y="0.5" width="96" height="20" style="stroke-width: 1px; stroke: rgb(0, 0, 0); stroke-opacity: 0; fill: rgb(0, 0, 0); fill-opacity: 0;"/><text class="annotation-text" text-anchor="middle" x="48.6875" y="16" style="font-family: 'Open Sans', verdana, arial, sans-serif; font-size: 16px; fill: rgb(42, 63, 95); fill-opacity: 1; white-space: pre;">Active Cases</text></g></g></g><g class="annotation" data-index="2" style="opacity: 1;"><g class="annotation-text-g" transform="rotate(0,201.5,486.16666666666663)"><g class="cursor-pointer" transform="translate(136, 476)"><rect class="bg" x="0.5" y="0.5" width="130" height="20" style="stroke-width: 1px; stroke: rgb(0, 0, 0); stroke-opacity: 0; fill: rgb(0, 0, 0); fill-opacity: 0;"/><text class="annotation-text" text-anchor="middle" x="65.59375" y="16" style="font-family: 'Open Sans', verdana, arial, sans-serif; font-size: 16px; fill: rgb(42, 63, 95); fill-opacity: 1; white-space: pre;">Recovered Cases</text></g></g></g><g class="annotation" data-index="3" style="opacity: 1;"><g class="annotation-text-g" transform="rotate(0,498.5,486.16666666666663)"><g class="cursor-pointer" transform="translate(439, 476)"><rect class="bg" x="0.5" y="0.5" width="118" height="20" style="stroke-width: 1px; stroke: rgb(0, 0, 0); stroke-opacity: 0; fill: rgb(0, 0, 0); fill-opacity: 0;"/><text class="annotation-text" text-anchor="middle" x="59.375" y="16" style="font-family: 'Open Sans', verdana, arial, sans-serif; font-size: 16px; fill: rgb(42, 63, 95); fill-opacity: 1; white-space: pre;">Deaths reported</text></g></g></g><g class="annotation" data-index="4" style="opacity: 1;"><g class="annotation-text-g" transform="rotate(0,201.5,882.8333333333334)"><g class="cursor-pointer" transform="translate(159, 872)"><rect class="bg" x="0.5" y="0.5" width="85" height="20" style="stroke-width: 1px; stroke: rgb(0, 0, 0); stroke-opacity: 0; fill: rgb(0, 0, 0); fill-opacity: 0;"/><text class="annotation-text" text-anchor="middle" x="42.90625" y="16" style="font-family: 'Open Sans', verdana, arial, sans-serif; font-size: 16px; fill: rgb(42, 63, 95); fill-opacity: 1; white-space: pre;">New Cases</text></g></g></g><g class="annotation" data-index="5" style="opacity: 1;"><g class="annotation-text-g" transform="rotate(0,498.5,882.8333333333334)"><g class="cursor-pointer" transform="translate(431, 872)"><rect class="bg" x="0.5" y="0.5" width="134" height="20" style="stroke-width: 1px; stroke: rgb(0, 0, 0); stroke-opacity: 0; fill: rgb(0, 0, 0); fill-opacity: 0;"/><text class="annotation-text" text-anchor="middle" x="67.671875" y="16" style="font-family: 'Open Sans', verdana, arial, sans-serif; font-size: 16px; fill: rgb(42, 63, 95); fill-opacity: 1; white-space: pre;">Countries Affected</text></g></g></g></g></svg>