<svg class="main-svg" xmlns="http://www.w3.org/2000/svg" xmlns:xlink="http://www.w3.org/1999/xlink" width="700" height="1200" style="" viewBox="0 0 700 1200"><rect x="0" y="0" width="700" height="1200" style="fill: rgb(255, 255, 255); fill-opacity: 1;"/><defs id="defs-3cdeb0"><g class="clips"><clipPath id="clip3cdeb0xyplot" class="plotclip"><rect width="243" height="226.66666666666666"/></clipPath><clipPath id="clip3cdeb0x2y2plot" class="plotclip"><rect width="242.99999999999997" height="226.66666666666666"/></clipPath><clipPath id="clip3cdeb0x3y3plot" class="plotclip"><rect width="243" height="226.6666666666667"/></clipPath><clipPath id="clip3cdeb0x4y4plot" class="plotclip"><rect width="242.99999999999997" height="226.6666666666667"/></clipPath><clipPath id="clip3cdeb0x5y5plot" class="plotclip"><rect width="243" height="226.66666666666669"/></clipPath><clipPath id="clip3cdeb0x6y6plot" class="plotclip"><rect width="242.99999999999997" height="226.66666666666669"/></clipPath><clipPath class="axesclip" id="clip3cdeb0x"><rect x="80" y="0" width="243" height="1200"/></clipPath><clipPath class="axesclip" id="clip3cdeb0y"><rect x="0" y="100" width="700" height="226.66666666666666"/></clipPath><clipPath class="axesclip" id="clip3cdeb0xy"><rect x="80" y="100" width="243" height="226.66666666666666"/></clipPath><clipPath class="axesclip" id="clip3cdeb0y2"><rect x="0" y="100" width="700" height="226.66666666666666"/></clipPath><clipPath class="axesclip" id="clip3cdeb0xy2"><rect x="80" y="100" width="243" height="226.66666666666666"/></clipPath><clipPath class="axesclip" id="clip3cdeb0y3"><rect x="0" y="496.66666666666663" width="700" height="226.6666666666667"/></clipPath><clipPath class="axesclip" id="clip3cdeb0xy3"><rect x="80" y="496.66666666666663" width="243" height="226.6666666666667"/></clipPath><clipPath class="axesclip" id="clip3cdeb0y4"><rect x="0" y="496.66666666666663" width="700" height="226.6666666666667"/></clipPath><clipPath class="axesclip" id="clip3cdeb0xy4"><rect x="80" y="496.66666666666663" width="243" height="226.6666666666667"/></clipPath><clipPath class="axesclip" id="clip3cdeb0y5"><rect x="0" y="893.3333333333334" width="700" height="226.66666666666669"/></clipPath><clipPath class="axesclip" id="clip3cdeb0xy5"><rect x="80" y="893.3333333333334" width="243" height="226.66666666666669"/></clipPath><clipPath class="axesclip" id="clip3cdeb0y6"><rect x="0" y="893.3333333333334" width="700" height="226.66666666666669"/></clipPath><clipPath class="axesclip" id="clip3cdeb0xy6"><rect x="80" y="893.3333333333334" width="243" height="226.66666666666669"/></clipPath><clipPath class="axesclip" id="clip3cdeb0x2"><rect x="377" y="0" width="242.99999999999997" height="1200"/></clipPath><clipPath class="axesclip" id="clip3cdeb0x2y"><rect x="377" y="100" width="242.99999999999997" height="226.66666666666666"/></clipPath><clipPath class="axesclip" id="clip3cdeb0x2y2"><rect x="377" y="100" width="242.99999999999997" height="226.66666666666666"/></clipPath><clipPath class="axesclip" id="clip3cdeb0x2y3"><rect x="377" y="496.66666666666663" width="242.99999999999997" height="226.6666666666667"/></clipPath><clipPath class="axesclip" id="clip3cdeb0x2y4"><rect x="377" y="496.66666666666663" width="242.99999999999997" height="226.6666666666667"/></clipPath><clipPath class="axesclip" id="clip3cdeb0x2y5"><rect x="377" y="893.3333333333334" width="242.99999999999997" height="226.66666666666669"/></clipPath><clipPath class="axesclip" id="clip3cdeb0x2y6"><rect x="377" y="893.3333333333334" width="242.99999999999997" height="226.66666666666669"/></clipPath><clipPath class="axesclip" id="clip3cdeb0x3"><rect x="80" y="0" width="243" height="1200"/></clipPath><clipPath class="axesclip" id="clip3cdeb0x3y"><rect x="80" y="100" width="243" height="226.66666666666666"/></clipPath><clipPath class="axesclip" id="clip3cdeb0x3y2"><rect x="80" y="100" width="243" height="226.66666666666666"/></clipPath><clipPath class="axesclip" id="clip3cdeb0x3y3"><rect x="80" y="496.66666666666663" width="243" height="226.6666666666667"/></clipPath><clipPath class="axesclip" id="clip3cdeb0x3y4"><rect x="80" y="496.66666666666663" width="243" height="226.6666666666667"/></clipPath><clipPath class="axesclip" id="clip3cdeb0x3y5"><rect x="80" y="893.3333333333334" width="243" height="226.66666666666669"/></clipPath><clipPath class="axesclip" id="clip3cdeb0x3y6"><rect x="80" y="893.3333333333334" width="243" height="226.66666666666669"/></clipPath><clipPath class="axesclip" id="clip3cdeb0x4"><rect x="377" y="0" width="242.99999999999997" height="1200"/></clipPath><clipPath class="axesclip" id="clip3cdeb0x4y"><rect x="377" y="100" width="242.99999999999997" height="226.66666666666666"/></clipPath><clipPath class="axesclip" id="clip3cdeb0x4y2"><rect x="377" y="100" width="242.99999999999997" height="226.66666666666666"/></clipPath><clipPath class="axesclip" id="clip3cdeb0x4y3"><rect x="377" y="496.66666666666663" width="242.99999999999997" height="226.6666666666667"/></clipPath><clipPath class="axesclip" id="clip3cdeb0x4y4"><rect x="377" y="496.66666666666663" width="242.99999999999997" height="226.6666666666667"/></clipPath><clipPath class="axesclip" id="clip3cdeb0x4y5"><rect x="377" y="893.3333333333334" width="242.99999999999997" height="226.66666666666669"/></clipPath><clipPath class="axesclip" id="clip3cdeb0x4y6"><rect x="377" y="893.3333333333334" width="242.99999999999997" height="226.66666666666669"/></clipPath><clipPath class="axesclip" id="clip3cdeb0x5"><rect x="80" y="0" width="243" height="1200"/></clipPath><clipPath class="axesclip" id="clip3cdeb0x5y"><rect x="80" y="100" width="243" height="226.66666666666666"/></clipPath><clipPath class="axesclip" id="clip3cdeb0x5y2"><rect x="80" y="100" width="243" height="226.66666666666666"/></clipPath><clipPath class="axesclip" id="clip3cdeb0x5y3"><rect x="80" y="496.66666666666663" width="243" height="226.6666666666667"/></clipPath><clipPath class="axesclip" id="clip3cdeb0x5y4"><rect x="80" y="496.66666666666663" width="243" height="226.6666666666667"/></clipPath><clipPath class="axesclip" id="clip3cdeb0x5y5"><rect x="80" y="893.3333333333334" width="243" height="226.66666666666669"/></clipPath><clipPath class="axesclip" id="clip3cdeb0x5y6"><rect x="80" y="893.3333333333334" width="243" height="226.66666666666669"/></clipPath><clipPath class="axesclip" id="clip3cdeb0x6"><rect x="377" y="0" width="242.99999999999997" height="1200"/></clipPath><clipPath class="axesclip" id="clip3cdeb0x6y"><rect x="377" y="100" width="242.99999999999997" height="226.66666666666666"/></clipPath><clipPath class="axesclip" id="clip3cdeb0x6y2"><rect x="377" y="100" width="242.99999999999997" height="226.66666666666666"/></clipPath><clipPath class="axesclip" id="clip3cdeb0x6y3"><rect x="377" y="496.66666666666663" width="242.99999999999997" height="226.6666666666667"/></clipPath><clipPath class="axesclip" id="clip3cdeb0x6y4"><rect x="377" y="496.66666666666663" width="242.99999999999997" height="226.6666666666667"/></clipPath><clipPath class="axesclip" id="clip3cdeb0x6y5"><rect x="377" y="893.3333333333334" width="242.99999999999997" height="226.66666666666669"/></clipPath><clipPath class="axesclip" id="clip3cdeb0x6y6"><rect x="377" y="893.3333333333334" width="242.99999999999997" height="226.66666666666669"/></clipPath></g><g class="gradients"/></defs><g class="bglayer"><rect class="bg" x="80" y="100" width="243" height="226.66666666666666" style="fill: rgb(229, 236, 246); fill-opacity: 1; stroke-width: 0;"/><rect class="bg" x="377" y="100" width="242.99999999999997" height="226.66666666666666" style="fill: rgb(229, 236, 246); fill-opacity: 1; stroke-width: 0;"/><rect class="bg" x="80" y="496.66666666666663" width="243" height="226.6666666666667" style="fill: rgb(229, 236, 246); fill-opacity: 1; stroke-width: 0;"/><rect class="bg" x="377" y="496.66666666666663" width="242.99999999999997" height="226.6666666666667" style="fill: rgb(229, 236, 246); fill-opacity: 1; stroke-width: 0;"/><rect class="bg" x="80" y="893.3333333333334" width="243" height="226.66666666666669" style="fill: rgb(229, 236, 246); fill-opacity: 1; stroke-width: 0;"/><rect class="bg" x="377" y="893.3333333333334" width="242.99999999999997" height="226.66666666666669" style="fill: rgb(229, 236, 246); fill-opacity: 1; stroke-width: 0;"/></g><g class="layer-below"><g class="imagelayer"/><g class="shapelayer"/></g><g class="cartesianlayer"><g class="subplot xy"><g class="layer-subplot"><g class="shapelayer"/><g class="imagelayer"/></g><g class="gridlayer"><g class="x"><path class="xgrid crisp" transform="translate(117.61,0)" d="M0,100v226.66666666666666" style="stroke: rgb(255, 255, 255); stroke-opacity: 1; stroke-width: 1px;"/><path class="xgrid crisp" transform="translate(176.43,0)" d="M0,100v226.66666666666666" style="stroke: rgb(255, 255, 255); stroke-opacity: 1; stroke-width: 1px;"/><path class="xgrid crisp" transform="translate(235.25,0)" d="M0,100v226.66666666666666" style="stroke: rgb(255, 255, 255); stroke-opacity: 1; stroke-width: 1px;"/><path class="xgrid crisp" transform="translate(295.03999999999996,0)" d="M0,100v226.66666666666666" style="stroke: rgb(255, 255, 255); stroke-opacity: 1; stroke-width: 1px;"/></g><g class="y"><path class="ygrid crisp" transform="translate(0,255.21)" d="M80,0h243" style="stroke: rgb(255, 255, 255); stroke-opacity: 1; stroke-width: 1px;"/><path class="ygrid crisp" transform="translate(0,195.09)" d="M80,0h243" style="stroke: rgb(255, 255, 255); stroke-opacity: 1; stroke-width: 1px;"/><path class="ygrid crisp" transform="translate(0,134.96)" d="M80,0h243" style="stroke: rgb(255, 255, 255); stroke-opacity: 1; stroke-width: 1px;"/></g></g><g class="zerolinelayer"><path class="yzl zl crisp" transform="translate(0,315.34000000000003)" d="M80,0h243" style="stroke: rgb(255, 255, 255); stroke-opacity: 1; stroke-width: 2px;"/></g><path class="xlines-below"/><path class="ylines-below"/><g class="overlines-below"/><g class="xaxislayer-below"/><g class="yaxislayer-below"/><g class="overaxes-below"/><g class="plot" transform="translate(80, 100)" clip-path="url('#clip3cdeb0xyplot')"><g class="scatterlayer mlayer"><g class="trace scatter tracecc392d" style="stroke-miterlimit: 2; opacity: 1;"><g class="fills"/><g class="errorbars"/><g class="lines"><path class="js-line" d="M0,215.33L48.21,214.59L49.18,214.5L57.86,213.33L58.82,213.07L65.57,210.59L66.54,210.13L102.21,192.23L103.18,191.68L120.54,181.77L121.5,181.16L142.71,164.56L143.68,163.47L154.29,152.66L155.25,151.35L173.57,127.06L174.54,125.65L186.11,106.84L187.07,105.62L223.71,46.23L224.68,44.3L242.04,13.3L243,11.33" style="vector-effect: non-scaling-stroke; fill: none; stroke: rgb(0, 123, 255); stroke-opacity: 1; stroke-width: 2px; opacity: 1;"/></g><g class="points"/><g class="text"/></g></g></g><g class="overplot"/><path class="xlines-above crisp" d="M79,327.16666666666663H323" style="fill: none; stroke-width: 1px; stroke: rgb(255, 255, 255); stroke-opacity: 1;"/><path class="ylines-above crisp" d="M79.5,100V326.66666666666663" style="fill: none; stroke-width: 1px; stroke: rgb(255, 255, 255); stroke-opacity: 1;"/><g class="overlines-above"/><g class="xaxislayer-above"><g class="xtick"><text text-anchor="start" x="0" y="342.0666666666666" transform="translate(117.61,0) rotate(30,0,336.0666666666666)" style="font-family: 'Open Sans', verdana, arial, sans-serif; font-size: 12px; fill: rgb(42, 63, 95); fill-opacity: 1; white-space: pre;">Mar 2020</text></g><g class="xtick"><text text-anchor="start" x="0" y="342.0666666666666" transform="translate(176.43,0) rotate(30,0,336.0666666666666)" style="font-family: 'Open Sans', verdana, arial, sans-serif; font-size: 12px; fill: rgb(42, 63, 95); fill-opacity: 1; white-space: pre;">May 2020</text></g><g class="xtick"><text text-anchor="start" x="0" y="342.0666666666666" transform="translate(235.25,0) rotate(30,0,336.0666666666666)" style="font-family: 'Open Sans', verdana, arial, sans-serif; font-size: 12px; fill: rgb(42, 63, 95); fill-opacity: 1; white-space: pre;">Jul 2020</text></g><g class="xtick"><text text-anchor="start" x="0" y="342.0666666666666" transform="translate(295.03999999999996,0) rotate(30,0,336.0666666666666)" style="font-family: 'Open Sans', verdana, arial, sans-serif; font-size: 12px; fill: rgb(42, 63, 95); fill-opacity: 1; white-space: pre;">Sep 2020</text></g></g><g class="yaxislayer-above"><g class="ytick"><text text-anchor="end" x="76.6" y="4.199999999999999" transform="translate(0,315.34000000000003)" style="font-family: 'Open Sans', verdana, arial, sans-serif; font-size: 12px; fill: rgb(42, 63, 95); fill-opacity: 1; white-space: pre;">0</text></g><g class="ytick"><text text-anchor="end" x="76.6" y="4.199999999999999" transform="translate(0,255.21)" style="font-family: 'Open Sans', verdana, arial, sans-serif; font-size: 12px; fill: rgb(42, 63, 95); fill-opacity: 1; white-space: pre;">10M</text></g><g class="ytick"><text text-anchor="end" x="76.6" y="4.199999999999999" transform="translate(0,195.09)" style="font-family: 'Open Sans', verdana, arial, sans-serif; font-size: 12px; fill: rgb(42, 63, 95); fill-opacity: 1; white-space: pre;">20M</text></g><g class="ytick"><text text-anchor="end" x="76.6" y="4.199999999999999" transform="translate(0,134.96)" style="font-family: 'Open Sans', verdana, arial, sans-serif; font-size: 12px; fill: rgb(42, 63, 95); fill-opacity: 1; white-space: pre;">30M</text></g></g><g class="overaxes-above"/></g><g class="subplot x2y2"><g class="layer-subplot"><g class="shapelayer"/><g class="imagelayer"/></g><g class="gridlayer"><g class="x2"><path class="x2grid crisp" transform="translate(414.61,0)" d="M0,100v226.66666666666666" style="stroke: rgb(255, 255, 255); stroke-opacity: 1; stroke-width: 1px;"/><path class="x2grid crisp" transform="translate(473.43,0)" d="M0,100v226.66666666666666" style="stroke: rgb(255, 255, 255); stroke-opacity: 1; stroke-width: 1px;"/><path class="x2grid crisp" transform="translate(532.25,0)" d="M0,100v226.66666666666666" style="stroke: rgb(255, 255, 255); stroke-opacity: 1; stroke-width: 1px;"/><path class="x2grid crisp" transform="translate(592.04,0)" d="M0,100v226.66666666666666" style="stroke: rgb(255, 255, 255); stroke-opacity: 1; stroke-width: 1px;"/></g><g class="y2"><path class="y2grid crisp" transform="translate(0,271.89)" d="M377,0h242.99999999999997" style="stroke: rgb(255, 255, 255); stroke-opacity: 1; stroke-width: 1px;"/><path class="y2grid crisp" transform="translate(0,228.44)" d="M377,0h242.99999999999997" style="stroke: rgb(255, 255, 255); stroke-opacity: 1; stroke-width: 1px;"/><path class="y2grid crisp" transform="translate(0,184.99)" d="M377,0h242.99999999999997" style="stroke: rgb(255, 255, 255); stroke-opacity: 1; stroke-width: 1px;"/><path class="y2grid crisp" transform="translate(0,141.54)" d="M377,0h242.99999999999997" style="stroke: rgb(255, 255, 255); stroke-opacity: 1; stroke-width: 1px;"/></g></g><g class="zerolinelayer"><path class="y2zl zl crisp" transform="translate(0,315.34000000000003)" d="M377,0h242.99999999999997" style="stroke: rgb(255, 255, 255); stroke-opacity: 1; stroke-width: 2px;"/></g><path class="xlines-below"/><path class="ylines-below"/><g class="overlines-below"/><g class="xaxislayer-below"/><g class="yaxislayer-below"/><g class="overaxes-below"/><g class="plot" transform="translate(377, 100)" clip-path="url('#clip3cdeb0x2y2plot')"><g class="scatterlayer mlayer"><g class="trace scatter trace5fd53f" style="stroke-miterlimit: 2; opacity: 1;"><g class="fills"/><g class="errorbars"/><g class="lines"><path class="js-line" d="M0,215.33L16.39,214.61L17.36,214.56L33.75,214.32L34.71,214.37L46.29,214.41L47.25,214.31L53.04,213.07L54,212.71L59.79,208.85L60.75,207.91L84.86,179.65L85.82,178.62L91.61,173.21L92.57,172.38L114.75,154.08L115.71,152.99L116.68,153.12L117.64,152.11L129.21,142.58L130.18,141.33L132.11,138.86L133.07,140L137.89,135.08L138.86,133.8L142.71,130.61L143.68,128.86L147.54,124.67L148.5,123.57L153.32,115.8L154.29,114.67L155.25,112.57L156.21,114.36L157.18,112.43L158.14,112.56L163.93,104.21L164.89,102.34L177.43,81.49L178.39,80.82L186.11,68.64L187.07,69.16L189,67.58L189.96,65.62L192.86,61.75L193.82,60.49L194.79,61.71L195.75,61.08L196.71,58.59L197.68,58.38L198.64,56.77L199.61,57.27L201.54,56.95L202.5,55.87L205.39,51.58L206.36,51.87L209.25,50.09L210.21,48.54L212.14,45.92L213.11,45.62L218.89,38.56L219.86,38.38L222.75,36.19L223.71,34.51L225.64,31.45L226.61,30.42L229.5,26.73L230.46,24.79L232.39,22.51L233.36,22.47L235.29,20.13L236.25,20.19L239.14,15.42L240.11,14.9L243,11.33" style="vector-effect: non-scaling-stroke; fill: none; stroke: rgb(255, 7, 58); stroke-opacity: 1; stroke-width: 2px; opacity: 1;"/></g><g class="points"/><g class="text"/></g></g></g><g class="overplot"/><path class="xlines-above crisp" d="M376,327.16666666666663H620" style="fill: none; stroke-width: 1px; stroke: rgb(255, 255, 255); stroke-opacity: 1;"/><path class="ylines-above crisp" d="M376.5,100V326.66666666666663" style="fill: none; stroke-width: 1px; stroke: rgb(255, 255, 255); stroke-opacity: 1;"/><g class="overlines-above"/><g class="xaxislayer-above"><g class="x2tick"><text text-anchor="start" x="0" y="342.0666666666666" transform="translate(414.61,0) rotate(30,0,336.0666666666666)" style="font-family: 'Open Sans', verdana, arial, sans-serif; font-size: 12px; fill: rgb(42, 63, 95); fill-opacity: 1; white-space: pre;">Mar 2020</text></g><g class="x2tick"><text text-anchor="start" x="0" y="342.0666666666666" transform="translate(473.43,0) rotate(30,0,336.0666666666666)" style="font-family: 'Open Sans', verdana, arial, sans-serif; font-size: 12px; fill: rgb(42, 63, 95); fill-opacity: 1; white-space: pre;">May 2020</text></g><g class="x2tick"><text text-anchor="start" x="0" y="342.0666666666666" transform="translate(532.25,0) rotate(30,0,336.0666666666666)" style="font-family: 'Open Sans', verdana, arial, sans-serif; font-size: 12px; fill: rgb(42, 63, 95); fill-opacity: 1; white-space: pre;">Jul 2020</text></g><g class="x2tick"><text text-anchor="start" x="0" y="342.0666666666666" transform="translate(592.04,0) rotate(30,0,336.0666666666666)" style="font-family: 'Open Sans', verdana, arial, sans-serif; font-size: 12px; fill: rgb(42, 63, 95); fill-opacity: 1; white-space: pre;">Sep 2020</text></g></g><g class="yaxislayer-above"><g class="y2tick"><text text-anchor="end" x="373.6" y="4.199999999999999" transform="translate(0,315.34000000000003)" style="font-family: 'Open Sans', verdana, arial, sans-serif; font-size: 12px; fill: rgb(42, 63, 95); fill-opacity: 1; white-space: pre;">0</text></g><g class="y2tick"><text text-anchor="end" x="373.6" y="4.199999999999999" transform="translate(0,271.89)" style="font-family: 'Open Sans', verdana, arial, sans-serif; font-size: 12px; fill: rgb(42, 63, 95); fill-opacity: 1; white-space: pre;">2M</text></g><g class="y2tick"><text text-anchor="end" x="373.6" y="4.199999999999999" transform="translate(0,228.44)" style="font-family: 'Open Sans', verdana, arial, sans-serif; font-size: 12px; fill: rgb(42, 63, 95); fill-opacity: 1; white-space: pre;">4M</text></g><g class="y2tick"><text text-anchor="end" x="373.6" y="4.199999999999999" transform="translate(0,184.99)" style="font-family: 'Open Sans', verdana, arial, sans-serif; font-size: 12px; fill: rgb(42, 63, 95); fill-opacity: 1; white-space: pre;">6M</text></g><g class="y2tick"><text text-anchor="end" x="373.6" y="4.199999999999999" transform="translate(0,141.54)" style="font-family: 'Open Sans', verdana, arial, sans-serif; font-size: 12px; fill: rgb(42, 63, 95); fill-opacity: 1; white-space: pre;">8M</text></g></g><g class="overaxes-above"/></g><g class="subplot x3y3"><g class="layer-subplot"><g class="shapelayer"/><g class="imagelayer"/></g><g class="gridlayer"><g class="x3"><path class="x3grid crisp" transform="translate(117.61,0)" d="M0,496.66666666666663v226.6666666666667" style="stroke: rgb(255, 255, 255); stroke-opacity: 1; stroke-width: 1px;"/><path class="x3grid crisp" transform="translate(176.43,0)" d="M0,496.66666666666663v226.6666666666667" style="stroke: rgb(255, 255, 255); stroke-opacity: 1; stroke-width: 1px;"/><path class="x3grid crisp" transform="translate(235.25,0)" d="M0,496.66666666666663v226.6666666666667" style="stroke: rgb(255, 255, 255); stroke-opacity: 1; stroke-width: 1px;"/><path class="x3grid crisp" transform="translate(295.03999999999996,0)" d="M0,496.66666666666663v226.6666666666667" style="stroke: rgb(255, 255, 255); stroke-opacity: 1; stroke-width: 1px;"/></g><g class="y3"><path class="y3grid crisp" transform="translate(0,668.7866666666666)" d="M80,0h243" style="stroke: rgb(255, 255, 255); stroke-opacity: 1; stroke-width: 1px;"/><path class="y3grid crisp" transform="translate(0,625.5766666666666)" d="M80,0h243" style="stroke: rgb(255, 255, 255); stroke-opacity: 1; stroke-width: 1px;"/><path class="y3grid crisp" transform="translate(0,582.3666666666667)" d="M80,0h243" style="stroke: rgb(255, 255, 255); stroke-opacity: 1; stroke-width: 1px;"/><path class="y3grid crisp" transform="translate(0,539.1466666666666)" d="M80,0h243" style="stroke: rgb(255, 255, 255); stroke-opacity: 1; stroke-width: 1px;"/></g></g><g class="zerolinelayer"><path class="y3zl zl crisp" transform="translate(0,711.9966666666667)" d="M80,0h243" style="stroke: rgb(255, 255, 255); stroke-opacity: 1; stroke-width: 2px;"/></g><path class="xlines-below"/><path class="ylines-below"/><g class="overlines-below"/><g class="xaxislayer-below"/><g class="yaxislayer-below"/><g class="overaxes-below"/><g class="plot" transform="translate(80, 496.66666666666663)" clip-path="url('#clip3cdeb0x3y3plot')"><g class="scatterlayer mlayer"><g class="trace scatter trace91f9cf" style="stroke-miterlimit: 2; opacity: 1;"><g class="fills"/><g class="errorbars"/><g class="lines"><path class="js-line" d="M0,215.33L55.93,214.59L56.89,214.55L69.43,213.44L70.39,213.26L78.11,211.76L79.07,211.52L92.57,207.87L93.54,207.58L115.71,198.62L116.68,197.68L126.32,192.18L127.29,191.28L140.79,181.28L141.75,180.25L148.5,174.45L149.46,173.65L155.25,168.21L156.21,165.75L160.07,161.02L161.04,159.76L166.82,152.77L167.79,151.55L177.43,137.35L178.39,135.45L182.25,129.53L183.21,127.61L196.71,103.24L197.68,100.78L200.57,95.5L201.54,93.53L236.25,25.66L237.21,23.46L243,11.33" style="vector-effect: non-scaling-stroke; fill: none; stroke: rgb(40, 167, 69); stroke-opacity: 1; stroke-width: 2px; opacity: 1;"/></g><g class="points"/><g class="text"/></g></g></g><g class="overplot"/><path class="xlines-above crisp" d="M79,723.8333333333334H323" style="fill: none; stroke-width: 1px; stroke: rgb(255, 255, 255); stroke-opacity: 1;"/><path class="ylines-above crisp" d="M79.5,496.66666666666663V723.3333333333334" style="fill: none; stroke-width: 1px; stroke: rgb(255, 255, 255); stroke-opacity: 1;"/><g class="overlines-above"/><g class="xaxislayer-above"><g class="x3tick"><text text-anchor="start" x="0" y="738.7333333333333" transform="translate(117.61,0) rotate(30,0,732.7333333333333)" style="font-family: 'Open Sans', verdana, arial, sans-serif; font-size: 12px; fill: rgb(42, 63, 95); fill-opacity: 1; white-space: pre;">Mar 2020</text></g><g class="x3tick"><text text-anchor="start" x="0" y="738.7333333333333" transform="translate(176.43,0) rotate(30,0,732.7333333333333)" style="font-family: 'Open Sans', verdana, arial, sans-serif; font-size: 12px; fill: rgb(42, 63, 95); fill-opacity: 1; white-space: pre;">May 2020</text></g><g class="x3tick"><text text-anchor="start" x="0" y="738.7333333333333" transform="translate(235.25,0) rotate(30,0,732.7333333333333)" style="font-family: 'Open Sans', verdana, arial, sans-serif; font-size: 12px; fill: rgb(42, 63, 95); fill-opacity: 1; white-space: pre;">Jul 2020</text></g><g class="x3tick"><text text-anchor="start" x="0" y="738.7333333333333" transform="translate(295.03999999999996,0) rotate(30,0,732.7333333333333)" style="font-family: 'Open Sans', verdana, arial, sans-serif; font-size: 12px; fill: rgb(42, 63, 95); fill-opacity: 1; white-space: pre;">Sep 2020</text></g></g><g class="yaxislayer-above"><g class="y3tick"><text text-anchor="end" x="76.6" y="4.199999999999999" transform="translate(0,711.9966666666667)" style="font-family: 'Open Sans', verdana, arial, sans-serif; font-size: 12px; fill: rgb(42, 63, 95); fill-opacity: 1; white-space: pre;">0</text></g><g class="y3tick"><text text-anchor="end" x="76.6" y="4.199999999999999" transform="translate(0,668.7866666666666)" style="font-family: 'Open Sans', verdana, arial, sans-serif; font-size: 12px; fill: rgb(42, 63, 95); fill-opacity: 1; white-space: pre;">5M</text></g><g class="y3tick"><text text-anchor="end" x="76.6" y="4.199999999999999" transform="translate(0,625.5766666666666)" style="font-family: 'Open Sans', verdana, arial, sans-serif; font-size: 12px; fill: rgb(42, 63, 95); fill-opacity: 1; white-space: pre;">10M</text></g><g class="y3tick"><text text-anchor="end" x="76.6" y="4.199999999999999" transform="translate(0,582.3666666666667)" style="font-family: 'Open Sans', verdana, arial, sans-serif; font-size: 12px; fill: rgb(42, 63, 95); fill-opacity: 1; white-space: pre;">15M</text></g><g class="y3tick"><text text-anchor="end" x="76.6" y="4.199999999999999" transform="translate(0,539.1466666666666)" style="font-family: 'Open Sans', verdana, arial, sans-serif; font-size: 12px; fill: rgb(42, 63, 95); fill-opacity: 1; white-space: pre;">20M</text></g></g><g class="overaxes-above"/></g><g class="subplot x4y4"><g class="layer-subplot"><g class="shapelayer"/><g class="imagelayer"/></g><g class="gridlayer"><g class="x4"><path class="x4grid crisp" transform="translate(414.61,0)" d="M0,496.66666666666663v226.6666666666667" style="stroke: rgb(255, 255, 255); stroke-opacity: 1; stroke-width: 1px;"/><path class="x4grid crisp" transform="translate(473.43,0)" d="M0,496.66666666666663v226.6666666666667" style="stroke: rgb(255, 255, 255); stroke-opacity: 1; stroke-width: 1px;"/><path class="x4grid crisp" transform="translate(532.25,0)" d="M0,496.66666666666663v226.6666666666667" style="stroke: rgb(255, 255, 255); stroke-opacity: 1; stroke-width: 1px;"/><path class="x4grid crisp" transform="translate(592.04,0)" d="M0,496.66666666666663v226.6666666666667" style="stroke: rgb(255, 255, 255); stroke-opacity: 1; stroke-width: 1px;"/></g><g class="y4"><path class="y4grid crisp" transform="translate(0,668.3866666666667)" d="M377,0h242.99999999999997" style="stroke: rgb(255, 255, 255); stroke-opacity: 1; stroke-width: 1px;"/><path class="y4grid crisp" transform="translate(0,624.7766666666666)" d="M377,0h242.99999999999997" style="stroke: rgb(255, 255, 255); stroke-opacity: 1; stroke-width: 1px;"/><path class="y4grid crisp" transform="translate(0,581.1566666666666)" d="M377,0h242.99999999999997" style="stroke: rgb(255, 255, 255); stroke-opacity: 1; stroke-width: 1px;"/><path class="y4grid crisp" transform="translate(0,537.5466666666666)" d="M377,0h242.99999999999997" style="stroke: rgb(255, 255, 255); stroke-opacity: 1; stroke-width: 1px;"/></g></g><g class="zerolinelayer"><path class="y4zl zl crisp" transform="translate(0,712.0066666666667)" d="M377,0h242.99999999999997" style="stroke: rgb(255, 255, 255); stroke-opacity: 1; stroke-width: 2px;"/></g><path class="xlines-below"/><path class="ylines-below"/><g class="overlines-below"/><g class="xaxislayer-below"/><g class="yaxislayer-below"/><g class="overaxes-below"/><g class="plot" transform="translate(377, 496.66666666666663)" clip-path="url('#clip3cdeb0x4y4plot')"><g class="scatterlayer mlayer"><g class="trace scatter tracee651d9" style="stroke-miterlimit: 2; opacity: 1;"><g class="fills"/><g class="errorbars"/><g class="lines"><path class="js-line" d="M0,215.33L43.39,214.58L44.36,214.53L54.96,213.38L55.93,213.11L62.68,210.41L63.64,209.81L67.5,206.82L68.46,205.72L75.21,197.18L76.18,195.76L96.43,170.15L97.39,169.12L100.29,166.41L101.25,165.13L109.93,156.54L110.89,155.71L114.75,152.36L115.71,151.39L124.39,143.88L125.36,143.31L128.25,140.58L129.21,139.52L138.86,131.07L139.82,130.4L143.68,125.93L144.64,125.08L154.29,116.13L155.25,115.13L165.86,104.4L166.82,103.63L175.5,93.15L176.46,91.05L186.11,79.46L187.07,78.56L192.86,70.84L193.82,69.81L203.46,56.68L204.43,55.52L218.89,38.8L219.86,38.02L222.75,33.75L223.71,32.56L231.43,23.98L232.39,22.9L236.25,19.02L237.21,17.64L243,11.33" style="vector-effect: non-scaling-stroke; fill: none; stroke: rgb(108, 117, 125); stroke-opacity: 1; stroke-width: 2px; opacity: 1;"/></g><g class="points"/><g class="text"/></g></g></g><g class="overplot"/><path class="xlines-above crisp" d="M376,723.8333333333334H620" style="fill: none; stroke-width: 1px; stroke: rgb(255, 255, 255); stroke-opacity: 1;"/><path class="ylines-above crisp" d="M376.5,496.66666666666663V723.3333333333334" style="fill: none; stroke-width: 1px; stroke: rgb(255, 255, 255); stroke-opacity: 1;"/><g class="overlines-above"/><g class="xaxislayer-above"><g class="x4tick"><text text-anchor="start" x="0" y="738.7333333333333" transform="translate(414.61,0) rotate(30,0,732.7333333333333)" style="font-family: 'Open Sans', verdana, arial, sans-serif; font-size: 12px; fill: rgb(42, 63, 95); fill-opacity: 1; white-space: pre;">Mar 2020</text></g><g class="x4tick"><text text-anchor="start" x="0" y="738.7333333333333" transform="translate(473.43,0) rotate(30,0,732.7333333333333)" style="font-family: 'Open Sans', verdana, arial, sans-serif; font-size: 12px; fill: rgb(42, 63, 95); fill-opacity: 1; white-space: pre;">May 2020</text></g><g class="x4tick"><text text-anchor="start" x="0" y="738.7333333333333" transform="translate(532.25,0) rotate(30,0,732.7333333333333)" style="font-family: 'Open Sans', verdana, arial, sans-serif; font-size: 12px; fill: rgb(42, 63, 95); fill-opacity: 1; white-space: pre;">Jul 2020</text></g><g class="x4tick"><text text-anchor="start" x="0" y="738.7333333333333" transform="translate(592.04,0) rotate(30,0,732.7333333333333)" style="font-family: 'Open Sans', verdana, arial, sans-serif; font-size: 12px; fill: rgb(42, 63, 95); fill-opacity: 1; white-space: pre;">Sep 2020</text></g></g><g class="yaxislayer-above"><g class="y4tick"><text text-anchor="end" x="373.6" y="4.199999999999999" transform="translate(0,712.0066666666667)" style="font-family: 'Open Sans', verdana, arial, sans-serif; font-size: 12px; fill: rgb(42, 63, 95); fill-opacity: 1; white-space: pre;">0</text></g><g class="y4tick"><text text-anchor="end" x="373.6" y="4.199999999999999" transform="translate(0,668.3866666666667)" style="font-family: 'Open Sans', verdana, arial, sans-serif; font-size: 12px; fill: rgb(42, 63, 95); fill-opacity: 1; white-space: pre;">0.2M</text></g><g class="y4tick"><text text-anchor="end" x="373.6" y="4.199999999999999" transform="translate(0,624.7766666666666)" style="font-family: 'Open Sans', verdana, arial, sans-serif; font-size: 12px; fill: rgb(42, 63, 95); fill-opacity: 1; white-space: pre;">0.4M</text></g><g class="y4tick"><text text-anchor="end" x="373.6" y="4.199999999999999" transform="translate(0,581.1566666666666)" style="font-family: 'Open Sans', verdana, arial, sans-serif; font-size: 12px; fill: rgb(42, 63, 95); fill-opacity: 1; white-space: pre;">0.6M</text></g><g class="y4tick"><text text-anchor="end" x="373.6" y="4.199999999999999" transform="translate(0,537.5466666666666)" style="font-family: 'Open Sans', verdana, arial, sans-serif; font-size: 12px; fill: rgb(42, 63, 95); fill-opacity: 1; white-space: pre;">0.8M</text></g></g><g class="overaxes-above"/></g><g class="subplot x5y5"><g class="layer-subplot"><g class="shapelayer"/><g class="imagelayer"/></g><g class="gridlayer"><g class="x5"><path class="x5grid crisp" transform="translate(117.61,0)" d="M0,893.3333333333334v226.66666666666669" style="stroke: rgb(255, 255, 255); stroke-opacity: 1; stroke-width: 1px;"/><path class="x5grid crisp" transform="translate(176.43,0)" d="M0,893.3333333333334v226.66666666666669" style="stroke: rgb(255, 255, 255); stroke-opacity: 1; stroke-width: 1px;"/><path class="x5grid crisp" transform="translate(235.25,0)" d="M0,893.3333333333334v226.66666666666669" style="stroke: rgb(255, 255, 255); stroke-opacity: 1; stroke-width: 1px;"/><path class="x5grid crisp" transform="translate(295.03999999999996,0)" d="M0,893.3333333333334v226.66666666666669" style="stroke: rgb(255, 255, 255); stroke-opacity: 1; stroke-width: 1px;"/></g><g class="y5"><path class="y5grid crisp" transform="translate(0,1052.1133333333335)" d="M80,0h243" style="stroke: rgb(255, 255, 255); stroke-opacity: 1; stroke-width: 1px;"/><path class="y5grid crisp" transform="translate(0,995.5633333333334)" d="M80,0h243" style="stroke: rgb(255, 255, 255); stroke-opacity: 1; stroke-width: 1px;"/><path class="y5grid crisp" transform="translate(0,939.0033333333333)" d="M80,0h243" style="stroke: rgb(255, 255, 255); stroke-opacity: 1; stroke-width: 1px;"/></g></g><g class="zerolinelayer"><path class="y5zl zl crisp" transform="translate(0,1108.6633333333334)" d="M80,0h243" style="stroke: rgb(255, 255, 255); stroke-opacity: 1; stroke-width: 2px;"/></g><path class="xlines-below"/><path class="ylines-below"/><g class="overlines-below"/><g class="xaxislayer-below"/><g class="yaxislayer-below"/><g class="overaxes-below"/><g class="plot" transform="translate(80, 893.3333333333334)" clip-path="url('#clip3cdeb0x5y5plot')"><g class="scatterlayer mlayer"><g class="trace scatter trace4c52e4" style="stroke-miterlimit: 2; opacity: 1;"><g class="fills"/><g class="errorbars"/><g class="lines"><path class="js-line" d="M0,215.33L4.82,214.88L5.79,213.83L6.75,215L7.71,214.16L9.64,214.14L10.61,212.65L11.57,213.58L12.54,213.07L19.29,214.18L20.25,215.1L21.21,206.76L22.18,211.64L23.14,214.12L24.11,214.1L28.93,215.03L29.89,214.47L31.82,215.15L32.79,214.93L40.5,214.27L41.46,214.03L43.39,213.29L44.36,213.25L46.29,212.52L47.25,211.13L48.21,212.12L49.18,207.27L50.14,209.13L51.11,208.99L54,204.35L54.96,200.06L56.89,197.34L57.86,196.06L58.82,190.84L59.79,191.9L62.68,178.65L63.64,177.31L64.61,181.78L65.57,178.52L66.54,171.92L67.5,172.19L69.43,168.31L70.39,169.95L71.36,174.73L72.32,173.92L75.21,166.48L76.18,165.85L77.14,172.2L78.11,161.46L79.07,175.6L80.04,174.97L81.96,160.59L82.93,165.62L83.89,173.88L84.86,170.12L85.82,173.16L86.79,172.46L88.71,165.52L89.68,162.03L92.57,175.99L93.54,172.55L96.43,166.1L97.39,169.82L98.36,172.1L99.32,171.86L100.29,169.78L101.25,164.55L103.18,162.92L104.14,167.38L105.11,172.72L106.07,171.84L107.04,167.75L108,167.3L108.96,160.79L109.93,161.06L110.89,162.09L111.86,171.6L114.75,157.22L115.71,155.43L116.68,155.13L117.64,156.15L119.57,166.25L120.54,162.69L122.46,147.97L123.43,146.97L124.39,137.96L125.36,154.99L126.32,161.26L127.29,146.55L128.25,148.58L129.21,143.71L131.14,138.87L132.11,152.19L133.07,157.39L134.04,144.96L135.96,137.57L136.93,142.51L137.89,138.8L138.86,140.14L139.82,147.76L140.79,135.22L141.75,134.99L142.71,136.23L143.68,113.52L144.64,126.27L145.61,142.64L146.57,137.33L148.5,118.42L149.46,114.94L150.43,107.19L151.39,114.35L153.32,126.91L154.29,117.02L155.25,92.69L156.21,98.05L157.18,100.41L158.14,105.77L160.07,121.5L161.04,96.14L162,95.63L162.96,86.45L163.93,83.98L164.89,93.08L165.86,106.51L166.82,106.75L168.75,84.75L169.71,72.57L171.64,81.03L172.61,94.05L173.57,98.79L174.54,83.13L175.5,56.8L176.46,55.52L177.43,56.44L178.39,70.89L179.36,94.92L180.32,87.44L182.25,51.98L183.21,56.73L184.18,51.44L185.14,73.63L187.07,101L188.04,69.19L189.96,54.04L190.93,56.59L192.86,88.68L193.82,86.73L195.75,58.7L196.71,53.77L197.68,43.31L198.64,75.24L199.61,95.4L200.57,97.2L202.5,60.83L203.46,64.49L204.43,62.56L205.39,65.41L206.36,98.98L207.32,87.59L208.29,78.68L209.25,52.78L210.21,57.66L211.18,55.63L213.11,87.57L214.07,67.22L215.04,65.69L216,56.05L216.96,56.68L217.93,38.41L219.86,89.71L220.82,78.65L221.79,83.51L222.75,50.36L223.71,46.5L224.68,34.57L226.61,81.71L227.57,57.48L228.54,55.13L229.5,43.34L231.43,32.63L232.39,56.37L233.36,79L234.32,46.35L236.25,64.93L237.21,11.33L238.18,26.06L239.14,58.23L240.11,80.95L241.07,59.36L242.04,52.59L243,30.75" style="vector-effect: non-scaling-stroke; fill: none; stroke: rgb(254, 152, 1); stroke-opacity: 1; stroke-width: 2px; opacity: 1;"/></g><g class="points"/><g class="text"/></g></g></g><g class="overplot"/><path class="xlines-above crisp" d="M79,1120.5H323" style="fill: none; stroke-width: 1px; stroke: rgb(255, 255, 255); stroke-opacity: 1;"/><path class="ylines-above crisp" d="M79.5,893.3333333333334V1120" style="fill: none; stroke-width: 1px; stroke: rgb(255, 255, 255); stroke-opacity: 1;"/><g class="overlines-above"/><g class="xaxislayer-above"><g class="x5tick"><text text-anchor="start" x="0" y="1135.4" transform="translate(117.61,0) rotate(30,0,1129.4)" style="font-family: 'Open Sans', verdana, arial, sans-serif; font-size: 12px; fill: rgb(42, 63, 95); fill-opacity: 1; white-space: pre;">Mar 2020</text></g><g class="x5tick"><text text-anchor="start" x="0" y="1135.4" transform="translate(176.43,0) rotate(30,0,1129.4)" style="font-family: 'Open Sans', verdana, arial, sans-serif; font-size: 12px; fill: rgb(42, 63, 95); fill-opacity: 1; white-space: pre;">May 2020</text></g><g class="x5tick"><text text-anchor="start" x="0" y="1135.4" transform="translate(235.25,0) rotate(30,0,1129.4)" style="font-family: 'Open Sans', verdana, arial, sans-serif; font-size: 12px; fill: rgb(42, 63, 95); fill-opacity: 1; white-space: pre;">Jul 2020</text></g><g class="x5tick"><text text-anchor="start" x="0" y="1135.4" transform="translate(295.03999999999996,0) rotate(30,0,1129.4)" style="font-family: 'Open Sans', verdana, arial, sans-serif; font-size: 12px; fill: rgb(42, 63, 95); fill-opacity: 1; white-space: pre;">Sep 2020</text></g></g><g class="yaxislayer-above"><g class="y5tick"><text text-anchor="end" x="76.6" y="4.199999999999999" transform="translate(0,1108.6633333333334)" style="font-family: 'Open Sans', verdana, arial, sans-serif; font-size: 12px; fill: rgb(42, 63, 95); fill-opacity: 1; white-space: pre;">0</text></g><g class="y5tick"><text text-anchor="end" x="76.6" y="4.199999999999999" transform="translate(0,1052.1133333333335)" style="font-family: 'Open Sans', verdana, arial, sans-serif; font-size: 12px; fill: rgb(42, 63, 95); fill-opacity: 1; white-space: pre;">100k</text></g><g class="y5tick"><text text-anchor="end" x="76.6" y="4.199999999999999" transform="translate(0,995.5633333333334)" style="font-family: 'Open Sans', verdana, arial, sans-serif; font-size: 12px; fill: rgb(42, 63, 95); fill-opacity: 1; white-space: pre;">200k</text></g><g class="y5tick"><text text-anchor="end" x="76.6" y="4.199999999999999" transform="translate(0,939.0033333333333)" style="font-family: 'Open Sans', verdana, arial, sans-serif; font-size: 12px; fill: rgb(42, 63, 95); fill-opacity: 1; white-space: pre;">300k</text></g></g><g class="overaxes-above"/></g><g class="subplot x6y6"><g class="layer-subplot"><g class="shapelayer"/><g class="imagelayer"/></g><g class="gridlayer"><g class="x6"><path class="x6grid crisp" transform="translate(414.61,0)" d="M0,893.3333333333334v226.66666666666669" style="stroke: rgb(255, 255, 255); stroke-opacity: 1; stroke-width: 1px;"/><path class="x6grid crisp" transform="translate(473.43,0)" d="M0,893.3333333333334v226.66666666666669" style="stroke: rgb(255, 255, 255); stroke-opacity: 1; stroke-width: 1px;"/><path class="x6grid crisp" transform="translate(532.25,0)" d="M0,893.3333333333334v226.66666666666669" style="stroke: rgb(255, 255, 255); stroke-opacity: 1; stroke-width: 1px;"/><path class="x6grid crisp" transform="translate(592.04,0)" d="M0,893.3333333333334v226.66666666666669" style="stroke: rgb(255, 255, 255); stroke-opacity: 1; stroke-width: 1px;"/></g><g class="y6"><path class="y6grid crisp" transform="translate(0,1057.0933333333332)" d="M377,0h242.99999999999997" style="stroke: rgb(255, 255, 255); stroke-opacity: 1; stroke-width: 1px;"/><path class="y6grid crisp" transform="translate(0,999.7933333333334)" d="M377,0h242.99999999999997" style="stroke: rgb(255, 255, 255); stroke-opacity: 1; stroke-width: 1px;"/><path class="y6grid crisp" transform="translate(0,942.4833333333333)" d="M377,0h242.99999999999997" style="stroke: rgb(255, 255, 255); stroke-opacity: 1; stroke-width: 1px;"/></g></g><g class="zerolinelayer"><path class="y6zl zl crisp" transform="translate(0,1114.3933333333334)" d="M377,0h242.99999999999997" style="stroke: rgb(255, 255, 255); stroke-opacity: 1; stroke-width: 2px;"/></g><path class="xlines-below"/><path class="ylines-below"/><g class="overlines-below"/><g class="xaxislayer-below"/><g class="yaxislayer-below"/><g class="overaxes-below"/><g class="plot" transform="translate(377, 893.3333333333334)" clip-path="url('#clip3cdeb0x6y6plot')"><g class="scatterlayer mlayer"><g class="trace scatter trace0c8139" style="stroke-miterlimit: 2; opacity: 1;"><g class="fills"/><g class="errorbars"/><g class="lines"><path class="js-line" d="M0,215.33L4.82,203.87L5.79,203.87L9.64,193.56L10.61,193.56L11.57,193.56L12.54,192.41L14.46,192.41L15.43,191.27L21.21,191.27L22.18,190.12L26.04,190.12L27,188.97L27.96,188.97L28.93,186.68L29.89,186.68L30.86,185.54L40.5,129.38L41.46,124.79L42.43,114.48L43.39,113.33L45.32,104.16L46.29,100.73L49.18,83.54L50.14,67.49L57.86,28.52L58.82,27.38L60.75,21.65L61.71,21.65L68.46,14.77L69.43,14.77L70.39,14.77L71.36,12.48L73.29,11.33L74.25,11.33L243,11.33" style="vector-effect: non-scaling-stroke; fill: none; stroke: rgb(255, 15, 128); stroke-opacity: 1; stroke-width: 2px; opacity: 1;"/></g><g class="points"/><g class="text"/></g></g></g><g class="overplot"/><path class="xlines-above crisp" d="M376,1120.5H620" style="fill: none; stroke-width: 1px; stroke: rgb(255, 255, 255); stroke-opacity: 1;"/><path class="ylines-above crisp" d="M376.5,893.3333333333334V1120" style="fill: none; stroke-width: 1px; stroke: rgb(255, 255, 255); stroke-opacity: 1;"/><g class="overlines-above"/><g class="xaxislayer-above"><g class="x6tick"><text text-anchor="start" x="0" y="1135.4" transform="translate(414.61,0) rotate(30,0,1129.4)" style="font-family: 'Open Sans', verdana, arial, sans-serif; font-size: 12px; fill: rgb(42, 63, 95); fill-opacity: 1; white-space: pre;">Mar 2020</text></g><g class="x6tick"><text text-anchor="start" x="0" y="1135.4" transform="translate(473.43,0) rotate(30,0,1129.4)" style="font-family: 'Open Sans', verdana, arial, sans-serif; font-size: 12px; fill: rgb(42, 63, 95); fill-opacity: 1; white-space: pre;">May 2020</text></g><g class="x6tick"><text text-anchor="start" x="0" y="1135.4" transform="translate(532.25,0) rotate(30,0,1129.4)" style="font-family: 'Open Sans', verdana, arial, sans-serif; font-size: 12px; fill: rgb(42, 63, 95); fill-opacity: 1; white-space: pre;">Jul 2020</text></g><g class="x6tick"><text text-anchor="start" x="0" y="1135.4" transform="translate(592.04,0) rotate(30,0,1129.4)" style="font-family: 'Open Sans', verdana, arial, sans-serif; font-size: 12px; fill: rgb(42, 63, 95); fill-opacity: 1; white-space: pre;">Sep 2020</text></g></g><g class="yaxislayer-above"><g class="y6tick"><text text-anchor="end" x="373.6" y="4.199999999999999" transform="translate(0,1114.3933333333334)" style="font-family: 'Open Sans', verdana, arial, sans-serif; font-size: 12px; fill: rgb(42, 63, 95); fill-opacity: 1; white-space: pre;">0</text></g><g class="y6tick"><text text-anchor="end" x="373.6" y="4.199999999999999" transform="translate(0,1057.0933333333332)" style="font-family: 'Open Sans', verdana, arial, sans-serif; font-size: 12px; fill: rgb(42, 63, 95); fill-opacity: 1; white-space: pre;">50</text></g><g class="y6tick"><text text-anchor="end" x="373.6" y="4.199999999999999" transform="translate(0,999.7933333333334)" style="font-family: 'Open Sans', verdana, arial, sans-serif; font-size: 12px; fill: rgb(42, 63, 95); fill-opacity: 1; white-space: pre;">100</text></g><g class="y6tick"><text text-anchor="end" x="373.6" y="4.199999999999999" transform="translate(0,942.4833333333333)" style="font-family: 'Open Sans', verdana, arial, sans-serif; font-size: 12px; fill: rgb(42, 63, 95); fill-opacity: 1; white-space: pre;">150</text></g></g><g class="overaxes-above"/></g></g><g class="polarlayer"/><g class="ternarylayer"/><g class="geolayer"/><g class="funnelarealayer"/><g class="pielayer"/><g class="treemaplayer"/><g class="sunburstlayer"/><g class="glimages"/><defs id="topdefs-3cdeb0"><g class="clips"/></defs><g class="layer-above"><g class="imagelayer"/><g class="shapelayer"/></g><g class="infolayer"><g class="g-gtitle"><text class="gtitle" x="35" y="50" text-anchor="start" dy="0em" style="font-family: 'Open Sans', verdana, arial, sans-serif; font-size: 17px; fill: rgb(42, 63, 95); opacity: 1; font-weight: normal; white-space: pre;">Day Wise</text></g><g class="g-xtitle"/><g class="g-x2title"/><g class="g-x3title"/><g class="g-x4title"/><g class="g-x5title"/><g class="g-x6title"/><g class="g-ytitle"/><g class="g-y2title"/><g class="g-y3title"/><g class="g-y4title"/><g class="g-y5title"/><g class="g-y6title"/><g class="annotation" data-index="0" style="opacity: 1;"><g class="annotation-text-g" transform="rotate(0,201.5,88.5)"><g class="cursor-pointer" transform="translate(133, 77)"><rect class="bg" x="0.5" y="0.5" width="136" height="22" style="stroke-width: 1px; stroke: rgb(0, 0, 0); stroke-opacity: 0; fill: rgb(0, 0, 0); fill-opacity: 0;"/><text class="annotation-text" text-anchor="middle" x="68.34375" y="18" style="font-family: 'Open Sans', verdana, arial, sans-serif; font-size: 16px; fill: rgb(42, 63, 95); fill-opacity: 1; white-space: pre;">Confirmed cases</text></g></g></g><g class="annotation" data-index="1" style="opacity: 1;"><g class="annotation-text-g" transform="rotate(0,498.5,88.5)"><g class="cursor-pointer" transform="translate(446, 77)"><rect class="bg" x="0.5" y="0.5" width="105" height="22" style="stroke-width: 1px; stroke: rgb(0, 0, 0); stroke-opacity: 0; fill: rgb(0, 0, 0); fill-opacity: 0;"/><text class="annotation-text" text-anchor="middle" x="53.53125" y="18" style="font-family: 'Open Sans', verdana, arial, sans-serif; font-size: 16px; fill: rgb(42, 63, 95); fill-opacity: 1; white-space: pre;">Active Cases</text></g></g></g><g class="annotation" data-index="2" style="opacity: 1;"><g class="annotation-text-g" transform="rotate(0,201.5,485.16666666666663)"><g class="cursor-pointer" transform="translate(132, 474)"><rect class="bg" x="0.5" y="0.5" width="139" height="22" style="stroke-width: 1px; stroke: rgb(0, 0, 0); stroke-opacity: 0; fill: rgb(0, 0, 0); fill-opacity: 0;"/><text class="annotation-text" text-anchor="middle" x="70" y="18" style="font-family: 'Open Sans', verdana, arial, sans-serif; font-size: 16px; fill: rgb(42, 63, 95); fill-opacity: 1; white-space: pre;">Recovered Cases</text></g></g></g><g class="annotation" data-index="3" style="opacity: 1;"><g class="annotation-text-g" transform="rotate(0,498.5,485.16666666666663)"><g class="cursor-pointer" transform="translate(431, 474)"><rect class="bg" x="0.5" y="0.5" width="134" height="22" style="stroke-width: 1px; stroke: rgb(0, 0, 0); stroke-opacity: 0; fill: rgb(0, 0, 0); fill-opacity: 0;"/><text class="annotation-text" text-anchor="middle" x="67.265625" y="18" style="font-family: 'Open Sans', verdana, arial, sans-serif; font-size: 16px; fill: rgb(42, 63, 95); fill-opacity: 1; white-space: pre;">Deaths reported</text></g></g></g><g class="annotation" data-index="4" style="opacity: 1;"><g class="annotation-text-g" transform="rotate(0,201.5,881.8333333333334)"><g class="cursor-pointer" transform="translate(156, 870)"><rect class="bg" x="0.5" y="0.5" width="90" height="22" style="stroke-width: 1px; stroke: rgb(0, 0, 0); stroke-opacity: 0; fill: rgb(0, 0, 0); fill-opacity: 0;"/><text class="annotation-text" text-anchor="middle" x="45.609375" y="18" style="font-family: 'Open Sans', verdana, arial, sans-serif; font-size: 16px; fill: rgb(42, 63, 95); fill-opacity: 1; white-space: pre;">New Cases</text></g></g></g><g class="annotation" data-index="5" style="opacity: 1;"><g class="annotation-text-g" transform="rotate(0,498.5,881.8333333333334)"><g class="cursor-pointer" transform="translate(423, 870)"><rect class="bg" x="0.5" y="0.5" width="151" height="22" style="stroke-width: 1px; stroke: rgb(0, 0, 0); stroke-opacity: 0; fill: rgb(0, 0, 0); fill-opacity: 0;"/><text class="annotation-text" text-anchor="middle" x="76.015625" y="18" style="font-family: 'Open Sans', verdana, arial, sans-serif; font-size: 16px; fill: rgb(42, 63, 95); fill-opacity: 1; white-space: pre;">Countries Affected</text></g></g></g></g></svg>