<svg class="main-svg" xmlns="http://www.w3.org/2000/svg" xmlns:xlink="http://www.w3.org/1999/xlink" width="700" height="1200" style="" viewBox="0 0 700 1200"><rect x="0" y="0" width="700" height="1200" style="fill: rgb(255, 255, 255); fill-opacity: 1;"/><defs id="defs-ce482b"><g class="clips"><clipPath id="clipce482bxyplot" class="plotclip"><rect width="243" height="226.66666666666666"/></clipPath><clipPath id="clipce482bx2y2plot" class="plotclip"><rect width="242.99999999999997" height="226.66666666666666"/></clipPath><clipPath id="clipce482bx3y3plot" class="plotclip"><rect width="243" height="226.6666666666667"/></clipPath><clipPath id="clipce482bx4y4plot" class="plotclip"><rect width="242.99999999999997" height="226.6666666666667"/></clipPath><clipPath id="clipce482bx5y5plot" class="plotclip"><rect width="243" height="226.66666666666669"/></clipPath><clipPath id="clipce482bx6y6plot" class="plotclip"><rect width="242.99999999999997" height="226.66666666666669"/></clipPath><clipPath class="axesclip" id="clipce482bx"><rect x="80" y="0" width="243" height="1200"/></clipPath><clipPath class="axesclip" id="clipce482by"><rect x="0" y="100" width="700" height="226.66666666666666"/></clipPath><clipPath class="axesclip" id="clipce482bxy"><rect x="80" y="100" width="243" height="226.66666666666666"/></clipPath><clipPath class="axesclip" id="clipce482by2"><rect x="0" y="100" width="700" height="226.66666666666666"/></clipPath><clipPath class="axesclip" id="clipce482bxy2"><rect x="80" y="100" width="243" height="226.66666666666666"/></clipPath><clipPath class="axesclip" id="clipce482by3"><rect x="0" y="496.66666666666663" width="700" height="226.6666666666667"/></clipPath><clipPath class="axesclip" id="clipce482bxy3"><rect x="80" y="496.66666666666663" width="243" height="226.6666666666667"/></clipPath><clipPath class="axesclip" id="clipce482by4"><rect x="0" y="496.66666666666663" width="700" height="226.6666666666667"/></clipPath><clipPath class="axesclip" id="clipce482bxy4"><rect x="80" y="496.66666666666663" width="243" height="226.6666666666667"/></clipPath><clipPath class="axesclip" id="clipce482by5"><rect x="0" y="893.3333333333334" width="700" height="226.66666666666669"/></clipPath><clipPath class="axesclip" id="clipce482bxy5"><rect x="80" y="893.3333333333334" width="243" height="226.66666666666669"/></clipPath><clipPath class="axesclip" id="clipce482by6"><rect x="0" y="893.3333333333334" width="700" height="226.66666666666669"/></clipPath><clipPath class="axesclip" id="clipce482bxy6"><rect x="80" y="893.3333333333334" width="243" height="226.66666666666669"/></clipPath><clipPath class="axesclip" id="clipce482bx2"><rect x="377" y="0" width="242.99999999999997" height="1200"/></clipPath><clipPath class="axesclip" id="clipce482bx2y"><rect x="377" y="100" width="242.99999999999997" height="226.66666666666666"/></clipPath><clipPath class="axesclip" id="clipce482bx2y2"><rect x="377" y="100" width="242.99999999999997" height="226.66666666666666"/></clipPath><clipPath class="axesclip" id="clipce482bx2y3"><rect x="377" y="496.66666666666663" width="242.99999999999997" height="226.6666666666667"/></clipPath><clipPath class="axesclip" id="clipce482bx2y4"><rect x="377" y="496.66666666666663" width="242.99999999999997" height="226.6666666666667"/></clipPath><clipPath class="axesclip" id="clipce482bx2y5"><rect x="377" y="893.3333333333334" width="242.99999999999997" height="226.66666666666669"/></clipPath><clipPath class="axesclip" id="clipce482bx2y6"><rect x="377" y="893.3333333333334" width="242.99999999999997" height="226.66666666666669"/></clipPath><clipPath class="axesclip" id="clipce482bx3"><rect x="80" y="0" width="243" height="1200"/></clipPath><clipPath class="axesclip" id="clipce482bx3y"><rect x="80" y="100" width="243" height="226.66666666666666"/></clipPath><clipPath class="axesclip" id="clipce482bx3y2"><rect x="80" y="100" width="243" height="226.66666666666666"/></clipPath><clipPath class="axesclip" id="clipce482bx3y3"><rect x="80" y="496.66666666666663" width="243" height="226.6666666666667"/></clipPath><clipPath class="axesclip" id="clipce482bx3y4"><rect x="80" y="496.66666666666663" width="243" height="226.6666666666667"/></clipPath><clipPath class="axesclip" id="clipce482bx3y5"><rect x="80" y="893.3333333333334" width="243" height="226.66666666666669"/></clipPath><clipPath class="axesclip" id="clipce482bx3y6"><rect x="80" y="893.3333333333334" width="243" height="226.66666666666669"/></clipPath><clipPath class="axesclip" id="clipce482bx4"><rect x="377" y="0" width="242.99999999999997" height="1200"/></clipPath><clipPath class="axesclip" id="clipce482bx4y"><rect x="377" y="100" width="242.99999999999997" height="226.66666666666666"/></clipPath><clipPath class="axesclip" id="clipce482bx4y2"><rect x="377" y="100" width="242.99999999999997" height="226.66666666666666"/></clipPath><clipPath class="axesclip" id="clipce482bx4y3"><rect x="377" y="496.66666666666663" width="242.99999999999997" height="226.6666666666667"/></clipPath><clipPath class="axesclip" id="clipce482bx4y4"><rect x="377" y="496.66666666666663" width="242.99999999999997" height="226.6666666666667"/></clipPath><clipPath class="axesclip" id="clipce482bx4y5"><rect x="377" y="893.3333333333334" width="242.99999999999997" height="226.66666666666669"/></clipPath><clipPath class="axesclip" id="clipce482bx4y6"><rect x="377" y="893.3333333333334" width="242.99999999999997" height="226.66666666666669"/></clipPath><clipPath class="axesclip" id="clipce482bx5"><rect x="80" y="0" width="243" height="1200"/></clipPath><clipPath class="axesclip" id="clipce482bx5y"><rect x="80" y="100" width="243" height="226.66666666666666"/></clipPath><clipPath class="axesclip" id="clipce482bx5y2"><rect x="80" y="100" width="243" height="226.66666666666666"/></clipPath><clipPath class="axesclip" id="clipce482bx5y3"><rect x="80" y="496.66666666666663" width="243" height="226.6666666666667"/></clipPath><clipPath class="axesclip" id="clipce482bx5y4"><rect x="80" y="496.66666666666663" width="243" height="226.6666666666667"/></clipPath><clipPath class="axesclip" id="clipce482bx5y5"><rect x="80" y="893.3333333333334" width="243" height="226.66666666666669"/></clipPath><clipPath class="axesclip" id="clipce482bx5y6"><rect x="80" y="893.3333333333334" width="243" height="226.66666666666669"/></clipPath><clipPath class="axesclip" id="clipce482bx6"><rect x="377" y="0" width="242.99999999999997" height="1200"/></clipPath><clipPath class="axesclip" id="clipce482bx6y"><rect x="377" y="100" width="242.99999999999997" height="226.66666666666666"/></clipPath><clipPath class="axesclip" id="clipce482bx6y2"><rect x="377" y="100" width="242.99999999999997" height="226.66666666666666"/></clipPath><clipPath class="axesclip" id="clipce482bx6y3"><rect x="377" y="496.66666666666663" width="242.99999999999997" height="226.6666666666667"/></clipPath><clipPath class="axesclip" id="clipce482bx6y4"><rect x="377" y="496.66666666666663" width="242.99999999999997" height="226.6666666666667"/></clipPath><clipPath class="axesclip" id="clipce482bx6y5"><rect x="377" y="893.3333333333334" width="242.99999999999997" height="226.66666666666669"/></clipPath><clipPath class="axesclip" id="clipce482bx6y6"><rect x="377" y="893.3333333333334" width="242.99999999999997" height="226.66666666666669"/></clipPath></g><g class="gradients"/></defs><g class="bglayer"><rect class="bg" x="80" y="100" width="243" height="226.66666666666666" style="fill: rgb(229, 236, 246); fill-opacity: 1; stroke-width: 0;"/><rect class="bg" x="377" y="100" width="242.99999999999997" height="226.66666666666666" style="fill: rgb(229, 236, 246); fill-opacity: 1; stroke-width: 0;"/><rect class="bg" x="80" y="496.66666666666663" width="243" height="226.6666666666667" style="fill: rgb(229, 236, 246); fill-opacity: 1; stroke-width: 0;"/><rect class="bg" x="377" y="496.66666666666663" width="242.99999999999997" height="226.6666666666667" style="fill: rgb(229, 236, 246); fill-opacity: 1; stroke-width: 0;"/><rect class="bg" x="80" y="893.3333333333334" width="243" height="226.66666666666669" style="fill: rgb(229, 236, 246); fill-opacity: 1; stroke-width: 0;"/><rect class="bg" x="377" y="893.3333333333334" width="242.99999999999997" height="226.66666666666669" style="fill: rgb(229, 236, 246); fill-opacity: 1; stroke-width: 0;"/></g><g class="layer-below"><g class="imagelayer"/><g class="shapelayer"/></g><g class="cartesianlayer"><g class="subplot xy"><g class="layer-subplot"><g class="shapelayer"/><g class="imagelayer"/></g><g class="gridlayer"><g class="x"><path class="xgrid crisp" transform="translate(117.16,0)" d="M0,100v226.66666666666666" style="stroke: rgb(255, 255, 255); stroke-opacity: 1; stroke-width: 1px;"/><path class="xgrid crisp" transform="translate(175.29000000000002,0)" d="M0,100v226.66666666666666" style="stroke: rgb(255, 255, 255); stroke-opacity: 1; stroke-width: 1px;"/><path class="xgrid crisp" transform="translate(233.42,0)" d="M0,100v226.66666666666666" style="stroke: rgb(255, 255, 255); stroke-opacity: 1; stroke-width: 1px;"/><path class="xgrid crisp" transform="translate(292.51,0)" d="M0,100v226.66666666666666" style="stroke: rgb(255, 255, 255); stroke-opacity: 1; stroke-width: 1px;"/></g><g class="y"><path class="ygrid crisp" transform="translate(0,256.82)" d="M80,0h243" style="stroke: rgb(255, 255, 255); stroke-opacity: 1; stroke-width: 1px;"/><path class="ygrid crisp" transform="translate(0,198.31)" d="M80,0h243" style="stroke: rgb(255, 255, 255); stroke-opacity: 1; stroke-width: 1px;"/><path class="ygrid crisp" transform="translate(0,139.8)" d="M80,0h243" style="stroke: rgb(255, 255, 255); stroke-opacity: 1; stroke-width: 1px;"/></g></g><g class="zerolinelayer"><path class="yzl zl crisp" transform="translate(0,315.34000000000003)" d="M80,0h243" style="stroke: rgb(255, 255, 255); stroke-opacity: 1; stroke-width: 2px;"/></g><path class="xlines-below"/><path class="ylines-below"/><g class="overlines-below"/><g class="xaxislayer-below"/><g class="yaxislayer-below"/><g class="overaxes-below"/><g class="plot" transform="translate(80, 100)" clip-path="url('#clipce482bxyplot')"><g class="scatterlayer mlayer"><g class="trace scatter trace2c470f" style="stroke-miterlimit: 2; opacity: 1;"><g class="fills"/><g class="errorbars"/><g class="lines"><path class="js-line" d="M0,215.33L47.65,214.61L48.6,214.52L57.18,213.38L58.13,213.13L64.8,210.72L65.75,210.27L100.06,193.37L101.01,192.85L121.98,180.66L122.93,179.86L133.41,172.21L134.36,171.41L144.85,162.38L145.8,161.41L158.19,147.48L159.14,146.25L173.44,126.4L174.39,124.74L183.92,109.73L184.87,108.55L225.85,42.56L226.8,40.77L237.28,22L238.24,20.38L243,11.33" style="vector-effect: non-scaling-stroke; fill: none; stroke: rgb(0, 123, 255); stroke-opacity: 1; stroke-width: 2px; opacity: 1;"/></g><g class="points"/><g class="text"/></g></g></g><g class="overplot"/><path class="xlines-above crisp" d="M79,327.16666666666663H323" style="fill: none; stroke-width: 1px; stroke: rgb(255, 255, 255); stroke-opacity: 1;"/><path class="ylines-above crisp" d="M79.5,100V326.66666666666663" style="fill: none; stroke-width: 1px; stroke: rgb(255, 255, 255); stroke-opacity: 1;"/><g class="overlines-above"/><g class="xaxislayer-above"><g class="xtick"><text text-anchor="start" x="0" y="342.0666666666666" transform="translate(117.16,0) rotate(30,0,336.0666666666666)" style="font-family: 'Open Sans', verdana, arial, sans-serif; font-size: 12px; fill: rgb(42, 63, 95); fill-opacity: 1; white-space: pre;">Mar 2020</text></g><g class="xtick"><text text-anchor="start" x="0" y="342.0666666666666" transform="translate(175.29000000000002,0) rotate(30,0,336.0666666666666)" style="font-family: 'Open Sans', verdana, arial, sans-serif; font-size: 12px; fill: rgb(42, 63, 95); fill-opacity: 1; white-space: pre;">May 2020</text></g><g class="xtick"><text text-anchor="start" x="0" y="342.0666666666666" transform="translate(233.42,0) rotate(30,0,336.0666666666666)" style="font-family: 'Open Sans', verdana, arial, sans-serif; font-size: 12px; fill: rgb(42, 63, 95); fill-opacity: 1; white-space: pre;">Jul 2020</text></g><g class="xtick"><text text-anchor="start" x="0" y="342.0666666666666" transform="translate(292.51,0) rotate(30,0,336.0666666666666)" style="font-family: 'Open Sans', verdana, arial, sans-serif; font-size: 12px; fill: rgb(42, 63, 95); fill-opacity: 1; white-space: pre;">Sep 2020</text></g></g><g class="yaxislayer-above"><g class="ytick"><text text-anchor="end" x="76.6" y="4.199999999999999" transform="translate(0,315.34000000000003)" style="font-family: 'Open Sans', verdana, arial, sans-serif; font-size: 12px; fill: rgb(42, 63, 95); fill-opacity: 1; white-space: pre;">0</text></g><g class="ytick"><text text-anchor="end" x="76.6" y="4.199999999999999" transform="translate(0,256.82)" style="font-family: 'Open Sans', verdana, arial, sans-serif; font-size: 12px; fill: rgb(42, 63, 95); fill-opacity: 1; white-space: pre;">10M</text></g><g class="ytick"><text text-anchor="end" x="76.6" y="4.199999999999999" transform="translate(0,198.31)" style="font-family: 'Open Sans', verdana, arial, sans-serif; font-size: 12px; fill: rgb(42, 63, 95); fill-opacity: 1; white-space: pre;">20M</text></g><g class="ytick"><text text-anchor="end" x="76.6" y="4.199999999999999" transform="translate(0,139.8)" style="font-family: 'Open Sans', verdana, arial, sans-serif; font-size: 12px; fill: rgb(42, 63, 95); fill-opacity: 1; white-space: pre;">30M</text></g></g><g class="overaxes-above"/></g><g class="subplot x2y2"><g class="layer-subplot"><g class="shapelayer"/><g class="imagelayer"/></g><g class="gridlayer"><g class="x2"><path class="x2grid crisp" transform="translate(414.15999999999997,0)" d="M0,100v226.66666666666666" style="stroke: rgb(255, 255, 255); stroke-opacity: 1; stroke-width: 1px;"/><path class="x2grid crisp" transform="translate(472.29,0)" d="M0,100v226.66666666666666" style="stroke: rgb(255, 255, 255); stroke-opacity: 1; stroke-width: 1px;"/><path class="x2grid crisp" transform="translate(530.42,0)" d="M0,100v226.66666666666666" style="stroke: rgb(255, 255, 255); stroke-opacity: 1; stroke-width: 1px;"/><path class="x2grid crisp" transform="translate(589.51,0)" d="M0,100v226.66666666666666" style="stroke: rgb(255, 255, 255); stroke-opacity: 1; stroke-width: 1px;"/></g><g class="y2"><path class="y2grid crisp" transform="translate(0,273.09000000000003)" d="M377,0h242.99999999999997" style="stroke: rgb(255, 255, 255); stroke-opacity: 1; stroke-width: 1px;"/><path class="y2grid crisp" transform="translate(0,230.84)" d="M377,0h242.99999999999997" style="stroke: rgb(255, 255, 255); stroke-opacity: 1; stroke-width: 1px;"/><path class="y2grid crisp" transform="translate(0,188.59)" d="M377,0h242.99999999999997" style="stroke: rgb(255, 255, 255); stroke-opacity: 1; stroke-width: 1px;"/><path class="y2grid crisp" transform="translate(0,146.34)" d="M377,0h242.99999999999997" style="stroke: rgb(255, 255, 255); stroke-opacity: 1; stroke-width: 1px;"/><path class="y2grid crisp" transform="translate(0,104.08)" d="M377,0h242.99999999999997" style="stroke: rgb(255, 255, 255); stroke-opacity: 1; stroke-width: 1px;"/></g></g><g class="zerolinelayer"><path class="y2zl zl crisp" transform="translate(0,315.34000000000003)" d="M377,0h242.99999999999997" style="stroke: rgb(255, 255, 255); stroke-opacity: 1; stroke-width: 2px;"/></g><path class="xlines-below"/><path class="ylines-below"/><g class="overlines-below"/><g class="xaxislayer-below"/><g class="yaxislayer-below"/><g class="overaxes-below"/><g class="plot" transform="translate(377, 100)" clip-path="url('#clipce482bx2y2plot')"><g class="scatterlayer mlayer"><g class="trace scatter trace83ccfc" style="stroke-miterlimit: 2; opacity: 1;"><g class="fills"/><g class="errorbars"/><g class="lines"><path class="js-line" d="M0,215.33L17.15,214.58L18.11,214.55L35.26,214.45L36.21,214.49L47.65,214.25L48.6,213.99L54.32,212.27L55.27,211.7L60.04,208.11L60.99,207L82.91,181.56L83.86,180.63L91.48,173.56L92.44,172.79L98.15,168.53L99.11,167.72L114.35,154.68L115.31,154.82L119.12,151.94L120.07,151.21L124.84,146.65L125.79,146.38L128.65,143.34L129.6,142.09L130.55,140.95L131.51,142.06L136.27,137.27L137.22,136.02L141.04,132.9L141.99,131.21L145.8,127.13L146.75,126.07L151.52,118.51L152.47,117.41L153.42,115.36L154.38,117.09L155.33,115.22L156.28,115.35L162,107.22L162.95,105.4L175.34,85.13L176.29,84.47L183.92,72.62L184.87,73.14L186.78,71.58L187.73,69.68L190.59,65.93L191.54,64.7L192.49,65.89L193.45,65.25L194.4,62.82L195.35,62.61L196.31,61.06L197.26,61.55L199.16,61.22L200.12,60.15L202.98,55.98L203.93,56.27L206.79,54.52L207.74,53.01L209.65,50.48L210.6,50.18L216.32,43.34L217.27,43.16L220.13,41.03L221.08,39.38L222.99,36.41L223.94,35.41L226.8,31.81L227.75,29.92L229.66,27.7L230.61,27.68L234.42,23.32L235.38,21.51L239.19,18.44L240.14,16.96L243,11.33" style="vector-effect: non-scaling-stroke; fill: none; stroke: rgb(255, 7, 58); stroke-opacity: 1; stroke-width: 2px; opacity: 1;"/></g><g class="points"/><g class="text"/></g></g></g><g class="overplot"/><path class="xlines-above crisp" d="M376,327.16666666666663H620" style="fill: none; stroke-width: 1px; stroke: rgb(255, 255, 255); stroke-opacity: 1;"/><path class="ylines-above crisp" d="M376.5,100V326.66666666666663" style="fill: none; stroke-width: 1px; stroke: rgb(255, 255, 255); stroke-opacity: 1;"/><g class="overlines-above"/><g class="xaxislayer-above"><g class="x2tick"><text text-anchor="start" x="0" y="342.0666666666666" transform="translate(414.15999999999997,0) rotate(30,0,336.0666666666666)" style="font-family: 'Open Sans', verdana, arial, sans-serif; font-size: 12px; fill: rgb(42, 63, 95); fill-opacity: 1; white-space: pre;">Mar 2020</text></g><g class="x2tick"><text text-anchor="start" x="0" y="342.0666666666666" transform="translate(472.29,0) rotate(30,0,336.0666666666666)" style="font-family: 'Open Sans', verdana, arial, sans-serif; font-size: 12px; fill: rgb(42, 63, 95); fill-opacity: 1; white-space: pre;">May 2020</text></g><g class="x2tick"><text text-anchor="start" x="0" y="342.0666666666666" transform="translate(530.42,0) rotate(30,0,336.0666666666666)" style="font-family: 'Open Sans', verdana, arial, sans-serif; font-size: 12px; fill: rgb(42, 63, 95); fill-opacity: 1; white-space: pre;">Jul 2020</text></g><g class="x2tick"><text text-anchor="start" x="0" y="342.0666666666666" transform="translate(589.51,0) rotate(30,0,336.0666666666666)" style="font-family: 'Open Sans', verdana, arial, sans-serif; font-size: 12px; fill: rgb(42, 63, 95); fill-opacity: 1; white-space: pre;">Sep 2020</text></g></g><g class="yaxislayer-above"><g class="y2tick"><text text-anchor="end" x="373.6" y="4.199999999999999" transform="translate(0,315.34000000000003)" style="font-family: 'Open Sans', verdana, arial, sans-serif; font-size: 12px; fill: rgb(42, 63, 95); fill-opacity: 1; white-space: pre;">0</text></g><g class="y2tick"><text text-anchor="end" x="373.6" y="4.199999999999999" transform="translate(0,273.09000000000003)" style="font-family: 'Open Sans', verdana, arial, sans-serif; font-size: 12px; fill: rgb(42, 63, 95); fill-opacity: 1; white-space: pre;">2M</text></g><g class="y2tick"><text text-anchor="end" x="373.6" y="4.199999999999999" transform="translate(0,230.84)" style="font-family: 'Open Sans', verdana, arial, sans-serif; font-size: 12px; fill: rgb(42, 63, 95); fill-opacity: 1; white-space: pre;">4M</text></g><g class="y2tick"><text text-anchor="end" x="373.6" y="4.199999999999999" transform="translate(0,188.59)" style="font-family: 'Open Sans', verdana, arial, sans-serif; font-size: 12px; fill: rgb(42, 63, 95); fill-opacity: 1; white-space: pre;">6M</text></g><g class="y2tick"><text text-anchor="end" x="373.6" y="4.199999999999999" transform="translate(0,146.34)" style="font-family: 'Open Sans', verdana, arial, sans-serif; font-size: 12px; fill: rgb(42, 63, 95); fill-opacity: 1; white-space: pre;">8M</text></g><g class="y2tick"><text text-anchor="end" x="373.6" y="4.199999999999999" transform="translate(0,104.08)" style="font-family: 'Open Sans', verdana, arial, sans-serif; font-size: 12px; fill: rgb(42, 63, 95); fill-opacity: 1; white-space: pre;">10M</text></g></g><g class="overaxes-above"/></g><g class="subplot x3y3"><g class="layer-subplot"><g class="shapelayer"/><g class="imagelayer"/></g><g class="gridlayer"><g class="x3"><path class="x3grid crisp" transform="translate(117.16,0)" d="M0,496.66666666666663v226.6666666666667" style="stroke: rgb(255, 255, 255); stroke-opacity: 1; stroke-width: 1px;"/><path class="x3grid crisp" transform="translate(175.29000000000002,0)" d="M0,496.66666666666663v226.6666666666667" style="stroke: rgb(255, 255, 255); stroke-opacity: 1; stroke-width: 1px;"/><path class="x3grid crisp" transform="translate(233.42,0)" d="M0,496.66666666666663v226.6666666666667" style="stroke: rgb(255, 255, 255); stroke-opacity: 1; stroke-width: 1px;"/><path class="x3grid crisp" transform="translate(292.51,0)" d="M0,496.66666666666663v226.6666666666667" style="stroke: rgb(255, 255, 255); stroke-opacity: 1; stroke-width: 1px;"/></g><g class="y3"><path class="y3grid crisp" transform="translate(0,669.9466666666666)" d="M80,0h243" style="stroke: rgb(255, 255, 255); stroke-opacity: 1; stroke-width: 1px;"/><path class="y3grid crisp" transform="translate(0,627.8866666666667)" d="M80,0h243" style="stroke: rgb(255, 255, 255); stroke-opacity: 1; stroke-width: 1px;"/><path class="y3grid crisp" transform="translate(0,585.8366666666666)" d="M80,0h243" style="stroke: rgb(255, 255, 255); stroke-opacity: 1; stroke-width: 1px;"/><path class="y3grid crisp" transform="translate(0,543.7866666666666)" d="M80,0h243" style="stroke: rgb(255, 255, 255); stroke-opacity: 1; stroke-width: 1px;"/><path class="y3grid crisp" transform="translate(0,501.72666666666663)" d="M80,0h243" style="stroke: rgb(255, 255, 255); stroke-opacity: 1; stroke-width: 1px;"/></g></g><g class="zerolinelayer"><path class="y3zl zl crisp" transform="translate(0,711.9966666666667)" d="M80,0h243" style="stroke: rgb(255, 255, 255); stroke-opacity: 1; stroke-width: 2px;"/></g><path class="xlines-below"/><path class="ylines-below"/><g class="overlines-below"/><g class="xaxislayer-below"/><g class="yaxislayer-below"/><g class="overaxes-below"/><g class="plot" transform="translate(80, 496.66666666666663)" clip-path="url('#clipce482bx3y3plot')"><g class="scatterlayer mlayer"><g class="trace scatter traceeef4ac" style="stroke-miterlimit: 2; opacity: 1;"><g class="fills"/><g class="errorbars"/><g class="lines"><path class="js-line" d="M0,215.33L56.22,214.58L57.18,214.53L65.75,213.88L66.71,213.76L80.05,211.11L81,210.85L93.39,207.43L94.34,206.89L111.49,200.42L112.45,199.99L122.93,193.9L123.88,193.26L127.69,190.67L128.65,190.09L133.41,186.39L134.36,185.67L141.99,179.71L142.94,178.74L146.75,175.55L147.71,174.77L153.42,169.48L154.38,167.08L158.19,162.47L159.14,161.25L166.76,151.91L167.72,150.63L172.48,144.28L173.44,142.8L180.11,131.83L181.06,129.96L194.4,106.24L195.35,103.85L198.21,98.71L199.16,96.79L232.52,32.96L233.47,30.75L241.09,14.95L242.05,13.5L243,11.33" style="vector-effect: non-scaling-stroke; fill: none; stroke: rgb(40, 167, 69); stroke-opacity: 1; stroke-width: 2px; opacity: 1;"/></g><g class="points"/><g class="text"/></g></g></g><g class="overplot"/><path class="xlines-above crisp" d="M79,723.8333333333334H323" style="fill: none; stroke-width: 1px; stroke: rgb(255, 255, 255); stroke-opacity: 1;"/><path class="ylines-above crisp" d="M79.5,496.66666666666663V723.3333333333334" style="fill: none; stroke-width: 1px; stroke: rgb(255, 255, 255); stroke-opacity: 1;"/><g class="overlines-above"/><g class="xaxislayer-above"><g class="x3tick"><text text-anchor="start" x="0" y="738.7333333333333" transform="translate(117.16,0) rotate(30,0,732.7333333333333)" style="font-family: 'Open Sans', verdana, arial, sans-serif; font-size: 12px; fill: rgb(42, 63, 95); fill-opacity: 1; white-space: pre;">Mar 2020</text></g><g class="x3tick"><text text-anchor="start" x="0" y="738.7333333333333" transform="translate(175.29000000000002,0) rotate(30,0,732.7333333333333)" style="font-family: 'Open Sans', verdana, arial, sans-serif; font-size: 12px; fill: rgb(42, 63, 95); fill-opacity: 1; white-space: pre;">May 2020</text></g><g class="x3tick"><text text-anchor="start" x="0" y="738.7333333333333" transform="translate(233.42,0) rotate(30,0,732.7333333333333)" style="font-family: 'Open Sans', verdana, arial, sans-serif; font-size: 12px; fill: rgb(42, 63, 95); fill-opacity: 1; white-space: pre;">Jul 2020</text></g><g class="x3tick"><text text-anchor="start" x="0" y="738.7333333333333" transform="translate(292.51,0) rotate(30,0,732.7333333333333)" style="font-family: 'Open Sans', verdana, arial, sans-serif; font-size: 12px; fill: rgb(42, 63, 95); fill-opacity: 1; white-space: pre;">Sep 2020</text></g></g><g class="yaxislayer-above"><g class="y3tick"><text text-anchor="end" x="76.6" y="4.199999999999999" transform="translate(0,711.9966666666667)" style="font-family: 'Open Sans', verdana, arial, sans-serif; font-size: 12px; fill: rgb(42, 63, 95); fill-opacity: 1; white-space: pre;">0</text></g><g class="y3tick"><text text-anchor="end" x="76.6" y="4.199999999999999" transform="translate(0,669.9466666666666)" style="font-family: 'Open Sans', verdana, arial, sans-serif; font-size: 12px; fill: rgb(42, 63, 95); fill-opacity: 1; white-space: pre;">5M</text></g><g class="y3tick"><text text-anchor="end" x="76.6" y="4.199999999999999" transform="translate(0,627.8866666666667)" style="font-family: 'Open Sans', verdana, arial, sans-serif; font-size: 12px; fill: rgb(42, 63, 95); fill-opacity: 1; white-space: pre;">10M</text></g><g class="y3tick"><text text-anchor="end" x="76.6" y="4.199999999999999" transform="translate(0,585.8366666666666)" style="font-family: 'Open Sans', verdana, arial, sans-serif; font-size: 12px; fill: rgb(42, 63, 95); fill-opacity: 1; white-space: pre;">15M</text></g><g class="y3tick"><text text-anchor="end" x="76.6" y="4.199999999999999" transform="translate(0,543.7866666666666)" style="font-family: 'Open Sans', verdana, arial, sans-serif; font-size: 12px; fill: rgb(42, 63, 95); fill-opacity: 1; white-space: pre;">20M</text></g><g class="y3tick"><text text-anchor="end" x="76.6" y="4.199999999999999" transform="translate(0,501.72666666666663)" style="font-family: 'Open Sans', verdana, arial, sans-serif; font-size: 12px; fill: rgb(42, 63, 95); fill-opacity: 1; white-space: pre;">25M</text></g></g><g class="overaxes-above"/></g><g class="subplot x4y4"><g class="layer-subplot"><g class="shapelayer"/><g class="imagelayer"/></g><g class="gridlayer"><g class="x4"><path class="x4grid crisp" transform="translate(414.15999999999997,0)" d="M0,496.66666666666663v226.6666666666667" style="stroke: rgb(255, 255, 255); stroke-opacity: 1; stroke-width: 1px;"/><path class="x4grid crisp" transform="translate(472.29,0)" d="M0,496.66666666666663v226.6666666666667" style="stroke: rgb(255, 255, 255); stroke-opacity: 1; stroke-width: 1px;"/><path class="x4grid crisp" transform="translate(530.42,0)" d="M0,496.66666666666663v226.6666666666667" style="stroke: rgb(255, 255, 255); stroke-opacity: 1; stroke-width: 1px;"/><path class="x4grid crisp" transform="translate(589.51,0)" d="M0,496.66666666666663v226.6666666666667" style="stroke: rgb(255, 255, 255); stroke-opacity: 1; stroke-width: 1px;"/></g><g class="y4"><path class="y4grid crisp" transform="translate(0,669.1966666666666)" d="M377,0h242.99999999999997" style="stroke: rgb(255, 255, 255); stroke-opacity: 1; stroke-width: 1px;"/><path class="y4grid crisp" transform="translate(0,626.3966666666666)" d="M377,0h242.99999999999997" style="stroke: rgb(255, 255, 255); stroke-opacity: 1; stroke-width: 1px;"/><path class="y4grid crisp" transform="translate(0,583.5966666666666)" d="M377,0h242.99999999999997" style="stroke: rgb(255, 255, 255); stroke-opacity: 1; stroke-width: 1px;"/><path class="y4grid crisp" transform="translate(0,540.7866666666666)" d="M377,0h242.99999999999997" style="stroke: rgb(255, 255, 255); stroke-opacity: 1; stroke-width: 1px;"/><path class="y4grid crisp" transform="translate(0,497.9866666666666)" d="M377,0h242.99999999999997" style="stroke: rgb(255, 255, 255); stroke-opacity: 1; stroke-width: 1px;"/></g></g><g class="zerolinelayer"><path class="y4zl zl crisp" transform="translate(0,712.0066666666667)" d="M377,0h242.99999999999997" style="stroke: rgb(255, 255, 255); stroke-opacity: 1; stroke-width: 2px;"/></g><path class="xlines-below"/><path class="ylines-below"/><g class="overlines-below"/><g class="xaxislayer-below"/><g class="yaxislayer-below"/><g class="overaxes-below"/><g class="plot" transform="translate(377, 496.66666666666663)" clip-path="url('#clipce482bx4y4plot')"><g class="scatterlayer mlayer"><g class="trace scatter tracef45018" style="stroke-miterlimit: 2; opacity: 1;"><g class="fills"/><g class="errorbars"/><g class="lines"><path class="js-line" d="M0,215.33L42.88,214.59L43.84,214.54L53.36,213.61L54.32,213.42L61.94,210.5L62.89,209.91L66.71,206.98L67.66,205.9L74.33,197.52L75.28,196.12L96.25,169.98L97.2,169.3L100.06,166.07L101.01,165.03L108.64,157.64L109.59,156.82L114.35,152.58L115.31,151.67L126.74,141.98L127.69,140.94L137.22,132.64L138.18,131.98L141.99,127.59L142.94,126.76L152.47,117.98L153.42,116.99L172.48,96.86L173.44,95.43L176.29,90.98L177.25,90.24L185.82,79.67L186.78,78.23L197.26,64.49L198.21,63.64L202.98,57.34L203.93,56.55L206.79,53.05L207.74,51.86L230.61,25.73L231.56,24.93L243,11.33" style="vector-effect: non-scaling-stroke; fill: none; stroke: rgb(108, 117, 125); stroke-opacity: 1; stroke-width: 2px; opacity: 1;"/></g><g class="points"/><g class="text"/></g></g></g><g class="overplot"/><path class="xlines-above crisp" d="M376,723.8333333333334H620" style="fill: none; stroke-width: 1px; stroke: rgb(255, 255, 255); stroke-opacity: 1;"/><path class="ylines-above crisp" d="M376.5,496.66666666666663V723.3333333333334" style="fill: none; stroke-width: 1px; stroke: rgb(255, 255, 255); stroke-opacity: 1;"/><g class="overlines-above"/><g class="xaxislayer-above"><g class="x4tick"><text text-anchor="start" x="0" y="738.7333333333333" transform="translate(414.15999999999997,0) rotate(30,0,732.7333333333333)" style="font-family: 'Open Sans', verdana, arial, sans-serif; font-size: 12px; fill: rgb(42, 63, 95); fill-opacity: 1; white-space: pre;">Mar 2020</text></g><g class="x4tick"><text text-anchor="start" x="0" y="738.7333333333333" transform="translate(472.29,0) rotate(30,0,732.7333333333333)" style="font-family: 'Open Sans', verdana, arial, sans-serif; font-size: 12px; fill: rgb(42, 63, 95); fill-opacity: 1; white-space: pre;">May 2020</text></g><g class="x4tick"><text text-anchor="start" x="0" y="738.7333333333333" transform="translate(530.42,0) rotate(30,0,732.7333333333333)" style="font-family: 'Open Sans', verdana, arial, sans-serif; font-size: 12px; fill: rgb(42, 63, 95); fill-opacity: 1; white-space: pre;">Jul 2020</text></g><g class="x4tick"><text text-anchor="start" x="0" y="738.7333333333333" transform="translate(589.51,0) rotate(30,0,732.7333333333333)" style="font-family: 'Open Sans', verdana, arial, sans-serif; font-size: 12px; fill: rgb(42, 63, 95); fill-opacity: 1; white-space: pre;">Sep 2020</text></g></g><g class="yaxislayer-above"><g class="y4tick"><text text-anchor="end" x="373.6" y="4.199999999999999" transform="translate(0,712.0066666666667)" style="font-family: 'Open Sans', verdana, arial, sans-serif; font-size: 12px; fill: rgb(42, 63, 95); fill-opacity: 1; white-space: pre;">0</text></g><g class="y4tick"><text text-anchor="end" x="373.6" y="4.199999999999999" transform="translate(0,669.1966666666666)" style="font-family: 'Open Sans', verdana, arial, sans-serif; font-size: 12px; fill: rgb(42, 63, 95); fill-opacity: 1; white-space: pre;">0.2M</text></g><g class="y4tick"><text text-anchor="end" x="373.6" y="4.199999999999999" transform="translate(0,626.3966666666666)" style="font-family: 'Open Sans', verdana, arial, sans-serif; font-size: 12px; fill: rgb(42, 63, 95); fill-opacity: 1; white-space: pre;">0.4M</text></g><g class="y4tick"><text text-anchor="end" x="373.6" y="4.199999999999999" transform="translate(0,583.5966666666666)" style="font-family: 'Open Sans', verdana, arial, sans-serif; font-size: 12px; fill: rgb(42, 63, 95); fill-opacity: 1; white-space: pre;">0.6M</text></g><g class="y4tick"><text text-anchor="end" x="373.6" y="4.199999999999999" transform="translate(0,540.7866666666666)" style="font-family: 'Open Sans', verdana, arial, sans-serif; font-size: 12px; fill: rgb(42, 63, 95); fill-opacity: 1; white-space: pre;">0.8M</text></g><g class="y4tick"><text text-anchor="end" x="373.6" y="4.199999999999999" transform="translate(0,497.9866666666666)" style="font-family: 'Open Sans', verdana, arial, sans-serif; font-size: 12px; fill: rgb(42, 63, 95); fill-opacity: 1; white-space: pre;">1M</text></g></g><g class="overaxes-above"/></g><g class="subplot x5y5"><g class="layer-subplot"><g class="shapelayer"/><g class="imagelayer"/></g><g class="gridlayer"><g class="x5"><path class="x5grid crisp" transform="translate(117.16,0)" d="M0,893.3333333333334v226.66666666666669" style="stroke: rgb(255, 255, 255); stroke-opacity: 1; stroke-width: 1px;"/><path class="x5grid crisp" transform="translate(175.29000000000002,0)" d="M0,893.3333333333334v226.66666666666669" style="stroke: rgb(255, 255, 255); stroke-opacity: 1; stroke-width: 1px;"/><path class="x5grid crisp" transform="translate(233.42,0)" d="M0,893.3333333333334v226.66666666666669" style="stroke: rgb(255, 255, 255); stroke-opacity: 1; stroke-width: 1px;"/><path class="x5grid crisp" transform="translate(292.51,0)" d="M0,893.3333333333334v226.66666666666669" style="stroke: rgb(255, 255, 255); stroke-opacity: 1; stroke-width: 1px;"/></g><g class="y5"><path class="y5grid crisp" transform="translate(0,1052.1133333333335)" d="M80,0h243" style="stroke: rgb(255, 255, 255); stroke-opacity: 1; stroke-width: 1px;"/><path class="y5grid crisp" transform="translate(0,995.5633333333334)" d="M80,0h243" style="stroke: rgb(255, 255, 255); stroke-opacity: 1; stroke-width: 1px;"/><path class="y5grid crisp" transform="translate(0,939.0133333333333)" d="M80,0h243" style="stroke: rgb(255, 255, 255); stroke-opacity: 1; stroke-width: 1px;"/></g></g><g class="zerolinelayer"><path class="y5zl zl crisp" transform="translate(0,1108.6633333333334)" d="M80,0h243" style="stroke: rgb(255, 255, 255); stroke-opacity: 1; stroke-width: 2px;"/></g><path class="xlines-below"/><path class="ylines-below"/><g class="overlines-below"/><g class="xaxislayer-below"/><g class="yaxislayer-below"/><g class="overaxes-below"/><g class="plot" transform="translate(80, 893.3333333333334)" clip-path="url('#clipce482bx5y5plot')"><g class="scatterlayer mlayer"><g class="trace scatter trace9f2d8e" style="stroke-miterlimit: 2; opacity: 1;"><g class="fills"/><g class="errorbars"/><g class="lines"><path class="js-line" d="M0,215.33L4.76,214.88L5.72,213.83L6.67,215L7.62,214.16L9.53,214.14L10.48,212.65L11.44,213.58L12.39,213.07L19.06,214.18L20.01,215.1L20.96,206.76L21.92,211.64L22.87,214.12L23.82,214.1L28.59,215.03L29.54,214.47L31.45,215.15L32.4,214.93L40.02,214.27L40.98,214.03L42.88,213.29L43.84,213.25L45.74,212.52L46.69,211.13L47.65,212.12L48.6,207.26L49.55,209.13L50.51,208.99L53.36,204.34L54.32,200.06L56.22,197.34L57.18,196.07L58.13,190.81L59.08,191.92L61.94,178.64L62.89,177.31L63.85,181.8L64.8,178.48L65.75,171.96L66.71,172.12L68.61,168.3L69.56,169.95L70.52,174.68L71.47,173.95L74.33,166.45L75.28,165.85L76.24,172.25L77.19,161.42L78.14,175.68L79.09,175L81,160.54L81.95,165.69L82.91,173.84L83.86,170.11L84.81,173.21L85.76,172.43L86.72,169.98L87.67,165.44L88.62,162.06L89.58,168.02L91.48,175.92L92.44,172.59L95.29,166.02L96.25,169.92L97.2,172.07L98.15,171.79L99.11,169.84L100.06,164.52L101.96,162.93L102.92,167.38L103.87,172.82L104.82,171.85L105.78,167.71L106.73,167.32L107.68,160.7L108.64,160.95L109.59,162.18L110.54,171.68L113.4,157.34L114.35,155.13L116.26,156.25L117.21,161.98L118.16,166.38L119.12,162.57L121.02,147.83L121.98,146.98L122.93,137.96L123.88,155.12L124.84,161.36L125.79,146.34L126.74,148.59L127.69,143.45L129.6,139.14L130.55,152.08L131.51,157.43L132.46,144.87L134.36,137.28L135.32,142.7L136.27,138.84L137.22,140.33L138.18,147.7L139.13,135.18L140.08,134.8L141.04,136.01L141.99,113.59L142.94,126.45L143.89,142.81L144.85,137.41L145.8,121.9L146.75,118.71L147.71,114.57L148.66,107.15L151.52,127.05L152.47,116.85L153.42,92.6L154.38,97.72L156.28,105.77L157.24,111.95L158.19,121.73L159.14,96.1L160.09,95.29L161.05,86.44L162,84.05L162.95,93.02L163.91,106.54L164.86,106.65L166.76,84.65L167.72,72.53L169.62,81.45L170.58,94.28L171.53,98.52L172.48,83.22L173.44,56.59L174.39,55.3L175.34,56.76L176.29,70.83L177.25,94.88L178.2,87.41L180.11,51.61L181.06,56.85L182.01,51.33L182.96,73.82L184.87,101.42L185.82,69.12L187.73,54.16L188.68,56.45L190.59,89.02L191.54,86.67L193.45,58.27L194.4,53.51L195.35,43.18L196.31,75.36L197.26,95.61L198.21,96.81L200.12,60.33L201.07,64.49L202.02,62.69L202.98,65.54L203.93,99.13L204.88,87.48L205.84,78.66L206.79,52.27L207.74,57.73L208.69,55.57L210.6,87.54L211.55,67.11L212.51,66.13L213.46,55.6L214.41,56.66L215.36,38.64L217.27,89.86L218.22,78.77L219.18,83.32L220.13,50.17L221.08,46.25L222.04,34.6L223.94,81.93L224.89,57.25L225.85,54.99L226.8,43.05L228.71,32.57L229.66,56.45L230.61,79.28L231.56,46.14L233.47,64.48L234.42,11.33L236.33,58.53L237.28,81.24L240.14,31.55L241.09,34.93L242.05,48.36L243,34.47" style="vector-effect: non-scaling-stroke; fill: none; stroke: rgb(254, 152, 1); stroke-opacity: 1; stroke-width: 2px; opacity: 1;"/></g><g class="points"/><g class="text"/></g></g></g><g class="overplot"/><path class="xlines-above crisp" d="M79,1120.5H323" style="fill: none; stroke-width: 1px; stroke: rgb(255, 255, 255); stroke-opacity: 1;"/><path class="ylines-above crisp" d="M79.5,893.3333333333334V1120" style="fill: none; stroke-width: 1px; stroke: rgb(255, 255, 255); stroke-opacity: 1;"/><g class="overlines-above"/><g class="xaxislayer-above"><g class="x5tick"><text text-anchor="start" x="0" y="1135.4" transform="translate(117.16,0) rotate(30,0,1129.4)" style="font-family: 'Open Sans', verdana, arial, sans-serif; font-size: 12px; fill: rgb(42, 63, 95); fill-opacity: 1; white-space: pre;">Mar 2020</text></g><g class="x5tick"><text text-anchor="start" x="0" y="1135.4" transform="translate(175.29000000000002,0) rotate(30,0,1129.4)" style="font-family: 'Open Sans', verdana, arial, sans-serif; font-size: 12px; fill: rgb(42, 63, 95); fill-opacity: 1; white-space: pre;">May 2020</text></g><g class="x5tick"><text text-anchor="start" x="0" y="1135.4" transform="translate(233.42,0) rotate(30,0,1129.4)" style="font-family: 'Open Sans', verdana, arial, sans-serif; font-size: 12px; fill: rgb(42, 63, 95); fill-opacity: 1; white-space: pre;">Jul 2020</text></g><g class="x5tick"><text text-anchor="start" x="0" y="1135.4" transform="translate(292.51,0) rotate(30,0,1129.4)" style="font-family: 'Open Sans', verdana, arial, sans-serif; font-size: 12px; fill: rgb(42, 63, 95); fill-opacity: 1; white-space: pre;">Sep 2020</text></g></g><g class="yaxislayer-above"><g class="y5tick"><text text-anchor="end" x="76.6" y="4.199999999999999" transform="translate(0,1108.6633333333334)" style="font-family: 'Open Sans', verdana, arial, sans-serif; font-size: 12px; fill: rgb(42, 63, 95); fill-opacity: 1; white-space: pre;">0</text></g><g class="y5tick"><text text-anchor="end" x="76.6" y="4.199999999999999" transform="translate(0,1052.1133333333335)" style="font-family: 'Open Sans', verdana, arial, sans-serif; font-size: 12px; fill: rgb(42, 63, 95); fill-opacity: 1; white-space: pre;">100k</text></g><g class="y5tick"><text text-anchor="end" x="76.6" y="4.199999999999999" transform="translate(0,995.5633333333334)" style="font-family: 'Open Sans', verdana, arial, sans-serif; font-size: 12px; fill: rgb(42, 63, 95); fill-opacity: 1; white-space: pre;">200k</text></g><g class="y5tick"><text text-anchor="end" x="76.6" y="4.199999999999999" transform="translate(0,939.0133333333333)" style="font-family: 'Open Sans', verdana, arial, sans-serif; font-size: 12px; fill: rgb(42, 63, 95); fill-opacity: 1; white-space: pre;">300k</text></g></g><g class="overaxes-above"/></g><g class="subplot x6y6"><g class="layer-subplot"><g class="shapelayer"/><g class="imagelayer"/></g><g class="gridlayer"><g class="x6"><path class="x6grid crisp" transform="translate(414.15999999999997,0)" d="M0,893.3333333333334v226.66666666666669" style="stroke: rgb(255, 255, 255); stroke-opacity: 1; stroke-width: 1px;"/><path class="x6grid crisp" transform="translate(472.29,0)" d="M0,893.3333333333334v226.66666666666669" style="stroke: rgb(255, 255, 255); stroke-opacity: 1; stroke-width: 1px;"/><path class="x6grid crisp" transform="translate(530.42,0)" d="M0,893.3333333333334v226.66666666666669" style="stroke: rgb(255, 255, 255); stroke-opacity: 1; stroke-width: 1px;"/><path class="x6grid crisp" transform="translate(589.51,0)" d="M0,893.3333333333334v226.66666666666669" style="stroke: rgb(255, 255, 255); stroke-opacity: 1; stroke-width: 1px;"/></g><g class="y6"><path class="y6grid crisp" transform="translate(0,1057.0933333333332)" d="M377,0h242.99999999999997" style="stroke: rgb(255, 255, 255); stroke-opacity: 1; stroke-width: 1px;"/><path class="y6grid crisp" transform="translate(0,999.7933333333334)" d="M377,0h242.99999999999997" style="stroke: rgb(255, 255, 255); stroke-opacity: 1; stroke-width: 1px;"/><path class="y6grid crisp" transform="translate(0,942.4833333333333)" d="M377,0h242.99999999999997" style="stroke: rgb(255, 255, 255); stroke-opacity: 1; stroke-width: 1px;"/></g></g><g class="zerolinelayer"><path class="y6zl zl crisp" transform="translate(0,1114.3933333333334)" d="M377,0h242.99999999999997" style="stroke: rgb(255, 255, 255); stroke-opacity: 1; stroke-width: 2px;"/></g><path class="xlines-below"/><path class="ylines-below"/><g class="overlines-below"/><g class="xaxislayer-below"/><g class="yaxislayer-below"/><g class="overaxes-below"/><g class="plot" transform="translate(377, 893.3333333333334)" clip-path="url('#clipce482bx6y6plot')"><g class="scatterlayer mlayer"><g class="trace scatter traceb04e0e" style="stroke-miterlimit: 2; opacity: 1;"><g class="fills"/><g class="errorbars"/><g class="lines"><path class="js-line" d="M0,215.33L4.76,203.87L5.72,203.87L9.53,193.56L10.48,193.56L11.44,193.56L12.39,192.41L14.29,192.41L15.25,191.27L20.96,191.27L21.92,190.12L25.73,190.12L26.68,188.97L27.64,188.97L28.59,186.68L29.54,186.68L30.49,185.54L40.98,124.79L41.93,114.48L42.88,113.33L43.84,107.6L45.74,100.73L46.69,93.85L47.65,91.56L48.6,83.54L50.51,62.91L51.46,57.18L54.32,44.57L55.27,36.55L56.22,34.25L57.18,28.52L59.08,25.09L60.04,21.65L60.99,21.65L61.94,20.5L67.66,14.77L68.61,14.77L69.56,14.77L70.52,12.48L72.42,11.33L73.38,11.33L243,11.33" style="vector-effect: non-scaling-stroke; fill: none; stroke: rgb(255, 15, 128); stroke-opacity: 1; stroke-width: 2px; opacity: 1;"/></g><g class="points"/><g class="text"/></g></g></g><g class="overplot"/><path class="xlines-above crisp" d="M376,1120.5H620" style="fill: none; stroke-width: 1px; stroke: rgb(255, 255, 255); stroke-opacity: 1;"/><path class="ylines-above crisp" d="M376.5,893.3333333333334V1120" style="fill: none; stroke-width: 1px; stroke: rgb(255, 255, 255); stroke-opacity: 1;"/><g class="overlines-above"/><g class="xaxislayer-above"><g class="x6tick"><text text-anchor="start" x="0" y="1135.4" transform="translate(414.15999999999997,0) rotate(30,0,1129.4)" style="font-family: 'Open Sans', verdana, arial, sans-serif; font-size: 12px; fill: rgb(42, 63, 95); fill-opacity: 1; white-space: pre;">Mar 2020</text></g><g class="x6tick"><text text-anchor="start" x="0" y="1135.4" transform="translate(472.29,0) rotate(30,0,1129.4)" style="font-family: 'Open Sans', verdana, arial, sans-serif; font-size: 12px; fill: rgb(42, 63, 95); fill-opacity: 1; white-space: pre;">May 2020</text></g><g class="x6tick"><text text-anchor="start" x="0" y="1135.4" transform="translate(530.42,0) rotate(30,0,1129.4)" style="font-family: 'Open Sans', verdana, arial, sans-serif; font-size: 12px; fill: rgb(42, 63, 95); fill-opacity: 1; white-space: pre;">Jul 2020</text></g><g class="x6tick"><text text-anchor="start" x="0" y="1135.4" transform="translate(589.51,0) rotate(30,0,1129.4)" style="font-family: 'Open Sans', verdana, arial, sans-serif; font-size: 12px; fill: rgb(42, 63, 95); fill-opacity: 1; white-space: pre;">Sep 2020</text></g></g><g class="yaxislayer-above"><g class="y6tick"><text text-anchor="end" x="373.6" y="4.199999999999999" transform="translate(0,1114.3933333333334)" style="font-family: 'Open Sans', verdana, arial, sans-serif; font-size: 12px; fill: rgb(42, 63, 95); fill-opacity: 1; white-space: pre;">0</text></g><g class="y6tick"><text text-anchor="end" x="373.6" y="4.199999999999999" transform="translate(0,1057.0933333333332)" style="font-family: 'Open Sans', verdana, arial, sans-serif; font-size: 12px; fill: rgb(42, 63, 95); fill-opacity: 1; white-space: pre;">50</text></g><g class="y6tick"><text text-anchor="end" x="373.6" y="4.199999999999999" transform="translate(0,999.7933333333334)" style="font-family: 'Open Sans', verdana, arial, sans-serif; font-size: 12px; fill: rgb(42, 63, 95); fill-opacity: 1; white-space: pre;">100</text></g><g class="y6tick"><text text-anchor="end" x="373.6" y="4.199999999999999" transform="translate(0,942.4833333333333)" style="font-family: 'Open Sans', verdana, arial, sans-serif; font-size: 12px; fill: rgb(42, 63, 95); fill-opacity: 1; white-space: pre;">150</text></g></g><g class="overaxes-above"/></g></g><g class="polarlayer"/><g class="ternarylayer"/><g class="geolayer"/><g class="funnelarealayer"/><g class="pielayer"/><g class="treemaplayer"/><g class="sunburstlayer"/><g class="glimages"/><defs id="topdefs-ce482b"><g class="clips"/></defs><g class="layer-above"><g class="imagelayer"/><g class="shapelayer"/></g><g class="infolayer"><g class="g-gtitle"><text class="gtitle" x="35" y="50" text-anchor="start" dy="0em" style="font-family: 'Open Sans', verdana, arial, sans-serif; font-size: 17px; fill: rgb(42, 63, 95); opacity: 1; font-weight: normal; white-space: pre;">Day Wise</text></g><g class="g-xtitle"/><g class="g-x2title"/><g class="g-x3title"/><g class="g-x4title"/><g class="g-x5title"/><g class="g-x6title"/><g class="g-ytitle"/><g class="g-y2title"/><g class="g-y3title"/><g class="g-y4title"/><g class="g-y5title"/><g class="g-y6title"/><g class="annotation" data-index="0" style="opacity: 1;"><g class="annotation-text-g" transform="rotate(0,201.5,88.5)"><g class="cursor-pointer" transform="translate(133, 77)"><rect class="bg" x="0.5" y="0.5" width="136" height="22" style="stroke-width: 1px; stroke: rgb(0, 0, 0); stroke-opacity: 0; fill: rgb(0, 0, 0); fill-opacity: 0;"/><text class="annotation-text" text-anchor="middle" x="68.34375" y="18" style="font-family: 'Open Sans', verdana, arial, sans-serif; font-size: 16px; fill: rgb(42, 63, 95); fill-opacity: 1; white-space: pre;">Confirmed cases</text></g></g></g><g class="annotation" data-index="1" style="opacity: 1;"><g class="annotation-text-g" transform="rotate(0,498.5,88.5)"><g class="cursor-pointer" transform="translate(446, 77)"><rect class="bg" x="0.5" y="0.5" width="105" height="22" style="stroke-width: 1px; stroke: rgb(0, 0, 0); stroke-opacity: 0; fill: rgb(0, 0, 0); fill-opacity: 0;"/><text class="annotation-text" text-anchor="middle" x="53.53125" y="18" style="font-family: 'Open Sans', verdana, arial, sans-serif; font-size: 16px; fill: rgb(42, 63, 95); fill-opacity: 1; white-space: pre;">Active Cases</text></g></g></g><g class="annotation" data-index="2" style="opacity: 1;"><g class="annotation-text-g" transform="rotate(0,201.5,485.16666666666663)"><g class="cursor-pointer" transform="translate(132, 474)"><rect class="bg" x="0.5" y="0.5" width="139" height="22" style="stroke-width: 1px; stroke: rgb(0, 0, 0); stroke-opacity: 0; fill: rgb(0, 0, 0); fill-opacity: 0;"/><text class="annotation-text" text-anchor="middle" x="70" y="18" style="font-family: 'Open Sans', verdana, arial, sans-serif; font-size: 16px; fill: rgb(42, 63, 95); fill-opacity: 1; white-space: pre;">Recovered Cases</text></g></g></g><g class="annotation" data-index="3" style="opacity: 1;"><g class="annotation-text-g" transform="rotate(0,498.5,485.16666666666663)"><g class="cursor-pointer" transform="translate(431, 474)"><rect class="bg" x="0.5" y="0.5" width="134" height="22" style="stroke-width: 1px; stroke: rgb(0, 0, 0); stroke-opacity: 0; fill: rgb(0, 0, 0); fill-opacity: 0;"/><text class="annotation-text" text-anchor="middle" x="67.265625" y="18" style="font-family: 'Open Sans', verdana, arial, sans-serif; font-size: 16px; fill: rgb(42, 63, 95); fill-opacity: 1; white-space: pre;">Deaths reported</text></g></g></g><g class="annotation" data-index="4" style="opacity: 1;"><g class="annotation-text-g" transform="rotate(0,201.5,881.8333333333334)"><g class="cursor-pointer" transform="translate(156, 870)"><rect class="bg" x="0.5" y="0.5" width="90" height="22" style="stroke-width: 1px; stroke: rgb(0, 0, 0); stroke-opacity: 0; fill: rgb(0, 0, 0); fill-opacity: 0;"/><text class="annotation-text" text-anchor="middle" x="45.609375" y="18" style="font-family: 'Open Sans', verdana, arial, sans-serif; font-size: 16px; fill: rgb(42, 63, 95); fill-opacity: 1; white-space: pre;">New Cases</text></g></g></g><g class="annotation" data-index="5" style="opacity: 1;"><g class="annotation-text-g" transform="rotate(0,498.5,881.8333333333334)"><g class="cursor-pointer" transform="translate(423, 870)"><rect class="bg" x="0.5" y="0.5" width="151" height="22" style="stroke-width: 1px; stroke: rgb(0, 0, 0); stroke-opacity: 0; fill: rgb(0, 0, 0); fill-opacity: 0;"/><text class="annotation-text" text-anchor="middle" x="76.015625" y="18" style="font-family: 'Open Sans', verdana, arial, sans-serif; font-size: 16px; fill: rgb(42, 63, 95); fill-opacity: 1; white-space: pre;">Countries Affected</text></g></g></g></g></svg>