<svg class="main-svg" xmlns="http://www.w3.org/2000/svg" xmlns:xlink="http://www.w3.org/1999/xlink" width="700" height="1500" style="" viewBox="0 0 700 1500"><rect x="0" y="0" width="700" height="1500" style="fill: rgb(255, 255, 255); fill-opacity: 1;"/><defs id="defs-da84c9"><g class="clips"><clipPath id="clipda84c9xyplot" class="plotclip"><rect width="540" height="1085"/></clipPath><clipPath class="axesclip" id="clipda84c9x"><rect x="80" y="0" width="540" height="1500"/></clipPath><clipPath class="axesclip" id="clipda84c9y"><rect x="0" y="100" width="700" height="1085"/></clipPath><clipPath class="axesclip" id="clipda84c9xy"><rect x="80" y="100" width="540" height="1085"/></clipPath></g><g class="gradients"/></defs><g class="bglayer"><rect class="bg" x="80" y="100" width="540" height="1085" style="fill: rgb(229, 236, 246); fill-opacity: 1; stroke-width: 0;"/></g><g class="layer-below"><g class="imagelayer"/><g class="shapelayer"/></g><g class="cartesianlayer"><g class="subplot xy"><g class="layer-subplot"><g class="shapelayer"/><g class="imagelayer"/></g><g class="gridlayer"><g class="x"><path class="xgrid crisp" transform="translate(84.75,0)" d="M0,100v1085" style="stroke: rgb(255, 255, 255); stroke-opacity: 1; stroke-width: 1px;"/><path class="xgrid crisp" transform="translate(107.89,0)" d="M0,100v1085" style="stroke: rgb(255, 255, 255); stroke-opacity: 1; stroke-width: 1px;"/><path class="xgrid crisp" transform="translate(127.45,0)" d="M0,100v1085" style="stroke: rgb(255, 255, 255); stroke-opacity: 1; stroke-width: 1px;"/><path class="xgrid crisp" transform="translate(144.4,0)" d="M0,100v1085" style="stroke: rgb(255, 255, 255); stroke-opacity: 1; stroke-width: 1px;"/><path class="xgrid crisp" transform="translate(159.34,0)" d="M0,100v1085" style="stroke: rgb(255, 255, 255); stroke-opacity: 1; stroke-width: 1px;"/><path class="xgrid crisp" transform="translate(172.70999999999998,0)" d="M0,100v1085" style="stroke: rgb(255, 255, 255); stroke-opacity: 1; stroke-width: 1px;"/><path class="xgrid crisp" transform="translate(260.66999999999996,0)" d="M0,100v1085" style="stroke: rgb(255, 255, 255); stroke-opacity: 1; stroke-width: 1px;"/><path class="xgrid crisp" transform="translate(312.13,0)" d="M0,100v1085" style="stroke: rgb(255, 255, 255); stroke-opacity: 1; stroke-width: 1px;"/><path class="xgrid crisp" transform="translate(348.64,0)" d="M0,100v1085" style="stroke: rgb(255, 255, 255); stroke-opacity: 1; stroke-width: 1px;"/><path class="xgrid crisp" transform="translate(376.95,0)" d="M0,100v1085" style="stroke: rgb(255, 255, 255); stroke-opacity: 1; stroke-width: 1px;"/><path class="xgrid crisp" transform="translate(400.09,0)" d="M0,100v1085" style="stroke: rgb(255, 255, 255); stroke-opacity: 1; stroke-width: 1px;"/><path class="xgrid crisp" transform="translate(419.65,0)" d="M0,100v1085" style="stroke: rgb(255, 255, 255); stroke-opacity: 1; stroke-width: 1px;"/><path class="xgrid crisp" transform="translate(436.6,0)" d="M0,100v1085" style="stroke: rgb(255, 255, 255); stroke-opacity: 1; stroke-width: 1px;"/><path class="xgrid crisp" transform="translate(451.55,0)" d="M0,100v1085" style="stroke: rgb(255, 255, 255); stroke-opacity: 1; stroke-width: 1px;"/><path class="xgrid crisp" transform="translate(464.92,0)" d="M0,100v1085" style="stroke: rgb(255, 255, 255); stroke-opacity: 1; stroke-width: 1px;"/><path class="xgrid crisp" transform="translate(552.88,0)" d="M0,100v1085" style="stroke: rgb(255, 255, 255); stroke-opacity: 1; stroke-width: 1px;"/><path class="xgrid crisp" transform="translate(604.33,0)" d="M0,100v1085" style="stroke: rgb(255, 255, 255); stroke-opacity: 1; stroke-width: 1px;"/></g><g class="y"><path class="ygrid crisp" transform="translate(0,1172.66)" d="M80,0h540" style="stroke: rgb(255, 255, 255); stroke-opacity: 1; stroke-width: 1px;"/><path class="ygrid crisp" transform="translate(0,1065.7)" d="M80,0h540" style="stroke: rgb(255, 255, 255); stroke-opacity: 1; stroke-width: 1px;"/><path class="ygrid crisp" transform="translate(0,924.32)" d="M80,0h540" style="stroke: rgb(255, 255, 255); stroke-opacity: 1; stroke-width: 1px;"/><path class="ygrid crisp" transform="translate(0,817.36)" d="M80,0h540" style="stroke: rgb(255, 255, 255); stroke-opacity: 1; stroke-width: 1px;"/><path class="ygrid crisp" transform="translate(0,710.41)" d="M80,0h540" style="stroke: rgb(255, 255, 255); stroke-opacity: 1; stroke-width: 1px;"/><path class="ygrid crisp" transform="translate(0,569.02)" d="M80,0h540" style="stroke: rgb(255, 255, 255); stroke-opacity: 1; stroke-width: 1px;"/><path class="ygrid crisp" transform="translate(0,462.07)" d="M80,0h540" style="stroke: rgb(255, 255, 255); stroke-opacity: 1; stroke-width: 1px;"/><path class="ygrid crisp" transform="translate(0,355.12)" d="M80,0h540" style="stroke: rgb(255, 255, 255); stroke-opacity: 1; stroke-width: 1px;"/><path class="ygrid crisp" transform="translate(0,213.73000000000002)" d="M80,0h540" style="stroke: rgb(255, 255, 255); stroke-opacity: 1; stroke-width: 1px;"/><path class="ygrid crisp" transform="translate(0,106.78)" d="M80,0h540" style="stroke: rgb(255, 255, 255); stroke-opacity: 1; stroke-width: 1px;"/></g></g><g class="zerolinelayer"/><path class="xlines-below"/><path class="ylines-below"/><g class="overlines-below"/><g class="xaxislayer-below"/><g class="yaxislayer-below"/><g class="overaxes-below"/><g class="plot" transform="translate(80, 100)" clip-path="url('#clipda84c9xyplot')"><g class="scatterlayer mlayer"><g class="trace scatter trace2d7bbb" style="stroke-miterlimit: 2; opacity: 1;"><g class="fills"/><g class="errorbars"/><g class="lines"/><g class="points"><path class="point" transform="translate(410.99,66.39)" d="M10.07,0A10.07,10.07 0 1,1 0,-10.07A10.07,10.07 0 0,1 10.07,0Z" style="opacity: 0.7; stroke-width: 1px; fill: rgb(99, 110, 250); fill-opacity: 1; stroke: rgb(255, 255, 255); stroke-opacity: 1;"/></g><g class="text"><g class="textpoint" transform="translate(0,-16.587238957941263)"><text x="410.99" y="66.39" text-anchor="middle" style="font-family: 'Open Sans', verdana, arial, sans-serif; font-size: 12px; fill: rgb(42, 63, 95); fill-opacity: 1; white-space: pre;">Brazil</text></g></g></g><g class="trace scatter tracec8beb4" style="stroke-miterlimit: 2; opacity: 1;"><g class="fills"/><g class="errorbars"/><g class="lines"/><g class="points"><path class="point" transform="translate(497.19,70.06)" d="M14.14,0A14.14,14.14 0 1,1 0,-14.14A14.14,14.14 0 0,1 14.14,0Z" style="opacity: 0.7; stroke-width: 1px; fill: rgb(239, 85, 59); fill-opacity: 1; stroke: rgb(255, 255, 255); stroke-opacity: 1;"/></g><g class="text"><g class="textpoint" transform="translate(0,-21.67766952966369)"><text x="497.19" y="70.06" text-anchor="middle" style="font-family: 'Open Sans', verdana, arial, sans-serif; font-size: 12px; fill: rgb(42, 63, 95); fill-opacity: 1; white-space: pre;">US</text></g></g></g><g class="trace scatter traceeb1fc4" style="stroke-miterlimit: 2; opacity: 1;"><g class="fills"/><g class="errorbars"/><g class="lines"/><g class="points"><path class="point" transform="translate(322.84,158.3)" d="M7.12,0A7.12,7.12 0 1,1 0,-7.12A7.12,7.12 0 0,1 7.12,0Z" style="opacity: 0.7; stroke-width: 1px; fill: rgb(0, 204, 150); fill-opacity: 1; stroke: rgb(255, 255, 255); stroke-opacity: 1;"/></g><g class="text"><g class="textpoint" transform="translate(0,-12.89393177959627)"><text x="322.84" y="158.3" text-anchor="middle" style="font-family: 'Open Sans', verdana, arial, sans-serif; font-size: 12px; fill: rgb(42, 63, 95); fill-opacity: 1; white-space: pre;">Russia</text></g></g></g><g class="trace scatter trace4372f4" style="stroke-miterlimit: 2; opacity: 1;"><g class="fills"/><g class="errorbars"/><g class="lines"/><g class="points"><path class="point" transform="translate(294.49,200.12)" d="M6.36,0A6.36,6.36 0 1,1 0,-6.36A6.36,6.36 0 0,1 6.36,0Z" style="opacity: 0.7; stroke-width: 1px; fill: rgb(171, 99, 250); fill-opacity: 1; stroke: rgb(255, 255, 255); stroke-opacity: 1;"/></g><g class="text"><g class="textpoint" transform="translate(0,-11.954022395277235)"><text x="294.49" y="200.12" text-anchor="middle" style="font-family: 'Open Sans', verdana, arial, sans-serif; font-size: 12px; fill: rgb(42, 63, 95); fill-opacity: 1; white-space: pre;">India</text></g></g></g><g class="trace scatter trace688ba5" style="stroke-miterlimit: 2; opacity: 1;"><g class="fills"/><g class="errorbars"/><g class="lines"/><g class="points"><path class="point" transform="translate(213.51,240.88)" d="M4.62,0A4.62,4.62 0 1,1 0,-4.62A4.62,4.62 0 0,1 4.62,0Z" style="opacity: 0.7; stroke-width: 1px; fill: rgb(255, 161, 90); fill-opacity: 1; stroke: rgb(255, 255, 255); stroke-opacity: 1;"/></g><g class="text"><g class="textpoint" transform="translate(0,-9.781155742847385)"><text x="213.51" y="240.88" text-anchor="middle" style="font-family: 'Open Sans', verdana, arial, sans-serif; font-size: 12px; fill: rgb(42, 63, 95); fill-opacity: 1; white-space: pre;">Chile</text></g></g></g><g class="trace scatter traceb051eb" style="stroke-miterlimit: 2; opacity: 1;"><g class="fills"/><g class="errorbars"/><g class="lines"/><g class="points"><path class="point" transform="translate(203.66,265.71)" d="M4.45,0A4.45,4.45 0 1,1 0,-4.45A4.45,4.45 0 0,1 4.45,0Z" style="opacity: 0.7; stroke-width: 1px; fill: rgb(25, 211, 243); fill-opacity: 1; stroke: rgb(255, 255, 255); stroke-opacity: 1;"/></g><g class="text"><g class="textpoint" transform="translate(0,-9.560970462814305)"><text x="203.66" y="265.71" text-anchor="middle" style="font-family: 'Open Sans', verdana, arial, sans-serif; font-size: 12px; fill: rgb(42, 63, 95); fill-opacity: 1; white-space: pre;">Italy</text></g></g></g><g class="trace scatter trace05d493" style="stroke-miterlimit: 2; opacity: 1;"><g class="fills"/><g class="errorbars"/><g class="lines"/><g class="points"><path class="point" transform="translate(176.4,274.17)" d="M4,0A4,4 0 1,1 0,-4A4,4 0 0,1 4,0Z" style="opacity: 0.7; stroke-width: 1px; fill: rgb(255, 102, 146); fill-opacity: 1; stroke: rgb(255, 255, 255); stroke-opacity: 1;"/></g><g class="text"><g class="textpoint" transform="translate(0,-8.994670091822723)"><text x="176.4" y="274.17" text-anchor="middle" style="font-family: 'Open Sans', verdana, arial, sans-serif; font-size: 12px; fill: rgb(42, 63, 95); fill-opacity: 1; white-space: pre;">Germany</text></g></g></g><g class="trace scatter tracecd03ab" style="stroke-miterlimit: 2; opacity: 1;"><g class="fills"/><g class="errorbars"/><g class="lines"/><g class="points"><path class="point" transform="translate(189.91,275.63)" d="M4.21,0A4.21,4.21 0 1,1 0,-4.21A4.21,4.21 0 0,1 4.21,0Z" style="opacity: 0.7; stroke-width: 1px; fill: rgb(182, 232, 128); fill-opacity: 1; stroke: rgb(255, 255, 255); stroke-opacity: 1;"/></g><g class="text"><g class="textpoint" transform="translate(0,-9.267776044503856)"><text x="189.91" y="275.63" text-anchor="middle" style="font-family: 'Open Sans', verdana, arial, sans-serif; font-size: 12px; fill: rgb(42, 63, 95); fill-opacity: 1; white-space: pre;">Iran</text></g></g></g><g class="trace scatter trace9b51b0" style="stroke-miterlimit: 2; opacity: 1;"><g class="fills"/><g class="errorbars"/><g class="lines"/><g class="points"><path class="point" transform="translate(176.23,284.14)" d="M3.99,0A3.99,3.99 0 1,1 0,-3.99A3.99,3.99 0 0,1 3.99,0Z" style="opacity: 0.7; stroke-width: 1px; fill: rgb(255, 151, 255); fill-opacity: 1; stroke: rgb(255, 255, 255); stroke-opacity: 1;"/></g><g class="text"><g class="textpoint" transform="translate(0,-8.991362824926778)"><text x="176.23" y="284.14" text-anchor="middle" style="font-family: 'Open Sans', verdana, arial, sans-serif; font-size: 12px; fill: rgb(42, 63, 95); fill-opacity: 1; white-space: pre;">Turkey</text></g></g></g><g class="trace scatter tracee2966c" style="stroke-miterlimit: 2; opacity: 1;"><g class="fills"/><g class="errorbars"/><g class="lines"/><g class="points"><path class="point" transform="translate(182.53,297.1)" d="M4.09,0A4.09,4.09 0 1,1 0,-4.09A4.09,4.09 0 0,1 4.09,0Z" style="opacity: 0.7; stroke-width: 1px; fill: rgb(254, 203, 82); fill-opacity: 1; stroke: rgb(255, 255, 255); stroke-opacity: 1;"/></g><g class="text"><g class="textpoint" transform="translate(0,-9.116897691568699)"><text x="182.53" y="297.1" text-anchor="middle" style="font-family: 'Open Sans', verdana, arial, sans-serif; font-size: 12px; fill: rgb(42, 63, 95); fill-opacity: 1; white-space: pre;">Mexico</text></g></g></g><g class="trace scatter trace388357" style="stroke-miterlimit: 2; opacity: 1;"><g class="fills"/><g class="errorbars"/><g class="lines"/><g class="points"><path class="point" transform="translate(218.1,298.25)" d="M4.71,0A4.71,4.71 0 1,1 0,-4.71A4.71,4.71 0 0,1 4.71,0Z" style="opacity: 0.7; stroke-width: 1px; fill: rgb(99, 110, 250); fill-opacity: 1; stroke: rgb(255, 255, 255); stroke-opacity: 1;"/></g><g class="text"><g class="textpoint" transform="translate(0,-9.8866166833468)"><text x="218.1" y="298.25" text-anchor="middle" style="font-family: 'Open Sans', verdana, arial, sans-serif; font-size: 12px; fill: rgb(42, 63, 95); fill-opacity: 1; white-space: pre;">Peru</text></g></g></g><g class="trace scatter trace4eea11" style="stroke-miterlimit: 2; opacity: 1;"><g class="fills"/><g class="errorbars"/><g class="lines"/><g class="points"><path class="point" transform="translate(207.71,299.12)" d="M4.52,0A4.52,4.52 0 1,1 0,-4.52A4.52,4.52 0 0,1 4.52,0Z" style="opacity: 0.7; stroke-width: 1px; fill: rgb(239, 85, 59); fill-opacity: 1; stroke: rgb(255, 255, 255); stroke-opacity: 1;"/></g><g class="text"><g class="textpoint" transform="translate(0,-9.650494468463478)"><text x="207.71" y="299.12" text-anchor="middle" style="font-family: 'Open Sans', verdana, arial, sans-serif; font-size: 12px; fill: rgb(42, 63, 95); fill-opacity: 1; white-space: pre;">Spain</text></g></g></g><g class="trace scatter tracebcb7b7" style="stroke-miterlimit: 2; opacity: 1;"><g class="fills"/><g class="errorbars"/><g class="lines"/><g class="points"><path class="point" transform="translate(160.53,336.69)" d="M3.75,0A3.75,3.75 0 1,1 0,-3.75A3.75,3.75 0 0,1 3.75,0Z" style="opacity: 0.7; stroke-width: 1px; fill: rgb(0, 204, 150); fill-opacity: 1; stroke: rgb(255, 255, 255); stroke-opacity: 1;"/></g><g class="text"><g class="textpoint" transform="translate(0,-8.691916608095916)"><text x="160.53" y="336.69" text-anchor="middle" style="font-family: 'Open Sans', verdana, arial, sans-serif; font-size: 12px; fill: rgb(42, 63, 95); fill-opacity: 1; white-space: pre;">Saudi Arabia</text></g></g></g><g class="trace scatter trace4285a6" style="stroke-miterlimit: 2; opacity: 1;"><g class="fills"/><g class="errorbars"/><g class="lines"/><g class="points"><path class="point" transform="translate(177.95,388.67)" d="M4.02,0A4.02,4.02 0 1,1 0,-4.02A4.02,4.02 0 0,1 4.02,0Z" style="opacity: 0.7; stroke-width: 1px; fill: rgb(171, 99, 250); fill-opacity: 1; stroke: rgb(255, 255, 255); stroke-opacity: 1;"/></g><g class="text"><g class="textpoint" transform="translate(0,-9.025236142510124)"><text x="177.95" y="388.67" text-anchor="middle" style="font-family: 'Open Sans', verdana, arial, sans-serif; font-size: 12px; fill: rgb(42, 63, 95); fill-opacity: 1; white-space: pre;">Pakistan</text></g></g></g><g class="trace scatter tracee9e5a7" style="stroke-miterlimit: 2; opacity: 1;"><g class="fills"/><g class="errorbars"/><g class="lines"/><g class="points"><path class="point" transform="translate(71.64,397.33)" d="M2.64,0A2.64,2.64 0 1,1 0,-2.64A2.64,2.64 0 0,1 2.64,0Z" style="opacity: 0.7; stroke-width: 1px; fill: rgb(255, 161, 90); fill-opacity: 1; stroke: rgb(255, 255, 255); stroke-opacity: 1;"/></g><g class="text"><g class="textpoint" transform="translate(0,-7.305638856015177)"><text x="71.64" y="397.33" text-anchor="middle" style="font-family: 'Open Sans', verdana, arial, sans-serif; font-size: 12px; fill: rgb(42, 63, 95); fill-opacity: 1; white-space: pre;">China</text></g></g></g><g class="trace scatter tracebc338c" style="stroke-miterlimit: 2; opacity: 1;"><g class="fills"/><g class="errorbars"/><g class="lines"/><g class="points"><path class="point" transform="translate(179.33,405.49)" d="M4.04,0A4.04,4.04 0 1,1 0,-4.04A4.04,4.04 0 0,1 4.04,0Z" style="opacity: 0.7; stroke-width: 1px; fill: rgb(25, 211, 243); fill-opacity: 1; stroke: rgb(255, 255, 255); stroke-opacity: 1;"/></g><g class="text"><g class="textpoint" transform="translate(0,-9.052630897515971)"><text x="179.33" y="405.49" text-anchor="middle" style="font-family: 'Open Sans', verdana, arial, sans-serif; font-size: 12px; fill: rgb(42, 63, 95); fill-opacity: 1; white-space: pre;">France</text></g></g></g><g class="trace scatter tracec3bc14" style="stroke-miterlimit: 2; opacity: 1;"><g class="fills"/><g class="errorbars"/><g class="lines"/><g class="points"><path class="point" transform="translate(81.91,407.4)" d="M2.75,0A2.75,2.75 0 1,1 0,-2.75A2.75,2.75 0 0,1 2.75,0Z" style="opacity: 0.7; stroke-width: 1px; fill: rgb(255, 102, 146); fill-opacity: 1; stroke: rgb(255, 255, 255); stroke-opacity: 1;"/></g><g class="text"><g class="textpoint" transform="translate(0,-7.4420909745393775)"><text x="81.91" y="407.4" text-anchor="middle" style="font-family: 'Open Sans', verdana, arial, sans-serif; font-size: 12px; fill: rgb(42, 63, 95); fill-opacity: 1; white-space: pre;">Qatar</text></g></g></g><g class="trace scatter trace5cce68" style="stroke-miterlimit: 2; opacity: 1;"><g class="fills"/><g class="errorbars"/><g class="lines"/><g class="points"><path class="point" transform="translate(98.24,424.17)" d="M2.94,0A2.94,2.94 0 1,1 0,-2.94A2.94,2.94 0 0,1 2.94,0Z" style="opacity: 0.7; stroke-width: 1px; fill: rgb(182, 232, 128); fill-opacity: 1; stroke: rgb(255, 255, 255); stroke-opacity: 1;"/></g><g class="text"><g class="textpoint" transform="translate(0,-7.670839176945522)"><text x="98.24" y="424.17" text-anchor="middle" style="font-family: 'Open Sans', verdana, arial, sans-serif; font-size: 12px; fill: rgb(42, 63, 95); fill-opacity: 1; white-space: pre;">Canada</text></g></g></g><g class="trace scatter trace085d68" style="stroke-miterlimit: 2; opacity: 1;"><g class="fills"/><g class="errorbars"/><g class="lines"/><g class="points"><path class="point" transform="translate(114.12,440.96)" d="M3.13,0A3.13,3.13 0 1,1 0,-3.13A3.13,3.13 0 0,1 3.13,0Z" style="opacity: 0.7; stroke-width: 1px; fill: rgb(255, 151, 255); fill-opacity: 1; stroke: rgb(255, 255, 255); stroke-opacity: 1;"/></g><g class="text"><g class="textpoint" transform="translate(0,-7.907879213667024)"><text x="114.12" y="440.96" text-anchor="middle" style="font-family: 'Open Sans', verdana, arial, sans-serif; font-size: 12px; fill: rgb(42, 63, 95); fill-opacity: 1; white-space: pre;">South Africa</text></g></g></g><g class="trace scatter trace58f706" style="stroke-miterlimit: 2; opacity: 1;"><g class="fills"/><g class="errorbars"/><g class="lines"/><g class="points"><path class="point" transform="translate(122.65,464.48)" d="M3.23,0A3.23,3.23 0 1,1 0,-3.23A3.23,3.23 0 0,1 3.23,0Z" style="opacity: 0.7; stroke-width: 1px; fill: rgb(254, 203, 82); fill-opacity: 1; stroke: rgb(255, 255, 255); stroke-opacity: 1;"/></g><g class="text"><g class="textpoint" transform="translate(0,-8.041459954103665)"><text x="122.65" y="464.48" text-anchor="middle" style="font-family: 'Open Sans', verdana, arial, sans-serif; font-size: 12px; fill: rgb(42, 63, 95); fill-opacity: 1; white-space: pre;">Bangladesh</text></g></g></g><g class="trace scatter trace953523" style="stroke-miterlimit: 2; opacity: 1;"><g class="fills"/><g class="errorbars"/><g class="lines"/><g class="points"><path class="point" transform="translate(60.06,539.2)" d="M2.53,0A2.53,2.53 0 1,1 0,-2.53A2.53,2.53 0 0,1 2.53,0Z" style="opacity: 0.7; stroke-width: 1px; fill: rgb(99, 110, 250); fill-opacity: 1; stroke: rgb(255, 255, 255); stroke-opacity: 1;"/></g><g class="text"><g class="textpoint" transform="translate(0,-7.1581837799695744)"><text x="60.06" y="539.2" text-anchor="middle" style="font-family: 'Open Sans', verdana, arial, sans-serif; font-size: 12px; fill: rgb(42, 63, 95); fill-opacity: 1; white-space: pre;">Colombia</text></g></g></g><g class="trace scatter trace9480cf" style="stroke-miterlimit: 2; opacity: 1;"><g class="fills"/><g class="errorbars"/><g class="lines"/><g class="points"><path class="point" transform="translate(30,636.49)" d="M2.24,0A2.24,2.24 0 1,1 0,-2.24A2.24,2.24 0 0,1 2.24,0Z" style="opacity: 0.7; stroke-width: 1px; fill: rgb(239, 85, 59); fill-opacity: 1; stroke: rgb(255, 255, 255); stroke-opacity: 1;"/></g><g class="text"><g class="textpoint" transform="translate(0,-6.8054399071987)"><text x="30" y="636.49" text-anchor="middle" style="font-family: 'Open Sans', verdana, arial, sans-serif; font-size: 12px; fill: rgb(42, 63, 95); fill-opacity: 1; white-space: pre;">Belgium</text></g></g></g><g class="trace scatter traceb30b2c" style="stroke-miterlimit: 2; opacity: 1;"><g class="fills"/><g class="errorbars"/><g class="lines"/><g class="points"><path class="point" transform="translate(30.26,641.62)" d="M2.25,0A2.25,2.25 0 1,1 0,-2.25A2.25,2.25 0 0,1 2.25,0Z" style="opacity: 0.7; stroke-width: 1px; fill: rgb(0, 204, 150); fill-opacity: 1; stroke: rgb(255, 255, 255); stroke-opacity: 1;"/></g><g class="text"><g class="textpoint" transform="translate(0,-6.808266593930439)"><text x="30.26" y="641.62" text-anchor="middle" style="font-family: 'Open Sans', verdana, arial, sans-serif; font-size: 12px; fill: rgb(42, 63, 95); fill-opacity: 1; white-space: pre;">Egypt</text></g></g></g><g class="trace scatter trace96899b" style="stroke-miterlimit: 2; opacity: 1;"><g class="fills"/><g class="errorbars"/><g class="lines"/><g class="points"><path class="point" transform="translate(236.07,1025.1)" d="M5.05,0A5.05,5.05 0 1,1 0,-5.05A5.05,5.05 0 0,1 5.05,0Z" style="opacity: 0.7; stroke-width: 1px; fill: rgb(171, 99, 250); fill-opacity: 1; stroke: rgb(255, 255, 255); stroke-opacity: 1;"/></g><g class="text"><g class="textpoint" transform="translate(0,-10.318440323031592)"><text x="236.07" y="1025.1" text-anchor="middle" style="font-family: 'Open Sans', verdana, arial, sans-serif; font-size: 12px; fill: rgb(42, 63, 95); fill-opacity: 1; white-space: pre;">United Kingdom</text></g></g></g><g class="trace scatter trace806585" style="stroke-miterlimit: 2; opacity: 1;"><g class="fills"/><g class="errorbars"/><g class="lines"/><g class="points"/><g class="text"/></g></g></g><g class="overplot"/><path class="xlines-above crisp" d="M0,0" style="fill: none;"/><path class="ylines-above crisp" d="M0,0" style="fill: none;"/><g class="overlines-above"/><g class="xaxislayer-above"><g class="xtick"><text text-anchor="middle" x="0" y="1195" transform="translate(84.75,0)" style="font-family: 'Open Sans', verdana, arial, sans-serif; font-size: 9px; fill: rgb(42, 63, 95); fill-opacity: 1; white-space: pre;">5</text></g><g class="xtick"><text text-anchor="middle" x="0" y="1195" transform="translate(107.89,0)" style="font-family: 'Open Sans', verdana, arial, sans-serif; font-size: 9px; fill: rgb(42, 63, 95); fill-opacity: 1; white-space: pre;">6</text></g><g class="xtick"><text text-anchor="middle" x="0" y="1195" transform="translate(127.45,0)" style="font-family: 'Open Sans', verdana, arial, sans-serif; font-size: 9px; fill: rgb(42, 63, 95); fill-opacity: 1; white-space: pre;">7</text></g><g class="xtick"><text text-anchor="middle" x="0" y="1195" transform="translate(144.4,0)" style="font-family: 'Open Sans', verdana, arial, sans-serif; font-size: 9px; fill: rgb(42, 63, 95); fill-opacity: 1; white-space: pre;">8</text></g><g class="xtick"><text text-anchor="middle" x="0" y="1195" transform="translate(159.34,0)" style="font-family: 'Open Sans', verdana, arial, sans-serif; font-size: 9px; fill: rgb(42, 63, 95); fill-opacity: 1; white-space: pre;">9</text></g><g class="xtick"><text text-anchor="middle" x="3" y="1204" transform="translate(172.70999999999998,0)" style="font-family: 'Open Sans', verdana, arial, sans-serif; font-size: 12px; fill: rgb(42, 63, 95); fill-opacity: 1; white-space: pre;">100k</text></g><g class="xtick"><text text-anchor="middle" x="0" y="1195" transform="translate(260.66999999999996,0)" style="font-family: 'Open Sans', verdana, arial, sans-serif; font-size: 9px; fill: rgb(42, 63, 95); fill-opacity: 1; white-space: pre;">2</text></g><g class="xtick"><text text-anchor="middle" x="0" y="1195" transform="translate(312.13,0)" style="font-family: 'Open Sans', verdana, arial, sans-serif; font-size: 9px; fill: rgb(42, 63, 95); fill-opacity: 1; white-space: pre;">3</text></g><g class="xtick"><text text-anchor="middle" x="0" y="1195" transform="translate(348.64,0)" style="font-family: 'Open Sans', verdana, arial, sans-serif; font-size: 9px; fill: rgb(42, 63, 95); fill-opacity: 1; white-space: pre;">4</text></g><g class="xtick"><text text-anchor="middle" x="0" y="1195" transform="translate(376.95,0)" style="font-family: 'Open Sans', verdana, arial, sans-serif; font-size: 9px; fill: rgb(42, 63, 95); fill-opacity: 1; white-space: pre;">5</text></g><g class="xtick"><text text-anchor="middle" x="0" y="1195" transform="translate(400.09,0)" style="font-family: 'Open Sans', verdana, arial, sans-serif; font-size: 9px; fill: rgb(42, 63, 95); fill-opacity: 1; white-space: pre;">6</text></g><g class="xtick"><text text-anchor="middle" x="0" y="1195" transform="translate(419.65,0)" style="font-family: 'Open Sans', verdana, arial, sans-serif; font-size: 9px; fill: rgb(42, 63, 95); fill-opacity: 1; white-space: pre;">7</text></g><g class="xtick"><text text-anchor="middle" x="0" y="1195" transform="translate(436.6,0)" style="font-family: 'Open Sans', verdana, arial, sans-serif; font-size: 9px; fill: rgb(42, 63, 95); fill-opacity: 1; white-space: pre;">8</text></g><g class="xtick"><text text-anchor="middle" x="0" y="1195" transform="translate(451.55,0)" style="font-family: 'Open Sans', verdana, arial, sans-serif; font-size: 9px; fill: rgb(42, 63, 95); fill-opacity: 1; white-space: pre;">9</text></g><g class="xtick"><text text-anchor="middle" x="3" y="1204" transform="translate(464.92,0)" style="font-family: 'Open Sans', verdana, arial, sans-serif; font-size: 12px; fill: rgb(42, 63, 95); fill-opacity: 1; white-space: pre;">1M</text></g><g class="xtick"><text text-anchor="middle" x="0" y="1195" transform="translate(552.88,0)" style="font-family: 'Open Sans', verdana, arial, sans-serif; font-size: 9px; fill: rgb(42, 63, 95); fill-opacity: 1; white-space: pre;">2</text></g><g class="xtick"><text text-anchor="middle" x="0" y="1195" transform="translate(604.33,0)" style="font-family: 'Open Sans', verdana, arial, sans-serif; font-size: 9px; fill: rgb(42, 63, 95); fill-opacity: 1; white-space: pre;">3</text></g></g><g class="yaxislayer-above"><g class="ytick"><text text-anchor="end" x="79" y="4.199999999999999" transform="translate(0,1172.66)" style="font-family: 'Open Sans', verdana, arial, sans-serif; font-size: 12px; fill: rgb(42, 63, 95); fill-opacity: 1; white-space: pre;">1000</text></g><g class="ytick"><text text-anchor="end" x="79" y="3.15" transform="translate(0,1065.7)" style="font-family: 'Open Sans', verdana, arial, sans-serif; font-size: 9px; fill: rgb(42, 63, 95); fill-opacity: 1; white-space: pre;">2</text></g><g class="ytick"><text text-anchor="end" x="79" y="3.15" transform="translate(0,924.32)" style="font-family: 'Open Sans', verdana, arial, sans-serif; font-size: 9px; fill: rgb(42, 63, 95); fill-opacity: 1; white-space: pre;">5</text></g><g class="ytick"><text text-anchor="end" x="79" y="4.199999999999999" transform="translate(0,817.36)" style="font-family: 'Open Sans', verdana, arial, sans-serif; font-size: 12px; fill: rgb(42, 63, 95); fill-opacity: 1; white-space: pre;">10k</text></g><g class="ytick"><text text-anchor="end" x="79" y="3.15" transform="translate(0,710.41)" style="font-family: 'Open Sans', verdana, arial, sans-serif; font-size: 9px; fill: rgb(42, 63, 95); fill-opacity: 1; white-space: pre;">2</text></g><g class="ytick"><text text-anchor="end" x="79" y="3.15" transform="translate(0,569.02)" style="font-family: 'Open Sans', verdana, arial, sans-serif; font-size: 9px; fill: rgb(42, 63, 95); fill-opacity: 1; white-space: pre;">5</text></g><g class="ytick"><text text-anchor="end" x="79" y="4.199999999999999" transform="translate(0,462.07)" style="font-family: 'Open Sans', verdana, arial, sans-serif; font-size: 12px; fill: rgb(42, 63, 95); fill-opacity: 1; white-space: pre;">100k</text></g><g class="ytick"><text text-anchor="end" x="79" y="3.15" transform="translate(0,355.12)" style="font-family: 'Open Sans', verdana, arial, sans-serif; font-size: 9px; fill: rgb(42, 63, 95); fill-opacity: 1; white-space: pre;">2</text></g><g class="ytick"><text text-anchor="end" x="79" y="3.15" transform="translate(0,213.73000000000002)" style="font-family: 'Open Sans', verdana, arial, sans-serif; font-size: 9px; fill: rgb(42, 63, 95); fill-opacity: 1; white-space: pre;">5</text></g><g class="ytick"><text text-anchor="end" x="79" y="4.199999999999999" transform="translate(0,106.78)" style="font-family: 'Open Sans', verdana, arial, sans-serif; font-size: 12px; fill: rgb(42, 63, 95); fill-opacity: 1; white-space: pre;">1M</text></g></g><g class="overaxes-above"/></g></g><g class="polarlayer"/><g class="ternarylayer"/><g class="geolayer"/><g class="funnelarealayer"/><g class="pielayer"/><g class="treemaplayer"/><g class="sunburstlayer"/><g class="glimages"/><defs id="topdefs-da84c9"><g class="clips"/><clipPath id="rangesliderx-da84c9"><rect x="0" y="0" width="540" height="198"/></clipPath></defs><g class="layer-above"><g class="imagelayer"/><g class="shapelayer"/></g><g class="infolayer"><g class="g-gtitle"><text class="gtitle" x="35" y="50" text-anchor="start" dy="0em" style="font-family: 'Open Sans', verdana, arial, sans-serif; font-size: 17px; fill: rgb(42, 63, 95); opacity: 1; font-weight: normal; white-space: pre;">Recovered vs Confirmed (Logarithmic Scale)</text></g><g class="rangeslider-container" pointer-events="all" transform="translate(80,1222)"><rect class="rangeslider-bg" x="0" y="0" shape-rendering="crispEdges" width="540" height="198" transform="translate(0,0)" fill="#E5ECF6" stroke="#444" stroke-width="0"/><g class="rangeslider-rangeplot xy" clip-path="url('#rangesliderx-da84c9')"><g class="layer-subplot"><g class="shapelayer"/><g class="imagelayer"/></g><g class="gridlayer"><g class="x"/><g class="y"/></g><g class="zerolinelayer"/><path class="xlines-below"/><path class="ylines-below"/><g class="overlines-below"/><g class="xaxislayer-below"/><g class="yaxislayer-below"/><g class="overaxes-below"/><g class="plot"><g class="scatterlayer mlayer rangeplot"><g class="trace scatter trace2d7bbb" style="stroke-miterlimit: 2; opacity: 1;"><g class="fills"/><g class="errorbars"/><g class="lines"/><g class="points"><path class="point" transform="translate(410.99,12.12)" d="M10.07,0A10.07,10.07 0 1,1 0,-10.07A10.07,10.07 0 0,1 10.07,0Z" style="opacity: 0.7; stroke-width: 1px; fill: rgb(99, 110, 250); fill-opacity: 1; stroke: rgb(255, 255, 255); stroke-opacity: 1;"/></g><g class="text"><g class="textpoint" transform="translate(0,-16.587238957941263)"><text x="410.99" y="12.12" text-anchor="middle" style="font-family: 'Open Sans', verdana, arial, sans-serif; font-size: 12px; fill: rgb(42, 63, 95); fill-opacity: 1; white-space: pre;">Brazil</text></g></g></g><g class="trace scatter tracec8beb4" style="stroke-miterlimit: 2; opacity: 1;"><g class="fills"/><g class="errorbars"/><g class="lines"/><g class="points"><path class="point" transform="translate(497.19,12.79)" d="M14.14,0A14.14,14.14 0 1,1 0,-14.14A14.14,14.14 0 0,1 14.14,0Z" style="opacity: 0.7; stroke-width: 1px; fill: rgb(239, 85, 59); fill-opacity: 1; stroke: rgb(255, 255, 255); stroke-opacity: 1;"/></g><g class="text"><g class="textpoint" transform="translate(0,-21.67766952966369)"><text x="497.19" y="12.79" text-anchor="middle" style="font-family: 'Open Sans', verdana, arial, sans-serif; font-size: 12px; fill: rgb(42, 63, 95); fill-opacity: 1; white-space: pre;">US</text></g></g></g><g class="trace scatter traceeb1fc4" style="stroke-miterlimit: 2; opacity: 1;"><g class="fills"/><g class="errorbars"/><g class="lines"/><g class="points"><path class="point" transform="translate(322.84,28.89)" d="M7.12,0A7.12,7.12 0 1,1 0,-7.12A7.12,7.12 0 0,1 7.12,0Z" style="opacity: 0.7; stroke-width: 1px; fill: rgb(0, 204, 150); fill-opacity: 1; stroke: rgb(255, 255, 255); stroke-opacity: 1;"/></g><g class="text"><g class="textpoint" transform="translate(0,-12.89393177959627)"><text x="322.84" y="28.89" text-anchor="middle" style="font-family: 'Open Sans', verdana, arial, sans-serif; font-size: 12px; fill: rgb(42, 63, 95); fill-opacity: 1; white-space: pre;">Russia</text></g></g></g><g class="trace scatter trace4372f4" style="stroke-miterlimit: 2; opacity: 1;"><g class="fills"/><g class="errorbars"/><g class="lines"/><g class="points"><path class="point" transform="translate(294.49,36.52)" d="M6.36,0A6.36,6.36 0 1,1 0,-6.36A6.36,6.36 0 0,1 6.36,0Z" style="opacity: 0.7; stroke-width: 1px; fill: rgb(171, 99, 250); fill-opacity: 1; stroke: rgb(255, 255, 255); stroke-opacity: 1;"/></g><g class="text"><g class="textpoint" transform="translate(0,-11.954022395277235)"><text x="294.49" y="36.52" text-anchor="middle" style="font-family: 'Open Sans', verdana, arial, sans-serif; font-size: 12px; fill: rgb(42, 63, 95); fill-opacity: 1; white-space: pre;">India</text></g></g></g><g class="trace scatter trace688ba5" style="stroke-miterlimit: 2; opacity: 1;"><g class="fills"/><g class="errorbars"/><g class="lines"/><g class="points"><path class="point" transform="translate(213.51,43.96)" d="M4.62,0A4.62,4.62 0 1,1 0,-4.62A4.62,4.62 0 0,1 4.62,0Z" style="opacity: 0.7; stroke-width: 1px; fill: rgb(255, 161, 90); fill-opacity: 1; stroke: rgb(255, 255, 255); stroke-opacity: 1;"/></g><g class="text"><g class="textpoint" transform="translate(0,-9.781155742847385)"><text x="213.51" y="43.96" text-anchor="middle" style="font-family: 'Open Sans', verdana, arial, sans-serif; font-size: 12px; fill: rgb(42, 63, 95); fill-opacity: 1; white-space: pre;">Chile</text></g></g></g><g class="trace scatter traceb051eb" style="stroke-miterlimit: 2; opacity: 1;"><g class="fills"/><g class="errorbars"/><g class="lines"/><g class="points"><path class="point" transform="translate(203.66,48.49)" d="M4.45,0A4.45,4.45 0 1,1 0,-4.45A4.45,4.45 0 0,1 4.45,0Z" style="opacity: 0.7; stroke-width: 1px; fill: rgb(25, 211, 243); fill-opacity: 1; stroke: rgb(255, 255, 255); stroke-opacity: 1;"/></g><g class="text"><g class="textpoint" transform="translate(0,-9.560970462814305)"><text x="203.66" y="48.49" text-anchor="middle" style="font-family: 'Open Sans', verdana, arial, sans-serif; font-size: 12px; fill: rgb(42, 63, 95); fill-opacity: 1; white-space: pre;">Italy</text></g></g></g><g class="trace scatter trace05d493" style="stroke-miterlimit: 2; opacity: 1;"><g class="fills"/><g class="errorbars"/><g class="lines"/><g class="points"><path class="point" transform="translate(176.4,50.03)" d="M4,0A4,4 0 1,1 0,-4A4,4 0 0,1 4,0Z" style="opacity: 0.7; stroke-width: 1px; fill: rgb(255, 102, 146); fill-opacity: 1; stroke: rgb(255, 255, 255); stroke-opacity: 1;"/></g><g class="text"><g class="textpoint" transform="translate(0,-8.994670091822723)"><text x="176.4" y="50.03" text-anchor="middle" style="font-family: 'Open Sans', verdana, arial, sans-serif; font-size: 12px; fill: rgb(42, 63, 95); fill-opacity: 1; white-space: pre;">Germany</text></g></g></g><g class="trace scatter tracecd03ab" style="stroke-miterlimit: 2; opacity: 1;"><g class="fills"/><g class="errorbars"/><g class="lines"/><g class="points"><path class="point" transform="translate(189.91,50.3)" d="M4.21,0A4.21,4.21 0 1,1 0,-4.21A4.21,4.21 0 0,1 4.21,0Z" style="opacity: 0.7; stroke-width: 1px; fill: rgb(182, 232, 128); fill-opacity: 1; stroke: rgb(255, 255, 255); stroke-opacity: 1;"/></g><g class="text"><g class="textpoint" transform="translate(0,-9.267776044503856)"><text x="189.91" y="50.3" text-anchor="middle" style="font-family: 'Open Sans', verdana, arial, sans-serif; font-size: 12px; fill: rgb(42, 63, 95); fill-opacity: 1; white-space: pre;">Iran</text></g></g></g><g class="trace scatter trace9b51b0" style="stroke-miterlimit: 2; opacity: 1;"><g class="fills"/><g class="errorbars"/><g class="lines"/><g class="points"><path class="point" transform="translate(176.23,51.85)" d="M3.99,0A3.99,3.99 0 1,1 0,-3.99A3.99,3.99 0 0,1 3.99,0Z" style="opacity: 0.7; stroke-width: 1px; fill: rgb(255, 151, 255); fill-opacity: 1; stroke: rgb(255, 255, 255); stroke-opacity: 1;"/></g><g class="text"><g class="textpoint" transform="translate(0,-8.991362824926778)"><text x="176.23" y="51.85" text-anchor="middle" style="font-family: 'Open Sans', verdana, arial, sans-serif; font-size: 12px; fill: rgb(42, 63, 95); fill-opacity: 1; white-space: pre;">Turkey</text></g></g></g><g class="trace scatter tracee2966c" style="stroke-miterlimit: 2; opacity: 1;"><g class="fills"/><g class="errorbars"/><g class="lines"/><g class="points"><path class="point" transform="translate(182.53,54.22)" d="M4.09,0A4.09,4.09 0 1,1 0,-4.09A4.09,4.09 0 0,1 4.09,0Z" style="opacity: 0.7; stroke-width: 1px; fill: rgb(254, 203, 82); fill-opacity: 1; stroke: rgb(255, 255, 255); stroke-opacity: 1;"/></g><g class="text"><g class="textpoint" transform="translate(0,-9.116897691568699)"><text x="182.53" y="54.22" text-anchor="middle" style="font-family: 'Open Sans', verdana, arial, sans-serif; font-size: 12px; fill: rgb(42, 63, 95); fill-opacity: 1; white-space: pre;">Mexico</text></g></g></g><g class="trace scatter trace388357" style="stroke-miterlimit: 2; opacity: 1;"><g class="fills"/><g class="errorbars"/><g class="lines"/><g class="points"><path class="point" transform="translate(218.1,54.43)" d="M4.71,0A4.71,4.71 0 1,1 0,-4.71A4.71,4.71 0 0,1 4.71,0Z" style="opacity: 0.7; stroke-width: 1px; fill: rgb(99, 110, 250); fill-opacity: 1; stroke: rgb(255, 255, 255); stroke-opacity: 1;"/></g><g class="text"><g class="textpoint" transform="translate(0,-9.8866166833468)"><text x="218.1" y="54.43" text-anchor="middle" style="font-family: 'Open Sans', verdana, arial, sans-serif; font-size: 12px; fill: rgb(42, 63, 95); fill-opacity: 1; white-space: pre;">Peru</text></g></g></g><g class="trace scatter trace4eea11" style="stroke-miterlimit: 2; opacity: 1;"><g class="fills"/><g class="errorbars"/><g class="lines"/><g class="points"><path class="point" transform="translate(207.71,54.59)" d="M4.52,0A4.52,4.52 0 1,1 0,-4.52A4.52,4.52 0 0,1 4.52,0Z" style="opacity: 0.7; stroke-width: 1px; fill: rgb(239, 85, 59); fill-opacity: 1; stroke: rgb(255, 255, 255); stroke-opacity: 1;"/></g><g class="text"><g class="textpoint" transform="translate(0,-9.650494468463478)"><text x="207.71" y="54.59" text-anchor="middle" style="font-family: 'Open Sans', verdana, arial, sans-serif; font-size: 12px; fill: rgb(42, 63, 95); fill-opacity: 1; white-space: pre;">Spain</text></g></g></g><g class="trace scatter tracebcb7b7" style="stroke-miterlimit: 2; opacity: 1;"><g class="fills"/><g class="errorbars"/><g class="lines"/><g class="points"><path class="point" transform="translate(160.53,61.44)" d="M3.75,0A3.75,3.75 0 1,1 0,-3.75A3.75,3.75 0 0,1 3.75,0Z" style="opacity: 0.7; stroke-width: 1px; fill: rgb(0, 204, 150); fill-opacity: 1; stroke: rgb(255, 255, 255); stroke-opacity: 1;"/></g><g class="text"><g class="textpoint" transform="translate(0,-8.691916608095916)"><text x="160.53" y="61.44" text-anchor="middle" style="font-family: 'Open Sans', verdana, arial, sans-serif; font-size: 12px; fill: rgb(42, 63, 95); fill-opacity: 1; white-space: pre;">Saudi Arabia</text></g></g></g><g class="trace scatter trace4285a6" style="stroke-miterlimit: 2; opacity: 1;"><g class="fills"/><g class="errorbars"/><g class="lines"/><g class="points"><path class="point" transform="translate(177.95,70.93)" d="M4.02,0A4.02,4.02 0 1,1 0,-4.02A4.02,4.02 0 0,1 4.02,0Z" style="opacity: 0.7; stroke-width: 1px; fill: rgb(171, 99, 250); fill-opacity: 1; stroke: rgb(255, 255, 255); stroke-opacity: 1;"/></g><g class="text"><g class="textpoint" transform="translate(0,-9.025236142510124)"><text x="177.95" y="70.93" text-anchor="middle" style="font-family: 'Open Sans', verdana, arial, sans-serif; font-size: 12px; fill: rgb(42, 63, 95); fill-opacity: 1; white-space: pre;">Pakistan</text></g></g></g><g class="trace scatter tracee9e5a7" style="stroke-miterlimit: 2; opacity: 1;"><g class="fills"/><g class="errorbars"/><g class="lines"/><g class="points"><path class="point" transform="translate(71.64,72.51)" d="M2.64,0A2.64,2.64 0 1,1 0,-2.64A2.64,2.64 0 0,1 2.64,0Z" style="opacity: 0.7; stroke-width: 1px; fill: rgb(255, 161, 90); fill-opacity: 1; stroke: rgb(255, 255, 255); stroke-opacity: 1;"/></g><g class="text"><g class="textpoint" transform="translate(0,-7.305638856015177)"><text x="71.64" y="72.51" text-anchor="middle" style="font-family: 'Open Sans', verdana, arial, sans-serif; font-size: 12px; fill: rgb(42, 63, 95); fill-opacity: 1; white-space: pre;">China</text></g></g></g><g class="trace scatter tracebc338c" style="stroke-miterlimit: 2; opacity: 1;"><g class="fills"/><g class="errorbars"/><g class="lines"/><g class="points"><path class="point" transform="translate(179.33,74)" d="M4.04,0A4.04,4.04 0 1,1 0,-4.04A4.04,4.04 0 0,1 4.04,0Z" style="opacity: 0.7; stroke-width: 1px; fill: rgb(25, 211, 243); fill-opacity: 1; stroke: rgb(255, 255, 255); stroke-opacity: 1;"/></g><g class="text"><g class="textpoint" transform="translate(0,-9.052630897515971)"><text x="179.33" y="74" text-anchor="middle" style="font-family: 'Open Sans', verdana, arial, sans-serif; font-size: 12px; fill: rgb(42, 63, 95); fill-opacity: 1; white-space: pre;">France</text></g></g></g><g class="trace scatter tracec3bc14" style="stroke-miterlimit: 2; opacity: 1;"><g class="fills"/><g class="errorbars"/><g class="lines"/><g class="points"><path class="point" transform="translate(81.91,74.35)" d="M2.75,0A2.75,2.75 0 1,1 0,-2.75A2.75,2.75 0 0,1 2.75,0Z" style="opacity: 0.7; stroke-width: 1px; fill: rgb(255, 102, 146); fill-opacity: 1; stroke: rgb(255, 255, 255); stroke-opacity: 1;"/></g><g class="text"><g class="textpoint" transform="translate(0,-7.4420909745393775)"><text x="81.91" y="74.35" text-anchor="middle" style="font-family: 'Open Sans', verdana, arial, sans-serif; font-size: 12px; fill: rgb(42, 63, 95); fill-opacity: 1; white-space: pre;">Qatar</text></g></g></g><g class="trace scatter trace5cce68" style="stroke-miterlimit: 2; opacity: 1;"><g class="fills"/><g class="errorbars"/><g class="lines"/><g class="points"><path class="point" transform="translate(98.24,77.41)" d="M2.94,0A2.94,2.94 0 1,1 0,-2.94A2.94,2.94 0 0,1 2.94,0Z" style="opacity: 0.7; stroke-width: 1px; fill: rgb(182, 232, 128); fill-opacity: 1; stroke: rgb(255, 255, 255); stroke-opacity: 1;"/></g><g class="text"><g class="textpoint" transform="translate(0,-7.670839176945522)"><text x="98.24" y="77.41" text-anchor="middle" style="font-family: 'Open Sans', verdana, arial, sans-serif; font-size: 12px; fill: rgb(42, 63, 95); fill-opacity: 1; white-space: pre;">Canada</text></g></g></g><g class="trace scatter trace085d68" style="stroke-miterlimit: 2; opacity: 1;"><g class="fills"/><g class="errorbars"/><g class="lines"/><g class="points"><path class="point" transform="translate(114.12,80.47)" d="M3.13,0A3.13,3.13 0 1,1 0,-3.13A3.13,3.13 0 0,1 3.13,0Z" style="opacity: 0.7; stroke-width: 1px; fill: rgb(255, 151, 255); fill-opacity: 1; stroke: rgb(255, 255, 255); stroke-opacity: 1;"/></g><g class="text"><g class="textpoint" transform="translate(0,-7.907879213667024)"><text x="114.12" y="80.47" text-anchor="middle" style="font-family: 'Open Sans', verdana, arial, sans-serif; font-size: 12px; fill: rgb(42, 63, 95); fill-opacity: 1; white-space: pre;">South Africa</text></g></g></g><g class="trace scatter trace58f706" style="stroke-miterlimit: 2; opacity: 1;"><g class="fills"/><g class="errorbars"/><g class="lines"/><g class="points"><path class="point" transform="translate(122.65,84.76)" d="M3.23,0A3.23,3.23 0 1,1 0,-3.23A3.23,3.23 0 0,1 3.23,0Z" style="opacity: 0.7; stroke-width: 1px; fill: rgb(254, 203, 82); fill-opacity: 1; stroke: rgb(255, 255, 255); stroke-opacity: 1;"/></g><g class="text"><g class="textpoint" transform="translate(0,-8.041459954103665)"><text x="122.65" y="84.76" text-anchor="middle" style="font-family: 'Open Sans', verdana, arial, sans-serif; font-size: 12px; fill: rgb(42, 63, 95); fill-opacity: 1; white-space: pre;">Bangladesh</text></g></g></g><g class="trace scatter trace953523" style="stroke-miterlimit: 2; opacity: 1;"><g class="fills"/><g class="errorbars"/><g class="lines"/><g class="points"><path class="point" transform="translate(60.06,98.4)" d="M2.53,0A2.53,2.53 0 1,1 0,-2.53A2.53,2.53 0 0,1 2.53,0Z" style="opacity: 0.7; stroke-width: 1px; fill: rgb(99, 110, 250); fill-opacity: 1; stroke: rgb(255, 255, 255); stroke-opacity: 1;"/></g><g class="text"><g class="textpoint" transform="translate(0,-7.1581837799695744)"><text x="60.06" y="98.4" text-anchor="middle" style="font-family: 'Open Sans', verdana, arial, sans-serif; font-size: 12px; fill: rgb(42, 63, 95); fill-opacity: 1; white-space: pre;">Colombia</text></g></g></g><g class="trace scatter trace9480cf" style="stroke-miterlimit: 2; opacity: 1;"><g class="fills"/><g class="errorbars"/><g class="lines"/><g class="points"><path class="point" transform="translate(30,116.15)" d="M2.24,0A2.24,2.24 0 1,1 0,-2.24A2.24,2.24 0 0,1 2.24,0Z" style="opacity: 0.7; stroke-width: 1px; fill: rgb(239, 85, 59); fill-opacity: 1; stroke: rgb(255, 255, 255); stroke-opacity: 1;"/></g><g class="text"><g class="textpoint" transform="translate(0,-6.8054399071987)"><text x="30" y="116.15" text-anchor="middle" style="font-family: 'Open Sans', verdana, arial, sans-serif; font-size: 12px; fill: rgb(42, 63, 95); fill-opacity: 1; white-space: pre;">Belgium</text></g></g></g><g class="trace scatter traceb30b2c" style="stroke-miterlimit: 2; opacity: 1;"><g class="fills"/><g class="errorbars"/><g class="lines"/><g class="points"><path class="point" transform="translate(30.26,117.09)" d="M2.25,0A2.25,2.25 0 1,1 0,-2.25A2.25,2.25 0 0,1 2.25,0Z" style="opacity: 0.7; stroke-width: 1px; fill: rgb(0, 204, 150); fill-opacity: 1; stroke: rgb(255, 255, 255); stroke-opacity: 1;"/></g><g class="text"><g class="textpoint" transform="translate(0,-6.808266593930439)"><text x="30.26" y="117.09" text-anchor="middle" style="font-family: 'Open Sans', verdana, arial, sans-serif; font-size: 12px; fill: rgb(42, 63, 95); fill-opacity: 1; white-space: pre;">Egypt</text></g></g></g><g class="trace scatter trace96899b" style="stroke-miterlimit: 2; opacity: 1;"><g class="fills"/><g class="errorbars"/><g class="lines"/><g class="points"><path class="point" transform="translate(236.07,187.07)" d="M5.05,0A5.05,5.05 0 1,1 0,-5.05A5.05,5.05 0 0,1 5.05,0Z" style="opacity: 0.7; stroke-width: 1px; fill: rgb(171, 99, 250); fill-opacity: 1; stroke: rgb(255, 255, 255); stroke-opacity: 1;"/></g><g class="text"><g class="textpoint" transform="translate(0,-10.318440323031592)"><text x="236.07" y="187.07" text-anchor="middle" style="font-family: 'Open Sans', verdana, arial, sans-serif; font-size: 12px; fill: rgb(42, 63, 95); fill-opacity: 1; white-space: pre;">United Kingdom</text></g></g></g><g class="trace scatter trace806585" style="stroke-miterlimit: 2; opacity: 1;"><g class="fills"/><g class="errorbars"/><g class="lines"/><g class="points"/><g class="text"/></g></g></g><g class="overplot"/><path class="xlines-above crisp" style="fill: none;"/><path class="ylines-above crisp" style="fill: none;"/><g class="overlines-above"/><g class="xaxislayer-above"/><g class="yaxislayer-above"/><g class="overaxes-above"/></g><rect class="rangeslider-mask-min" x="0" y="0" shape-rendering="crispEdges" height="198" width="0" style="fill: rgb(0, 0, 0); fill-opacity: 0.4;"/><rect class="rangeslider-mask-max" y="0" shape-rendering="crispEdges" height="198" x="540" width="0" style="fill: rgb(0, 0, 0); fill-opacity: 0.4;"/><g class="rangeslider-grabber-min" transform="translate(-2.5,0.5)"><rect class="rangeslider-handle-min" x="0" width="4" rx="1" fill="#fff" stroke="#444" stroke-width="1" shape-rendering="crispEdges" y="50" height="99"/></g><g class="rangeslider-grabber-max" transform="translate(538.5,0.5)"><rect class="rangeslider-handle-max" x="0" width="4" rx="1" fill="#fff" stroke="#444" stroke-width="1" shape-rendering="crispEdges" y="50" height="99"/></g></g><g class="g-ytitle"><text class="ytitle" transform="rotate(-90,27.496875000000003,642.5)" x="27.496875000000003" y="642.5" text-anchor="middle" style="font-family: 'Open Sans', verdana, arial, sans-serif; font-size: 14px; fill: rgb(42, 63, 95); opacity: 1; font-weight: normal; white-space: pre;">Recovered</text></g><g class="g-xtitle"><text class="xtitle" x="350" y="1451" text-anchor="middle" style="font-family: 'Open Sans', verdana, arial, sans-serif; font-size: 14px; fill: rgb(42, 63, 95); opacity: 1; font-weight: normal; white-space: pre;">Confirmed</text></g></g></svg>