<svg class="main-svg" xmlns="http://www.w3.org/2000/svg" xmlns:xlink="http://www.w3.org/1999/xlink" width="700" height="1500" style="" viewBox="0 0 700 1500"><rect x="0" y="0" width="700" height="1500" style="fill: rgb(255, 255, 255); fill-opacity: 1;"/><defs id="defs-46c517"><g class="clips"><clipPath id="clip46c517xyplot" class="plotclip"><rect width="540" height="1083"/></clipPath><clipPath class="axesclip" id="clip46c517x"><rect x="80" y="0" width="540" height="1500"/></clipPath><clipPath class="axesclip" id="clip46c517y"><rect x="0" y="100" width="700" height="1083"/></clipPath><clipPath class="axesclip" id="clip46c517xy"><rect x="80" y="100" width="540" height="1083"/></clipPath></g><g class="gradients"/></defs><g class="bglayer"><rect class="bg" x="80" y="100" width="540" height="1083" style="fill: rgb(229, 236, 246); fill-opacity: 1; stroke-width: 0;"/></g><g class="layer-below"><g class="imagelayer"/><g class="shapelayer"/></g><g class="cartesianlayer"><g class="subplot xy"><g class="layer-subplot"><g class="shapelayer"/><g class="imagelayer"/></g><g class="gridlayer"><g class="x"><path class="xgrid crisp" transform="translate(83.22,0)" d="M0,100v1083" style="stroke: rgb(255, 255, 255); stroke-opacity: 1; stroke-width: 1px;"/><path class="xgrid crisp" transform="translate(102.49,0)" d="M0,100v1083" style="stroke: rgb(255, 255, 255); stroke-opacity: 1; stroke-width: 1px;"/><path class="xgrid crisp" transform="translate(119.19,0)" d="M0,100v1083" style="stroke: rgb(255, 255, 255); stroke-opacity: 1; stroke-width: 1px;"/><path class="xgrid crisp" transform="translate(133.91,0)" d="M0,100v1083" style="stroke: rgb(255, 255, 255); stroke-opacity: 1; stroke-width: 1px;"/><path class="xgrid crisp" transform="translate(147.09,0)" d="M0,100v1083" style="stroke: rgb(255, 255, 255); stroke-opacity: 1; stroke-width: 1px;"/><path class="xgrid crisp" transform="translate(233.76,0)" d="M0,100v1083" style="stroke: rgb(255, 255, 255); stroke-opacity: 1; stroke-width: 1px;"/><path class="xgrid crisp" transform="translate(284.46000000000004,0)" d="M0,100v1083" style="stroke: rgb(255, 255, 255); stroke-opacity: 1; stroke-width: 1px;"/><path class="xgrid crisp" transform="translate(320.43,0)" d="M0,100v1083" style="stroke: rgb(255, 255, 255); stroke-opacity: 1; stroke-width: 1px;"/><path class="xgrid crisp" transform="translate(348.33,0)" d="M0,100v1083" style="stroke: rgb(255, 255, 255); stroke-opacity: 1; stroke-width: 1px;"/><path class="xgrid crisp" transform="translate(371.13,0)" d="M0,100v1083" style="stroke: rgb(255, 255, 255); stroke-opacity: 1; stroke-width: 1px;"/><path class="xgrid crisp" transform="translate(390.4,0)" d="M0,100v1083" style="stroke: rgb(255, 255, 255); stroke-opacity: 1; stroke-width: 1px;"/><path class="xgrid crisp" transform="translate(407.1,0)" d="M0,100v1083" style="stroke: rgb(255, 255, 255); stroke-opacity: 1; stroke-width: 1px;"/><path class="xgrid crisp" transform="translate(421.82,0)" d="M0,100v1083" style="stroke: rgb(255, 255, 255); stroke-opacity: 1; stroke-width: 1px;"/><path class="xgrid crisp" transform="translate(435,0)" d="M0,100v1083" style="stroke: rgb(255, 255, 255); stroke-opacity: 1; stroke-width: 1px;"/><path class="xgrid crisp" transform="translate(521.6700000000001,0)" d="M0,100v1083" style="stroke: rgb(255, 255, 255); stroke-opacity: 1; stroke-width: 1px;"/><path class="xgrid crisp" transform="translate(572.37,0)" d="M0,100v1083" style="stroke: rgb(255, 255, 255); stroke-opacity: 1; stroke-width: 1px;"/><path class="xgrid crisp" transform="translate(608.34,0)" d="M0,100v1083" style="stroke: rgb(255, 255, 255); stroke-opacity: 1; stroke-width: 1px;"/></g><g class="y"><path class="ygrid crisp" transform="translate(0,1169.57)" d="M80,0h540" style="stroke: rgb(255, 255, 255); stroke-opacity: 1; stroke-width: 1px;"/><path class="ygrid crisp" transform="translate(0,1071.13)" d="M80,0h540" style="stroke: rgb(255, 255, 255); stroke-opacity: 1; stroke-width: 1px;"/><path class="ygrid crisp" transform="translate(0,940.99)" d="M80,0h540" style="stroke: rgb(255, 255, 255); stroke-opacity: 1; stroke-width: 1px;"/><path class="ygrid crisp" transform="translate(0,842.55)" d="M80,0h540" style="stroke: rgb(255, 255, 255); stroke-opacity: 1; stroke-width: 1px;"/><path class="ygrid crisp" transform="translate(0,744.1)" d="M80,0h540" style="stroke: rgb(255, 255, 255); stroke-opacity: 1; stroke-width: 1px;"/><path class="ygrid crisp" transform="translate(0,613.96)" d="M80,0h540" style="stroke: rgb(255, 255, 255); stroke-opacity: 1; stroke-width: 1px;"/><path class="ygrid crisp" transform="translate(0,515.52)" d="M80,0h540" style="stroke: rgb(255, 255, 255); stroke-opacity: 1; stroke-width: 1px;"/><path class="ygrid crisp" transform="translate(0,417.07)" d="M80,0h540" style="stroke: rgb(255, 255, 255); stroke-opacity: 1; stroke-width: 1px;"/><path class="ygrid crisp" transform="translate(0,286.93)" d="M80,0h540" style="stroke: rgb(255, 255, 255); stroke-opacity: 1; stroke-width: 1px;"/><path class="ygrid crisp" transform="translate(0,188.49)" d="M80,0h540" style="stroke: rgb(255, 255, 255); stroke-opacity: 1; stroke-width: 1px;"/></g></g><g class="zerolinelayer"/><path class="xlines-below"/><path class="ylines-below"/><g class="overlines-below"/><g class="xaxislayer-below"/><g class="yaxislayer-below"/><g class="overaxes-below"/><g class="plot" transform="translate(80, 100)" clip-path="url('#clip46c517xyplot')"><g class="scatterlayer mlayer"><g class="trace scatter trace176e0a" style="stroke-miterlimit: 2; opacity: 1;"><g class="fills"/><g class="errorbars"/><g class="lines"/><g class="points"><path class="point" transform="translate(425.38,66.02)" d="M10.61,0A10.61,10.61 0 1,1 0,-10.61A10.61,10.61 0 0,1 10.61,0Z" style="opacity: 0.7; stroke-width: 1px; fill: rgb(99, 110, 250); fill-opacity: 1; stroke: rgb(255, 255, 255); stroke-opacity: 1;"/></g><g class="text"><g class="textpoint" transform="translate(0,-17.265561621373386)"><text x="425.38" y="66.02" text-anchor="middle" style="font-family: 'Open Sans', verdana, arial, sans-serif; font-size: 12px; fill: rgb(42, 63, 95); fill-opacity: 1; white-space: pre;">Brazil</text></g></g></g><g class="trace scatter tracec37acd" style="stroke-miterlimit: 2; opacity: 1;"><g class="fills"/><g class="errorbars"/><g class="lines"/><g class="points"><path class="point" transform="translate(497.19,92.95)" d="M14.14,0A14.14,14.14 0 1,1 0,-14.14A14.14,14.14 0 0,1 14.14,0Z" style="opacity: 0.7; stroke-width: 1px; fill: rgb(239, 85, 59); fill-opacity: 1; stroke: rgb(255, 255, 255); stroke-opacity: 1;"/></g><g class="text"><g class="textpoint" transform="translate(0,-21.67766952966369)"><text x="497.19" y="92.95" text-anchor="middle" style="font-family: 'Open Sans', verdana, arial, sans-serif; font-size: 12px; fill: rgb(42, 63, 95); fill-opacity: 1; white-space: pre;">US</text></g></g></g><g class="trace scatter tracefe8949" style="stroke-miterlimit: 2; opacity: 1;"><g class="fills"/><g class="errorbars"/><g class="lines"/><g class="points"><path class="point" transform="translate(326.12,188.21)" d="M7.14,0A7.14,7.14 0 1,1 0,-7.14A7.14,7.14 0 0,1 7.14,0Z" style="opacity: 0.7; stroke-width: 1px; fill: rgb(0, 204, 150); fill-opacity: 1; stroke: rgb(255, 255, 255); stroke-opacity: 1;"/></g><g class="text"><g class="textpoint" transform="translate(0,-12.919629404850944)"><text x="326.12" y="188.21" text-anchor="middle" style="font-family: 'Open Sans', verdana, arial, sans-serif; font-size: 12px; fill: rgb(42, 63, 95); fill-opacity: 1; white-space: pre;">India</text></g></g></g><g class="trace scatter trace77cb9e" style="stroke-miterlimit: 2; opacity: 1;"><g class="fills"/><g class="errorbars"/><g class="lines"/><g class="points"><path class="point" transform="translate(311.51,192.59)" d="M6.73,0A6.73,6.73 0 1,1 0,-6.73A6.73,6.73 0 0,1 6.73,0Z" style="opacity: 0.7; stroke-width: 1px; fill: rgb(171, 99, 250); fill-opacity: 1; stroke: rgb(255, 255, 255); stroke-opacity: 1;"/></g><g class="text"><g class="textpoint" transform="translate(0,-12.413309622748246)"><text x="311.51" y="192.59" text-anchor="middle" style="font-family: 'Open Sans', verdana, arial, sans-serif; font-size: 12px; fill: rgb(42, 63, 95); fill-opacity: 1; white-space: pre;">Russia</text></g></g></g><g class="trace scatter trace3d6d6b" style="stroke-miterlimit: 2; opacity: 1;"><g class="fills"/><g class="errorbars"/><g class="lines"/><g class="points"><path class="point" transform="translate(207.02,271.88)" d="M4.43,0A4.43,4.43 0 1,1 0,-4.43A4.43,4.43 0 0,1 4.43,0Z" style="opacity: 0.7; stroke-width: 1px; fill: rgb(255, 161, 90); fill-opacity: 1; stroke: rgb(255, 255, 255); stroke-opacity: 1;"/></g><g class="text"><g class="textpoint" transform="translate(0,-9.539934828576698)"><text x="207.02" y="271.88" text-anchor="middle" style="font-family: 'Open Sans', verdana, arial, sans-serif; font-size: 12px; fill: rgb(42, 63, 95); fill-opacity: 1; white-space: pre;">Chile</text></g></g></g><g class="trace scatter traced123d9" style="stroke-miterlimit: 2; opacity: 1;"><g class="fills"/><g class="errorbars"/><g class="lines"/><g class="points"><path class="point" transform="translate(196.85,303.78)" d="M4.26,0A4.26,4.26 0 1,1 0,-4.26A4.26,4.26 0 0,1 4.26,0Z" style="opacity: 0.7; stroke-width: 1px; fill: rgb(25, 211, 243); fill-opacity: 1; stroke: rgb(255, 255, 255); stroke-opacity: 1;"/></g><g class="text"><g class="textpoint" transform="translate(0,-9.319037820362965)"><text x="196.85" y="303.78" text-anchor="middle" style="font-family: 'Open Sans', verdana, arial, sans-serif; font-size: 12px; fill: rgb(42, 63, 95); fill-opacity: 1; white-space: pre;">Mexico</text></g></g></g><g class="trace scatter tracefe7758" style="stroke-miterlimit: 2; opacity: 1;"><g class="fills"/><g class="errorbars"/><g class="lines"/><g class="points"><path class="point" transform="translate(181.89,308.68)" d="M4.01,0A4.01,4.01 0 1,1 0,-4.01A4.01,4.01 0 0,1 4.01,0Z" style="opacity: 0.7; stroke-width: 1px; fill: rgb(255, 102, 146); fill-opacity: 1; stroke: rgb(255, 255, 255); stroke-opacity: 1;"/></g><g class="text"><g class="textpoint" transform="translate(0,-9.010235851567417)"><text x="181.89" y="308.68" text-anchor="middle" style="font-family: 'Open Sans', verdana, arial, sans-serif; font-size: 12px; fill: rgb(42, 63, 95); fill-opacity: 1; white-space: pre;">Iran</text></g></g></g><g class="trace scatter trace819f26" style="stroke-miterlimit: 2; opacity: 1;"><g class="fills"/><g class="errorbars"/><g class="lines"/><g class="points"><path class="point" transform="translate(211.13,311.64)" d="M4.51,0A4.51,4.51 0 1,1 0,-4.51A4.51,4.51 0 0,1 4.51,0Z" style="opacity: 0.7; stroke-width: 1px; fill: rgb(182, 232, 128); fill-opacity: 1; stroke: rgb(255, 255, 255); stroke-opacity: 1;"/></g><g class="text"><g class="textpoint" transform="translate(0,-9.631730886600707)"><text x="211.13" y="311.64" text-anchor="middle" style="font-family: 'Open Sans', verdana, arial, sans-serif; font-size: 12px; fill: rgb(42, 63, 95); fill-opacity: 1; white-space: pre;">Peru</text></g></g></g><g class="trace scatter traceb1f9df" style="stroke-miterlimit: 2; opacity: 1;"><g class="fills"/><g class="errorbars"/><g class="lines"/><g class="points"><path class="point" transform="translate(177.78,321.41)" d="M3.94,0A3.94,3.94 0 1,1 0,-3.94A3.94,3.94 0 0,1 3.94,0Z" style="opacity: 0.7; stroke-width: 1px; fill: rgb(255, 151, 255); fill-opacity: 1; stroke: rgb(255, 255, 255); stroke-opacity: 1;"/></g><g class="text"><g class="textpoint" transform="translate(0,-8.928603441765633)"><text x="177.78" y="321.41" text-anchor="middle" style="font-family: 'Open Sans', verdana, arial, sans-serif; font-size: 12px; fill: rgb(42, 63, 95); fill-opacity: 1; white-space: pre;">Italy</text></g></g></g><g class="trace scatter tracec2654f" style="stroke-miterlimit: 2; opacity: 1;"><g class="fills"/><g class="errorbars"/><g class="lines"/><g class="points"><path class="point" transform="translate(159.84,324.07)" d="M3.67,0A3.67,3.67 0 1,1 0,-3.67A3.67,3.67 0 0,1 3.67,0Z" style="opacity: 0.7; stroke-width: 1px; fill: rgb(254, 203, 82); fill-opacity: 1; stroke: rgb(255, 255, 255); stroke-opacity: 1;"/></g><g class="text"><g class="textpoint" transform="translate(0,-8.587341444298858)"><text x="159.84" y="324.07" text-anchor="middle" style="font-family: 'Open Sans', verdana, arial, sans-serif; font-size: 12px; fill: rgb(42, 63, 95); fill-opacity: 1; white-space: pre;">Turkey</text></g></g></g><g class="trace scatter trace3e4ed7" style="stroke-miterlimit: 2; opacity: 1;"><g class="fills"/><g class="errorbars"/><g class="lines"/><g class="points"><path class="point" transform="translate(153.13,329.12)" d="M3.57,0A3.57,3.57 0 1,1 0,-3.57A3.57,3.57 0 0,1 3.57,0Z" style="opacity: 0.7; stroke-width: 1px; fill: rgb(99, 110, 250); fill-opacity: 1; stroke: rgb(255, 255, 255); stroke-opacity: 1;"/></g><g class="text"><g class="textpoint" transform="translate(0,-8.465996162600902)"><text x="153.13" y="329.12" text-anchor="middle" style="font-family: 'Open Sans', verdana, arial, sans-serif; font-size: 12px; fill: rgb(42, 63, 95); fill-opacity: 1; white-space: pre;">Germany</text></g></g></g><g class="trace scatter trace853ebd" style="stroke-miterlimit: 2; opacity: 1;"><g class="fills"/><g class="errorbars"/><g class="lines"/><g class="points"><path class="point" transform="translate(167.55,347.79)" d="M3.78,0A3.78,3.78 0 1,1 0,-3.78A3.78,3.78 0 0,1 3.78,0Z" style="opacity: 0.7; stroke-width: 1px; fill: rgb(239, 85, 59); fill-opacity: 1; stroke: rgb(255, 255, 255); stroke-opacity: 1;"/></g><g class="text"><g class="textpoint" transform="translate(0,-8.731091333571392)"><text x="167.55" y="347.79" text-anchor="middle" style="font-family: 'Open Sans', verdana, arial, sans-serif; font-size: 12px; fill: rgb(42, 63, 95); fill-opacity: 1; white-space: pre;">Saudi Arabia</text></g></g></g><g class="trace scatter traced24960" style="stroke-miterlimit: 2; opacity: 1;"><g class="fills"/><g class="errorbars"/><g class="lines"/><g class="points"><path class="point" transform="translate(183.18,357.57)" d="M4.03,0A4.03,4.03 0 1,1 0,-4.03A4.03,4.03 0 0,1 4.03,0Z" style="opacity: 0.7; stroke-width: 1px; fill: rgb(0, 204, 150); fill-opacity: 1; stroke: rgb(255, 255, 255); stroke-opacity: 1;"/></g><g class="text"><g class="textpoint" transform="translate(0,-9.036154391639782)"><text x="183.18" y="357.57" text-anchor="middle" style="font-family: 'Open Sans', verdana, arial, sans-serif; font-size: 12px; fill: rgb(42, 63, 95); fill-opacity: 1; white-space: pre;">Spain</text></g></g></g><g class="trace scatter trace69c800" style="stroke-miterlimit: 2; opacity: 1;"><g class="fills"/><g class="errorbars"/><g class="lines"/><g class="points"><path class="point" transform="translate(178.42,358.79)" d="M3.95,0A3.95,3.95 0 1,1 0,-3.95A3.95,3.95 0 0,1 3.95,0Z" style="opacity: 0.7; stroke-width: 1px; fill: rgb(171, 99, 250); fill-opacity: 1; stroke: rgb(255, 255, 255); stroke-opacity: 1;"/></g><g class="text"><g class="textpoint" transform="translate(0,-8.941154876868113)"><text x="178.42" y="358.79" text-anchor="middle" style="font-family: 'Open Sans', verdana, arial, sans-serif; font-size: 12px; fill: rgb(42, 63, 95); fill-opacity: 1; white-space: pre;">Pakistan</text></g></g></g><g class="trace scatter tracefb69e5" style="stroke-miterlimit: 2; opacity: 1;"><g class="fills"/><g class="errorbars"/><g class="lines"/><g class="points"><path class="point" transform="translate(175.69,398.08)" d="M3.91,0A3.91,3.91 0 1,1 0,-3.91A3.91,3.91 0 0,1 3.91,0Z" style="opacity: 0.7; stroke-width: 1px; fill: rgb(255, 161, 90); fill-opacity: 1; stroke: rgb(255, 255, 255); stroke-opacity: 1;"/></g><g class="text"><g class="textpoint" transform="translate(0,-8.887516905517504)"><text x="175.69" y="398.08" text-anchor="middle" style="font-family: 'Open Sans', verdana, arial, sans-serif; font-size: 12px; fill: rgb(42, 63, 95); fill-opacity: 1; white-space: pre;">South Africa</text></g></g></g><g class="trace scatter traceea5387" style="stroke-miterlimit: 2; opacity: 1;"><g class="fills"/><g class="errorbars"/><g class="lines"/><g class="points"><path class="point" transform="translate(69.7,419.45)" d="M2.56,0A2.56,2.56 0 1,1 0,-2.56A2.56,2.56 0 0,1 2.56,0Z" style="opacity: 0.7; stroke-width: 1px; fill: rgb(25, 211, 243); fill-opacity: 1; stroke: rgb(255, 255, 255); stroke-opacity: 1;"/></g><g class="text"><g class="textpoint" transform="translate(0,-7.199078184732132)"><text x="69.7" y="419.45" text-anchor="middle" style="font-family: 'Open Sans', verdana, arial, sans-serif; font-size: 12px; fill: rgb(42, 63, 95); fill-opacity: 1; white-space: pre;">Qatar</text></g></g></g><g class="trace scatter trace6b83b2" style="stroke-miterlimit: 2; opacity: 1;"><g class="fills"/><g class="errorbars"/><g class="lines"/><g class="points"><path class="point" transform="translate(137.41,439.36)" d="M3.36,0A3.36,3.36 0 1,1 0,-3.36A3.36,3.36 0 0,1 3.36,0Z" style="opacity: 0.7; stroke-width: 1px; fill: rgb(255, 102, 146); fill-opacity: 1; stroke: rgb(255, 255, 255); stroke-opacity: 1;"/></g><g class="text"><g class="textpoint" transform="translate(0,-8.19393651974131)"><text x="137.41" y="439.36" text-anchor="middle" style="font-family: 'Open Sans', verdana, arial, sans-serif; font-size: 12px; fill: rgb(42, 63, 95); fill-opacity: 1; white-space: pre;">Bangladesh</text></g></g></g><g class="trace scatter tracec4e175" style="stroke-miterlimit: 2; opacity: 1;"><g class="fills"/><g class="errorbars"/><g class="lines"/><g class="points"><path class="point" transform="translate(46.76,447.56)" d="M2.33,0A2.33,2.33 0 1,1 0,-2.33A2.33,2.33 0 0,1 2.33,0Z" style="opacity: 0.7; stroke-width: 1px; fill: rgb(182, 232, 128); fill-opacity: 1; stroke: rgb(255, 255, 255); stroke-opacity: 1;"/></g><g class="text"><g class="textpoint" transform="translate(0,-6.918634694208125)"><text x="46.76" y="447.56" text-anchor="middle" style="font-family: 'Open Sans', verdana, arial, sans-serif; font-size: 12px; fill: rgb(42, 63, 95); fill-opacity: 1; white-space: pre;">China</text></g></g></g><g class="trace scatter trace653788" style="stroke-miterlimit: 2; opacity: 1;"><g class="fills"/><g class="errorbars"/><g class="lines"/><g class="points"><path class="point" transform="translate(158.27,450.27)" d="M3.65,0A3.65,3.65 0 1,1 0,-3.65A3.65,3.65 0 0,1 3.65,0Z" style="opacity: 0.7; stroke-width: 1px; fill: rgb(255, 151, 255); fill-opacity: 1; stroke: rgb(255, 255, 255); stroke-opacity: 1;"/></g><g class="text"><g class="textpoint" transform="translate(0,-8.558784042765271)"><text x="158.27" y="450.27" text-anchor="middle" style="font-family: 'Open Sans', verdana, arial, sans-serif; font-size: 12px; fill: rgb(42, 63, 95); fill-opacity: 1; white-space: pre;">France</text></g></g></g><g class="trace scatter tracec4ab66" style="stroke-miterlimit: 2; opacity: 1;"><g class="fills"/><g class="errorbars"/><g class="lines"/><g class="points"><path class="point" transform="translate(77.45,461.99)" d="M2.64,0A2.64,2.64 0 1,1 0,-2.64A2.64,2.64 0 0,1 2.64,0Z" style="opacity: 0.7; stroke-width: 1px; fill: rgb(254, 203, 82); fill-opacity: 1; stroke: rgb(255, 255, 255); stroke-opacity: 1;"/></g><g class="text"><g class="textpoint" transform="translate(0,-7.2998301849264875)"><text x="77.45" y="461.99" text-anchor="middle" style="font-family: 'Open Sans', verdana, arial, sans-serif; font-size: 12px; fill: rgb(42, 63, 95); fill-opacity: 1; white-space: pre;">Canada</text></g></g></g><g class="trace scatter trace2f17da" style="stroke-miterlimit: 2; opacity: 1;"><g class="fills"/><g class="errorbars"/><g class="lines"/><g class="points"><path class="point" transform="translate(98.58,504)" d="M2.87,0A2.87,2.87 0 1,1 0,-2.87A2.87,2.87 0 0,1 2.87,0Z" style="opacity: 0.7; stroke-width: 1px; fill: rgb(99, 110, 250); fill-opacity: 1; stroke: rgb(255, 255, 255); stroke-opacity: 1;"/></g><g class="text"><g class="textpoint" transform="translate(0,-7.5906688641309845)"><text x="98.58" y="504" text-anchor="middle" style="font-family: 'Open Sans', verdana, arial, sans-serif; font-size: 12px; fill: rgb(42, 63, 95); fill-opacity: 1; white-space: pre;">Colombia</text></g></g></g><g class="trace scatter traceaf50fe" style="stroke-miterlimit: 2; opacity: 1;"><g class="fills"/><g class="errorbars"/><g class="lines"/><g class="points"><path class="point" transform="translate(54.87,551.77)" d="M2.41,0A2.41,2.41 0 1,1 0,-2.41A2.41,2.41 0 0,1 2.41,0Z" style="opacity: 0.7; stroke-width: 1px; fill: rgb(239, 85, 59); fill-opacity: 1; stroke: rgb(255, 255, 255); stroke-opacity: 1;"/></g><g class="text"><g class="textpoint" transform="translate(0,-7.0149325473338795)"><text x="54.87" y="551.77" text-anchor="middle" style="font-family: 'Open Sans', verdana, arial, sans-serif; font-size: 12px; fill: rgb(42, 63, 95); fill-opacity: 1; white-space: pre;">Argentina</text></g></g></g><g class="trace scatter traceab4a5d" style="stroke-miterlimit: 2; opacity: 1;"><g class="fills"/><g class="errorbars"/><g class="lines"/><g class="points"><path class="point" transform="translate(38.02,625.78)" d="M2.25,0A2.25,2.25 0 1,1 0,-2.25A2.25,2.25 0 0,1 2.25,0Z" style="opacity: 0.7; stroke-width: 1px; fill: rgb(0, 204, 150); fill-opacity: 1; stroke: rgb(255, 255, 255); stroke-opacity: 1;"/></g><g class="text"><g class="textpoint" transform="translate(0,-6.818391442058082)"><text x="38.02" y="625.78" text-anchor="middle" style="font-family: 'Open Sans', verdana, arial, sans-serif; font-size: 12px; fill: rgb(42, 63, 95); fill-opacity: 1; white-space: pre;">Egypt</text></g></g></g><g class="trace scatter trace2141f9" style="stroke-miterlimit: 2; opacity: 1;"><g class="fills"/><g class="errorbars"/><g class="lines"/><g class="points"><path class="point" transform="translate(199.85,1024.03)" d="M4.31,0A4.31,4.31 0 1,1 0,-4.31A4.31,4.31 0 0,1 4.31,0Z" style="opacity: 0.7; stroke-width: 1px; fill: rgb(171, 99, 250); fill-opacity: 1; stroke: rgb(255, 255, 255); stroke-opacity: 1;"/></g><g class="text"><g class="textpoint" transform="translate(0,-9.383383491861762)"><text x="199.85" y="1024.03" text-anchor="middle" style="font-family: 'Open Sans', verdana, arial, sans-serif; font-size: 12px; fill: rgb(42, 63, 95); fill-opacity: 1; white-space: pre;">United Kingdom</text></g></g></g><g class="trace scatter trace612103" style="stroke-miterlimit: 2; opacity: 1;"><g class="fills"/><g class="errorbars"/><g class="lines"/><g class="points"/><g class="text"/></g></g></g><g class="overplot"/><path class="xlines-above crisp" d="M79,1183.5H620" style="fill: none; stroke-width: 1px; stroke: rgb(255, 255, 255); stroke-opacity: 1;"/><path class="ylines-above crisp" d="M79.5,100V1183" style="fill: none; stroke-width: 1px; stroke: rgb(255, 255, 255); stroke-opacity: 1;"/><g class="overlines-above"/><g class="xaxislayer-above"><g class="xtick"><text text-anchor="middle" x="0" y="1195.4" transform="translate(83.22,0)" style="font-family: 'Open Sans', verdana, arial, sans-serif; font-size: 9px; fill: rgb(42, 63, 95); fill-opacity: 1; white-space: pre;">6</text></g><g class="xtick"><text text-anchor="middle" x="0" y="1195.4" transform="translate(102.49,0)" style="font-family: 'Open Sans', verdana, arial, sans-serif; font-size: 9px; fill: rgb(42, 63, 95); fill-opacity: 1; white-space: pre;">7</text></g><g class="xtick"><text text-anchor="middle" x="0" y="1195.4" transform="translate(119.19,0)" style="font-family: 'Open Sans', verdana, arial, sans-serif; font-size: 9px; fill: rgb(42, 63, 95); fill-opacity: 1; white-space: pre;">8</text></g><g class="xtick"><text text-anchor="middle" x="0" y="1195.4" transform="translate(133.91,0)" style="font-family: 'Open Sans', verdana, arial, sans-serif; font-size: 9px; fill: rgb(42, 63, 95); fill-opacity: 1; white-space: pre;">9</text></g><g class="xtick"><text text-anchor="middle" x="3" y="1204.4" transform="translate(147.09,0)" style="font-family: 'Open Sans', verdana, arial, sans-serif; font-size: 12px; fill: rgb(42, 63, 95); fill-opacity: 1; white-space: pre;">100k</text></g><g class="xtick"><text text-anchor="middle" x="0" y="1195.4" transform="translate(233.76,0)" style="font-family: 'Open Sans', verdana, arial, sans-serif; font-size: 9px; fill: rgb(42, 63, 95); fill-opacity: 1; white-space: pre;">2</text></g><g class="xtick"><text text-anchor="middle" x="0" y="1195.4" transform="translate(284.46000000000004,0)" style="font-family: 'Open Sans', verdana, arial, sans-serif; font-size: 9px; fill: rgb(42, 63, 95); fill-opacity: 1; white-space: pre;">3</text></g><g class="xtick"><text text-anchor="middle" x="0" y="1195.4" transform="translate(320.43,0)" style="font-family: 'Open Sans', verdana, arial, sans-serif; font-size: 9px; fill: rgb(42, 63, 95); fill-opacity: 1; white-space: pre;">4</text></g><g class="xtick"><text text-anchor="middle" x="0" y="1195.4" transform="translate(348.33,0)" style="font-family: 'Open Sans', verdana, arial, sans-serif; font-size: 9px; fill: rgb(42, 63, 95); fill-opacity: 1; white-space: pre;">5</text></g><g class="xtick"><text text-anchor="middle" x="0" y="1195.4" transform="translate(371.13,0)" style="font-family: 'Open Sans', verdana, arial, sans-serif; font-size: 9px; fill: rgb(42, 63, 95); fill-opacity: 1; white-space: pre;">6</text></g><g class="xtick"><text text-anchor="middle" x="0" y="1195.4" transform="translate(390.4,0)" style="font-family: 'Open Sans', verdana, arial, sans-serif; font-size: 9px; fill: rgb(42, 63, 95); fill-opacity: 1; white-space: pre;">7</text></g><g class="xtick"><text text-anchor="middle" x="0" y="1195.4" transform="translate(407.1,0)" style="font-family: 'Open Sans', verdana, arial, sans-serif; font-size: 9px; fill: rgb(42, 63, 95); fill-opacity: 1; white-space: pre;">8</text></g><g class="xtick"><text text-anchor="middle" x="0" y="1195.4" transform="translate(421.82,0)" style="font-family: 'Open Sans', verdana, arial, sans-serif; font-size: 9px; fill: rgb(42, 63, 95); fill-opacity: 1; white-space: pre;">9</text></g><g class="xtick"><text text-anchor="middle" x="3" y="1204.4" transform="translate(435,0)" style="font-family: 'Open Sans', verdana, arial, sans-serif; font-size: 12px; fill: rgb(42, 63, 95); fill-opacity: 1; white-space: pre;">1M</text></g><g class="xtick"><text text-anchor="middle" x="0" y="1195.4" transform="translate(521.6700000000001,0)" style="font-family: 'Open Sans', verdana, arial, sans-serif; font-size: 9px; fill: rgb(42, 63, 95); fill-opacity: 1; white-space: pre;">2</text></g><g class="xtick"><text text-anchor="middle" x="0" y="1195.4" transform="translate(572.37,0)" style="font-family: 'Open Sans', verdana, arial, sans-serif; font-size: 9px; fill: rgb(42, 63, 95); fill-opacity: 1; white-space: pre;">3</text></g><g class="xtick"><text text-anchor="middle" x="0" y="1195.4" transform="translate(608.34,0)" style="font-family: 'Open Sans', verdana, arial, sans-serif; font-size: 9px; fill: rgb(42, 63, 95); fill-opacity: 1; white-space: pre;">4</text></g></g><g class="yaxislayer-above"><g class="ytick"><text text-anchor="end" x="76.6" y="4.199999999999999" transform="translate(0,1169.57)" style="font-family: 'Open Sans', verdana, arial, sans-serif; font-size: 12px; fill: rgb(42, 63, 95); fill-opacity: 1; white-space: pre;">1000</text></g><g class="ytick"><text text-anchor="end" x="76.6" y="3.15" transform="translate(0,1071.13)" style="font-family: 'Open Sans', verdana, arial, sans-serif; font-size: 9px; fill: rgb(42, 63, 95); fill-opacity: 1; white-space: pre;">2</text></g><g class="ytick"><text text-anchor="end" x="76.6" y="3.15" transform="translate(0,940.99)" style="font-family: 'Open Sans', verdana, arial, sans-serif; font-size: 9px; fill: rgb(42, 63, 95); fill-opacity: 1; white-space: pre;">5</text></g><g class="ytick"><text text-anchor="end" x="76.6" y="4.199999999999999" transform="translate(0,842.55)" style="font-family: 'Open Sans', verdana, arial, sans-serif; font-size: 12px; fill: rgb(42, 63, 95); fill-opacity: 1; white-space: pre;">10k</text></g><g class="ytick"><text text-anchor="end" x="76.6" y="3.15" transform="translate(0,744.1)" style="font-family: 'Open Sans', verdana, arial, sans-serif; font-size: 9px; fill: rgb(42, 63, 95); fill-opacity: 1; white-space: pre;">2</text></g><g class="ytick"><text text-anchor="end" x="76.6" y="3.15" transform="translate(0,613.96)" style="font-family: 'Open Sans', verdana, arial, sans-serif; font-size: 9px; fill: rgb(42, 63, 95); fill-opacity: 1; white-space: pre;">5</text></g><g class="ytick"><text text-anchor="end" x="76.6" y="4.199999999999999" transform="translate(0,515.52)" style="font-family: 'Open Sans', verdana, arial, sans-serif; font-size: 12px; fill: rgb(42, 63, 95); fill-opacity: 1; white-space: pre;">100k</text></g><g class="ytick"><text text-anchor="end" x="76.6" y="3.15" transform="translate(0,417.07)" style="font-family: 'Open Sans', verdana, arial, sans-serif; font-size: 9px; fill: rgb(42, 63, 95); fill-opacity: 1; white-space: pre;">2</text></g><g class="ytick"><text text-anchor="end" x="76.6" y="3.15" transform="translate(0,286.93)" style="font-family: 'Open Sans', verdana, arial, sans-serif; font-size: 9px; fill: rgb(42, 63, 95); fill-opacity: 1; white-space: pre;">5</text></g><g class="ytick"><text text-anchor="end" x="76.6" y="4.199999999999999" transform="translate(0,188.49)" style="font-family: 'Open Sans', verdana, arial, sans-serif; font-size: 12px; fill: rgb(42, 63, 95); fill-opacity: 1; white-space: pre;">1M</text></g></g><g class="overaxes-above"/></g></g><g class="polarlayer"/><g class="ternarylayer"/><g class="geolayer"/><g class="funnelarealayer"/><g class="pielayer"/><g class="treemaplayer"/><g class="sunburstlayer"/><g class="glimages"/><defs id="topdefs-46c517"><g class="clips"/><clipPath id="rangesliderx-46c517"><rect x="0" y="0" width="540" height="198"/></clipPath></defs><g class="layer-above"><g class="imagelayer"/><g class="shapelayer"/></g><g class="infolayer"><g class="g-gtitle"><text class="gtitle" x="35" y="50" text-anchor="start" dy="0em" style="font-family: 'Open Sans', verdana, arial, sans-serif; font-size: 17px; fill: rgb(42, 63, 95); opacity: 1; font-weight: normal; white-space: pre;">Recovered vs Confirmed (Logarithmic Scale)</text></g><g class="rangeslider-container" pointer-events="all" transform="translate(80,1222)"><rect class="rangeslider-bg" x="0" y="0" shape-rendering="crispEdges" width="540" height="198" transform="translate(0,0)" fill="#E5ECF6" stroke="#444" stroke-width="0"/><g class="rangeslider-rangeplot xy" clip-path="url('#rangesliderx-46c517')"><g class="layer-subplot"><g class="shapelayer"/><g class="imagelayer"/></g><g class="gridlayer"><g class="x"/><g class="y"/></g><g class="zerolinelayer"/><path class="xlines-below"/><path class="ylines-below"/><g class="overlines-below"/><g class="xaxislayer-below"/><g class="yaxislayer-below"/><g class="overaxes-below"/><g class="plot"><g class="scatterlayer mlayer rangeplot"><g class="trace scatter trace176e0a" style="stroke-miterlimit: 2; opacity: 1;"><g class="fills"/><g class="errorbars"/><g class="lines"/><g class="points"><path class="point" transform="translate(425.38,12.07)" d="M10.61,0A10.61,10.61 0 1,1 0,-10.61A10.61,10.61 0 0,1 10.61,0Z" style="opacity: 0.7; stroke-width: 1px; fill: rgb(99, 110, 250); fill-opacity: 1; stroke: rgb(255, 255, 255); stroke-opacity: 1;"/></g><g class="text"><g class="textpoint" transform="translate(0,-17.265561621373386)"><text x="425.38" y="12.07" text-anchor="middle" style="font-family: 'Open Sans', verdana, arial, sans-serif; font-size: 12px; fill: rgb(42, 63, 95); fill-opacity: 1; white-space: pre;">Brazil</text></g></g></g><g class="trace scatter tracec37acd" style="stroke-miterlimit: 2; opacity: 1;"><g class="fills"/><g class="errorbars"/><g class="lines"/><g class="points"><path class="point" transform="translate(497.19,16.99)" d="M14.14,0A14.14,14.14 0 1,1 0,-14.14A14.14,14.14 0 0,1 14.14,0Z" style="opacity: 0.7; stroke-width: 1px; fill: rgb(239, 85, 59); fill-opacity: 1; stroke: rgb(255, 255, 255); stroke-opacity: 1;"/></g><g class="text"><g class="textpoint" transform="translate(0,-21.67766952966369)"><text x="497.19" y="16.99" text-anchor="middle" style="font-family: 'Open Sans', verdana, arial, sans-serif; font-size: 12px; fill: rgb(42, 63, 95); fill-opacity: 1; white-space: pre;">US</text></g></g></g><g class="trace scatter tracefe8949" style="stroke-miterlimit: 2; opacity: 1;"><g class="fills"/><g class="errorbars"/><g class="lines"/><g class="points"><path class="point" transform="translate(326.12,34.41)" d="M7.14,0A7.14,7.14 0 1,1 0,-7.14A7.14,7.14 0 0,1 7.14,0Z" style="opacity: 0.7; stroke-width: 1px; fill: rgb(0, 204, 150); fill-opacity: 1; stroke: rgb(255, 255, 255); stroke-opacity: 1;"/></g><g class="text"><g class="textpoint" transform="translate(0,-12.919629404850944)"><text x="326.12" y="34.41" text-anchor="middle" style="font-family: 'Open Sans', verdana, arial, sans-serif; font-size: 12px; fill: rgb(42, 63, 95); fill-opacity: 1; white-space: pre;">India</text></g></g></g><g class="trace scatter trace77cb9e" style="stroke-miterlimit: 2; opacity: 1;"><g class="fills"/><g class="errorbars"/><g class="lines"/><g class="points"><path class="point" transform="translate(311.51,35.21)" d="M6.73,0A6.73,6.73 0 1,1 0,-6.73A6.73,6.73 0 0,1 6.73,0Z" style="opacity: 0.7; stroke-width: 1px; fill: rgb(171, 99, 250); fill-opacity: 1; stroke: rgb(255, 255, 255); stroke-opacity: 1;"/></g><g class="text"><g class="textpoint" transform="translate(0,-12.413309622748246)"><text x="311.51" y="35.21" text-anchor="middle" style="font-family: 'Open Sans', verdana, arial, sans-serif; font-size: 12px; fill: rgb(42, 63, 95); fill-opacity: 1; white-space: pre;">Russia</text></g></g></g><g class="trace scatter trace3d6d6b" style="stroke-miterlimit: 2; opacity: 1;"><g class="fills"/><g class="errorbars"/><g class="lines"/><g class="points"><path class="point" transform="translate(207.02,49.71)" d="M4.43,0A4.43,4.43 0 1,1 0,-4.43A4.43,4.43 0 0,1 4.43,0Z" style="opacity: 0.7; stroke-width: 1px; fill: rgb(255, 161, 90); fill-opacity: 1; stroke: rgb(255, 255, 255); stroke-opacity: 1;"/></g><g class="text"><g class="textpoint" transform="translate(0,-9.539934828576698)"><text x="207.02" y="49.71" text-anchor="middle" style="font-family: 'Open Sans', verdana, arial, sans-serif; font-size: 12px; fill: rgb(42, 63, 95); fill-opacity: 1; white-space: pre;">Chile</text></g></g></g><g class="trace scatter traced123d9" style="stroke-miterlimit: 2; opacity: 1;"><g class="fills"/><g class="errorbars"/><g class="lines"/><g class="points"><path class="point" transform="translate(196.85,55.54)" d="M4.26,0A4.26,4.26 0 1,1 0,-4.26A4.26,4.26 0 0,1 4.26,0Z" style="opacity: 0.7; stroke-width: 1px; fill: rgb(25, 211, 243); fill-opacity: 1; stroke: rgb(255, 255, 255); stroke-opacity: 1;"/></g><g class="text"><g class="textpoint" transform="translate(0,-9.319037820362965)"><text x="196.85" y="55.54" text-anchor="middle" style="font-family: 'Open Sans', verdana, arial, sans-serif; font-size: 12px; fill: rgb(42, 63, 95); fill-opacity: 1; white-space: pre;">Mexico</text></g></g></g><g class="trace scatter tracefe7758" style="stroke-miterlimit: 2; opacity: 1;"><g class="fills"/><g class="errorbars"/><g class="lines"/><g class="points"><path class="point" transform="translate(181.89,56.43)" d="M4.01,0A4.01,4.01 0 1,1 0,-4.01A4.01,4.01 0 0,1 4.01,0Z" style="opacity: 0.7; stroke-width: 1px; fill: rgb(255, 102, 146); fill-opacity: 1; stroke: rgb(255, 255, 255); stroke-opacity: 1;"/></g><g class="text"><g class="textpoint" transform="translate(0,-9.010235851567417)"><text x="181.89" y="56.43" text-anchor="middle" style="font-family: 'Open Sans', verdana, arial, sans-serif; font-size: 12px; fill: rgb(42, 63, 95); fill-opacity: 1; white-space: pre;">Iran</text></g></g></g><g class="trace scatter trace819f26" style="stroke-miterlimit: 2; opacity: 1;"><g class="fills"/><g class="errorbars"/><g class="lines"/><g class="points"><path class="point" transform="translate(211.13,56.98)" d="M4.51,0A4.51,4.51 0 1,1 0,-4.51A4.51,4.51 0 0,1 4.51,0Z" style="opacity: 0.7; stroke-width: 1px; fill: rgb(182, 232, 128); fill-opacity: 1; stroke: rgb(255, 255, 255); stroke-opacity: 1;"/></g><g class="text"><g class="textpoint" transform="translate(0,-9.631730886600707)"><text x="211.13" y="56.98" text-anchor="middle" style="font-family: 'Open Sans', verdana, arial, sans-serif; font-size: 12px; fill: rgb(42, 63, 95); fill-opacity: 1; white-space: pre;">Peru</text></g></g></g><g class="trace scatter traceb1f9df" style="stroke-miterlimit: 2; opacity: 1;"><g class="fills"/><g class="errorbars"/><g class="lines"/><g class="points"><path class="point" transform="translate(177.78,58.76)" d="M3.94,0A3.94,3.94 0 1,1 0,-3.94A3.94,3.94 0 0,1 3.94,0Z" style="opacity: 0.7; stroke-width: 1px; fill: rgb(255, 151, 255); fill-opacity: 1; stroke: rgb(255, 255, 255); stroke-opacity: 1;"/></g><g class="text"><g class="textpoint" transform="translate(0,-8.928603441765633)"><text x="177.78" y="58.76" text-anchor="middle" style="font-family: 'Open Sans', verdana, arial, sans-serif; font-size: 12px; fill: rgb(42, 63, 95); fill-opacity: 1; white-space: pre;">Italy</text></g></g></g><g class="trace scatter tracec2654f" style="stroke-miterlimit: 2; opacity: 1;"><g class="fills"/><g class="errorbars"/><g class="lines"/><g class="points"><path class="point" transform="translate(159.84,59.25)" d="M3.67,0A3.67,3.67 0 1,1 0,-3.67A3.67,3.67 0 0,1 3.67,0Z" style="opacity: 0.7; stroke-width: 1px; fill: rgb(254, 203, 82); fill-opacity: 1; stroke: rgb(255, 255, 255); stroke-opacity: 1;"/></g><g class="text"><g class="textpoint" transform="translate(0,-8.587341444298858)"><text x="159.84" y="59.25" text-anchor="middle" style="font-family: 'Open Sans', verdana, arial, sans-serif; font-size: 12px; fill: rgb(42, 63, 95); fill-opacity: 1; white-space: pre;">Turkey</text></g></g></g><g class="trace scatter trace3e4ed7" style="stroke-miterlimit: 2; opacity: 1;"><g class="fills"/><g class="errorbars"/><g class="lines"/><g class="points"><path class="point" transform="translate(153.13,60.17)" d="M3.57,0A3.57,3.57 0 1,1 0,-3.57A3.57,3.57 0 0,1 3.57,0Z" style="opacity: 0.7; stroke-width: 1px; fill: rgb(99, 110, 250); fill-opacity: 1; stroke: rgb(255, 255, 255); stroke-opacity: 1;"/></g><g class="text"><g class="textpoint" transform="translate(0,-8.465996162600902)"><text x="153.13" y="60.17" text-anchor="middle" style="font-family: 'Open Sans', verdana, arial, sans-serif; font-size: 12px; fill: rgb(42, 63, 95); fill-opacity: 1; white-space: pre;">Germany</text></g></g></g><g class="trace scatter trace853ebd" style="stroke-miterlimit: 2; opacity: 1;"><g class="fills"/><g class="errorbars"/><g class="lines"/><g class="points"><path class="point" transform="translate(167.55,63.59)" d="M3.78,0A3.78,3.78 0 1,1 0,-3.78A3.78,3.78 0 0,1 3.78,0Z" style="opacity: 0.7; stroke-width: 1px; fill: rgb(239, 85, 59); fill-opacity: 1; stroke: rgb(255, 255, 255); stroke-opacity: 1;"/></g><g class="text"><g class="textpoint" transform="translate(0,-8.731091333571392)"><text x="167.55" y="63.59" text-anchor="middle" style="font-family: 'Open Sans', verdana, arial, sans-serif; font-size: 12px; fill: rgb(42, 63, 95); fill-opacity: 1; white-space: pre;">Saudi Arabia</text></g></g></g><g class="trace scatter traced24960" style="stroke-miterlimit: 2; opacity: 1;"><g class="fills"/><g class="errorbars"/><g class="lines"/><g class="points"><path class="point" transform="translate(183.18,65.37)" d="M4.03,0A4.03,4.03 0 1,1 0,-4.03A4.03,4.03 0 0,1 4.03,0Z" style="opacity: 0.7; stroke-width: 1px; fill: rgb(0, 204, 150); fill-opacity: 1; stroke: rgb(255, 255, 255); stroke-opacity: 1;"/></g><g class="text"><g class="textpoint" transform="translate(0,-9.036154391639782)"><text x="183.18" y="65.37" text-anchor="middle" style="font-family: 'Open Sans', verdana, arial, sans-serif; font-size: 12px; fill: rgb(42, 63, 95); fill-opacity: 1; white-space: pre;">Spain</text></g></g></g><g class="trace scatter trace69c800" style="stroke-miterlimit: 2; opacity: 1;"><g class="fills"/><g class="errorbars"/><g class="lines"/><g class="points"><path class="point" transform="translate(178.42,65.6)" d="M3.95,0A3.95,3.95 0 1,1 0,-3.95A3.95,3.95 0 0,1 3.95,0Z" style="opacity: 0.7; stroke-width: 1px; fill: rgb(171, 99, 250); fill-opacity: 1; stroke: rgb(255, 255, 255); stroke-opacity: 1;"/></g><g class="text"><g class="textpoint" transform="translate(0,-8.941154876868113)"><text x="178.42" y="65.6" text-anchor="middle" style="font-family: 'Open Sans', verdana, arial, sans-serif; font-size: 12px; fill: rgb(42, 63, 95); fill-opacity: 1; white-space: pre;">Pakistan</text></g></g></g><g class="trace scatter tracefb69e5" style="stroke-miterlimit: 2; opacity: 1;"><g class="fills"/><g class="errorbars"/><g class="lines"/><g class="points"><path class="point" transform="translate(175.69,72.78)" d="M3.91,0A3.91,3.91 0 1,1 0,-3.91A3.91,3.91 0 0,1 3.91,0Z" style="opacity: 0.7; stroke-width: 1px; fill: rgb(255, 161, 90); fill-opacity: 1; stroke: rgb(255, 255, 255); stroke-opacity: 1;"/></g><g class="text"><g class="textpoint" transform="translate(0,-8.887516905517504)"><text x="175.69" y="72.78" text-anchor="middle" style="font-family: 'Open Sans', verdana, arial, sans-serif; font-size: 12px; fill: rgb(42, 63, 95); fill-opacity: 1; white-space: pre;">South Africa</text></g></g></g><g class="trace scatter traceea5387" style="stroke-miterlimit: 2; opacity: 1;"><g class="fills"/><g class="errorbars"/><g class="lines"/><g class="points"><path class="point" transform="translate(69.7,76.69)" d="M2.56,0A2.56,2.56 0 1,1 0,-2.56A2.56,2.56 0 0,1 2.56,0Z" style="opacity: 0.7; stroke-width: 1px; fill: rgb(25, 211, 243); fill-opacity: 1; stroke: rgb(255, 255, 255); stroke-opacity: 1;"/></g><g class="text"><g class="textpoint" transform="translate(0,-7.199078184732132)"><text x="69.7" y="76.69" text-anchor="middle" style="font-family: 'Open Sans', verdana, arial, sans-serif; font-size: 12px; fill: rgb(42, 63, 95); fill-opacity: 1; white-space: pre;">Qatar</text></g></g></g><g class="trace scatter trace6b83b2" style="stroke-miterlimit: 2; opacity: 1;"><g class="fills"/><g class="errorbars"/><g class="lines"/><g class="points"><path class="point" transform="translate(137.41,80.33)" d="M3.36,0A3.36,3.36 0 1,1 0,-3.36A3.36,3.36 0 0,1 3.36,0Z" style="opacity: 0.7; stroke-width: 1px; fill: rgb(255, 102, 146); fill-opacity: 1; stroke: rgb(255, 255, 255); stroke-opacity: 1;"/></g><g class="text"><g class="textpoint" transform="translate(0,-8.19393651974131)"><text x="137.41" y="80.33" text-anchor="middle" style="font-family: 'Open Sans', verdana, arial, sans-serif; font-size: 12px; fill: rgb(42, 63, 95); fill-opacity: 1; white-space: pre;">Bangladesh</text></g></g></g><g class="trace scatter tracec4e175" style="stroke-miterlimit: 2; opacity: 1;"><g class="fills"/><g class="errorbars"/><g class="lines"/><g class="points"><path class="point" transform="translate(46.76,81.83)" d="M2.33,0A2.33,2.33 0 1,1 0,-2.33A2.33,2.33 0 0,1 2.33,0Z" style="opacity: 0.7; stroke-width: 1px; fill: rgb(182, 232, 128); fill-opacity: 1; stroke: rgb(255, 255, 255); stroke-opacity: 1;"/></g><g class="text"><g class="textpoint" transform="translate(0,-6.918634694208125)"><text x="46.76" y="81.83" text-anchor="middle" style="font-family: 'Open Sans', verdana, arial, sans-serif; font-size: 12px; fill: rgb(42, 63, 95); fill-opacity: 1; white-space: pre;">China</text></g></g></g><g class="trace scatter trace653788" style="stroke-miterlimit: 2; opacity: 1;"><g class="fills"/><g class="errorbars"/><g class="lines"/><g class="points"><path class="point" transform="translate(158.27,82.32)" d="M3.65,0A3.65,3.65 0 1,1 0,-3.65A3.65,3.65 0 0,1 3.65,0Z" style="opacity: 0.7; stroke-width: 1px; fill: rgb(255, 151, 255); fill-opacity: 1; stroke: rgb(255, 255, 255); stroke-opacity: 1;"/></g><g class="text"><g class="textpoint" transform="translate(0,-8.558784042765271)"><text x="158.27" y="82.32" text-anchor="middle" style="font-family: 'Open Sans', verdana, arial, sans-serif; font-size: 12px; fill: rgb(42, 63, 95); fill-opacity: 1; white-space: pre;">France</text></g></g></g><g class="trace scatter tracec4ab66" style="stroke-miterlimit: 2; opacity: 1;"><g class="fills"/><g class="errorbars"/><g class="lines"/><g class="points"><path class="point" transform="translate(77.45,84.46)" d="M2.64,0A2.64,2.64 0 1,1 0,-2.64A2.64,2.64 0 0,1 2.64,0Z" style="opacity: 0.7; stroke-width: 1px; fill: rgb(254, 203, 82); fill-opacity: 1; stroke: rgb(255, 255, 255); stroke-opacity: 1;"/></g><g class="text"><g class="textpoint" transform="translate(0,-7.2998301849264875)"><text x="77.45" y="84.46" text-anchor="middle" style="font-family: 'Open Sans', verdana, arial, sans-serif; font-size: 12px; fill: rgb(42, 63, 95); fill-opacity: 1; white-space: pre;">Canada</text></g></g></g><g class="trace scatter trace2f17da" style="stroke-miterlimit: 2; opacity: 1;"><g class="fills"/><g class="errorbars"/><g class="lines"/><g class="points"><path class="point" transform="translate(98.58,92.14)" d="M2.87,0A2.87,2.87 0 1,1 0,-2.87A2.87,2.87 0 0,1 2.87,0Z" style="opacity: 0.7; stroke-width: 1px; fill: rgb(99, 110, 250); fill-opacity: 1; stroke: rgb(255, 255, 255); stroke-opacity: 1;"/></g><g class="text"><g class="textpoint" transform="translate(0,-7.5906688641309845)"><text x="98.58" y="92.14" text-anchor="middle" style="font-family: 'Open Sans', verdana, arial, sans-serif; font-size: 12px; fill: rgb(42, 63, 95); fill-opacity: 1; white-space: pre;">Colombia</text></g></g></g><g class="trace scatter traceaf50fe" style="stroke-miterlimit: 2; opacity: 1;"><g class="fills"/><g class="errorbars"/><g class="lines"/><g class="points"><path class="point" transform="translate(54.87,100.88)" d="M2.41,0A2.41,2.41 0 1,1 0,-2.41A2.41,2.41 0 0,1 2.41,0Z" style="opacity: 0.7; stroke-width: 1px; fill: rgb(239, 85, 59); fill-opacity: 1; stroke: rgb(255, 255, 255); stroke-opacity: 1;"/></g><g class="text"><g class="textpoint" transform="translate(0,-7.0149325473338795)"><text x="54.87" y="100.88" text-anchor="middle" style="font-family: 'Open Sans', verdana, arial, sans-serif; font-size: 12px; fill: rgb(42, 63, 95); fill-opacity: 1; white-space: pre;">Argentina</text></g></g></g><g class="trace scatter traceab4a5d" style="stroke-miterlimit: 2; opacity: 1;"><g class="fills"/><g class="errorbars"/><g class="lines"/><g class="points"><path class="point" transform="translate(38.02,114.41)" d="M2.25,0A2.25,2.25 0 1,1 0,-2.25A2.25,2.25 0 0,1 2.25,0Z" style="opacity: 0.7; stroke-width: 1px; fill: rgb(0, 204, 150); fill-opacity: 1; stroke: rgb(255, 255, 255); stroke-opacity: 1;"/></g><g class="text"><g class="textpoint" transform="translate(0,-6.818391442058082)"><text x="38.02" y="114.41" text-anchor="middle" style="font-family: 'Open Sans', verdana, arial, sans-serif; font-size: 12px; fill: rgb(42, 63, 95); fill-opacity: 1; white-space: pre;">Egypt</text></g></g></g><g class="trace scatter trace2141f9" style="stroke-miterlimit: 2; opacity: 1;"><g class="fills"/><g class="errorbars"/><g class="lines"/><g class="points"><path class="point" transform="translate(199.85,187.22)" d="M4.31,0A4.31,4.31 0 1,1 0,-4.31A4.31,4.31 0 0,1 4.31,0Z" style="opacity: 0.7; stroke-width: 1px; fill: rgb(171, 99, 250); fill-opacity: 1; stroke: rgb(255, 255, 255); stroke-opacity: 1;"/></g><g class="text"><g class="textpoint" transform="translate(0,-9.383383491861762)"><text x="199.85" y="187.22" text-anchor="middle" style="font-family: 'Open Sans', verdana, arial, sans-serif; font-size: 12px; fill: rgb(42, 63, 95); fill-opacity: 1; white-space: pre;">United Kingdom</text></g></g></g><g class="trace scatter trace612103" style="stroke-miterlimit: 2; opacity: 1;"><g class="fills"/><g class="errorbars"/><g class="lines"/><g class="points"/><g class="text"/></g></g></g><g class="overplot"/><path class="xlines-above crisp" style="fill: none;"/><path class="ylines-above crisp" style="fill: none;"/><g class="overlines-above"/><g class="xaxislayer-above"/><g class="yaxislayer-above"/><g class="overaxes-above"/></g><rect class="rangeslider-mask-min" x="0" y="0" shape-rendering="crispEdges" height="198" width="0" style="fill: rgb(0, 0, 0); fill-opacity: 0.4;"/><rect class="rangeslider-mask-max" y="0" shape-rendering="crispEdges" height="198" x="540" width="0" style="fill: rgb(0, 0, 0); fill-opacity: 0.4;"/><g class="rangeslider-grabber-min" transform="translate(-2.5,0.5)"><rect class="rangeslider-handle-min" x="0" width="4" rx="1" fill="#fff" stroke="#444" stroke-width="1" shape-rendering="crispEdges" y="50" height="99"/></g><g class="rangeslider-grabber-max" transform="translate(538.5,0.5)"><rect class="rangeslider-handle-max" x="0" width="4" rx="1" fill="#fff" stroke="#444" stroke-width="1" shape-rendering="crispEdges" y="50" height="99"/></g></g><g class="g-ytitle"><text class="ytitle" transform="rotate(-90,21.278125000000003,641.5)" x="21.278125000000003" y="641.5" text-anchor="middle" style="font-family: 'Open Sans', verdana, arial, sans-serif; font-size: 14px; fill: rgb(42, 63, 95); opacity: 1; font-weight: normal; white-space: pre;">Recovered</text></g><g class="g-xtitle"><text class="xtitle" x="350" y="1451" text-anchor="middle" style="font-family: 'Open Sans', verdana, arial, sans-serif; font-size: 14px; fill: rgb(42, 63, 95); opacity: 1; font-weight: normal; white-space: pre;">Confirmed</text></g></g></svg>