<svg class="main-svg" xmlns="http://www.w3.org/2000/svg" xmlns:xlink="http://www.w3.org/1999/xlink" width="700" height="1500" style="" viewBox="0 0 700 1500"><rect x="0" y="0" width="700" height="1500" style="fill: rgb(255, 255, 255); fill-opacity: 1;"/><defs id="defs-255f41"><g class="clips"><clipPath id="clip255f41xyplot" class="plotclip"><rect width="540" height="1083"/></clipPath><clipPath class="axesclip" id="clip255f41x"><rect x="80" y="0" width="540" height="1500"/></clipPath><clipPath class="axesclip" id="clip255f41y"><rect x="0" y="100" width="700" height="1083"/></clipPath><clipPath class="axesclip" id="clip255f41xy"><rect x="80" y="100" width="540" height="1083"/></clipPath></g><g class="gradients"/></defs><g class="bglayer"><rect class="bg" x="80" y="100" width="540" height="1083" style="fill: rgb(229, 236, 246); fill-opacity: 1; stroke-width: 0;"/></g><g class="layer-below"><g class="imagelayer"/><g class="shapelayer"/></g><g class="cartesianlayer"><g class="subplot xy"><g class="layer-subplot"><g class="shapelayer"/><g class="imagelayer"/></g><g class="gridlayer"><g class="x"><path class="xgrid crisp" transform="translate(83.31,0)" d="M0,100v1083" style="stroke: rgb(255, 255, 255); stroke-opacity: 1; stroke-width: 1px;"/><path class="xgrid crisp" transform="translate(96.42,0)" d="M0,100v1083" style="stroke: rgb(255, 255, 255); stroke-opacity: 1; stroke-width: 1px;"/><path class="xgrid crisp" transform="translate(182.64,0)" d="M0,100v1083" style="stroke: rgb(255, 255, 255); stroke-opacity: 1; stroke-width: 1px;"/><path class="xgrid crisp" transform="translate(233.07,0)" d="M0,100v1083" style="stroke: rgb(255, 255, 255); stroke-opacity: 1; stroke-width: 1px;"/><path class="xgrid crisp" transform="translate(268.85,0)" d="M0,100v1083" style="stroke: rgb(255, 255, 255); stroke-opacity: 1; stroke-width: 1px;"/><path class="xgrid crisp" transform="translate(296.61,0)" d="M0,100v1083" style="stroke: rgb(255, 255, 255); stroke-opacity: 1; stroke-width: 1px;"/><path class="xgrid crisp" transform="translate(319.28999999999996,0)" d="M0,100v1083" style="stroke: rgb(255, 255, 255); stroke-opacity: 1; stroke-width: 1px;"/><path class="xgrid crisp" transform="translate(338.46,0)" d="M0,100v1083" style="stroke: rgb(255, 255, 255); stroke-opacity: 1; stroke-width: 1px;"/><path class="xgrid crisp" transform="translate(355.07,0)" d="M0,100v1083" style="stroke: rgb(255, 255, 255); stroke-opacity: 1; stroke-width: 1px;"/><path class="xgrid crisp" transform="translate(369.72,0)" d="M0,100v1083" style="stroke: rgb(255, 255, 255); stroke-opacity: 1; stroke-width: 1px;"/><path class="xgrid crisp" transform="translate(382.83,0)" d="M0,100v1083" style="stroke: rgb(255, 255, 255); stroke-opacity: 1; stroke-width: 1px;"/><path class="xgrid crisp" transform="translate(469.04,0)" d="M0,100v1083" style="stroke: rgb(255, 255, 255); stroke-opacity: 1; stroke-width: 1px;"/><path class="xgrid crisp" transform="translate(519.48,0)" d="M0,100v1083" style="stroke: rgb(255, 255, 255); stroke-opacity: 1; stroke-width: 1px;"/><path class="xgrid crisp" transform="translate(555.26,0)" d="M0,100v1083" style="stroke: rgb(255, 255, 255); stroke-opacity: 1; stroke-width: 1px;"/><path class="xgrid crisp" transform="translate(583.02,0)" d="M0,100v1083" style="stroke: rgb(255, 255, 255); stroke-opacity: 1; stroke-width: 1px;"/><path class="xgrid crisp" transform="translate(605.7,0)" d="M0,100v1083" style="stroke: rgb(255, 255, 255); stroke-opacity: 1; stroke-width: 1px;"/></g><g class="y"><path class="ygrid crisp" transform="translate(0,1108.6399999999999)" d="M80,0h540" style="stroke: rgb(255, 255, 255); stroke-opacity: 1; stroke-width: 1px;"/><path class="ygrid crisp" transform="translate(0,979.58)" d="M80,0h540" style="stroke: rgb(255, 255, 255); stroke-opacity: 1; stroke-width: 1px;"/><path class="ygrid crisp" transform="translate(0,881.95)" d="M80,0h540" style="stroke: rgb(255, 255, 255); stroke-opacity: 1; stroke-width: 1px;"/><path class="ygrid crisp" transform="translate(0,784.32)" d="M80,0h540" style="stroke: rgb(255, 255, 255); stroke-opacity: 1; stroke-width: 1px;"/><path class="ygrid crisp" transform="translate(0,655.26)" d="M80,0h540" style="stroke: rgb(255, 255, 255); stroke-opacity: 1; stroke-width: 1px;"/><path class="ygrid crisp" transform="translate(0,557.64)" d="M80,0h540" style="stroke: rgb(255, 255, 255); stroke-opacity: 1; stroke-width: 1px;"/><path class="ygrid crisp" transform="translate(0,460.01)" d="M80,0h540" style="stroke: rgb(255, 255, 255); stroke-opacity: 1; stroke-width: 1px;"/><path class="ygrid crisp" transform="translate(0,330.95)" d="M80,0h540" style="stroke: rgb(255, 255, 255); stroke-opacity: 1; stroke-width: 1px;"/><path class="ygrid crisp" transform="translate(0,233.32)" d="M80,0h540" style="stroke: rgb(255, 255, 255); stroke-opacity: 1; stroke-width: 1px;"/><path class="ygrid crisp" transform="translate(0,135.69)" d="M80,0h540" style="stroke: rgb(255, 255, 255); stroke-opacity: 1; stroke-width: 1px;"/></g></g><g class="zerolinelayer"/><path class="xlines-below"/><path class="ylines-below"/><g class="overlines-below"/><g class="xaxislayer-below"/><g class="yaxislayer-below"/><g class="overaxes-below"/><g class="plot" transform="translate(80, 100)" clip-path="url('#clip255f41xyplot')"><g class="scatterlayer mlayer"><g class="trace scatter tracefdd07c" style="stroke-miterlimit: 2; opacity: 1;"><g class="fills"/><g class="errorbars"/><g class="lines"/><g class="points"><path class="point" transform="translate(497.19,69.96)" d="M14.14,0A14.14,14.14 0 1,1 0,-14.14A14.14,14.14 0 0,1 14.14,0Z" style="opacity: 0.7; stroke-width: 1px; fill: rgb(99, 110, 250); fill-opacity: 1; stroke: rgb(255, 255, 255); stroke-opacity: 1;"/></g><g class="text"><g class="textpoint" transform="translate(0,-21.67766952966369)"><text x="497.19" y="69.96" text-anchor="middle" style="font-family: 'Open Sans', verdana, arial, sans-serif; font-size: 12px; fill: rgb(42, 63, 95); fill-opacity: 1; white-space: pre;">US</text></g></g></g><g class="trace scatter trace1143e5" style="stroke-miterlimit: 2; opacity: 1;"><g class="fills"/><g class="errorbars"/><g class="lines"/><g class="points"><path class="point" transform="translate(430.98,139.33)" d="M10.84,0A10.84,10.84 0 1,1 0,-10.84A10.84,10.84 0 0,1 10.84,0Z" style="opacity: 0.7; stroke-width: 1px; fill: rgb(239, 85, 59); fill-opacity: 1; stroke: rgb(255, 255, 255); stroke-opacity: 1;"/></g><g class="text"><g class="textpoint" transform="translate(0,-17.547045971707433)"><text x="430.98" y="139.33" text-anchor="middle" style="font-family: 'Open Sans', verdana, arial, sans-serif; font-size: 12px; fill: rgb(42, 63, 95); fill-opacity: 1; white-space: pre;">Brazil</text></g></g></g><g class="trace scatter trace586222" style="stroke-miterlimit: 2; opacity: 1;"><g class="fills"/><g class="errorbars"/><g class="lines"/><g class="points"><path class="point" transform="translate(203.49,234.17)" d="M4.34,0A4.34,4.34 0 1,1 0,-4.34A4.34,4.34 0 0,1 4.34,0Z" style="opacity: 0.7; stroke-width: 1px; fill: rgb(0, 204, 150); fill-opacity: 1; stroke: rgb(255, 255, 255); stroke-opacity: 1;"/></g><g class="text"><g class="textpoint" transform="translate(0,-9.428803197765083)"><text x="203.49" y="234.17" text-anchor="middle" style="font-family: 'Open Sans', verdana, arial, sans-serif; font-size: 12px; fill: rgb(42, 63, 95); fill-opacity: 1; white-space: pre;">Mexico</text></g></g></g><g class="trace scatter trace4507c8" style="stroke-miterlimit: 2; opacity: 1;"><g class="fills"/><g class="errorbars"/><g class="lines"/><g class="points"><path class="point" transform="translate(156.04,241.8)" d="M3.59,0A3.59,3.59 0 1,1 0,-3.59A3.59,3.59 0 0,1 3.59,0Z" style="opacity: 0.7; stroke-width: 1px; fill: rgb(171, 99, 250); fill-opacity: 1; stroke: rgb(255, 255, 255); stroke-opacity: 1;"/></g><g class="text"><g class="textpoint" transform="translate(0,-8.486078281290595)"><text x="156.04" y="241.8" text-anchor="middle" style="font-family: 'Open Sans', verdana, arial, sans-serif; font-size: 12px; fill: rgb(42, 63, 95); fill-opacity: 1; white-space: pre;">United Kingdom</text></g></g></g><g class="trace scatter trace35d3a7" style="stroke-miterlimit: 2; opacity: 1;"><g class="fills"/><g class="errorbars"/><g class="lines"/><g class="points"><path class="point" transform="translate(383.2,263.1)" d="M8.94,0A8.94,8.94 0 1,1 0,-8.94A8.94,8.94 0 0,1 8.94,0Z" style="opacity: 0.7; stroke-width: 1px; fill: rgb(255, 161, 90); fill-opacity: 1; stroke: rgb(255, 255, 255); stroke-opacity: 1;"/></g><g class="text"><g class="textpoint" transform="translate(0,-15.179818478586695)"><text x="383.2" y="263.1" text-anchor="middle" style="font-family: 'Open Sans', verdana, arial, sans-serif; font-size: 12px; fill: rgb(42, 63, 95); fill-opacity: 1; white-space: pre;">India</text></g></g></g><g class="trace scatter trace5bf3e6" style="stroke-miterlimit: 2; opacity: 1;"><g class="fills"/><g class="errorbars"/><g class="lines"/><g class="points"><path class="point" transform="translate(129.6,280.5)" d="M3.23,0A3.23,3.23 0 1,1 0,-3.23A3.23,3.23 0 0,1 3.23,0Z" style="opacity: 0.7; stroke-width: 1px; fill: rgb(25, 211, 243); fill-opacity: 1; stroke: rgb(255, 255, 255); stroke-opacity: 1;"/></g><g class="text"><g class="textpoint" transform="translate(0,-8.033750814266671)"><text x="129.6" y="280.5" text-anchor="middle" style="font-family: 'Open Sans', verdana, arial, sans-serif; font-size: 12px; fill: rgb(42, 63, 95); fill-opacity: 1; white-space: pre;">Italy</text></g></g></g><g class="trace scatter tracec691ab" style="stroke-miterlimit: 2; opacity: 1;"><g class="fills"/><g class="errorbars"/><g class="lines"/><g class="points"><path class="point" transform="translate(119.25,301.51)" d="M3.1,0A3.1,3.1 0 1,1 0,-3.1A3.1,3.1 0 0,1 3.1,0Z" style="opacity: 0.7; stroke-width: 1px; fill: rgb(255, 102, 146); fill-opacity: 1; stroke: rgb(255, 255, 255); stroke-opacity: 1;"/></g><g class="text"><g class="textpoint" transform="translate(0,-7.869296189793593)"><text x="119.25" y="301.51" text-anchor="middle" style="font-family: 'Open Sans', verdana, arial, sans-serif; font-size: 12px; fill: rgb(42, 63, 95); fill-opacity: 1; white-space: pre;">France</text></g></g></g><g class="trace scatter trace1493bb" style="stroke-miterlimit: 2; opacity: 1;"><g class="fills"/><g class="errorbars"/><g class="lines"/><g class="points"><path class="point" transform="translate(154.23,310.13)" d="M3.56,0A3.56,3.56 0 1,1 0,-3.56A3.56,3.56 0 0,1 3.56,0Z" style="opacity: 0.7; stroke-width: 1px; fill: rgb(182, 232, 128); fill-opacity: 1; stroke: rgb(255, 255, 255); stroke-opacity: 1;"/></g><g class="text"><g class="textpoint" transform="translate(0,-8.453532607936872)"><text x="154.23" y="310.13" text-anchor="middle" style="font-family: 'Open Sans', verdana, arial, sans-serif; font-size: 12px; fill: rgb(42, 63, 95); fill-opacity: 1; white-space: pre;">Spain</text></g></g></g><g class="trace scatter tracef2ddb9" style="stroke-miterlimit: 2; opacity: 1;"><g class="fills"/><g class="errorbars"/><g class="lines"/><g class="points"><path class="point" transform="translate(200.68,359.96)" d="M4.29,0A4.29,4.29 0 1,1 0,-4.29A4.29,4.29 0 0,1 4.29,0Z" style="opacity: 0.7; stroke-width: 1px; fill: rgb(255, 151, 255); fill-opacity: 1; stroke: rgb(255, 255, 255); stroke-opacity: 1;"/></g><g class="text"><g class="textpoint" transform="translate(0,-9.367705820581286)"><text x="200.68" y="359.96" text-anchor="middle" style="font-family: 'Open Sans', verdana, arial, sans-serif; font-size: 12px; fill: rgb(42, 63, 95); fill-opacity: 1; white-space: pre;">Peru</text></g></g></g><g class="trace scatter trace15312b" style="stroke-miterlimit: 2; opacity: 1;"><g class="fills"/><g class="errorbars"/><g class="lines"/><g class="points"><path class="point" transform="translate(159.05,377.87)" d="M3.63,0A3.63,3.63 0 1,1 0,-3.63A3.63,3.63 0 0,1 3.63,0Z" style="opacity: 0.7; stroke-width: 1px; fill: rgb(254, 203, 82); fill-opacity: 1; stroke: rgb(255, 255, 255); stroke-opacity: 1;"/></g><g class="text"><g class="textpoint" transform="translate(0,-8.540716274626774)"><text x="159.05" y="377.87" text-anchor="middle" style="font-family: 'Open Sans', verdana, arial, sans-serif; font-size: 12px; fill: rgb(42, 63, 95); fill-opacity: 1; white-space: pre;">Iran</text></g></g></g><g class="trace scatter traced539f4" style="stroke-miterlimit: 2; opacity: 1;"><g class="fills"/><g class="errorbars"/><g class="lines"/><g class="points"><path class="point" transform="translate(284.03,406.99)" d="M6,0A6,6 0 1,1 0,-6A6,6 0 0,1 6,0Z" style="opacity: 0.7; stroke-width: 1px; fill: rgb(99, 110, 250); fill-opacity: 1; stroke: rgb(255, 255, 255); stroke-opacity: 1;"/></g><g class="text"><g class="textpoint" transform="translate(0,-11.504223919626728)"><text x="284.03" y="406.99" text-anchor="middle" style="font-family: 'Open Sans', verdana, arial, sans-serif; font-size: 12px; fill: rgb(42, 63, 95); fill-opacity: 1; white-space: pre;">Russia</text></g></g></g><g class="trace scatter trace7f02a1" style="stroke-miterlimit: 2; opacity: 1;"><g class="fills"/><g class="errorbars"/><g class="lines"/><g class="points"><path class="point" transform="translate(166.79,440.23)" d="M3.75,0A3.75,3.75 0 1,1 0,-3.75A3.75,3.75 0 0,1 3.75,0Z" style="opacity: 0.7; stroke-width: 1px; fill: rgb(239, 85, 59); fill-opacity: 1; stroke: rgb(255, 255, 255); stroke-opacity: 1;"/></g><g class="text"><g class="textpoint" transform="translate(0,-8.684092387307025)"><text x="166.79" y="440.23" text-anchor="middle" style="font-family: 'Open Sans', verdana, arial, sans-serif; font-size: 12px; fill: rgb(42, 63, 95); fill-opacity: 1; white-space: pre;">Colombia</text></g></g></g><g class="trace scatter trace033784" style="stroke-miterlimit: 2; opacity: 1;"><g class="fills"/><g class="errorbars"/><g class="lines"/><g class="points"><path class="point" transform="translate(176.77,461.27)" d="M3.9,0A3.9,3.9 0 1,1 0,-3.9A3.9,3.9 0 0,1 3.9,0Z" style="opacity: 0.7; stroke-width: 1px; fill: rgb(0, 204, 150); fill-opacity: 1; stroke: rgb(255, 255, 255); stroke-opacity: 1;"/></g><g class="text"><g class="textpoint" transform="translate(0,-8.875815247421375)"><text x="176.77" y="461.27" text-anchor="middle" style="font-family: 'Open Sans', verdana, arial, sans-serif; font-size: 12px; fill: rgb(42, 63, 95); fill-opacity: 1; white-space: pre;">Chile</text></g></g></g><g class="trace scatter trace366098" style="stroke-miterlimit: 2; opacity: 1;"><g class="fills"/><g class="errorbars"/><g class="lines"/><g class="points"><path class="point" transform="translate(110.37,469.95)" d="M2.99,0A2.99,2.99 0 1,1 0,-2.99A2.99,2.99 0 0,1 2.99,0Z" style="opacity: 0.7; stroke-width: 1px; fill: rgb(171, 99, 250); fill-opacity: 1; stroke: rgb(255, 255, 255); stroke-opacity: 1;"/></g><g class="text"><g class="textpoint" transform="translate(0,-7.73362798769307)"><text x="110.37" y="469.95" text-anchor="middle" style="font-family: 'Open Sans', verdana, arial, sans-serif; font-size: 12px; fill: rgb(42, 63, 95); fill-opacity: 1; white-space: pre;">Germany</text></g></g></g><g class="trace scatter tracef427e7" style="stroke-miterlimit: 2; opacity: 1;"><g class="fills"/><g class="errorbars"/><g class="lines"/><g class="points"><path class="point" transform="translate(38.73,472.41)" d="M2.24,0A2.24,2.24 0 1,1 0,-2.24A2.24,2.24 0 0,1 2.24,0Z" style="opacity: 0.7; stroke-width: 1px; fill: rgb(255, 161, 90); fill-opacity: 1; stroke: rgb(255, 255, 255); stroke-opacity: 1;"/></g><g class="text"><g class="textpoint" transform="translate(0,-6.799405125390532)"><text x="38.73" y="472.41" text-anchor="middle" style="font-family: 'Open Sans', verdana, arial, sans-serif; font-size: 12px; fill: rgb(42, 63, 95); fill-opacity: 1; white-space: pre;">Canada</text></g></g></g><g class="trace scatter traceeeeba8" style="stroke-miterlimit: 2; opacity: 1;"><g class="fills"/><g class="errorbars"/><g class="lines"/><g class="points"><path class="point" transform="translate(221.8,474.3)" d="M4.67,0A4.67,4.67 0 1,1 0,-4.67A4.67,4.67 0 0,1 4.67,0Z" style="opacity: 0.7; stroke-width: 1px; fill: rgb(25, 211, 243); fill-opacity: 1; stroke: rgb(255, 255, 255); stroke-opacity: 1;"/></g><g class="text"><g class="textpoint" transform="translate(0,-9.843432365634868)"><text x="221.8" y="474.3" text-anchor="middle" style="font-family: 'Open Sans', verdana, arial, sans-serif; font-size: 12px; fill: rgb(42, 63, 95); fill-opacity: 1; white-space: pre;">South Africa</text></g></g></g><g class="trace scatter tracedcb417" style="stroke-miterlimit: 2; opacity: 1;"><g class="fills"/><g class="errorbars"/><g class="lines"/><g class="points"><path class="point" transform="translate(144.69,529.61)" d="M3.43,0A3.43,3.43 0 1,1 0,-3.43A3.43,3.43 0 0,1 3.43,0Z" style="opacity: 0.7; stroke-width: 1px; fill: rgb(255, 102, 146); fill-opacity: 1; stroke: rgb(255, 255, 255); stroke-opacity: 1;"/></g><g class="text"><g class="textpoint" transform="translate(0,-8.28600724246317)"><text x="144.69" y="529.61" text-anchor="middle" style="font-family: 'Open Sans', verdana, arial, sans-serif; font-size: 12px; fill: rgb(42, 63, 95); fill-opacity: 1; white-space: pre;">Pakistan</text></g></g></g><g class="trace scatter trace533500" style="stroke-miterlimit: 2; opacity: 1;"><g class="fills"/><g class="errorbars"/><g class="lines"/><g class="points"><path class="point" transform="translate(122.66,535.21)" d="M3.14,0A3.14,3.14 0 1,1 0,-3.14A3.14,3.14 0 0,1 3.14,0Z" style="opacity: 0.7; stroke-width: 1px; fill: rgb(182, 232, 128); fill-opacity: 1; stroke: rgb(255, 255, 255); stroke-opacity: 1;"/></g><g class="text"><g class="textpoint" transform="translate(0,-7.9227406688636055)"><text x="122.66" y="535.21" text-anchor="middle" style="font-family: 'Open Sans', verdana, arial, sans-serif; font-size: 12px; fill: rgb(42, 63, 95); fill-opacity: 1; white-space: pre;">Turkey</text></g></g></g><g class="trace scatter tracee4e7d6" style="stroke-miterlimit: 2; opacity: 1;"><g class="fills"/><g class="errorbars"/><g class="lines"/><g class="points"><path class="point" transform="translate(33.86,544.74)" d="M2.2,0A2.2,2.2 0 1,1 0,-2.2A2.2,2.2 0 0,1 2.2,0Z" style="opacity: 0.7; stroke-width: 1px; fill: rgb(255, 151, 255); fill-opacity: 1; stroke: rgb(255, 255, 255); stroke-opacity: 1;"/></g><g class="text"><g class="textpoint" transform="translate(0,-6.745182977181795)"><text x="33.86" y="544.74" text-anchor="middle" style="font-family: 'Open Sans', verdana, arial, sans-serif; font-size: 12px; fill: rgb(42, 63, 95); fill-opacity: 1; white-space: pre;">Indonesia</text></g></g></g><g class="trace scatter trace7cc28c" style="stroke-miterlimit: 2; opacity: 1;"><g class="fills"/><g class="errorbars"/><g class="lines"/><g class="points"><path class="point" transform="translate(53.49,554.79)" d="M2.38,0A2.38,2.38 0 1,1 0,-2.38A2.38,2.38 0 0,1 2.38,0Z" style="opacity: 0.7; stroke-width: 1px; fill: rgb(254, 203, 82); fill-opacity: 1; stroke: rgb(255, 255, 255); stroke-opacity: 1;"/></g><g class="text"><g class="textpoint" transform="translate(0,-6.970543539219721)"><text x="53.49" y="554.79" text-anchor="middle" style="font-family: 'Open Sans', verdana, arial, sans-serif; font-size: 12px; fill: rgb(42, 63, 95); fill-opacity: 1; white-space: pre;">Iraq</text></g></g></g><g class="trace scatter trace0e971d" style="stroke-miterlimit: 2; opacity: 1;"><g class="fills"/><g class="errorbars"/><g class="lines"/><g class="points"><path class="point" transform="translate(110.78,587.44)" d="M2.99,0A2.99,2.99 0 1,1 0,-2.99A2.99,2.99 0 0,1 2.99,0Z" style="opacity: 0.7; stroke-width: 1px; fill: rgb(99, 110, 250); fill-opacity: 1; stroke: rgb(255, 255, 255); stroke-opacity: 1;"/></g><g class="text"><g class="textpoint" transform="translate(0,-7.739824273934017)"><text x="110.78" y="587.44" text-anchor="middle" style="font-family: 'Open Sans', verdana, arial, sans-serif; font-size: 12px; fill: rgb(42, 63, 95); fill-opacity: 1; white-space: pre;">Argentina</text></g></g></g><g class="trace scatter trace5614a1" style="stroke-miterlimit: 2; opacity: 1;"><g class="fills"/><g class="errorbars"/><g class="lines"/><g class="points"><path class="point" transform="translate(127.38,616.64)" d="M3.2,0A3.2,3.2 0 1,1 0,-3.2A3.2,3.2 0 0,1 3.2,0Z" style="opacity: 0.7; stroke-width: 1px; fill: rgb(239, 85, 59); fill-opacity: 1; stroke: rgb(255, 255, 255); stroke-opacity: 1;"/></g><g class="text"><g class="textpoint" transform="translate(0,-7.997876489332096)"><text x="127.38" y="616.64" text-anchor="middle" style="font-family: 'Open Sans', verdana, arial, sans-serif; font-size: 12px; fill: rgb(42, 63, 95); fill-opacity: 1; white-space: pre;">Bangladesh</text></g></g></g><g class="trace scatter tracef78bcf" style="stroke-miterlimit: 2; opacity: 1;"><g class="fills"/><g class="errorbars"/><g class="lines"/><g class="points"><path class="point" transform="translate(145.13,627.97)" d="M3.43,0A3.43,3.43 0 1,1 0,-3.43A3.43,3.43 0 0,1 3.43,0Z" style="opacity: 0.7; stroke-width: 1px; fill: rgb(0, 204, 150); fill-opacity: 1; stroke: rgb(255, 255, 255); stroke-opacity: 1;"/></g><g class="text"><g class="textpoint" transform="translate(0,-8.293603310202311)"><text x="145.13" y="627.97" text-anchor="middle" style="font-family: 'Open Sans', verdana, arial, sans-serif; font-size: 12px; fill: rgb(42, 63, 95); fill-opacity: 1; white-space: pre;">Saudi Arabia</text></g></g></g><g class="trace scatter tracec67738" style="stroke-miterlimit: 2; opacity: 1;"><g class="fills"/><g class="errorbars"/><g class="lines"/><g class="points"><path class="point" transform="translate(31.17,676.45)" d="M2.17,0A2.17,2.17 0 1,1 0,-2.17A2.17,2.17 0 0,1 2.17,0Z" style="opacity: 0.7; stroke-width: 1px; fill: rgb(171, 99, 250); fill-opacity: 1; stroke: rgb(255, 255, 255); stroke-opacity: 1;"/></g><g class="text"><g class="textpoint" transform="translate(0,-6.715641000095452)"><text x="31.17" y="676.45" text-anchor="middle" style="font-family: 'Open Sans', verdana, arial, sans-serif; font-size: 12px; fill: rgb(42, 63, 95); fill-opacity: 1; white-space: pre;">Philippines</text></g></g></g><g class="trace scatter trace5bb4d1" style="stroke-miterlimit: 2; opacity: 1;"><g class="fills"/><g class="errorbars"/><g class="lines"/><g class="points"><path class="point" transform="translate(30,1025.85)" d="M2.16,0A2.16,2.16 0 1,1 0,-2.16A2.16,2.16 0 0,1 2.16,0Z" style="opacity: 0.7; stroke-width: 1px; fill: rgb(255, 161, 90); fill-opacity: 1; stroke: rgb(255, 255, 255); stroke-opacity: 1;"/></g><g class="text"><g class="textpoint" transform="translate(0,-6.702888234953646)"><text x="30" y="1025.85" text-anchor="middle" style="font-family: 'Open Sans', verdana, arial, sans-serif; font-size: 12px; fill: rgb(42, 63, 95); fill-opacity: 1; white-space: pre;">Qatar</text></g></g></g></g></g><g class="overplot"/><path class="xlines-above crisp" d="M79,1183.5H620" style="fill: none; stroke-width: 1px; stroke: rgb(255, 255, 255); stroke-opacity: 1;"/><path class="ylines-above crisp" d="M79.5,100V1183" style="fill: none; stroke-width: 1px; stroke: rgb(255, 255, 255); stroke-opacity: 1;"/><g class="overlines-above"/><g class="xaxislayer-above"><g class="xtick"><text text-anchor="middle" x="0" y="1195.4" transform="translate(83.31,0)" style="font-family: 'Open Sans', verdana, arial, sans-serif; font-size: 9px; fill: rgb(42, 63, 95); fill-opacity: 1; white-space: pre;">9</text></g><g class="xtick"><text text-anchor="middle" x="3" y="1204.4" transform="translate(96.42,0)" style="font-family: 'Open Sans', verdana, arial, sans-serif; font-size: 12px; fill: rgb(42, 63, 95); fill-opacity: 1; white-space: pre;">100k</text></g><g class="xtick"><text text-anchor="middle" x="0" y="1195.4" transform="translate(182.64,0)" style="font-family: 'Open Sans', verdana, arial, sans-serif; font-size: 9px; fill: rgb(42, 63, 95); fill-opacity: 1; white-space: pre;">2</text></g><g class="xtick"><text text-anchor="middle" x="0" y="1195.4" transform="translate(233.07,0)" style="font-family: 'Open Sans', verdana, arial, sans-serif; font-size: 9px; fill: rgb(42, 63, 95); fill-opacity: 1; white-space: pre;">3</text></g><g class="xtick"><text text-anchor="middle" x="0" y="1195.4" transform="translate(268.85,0)" style="font-family: 'Open Sans', verdana, arial, sans-serif; font-size: 9px; fill: rgb(42, 63, 95); fill-opacity: 1; white-space: pre;">4</text></g><g class="xtick"><text text-anchor="middle" x="0" y="1195.4" transform="translate(296.61,0)" style="font-family: 'Open Sans', verdana, arial, sans-serif; font-size: 9px; fill: rgb(42, 63, 95); fill-opacity: 1; white-space: pre;">5</text></g><g class="xtick"><text text-anchor="middle" x="0" y="1195.4" transform="translate(319.28999999999996,0)" style="font-family: 'Open Sans', verdana, arial, sans-serif; font-size: 9px; fill: rgb(42, 63, 95); fill-opacity: 1; white-space: pre;">6</text></g><g class="xtick"><text text-anchor="middle" x="0" y="1195.4" transform="translate(338.46,0)" style="font-family: 'Open Sans', verdana, arial, sans-serif; font-size: 9px; fill: rgb(42, 63, 95); fill-opacity: 1; white-space: pre;">7</text></g><g class="xtick"><text text-anchor="middle" x="0" y="1195.4" transform="translate(355.07,0)" style="font-family: 'Open Sans', verdana, arial, sans-serif; font-size: 9px; fill: rgb(42, 63, 95); fill-opacity: 1; white-space: pre;">8</text></g><g class="xtick"><text text-anchor="middle" x="0" y="1195.4" transform="translate(369.72,0)" style="font-family: 'Open Sans', verdana, arial, sans-serif; font-size: 9px; fill: rgb(42, 63, 95); fill-opacity: 1; white-space: pre;">9</text></g><g class="xtick"><text text-anchor="middle" x="3" y="1204.4" transform="translate(382.83,0)" style="font-family: 'Open Sans', verdana, arial, sans-serif; font-size: 12px; fill: rgb(42, 63, 95); fill-opacity: 1; white-space: pre;">1M</text></g><g class="xtick"><text text-anchor="middle" x="0" y="1195.4" transform="translate(469.04,0)" style="font-family: 'Open Sans', verdana, arial, sans-serif; font-size: 9px; fill: rgb(42, 63, 95); fill-opacity: 1; white-space: pre;">2</text></g><g class="xtick"><text text-anchor="middle" x="0" y="1195.4" transform="translate(519.48,0)" style="font-family: 'Open Sans', verdana, arial, sans-serif; font-size: 9px; fill: rgb(42, 63, 95); fill-opacity: 1; white-space: pre;">3</text></g><g class="xtick"><text text-anchor="middle" x="0" y="1195.4" transform="translate(555.26,0)" style="font-family: 'Open Sans', verdana, arial, sans-serif; font-size: 9px; fill: rgb(42, 63, 95); fill-opacity: 1; white-space: pre;">4</text></g><g class="xtick"><text text-anchor="middle" x="0" y="1195.4" transform="translate(583.02,0)" style="font-family: 'Open Sans', verdana, arial, sans-serif; font-size: 9px; fill: rgb(42, 63, 95); fill-opacity: 1; white-space: pre;">5</text></g><g class="xtick"><text text-anchor="middle" x="0" y="1195.4" transform="translate(605.7,0)" style="font-family: 'Open Sans', verdana, arial, sans-serif; font-size: 9px; fill: rgb(42, 63, 95); fill-opacity: 1; white-space: pre;">6</text></g></g><g class="yaxislayer-above"><g class="ytick"><text text-anchor="end" x="76.6" y="3.15" transform="translate(0,1108.6399999999999)" style="font-family: 'Open Sans', verdana, arial, sans-serif; font-size: 9px; fill: rgb(42, 63, 95); fill-opacity: 1; white-space: pre;">2</text></g><g class="ytick"><text text-anchor="end" x="76.6" y="3.15" transform="translate(0,979.58)" style="font-family: 'Open Sans', verdana, arial, sans-serif; font-size: 9px; fill: rgb(42, 63, 95); fill-opacity: 1; white-space: pre;">5</text></g><g class="ytick"><text text-anchor="end" x="76.6" y="4.199999999999999" transform="translate(0,881.95)" style="font-family: 'Open Sans', verdana, arial, sans-serif; font-size: 12px; fill: rgb(42, 63, 95); fill-opacity: 1; white-space: pre;">1000</text></g><g class="ytick"><text text-anchor="end" x="76.6" y="3.15" transform="translate(0,784.32)" style="font-family: 'Open Sans', verdana, arial, sans-serif; font-size: 9px; fill: rgb(42, 63, 95); fill-opacity: 1; white-space: pre;">2</text></g><g class="ytick"><text text-anchor="end" x="76.6" y="3.15" transform="translate(0,655.26)" style="font-family: 'Open Sans', verdana, arial, sans-serif; font-size: 9px; fill: rgb(42, 63, 95); fill-opacity: 1; white-space: pre;">5</text></g><g class="ytick"><text text-anchor="end" x="76.6" y="4.199999999999999" transform="translate(0,557.64)" style="font-family: 'Open Sans', verdana, arial, sans-serif; font-size: 12px; fill: rgb(42, 63, 95); fill-opacity: 1; white-space: pre;">10k</text></g><g class="ytick"><text text-anchor="end" x="76.6" y="3.15" transform="translate(0,460.01)" style="font-family: 'Open Sans', verdana, arial, sans-serif; font-size: 9px; fill: rgb(42, 63, 95); fill-opacity: 1; white-space: pre;">2</text></g><g class="ytick"><text text-anchor="end" x="76.6" y="3.15" transform="translate(0,330.95)" style="font-family: 'Open Sans', verdana, arial, sans-serif; font-size: 9px; fill: rgb(42, 63, 95); fill-opacity: 1; white-space: pre;">5</text></g><g class="ytick"><text text-anchor="end" x="76.6" y="4.199999999999999" transform="translate(0,233.32)" style="font-family: 'Open Sans', verdana, arial, sans-serif; font-size: 12px; fill: rgb(42, 63, 95); fill-opacity: 1; white-space: pre;">100k</text></g><g class="ytick"><text text-anchor="end" x="76.6" y="3.15" transform="translate(0,135.69)" style="font-family: 'Open Sans', verdana, arial, sans-serif; font-size: 9px; fill: rgb(42, 63, 95); fill-opacity: 1; white-space: pre;">2</text></g></g><g class="overaxes-above"/></g></g><g class="polarlayer"/><g class="ternarylayer"/><g class="geolayer"/><g class="funnelarealayer"/><g class="pielayer"/><g class="treemaplayer"/><g class="sunburstlayer"/><g class="glimages"/><defs id="topdefs-255f41"><g class="clips"/><clipPath id="rangesliderx-255f41"><rect x="0" y="0" width="540" height="198"/></clipPath></defs><g class="layer-above"><g class="imagelayer"/><g class="shapelayer"/></g><g class="infolayer"><g class="g-gtitle"><text class="gtitle" x="35" y="50" text-anchor="start" dy="0em" style="font-family: 'Open Sans', verdana, arial, sans-serif; font-size: 17px; fill: rgb(42, 63, 95); opacity: 1; font-weight: normal; white-space: pre;">Deaths vs Confirmed (Logarithmic Scale)</text></g><g class="rangeslider-container" pointer-events="all" transform="translate(80,1222)"><rect class="rangeslider-bg" x="0" y="0" shape-rendering="crispEdges" width="540" height="198" transform="translate(0,0)" fill="#E5ECF6" stroke="#444" stroke-width="0"/><g class="rangeslider-rangeplot xy" clip-path="url('#rangesliderx-255f41')"><g class="layer-subplot"><g class="shapelayer"/><g class="imagelayer"/></g><g class="gridlayer"><g class="x"/><g class="y"/></g><g class="zerolinelayer"/><path class="xlines-below"/><path class="ylines-below"/><g class="overlines-below"/><g class="xaxislayer-below"/><g class="yaxislayer-below"/><g class="overaxes-below"/><g class="plot"><g class="scatterlayer mlayer rangeplot"><g class="trace scatter tracefdd07c" style="stroke-miterlimit: 2; opacity: 1;"><g class="fills"/><g class="errorbars"/><g class="lines"/><g class="points"><path class="point" transform="translate(497.19,12.79)" d="M14.14,0A14.14,14.14 0 1,1 0,-14.14A14.14,14.14 0 0,1 14.14,0Z" style="opacity: 0.7; stroke-width: 1px; fill: rgb(99, 110, 250); fill-opacity: 1; stroke: rgb(255, 255, 255); stroke-opacity: 1;"/></g><g class="text"><g class="textpoint" transform="translate(0,-21.67766952966369)"><text x="497.19" y="12.79" text-anchor="middle" style="font-family: 'Open Sans', verdana, arial, sans-serif; font-size: 12px; fill: rgb(42, 63, 95); fill-opacity: 1; white-space: pre;">US</text></g></g></g><g class="trace scatter trace1143e5" style="stroke-miterlimit: 2; opacity: 1;"><g class="fills"/><g class="errorbars"/><g class="lines"/><g class="points"><path class="point" transform="translate(430.98,25.47)" d="M10.84,0A10.84,10.84 0 1,1 0,-10.84A10.84,10.84 0 0,1 10.84,0Z" style="opacity: 0.7; stroke-width: 1px; fill: rgb(239, 85, 59); fill-opacity: 1; stroke: rgb(255, 255, 255); stroke-opacity: 1;"/></g><g class="text"><g class="textpoint" transform="translate(0,-17.547045971707433)"><text x="430.98" y="25.47" text-anchor="middle" style="font-family: 'Open Sans', verdana, arial, sans-serif; font-size: 12px; fill: rgb(42, 63, 95); fill-opacity: 1; white-space: pre;">Brazil</text></g></g></g><g class="trace scatter trace586222" style="stroke-miterlimit: 2; opacity: 1;"><g class="fills"/><g class="errorbars"/><g class="lines"/><g class="points"><path class="point" transform="translate(203.49,42.81)" d="M4.34,0A4.34,4.34 0 1,1 0,-4.34A4.34,4.34 0 0,1 4.34,0Z" style="opacity: 0.7; stroke-width: 1px; fill: rgb(0, 204, 150); fill-opacity: 1; stroke: rgb(255, 255, 255); stroke-opacity: 1;"/></g><g class="text"><g class="textpoint" transform="translate(0,-9.428803197765083)"><text x="203.49" y="42.81" text-anchor="middle" style="font-family: 'Open Sans', verdana, arial, sans-serif; font-size: 12px; fill: rgb(42, 63, 95); fill-opacity: 1; white-space: pre;">Mexico</text></g></g></g><g class="trace scatter trace4507c8" style="stroke-miterlimit: 2; opacity: 1;"><g class="fills"/><g class="errorbars"/><g class="lines"/><g class="points"><path class="point" transform="translate(156.04,44.21)" d="M3.59,0A3.59,3.59 0 1,1 0,-3.59A3.59,3.59 0 0,1 3.59,0Z" style="opacity: 0.7; stroke-width: 1px; fill: rgb(171, 99, 250); fill-opacity: 1; stroke: rgb(255, 255, 255); stroke-opacity: 1;"/></g><g class="text"><g class="textpoint" transform="translate(0,-8.486078281290595)"><text x="156.04" y="44.21" text-anchor="middle" style="font-family: 'Open Sans', verdana, arial, sans-serif; font-size: 12px; fill: rgb(42, 63, 95); fill-opacity: 1; white-space: pre;">United Kingdom</text></g></g></g><g class="trace scatter trace35d3a7" style="stroke-miterlimit: 2; opacity: 1;"><g class="fills"/><g class="errorbars"/><g class="lines"/><g class="points"><path class="point" transform="translate(383.2,48.1)" d="M8.94,0A8.94,8.94 0 1,1 0,-8.94A8.94,8.94 0 0,1 8.94,0Z" style="opacity: 0.7; stroke-width: 1px; fill: rgb(255, 161, 90); fill-opacity: 1; stroke: rgb(255, 255, 255); stroke-opacity: 1;"/></g><g class="text"><g class="textpoint" transform="translate(0,-15.179818478586695)"><text x="383.2" y="48.1" text-anchor="middle" style="font-family: 'Open Sans', verdana, arial, sans-serif; font-size: 12px; fill: rgb(42, 63, 95); fill-opacity: 1; white-space: pre;">India</text></g></g></g><g class="trace scatter trace5bf3e6" style="stroke-miterlimit: 2; opacity: 1;"><g class="fills"/><g class="errorbars"/><g class="lines"/><g class="points"><path class="point" transform="translate(129.6,51.28)" d="M3.23,0A3.23,3.23 0 1,1 0,-3.23A3.23,3.23 0 0,1 3.23,0Z" style="opacity: 0.7; stroke-width: 1px; fill: rgb(25, 211, 243); fill-opacity: 1; stroke: rgb(255, 255, 255); stroke-opacity: 1;"/></g><g class="text"><g class="textpoint" transform="translate(0,-8.033750814266671)"><text x="129.6" y="51.28" text-anchor="middle" style="font-family: 'Open Sans', verdana, arial, sans-serif; font-size: 12px; fill: rgb(42, 63, 95); fill-opacity: 1; white-space: pre;">Italy</text></g></g></g><g class="trace scatter tracec691ab" style="stroke-miterlimit: 2; opacity: 1;"><g class="fills"/><g class="errorbars"/><g class="lines"/><g class="points"><path class="point" transform="translate(119.25,55.12)" d="M3.1,0A3.1,3.1 0 1,1 0,-3.1A3.1,3.1 0 0,1 3.1,0Z" style="opacity: 0.7; stroke-width: 1px; fill: rgb(255, 102, 146); fill-opacity: 1; stroke: rgb(255, 255, 255); stroke-opacity: 1;"/></g><g class="text"><g class="textpoint" transform="translate(0,-7.869296189793593)"><text x="119.25" y="55.12" text-anchor="middle" style="font-family: 'Open Sans', verdana, arial, sans-serif; font-size: 12px; fill: rgb(42, 63, 95); fill-opacity: 1; white-space: pre;">France</text></g></g></g><g class="trace scatter trace1493bb" style="stroke-miterlimit: 2; opacity: 1;"><g class="fills"/><g class="errorbars"/><g class="lines"/><g class="points"><path class="point" transform="translate(154.23,56.7)" d="M3.56,0A3.56,3.56 0 1,1 0,-3.56A3.56,3.56 0 0,1 3.56,0Z" style="opacity: 0.7; stroke-width: 1px; fill: rgb(182, 232, 128); fill-opacity: 1; stroke: rgb(255, 255, 255); stroke-opacity: 1;"/></g><g class="text"><g class="textpoint" transform="translate(0,-8.453532607936872)"><text x="154.23" y="56.7" text-anchor="middle" style="font-family: 'Open Sans', verdana, arial, sans-serif; font-size: 12px; fill: rgb(42, 63, 95); fill-opacity: 1; white-space: pre;">Spain</text></g></g></g><g class="trace scatter tracef2ddb9" style="stroke-miterlimit: 2; opacity: 1;"><g class="fills"/><g class="errorbars"/><g class="lines"/><g class="points"><path class="point" transform="translate(200.68,65.81)" d="M4.29,0A4.29,4.29 0 1,1 0,-4.29A4.29,4.29 0 0,1 4.29,0Z" style="opacity: 0.7; stroke-width: 1px; fill: rgb(255, 151, 255); fill-opacity: 1; stroke: rgb(255, 255, 255); stroke-opacity: 1;"/></g><g class="text"><g class="textpoint" transform="translate(0,-9.367705820581286)"><text x="200.68" y="65.81" text-anchor="middle" style="font-family: 'Open Sans', verdana, arial, sans-serif; font-size: 12px; fill: rgb(42, 63, 95); fill-opacity: 1; white-space: pre;">Peru</text></g></g></g><g class="trace scatter trace15312b" style="stroke-miterlimit: 2; opacity: 1;"><g class="fills"/><g class="errorbars"/><g class="lines"/><g class="points"><path class="point" transform="translate(159.05,69.09)" d="M3.63,0A3.63,3.63 0 1,1 0,-3.63A3.63,3.63 0 0,1 3.63,0Z" style="opacity: 0.7; stroke-width: 1px; fill: rgb(254, 203, 82); fill-opacity: 1; stroke: rgb(255, 255, 255); stroke-opacity: 1;"/></g><g class="text"><g class="textpoint" transform="translate(0,-8.540716274626774)"><text x="159.05" y="69.09" text-anchor="middle" style="font-family: 'Open Sans', verdana, arial, sans-serif; font-size: 12px; fill: rgb(42, 63, 95); fill-opacity: 1; white-space: pre;">Iran</text></g></g></g><g class="trace scatter traced539f4" style="stroke-miterlimit: 2; opacity: 1;"><g class="fills"/><g class="errorbars"/><g class="lines"/><g class="points"><path class="point" transform="translate(284.03,74.41)" d="M6,0A6,6 0 1,1 0,-6A6,6 0 0,1 6,0Z" style="opacity: 0.7; stroke-width: 1px; fill: rgb(99, 110, 250); fill-opacity: 1; stroke: rgb(255, 255, 255); stroke-opacity: 1;"/></g><g class="text"><g class="textpoint" transform="translate(0,-11.504223919626728)"><text x="284.03" y="74.41" text-anchor="middle" style="font-family: 'Open Sans', verdana, arial, sans-serif; font-size: 12px; fill: rgb(42, 63, 95); fill-opacity: 1; white-space: pre;">Russia</text></g></g></g><g class="trace scatter trace7f02a1" style="stroke-miterlimit: 2; opacity: 1;"><g class="fills"/><g class="errorbars"/><g class="lines"/><g class="points"><path class="point" transform="translate(166.79,80.49)" d="M3.75,0A3.75,3.75 0 1,1 0,-3.75A3.75,3.75 0 0,1 3.75,0Z" style="opacity: 0.7; stroke-width: 1px; fill: rgb(239, 85, 59); fill-opacity: 1; stroke: rgb(255, 255, 255); stroke-opacity: 1;"/></g><g class="text"><g class="textpoint" transform="translate(0,-8.684092387307025)"><text x="166.79" y="80.49" text-anchor="middle" style="font-family: 'Open Sans', verdana, arial, sans-serif; font-size: 12px; fill: rgb(42, 63, 95); fill-opacity: 1; white-space: pre;">Colombia</text></g></g></g><g class="trace scatter trace033784" style="stroke-miterlimit: 2; opacity: 1;"><g class="fills"/><g class="errorbars"/><g class="lines"/><g class="points"><path class="point" transform="translate(176.77,84.33)" d="M3.9,0A3.9,3.9 0 1,1 0,-3.9A3.9,3.9 0 0,1 3.9,0Z" style="opacity: 0.7; stroke-width: 1px; fill: rgb(0, 204, 150); fill-opacity: 1; stroke: rgb(255, 255, 255); stroke-opacity: 1;"/></g><g class="text"><g class="textpoint" transform="translate(0,-8.875815247421375)"><text x="176.77" y="84.33" text-anchor="middle" style="font-family: 'Open Sans', verdana, arial, sans-serif; font-size: 12px; fill: rgb(42, 63, 95); fill-opacity: 1; white-space: pre;">Chile</text></g></g></g><g class="trace scatter trace366098" style="stroke-miterlimit: 2; opacity: 1;"><g class="fills"/><g class="errorbars"/><g class="lines"/><g class="points"><path class="point" transform="translate(110.37,85.92)" d="M2.99,0A2.99,2.99 0 1,1 0,-2.99A2.99,2.99 0 0,1 2.99,0Z" style="opacity: 0.7; stroke-width: 1px; fill: rgb(171, 99, 250); fill-opacity: 1; stroke: rgb(255, 255, 255); stroke-opacity: 1;"/></g><g class="text"><g class="textpoint" transform="translate(0,-7.73362798769307)"><text x="110.37" y="85.92" text-anchor="middle" style="font-family: 'Open Sans', verdana, arial, sans-serif; font-size: 12px; fill: rgb(42, 63, 95); fill-opacity: 1; white-space: pre;">Germany</text></g></g></g><g class="trace scatter tracef427e7" style="stroke-miterlimit: 2; opacity: 1;"><g class="fills"/><g class="errorbars"/><g class="lines"/><g class="points"><path class="point" transform="translate(38.73,86.37)" d="M2.24,0A2.24,2.24 0 1,1 0,-2.24A2.24,2.24 0 0,1 2.24,0Z" style="opacity: 0.7; stroke-width: 1px; fill: rgb(255, 161, 90); fill-opacity: 1; stroke: rgb(255, 255, 255); stroke-opacity: 1;"/></g><g class="text"><g class="textpoint" transform="translate(0,-6.799405125390532)"><text x="38.73" y="86.37" text-anchor="middle" style="font-family: 'Open Sans', verdana, arial, sans-serif; font-size: 12px; fill: rgb(42, 63, 95); fill-opacity: 1; white-space: pre;">Canada</text></g></g></g><g class="trace scatter traceeeeba8" style="stroke-miterlimit: 2; opacity: 1;"><g class="fills"/><g class="errorbars"/><g class="lines"/><g class="points"><path class="point" transform="translate(221.8,86.71)" d="M4.67,0A4.67,4.67 0 1,1 0,-4.67A4.67,4.67 0 0,1 4.67,0Z" style="opacity: 0.7; stroke-width: 1px; fill: rgb(25, 211, 243); fill-opacity: 1; stroke: rgb(255, 255, 255); stroke-opacity: 1;"/></g><g class="text"><g class="textpoint" transform="translate(0,-9.843432365634868)"><text x="221.8" y="86.71" text-anchor="middle" style="font-family: 'Open Sans', verdana, arial, sans-serif; font-size: 12px; fill: rgb(42, 63, 95); fill-opacity: 1; white-space: pre;">South Africa</text></g></g></g><g class="trace scatter tracedcb417" style="stroke-miterlimit: 2; opacity: 1;"><g class="fills"/><g class="errorbars"/><g class="lines"/><g class="points"><path class="point" transform="translate(144.69,96.83)" d="M3.43,0A3.43,3.43 0 1,1 0,-3.43A3.43,3.43 0 0,1 3.43,0Z" style="opacity: 0.7; stroke-width: 1px; fill: rgb(255, 102, 146); fill-opacity: 1; stroke: rgb(255, 255, 255); stroke-opacity: 1;"/></g><g class="text"><g class="textpoint" transform="translate(0,-8.28600724246317)"><text x="144.69" y="96.83" text-anchor="middle" style="font-family: 'Open Sans', verdana, arial, sans-serif; font-size: 12px; fill: rgb(42, 63, 95); fill-opacity: 1; white-space: pre;">Pakistan</text></g></g></g><g class="trace scatter trace533500" style="stroke-miterlimit: 2; opacity: 1;"><g class="fills"/><g class="errorbars"/><g class="lines"/><g class="points"><path class="point" transform="translate(122.66,97.85)" d="M3.14,0A3.14,3.14 0 1,1 0,-3.14A3.14,3.14 0 0,1 3.14,0Z" style="opacity: 0.7; stroke-width: 1px; fill: rgb(182, 232, 128); fill-opacity: 1; stroke: rgb(255, 255, 255); stroke-opacity: 1;"/></g><g class="text"><g class="textpoint" transform="translate(0,-7.9227406688636055)"><text x="122.66" y="97.85" text-anchor="middle" style="font-family: 'Open Sans', verdana, arial, sans-serif; font-size: 12px; fill: rgb(42, 63, 95); fill-opacity: 1; white-space: pre;">Turkey</text></g></g></g><g class="trace scatter tracee4e7d6" style="stroke-miterlimit: 2; opacity: 1;"><g class="fills"/><g class="errorbars"/><g class="lines"/><g class="points"><path class="point" transform="translate(33.86,99.59)" d="M2.2,0A2.2,2.2 0 1,1 0,-2.2A2.2,2.2 0 0,1 2.2,0Z" style="opacity: 0.7; stroke-width: 1px; fill: rgb(255, 151, 255); fill-opacity: 1; stroke: rgb(255, 255, 255); stroke-opacity: 1;"/></g><g class="text"><g class="textpoint" transform="translate(0,-6.745182977181795)"><text x="33.86" y="99.59" text-anchor="middle" style="font-family: 'Open Sans', verdana, arial, sans-serif; font-size: 12px; fill: rgb(42, 63, 95); fill-opacity: 1; white-space: pre;">Indonesia</text></g></g></g><g class="trace scatter trace7cc28c" style="stroke-miterlimit: 2; opacity: 1;"><g class="fills"/><g class="errorbars"/><g class="lines"/><g class="points"><path class="point" transform="translate(53.49,101.43)" d="M2.38,0A2.38,2.38 0 1,1 0,-2.38A2.38,2.38 0 0,1 2.38,0Z" style="opacity: 0.7; stroke-width: 1px; fill: rgb(254, 203, 82); fill-opacity: 1; stroke: rgb(255, 255, 255); stroke-opacity: 1;"/></g><g class="text"><g class="textpoint" transform="translate(0,-6.970543539219721)"><text x="53.49" y="101.43" text-anchor="middle" style="font-family: 'Open Sans', verdana, arial, sans-serif; font-size: 12px; fill: rgb(42, 63, 95); fill-opacity: 1; white-space: pre;">Iraq</text></g></g></g><g class="trace scatter trace0e971d" style="stroke-miterlimit: 2; opacity: 1;"><g class="fills"/><g class="errorbars"/><g class="lines"/><g class="points"><path class="point" transform="translate(110.78,107.4)" d="M2.99,0A2.99,2.99 0 1,1 0,-2.99A2.99,2.99 0 0,1 2.99,0Z" style="opacity: 0.7; stroke-width: 1px; fill: rgb(99, 110, 250); fill-opacity: 1; stroke: rgb(255, 255, 255); stroke-opacity: 1;"/></g><g class="text"><g class="textpoint" transform="translate(0,-7.739824273934017)"><text x="110.78" y="107.4" text-anchor="middle" style="font-family: 'Open Sans', verdana, arial, sans-serif; font-size: 12px; fill: rgb(42, 63, 95); fill-opacity: 1; white-space: pre;">Argentina</text></g></g></g><g class="trace scatter trace5614a1" style="stroke-miterlimit: 2; opacity: 1;"><g class="fills"/><g class="errorbars"/><g class="lines"/><g class="points"><path class="point" transform="translate(127.38,112.74)" d="M3.2,0A3.2,3.2 0 1,1 0,-3.2A3.2,3.2 0 0,1 3.2,0Z" style="opacity: 0.7; stroke-width: 1px; fill: rgb(239, 85, 59); fill-opacity: 1; stroke: rgb(255, 255, 255); stroke-opacity: 1;"/></g><g class="text"><g class="textpoint" transform="translate(0,-7.997876489332096)"><text x="127.38" y="112.74" text-anchor="middle" style="font-family: 'Open Sans', verdana, arial, sans-serif; font-size: 12px; fill: rgb(42, 63, 95); fill-opacity: 1; white-space: pre;">Bangladesh</text></g></g></g><g class="trace scatter tracef78bcf" style="stroke-miterlimit: 2; opacity: 1;"><g class="fills"/><g class="errorbars"/><g class="lines"/><g class="points"><path class="point" transform="translate(145.13,114.81)" d="M3.43,0A3.43,3.43 0 1,1 0,-3.43A3.43,3.43 0 0,1 3.43,0Z" style="opacity: 0.7; stroke-width: 1px; fill: rgb(0, 204, 150); fill-opacity: 1; stroke: rgb(255, 255, 255); stroke-opacity: 1;"/></g><g class="text"><g class="textpoint" transform="translate(0,-8.293603310202311)"><text x="145.13" y="114.81" text-anchor="middle" style="font-family: 'Open Sans', verdana, arial, sans-serif; font-size: 12px; fill: rgb(42, 63, 95); fill-opacity: 1; white-space: pre;">Saudi Arabia</text></g></g></g><g class="trace scatter tracec67738" style="stroke-miterlimit: 2; opacity: 1;"><g class="fills"/><g class="errorbars"/><g class="lines"/><g class="points"><path class="point" transform="translate(31.17,123.67)" d="M2.17,0A2.17,2.17 0 1,1 0,-2.17A2.17,2.17 0 0,1 2.17,0Z" style="opacity: 0.7; stroke-width: 1px; fill: rgb(171, 99, 250); fill-opacity: 1; stroke: rgb(255, 255, 255); stroke-opacity: 1;"/></g><g class="text"><g class="textpoint" transform="translate(0,-6.715641000095452)"><text x="31.17" y="123.67" text-anchor="middle" style="font-family: 'Open Sans', verdana, arial, sans-serif; font-size: 12px; fill: rgb(42, 63, 95); fill-opacity: 1; white-space: pre;">Philippines</text></g></g></g><g class="trace scatter trace5bb4d1" style="stroke-miterlimit: 2; opacity: 1;"><g class="fills"/><g class="errorbars"/><g class="lines"/><g class="points"><path class="point" transform="translate(30,187.55)" d="M2.16,0A2.16,2.16 0 1,1 0,-2.16A2.16,2.16 0 0,1 2.16,0Z" style="opacity: 0.7; stroke-width: 1px; fill: rgb(255, 161, 90); fill-opacity: 1; stroke: rgb(255, 255, 255); stroke-opacity: 1;"/></g><g class="text"><g class="textpoint" transform="translate(0,-6.702888234953646)"><text x="30" y="187.55" text-anchor="middle" style="font-family: 'Open Sans', verdana, arial, sans-serif; font-size: 12px; fill: rgb(42, 63, 95); fill-opacity: 1; white-space: pre;">Qatar</text></g></g></g></g></g><g class="overplot"/><path class="xlines-above crisp" style="fill: none;"/><path class="ylines-above crisp" style="fill: none;"/><g class="overlines-above"/><g class="xaxislayer-above"/><g class="yaxislayer-above"/><g class="overaxes-above"/></g><rect class="rangeslider-mask-min" x="0" y="0" shape-rendering="crispEdges" height="198" width="0" style="fill: rgb(0, 0, 0); fill-opacity: 0.4;"/><rect class="rangeslider-mask-max" y="0" shape-rendering="crispEdges" height="198" x="540" width="0" style="fill: rgb(0, 0, 0); fill-opacity: 0.4;"/><g class="rangeslider-grabber-min" transform="translate(-2.5,0.5)"><rect class="rangeslider-handle-min" x="0" width="4" rx="1" fill="#fff" stroke="#444" stroke-width="1" shape-rendering="crispEdges" y="50" height="99"/></g><g class="rangeslider-grabber-max" transform="translate(538.5,0.5)"><rect class="rangeslider-handle-max" x="0" width="4" rx="1" fill="#fff" stroke="#444" stroke-width="1" shape-rendering="crispEdges" y="50" height="99"/></g></g><g class="g-ytitle"><text class="ytitle" transform="rotate(-90,21.278125000000003,641.5)" x="21.278125000000003" y="641.5" text-anchor="middle" style="font-family: 'Open Sans', verdana, arial, sans-serif; font-size: 14px; fill: rgb(42, 63, 95); opacity: 1; font-weight: normal; white-space: pre;">Deaths</text></g><g class="g-xtitle"><text class="xtitle" x="350" y="1451" text-anchor="middle" style="font-family: 'Open Sans', verdana, arial, sans-serif; font-size: 14px; fill: rgb(42, 63, 95); opacity: 1; font-weight: normal; white-space: pre;">Confirmed</text></g></g></svg>