<svg class="main-svg" xmlns="http://www.w3.org/2000/svg" xmlns:xlink="http://www.w3.org/1999/xlink" width="700" height="1500" style="" viewBox="0 0 700 1500"><rect x="0" y="0" width="700" height="1500" style="fill: rgb(255, 255, 255); fill-opacity: 1;"/><defs id="defs-378367"><g class="clips"><clipPath id="clip378367xyplot" class="plotclip"><rect width="540" height="1083"/></clipPath><clipPath class="axesclip" id="clip378367x"><rect x="80" y="0" width="540" height="1500"/></clipPath><clipPath class="axesclip" id="clip378367y"><rect x="0" y="100" width="700" height="1083"/></clipPath><clipPath class="axesclip" id="clip378367xy"><rect x="80" y="100" width="540" height="1083"/></clipPath></g><g class="gradients"/></defs><g class="bglayer"><rect class="bg" x="80" y="100" width="540" height="1083" style="fill: rgb(229, 236, 246); fill-opacity: 1; stroke-width: 0;"/></g><g class="layer-below"><g class="imagelayer"/><g class="shapelayer"/></g><g class="cartesianlayer"><g class="subplot xy"><g class="layer-subplot"><g class="shapelayer"/><g class="imagelayer"/></g><g class="gridlayer"><g class="x"><path class="xgrid crisp" transform="translate(100.74,0)" d="M0,100v1083" style="stroke: rgb(255, 255, 255); stroke-opacity: 1; stroke-width: 1px;"/><path class="xgrid crisp" transform="translate(154.57999999999998,0)" d="M0,100v1083" style="stroke: rgb(255, 255, 255); stroke-opacity: 1; stroke-width: 1px;"/><path class="xgrid crisp" transform="translate(192.78,0)" d="M0,100v1083" style="stroke: rgb(255, 255, 255); stroke-opacity: 1; stroke-width: 1px;"/><path class="xgrid crisp" transform="translate(222.41,0)" d="M0,100v1083" style="stroke: rgb(255, 255, 255); stroke-opacity: 1; stroke-width: 1px;"/><path class="xgrid crisp" transform="translate(246.62,0)" d="M0,100v1083" style="stroke: rgb(255, 255, 255); stroke-opacity: 1; stroke-width: 1px;"/><path class="xgrid crisp" transform="translate(267.09000000000003,0)" d="M0,100v1083" style="stroke: rgb(255, 255, 255); stroke-opacity: 1; stroke-width: 1px;"/><path class="xgrid crisp" transform="translate(284.82,0)" d="M0,100v1083" style="stroke: rgb(255, 255, 255); stroke-opacity: 1; stroke-width: 1px;"/><path class="xgrid crisp" transform="translate(300.46000000000004,0)" d="M0,100v1083" style="stroke: rgb(255, 255, 255); stroke-opacity: 1; stroke-width: 1px;"/><path class="xgrid crisp" transform="translate(314.45,0)" d="M0,100v1083" style="stroke: rgb(255, 255, 255); stroke-opacity: 1; stroke-width: 1px;"/><path class="xgrid crisp" transform="translate(406.49,0)" d="M0,100v1083" style="stroke: rgb(255, 255, 255); stroke-opacity: 1; stroke-width: 1px;"/><path class="xgrid crisp" transform="translate(460.33,0)" d="M0,100v1083" style="stroke: rgb(255, 255, 255); stroke-opacity: 1; stroke-width: 1px;"/><path class="xgrid crisp" transform="translate(498.53,0)" d="M0,100v1083" style="stroke: rgb(255, 255, 255); stroke-opacity: 1; stroke-width: 1px;"/><path class="xgrid crisp" transform="translate(528.1600000000001,0)" d="M0,100v1083" style="stroke: rgb(255, 255, 255); stroke-opacity: 1; stroke-width: 1px;"/><path class="xgrid crisp" transform="translate(552.37,0)" d="M0,100v1083" style="stroke: rgb(255, 255, 255); stroke-opacity: 1; stroke-width: 1px;"/><path class="xgrid crisp" transform="translate(572.8399999999999,0)" d="M0,100v1083" style="stroke: rgb(255, 255, 255); stroke-opacity: 1; stroke-width: 1px;"/><path class="xgrid crisp" transform="translate(590.5699999999999,0)" d="M0,100v1083" style="stroke: rgb(255, 255, 255); stroke-opacity: 1; stroke-width: 1px;"/><path class="xgrid crisp" transform="translate(606.21,0)" d="M0,100v1083" style="stroke: rgb(255, 255, 255); stroke-opacity: 1; stroke-width: 1px;"/></g><g class="y"><path class="ygrid crisp" transform="translate(0,1139.06)" d="M80,0h540" style="stroke: rgb(255, 255, 255); stroke-opacity: 1; stroke-width: 1px;"/><path class="ygrid crisp" transform="translate(0,1084.26)" d="M80,0h540" style="stroke: rgb(255, 255, 255); stroke-opacity: 1; stroke-width: 1px;"/><path class="ygrid crisp" transform="translate(0,1039.48)" d="M80,0h540" style="stroke: rgb(255, 255, 255); stroke-opacity: 1; stroke-width: 1px;"/><path class="ygrid crisp" transform="translate(0,1001.62)" d="M80,0h540" style="stroke: rgb(255, 255, 255); stroke-opacity: 1; stroke-width: 1px;"/><path class="ygrid crisp" transform="translate(0,968.83)" d="M80,0h540" style="stroke: rgb(255, 255, 255); stroke-opacity: 1; stroke-width: 1px;"/><path class="ygrid crisp" transform="translate(0,939.91)" d="M80,0h540" style="stroke: rgb(255, 255, 255); stroke-opacity: 1; stroke-width: 1px;"/><path class="ygrid crisp" transform="translate(0,914.03)" d="M80,0h540" style="stroke: rgb(255, 255, 255); stroke-opacity: 1; stroke-width: 1px;"/><path class="ygrid crisp" transform="translate(0,743.81)" d="M80,0h540" style="stroke: rgb(255, 255, 255); stroke-opacity: 1; stroke-width: 1px;"/><path class="ygrid crisp" transform="translate(0,644.23)" d="M80,0h540" style="stroke: rgb(255, 255, 255); stroke-opacity: 1; stroke-width: 1px;"/><path class="ygrid crisp" transform="translate(0,573.5799999999999)" d="M80,0h540" style="stroke: rgb(255, 255, 255); stroke-opacity: 1; stroke-width: 1px;"/><path class="ygrid crisp" transform="translate(0,518.78)" d="M80,0h540" style="stroke: rgb(255, 255, 255); stroke-opacity: 1; stroke-width: 1px;"/><path class="ygrid crisp" transform="translate(0,474)" d="M80,0h540" style="stroke: rgb(255, 255, 255); stroke-opacity: 1; stroke-width: 1px;"/><path class="ygrid crisp" transform="translate(0,436.15)" d="M80,0h540" style="stroke: rgb(255, 255, 255); stroke-opacity: 1; stroke-width: 1px;"/><path class="ygrid crisp" transform="translate(0,403.35)" d="M80,0h540" style="stroke: rgb(255, 255, 255); stroke-opacity: 1; stroke-width: 1px;"/><path class="ygrid crisp" transform="translate(0,374.43)" d="M80,0h540" style="stroke: rgb(255, 255, 255); stroke-opacity: 1; stroke-width: 1px;"/><path class="ygrid crisp" transform="translate(0,348.55)" d="M80,0h540" style="stroke: rgb(255, 255, 255); stroke-opacity: 1; stroke-width: 1px;"/><path class="ygrid crisp" transform="translate(0,178.32999999999998)" d="M80,0h540" style="stroke: rgb(255, 255, 255); stroke-opacity: 1; stroke-width: 1px;"/></g></g><g class="zerolinelayer"/><path class="xlines-below"/><path class="ylines-below"/><g class="overlines-below"/><g class="xaxislayer-below"/><g class="yaxislayer-below"/><g class="overaxes-below"/><g class="plot" transform="translate(80, 100)" clip-path="url('#clip378367xyplot')"><g class="scatterlayer mlayer"><g class="trace scatter trace640e51" style="stroke-miterlimit: 2; opacity: 1;"><g class="fills"/><g class="errorbars"/><g class="lines"/><g class="points"><path class="point" transform="translate(497.19,69.96)" d="M14.14,0A14.14,14.14 0 1,1 0,-14.14A14.14,14.14 0 0,1 14.14,0Z" style="opacity: 0.7; stroke-width: 1px; fill: rgb(99, 110, 250); fill-opacity: 1; stroke: rgb(255, 255, 255); stroke-opacity: 1;"/></g><g class="text"><g class="textpoint" transform="translate(0,-21.67766952966369)"><text x="497.19" y="69.96" text-anchor="middle" style="font-family: 'Open Sans', verdana, arial, sans-serif; font-size: 12px; fill: rgb(42, 63, 95); fill-opacity: 1; white-space: pre;">US</text></g></g></g><g class="trace scatter trace9aed39" style="stroke-miterlimit: 2; opacity: 1;"><g class="fills"/><g class="errorbars"/><g class="lines"/><g class="points"><path class="point" transform="translate(443.04,159.09)" d="M11.53,0A11.53,11.53 0 1,1 0,-11.53A11.53,11.53 0 0,1 11.53,0Z" style="opacity: 0.7; stroke-width: 1px; fill: rgb(239, 85, 59); fill-opacity: 1; stroke: rgb(255, 255, 255); stroke-opacity: 1;"/></g><g class="text"><g class="textpoint" transform="translate(0,-18.41714485458978)"><text x="443.04" y="159.09" text-anchor="middle" style="font-family: 'Open Sans', verdana, arial, sans-serif; font-size: 12px; fill: rgb(42, 63, 95); fill-opacity: 1; white-space: pre;">Brazil</text></g></g></g><g class="trace scatter trace99c6e0" style="stroke-miterlimit: 2; opacity: 1;"><g class="fills"/><g class="errorbars"/><g class="lines"/><g class="points"><path class="point" transform="translate(477.28,254.78)" d="M13.12,0A13.12,13.12 0 1,1 0,-13.12A13.12,13.12 0 0,1 13.12,0Z" style="opacity: 0.7; stroke-width: 1px; fill: rgb(0, 204, 150); fill-opacity: 1; stroke: rgb(255, 255, 255); stroke-opacity: 1;"/></g><g class="text"><g class="textpoint" transform="translate(0,-20.40064051506055)"><text x="477.28" y="254.78" text-anchor="middle" style="font-family: 'Open Sans', verdana, arial, sans-serif; font-size: 12px; fill: rgb(42, 63, 95); fill-opacity: 1; white-space: pre;">India</text></g></g></g><g class="trace scatter trace32c83d" style="stroke-miterlimit: 2; opacity: 1;"><g class="fills"/><g class="errorbars"/><g class="lines"/><g class="points"><path class="point" transform="translate(195.04,310.69)" d="M4.53,0A4.53,4.53 0 1,1 0,-4.53A4.53,4.53 0 0,1 4.53,0Z" style="opacity: 0.7; stroke-width: 1px; fill: rgb(171, 99, 250); fill-opacity: 1; stroke: rgb(255, 255, 255); stroke-opacity: 1;"/></g><g class="text"><g class="textpoint" transform="translate(0,-9.66659328562692)"><text x="195.04" y="310.69" text-anchor="middle" style="font-family: 'Open Sans', verdana, arial, sans-serif; font-size: 12px; fill: rgb(42, 63, 95); fill-opacity: 1; white-space: pre;">Mexico</text></g></g></g><g class="trace scatter tracedd2ba6" style="stroke-miterlimit: 2; opacity: 1;"><g class="fills"/><g class="errorbars"/><g class="lines"/><g class="points"><path class="point" transform="translate(130.13,460.25)" d="M3.55,0A3.55,3.55 0 1,1 0,-3.55A3.55,3.55 0 0,1 3.55,0Z" style="opacity: 0.7; stroke-width: 1px; fill: rgb(255, 161, 90); fill-opacity: 1; stroke: rgb(255, 255, 255); stroke-opacity: 1;"/></g><g class="text"><g class="textpoint" transform="translate(0,-8.437859938442369)"><text x="130.13" y="460.25" text-anchor="middle" style="font-family: 'Open Sans', verdana, arial, sans-serif; font-size: 12px; fill: rgb(42, 63, 95); fill-opacity: 1; white-space: pre;">United Kingdom</text></g></g></g><g class="trace scatter trace3fe36b" style="stroke-miterlimit: 2; opacity: 1;"><g class="fills"/><g class="errorbars"/><g class="lines"/><g class="points"><path class="point" transform="translate(81,500.18)" d="M2.95,0A2.95,2.95 0 1,1 0,-2.95A2.95,2.95 0 0,1 2.95,0Z" style="opacity: 0.7; stroke-width: 1px; fill: rgb(25, 211, 243); fill-opacity: 1; stroke: rgb(255, 255, 255); stroke-opacity: 1;"/></g><g class="text"><g class="textpoint" transform="translate(0,-7.688280586027848)"><text x="81" y="500.18" text-anchor="middle" style="font-family: 'Open Sans', verdana, arial, sans-serif; font-size: 12px; fill: rgb(42, 63, 95); fill-opacity: 1; white-space: pre;">Italy</text></g></g></g><g class="trace scatter trace3b39b1" style="stroke-miterlimit: 2; opacity: 1;"><g class="fills"/><g class="errorbars"/><g class="lines"/><g class="points"><path class="point" transform="translate(206.76,525.36)" d="M4.74,0A4.74,4.74 0 1,1 0,-4.74A4.74,4.74 0 0,1 4.74,0Z" style="opacity: 0.7; stroke-width: 1px; fill: rgb(255, 102, 146); fill-opacity: 1; stroke: rgb(255, 255, 255); stroke-opacity: 1;"/></g><g class="text"><g class="textpoint" transform="translate(0,-9.922164697012434)"><text x="206.76" y="525.36" text-anchor="middle" style="font-family: 'Open Sans', verdana, arial, sans-serif; font-size: 12px; fill: rgb(42, 63, 95); fill-opacity: 1; white-space: pre;">Peru</text></g></g></g><g class="trace scatter trace5aef25" style="stroke-miterlimit: 2; opacity: 1;"><g class="fills"/><g class="errorbars"/><g class="lines"/><g class="points"><path class="point" transform="translate(167.51,528.49)" d="M4.09,0A4.09,4.09 0 1,1 0,-4.09A4.09,4.09 0 0,1 4.09,0Z" style="opacity: 0.7; stroke-width: 1px; fill: rgb(182, 232, 128); fill-opacity: 1; stroke: rgb(255, 255, 255); stroke-opacity: 1;"/></g><g class="text"><g class="textpoint" transform="translate(0,-9.108508629916944)"><text x="167.51" y="528.49" text-anchor="middle" style="font-family: 'Open Sans', verdana, arial, sans-serif; font-size: 12px; fill: rgb(42, 63, 95); fill-opacity: 1; white-space: pre;">France</text></g></g></g><g class="trace scatter trace75b173" style="stroke-miterlimit: 2; opacity: 1;"><g class="fills"/><g class="errorbars"/><g class="lines"/><g class="points"><path class="point" transform="translate(130.53,577.78)" d="M3.56,0A3.56,3.56 0 1,1 0,-3.56A3.56,3.56 0 0,1 3.56,0Z" style="opacity: 0.7; stroke-width: 1px; fill: rgb(255, 151, 255); fill-opacity: 1; stroke: rgb(255, 255, 255); stroke-opacity: 1;"/></g><g class="text"><g class="textpoint" transform="translate(0,-8.444538290839475)"><text x="130.53" y="577.78" text-anchor="middle" style="font-family: 'Open Sans', verdana, arial, sans-serif; font-size: 12px; fill: rgb(42, 63, 95); fill-opacity: 1; white-space: pre;">Iran</text></g></g></g><g class="trace scatter trace7836e4" style="stroke-miterlimit: 2; opacity: 1;"><g class="fills"/><g class="errorbars"/><g class="lines"/><g class="points"><path class="point" transform="translate(209.66,579.39)" d="M4.79,0A4.79,4.79 0 1,1 0,-4.79A4.79,4.79 0 0,1 4.79,0Z" style="opacity: 0.7; stroke-width: 1px; fill: rgb(254, 203, 82); fill-opacity: 1; stroke: rgb(255, 255, 255); stroke-opacity: 1;"/></g><g class="text"><g class="textpoint" transform="translate(0,-9.98714210533224)"><text x="209.66" y="579.39" text-anchor="middle" style="font-family: 'Open Sans', verdana, arial, sans-serif; font-size: 12px; fill: rgb(42, 63, 95); fill-opacity: 1; white-space: pre;">Colombia</text></g></g></g><g class="trace scatter trace7e6bed" style="stroke-miterlimit: 2; opacity: 1;"><g class="fills"/><g class="errorbars"/><g class="lines"/><g class="points"><path class="point" transform="translate(196.43,684.63)" d="M4.56,0A4.56,4.56 0 1,1 0,-4.56A4.56,4.56 0 0,1 4.56,0Z" style="opacity: 0.7; stroke-width: 1px; fill: rgb(99, 110, 250); fill-opacity: 1; stroke: rgb(255, 255, 255); stroke-opacity: 1;"/></g><g class="text"><g class="textpoint" transform="translate(0,-9.696194039614502)"><text x="196.43" y="684.63" text-anchor="middle" style="font-family: 'Open Sans', verdana, arial, sans-serif; font-size: 12px; fill: rgb(42, 63, 95); fill-opacity: 1; white-space: pre;">Argentina</text></g></g></g><g class="trace scatter trace350687" style="stroke-miterlimit: 2; opacity: 1;"><g class="fills"/><g class="errorbars"/><g class="lines"/><g class="points"><path class="point" transform="translate(182.13,687.59)" d="M4.32,0A4.32,4.32 0 1,1 0,-4.32A4.32,4.32 0 0,1 4.32,0Z" style="opacity: 0.7; stroke-width: 1px; fill: rgb(239, 85, 59); fill-opacity: 1; stroke: rgb(255, 255, 255); stroke-opacity: 1;"/></g><g class="text"><g class="textpoint" transform="translate(0,-9.397636776101674)"><text x="182.13" y="687.59" text-anchor="middle" style="font-family: 'Open Sans', verdana, arial, sans-serif; font-size: 12px; fill: rgb(42, 63, 95); fill-opacity: 1; white-space: pre;">South Africa</text></g></g></g><g class="trace scatter traced78ca2" style="stroke-miterlimit: 2; opacity: 1;"><g class="fills"/><g class="errorbars"/><g class="lines"/><g class="points"><path class="point" transform="translate(132.2,754.54)" d="M3.58,0A3.58,3.58 0 1,1 0,-3.58A3.58,3.58 0 0,1 3.58,0Z" style="opacity: 0.7; stroke-width: 1px; fill: rgb(0, 204, 150); fill-opacity: 1; stroke: rgb(255, 255, 255); stroke-opacity: 1;"/></g><g class="text"><g class="textpoint" transform="translate(0,-8.472504558096439)"><text x="132.2" y="754.54" text-anchor="middle" style="font-family: 'Open Sans', verdana, arial, sans-serif; font-size: 12px; fill: rgb(42, 63, 95); fill-opacity: 1; white-space: pre;">Chile</text></g></g></g><g class="trace scatter traceebb6f5" style="stroke-miterlimit: 2; opacity: 1;"><g class="fills"/><g class="errorbars"/><g class="lines"/><g class="points"><path class="point" transform="translate(68.7,796.5)" d="M2.82,0A2.82,2.82 0 1,1 0,-2.82A2.82,2.82 0 0,1 2.82,0Z" style="opacity: 0.7; stroke-width: 1px; fill: rgb(171, 99, 250); fill-opacity: 1; stroke: rgb(255, 255, 255); stroke-opacity: 1;"/></g><g class="text"><g class="textpoint" transform="translate(0,-7.521368853249123)"><text x="68.7" y="796.5" text-anchor="middle" style="font-family: 'Open Sans', verdana, arial, sans-serif; font-size: 12px; fill: rgb(42, 63, 95); fill-opacity: 1; white-space: pre;">Indonesia</text></g></g></g><g class="trace scatter trace0d731c" style="stroke-miterlimit: 2; opacity: 1;"><g class="fills"/><g class="errorbars"/><g class="lines"/><g class="points"><path class="point" transform="translate(99.88,835.02)" d="M3.17,0A3.17,3.17 0 1,1 0,-3.17A3.17,3.17 0 0,1 3.17,0Z" style="opacity: 0.7; stroke-width: 1px; fill: rgb(255, 161, 90); fill-opacity: 1; stroke: rgb(255, 255, 255); stroke-opacity: 1;"/></g><g class="text"><g class="textpoint" transform="translate(0,-7.960102835385909)"><text x="99.88" y="835.02" text-anchor="middle" style="font-family: 'Open Sans', verdana, arial, sans-serif; font-size: 12px; fill: rgb(42, 63, 95); fill-opacity: 1; white-space: pre;">Iraq</text></g></g></g><g class="trace scatter trace7818e7" style="stroke-miterlimit: 2; opacity: 1;"><g class="fills"/><g class="errorbars"/><g class="lines"/><g class="points"><path class="point" transform="translate(82.59,862.92)" d="M2.97,0A2.97,2.97 0 1,1 0,-2.97A2.97,2.97 0 0,1 2.97,0Z" style="opacity: 0.7; stroke-width: 1px; fill: rgb(25, 211, 243); fill-opacity: 1; stroke: rgb(255, 255, 255); stroke-opacity: 1;"/></g><g class="text"><g class="textpoint" transform="translate(0,-7.7104820724094525)"><text x="82.59" y="862.92" text-anchor="middle" style="font-family: 'Open Sans', verdana, arial, sans-serif; font-size: 12px; fill: rgb(42, 63, 95); fill-opacity: 1; white-space: pre;">Turkey</text></g></g></g><g class="trace scatter trace383de5" style="stroke-miterlimit: 2; opacity: 1;"><g class="fills"/><g class="errorbars"/><g class="lines"/><g class="points"><path class="point" transform="translate(80.13,920.43)" d="M2.94,0A2.94,2.94 0 1,1 0,-2.94A2.94,2.94 0 0,1 2.94,0Z" style="opacity: 0.7; stroke-width: 1px; fill: rgb(255, 102, 146); fill-opacity: 1; stroke: rgb(255, 255, 255); stroke-opacity: 1;"/></g><g class="text"><g class="textpoint" transform="translate(0,-7.676224751464883)"><text x="80.13" y="920.43" text-anchor="middle" style="font-family: 'Open Sans', verdana, arial, sans-serif; font-size: 12px; fill: rgb(42, 63, 95); fill-opacity: 1; white-space: pre;">Pakistan</text></g></g></g><g class="trace scatter tracee58438" style="stroke-miterlimit: 2; opacity: 1;"><g class="fills"/><g class="errorbars"/><g class="lines"/><g class="points"><path class="point" transform="translate(100.07,972.23)" d="M3.17,0A3.17,3.17 0 1,1 0,-3.17A3.17,3.17 0 0,1 3.17,0Z" style="opacity: 0.7; stroke-width: 1px; fill: rgb(182, 232, 128); fill-opacity: 1; stroke: rgb(255, 255, 255); stroke-opacity: 1;"/></g><g class="text"><g class="textpoint" transform="translate(0,-7.962818480623717)"><text x="100.07" y="972.23" text-anchor="middle" style="font-family: 'Open Sans', verdana, arial, sans-serif; font-size: 12px; fill: rgb(42, 63, 95); fill-opacity: 1; white-space: pre;">Bangladesh</text></g></g></g><g class="trace scatter trace464ea8" style="stroke-miterlimit: 2; opacity: 1;"><g class="fills"/><g class="errorbars"/><g class="lines"/><g class="points"><path class="point" transform="translate(89.08,995.92)" d="M3.04,0A3.04,3.04 0 1,1 0,-3.04A3.04,3.04 0 0,1 3.04,0Z" style="opacity: 0.7; stroke-width: 1px; fill: rgb(255, 151, 255); fill-opacity: 1; stroke: rgb(255, 255, 255); stroke-opacity: 1;"/></g><g class="text"><g class="textpoint" transform="translate(0,-7.802162993616358)"><text x="89.08" y="995.92" text-anchor="middle" style="font-family: 'Open Sans', verdana, arial, sans-serif; font-size: 12px; fill: rgb(42, 63, 95); fill-opacity: 1; white-space: pre;">Saudi Arabia</text></g></g></g><g class="trace scatter tracecdf0b1" style="stroke-miterlimit: 2; opacity: 1;"><g class="fills"/><g class="errorbars"/><g class="lines"/><g class="points"><path class="point" transform="translate(30,1025.85)" d="M2.44,0A2.44,2.44 0 1,1 0,-2.44A2.44,2.44 0 0,1 2.44,0Z" style="opacity: 0.7; stroke-width: 1px; fill: rgb(254, 203, 82); fill-opacity: 1; stroke: rgb(255, 255, 255); stroke-opacity: 1;"/></g><g class="text"><g class="textpoint" transform="translate(0,-7.043851721313189)"><text x="30" y="1025.85" text-anchor="middle" style="font-family: 'Open Sans', verdana, arial, sans-serif; font-size: 12px; fill: rgb(42, 63, 95); fill-opacity: 1; white-space: pre;">Ukraine</text></g></g></g><g class="trace scatter trace8983cc" style="stroke-miterlimit: 2; opacity: 1;"><g class="fills"/><g class="errorbars"/><g class="lines"/><g class="points"/><g class="text"/></g><g class="trace scatter trace5475b5" style="stroke-miterlimit: 2; opacity: 1;"><g class="fills"/><g class="errorbars"/><g class="lines"/><g class="points"/><g class="text"/></g><g class="trace scatter trace557f12" style="stroke-miterlimit: 2; opacity: 1;"><g class="fills"/><g class="errorbars"/><g class="lines"/><g class="points"/><g class="text"/></g><g class="trace scatter trace17f0c2" style="stroke-miterlimit: 2; opacity: 1;"><g class="fills"/><g class="errorbars"/><g class="lines"/><g class="points"/><g class="text"/></g><g class="trace scatter trace5e1377" style="stroke-miterlimit: 2; opacity: 1;"><g class="fills"/><g class="errorbars"/><g class="lines"/><g class="points"/><g class="text"/></g></g></g><g class="overplot"/><path class="xlines-above crisp" d="M79,1183.5H620" style="fill: none; stroke-width: 1px; stroke: rgb(255, 255, 255); stroke-opacity: 1;"/><path class="ylines-above crisp" d="M79.5,100V1183" style="fill: none; stroke-width: 1px; stroke: rgb(255, 255, 255); stroke-opacity: 1;"/><g class="overlines-above"/><g class="xaxislayer-above"><g class="xtick"><text text-anchor="middle" x="0" y="1195.4" transform="translate(100.74,0)" style="font-family: 'Open Sans', verdana, arial, sans-serif; font-size: 9px; fill: rgb(42, 63, 95); fill-opacity: 1; white-space: pre;">2</text></g><g class="xtick"><text text-anchor="middle" x="0" y="1195.4" transform="translate(154.57999999999998,0)" style="font-family: 'Open Sans', verdana, arial, sans-serif; font-size: 9px; fill: rgb(42, 63, 95); fill-opacity: 1; white-space: pre;">3</text></g><g class="xtick"><text text-anchor="middle" x="0" y="1195.4" transform="translate(192.78,0)" style="font-family: 'Open Sans', verdana, arial, sans-serif; font-size: 9px; fill: rgb(42, 63, 95); fill-opacity: 1; white-space: pre;">4</text></g><g class="xtick"><text text-anchor="middle" x="0" y="1195.4" transform="translate(222.41,0)" style="font-family: 'Open Sans', verdana, arial, sans-serif; font-size: 9px; fill: rgb(42, 63, 95); fill-opacity: 1; white-space: pre;">5</text></g><g class="xtick"><text text-anchor="middle" x="0" y="1195.4" transform="translate(246.62,0)" style="font-family: 'Open Sans', verdana, arial, sans-serif; font-size: 9px; fill: rgb(42, 63, 95); fill-opacity: 1; white-space: pre;">6</text></g><g class="xtick"><text text-anchor="middle" x="0" y="1195.4" transform="translate(267.09000000000003,0)" style="font-family: 'Open Sans', verdana, arial, sans-serif; font-size: 9px; fill: rgb(42, 63, 95); fill-opacity: 1; white-space: pre;">7</text></g><g class="xtick"><text text-anchor="middle" x="0" y="1195.4" transform="translate(284.82,0)" style="font-family: 'Open Sans', verdana, arial, sans-serif; font-size: 9px; fill: rgb(42, 63, 95); fill-opacity: 1; white-space: pre;">8</text></g><g class="xtick"><text text-anchor="middle" x="0" y="1195.4" transform="translate(300.46000000000004,0)" style="font-family: 'Open Sans', verdana, arial, sans-serif; font-size: 9px; fill: rgb(42, 63, 95); fill-opacity: 1; white-space: pre;">9</text></g><g class="xtick"><text text-anchor="middle" x="3" y="1204.4" transform="translate(314.45,0)" style="font-family: 'Open Sans', verdana, arial, sans-serif; font-size: 12px; fill: rgb(42, 63, 95); fill-opacity: 1; white-space: pre;">1M</text></g><g class="xtick"><text text-anchor="middle" x="0" y="1195.4" transform="translate(406.49,0)" style="font-family: 'Open Sans', verdana, arial, sans-serif; font-size: 9px; fill: rgb(42, 63, 95); fill-opacity: 1; white-space: pre;">2</text></g><g class="xtick"><text text-anchor="middle" x="0" y="1195.4" transform="translate(460.33,0)" style="font-family: 'Open Sans', verdana, arial, sans-serif; font-size: 9px; fill: rgb(42, 63, 95); fill-opacity: 1; white-space: pre;">3</text></g><g class="xtick"><text text-anchor="middle" x="0" y="1195.4" transform="translate(498.53,0)" style="font-family: 'Open Sans', verdana, arial, sans-serif; font-size: 9px; fill: rgb(42, 63, 95); fill-opacity: 1; white-space: pre;">4</text></g><g class="xtick"><text text-anchor="middle" x="0" y="1195.4" transform="translate(528.1600000000001,0)" style="font-family: 'Open Sans', verdana, arial, sans-serif; font-size: 9px; fill: rgb(42, 63, 95); fill-opacity: 1; white-space: pre;">5</text></g><g class="xtick"><text text-anchor="middle" x="0" y="1195.4" transform="translate(552.37,0)" style="font-family: 'Open Sans', verdana, arial, sans-serif; font-size: 9px; fill: rgb(42, 63, 95); fill-opacity: 1; white-space: pre;">6</text></g><g class="xtick"><text text-anchor="middle" x="0" y="1195.4" transform="translate(572.8399999999999,0)" style="font-family: 'Open Sans', verdana, arial, sans-serif; font-size: 9px; fill: rgb(42, 63, 95); fill-opacity: 1; white-space: pre;">7</text></g><g class="xtick"><text text-anchor="middle" x="0" y="1195.4" transform="translate(590.5699999999999,0)" style="font-family: 'Open Sans', verdana, arial, sans-serif; font-size: 9px; fill: rgb(42, 63, 95); fill-opacity: 1; white-space: pre;">8</text></g><g class="xtick"><text text-anchor="middle" x="0" y="1195.4" transform="translate(606.21,0)" style="font-family: 'Open Sans', verdana, arial, sans-serif; font-size: 9px; fill: rgb(42, 63, 95); fill-opacity: 1; white-space: pre;">9</text></g></g><g class="yaxislayer-above"><g class="ytick"><text text-anchor="end" x="76.6" y="3.15" transform="translate(0,1139.06)" style="font-family: 'Open Sans', verdana, arial, sans-serif; font-size: 9px; fill: rgb(42, 63, 95); fill-opacity: 1; white-space: pre;">4</text></g><g class="ytick"><text text-anchor="end" x="76.6" y="3.15" transform="translate(0,1084.26)" style="font-family: 'Open Sans', verdana, arial, sans-serif; font-size: 9px; fill: rgb(42, 63, 95); fill-opacity: 1; white-space: pre;">5</text></g><g class="ytick"><text text-anchor="end" x="76.6" y="3.15" transform="translate(0,1039.48)" style="font-family: 'Open Sans', verdana, arial, sans-serif; font-size: 9px; fill: rgb(42, 63, 95); fill-opacity: 1; white-space: pre;">6</text></g><g class="ytick"><text text-anchor="end" x="76.6" y="3.15" transform="translate(0,1001.62)" style="font-family: 'Open Sans', verdana, arial, sans-serif; font-size: 9px; fill: rgb(42, 63, 95); fill-opacity: 1; white-space: pre;">7</text></g><g class="ytick"><text text-anchor="end" x="76.6" y="3.15" transform="translate(0,968.83)" style="font-family: 'Open Sans', verdana, arial, sans-serif; font-size: 9px; fill: rgb(42, 63, 95); fill-opacity: 1; white-space: pre;">8</text></g><g class="ytick"><text text-anchor="end" x="76.6" y="3.15" transform="translate(0,939.91)" style="font-family: 'Open Sans', verdana, arial, sans-serif; font-size: 9px; fill: rgb(42, 63, 95); fill-opacity: 1; white-space: pre;">9</text></g><g class="ytick"><text text-anchor="end" x="73.6" y="2.1999999999999993" transform="translate(0,914.03)" style="font-family: 'Open Sans', verdana, arial, sans-serif; font-size: 12px; fill: rgb(42, 63, 95); fill-opacity: 1; white-space: pre;">10k</text></g><g class="ytick"><text text-anchor="end" x="76.6" y="3.15" transform="translate(0,743.81)" style="font-family: 'Open Sans', verdana, arial, sans-serif; font-size: 9px; fill: rgb(42, 63, 95); fill-opacity: 1; white-space: pre;">2</text></g><g class="ytick"><text text-anchor="end" x="76.6" y="3.15" transform="translate(0,644.23)" style="font-family: 'Open Sans', verdana, arial, sans-serif; font-size: 9px; fill: rgb(42, 63, 95); fill-opacity: 1; white-space: pre;">3</text></g><g class="ytick"><text text-anchor="end" x="76.6" y="3.15" transform="translate(0,573.5799999999999)" style="font-family: 'Open Sans', verdana, arial, sans-serif; font-size: 9px; fill: rgb(42, 63, 95); fill-opacity: 1; white-space: pre;">4</text></g><g class="ytick"><text text-anchor="end" x="76.6" y="3.15" transform="translate(0,518.78)" style="font-family: 'Open Sans', verdana, arial, sans-serif; font-size: 9px; fill: rgb(42, 63, 95); fill-opacity: 1; white-space: pre;">5</text></g><g class="ytick"><text text-anchor="end" x="76.6" y="3.15" transform="translate(0,474)" style="font-family: 'Open Sans', verdana, arial, sans-serif; font-size: 9px; fill: rgb(42, 63, 95); fill-opacity: 1; white-space: pre;">6</text></g><g class="ytick"><text text-anchor="end" x="76.6" y="3.15" transform="translate(0,436.15)" style="font-family: 'Open Sans', verdana, arial, sans-serif; font-size: 9px; fill: rgb(42, 63, 95); fill-opacity: 1; white-space: pre;">7</text></g><g class="ytick"><text text-anchor="end" x="76.6" y="3.15" transform="translate(0,403.35)" style="font-family: 'Open Sans', verdana, arial, sans-serif; font-size: 9px; fill: rgb(42, 63, 95); fill-opacity: 1; white-space: pre;">8</text></g><g class="ytick"><text text-anchor="end" x="76.6" y="3.15" transform="translate(0,374.43)" style="font-family: 'Open Sans', verdana, arial, sans-serif; font-size: 9px; fill: rgb(42, 63, 95); fill-opacity: 1; white-space: pre;">9</text></g><g class="ytick"><text text-anchor="end" x="73.6" y="2.1999999999999993" transform="translate(0,348.55)" style="font-family: 'Open Sans', verdana, arial, sans-serif; font-size: 12px; fill: rgb(42, 63, 95); fill-opacity: 1; white-space: pre;">100k</text></g><g class="ytick"><text text-anchor="end" x="76.6" y="3.15" transform="translate(0,178.32999999999998)" style="font-family: 'Open Sans', verdana, arial, sans-serif; font-size: 9px; fill: rgb(42, 63, 95); fill-opacity: 1; white-space: pre;">2</text></g></g><g class="overaxes-above"/></g></g><g class="polarlayer"/><g class="ternarylayer"/><g class="geolayer"/><g class="funnelarealayer"/><g class="pielayer"/><g class="treemaplayer"/><g class="sunburstlayer"/><g class="glimages"/><defs id="topdefs-378367"><g class="clips"/><clipPath id="rangesliderx-378367"><rect x="0" y="0" width="540" height="198"/></clipPath></defs><g class="layer-above"><g class="imagelayer"/><g class="shapelayer"/></g><g class="infolayer"><g class="g-gtitle"><text class="gtitle" x="35" y="50" text-anchor="start" dy="0em" style="font-family: 'Open Sans', verdana, arial, sans-serif; font-size: 17px; fill: rgb(42, 63, 95); opacity: 1; font-weight: normal; white-space: pre;">Deaths vs Confirmed (Logarithmic Scale)</text></g><g class="rangeslider-container" pointer-events="all" transform="translate(80,1222)"><rect class="rangeslider-bg" x="0" y="0" shape-rendering="crispEdges" width="540" height="198" transform="translate(0,0)" fill="#E5ECF6" stroke="#444" stroke-width="0"/><g class="rangeslider-rangeplot xy" clip-path="url('#rangesliderx-378367')"><g class="layer-subplot"><g class="shapelayer"/><g class="imagelayer"/></g><g class="gridlayer"><g class="x"/><g class="y"/></g><g class="zerolinelayer"/><path class="xlines-below"/><path class="ylines-below"/><g class="overlines-below"/><g class="xaxislayer-below"/><g class="yaxislayer-below"/><g class="overaxes-below"/><g class="plot"><g class="scatterlayer mlayer rangeplot"><g class="trace scatter trace640e51" style="stroke-miterlimit: 2; opacity: 1;"><g class="fills"/><g class="errorbars"/><g class="lines"/><g class="points"><path class="point" transform="translate(497.19,12.79)" d="M14.14,0A14.14,14.14 0 1,1 0,-14.14A14.14,14.14 0 0,1 14.14,0Z" style="opacity: 0.7; stroke-width: 1px; fill: rgb(99, 110, 250); fill-opacity: 1; stroke: rgb(255, 255, 255); stroke-opacity: 1;"/></g><g class="text"><g class="textpoint" transform="translate(0,-21.67766952966369)"><text x="497.19" y="12.79" text-anchor="middle" style="font-family: 'Open Sans', verdana, arial, sans-serif; font-size: 12px; fill: rgb(42, 63, 95); fill-opacity: 1; white-space: pre;">US</text></g></g></g><g class="trace scatter trace9aed39" style="stroke-miterlimit: 2; opacity: 1;"><g class="fills"/><g class="errorbars"/><g class="lines"/><g class="points"><path class="point" transform="translate(443.04,29.08)" d="M11.53,0A11.53,11.53 0 1,1 0,-11.53A11.53,11.53 0 0,1 11.53,0Z" style="opacity: 0.7; stroke-width: 1px; fill: rgb(239, 85, 59); fill-opacity: 1; stroke: rgb(255, 255, 255); stroke-opacity: 1;"/></g><g class="text"><g class="textpoint" transform="translate(0,-18.41714485458978)"><text x="443.04" y="29.08" text-anchor="middle" style="font-family: 'Open Sans', verdana, arial, sans-serif; font-size: 12px; fill: rgb(42, 63, 95); fill-opacity: 1; white-space: pre;">Brazil</text></g></g></g><g class="trace scatter trace99c6e0" style="stroke-miterlimit: 2; opacity: 1;"><g class="fills"/><g class="errorbars"/><g class="lines"/><g class="points"><path class="point" transform="translate(477.28,46.58)" d="M13.12,0A13.12,13.12 0 1,1 0,-13.12A13.12,13.12 0 0,1 13.12,0Z" style="opacity: 0.7; stroke-width: 1px; fill: rgb(0, 204, 150); fill-opacity: 1; stroke: rgb(255, 255, 255); stroke-opacity: 1;"/></g><g class="text"><g class="textpoint" transform="translate(0,-20.40064051506055)"><text x="477.28" y="46.58" text-anchor="middle" style="font-family: 'Open Sans', verdana, arial, sans-serif; font-size: 12px; fill: rgb(42, 63, 95); fill-opacity: 1; white-space: pre;">India</text></g></g></g><g class="trace scatter trace32c83d" style="stroke-miterlimit: 2; opacity: 1;"><g class="fills"/><g class="errorbars"/><g class="lines"/><g class="points"><path class="point" transform="translate(195.04,56.8)" d="M4.53,0A4.53,4.53 0 1,1 0,-4.53A4.53,4.53 0 0,1 4.53,0Z" style="opacity: 0.7; stroke-width: 1px; fill: rgb(171, 99, 250); fill-opacity: 1; stroke: rgb(255, 255, 255); stroke-opacity: 1;"/></g><g class="text"><g class="textpoint" transform="translate(0,-9.66659328562692)"><text x="195.04" y="56.8" text-anchor="middle" style="font-family: 'Open Sans', verdana, arial, sans-serif; font-size: 12px; fill: rgb(42, 63, 95); fill-opacity: 1; white-space: pre;">Mexico</text></g></g></g><g class="trace scatter tracedd2ba6" style="stroke-miterlimit: 2; opacity: 1;"><g class="fills"/><g class="errorbars"/><g class="lines"/><g class="points"><path class="point" transform="translate(130.13,84.14)" d="M3.55,0A3.55,3.55 0 1,1 0,-3.55A3.55,3.55 0 0,1 3.55,0Z" style="opacity: 0.7; stroke-width: 1px; fill: rgb(255, 161, 90); fill-opacity: 1; stroke: rgb(255, 255, 255); stroke-opacity: 1;"/></g><g class="text"><g class="textpoint" transform="translate(0,-8.437859938442369)"><text x="130.13" y="84.14" text-anchor="middle" style="font-family: 'Open Sans', verdana, arial, sans-serif; font-size: 12px; fill: rgb(42, 63, 95); fill-opacity: 1; white-space: pre;">United Kingdom</text></g></g></g><g class="trace scatter trace3fe36b" style="stroke-miterlimit: 2; opacity: 1;"><g class="fills"/><g class="errorbars"/><g class="lines"/><g class="points"><path class="point" transform="translate(81,91.45)" d="M2.95,0A2.95,2.95 0 1,1 0,-2.95A2.95,2.95 0 0,1 2.95,0Z" style="opacity: 0.7; stroke-width: 1px; fill: rgb(25, 211, 243); fill-opacity: 1; stroke: rgb(255, 255, 255); stroke-opacity: 1;"/></g><g class="text"><g class="textpoint" transform="translate(0,-7.688280586027848)"><text x="81" y="91.45" text-anchor="middle" style="font-family: 'Open Sans', verdana, arial, sans-serif; font-size: 12px; fill: rgb(42, 63, 95); fill-opacity: 1; white-space: pre;">Italy</text></g></g></g><g class="trace scatter trace3b39b1" style="stroke-miterlimit: 2; opacity: 1;"><g class="fills"/><g class="errorbars"/><g class="lines"/><g class="points"><path class="point" transform="translate(206.76,96.05)" d="M4.74,0A4.74,4.74 0 1,1 0,-4.74A4.74,4.74 0 0,1 4.74,0Z" style="opacity: 0.7; stroke-width: 1px; fill: rgb(255, 102, 146); fill-opacity: 1; stroke: rgb(255, 255, 255); stroke-opacity: 1;"/></g><g class="text"><g class="textpoint" transform="translate(0,-9.922164697012434)"><text x="206.76" y="96.05" text-anchor="middle" style="font-family: 'Open Sans', verdana, arial, sans-serif; font-size: 12px; fill: rgb(42, 63, 95); fill-opacity: 1; white-space: pre;">Peru</text></g></g></g><g class="trace scatter trace5aef25" style="stroke-miterlimit: 2; opacity: 1;"><g class="fills"/><g class="errorbars"/><g class="lines"/><g class="points"><path class="point" transform="translate(167.51,96.62)" d="M4.09,0A4.09,4.09 0 1,1 0,-4.09A4.09,4.09 0 0,1 4.09,0Z" style="opacity: 0.7; stroke-width: 1px; fill: rgb(182, 232, 128); fill-opacity: 1; stroke: rgb(255, 255, 255); stroke-opacity: 1;"/></g><g class="text"><g class="textpoint" transform="translate(0,-9.108508629916944)"><text x="167.51" y="96.62" text-anchor="middle" style="font-family: 'Open Sans', verdana, arial, sans-serif; font-size: 12px; fill: rgb(42, 63, 95); fill-opacity: 1; white-space: pre;">France</text></g></g></g><g class="trace scatter trace75b173" style="stroke-miterlimit: 2; opacity: 1;"><g class="fills"/><g class="errorbars"/><g class="lines"/><g class="points"><path class="point" transform="translate(130.53,105.63)" d="M3.56,0A3.56,3.56 0 1,1 0,-3.56A3.56,3.56 0 0,1 3.56,0Z" style="opacity: 0.7; stroke-width: 1px; fill: rgb(255, 151, 255); fill-opacity: 1; stroke: rgb(255, 255, 255); stroke-opacity: 1;"/></g><g class="text"><g class="textpoint" transform="translate(0,-8.444538290839475)"><text x="130.53" y="105.63" text-anchor="middle" style="font-family: 'Open Sans', verdana, arial, sans-serif; font-size: 12px; fill: rgb(42, 63, 95); fill-opacity: 1; white-space: pre;">Iran</text></g></g></g><g class="trace scatter trace7836e4" style="stroke-miterlimit: 2; opacity: 1;"><g class="fills"/><g class="errorbars"/><g class="lines"/><g class="points"><path class="point" transform="translate(209.66,105.93)" d="M4.79,0A4.79,4.79 0 1,1 0,-4.79A4.79,4.79 0 0,1 4.79,0Z" style="opacity: 0.7; stroke-width: 1px; fill: rgb(254, 203, 82); fill-opacity: 1; stroke: rgb(255, 255, 255); stroke-opacity: 1;"/></g><g class="text"><g class="textpoint" transform="translate(0,-9.98714210533224)"><text x="209.66" y="105.93" text-anchor="middle" style="font-family: 'Open Sans', verdana, arial, sans-serif; font-size: 12px; fill: rgb(42, 63, 95); fill-opacity: 1; white-space: pre;">Colombia</text></g></g></g><g class="trace scatter trace7e6bed" style="stroke-miterlimit: 2; opacity: 1;"><g class="fills"/><g class="errorbars"/><g class="lines"/><g class="points"><path class="point" transform="translate(196.43,125.17)" d="M4.56,0A4.56,4.56 0 1,1 0,-4.56A4.56,4.56 0 0,1 4.56,0Z" style="opacity: 0.7; stroke-width: 1px; fill: rgb(99, 110, 250); fill-opacity: 1; stroke: rgb(255, 255, 255); stroke-opacity: 1;"/></g><g class="text"><g class="textpoint" transform="translate(0,-9.696194039614502)"><text x="196.43" y="125.17" text-anchor="middle" style="font-family: 'Open Sans', verdana, arial, sans-serif; font-size: 12px; fill: rgb(42, 63, 95); fill-opacity: 1; white-space: pre;">Argentina</text></g></g></g><g class="trace scatter trace350687" style="stroke-miterlimit: 2; opacity: 1;"><g class="fills"/><g class="errorbars"/><g class="lines"/><g class="points"><path class="point" transform="translate(182.13,125.71)" d="M4.32,0A4.32,4.32 0 1,1 0,-4.32A4.32,4.32 0 0,1 4.32,0Z" style="opacity: 0.7; stroke-width: 1px; fill: rgb(239, 85, 59); fill-opacity: 1; stroke: rgb(255, 255, 255); stroke-opacity: 1;"/></g><g class="text"><g class="textpoint" transform="translate(0,-9.397636776101674)"><text x="182.13" y="125.71" text-anchor="middle" style="font-family: 'Open Sans', verdana, arial, sans-serif; font-size: 12px; fill: rgb(42, 63, 95); fill-opacity: 1; white-space: pre;">South Africa</text></g></g></g><g class="trace scatter traced78ca2" style="stroke-miterlimit: 2; opacity: 1;"><g class="fills"/><g class="errorbars"/><g class="lines"/><g class="points"><path class="point" transform="translate(132.2,137.95)" d="M3.58,0A3.58,3.58 0 1,1 0,-3.58A3.58,3.58 0 0,1 3.58,0Z" style="opacity: 0.7; stroke-width: 1px; fill: rgb(0, 204, 150); fill-opacity: 1; stroke: rgb(255, 255, 255); stroke-opacity: 1;"/></g><g class="text"><g class="textpoint" transform="translate(0,-8.472504558096439)"><text x="132.2" y="137.95" text-anchor="middle" style="font-family: 'Open Sans', verdana, arial, sans-serif; font-size: 12px; fill: rgb(42, 63, 95); fill-opacity: 1; white-space: pre;">Chile</text></g></g></g><g class="trace scatter traceebb6f5" style="stroke-miterlimit: 2; opacity: 1;"><g class="fills"/><g class="errorbars"/><g class="lines"/><g class="points"><path class="point" transform="translate(68.7,145.62)" d="M2.82,0A2.82,2.82 0 1,1 0,-2.82A2.82,2.82 0 0,1 2.82,0Z" style="opacity: 0.7; stroke-width: 1px; fill: rgb(171, 99, 250); fill-opacity: 1; stroke: rgb(255, 255, 255); stroke-opacity: 1;"/></g><g class="text"><g class="textpoint" transform="translate(0,-7.521368853249123)"><text x="68.7" y="145.62" text-anchor="middle" style="font-family: 'Open Sans', verdana, arial, sans-serif; font-size: 12px; fill: rgb(42, 63, 95); fill-opacity: 1; white-space: pre;">Indonesia</text></g></g></g><g class="trace scatter trace0d731c" style="stroke-miterlimit: 2; opacity: 1;"><g class="fills"/><g class="errorbars"/><g class="lines"/><g class="points"><path class="point" transform="translate(99.88,152.66)" d="M3.17,0A3.17,3.17 0 1,1 0,-3.17A3.17,3.17 0 0,1 3.17,0Z" style="opacity: 0.7; stroke-width: 1px; fill: rgb(255, 161, 90); fill-opacity: 1; stroke: rgb(255, 255, 255); stroke-opacity: 1;"/></g><g class="text"><g class="textpoint" transform="translate(0,-7.960102835385909)"><text x="99.88" y="152.66" text-anchor="middle" style="font-family: 'Open Sans', verdana, arial, sans-serif; font-size: 12px; fill: rgb(42, 63, 95); fill-opacity: 1; white-space: pre;">Iraq</text></g></g></g><g class="trace scatter trace7818e7" style="stroke-miterlimit: 2; opacity: 1;"><g class="fills"/><g class="errorbars"/><g class="lines"/><g class="points"><path class="point" transform="translate(82.59,157.76)" d="M2.97,0A2.97,2.97 0 1,1 0,-2.97A2.97,2.97 0 0,1 2.97,0Z" style="opacity: 0.7; stroke-width: 1px; fill: rgb(25, 211, 243); fill-opacity: 1; stroke: rgb(255, 255, 255); stroke-opacity: 1;"/></g><g class="text"><g class="textpoint" transform="translate(0,-7.7104820724094525)"><text x="82.59" y="157.76" text-anchor="middle" style="font-family: 'Open Sans', verdana, arial, sans-serif; font-size: 12px; fill: rgb(42, 63, 95); fill-opacity: 1; white-space: pre;">Turkey</text></g></g></g><g class="trace scatter trace383de5" style="stroke-miterlimit: 2; opacity: 1;"><g class="fills"/><g class="errorbars"/><g class="lines"/><g class="points"><path class="point" transform="translate(80.13,168.28)" d="M2.94,0A2.94,2.94 0 1,1 0,-2.94A2.94,2.94 0 0,1 2.94,0Z" style="opacity: 0.7; stroke-width: 1px; fill: rgb(255, 102, 146); fill-opacity: 1; stroke: rgb(255, 255, 255); stroke-opacity: 1;"/></g><g class="text"><g class="textpoint" transform="translate(0,-7.676224751464883)"><text x="80.13" y="168.28" text-anchor="middle" style="font-family: 'Open Sans', verdana, arial, sans-serif; font-size: 12px; fill: rgb(42, 63, 95); fill-opacity: 1; white-space: pre;">Pakistan</text></g></g></g><g class="trace scatter tracee58438" style="stroke-miterlimit: 2; opacity: 1;"><g class="fills"/><g class="errorbars"/><g class="lines"/><g class="points"><path class="point" transform="translate(100.07,177.75)" d="M3.17,0A3.17,3.17 0 1,1 0,-3.17A3.17,3.17 0 0,1 3.17,0Z" style="opacity: 0.7; stroke-width: 1px; fill: rgb(182, 232, 128); fill-opacity: 1; stroke: rgb(255, 255, 255); stroke-opacity: 1;"/></g><g class="text"><g class="textpoint" transform="translate(0,-7.962818480623717)"><text x="100.07" y="177.75" text-anchor="middle" style="font-family: 'Open Sans', verdana, arial, sans-serif; font-size: 12px; fill: rgb(42, 63, 95); fill-opacity: 1; white-space: pre;">Bangladesh</text></g></g></g><g class="trace scatter trace464ea8" style="stroke-miterlimit: 2; opacity: 1;"><g class="fills"/><g class="errorbars"/><g class="lines"/><g class="points"><path class="point" transform="translate(89.08,182.08)" d="M3.04,0A3.04,3.04 0 1,1 0,-3.04A3.04,3.04 0 0,1 3.04,0Z" style="opacity: 0.7; stroke-width: 1px; fill: rgb(255, 151, 255); fill-opacity: 1; stroke: rgb(255, 255, 255); stroke-opacity: 1;"/></g><g class="text"><g class="textpoint" transform="translate(0,-7.802162993616358)"><text x="89.08" y="182.08" text-anchor="middle" style="font-family: 'Open Sans', verdana, arial, sans-serif; font-size: 12px; fill: rgb(42, 63, 95); fill-opacity: 1; white-space: pre;">Saudi Arabia</text></g></g></g><g class="trace scatter tracecdf0b1" style="stroke-miterlimit: 2; opacity: 1;"><g class="fills"/><g class="errorbars"/><g class="lines"/><g class="points"><path class="point" transform="translate(30,187.55)" d="M2.44,0A2.44,2.44 0 1,1 0,-2.44A2.44,2.44 0 0,1 2.44,0Z" style="opacity: 0.7; stroke-width: 1px; fill: rgb(254, 203, 82); fill-opacity: 1; stroke: rgb(255, 255, 255); stroke-opacity: 1;"/></g><g class="text"><g class="textpoint" transform="translate(0,-7.043851721313189)"><text x="30" y="187.55" text-anchor="middle" style="font-family: 'Open Sans', verdana, arial, sans-serif; font-size: 12px; fill: rgb(42, 63, 95); fill-opacity: 1; white-space: pre;">Ukraine</text></g></g></g><g class="trace scatter trace8983cc" style="stroke-miterlimit: 2; opacity: 1;"><g class="fills"/><g class="errorbars"/><g class="lines"/><g class="points"/><g class="text"/></g><g class="trace scatter trace5475b5" style="stroke-miterlimit: 2; opacity: 1;"><g class="fills"/><g class="errorbars"/><g class="lines"/><g class="points"/><g class="text"/></g><g class="trace scatter trace557f12" style="stroke-miterlimit: 2; opacity: 1;"><g class="fills"/><g class="errorbars"/><g class="lines"/><g class="points"/><g class="text"/></g><g class="trace scatter trace17f0c2" style="stroke-miterlimit: 2; opacity: 1;"><g class="fills"/><g class="errorbars"/><g class="lines"/><g class="points"/><g class="text"/></g><g class="trace scatter trace5e1377" style="stroke-miterlimit: 2; opacity: 1;"><g class="fills"/><g class="errorbars"/><g class="lines"/><g class="points"/><g class="text"/></g></g></g><g class="overplot"/><path class="xlines-above crisp" style="fill: none;"/><path class="ylines-above crisp" style="fill: none;"/><g class="overlines-above"/><g class="xaxislayer-above"/><g class="yaxislayer-above"/><g class="overaxes-above"/></g><rect class="rangeslider-mask-min" x="0" y="0" shape-rendering="crispEdges" height="198" width="0" style="fill: rgb(0, 0, 0); fill-opacity: 0.4;"/><rect class="rangeslider-mask-max" y="0" shape-rendering="crispEdges" height="198" x="540" width="0" style="fill: rgb(0, 0, 0); fill-opacity: 0.4;"/><g class="rangeslider-grabber-min" transform="translate(-2.5,0.5)"><rect class="rangeslider-handle-min" x="0" width="4" rx="1" fill="#fff" stroke="#444" stroke-width="1" shape-rendering="crispEdges" y="50" height="99"/></g><g class="rangeslider-grabber-max" transform="translate(538.5,0.5)"><rect class="rangeslider-handle-max" x="0" width="4" rx="1" fill="#fff" stroke="#444" stroke-width="1" shape-rendering="crispEdges" y="50" height="99"/></g></g><g class="g-ytitle"><text class="ytitle" transform="rotate(-90,18.809375000000003,641.5)" x="18.809375000000003" y="641.5" text-anchor="middle" style="font-family: 'Open Sans', verdana, arial, sans-serif; font-size: 14px; fill: rgb(42, 63, 95); opacity: 1; font-weight: normal; white-space: pre;">Deaths</text></g><g class="g-xtitle"><text class="xtitle" x="350" y="1451" text-anchor="middle" style="font-family: 'Open Sans', verdana, arial, sans-serif; font-size: 14px; fill: rgb(42, 63, 95); opacity: 1; font-weight: normal; white-space: pre;">Confirmed</text></g></g></svg>